{"history": {"undo": [{"type": "insert", "key": ["clips"], "value": {"alpha": {"Points": [{"co": {"X": 1, "Y": 1}, "interpolation": 2}]}, "anchor": 0, "channel_filter": {"Points": [{"co": {"X": 1, "Y": -1}, "interpolation": 2}]}, "channel_mapping": {"Points": [{"co": {"X": 1, "Y": -1}, "interpolation": 2}]}, "crop_height": {"Points": [{"co": {"X": 1, "Y": -1}, "interpolation": 2}]}, "crop_width": {"Points": [{"co": {"X": 1, "Y": -1}, "interpolation": 2}]}, "crop_x": {"Points": [{"co": {"X": 1, "Y": 0}, "interpolation": 2}]}, "crop_y": {"Points": [{"co": {"X": 1, "Y": 0}, "interpolation": 2}]}, "display": 0, "duration": 186.0050048828125, "effects": [], "end": 186.0050048828125, "gravity": 4, "has_audio": {"Points": [{"co": {"X": 1, "Y": -1}, "interpolation": 2}]}, "has_video": {"Points": [{"co": {"X": 1, "Y": -1}, "interpolation": 2}]}, "id": "KZD7J8HX58", "layer": 1, "location_x": {"Points": [{"co": {"X": 1, "Y": 0}, "interpolation": 2}]}, "location_y": {"Points": [{"co": {"X": 1, "Y": 0}, "interpolation": 2}]}, "perspective_c1_x": {"Points": [{"co": {"X": 1, "Y": -1}, "interpolation": 2}]}, "perspective_c1_y": {"Points": [{"co": {"X": 1, "Y": -1}, "interpolation": 2}]}, "perspective_c2_x": {"Points": [{"co": {"X": 1, "Y": -1}, "interpolation": 2}]}, "perspective_c2_y": {"Points": [{"co": {"X": 1, "Y": -1}, "interpolation": 2}]}, "perspective_c3_x": {"Points": [{"co": {"X": 1, "Y": -1}, "interpolation": 2}]}, "perspective_c3_y": {"Points": [{"co": {"X": 1, "Y": -1}, "interpolation": 2}]}, "perspective_c4_x": {"Points": [{"co": {"X": 1, "Y": -1}, "interpolation": 2}]}, "perspective_c4_y": {"Points": [{"co": {"X": 1, "Y": -1}, "interpolation": 2}]}, "position": 8.63999973297119, "reader": {"acodec": "aac", "audio_bit_rate": 2277, "audio_stream_index": 1, "audio_timebase": {"den": 48000, "num": 1}, "channel_layout": 3, "channels": 2, "display_ratio": {"den": 1, "num": 1}, "duration": 186.0050048828125, "file_size": "489181", "fps": {"den": 186, "num": 4465}, "has_audio": true, "has_single_image": false, "has_video": true, "height": 272, "interlaced_frame": false, "path": "/home/diary/Desktop/\u041a\u043e\u043d\u0446\u0435\u043f\u0442\u044b/64. \u041f\u0440\u0438\u0447\u0438\u043d\u044b \u0431\u043e\u043b\u0435\u0437\u043d\u0435\u0439/heartbeat 3 minutes/heartbeat 3 minutes olive.mp4", "pixel_format": 0, "pixel_ratio": {"den": 1, "num": 1}, "sample_rate": 48000, "top_field_first": true, "type": "FFmpegReader", "vcodec": "h264", "video_bit_rate": 21036, "video_length": "4465", "video_stream_index": 0, "video_timebase": {"den": 12288, "num": 1}, "width": 272}, "rotation": {"Points": [{"co": {"X": 1, "Y": 0}, "interpolation": 2}]}, "scale": 1, "scale_x": {"Points": [{"co": {"X": 1, "Y": 1}, "interpolation": 2}]}, "scale_y": {"Points": [{"co": {"X": 1, "Y": 1}, "interpolation": 2}]}, "shear_x": {"Points": [{"co": {"X": 1, "Y": 0}, "interpolation": 2}]}, "shear_y": {"Points": [{"co": {"X": 1, "Y": 0}, "interpolation": 2}]}, "start": 0, "time": {"Points": [{"co": {"X": 1, "Y": 1}, "interpolation": 2}]}, "volume": {"Points": [{"co": {"X": 1, "Y": 1}, "interpolation": 2}]}, "wave_color": {"alpha": {"Points": [{"co": {"X": 1, "Y": 255}, "handle_left": {"X": 0.5, "Y": 1}, "handle_right": {"X": 0.5, "Y": 0}, "handle_type": 0, "interpolation": 0}]}, "blue": {"Points": [{"co": {"X": 1, "Y": 255}, "handle_left": {"X": 0.5, "Y": 1}, "handle_right": {"X": 0.5, "Y": 0}, "handle_type": 0, "interpolation": 0}]}, "green": {"Points": [{"co": {"X": 1, "Y": 123}, "handle_left": {"X": 0.5, "Y": 1}, "handle_right": {"X": 0.5, "Y": 0}, "handle_type": 0, "interpolation": 0}]}, "red": {"Points": [{"co": {"X": 1, "Y": 0}, "handle_left": {"X": 0.5, "Y": 1}, "handle_right": {"X": 0.5, "Y": 0}, "handle_type": 0, "interpolation": 0}]}}, "waveform": false, "file_id": "LS19984FRT", "title": "heartbeat 3 minutes olive.mp4", "image": "/home/diary/.openshot_qt/thumbnail/LS19984FRT.png"}, "partial": false, "old_values": [{"alpha": {"Points": [{"co": {"X": 1, "Y": 1}, "interpolation": 2}]}, "anchor": 0, "channel_filter": {"Points": [{"co": {"X": 1, "Y": -1}, "interpolation": 2}]}, "channel_mapping": {"Points": [{"co": {"X": 1, "Y": -1}, "interpolation": 2}]}, "crop_height": {"Points": [{"co": {"X": 1, "Y": -1}, "interpolation": 2}]}, "crop_width": {"Points": [{"co": {"X": 1, "Y": -1}, "interpolation": 2}]}, "crop_x": {"Points": [{"co": {"X": 1, "Y": 0}, "interpolation": 2}]}, "crop_y": {"Points": [{"co": {"X": 1, "Y": 0}, "interpolation": 2}]}, "display": 0, "duration": 86400.0, "effects": [], "end": 22.959999999999994, "gravity": 4, "has_audio": {"Points": [{"co": {"X": 1, "Y": -1}, "interpolation": 2}]}, "has_video": {"Points": [{"co": {"X": 1, "Y": -1}, "interpolation": 2}]}, "id": "KJRMFF10ED", "layer": 0, "location_x": {"Points": [{"co": {"X": 1, "Y": 0}, "interpolation": 2}]}, "location_y": {"Points": [{"co": {"X": 1, "Y": 0}, "interpolation": 2}]}, "perspective_c1_x": {"Points": [{"co": {"X": 1, "Y": -1}, "interpolation": 2}]}, "perspective_c1_y": {"Points": [{"co": {"X": 1, "Y": -1}, "interpolation": 2}]}, "perspective_c2_x": {"Points": [{"co": {"X": 1, "Y": -1}, "interpolation": 2}]}, "perspective_c2_y": {"Points": [{"co": {"X": 1, "Y": -1}, "interpolation": 2}]}, "perspective_c3_x": {"Points": [{"co": {"X": 1, "Y": -1}, "interpolation": 2}]}, "perspective_c3_y": {"Points": [{"co": {"X": 1, "Y": -1}, "interpolation": 2}]}, "perspective_c4_x": {"Points": [{"co": {"X": 1, "Y": -1}, "interpolation": 2}]}, "perspective_c4_y": {"Points": [{"co": {"X": 1, "Y": -1}, "interpolation": 2}]}, "position": 8.4, "reader": {"acodec": "", "audio_bit_rate": 0, "audio_stream_index": -1, "audio_timebase": {"den": 1, "num": 1}, "channel_layout": 4, "channels": 0, "display_ratio": {"den": 9, "num": 16}, "duration": 86400.0, "file_size": "3686400", "fps": {"den": 1, "num": 30}, "has_audio": false, "has_single_image": true, "has_video": true, "height": 720, "interlaced_frame": false, "path": "/home/diary/Desktop/\u041a\u043e\u043d\u0446\u0435\u043f\u0442\u044b/64. \u041f\u0440\u0438\u0447\u0438\u043d\u044b \u0431\u043e\u043b\u0435\u0437\u043d\u0435\u0439/video assets/white bg.png", "pixel_format": -1, "pixel_ratio": {"den": 1, "num": 1}, "sample_rate": 0, "top_field_first": true, "type": "QtImageReader", "vcodec": "", "video_bit_rate": 0, "video_length": "2592000", "video_stream_index": -1, "video_timebase": {"den": 30, "num": 1}, "width": 1280}, "rotation": {"Points": [{"co": {"X": 1, "Y": 0}, "interpolation": 2}]}, "scale": 1, "scale_x": {"Points": [{"co": {"X": 1, "Y": 1}, "interpolation": 2}]}, "scale_y": {"Points": [{"co": {"X": 1, "Y": 1}, "interpolation": 2}]}, "shear_x": {"Points": [{"co": {"X": 1, "Y": 0}, "interpolation": 2}]}, "shear_y": {"Points": [{"co": {"X": 1, "Y": 0}, "interpolation": 2}]}, "start": 0, "time": {"Points": [{"co": {"X": 1, "Y": 1}, "interpolation": 2}]}, "volume": {"Points": [{"co": {"X": 1, "Y": 1}, "interpolation": 2}]}, "wave_color": {"alpha": {"Points": [{"co": {"X": 1, "Y": 255}, "handle_left": {"X": 0.5, "Y": 1}, "handle_right": {"X": 0.5, "Y": 0}, "handle_type": 0, "interpolation": 0}]}, "blue": {"Points": [{"co": {"X": 1, "Y": 255}, "handle_left": {"X": 0.5, "Y": 1}, "handle_right": {"X": 0.5, "Y": 0}, "handle_type": 0, "interpolation": 0}]}, "green": {"Points": [{"co": {"X": 1, "Y": 123}, "handle_left": {"X": 0.5, "Y": 1}, "handle_right": {"X": 0.5, "Y": 0}, "handle_type": 0, "interpolation": 0}]}, "red": {"Points": [{"co": {"X": 1, "Y": 0}, "handle_left": {"X": 0.5, "Y": 1}, "handle_right": {"X": 0.5, "Y": 0}, "handle_type": 0, "interpolation": 0}]}}, "waveform": false, "file_id": "DYQPECIBL6", "title": "white bg.png", "image": "/home/diary/.openshot_qt/thumbnail/DYQPECIBL6.png"}, {"alpha": {"Points": [{"co": {"X": 1, "Y": 1}, "interpolation": 2}]}, "anchor": 0, "channel_filter": {"Points": [{"co": {"X": 1, "Y": -1}, "interpolation": 2}]}, "channel_mapping": {"Points": [{"co": {"X": 1, "Y": -1}, "interpolation": 2}]}, "crop_height": {"Points": [{"co": {"X": 1, "Y": -1}, "interpolation": 2}]}, "crop_width": {"Points": [{"co": {"X": 1, "Y": -1}, "interpolation": 2}]}, "crop_x": {"Points": [{"co": {"X": 1, "Y": 0}, "interpolation": 2}]}, "crop_y": {"Points": [{"co": {"X": 1, "Y": 0}, "interpolation": 2}]}, "display": 0, "duration": 8.399999618530273, "effects": [], "end": 8.399999618530273, "gravity": 4, "has_audio": {"Points": [{"co": {"X": 1, "Y": -1}, "interpolation": 2}]}, "has_video": {"Points": [{"co": {"X": 1, "Y": -1}, "interpolation": 2}]}, "id": "Z9ELMDF57H", "layer": 2, "location_x": {"Points": [{"co": {"X": 1, "Y": 0.0}, "handle_left": {"X": 0.5, "Y": 1}, "handle_right": {"X": 0.5, "Y": 0}, "handle_type": 0, "interpolation": 0}]}, "location_y": {"Points": [{"co": {"X": 1, "Y": 0.23096446700507614}, "handle_left": {"X": 0.5, "Y": 1}, "handle_right": {"X": 0.5, "Y": 0}, "handle_type": 0, "interpolation": 0}]}, "perspective_c1_x": {"Points": [{"co": {"X": 1, "Y": -1}, "interpolation": 2}]}, "perspective_c1_y": {"Points": [{"co": {"X": 1, "Y": -1}, "interpolation": 2}]}, "perspective_c2_x": {"Points": [{"co": {"X": 1, "Y": -1}, "interpolation": 2}]}, "perspective_c2_y": {"Points": [{"co": {"X": 1, "Y": -1}, "interpolation": 2}]}, "perspective_c3_x": {"Points": [{"co": {"X": 1, "Y": -1}, "interpolation": 2}]}, "perspective_c3_y": {"Points": [{"co": {"X": 1, "Y": -1}, "interpolation": 2}]}, "perspective_c4_x": {"Points": [{"co": {"X": 1, "Y": -1}, "interpolation": 2}]}, "perspective_c4_y": {"Points": [{"co": {"X": 1, "Y": -1}, "interpolation": 2}]}, "position": 11.6075, "reader": {"acodec": "", "audio_bit_rate": 0, "audio_stream_index": -1, "audio_timebase": {"den": 1, "num": 1}, "channel_layout": 4, "channels": 0, "display_ratio": {"den": 9, "num": 16}, "duration": 8.399999618530273, "file_size": "-1", "fps": {"den": 1, "num": 25}, "has_audio": false, "has_single_image": false, "has_video": true, "height": 720, "interlaced_frame": false, "path": "/home/diary/Desktop/\u041a\u043e\u043d\u0446\u0435\u043f\u0442\u044b/64. \u041f\u0440\u0438\u0447\u0438\u043d\u044b \u0431\u043e\u043b\u0435\u0437\u043d\u0435\u0439/2305192a-aa30-11ea-a79a-0013729ccbc3/Health%04d.png", "pixel_format": 28, "pixel_ratio": {"den": 2835, "num": 2835}, "sample_rate": 0, "top_field_first": true, "type": "FFmpegReader", "vcodec": "png", "video_bit_rate": 0, "video_length": "210", "video_stream_index": 0, "video_timebase": {"den": 25, "num": 1}, "width": 1280}, "rotation": {"Points": [{"co": {"X": 1, "Y": 0}, "interpolation": 2}]}, "scale": 1, "scale_x": {"Points": [{"co": {"X": 1, "Y": 0.30428571428571427}, "handle_left": {"X": 0.5, "Y": 1}, "handle_right": {"X": 0.5, "Y": 0}, "handle_type": 0, "interpolation": 0}]}, "scale_y": {"Points": [{"co": {"X": 1, "Y": 0.20304568527918782}, "handle_left": {"X": 0.5, "Y": 1}, "handle_right": {"X": 0.5, "Y": 0}, "handle_type": 0, "interpolation": 0}]}, "shear_x": {"Points": [{"co": {"X": 1, "Y": 0}, "interpolation": 2}]}, "shear_y": {"Points": [{"co": {"X": 1, "Y": 0}, "interpolation": 2}]}, "start": 0, "time": {"Points": [{"co": {"X": 1, "Y": 1}, "interpolation": 2}]}, "volume": {"Points": [{"co": {"X": 1, "Y": 1}, "interpolation": 2}]}, "wave_color": {"alpha": {"Points": [{"co": {"X": 1, "Y": 255}, "handle_left": {"X": 0.5, "Y": 1}, "handle_right": {"X": 0.5, "Y": 0}, "handle_type": 0, "interpolation": 0}]}, "blue": {"Points": [{"co": {"X": 1, "Y": 255}, "handle_left": {"X": 0.5, "Y": 1}, "handle_right": {"X": 0.5, "Y": 0}, "handle_type": 0, "interpolation": 0}]}, "green": {"Points": [{"co": {"X": 1, "Y": 123}, "handle_left": {"X": 0.5, "Y": 1}, "handle_right": {"X": 0.5, "Y": 0}, "handle_type": 0, "interpolation": 0}]}, "red": {"Points": [{"co": {"X": 1, "Y": 0}, "handle_left": {"X": 0.5, "Y": 1}, "handle_right": {"X": 0.5, "Y": 0}, "handle_type": 0, "interpolation": 0}]}}, "waveform": false, "file_id": "WU2Z07RHV4", "title": "Health%04d.png", "image": "/home/diary/.openshot_qt/thumbnail/WU2Z07RHV4.png"}, {"alpha": {"Points": [{"co": {"X": 1, "Y": 1}, "interpolation": 2}]}, "anchor": 0, "channel_filter": {"Points": [{"co": {"X": 1, "Y": -1}, "interpolation": 2}]}, "channel_mapping": {"Points": [{"co": {"X": 1, "Y": -1}, "interpolation": 2}]}, "crop_height": {"Points": [{"co": {"X": 1, "Y": -1}, "interpolation": 2}]}, "crop_width": {"Points": [{"co": {"X": 1, "Y": -1}, "interpolation": 2}]}, "crop_x": {"Points": [{"co": {"X": 1, "Y": 0}, "interpolation": 2}]}, "crop_y": {"Points": [{"co": {"X": 1, "Y": 0}, "interpolation": 2}]}, "display": 0, "duration": 86400.0, "effects": [], "end": 8.4, "gravity": 4, "has_audio": {"Points": [{"co": {"X": 1, "Y": -1}, "interpolation": 2}]}, "has_video": {"Points": [{"co": {"X": 1, "Y": -1}, "interpolation": 2}]}, "id": "CZ56MTN6QM", "layer": 4, "location_x": {"Points": [{"co": {"X": 1, "Y": 0}, "interpolation": 2}]}, "location_y": {"Points": [{"co": {"X": 1, "Y": 0}, "interpolation": 2}]}, "perspective_c1_x": {"Points": [{"co": {"X": 1, "Y": -1}, "interpolation": 2}]}, "perspective_c1_y": {"Points": [{"co": {"X": 1, "Y": -1}, "interpolation": 2}]}, "perspective_c2_x": {"Points": [{"co": {"X": 1, "Y": -1}, "interpolation": 2}]}, "perspective_c2_y": {"Points": [{"co": {"X": 1, "Y": -1}, "interpolation": 2}]}, "perspective_c3_x": {"Points": [{"co": {"X": 1, "Y": -1}, "interpolation": 2}]}, "perspective_c3_y": {"Points": [{"co": {"X": 1, "Y": -1}, "interpolation": 2}]}, "perspective_c4_x": {"Points": [{"co": {"X": 1, "Y": -1}, "interpolation": 2}]}, "perspective_c4_y": {"Points": [{"co": {"X": 1, "Y": -1}, "interpolation": 2}]}, "position": 0, "reader": {"acodec": "", "audio_bit_rate": 0, "audio_stream_index": -1, "audio_timebase": {"den": 1, "num": 1}, "channel_layout": 4, "channels": 0, "display_ratio": {"den": 9, "num": 16}, "duration": 86400.0, "file_size": "8294400", "fps": {"den": 1, "num": 30}, "has_audio": false, "has_single_image": true, "has_video": true, "height": 1080, "interlaced_frame": false, "path": "/home/diary/Desktop/\u041a\u043e\u043d\u0446\u0435\u043f\u0442\u044b/64. \u041f\u0440\u0438\u0447\u0438\u043d\u044b \u0431\u043e\u043b\u0435\u0437\u043d\u0435\u0439/assets/Vinogradoff Group.svg", "pixel_format": -1, "pixel_ratio": {"den": 1, "num": 1}, "sample_rate": 0, "top_field_first": true, "type": "QtImageReader", "vcodec": "", "video_bit_rate": 0, "video_length": "2592000", "video_stream_index": -1, "video_timebase": {"den": 30, "num": 1}, "width": 1920}, "rotation": {"Points": [{"co": {"X": 1, "Y": 0}, "interpolation": 2}]}, "scale": 1, "scale_x": {"Points": [{"co": {"X": 1, "Y": 1}, "interpolation": 2}]}, "scale_y": {"Points": [{"co": {"X": 1, "Y": 1}, "interpolation": 2}]}, "shear_x": {"Points": [{"co": {"X": 1, "Y": 0}, "interpolation": 2}]}, "shear_y": {"Points": [{"co": {"X": 1, "Y": 0}, "interpolation": 2}]}, "start": 0, "time": {"Points": [{"co": {"X": 1, "Y": 1}, "interpolation": 2}]}, "volume": {"Points": [{"co": {"X": 1, "Y": 1}, "interpolation": 2}]}, "wave_color": {"alpha": {"Points": [{"co": {"X": 1, "Y": 255}, "handle_left": {"X": 0.5, "Y": 1}, "handle_right": {"X": 0.5, "Y": 0}, "handle_type": 0, "interpolation": 0}]}, "blue": {"Points": [{"co": {"X": 1, "Y": 255}, "handle_left": {"X": 0.5, "Y": 1}, "handle_right": {"X": 0.5, "Y": 0}, "handle_type": 0, "interpolation": 0}]}, "green": {"Points": [{"co": {"X": 1, "Y": 123}, "handle_left": {"X": 0.5, "Y": 1}, "handle_right": {"X": 0.5, "Y": 0}, "handle_type": 0, "interpolation": 0}]}, "red": {"Points": [{"co": {"X": 1, "Y": 0}, "handle_left": {"X": 0.5, "Y": 1}, "handle_right": {"X": 0.5, "Y": 0}, "handle_type": 0, "interpolation": 0}]}}, "waveform": false, "file_id": "FHRB35LFMC", "title": "Vinogradoff Group.svg", "image": "/home/diary/.openshot_qt/thumbnail/FHRB35LFMC.png"}, {"alpha": {"Points": [{"co": {"X": 1, "Y": 1}, "interpolation": 2}]}, "anchor": 0, "channel_filter": {"Points": [{"co": {"X": 1, "Y": -1}, "interpolation": 2}]}, "channel_mapping": {"Points": [{"co": {"X": 1, "Y": -1}, "interpolation": 2}]}, "crop_height": {"Points": [{"co": {"X": 1, "Y": -1}, "interpolation": 2}]}, "crop_width": {"Points": [{"co": {"X": 1, "Y": -1}, "interpolation": 2}]}, "crop_x": {"Points": [{"co": {"X": 1, "Y": 0}, "interpolation": 2}]}, "crop_y": {"Points": [{"co": {"X": 1, "Y": 0}, "interpolation": 2}]}, "display": 0, "duration": 13.279999732971191, "effects": [], "end": 8.63999973297119, "gravity": 4, "has_audio": {"Points": [{"co": {"X": 1, "Y": -1}, "interpolation": 2}]}, "has_video": {"Points": [{"co": {"X": 1, "Y": -1}, "interpolation": 2}]}, "id": "BMEREUEBD0", "layer": 3, "location_x": {"Points": [{"co": {"X": 1, "Y": 0}, "interpolation": 2}]}, "location_y": {"Points": [{"co": {"X": 1, "Y": 0}, "interpolation": 2}]}, "perspective_c1_x": {"Points": [{"co": {"X": 1, "Y": -1}, "interpolation": 2}]}, "perspective_c1_y": {"Points": [{"co": {"X": 1, "Y": -1}, "interpolation": 2}]}, "perspective_c2_x": {"Points": [{"co": {"X": 1, "Y": -1}, "interpolation": 2}]}, "perspective_c2_y": {"Points": [{"co": {"X": 1, "Y": -1}, "interpolation": 2}]}, "perspective_c3_x": {"Points": [{"co": {"X": 1, "Y": -1}, "interpolation": 2}]}, "perspective_c3_y": {"Points": [{"co": {"X": 1, "Y": -1}, "interpolation": 2}]}, "perspective_c4_x": {"Points": [{"co": {"X": 1, "Y": -1}, "interpolation": 2}]}, "perspective_c4_y": {"Points": [{"co": {"X": 1, "Y": -1}, "interpolation": 2}]}, "position": 0, "reader": {"acodec": "aac", "audio_bit_rate": 127927, "audio_stream_index": 1, "audio_timebase": {"den": 48000, "num": 1}, "channel_layout": 3, "channels": 2, "display_ratio": {"den": 9, "num": 16}, "duration": 13.279999732971191, "file_size": "33793647", "fps": {"den": 1, "num": 25}, "has_audio": true, "has_single_image": false, "has_video": true, "height": 1080, "interlaced_frame": false, "path": "/home/diary/Desktop/\u041a\u043e\u043d\u0446\u0435\u043f\u0442\u044b/64. \u041f\u0440\u0438\u0447\u0438\u043d\u044b \u0431\u043e\u043b\u0435\u0437\u043d\u0435\u0439/video assets/fire_background_loop2_videvo2.mov", "pixel_format": 0, "pixel_ratio": {"den": 1, "num": 1}, "sample_rate": 48000, "top_field_first": true, "type": "FFmpegReader", "vcodec": "h264", "video_bit_rate": 20357618, "video_length": "332", "video_stream_index": 0, "video_timebase": {"den": 25, "num": 1}, "width": 1920}, "rotation": {"Points": [{"co": {"X": 1, "Y": 0}, "interpolation": 2}]}, "scale": 1, "scale_x": {"Points": [{"co": {"X": 1, "Y": 1}, "interpolation": 2}]}, "scale_y": {"Points": [{"co": {"X": 1, "Y": 1}, "interpolation": 2}]}, "shear_x": {"Points": [{"co": {"X": 1, "Y": 0}, "interpolation": 2}]}, "shear_y": {"Points": [{"co": {"X": 1, "Y": 0}, "interpolation": 2}]}, "start": 0, "time": {"Points": [{"co": {"X": 1, "Y": 1}, "interpolation": 2}]}, "volume": {"Points": [{"co": {"X": 1, "Y": 1}, "interpolation": 2}]}, "wave_color": {"alpha": {"Points": [{"co": {"X": 1, "Y": 255}, "handle_left": {"X": 0.5, "Y": 1}, "handle_right": {"X": 0.5, "Y": 0}, "handle_type": 0, "interpolation": 0}]}, "blue": {"Points": [{"co": {"X": 1, "Y": 255}, "handle_left": {"X": 0.5, "Y": 1}, "handle_right": {"X": 0.5, "Y": 0}, "handle_type": 0, "interpolation": 0}]}, "green": {"Points": [{"co": {"X": 1, "Y": 123}, "handle_left": {"X": 0.5, "Y": 1}, "handle_right": {"X": 0.5, "Y": 0}, "handle_type": 0, "interpolation": 0}]}, "red": {"Points": [{"co": {"X": 1, "Y": 0}, "handle_left": {"X": 0.5, "Y": 1}, "handle_right": {"X": 0.5, "Y": 0}, "handle_type": 0, "interpolation": 0}]}}, "waveform": false, "file_id": "4WES5Z3VG4", "title": "fire_background_loop2_videvo2.mov", "image": "/home/diary/.openshot_qt/thumbnail/4WES5Z3VG4.png"}, {"alpha": {"Points": [{"co": {"X": 1, "Y": 1}, "interpolation": 2}]}, "anchor": 0, "channel_filter": {"Points": [{"co": {"X": 1, "Y": -1}, "interpolation": 2}]}, "channel_mapping": {"Points": [{"co": {"X": 1, "Y": -1}, "interpolation": 2}]}, "crop_height": {"Points": [{"co": {"X": 1, "Y": -1}, "interpolation": 2}]}, "crop_width": {"Points": [{"co": {"X": 1, "Y": -1}, "interpolation": 2}]}, "crop_x": {"Points": [{"co": {"X": 1, "Y": 0}, "interpolation": 2}]}, "crop_y": {"Points": [{"co": {"X": 1, "Y": 0}, "interpolation": 2}]}, "display": 0, "duration": 23.200000762939453, "effects": [], "end": 23.200000762939453, "gravity": 4, "has_audio": {"Points": [{"co": {"X": 1, "Y": -1}, "interpolation": 2}]}, "has_video": {"Points": [{"co": {"X": 1, "Y": -1}, "interpolation": 2}]}, "id": "8S65LG0ZFO", "layer": 3, "location_x": {"Points": [{"co": {"X": 1, "Y": 0}, "interpolation": 2}]}, "location_y": {"Points": [{"co": {"X": 1, "Y": 0}, "interpolation": 2}]}, "perspective_c1_x": {"Points": [{"co": {"X": 1, "Y": -1}, "interpolation": 2}]}, "perspective_c1_y": {"Points": [{"co": {"X": 1, "Y": -1}, "interpolation": 2}]}, "perspective_c2_x": {"Points": [{"co": {"X": 1, "Y": -1}, "interpolation": 2}]}, "perspective_c2_y": {"Points": [{"co": {"X": 1, "Y": -1}, "interpolation": 2}]}, "perspective_c3_x": {"Points": [{"co": {"X": 1, "Y": -1}, "interpolation": 2}]}, "perspective_c3_y": {"Points": [{"co": {"X": 1, "Y": -1}, "interpolation": 2}]}, "perspective_c4_x": {"Points": [{"co": {"X": 1, "Y": -1}, "interpolation": 2}]}, "perspective_c4_y": {"Points": [{"co": {"X": 1, "Y": -1}, "interpolation": 2}]}, "position": 23.52, "reader": {"acodec": "", "audio_bit_rate": 0, "audio_stream_index": -1, "audio_timebase": {"den": 1, "num": 1}, "channel_layout": 4, "channels": 0, "display_ratio": {"den": 9, "num": 16}, "duration": 23.200000762939453, "file_size": "82713018", "fps": {"den": 1, "num": 25}, "has_audio": false, "has_single_image": false, "has_video": true, "height": 2160, "interlaced_frame": false, "path": "/home/diary/Desktop/\u041a\u043e\u043d\u0446\u0435\u043f\u0442\u044b/64. \u041f\u0440\u0438\u0447\u0438\u043d\u044b \u0431\u043e\u043b\u0435\u0437\u043d\u0435\u0439/video assets/200129_02_Medical_Ward_4k_103.mp4", "pixel_format": 0, "pixel_ratio": {"den": 1, "num": 1}, "sample_rate": 0, "top_field_first": true, "type": "FFmpegReader", "vcodec": "h264", "video_bit_rate": 28521730, "video_length": "580", "video_stream_index": 0, "video_timebase": {"den": 25000, "num": 1}, "width": 3840}, "rotation": {"Points": [{"co": {"X": 1, "Y": 0}, "interpolation": 2}]}, "scale": 1, "scale_x": {"Points": [{"co": {"X": 1, "Y": 1}, "interpolation": 2}]}, "scale_y": {"Points": [{"co": {"X": 1, "Y": 1}, "interpolation": 2}]}, "shear_x": {"Points": [{"co": {"X": 1, "Y": 0}, "interpolation": 2}]}, "shear_y": {"Points": [{"co": {"X": 1, "Y": 0}, "interpolation": 2}]}, "start": 0, "time": {"Points": [{"co": {"X": 1, "Y": 1}, "interpolation": 2}]}, "volume": {"Points": [{"co": {"X": 1, "Y": 1}, "interpolation": 2}]}, "wave_color": {"alpha": {"Points": [{"co": {"X": 1, "Y": 255}, "handle_left": {"X": 0.5, "Y": 1}, "handle_right": {"X": 0.5, "Y": 0}, "handle_type": 0, "interpolation": 0}]}, "blue": {"Points": [{"co": {"X": 1, "Y": 255}, "handle_left": {"X": 0.5, "Y": 1}, "handle_right": {"X": 0.5, "Y": 0}, "handle_type": 0, "interpolation": 0}]}, "green": {"Points": [{"co": {"X": 1, "Y": 123}, "handle_left": {"X": 0.5, "Y": 1}, "handle_right": {"X": 0.5, "Y": 0}, "handle_type": 0, "interpolation": 0}]}, "red": {"Points": [{"co": {"X": 1, "Y": 0}, "handle_left": {"X": 0.5, "Y": 1}, "handle_right": {"X": 0.5, "Y": 0}, "handle_type": 0, "interpolation": 0}]}}, "waveform": false, "file_id": "YXHHBI5JHB", "title": "200129_02_Medical_Ward_4k_103.mp4", "image": "/home/diary/.openshot_qt/thumbnail/YXHHBI5JHB.png"}, {"alpha": {"Points": [{"co": {"X": 1, "Y": 1}, "interpolation": 2}]}, "anchor": 0, "channel_filter": {"Points": [{"co": {"X": 1, "Y": -1}, "interpolation": 2}]}, "channel_mapping": {"Points": [{"co": {"X": 1, "Y": -1}, "interpolation": 2}]}, "crop_height": {"Points": [{"co": {"X": 1, "Y": -1}, "interpolation": 2}]}, "crop_width": {"Points": [{"co": {"X": 1, "Y": -1}, "interpolation": 2}]}, "crop_x": {"Points": [{"co": {"X": 1, "Y": 0}, "interpolation": 2}]}, "crop_y": {"Points": [{"co": {"X": 1, "Y": 0}, "interpolation": 2}]}, "display": 0, "duration": 23.360000610351562, "effects": [], "end": 23.360000610351562, "gravity": 4, "has_audio": {"Points": [{"co": {"X": 1, "Y": -1}, "interpolation": 2}]}, "has_video": {"Points": [{"co": {"X": 1, "Y": -1}, "interpolation": 2}]}, "id": "RTVAO9LI1Y", "layer": 3, "location_x": {"Points": [{"co": {"X": 1, "Y": 0}, "interpolation": 2}]}, "location_y": {"Points": [{"co": {"X": 1, "Y": 0}, "interpolation": 2}]}, "perspective_c1_x": {"Points": [{"co": {"X": 1, "Y": -1}, "interpolation": 2}]}, "perspective_c1_y": {"Points": [{"co": {"X": 1, "Y": -1}, "interpolation": 2}]}, "perspective_c2_x": {"Points": [{"co": {"X": 1, "Y": -1}, "interpolation": 2}]}, "perspective_c2_y": {"Points": [{"co": {"X": 1, "Y": -1}, "interpolation": 2}]}, "perspective_c3_x": {"Points": [{"co": {"X": 1, "Y": -1}, "interpolation": 2}]}, "perspective_c3_y": {"Points": [{"co": {"X": 1, "Y": -1}, "interpolation": 2}]}, "perspective_c4_x": {"Points": [{"co": {"X": 1, "Y": -1}, "interpolation": 2}]}, "perspective_c4_y": {"Points": [{"co": {"X": 1, "Y": -1}, "interpolation": 2}]}, "position": 47.442187499999996, "reader": {"acodec": "aac", "audio_bit_rate": 317375, "audio_stream_index": 1, "audio_timebase": {"den": 48000, "num": 1}, "channel_layout": 3, "channels": 2, "display_ratio": {"den": 9, "num": 16}, "duration": 23.360000610351562, "file_size": "96318984", "fps": {"den": 1, "num": 25}, "has_audio": true, "has_single_image": false, "has_video": true, "height": 1080, "interlaced_frame": false, "path": "/home/diary/Desktop/\u041a\u043e\u043d\u0446\u0435\u043f\u0442\u044b/64. \u041f\u0440\u0438\u0447\u0438\u043d\u044b \u0431\u043e\u043b\u0435\u0437\u043d\u0435\u0439/video assets/160714_Pills_2_1080p.mp4", "pixel_format": 0, "pixel_ratio": {"den": 1, "num": 1}, "sample_rate": 48000, "top_field_first": true, "type": "FFmpegReader", "vcodec": "h264", "video_bit_rate": 32925814, "video_length": "584", "video_stream_index": 0, "video_timebase": {"den": 25000, "num": 1}, "width": 1920}, "rotation": {"Points": [{"co": {"X": 1, "Y": 0}, "interpolation": 2}]}, "scale": 1, "scale_x": {"Points": [{"co": {"X": 1, "Y": 1}, "interpolation": 2}]}, "scale_y": {"Points": [{"co": {"X": 1, "Y": 1}, "interpolation": 2}]}, "shear_x": {"Points": [{"co": {"X": 1, "Y": 0}, "interpolation": 2}]}, "shear_y": {"Points": [{"co": {"X": 1, "Y": 0}, "interpolation": 2}]}, "start": 0, "time": {"Points": [{"co": {"X": 1, "Y": 1}, "interpolation": 2}]}, "volume": {"Points": [{"co": {"X": 1, "Y": 1}, "interpolation": 2}]}, "wave_color": {"alpha": {"Points": [{"co": {"X": 1, "Y": 255}, "handle_left": {"X": 0.5, "Y": 1}, "handle_right": {"X": 0.5, "Y": 0}, "handle_type": 0, "interpolation": 0}]}, "blue": {"Points": [{"co": {"X": 1, "Y": 255}, "handle_left": {"X": 0.5, "Y": 1}, "handle_right": {"X": 0.5, "Y": 0}, "handle_type": 0, "interpolation": 0}]}, "green": {"Points": [{"co": {"X": 1, "Y": 123}, "handle_left": {"X": 0.5, "Y": 1}, "handle_right": {"X": 0.5, "Y": 0}, "handle_type": 0, "interpolation": 0}]}, "red": {"Points": [{"co": {"X": 1, "Y": 0}, "handle_left": {"X": 0.5, "Y": 1}, "handle_right": {"X": 0.5, "Y": 0}, "handle_type": 0, "interpolation": 0}]}}, "waveform": false, "file_id": "YBDV9IV3RQ", "title": "160714_Pills_2_1080p.mp4", "image": "/home/diary/.openshot_qt/thumbnail/YBDV9IV3RQ.png"}, {"alpha": {"Points": [{"co": {"X": 1, "Y": 1}, "interpolation": 2}]}, "anchor": 0, "channel_filter": {"Points": [{"co": {"X": 1, "Y": -1}, "interpolation": 2}]}, "channel_mapping": {"Points": [{"co": {"X": 1, "Y": -1}, "interpolation": 2}]}, "crop_height": {"Points": [{"co": {"X": 1, "Y": -1}, "interpolation": 2}]}, "crop_width": {"Points": [{"co": {"X": 1, "Y": -1}, "interpolation": 2}]}, "crop_x": {"Points": [{"co": {"X": 1, "Y": 0}, "interpolation": 2}]}, "crop_y": {"Points": [{"co": {"X": 1, "Y": 0}, "interpolation": 2}]}, "display": 0, "duration": 13.4399995803833, "effects": [], "end": 13.4399995803833, "gravity": 4, "has_audio": {"Points": [{"co": {"X": 1, "Y": -1}, "interpolation": 2}]}, "has_video": {"Points": [{"co": {"X": 1, "Y": -1}, "interpolation": 2}]}, "id": "64ET1DMXTY", "layer": 3, "location_x": {"Points": [{"co": {"X": 1, "Y": 0}, "interpolation": 2}]}, "location_y": {"Points": [{"co": {"X": 1, "Y": 0}, "interpolation": 2}]}, "perspective_c1_x": {"Points": [{"co": {"X": 1, "Y": -1}, "interpolation": 2}]}, "perspective_c1_y": {"Points": [{"co": {"X": 1, "Y": -1}, "interpolation": 2}]}, "perspective_c2_x": {"Points": [{"co": {"X": 1, "Y": -1}, "interpolation": 2}]}, "perspective_c2_y": {"Points": [{"co": {"X": 1, "Y": -1}, "interpolation": 2}]}, "perspective_c3_x": {"Points": [{"co": {"X": 1, "Y": -1}, "interpolation": 2}]}, "perspective_c3_y": {"Points": [{"co": {"X": 1, "Y": -1}, "interpolation": 2}]}, "perspective_c4_x": {"Points": [{"co": {"X": 1, "Y": -1}, "interpolation": 2}]}, "perspective_c4_y": {"Points": [{"co": {"X": 1, "Y": -1}, "interpolation": 2}]}, "position": 71.84, "reader": {"acodec": "", "audio_bit_rate": 0, "audio_stream_index": -1, "audio_timebase": {"den": 1, "num": 1}, "channel_layout": 4, "channels": 0, "display_ratio": {"den": 84, "num": 149}, "duration": 13.4399995803833, "file_size": "1560325", "fps": {"den": 1, "num": 25}, "has_audio": false, "has_single_image": false, "has_video": true, "height": 336, "interlaced_frame": false, "path": "/home/diary/Desktop/\u041a\u043e\u043d\u0446\u0435\u043f\u0442\u044b/64. \u041f\u0440\u0438\u0447\u0438\u043d\u044b \u0431\u043e\u043b\u0435\u0437\u043d\u0435\u0439/video assets/22782544-preview.mp4", "pixel_format": 0, "pixel_ratio": {"den": 1, "num": 1}, "sample_rate": 0, "top_field_first": true, "type": "FFmpegReader", "vcodec": "h264", "video_bit_rate": 928764, "video_length": "336", "video_stream_index": 0, "video_timebase": {"den": 12800, "num": 1}, "width": 596}, "rotation": {"Points": [{"co": {"X": 1, "Y": 0}, "interpolation": 2}]}, "scale": 1, "scale_x": {"Points": [{"co": {"X": 1, "Y": 1}, "interpolation": 2}]}, "scale_y": {"Points": [{"co": {"X": 1, "Y": 1}, "interpolation": 2}]}, "shear_x": {"Points": [{"co": {"X": 1, "Y": 0}, "interpolation": 2}]}, "shear_y": {"Points": [{"co": {"X": 1, "Y": 0}, "interpolation": 2}]}, "start": 0, "time": {"Points": [{"co": {"X": 1, "Y": 1}, "interpolation": 2}]}, "volume": {"Points": [{"co": {"X": 1, "Y": 1}, "interpolation": 2}]}, "wave_color": {"alpha": {"Points": [{"co": {"X": 1, "Y": 255}, "handle_left": {"X": 0.5, "Y": 1}, "handle_right": {"X": 0.5, "Y": 0}, "handle_type": 0, "interpolation": 0}]}, "blue": {"Points": [{"co": {"X": 1, "Y": 255}, "handle_left": {"X": 0.5, "Y": 1}, "handle_right": {"X": 0.5, "Y": 0}, "handle_type": 0, "interpolation": 0}]}, "green": {"Points": [{"co": {"X": 1, "Y": 123}, "handle_left": {"X": 0.5, "Y": 1}, "handle_right": {"X": 0.5, "Y": 0}, "handle_type": 0, "interpolation": 0}]}, "red": {"Points": [{"co": {"X": 1, "Y": 0}, "handle_left": {"X": 0.5, "Y": 1}, "handle_right": {"X": 0.5, "Y": 0}, "handle_type": 0, "interpolation": 0}]}}, "waveform": false, "file_id": "M9OO5LBDVO", "title": "22782544-preview.mp4", "image": "/home/diary/.openshot_qt/thumbnail/M9OO5LBDVO.png"}, {"alpha": {"Points": [{"co": {"X": 1, "Y": 1}, "interpolation": 2}]}, "anchor": 0, "channel_filter": {"Points": [{"co": {"X": 1, "Y": -1}, "interpolation": 2}]}, "channel_mapping": {"Points": [{"co": {"X": 1, "Y": -1}, "interpolation": 2}]}, "crop_height": {"Points": [{"co": {"X": 1, "Y": -1}, "interpolation": 2}]}, "crop_width": {"Points": [{"co": {"X": 1, "Y": -1}, "interpolation": 2}]}, "crop_x": {"Points": [{"co": {"X": 1, "Y": 0}, "interpolation": 2}]}, "crop_y": {"Points": [{"co": {"X": 1, "Y": 0}, "interpolation": 2}]}, "display": 0, "duration": 13.0, "effects": [], "end": 13, "gravity": 4, "has_audio": {"Points": [{"co": {"X": 1, "Y": -1}, "interpolation": 2}]}, "has_video": {"Points": [{"co": {"X": 1, "Y": -1}, "interpolation": 2}]}, "id": "FAQG1NALP6", "layer": 3, "location_x": {"Points": [{"co": {"X": 1, "Y": 0}, "interpolation": 2}]}, "location_y": {"Points": [{"co": {"X": 1, "Y": 0}, "interpolation": 2}]}, "perspective_c1_x": {"Points": [{"co": {"X": 1, "Y": -1}, "interpolation": 2}]}, "perspective_c1_y": {"Points": [{"co": {"X": 1, "Y": -1}, "interpolation": 2}]}, "perspective_c2_x": {"Points": [{"co": {"X": 1, "Y": -1}, "interpolation": 2}]}, "perspective_c2_y": {"Points": [{"co": {"X": 1, "Y": -1}, "interpolation": 2}]}, "perspective_c3_x": {"Points": [{"co": {"X": 1, "Y": -1}, "interpolation": 2}]}, "perspective_c3_y": {"Points": [{"co": {"X": 1, "Y": -1}, "interpolation": 2}]}, "perspective_c4_x": {"Points": [{"co": {"X": 1, "Y": -1}, "interpolation": 2}]}, "perspective_c4_y": {"Points": [{"co": {"X": 1, "Y": -1}, "interpolation": 2}]}, "position": 132.16, "reader": {"acodec": "aac", "audio_bit_rate": 128321, "audio_stream_index": 1, "audio_timebase": {"den": 44100, "num": 1}, "channel_layout": 3, "channels": 2, "display_ratio": {"den": 84, "num": 149}, "duration": 13.0, "file_size": "1223144", "fps": {"den": 1, "num": 25}, "has_audio": true, "has_single_image": false, "has_video": true, "height": 336, "interlaced_frame": false, "path": "/home/diary/Desktop/\u041a\u043e\u043d\u0446\u0435\u043f\u0442\u044b/64. \u041f\u0440\u0438\u0447\u0438\u043d\u044b \u0431\u043e\u043b\u0435\u0437\u043d\u0435\u0439/video assets/1053783902-preview.mp4", "pixel_format": 0, "pixel_ratio": {"den": 1, "num": 1}, "sample_rate": 44100, "top_field_first": true, "type": "FFmpegReader", "vcodec": "h264", "video_bit_rate": 749992, "video_length": "325", "video_stream_index": 0, "video_timebase": {"den": 12800, "num": 1}, "width": 596}, "rotation": {"Points": [{"co": {"X": 1, "Y": 0}, "interpolation": 2}]}, "scale": 1, "scale_x": {"Points": [{"co": {"X": 1, "Y": 1}, "interpolation": 2}]}, "scale_y": {"Points": [{"co": {"X": 1, "Y": 1}, "interpolation": 2}]}, "shear_x": {"Points": [{"co": {"X": 1, "Y": 0}, "interpolation": 2}]}, "shear_y": {"Points": [{"co": {"X": 1, "Y": 0}, "interpolation": 2}]}, "start": 0, "time": {"Points": [{"co": {"X": 1, "Y": 1}, "interpolation": 2}]}, "volume": {"Points": [{"co": {"X": 1, "Y": 1}, "interpolation": 2}]}, "wave_color": {"alpha": {"Points": [{"co": {"X": 1, "Y": 255}, "handle_left": {"X": 0.5, "Y": 1}, "handle_right": {"X": 0.5, "Y": 0}, "handle_type": 0, "interpolation": 0}]}, "blue": {"Points": [{"co": {"X": 1, "Y": 255}, "handle_left": {"X": 0.5, "Y": 1}, "handle_right": {"X": 0.5, "Y": 0}, "handle_type": 0, "interpolation": 0}]}, "green": {"Points": [{"co": {"X": 1, "Y": 123}, "handle_left": {"X": 0.5, "Y": 1}, "handle_right": {"X": 0.5, "Y": 0}, "handle_type": 0, "interpolation": 0}]}, "red": {"Points": [{"co": {"X": 1, "Y": 0}, "handle_left": {"X": 0.5, "Y": 1}, "handle_right": {"X": 0.5, "Y": 0}, "handle_type": 0, "interpolation": 0}]}}, "waveform": false, "file_id": "49AUONUONS", "title": "1053783902-preview.mp4", "image": "/home/diary/.openshot_qt/thumbnail/49AUONUONS.png"}, {"alpha": {"Points": [{"co": {"X": 1, "Y": 1}, "interpolation": 2}]}, "anchor": 0, "channel_filter": {"Points": [{"co": {"X": 1, "Y": -1}, "interpolation": 2}]}, "channel_mapping": {"Points": [{"co": {"X": 1, "Y": -1}, "interpolation": 2}]}, "crop_height": {"Points": [{"co": {"X": 1, "Y": -1}, "interpolation": 2}]}, "crop_width": {"Points": [{"co": {"X": 1, "Y": -1}, "interpolation": 2}]}, "crop_x": {"Points": [{"co": {"X": 1, "Y": 0}, "interpolation": 2}]}, "crop_y": {"Points": [{"co": {"X": 1, "Y": 0}, "interpolation": 2}]}, "display": 0, "duration": 44.33599853515625, "effects": [], "end": 44.33599853515625, "gravity": 4, "has_audio": {"Points": [{"co": {"X": 1, "Y": -1}, "interpolation": 2}]}, "has_video": {"Points": [{"co": {"X": 1, "Y": -1}, "interpolation": 2}]}, "id": "65NA5MTRQE", "layer": 3, "location_x": {"Points": [{"co": {"X": 1, "Y": 0}, "interpolation": 2}]}, "location_y": {"Points": [{"co": {"X": 1, "Y": 0}, "interpolation": 2}]}, "perspective_c1_x": {"Points": [{"co": {"X": 1, "Y": -1}, "interpolation": 2}]}, "perspective_c1_y": {"Points": [{"co": {"X": 1, "Y": -1}, "interpolation": 2}]}, "perspective_c2_x": {"Points": [{"co": {"X": 1, "Y": -1}, "interpolation": 2}]}, "perspective_c2_y": {"Points": [{"co": {"X": 1, "Y": -1}, "interpolation": 2}]}, "perspective_c3_x": {"Points": [{"co": {"X": 1, "Y": -1}, "interpolation": 2}]}, "perspective_c3_y": {"Points": [{"co": {"X": 1, "Y": -1}, "interpolation": 2}]}, "perspective_c4_x": {"Points": [{"co": {"X": 1, "Y": -1}, "interpolation": 2}]}, "perspective_c4_y": {"Points": [{"co": {"X": 1, "Y": -1}, "interpolation": 2}]}, "position": 87.985, "reader": {"acodec": "", "audio_bit_rate": 0, "audio_stream_index": -1, "audio_timebase": {"den": 1, "num": 1}, "channel_layout": 4, "channels": 0, "display_ratio": {"den": 79, "num": 150}, "duration": 44.33599853515625, "file_size": "5120509", "fps": {"den": 1001, "num": 24000}, "has_audio": false, "has_single_image": false, "has_video": true, "height": 316, "interlaced_frame": false, "path": "/home/diary/Desktop/\u041a\u043e\u043d\u0446\u0435\u043f\u0442\u044b/64. \u041f\u0440\u0438\u0447\u0438\u043d\u044b \u0431\u043e\u043b\u0435\u0437\u043d\u0435\u0439/video assets/1019086909-preview.mp4", "pixel_format": 0, "pixel_ratio": {"den": 1, "num": 1}, "sample_rate": 0, "top_field_first": true, "type": "FFmpegReader", "vcodec": "h264", "video_bit_rate": 923946, "video_length": "1063", "video_stream_index": 0, "video_timebase": {"den": 24000, "num": 1}, "width": 600}, "rotation": {"Points": [{"co": {"X": 1, "Y": 0}, "interpolation": 2}]}, "scale": 1, "scale_x": {"Points": [{"co": {"X": 1, "Y": 1}, "interpolation": 2}]}, "scale_y": {"Points": [{"co": {"X": 1, "Y": 1}, "interpolation": 2}]}, "shear_x": {"Points": [{"co": {"X": 1, "Y": 0}, "interpolation": 2}]}, "shear_y": {"Points": [{"co": {"X": 1, "Y": 0}, "interpolation": 2}]}, "start": 0, "time": {"Points": [{"co": {"X": 1, "Y": 1}, "interpolation": 2}]}, "volume": {"Points": [{"co": {"X": 1, "Y": 1}, "interpolation": 2}]}, "wave_color": {"alpha": {"Points": [{"co": {"X": 1, "Y": 255}, "handle_left": {"X": 0.5, "Y": 1}, "handle_right": {"X": 0.5, "Y": 0}, "handle_type": 0, "interpolation": 0}]}, "blue": {"Points": [{"co": {"X": 1, "Y": 255}, "handle_left": {"X": 0.5, "Y": 1}, "handle_right": {"X": 0.5, "Y": 0}, "handle_type": 0, "interpolation": 0}]}, "green": {"Points": [{"co": {"X": 1, "Y": 123}, "handle_left": {"X": 0.5, "Y": 1}, "handle_right": {"X": 0.5, "Y": 0}, "handle_type": 0, "interpolation": 0}]}, "red": {"Points": [{"co": {"X": 1, "Y": 0}, "handle_left": {"X": 0.5, "Y": 1}, "handle_right": {"X": 0.5, "Y": 0}, "handle_type": 0, "interpolation": 0}]}}, "waveform": false, "file_id": "S1F0PS2NHN", "title": "1019086909-preview.mp4", "image": "/home/diary/.openshot_qt/thumbnail/S1F0PS2NHN.png"}, {"alpha": {"Points": [{"co": {"X": 1, "Y": 1}, "interpolation": 2}]}, "anchor": 0, "channel_filter": {"Points": [{"co": {"X": 1, "Y": -1}, "interpolation": 2}]}, "channel_mapping": {"Points": [{"co": {"X": 1, "Y": -1}, "interpolation": 2}]}, "crop_height": {"Points": [{"co": {"X": 1, "Y": -1}, "interpolation": 2}]}, "crop_width": {"Points": [{"co": {"X": 1, "Y": -1}, "interpolation": 2}]}, "crop_x": {"Points": [{"co": {"X": 1, "Y": 0}, "interpolation": 2}]}, "crop_y": {"Points": [{"co": {"X": 1, "Y": 0}, "interpolation": 2}]}, "display": 0, "duration": 17.0, "effects": [], "end": 17, "gravity": 4, "has_audio": {"Points": [{"co": {"X": 1, "Y": -1}, "interpolation": 2}]}, "has_video": {"Points": [{"co": {"X": 1, "Y": -1}, "interpolation": 2}]}, "id": "0NV0TKPJLV", "layer": 3, "location_x": {"Points": [{"co": {"X": 1, "Y": 0}, "interpolation": 2}]}, "location_y": {"Points": [{"co": {"X": 1, "Y": 0}, "interpolation": 2}]}, "perspective_c1_x": {"Points": [{"co": {"X": 1, "Y": -1}, "interpolation": 2}]}, "perspective_c1_y": {"Points": [{"co": {"X": 1, "Y": -1}, "interpolation": 2}]}, "perspective_c2_x": {"Points": [{"co": {"X": 1, "Y": -1}, "interpolation": 2}]}, "perspective_c2_y": {"Points": [{"co": {"X": 1, "Y": -1}, "interpolation": 2}]}, "perspective_c3_x": {"Points": [{"co": {"X": 1, "Y": -1}, "interpolation": 2}]}, "perspective_c3_y": {"Points": [{"co": {"X": 1, "Y": -1}, "interpolation": 2}]}, "perspective_c4_x": {"Points": [{"co": {"X": 1, "Y": -1}, "interpolation": 2}]}, "perspective_c4_y": {"Points": [{"co": {"X": 1, "Y": -1}, "interpolation": 2}]}, "position": 145.16, "reader": {"acodec": "aac", "audio_bit_rate": 128442, "audio_stream_index": 1, "audio_timebase": {"den": 44100, "num": 1}, "channel_layout": 3, "channels": 2, "display_ratio": {"den": 84, "num": 149}, "duration": 17.0, "file_size": "1082198", "fps": {"den": 1, "num": 24}, "has_audio": true, "has_single_image": false, "has_video": true, "height": 336, "interlaced_frame": false, "path": "/home/diary/Desktop/\u041a\u043e\u043d\u0446\u0435\u043f\u0442\u044b/64. \u041f\u0440\u0438\u0447\u0438\u043d\u044b \u0431\u043e\u043b\u0435\u0437\u043d\u0435\u0439/video assets/1044123580-preview.mp4", "pixel_format": 0, "pixel_ratio": {"den": 1, "num": 1}, "sample_rate": 44100, "top_field_first": true, "type": "FFmpegReader", "vcodec": "h264", "video_bit_rate": 507865, "video_length": "408", "video_stream_index": 0, "video_timebase": {"den": 12288, "num": 1}, "width": 596}, "rotation": {"Points": [{"co": {"X": 1, "Y": 0}, "interpolation": 2}]}, "scale": 1, "scale_x": {"Points": [{"co": {"X": 1, "Y": 1}, "interpolation": 2}]}, "scale_y": {"Points": [{"co": {"X": 1, "Y": 1}, "interpolation": 2}]}, "shear_x": {"Points": [{"co": {"X": 1, "Y": 0}, "interpolation": 2}]}, "shear_y": {"Points": [{"co": {"X": 1, "Y": 0}, "interpolation": 2}]}, "start": 0, "time": {"Points": [{"co": {"X": 1, "Y": 1}, "interpolation": 2}]}, "volume": {"Points": [{"co": {"X": 1, "Y": 1}, "interpolation": 2}]}, "wave_color": {"alpha": {"Points": [{"co": {"X": 1, "Y": 255}, "handle_left": {"X": 0.5, "Y": 1}, "handle_right": {"X": 0.5, "Y": 0}, "handle_type": 0, "interpolation": 0}]}, "blue": {"Points": [{"co": {"X": 1, "Y": 255}, "handle_left": {"X": 0.5, "Y": 1}, "handle_right": {"X": 0.5, "Y": 0}, "handle_type": 0, "interpolation": 0}]}, "green": {"Points": [{"co": {"X": 1, "Y": 123}, "handle_left": {"X": 0.5, "Y": 1}, "handle_right": {"X": 0.5, "Y": 0}, "handle_type": 0, "interpolation": 0}]}, "red": {"Points": [{"co": {"X": 1, "Y": 0}, "handle_left": {"X": 0.5, "Y": 1}, "handle_right": {"X": 0.5, "Y": 0}, "handle_type": 0, "interpolation": 0}]}}, "waveform": false, "file_id": "73OC331NN1", "title": "1044123580-preview.mp4", "image": "/home/diary/.openshot_qt/thumbnail/73OC331NN1.png"}, {"alpha": {"Points": [{"co": {"X": 1, "Y": 1}, "interpolation": 2}]}, "anchor": 0, "channel_filter": {"Points": [{"co": {"X": 1, "Y": -1}, "interpolation": 2}]}, "channel_mapping": {"Points": [{"co": {"X": 1, "Y": -1}, "interpolation": 2}]}, "crop_height": {"Points": [{"co": {"X": 1, "Y": -1}, "interpolation": 2}]}, "crop_width": {"Points": [{"co": {"X": 1, "Y": -1}, "interpolation": 2}]}, "crop_x": {"Points": [{"co": {"X": 1, "Y": 0}, "interpolation": 2}]}, "crop_y": {"Points": [{"co": {"X": 1, "Y": 0}, "interpolation": 2}]}, "display": 0, "duration": 9.920000076293945, "effects": [], "end": 9.920000076293945, "gravity": 4, "has_audio": {"Points": [{"co": {"X": 1, "Y": -1}, "interpolation": 2}]}, "has_video": {"Points": [{"co": {"X": 1, "Y": -1}, "interpolation": 2}]}, "id": "RAKQERJ6P1", "layer": 3, "location_x": {"Points": [{"co": {"X": 1, "Y": 0}, "interpolation": 2}]}, "location_y": {"Points": [{"co": {"X": 1, "Y": 0}, "interpolation": 2}]}, "perspective_c1_x": {"Points": [{"co": {"X": 1, "Y": -1}, "interpolation": 2}]}, "perspective_c1_y": {"Points": [{"co": {"X": 1, "Y": -1}, "interpolation": 2}]}, "perspective_c2_x": {"Points": [{"co": {"X": 1, "Y": -1}, "interpolation": 2}]}, "perspective_c2_y": {"Points": [{"co": {"X": 1, "Y": -1}, "interpolation": 2}]}, "perspective_c3_x": {"Points": [{"co": {"X": 1, "Y": -1}, "interpolation": 2}]}, "perspective_c3_y": {"Points": [{"co": {"X": 1, "Y": -1}, "interpolation": 2}]}, "perspective_c4_x": {"Points": [{"co": {"X": 1, "Y": -1}, "interpolation": 2}]}, "perspective_c4_y": {"Points": [{"co": {"X": 1, "Y": -1}, "interpolation": 2}]}, "position": 162.16, "reader": {"acodec": "", "audio_bit_rate": 0, "audio_stream_index": -1, "audio_timebase": {"den": 1, "num": 1}, "channel_layout": 4, "channels": 0, "display_ratio": {"den": 9, "num": 16}, "duration": 9.920000076293945, "file_size": "1950637", "fps": {"den": 1, "num": 25}, "has_audio": false, "has_single_image": false, "has_video": true, "height": 360, "interlaced_frame": false, "path": "/home/diary/Desktop/\u041a\u043e\u043d\u0446\u0435\u043f\u0442\u044b/64. \u041f\u0440\u0438\u0447\u0438\u043d\u044b \u0431\u043e\u043b\u0435\u0437\u043d\u0435\u0439/video assets/istockphoto-541088960-640_adpp_is.mp4", "pixel_format": 0, "pixel_ratio": {"den": 1, "num": 1}, "sample_rate": 0, "top_field_first": true, "type": "FFmpegReader", "vcodec": "h264", "video_bit_rate": 1573094, "video_length": "248", "video_stream_index": 0, "video_timebase": {"den": 25000, "num": 1}, "width": 640}, "rotation": {"Points": [{"co": {"X": 1, "Y": 0}, "interpolation": 2}]}, "scale": 1, "scale_x": {"Points": [{"co": {"X": 1, "Y": 1}, "interpolation": 2}]}, "scale_y": {"Points": [{"co": {"X": 1, "Y": 1}, "interpolation": 2}]}, "shear_x": {"Points": [{"co": {"X": 1, "Y": 0}, "interpolation": 2}]}, "shear_y": {"Points": [{"co": {"X": 1, "Y": 0}, "interpolation": 2}]}, "start": 0, "time": {"Points": [{"co": {"X": 1, "Y": 1}, "interpolation": 2}]}, "volume": {"Points": [{"co": {"X": 1, "Y": 1}, "interpolation": 2}]}, "wave_color": {"alpha": {"Points": [{"co": {"X": 1, "Y": 255}, "handle_left": {"X": 0.5, "Y": 1}, "handle_right": {"X": 0.5, "Y": 0}, "handle_type": 0, "interpolation": 0}]}, "blue": {"Points": [{"co": {"X": 1, "Y": 255}, "handle_left": {"X": 0.5, "Y": 1}, "handle_right": {"X": 0.5, "Y": 0}, "handle_type": 0, "interpolation": 0}]}, "green": {"Points": [{"co": {"X": 1, "Y": 123}, "handle_left": {"X": 0.5, "Y": 1}, "handle_right": {"X": 0.5, "Y": 0}, "handle_type": 0, "interpolation": 0}]}, "red": {"Points": [{"co": {"X": 1, "Y": 0}, "handle_left": {"X": 0.5, "Y": 1}, "handle_right": {"X": 0.5, "Y": 0}, "handle_type": 0, "interpolation": 0}]}}, "waveform": false, "file_id": "7RTHRR68QT", "title": "istockphoto-541088960-640_adpp_is.mp4", "image": "/home/diary/.openshot_qt/thumbnail/7RTHRR68QT.png"}, {"alpha": {"Points": [{"co": {"X": 1, "Y": 1}, "interpolation": 2}]}, "anchor": 0, "channel_filter": {"Points": [{"co": {"X": 1, "Y": -1}, "interpolation": 2}]}, "channel_mapping": {"Points": [{"co": {"X": 1, "Y": -1}, "interpolation": 2}]}, "crop_height": {"Points": [{"co": {"X": 1, "Y": -1}, "interpolation": 2}]}, "crop_width": {"Points": [{"co": {"X": 1, "Y": -1}, "interpolation": 2}]}, "crop_x": {"Points": [{"co": {"X": 1, "Y": 0}, "interpolation": 2}]}, "crop_y": {"Points": [{"co": {"X": 1, "Y": 0}, "interpolation": 2}]}, "display": 0, "duration": 10.680000305175781, "effects": [], "end": 10.680000305175781, "gravity": 4, "has_audio": {"Points": [{"co": {"X": 1, "Y": -1}, "interpolation": 2}]}, "has_video": {"Points": [{"co": {"X": 1, "Y": -1}, "interpolation": 2}]}, "id": "A95SGPNEM2", "layer": 3, "location_x": {"Points": [{"co": {"X": 1, "Y": 0}, "interpolation": 2}]}, "location_y": {"Points": [{"co": {"X": 1, "Y": 0}, "interpolation": 2}]}, "perspective_c1_x": {"Points": [{"co": {"X": 1, "Y": -1}, "interpolation": 2}]}, "perspective_c1_y": {"Points": [{"co": {"X": 1, "Y": -1}, "interpolation": 2}]}, "perspective_c2_x": {"Points": [{"co": {"X": 1, "Y": -1}, "interpolation": 2}]}, "perspective_c2_y": {"Points": [{"co": {"X": 1, "Y": -1}, "interpolation": 2}]}, "perspective_c3_x": {"Points": [{"co": {"X": 1, "Y": -1}, "interpolation": 2}]}, "perspective_c3_y": {"Points": [{"co": {"X": 1, "Y": -1}, "interpolation": 2}]}, "perspective_c4_x": {"Points": [{"co": {"X": 1, "Y": -1}, "interpolation": 2}]}, "perspective_c4_y": {"Points": [{"co": {"X": 1, "Y": -1}, "interpolation": 2}]}, "position": 172.08000007629394, "reader": {"acodec": "", "audio_bit_rate": 0, "audio_stream_index": -1, "audio_timebase": {"den": 1, "num": 1}, "channel_layout": 4, "channels": 0, "display_ratio": {"den": 9, "num": 16}, "duration": 10.680000305175781, "file_size": "841784", "fps": {"den": 1, "num": 25}, "has_audio": false, "has_single_image": false, "has_video": true, "height": 360, "interlaced_frame": false, "path": "/home/diary/Desktop/\u041a\u043e\u043d\u0446\u0435\u043f\u0442\u044b/64. \u041f\u0440\u0438\u0447\u0438\u043d\u044b \u0431\u043e\u043b\u0435\u0437\u043d\u0435\u0439/video assets/istockphoto-1165266246-640_adpp_is.mp4", "pixel_format": 0, "pixel_ratio": {"den": 1, "num": 1}, "sample_rate": 0, "top_field_first": true, "type": "FFmpegReader", "vcodec": "h264", "video_bit_rate": 630549, "video_length": "267", "video_stream_index": 0, "video_timebase": {"den": 12800, "num": 1}, "width": 640}, "rotation": {"Points": [{"co": {"X": 1, "Y": 0}, "interpolation": 2}]}, "scale": 1, "scale_x": {"Points": [{"co": {"X": 1, "Y": 1}, "interpolation": 2}]}, "scale_y": {"Points": [{"co": {"X": 1, "Y": 1}, "interpolation": 2}]}, "shear_x": {"Points": [{"co": {"X": 1, "Y": 0}, "interpolation": 2}]}, "shear_y": {"Points": [{"co": {"X": 1, "Y": 0}, "interpolation": 2}]}, "start": 0, "time": {"Points": [{"co": {"X": 1, "Y": 1}, "interpolation": 2}]}, "volume": {"Points": [{"co": {"X": 1, "Y": 1}, "interpolation": 2}]}, "wave_color": {"alpha": {"Points": [{"co": {"X": 1, "Y": 255}, "handle_left": {"X": 0.5, "Y": 1}, "handle_right": {"X": 0.5, "Y": 0}, "handle_type": 0, "interpolation": 0}]}, "blue": {"Points": [{"co": {"X": 1, "Y": 255}, "handle_left": {"X": 0.5, "Y": 1}, "handle_right": {"X": 0.5, "Y": 0}, "handle_type": 0, "interpolation": 0}]}, "green": {"Points": [{"co": {"X": 1, "Y": 123}, "handle_left": {"X": 0.5, "Y": 1}, "handle_right": {"X": 0.5, "Y": 0}, "handle_type": 0, "interpolation": 0}]}, "red": {"Points": [{"co": {"X": 1, "Y": 0}, "handle_left": {"X": 0.5, "Y": 1}, "handle_right": {"X": 0.5, "Y": 0}, "handle_type": 0, "interpolation": 0}]}}, "waveform": false, "file_id": "TKNIYVDKGW", "title": "istockphoto-1165266246-640_adpp_is.mp4", "image": "/home/diary/.openshot_qt/thumbnail/TKNIYVDKGW.png"}, {"alpha": {"Points": [{"co": {"X": 1, "Y": 1}, "interpolation": 2}]}, "anchor": 0, "channel_filter": {"Points": [{"co": {"X": 1, "Y": -1}, "interpolation": 2}]}, "channel_mapping": {"Points": [{"co": {"X": 1, "Y": -1}, "interpolation": 2}]}, "crop_height": {"Points": [{"co": {"X": 1, "Y": -1}, "interpolation": 2}]}, "crop_width": {"Points": [{"co": {"X": 1, "Y": -1}, "interpolation": 2}]}, "crop_x": {"Points": [{"co": {"X": 1, "Y": 0}, "interpolation": 2}]}, "crop_y": {"Points": [{"co": {"X": 1, "Y": 0}, "interpolation": 2}]}, "display": 0, "duration": 15.066991806030273, "effects": [], "end": 15.066991806030273, "gravity": 4, "has_audio": {"Points": [{"co": {"X": 1, "Y": -1}, "interpolation": 2}]}, "has_video": {"Points": [{"co": {"X": 1, "Y": -1}, "interpolation": 2}]}, "id": "ZHGYC49V4E", "layer": 3, "location_x": {"Points": [{"co": {"X": 1, "Y": 0}, "interpolation": 2}]}, "location_y": {"Points": [{"co": {"X": 1, "Y": 0}, "interpolation": 2}]}, "perspective_c1_x": {"Points": [{"co": {"X": 1, "Y": -1}, "interpolation": 2}]}, "perspective_c1_y": {"Points": [{"co": {"X": 1, "Y": -1}, "interpolation": 2}]}, "perspective_c2_x": {"Points": [{"co": {"X": 1, "Y": -1}, "interpolation": 2}]}, "perspective_c2_y": {"Points": [{"co": {"X": 1, "Y": -1}, "interpolation": 2}]}, "perspective_c3_x": {"Points": [{"co": {"X": 1, "Y": -1}, "interpolation": 2}]}, "perspective_c3_y": {"Points": [{"co": {"X": 1, "Y": -1}, "interpolation": 2}]}, "perspective_c4_x": {"Points": [{"co": {"X": 1, "Y": -1}, "interpolation": 2}]}, "perspective_c4_y": {"Points": [{"co": {"X": 1, "Y": -1}, "interpolation": 2}]}, "position": 182.82, "reader": {"acodec": "", "audio_bit_rate": 0, "audio_stream_index": -1, "audio_timebase": {"den": 1, "num": 1}, "channel_layout": 4, "channels": 0, "display_ratio": {"den": 9, "num": 16}, "duration": 15.066991806030273, "file_size": "5622748", "fps": {"den": 1, "num": 30}, "has_audio": false, "has_single_image": false, "has_video": true, "height": 1080, "interlaced_frame": false, "path": "/home/diary/Desktop/\u041a\u043e\u043d\u0446\u0435\u043f\u0442\u044b/64. \u041f\u0440\u0438\u0447\u0438\u043d\u044b \u0431\u043e\u043b\u0435\u0437\u043d\u0435\u0439/video assets/Training - 30417.mp4", "pixel_format": 0, "pixel_ratio": {"den": 1, "num": 1}, "sample_rate": 0, "top_field_first": true, "type": "FFmpegReader", "vcodec": "h264", "video_bit_rate": 2985463, "video_length": "452", "video_stream_index": 0, "video_timebase": {"den": 15360, "num": 1}, "width": 1920}, "rotation": {"Points": [{"co": {"X": 1, "Y": 0}, "interpolation": 2}]}, "scale": 1, "scale_x": {"Points": [{"co": {"X": 1, "Y": 1}, "interpolation": 2}]}, "scale_y": {"Points": [{"co": {"X": 1, "Y": 1}, "interpolation": 2}]}, "shear_x": {"Points": [{"co": {"X": 1, "Y": 0}, "interpolation": 2}]}, "shear_y": {"Points": [{"co": {"X": 1, "Y": 0}, "interpolation": 2}]}, "start": 0, "time": {"Points": [{"co": {"X": 1, "Y": 1}, "interpolation": 2}]}, "volume": {"Points": [{"co": {"X": 1, "Y": 1}, "interpolation": 2}]}, "wave_color": {"alpha": {"Points": [{"co": {"X": 1, "Y": 255}, "handle_left": {"X": 0.5, "Y": 1}, "handle_right": {"X": 0.5, "Y": 0}, "handle_type": 0, "interpolation": 0}]}, "blue": {"Points": [{"co": {"X": 1, "Y": 255}, "handle_left": {"X": 0.5, "Y": 1}, "handle_right": {"X": 0.5, "Y": 0}, "handle_type": 0, "interpolation": 0}]}, "green": {"Points": [{"co": {"X": 1, "Y": 123}, "handle_left": {"X": 0.5, "Y": 1}, "handle_right": {"X": 0.5, "Y": 0}, "handle_type": 0, "interpolation": 0}]}, "red": {"Points": [{"co": {"X": 1, "Y": 0}, "handle_left": {"X": 0.5, "Y": 1}, "handle_right": {"X": 0.5, "Y": 0}, "handle_type": 0, "interpolation": 0}]}}, "waveform": false, "file_id": "HK4I9P85GF", "title": "Training - 30417.mp4", "image": "/home/diary/.openshot_qt/thumbnail/HK4I9P85GF.png"}, {"alpha": {"Points": [{"co": {"X": 1, "Y": 1}, "interpolation": 2}]}, "anchor": 0, "channel_filter": {"Points": [{"co": {"X": 1, "Y": -1}, "interpolation": 2}]}, "channel_mapping": {"Points": [{"co": {"X": 1, "Y": -1}, "interpolation": 2}]}, "crop_height": {"Points": [{"co": {"X": 1, "Y": -1}, "interpolation": 2}]}, "crop_width": {"Points": [{"co": {"X": 1, "Y": -1}, "interpolation": 2}]}, "crop_x": {"Points": [{"co": {"X": 1, "Y": 0}, "interpolation": 2}]}, "crop_y": {"Points": [{"co": {"X": 1, "Y": 0}, "interpolation": 2}]}, "display": 0, "duration": 6.760000228881836, "effects": [], "end": 6.760000228881836, "gravity": 4, "has_audio": {"Points": [{"co": {"X": 1, "Y": -1}, "interpolation": 2}]}, "has_video": {"Points": [{"co": {"X": 1, "Y": -1}, "interpolation": 2}]}, "id": "SMV5H9WKLM", "layer": 3, "location_x": {"Points": [{"co": {"X": 1, "Y": 0}, "interpolation": 2}]}, "location_y": {"Points": [{"co": {"X": 1, "Y": 0}, "interpolation": 2}]}, "perspective_c1_x": {"Points": [{"co": {"X": 1, "Y": -1}, "interpolation": 2}]}, "perspective_c1_y": {"Points": [{"co": {"X": 1, "Y": -1}, "interpolation": 2}]}, "perspective_c2_x": {"Points": [{"co": {"X": 1, "Y": -1}, "interpolation": 2}]}, "perspective_c2_y": {"Points": [{"co": {"X": 1, "Y": -1}, "interpolation": 2}]}, "perspective_c3_x": {"Points": [{"co": {"X": 1, "Y": -1}, "interpolation": 2}]}, "perspective_c3_y": {"Points": [{"co": {"X": 1, "Y": -1}, "interpolation": 2}]}, "perspective_c4_x": {"Points": [{"co": {"X": 1, "Y": -1}, "interpolation": 2}]}, "perspective_c4_y": {"Points": [{"co": {"X": 1, "Y": -1}, "interpolation": 2}]}, "position": 197.9475, "reader": {"acodec": "", "audio_bit_rate": 0, "audio_stream_index": -1, "audio_timebase": {"den": 1, "num": 1}, "channel_layout": 4, "channels": 0, "display_ratio": {"den": 84, "num": 149}, "duration": 6.760000228881836, "file_size": "286173", "fps": {"den": 1, "num": 25}, "has_audio": false, "has_single_image": false, "has_video": true, "height": 336, "interlaced_frame": false, "path": "/home/diary/Desktop/\u041a\u043e\u043d\u0446\u0435\u043f\u0442\u044b/64. \u041f\u0440\u0438\u0447\u0438\u043d\u044b \u0431\u043e\u043b\u0435\u0437\u043d\u0435\u0439/video assets/1036992635-preview.mp4", "pixel_format": 0, "pixel_ratio": {"den": 1, "num": 1}, "sample_rate": 0, "top_field_first": true, "type": "FFmpegReader", "vcodec": "h264", "video_bit_rate": 338666, "video_length": "169", "video_stream_index": 0, "video_timebase": {"den": 12800, "num": 1}, "width": 596}, "rotation": {"Points": [{"co": {"X": 1, "Y": 0}, "interpolation": 2}]}, "scale": 1, "scale_x": {"Points": [{"co": {"X": 1, "Y": 1}, "interpolation": 2}]}, "scale_y": {"Points": [{"co": {"X": 1, "Y": 1}, "interpolation": 2}]}, "shear_x": {"Points": [{"co": {"X": 1, "Y": 0}, "interpolation": 2}]}, "shear_y": {"Points": [{"co": {"X": 1, "Y": 0}, "interpolation": 2}]}, "start": 0, "time": {"Points": [{"co": {"X": 1, "Y": 1}, "interpolation": 2}]}, "volume": {"Points": [{"co": {"X": 1, "Y": 1}, "interpolation": 2}]}, "wave_color": {"alpha": {"Points": [{"co": {"X": 1, "Y": 255}, "handle_left": {"X": 0.5, "Y": 1}, "handle_right": {"X": 0.5, "Y": 0}, "handle_type": 0, "interpolation": 0}]}, "blue": {"Points": [{"co": {"X": 1, "Y": 255}, "handle_left": {"X": 0.5, "Y": 1}, "handle_right": {"X": 0.5, "Y": 0}, "handle_type": 0, "interpolation": 0}]}, "green": {"Points": [{"co": {"X": 1, "Y": 123}, "handle_left": {"X": 0.5, "Y": 1}, "handle_right": {"X": 0.5, "Y": 0}, "handle_type": 0, "interpolation": 0}]}, "red": {"Points": [{"co": {"X": 1, "Y": 0}, "handle_left": {"X": 0.5, "Y": 1}, "handle_right": {"X": 0.5, "Y": 0}, "handle_type": 0, "interpolation": 0}]}}, "waveform": false, "file_id": "7RHPWGPYIR", "title": "1036992635-preview.mp4", "image": "/home/diary/.openshot_qt/thumbnail/7RHPWGPYIR.png"}, {"alpha": {"Points": [{"co": {"X": 1, "Y": 1}, "interpolation": 2}]}, "anchor": 0, "channel_filter": {"Points": [{"co": {"X": 1, "Y": -1}, "interpolation": 2}]}, "channel_mapping": {"Points": [{"co": {"X": 1, "Y": -1}, "interpolation": 2}]}, "crop_height": {"Points": [{"co": {"X": 1, "Y": -1}, "interpolation": 2}]}, "crop_width": {"Points": [{"co": {"X": 1, "Y": -1}, "interpolation": 2}]}, "crop_x": {"Points": [{"co": {"X": 1, "Y": 0}, "interpolation": 2}]}, "crop_y": {"Points": [{"co": {"X": 1, "Y": 0}, "interpolation": 2}]}, "display": 0, "duration": 12.479999542236328, "effects": [], "end": 12.479999542236328, "gravity": 4, "has_audio": {"Points": [{"co": {"X": 1, "Y": -1}, "interpolation": 2}]}, "has_video": {"Points": [{"co": {"X": 1, "Y": -1}, "interpolation": 2}]}, "id": "YV4VIGQETQ", "layer": 2, "location_x": {"Points": [{"co": {"X": 1, "Y": 0}, "interpolation": 2}]}, "location_y": {"Points": [{"co": {"X": 1, "Y": 0}, "interpolation": 2}]}, "perspective_c1_x": {"Points": [{"co": {"X": 1, "Y": -1}, "interpolation": 2}]}, "perspective_c1_y": {"Points": [{"co": {"X": 1, "Y": -1}, "interpolation": 2}]}, "perspective_c2_x": {"Points": [{"co": {"X": 1, "Y": -1}, "interpolation": 2}]}, "perspective_c2_y": {"Points": [{"co": {"X": 1, "Y": -1}, "interpolation": 2}]}, "perspective_c3_x": {"Points": [{"co": {"X": 1, "Y": -1}, "interpolation": 2}]}, "perspective_c3_y": {"Points": [{"co": {"X": 1, "Y": -1}, "interpolation": 2}]}, "perspective_c4_x": {"Points": [{"co": {"X": 1, "Y": -1}, "interpolation": 2}]}, "perspective_c4_y": {"Points": [{"co": {"X": 1, "Y": -1}, "interpolation": 2}]}, "position": 185.46656249999998, "reader": {"acodec": "", "audio_bit_rate": 0, "audio_stream_index": -1, "audio_timebase": {"den": 1, "num": 1}, "channel_layout": 4, "channels": 0, "display_ratio": {"den": 84, "num": 149}, "duration": 12.479999542236328, "file_size": "1377383", "fps": {"den": 1, "num": 25}, "has_audio": false, "has_single_image": false, "has_video": true, "height": 336, "interlaced_frame": false, "path": "/home/diary/Desktop/\u041a\u043e\u043d\u0446\u0435\u043f\u0442\u044b/64. \u041f\u0440\u0438\u0447\u0438\u043d\u044b \u0431\u043e\u043b\u0435\u0437\u043d\u0435\u0439/video assets/1035271574-preview.mp4", "pixel_format": 0, "pixel_ratio": {"den": 1, "num": 1}, "sample_rate": 0, "top_field_first": true, "type": "FFmpegReader", "vcodec": "h264", "video_bit_rate": 882937, "video_length": "312", "video_stream_index": 0, "video_timebase": {"den": 12800, "num": 1}, "width": 596}, "rotation": {"Points": [{"co": {"X": 1, "Y": 0}, "interpolation": 2}]}, "scale": 1, "scale_x": {"Points": [{"co": {"X": 1, "Y": 1}, "interpolation": 2}]}, "scale_y": {"Points": [{"co": {"X": 1, "Y": 1}, "interpolation": 2}]}, "shear_x": {"Points": [{"co": {"X": 1, "Y": 0}, "interpolation": 2}]}, "shear_y": {"Points": [{"co": {"X": 1, "Y": 0}, "interpolation": 2}]}, "start": 0, "time": {"Points": [{"co": {"X": 1, "Y": 1}, "interpolation": 2}]}, "volume": {"Points": [{"co": {"X": 1, "Y": 1}, "interpolation": 2}]}, "wave_color": {"alpha": {"Points": [{"co": {"X": 1, "Y": 255}, "handle_left": {"X": 0.5, "Y": 1}, "handle_right": {"X": 0.5, "Y": 0}, "handle_type": 0, "interpolation": 0}]}, "blue": {"Points": [{"co": {"X": 1, "Y": 255}, "handle_left": {"X": 0.5, "Y": 1}, "handle_right": {"X": 0.5, "Y": 0}, "handle_type": 0, "interpolation": 0}]}, "green": {"Points": [{"co": {"X": 1, "Y": 123}, "handle_left": {"X": 0.5, "Y": 1}, "handle_right": {"X": 0.5, "Y": 0}, "handle_type": 0, "interpolation": 0}]}, "red": {"Points": [{"co": {"X": 1, "Y": 0}, "handle_left": {"X": 0.5, "Y": 1}, "handle_right": {"X": 0.5, "Y": 0}, "handle_type": 0, "interpolation": 0}]}}, "waveform": false, "file_id": "D9LWSONSN7", "title": "1035271574-preview.mp4", "image": "/home/diary/.openshot_qt/thumbnail/D9LWSONSN7.png"}, {"alpha": {"Points": [{"co": {"X": 1, "Y": 1}, "interpolation": 2}]}, "anchor": 0, "channel_filter": {"Points": [{"co": {"X": 1, "Y": -1}, "interpolation": 2}]}, "channel_mapping": {"Points": [{"co": {"X": 1, "Y": -1}, "interpolation": 2}]}, "crop_height": {"Points": [{"co": {"X": 1, "Y": -1}, "interpolation": 2}]}, "crop_width": {"Points": [{"co": {"X": 1, "Y": -1}, "interpolation": 2}]}, "crop_x": {"Points": [{"co": {"X": 1, "Y": 0}, "interpolation": 2}]}, "crop_y": {"Points": [{"co": {"X": 1, "Y": 0}, "interpolation": 2}]}, "display": 0, "duration": 9.876999855041504, "effects": [], "end": 9.876999855041504, "gravity": 4, "has_audio": {"Points": [{"co": {"X": 1, "Y": -1}, "interpolation": 2}]}, "has_video": {"Points": [{"co": {"X": 1, "Y": -1}, "interpolation": 2}]}, "id": "PI0T3VQEKQ", "layer": 3, "location_x": {"Points": [{"co": {"X": 1, "Y": 0}, "interpolation": 2}]}, "location_y": {"Points": [{"co": {"X": 1, "Y": 0}, "interpolation": 2}]}, "perspective_c1_x": {"Points": [{"co": {"X": 1, "Y": -1}, "interpolation": 2}]}, "perspective_c1_y": {"Points": [{"co": {"X": 1, "Y": -1}, "interpolation": 2}]}, "perspective_c2_x": {"Points": [{"co": {"X": 1, "Y": -1}, "interpolation": 2}]}, "perspective_c2_y": {"Points": [{"co": {"X": 1, "Y": -1}, "interpolation": 2}]}, "perspective_c3_x": {"Points": [{"co": {"X": 1, "Y": -1}, "interpolation": 2}]}, "perspective_c3_y": {"Points": [{"co": {"X": 1, "Y": -1}, "interpolation": 2}]}, "perspective_c4_x": {"Points": [{"co": {"X": 1, "Y": -1}, "interpolation": 2}]}, "perspective_c4_y": {"Points": [{"co": {"X": 1, "Y": -1}, "interpolation": 2}]}, "position": 262.3475, "reader": {"acodec": "", "audio_bit_rate": 0, "audio_stream_index": -1, "audio_timebase": {"den": 1, "num": 1}, "channel_layout": 4, "channels": 0, "display_ratio": {"den": 84, "num": 149}, "duration": 9.876999855041504, "file_size": "1089677", "fps": {"den": 1001, "num": 30000}, "has_audio": false, "has_single_image": false, "has_video": true, "height": 336, "interlaced_frame": false, "path": "/home/diary/Desktop/\u041a\u043e\u043d\u0446\u0435\u043f\u0442\u044b/64. \u041f\u0440\u0438\u0447\u0438\u043d\u044b \u0431\u043e\u043b\u0435\u0437\u043d\u0435\u0439/video assets/1035604484-preview.mp4", "pixel_format": 0, "pixel_ratio": {"den": 1, "num": 1}, "sample_rate": 0, "top_field_first": true, "type": "FFmpegReader", "vcodec": "h264", "video_bit_rate": 882597, "video_length": "296", "video_stream_index": 0, "video_timebase": {"den": 30000, "num": 1}, "width": 596}, "rotation": {"Points": [{"co": {"X": 1, "Y": 0}, "interpolation": 2}]}, "scale": 1, "scale_x": {"Points": [{"co": {"X": 1, "Y": 1}, "interpolation": 2}]}, "scale_y": {"Points": [{"co": {"X": 1, "Y": 1}, "interpolation": 2}]}, "shear_x": {"Points": [{"co": {"X": 1, "Y": 0}, "interpolation": 2}]}, "shear_y": {"Points": [{"co": {"X": 1, "Y": 0}, "interpolation": 2}]}, "start": 0, "time": {"Points": [{"co": {"X": 1, "Y": 1}, "interpolation": 2}]}, "volume": {"Points": [{"co": {"X": 1, "Y": 1}, "interpolation": 2}]}, "wave_color": {"alpha": {"Points": [{"co": {"X": 1, "Y": 255}, "handle_left": {"X": 0.5, "Y": 1}, "handle_right": {"X": 0.5, "Y": 0}, "handle_type": 0, "interpolation": 0}]}, "blue": {"Points": [{"co": {"X": 1, "Y": 255}, "handle_left": {"X": 0.5, "Y": 1}, "handle_right": {"X": 0.5, "Y": 0}, "handle_type": 0, "interpolation": 0}]}, "green": {"Points": [{"co": {"X": 1, "Y": 123}, "handle_left": {"X": 0.5, "Y": 1}, "handle_right": {"X": 0.5, "Y": 0}, "handle_type": 0, "interpolation": 0}]}, "red": {"Points": [{"co": {"X": 1, "Y": 0}, "handle_left": {"X": 0.5, "Y": 1}, "handle_right": {"X": 0.5, "Y": 0}, "handle_type": 0, "interpolation": 0}]}}, "waveform": false, "file_id": "FC9NLBSBPT", "title": "1035604484-preview.mp4", "image": "/home/diary/.openshot_qt/thumbnail/FC9NLBSBPT.png"}, {"alpha": {"Points": [{"co": {"X": 1, "Y": 1}, "interpolation": 2}]}, "anchor": 0, "channel_filter": {"Points": [{"co": {"X": 1, "Y": -1}, "interpolation": 2}]}, "channel_mapping": {"Points": [{"co": {"X": 1, "Y": -1}, "interpolation": 2}]}, "crop_height": {"Points": [{"co": {"X": 1, "Y": -1}, "interpolation": 2}]}, "crop_width": {"Points": [{"co": {"X": 1, "Y": -1}, "interpolation": 2}]}, "crop_x": {"Points": [{"co": {"X": 1, "Y": 0}, "interpolation": 2}]}, "crop_y": {"Points": [{"co": {"X": 1, "Y": 0}, "interpolation": 2}]}, "display": 0, "duration": 11.345000267028809, "effects": [], "end": 11.345000267028809, "gravity": 4, "has_audio": {"Points": [{"co": {"X": 1, "Y": -1}, "interpolation": 2}]}, "has_video": {"Points": [{"co": {"X": 1, "Y": -1}, "interpolation": 2}]}, "id": "7BA7UKZEQV", "layer": 3, "location_x": {"Points": [{"co": {"X": 1, "Y": 0}, "interpolation": 2}]}, "location_y": {"Points": [{"co": {"X": 1, "Y": 0}, "interpolation": 2}]}, "perspective_c1_x": {"Points": [{"co": {"X": 1, "Y": -1}, "interpolation": 2}]}, "perspective_c1_y": {"Points": [{"co": {"X": 1, "Y": -1}, "interpolation": 2}]}, "perspective_c2_x": {"Points": [{"co": {"X": 1, "Y": -1}, "interpolation": 2}]}, "perspective_c2_y": {"Points": [{"co": {"X": 1, "Y": -1}, "interpolation": 2}]}, "perspective_c3_x": {"Points": [{"co": {"X": 1, "Y": -1}, "interpolation": 2}]}, "perspective_c3_y": {"Points": [{"co": {"X": 1, "Y": -1}, "interpolation": 2}]}, "perspective_c4_x": {"Points": [{"co": {"X": 1, "Y": -1}, "interpolation": 2}]}, "perspective_c4_y": {"Points": [{"co": {"X": 1, "Y": -1}, "interpolation": 2}]}, "position": 204.766875, "reader": {"acodec": "", "audio_bit_rate": 0, "audio_stream_index": -1, "audio_timebase": {"den": 1, "num": 1}, "channel_layout": 4, "channels": 0, "display_ratio": {"den": 84, "num": 149}, "duration": 11.345000267028809, "file_size": "585096", "fps": {"den": 1001, "num": 30000}, "has_audio": false, "has_single_image": false, "has_video": true, "height": 336, "interlaced_frame": false, "path": "/home/diary/Desktop/\u041a\u043e\u043d\u0446\u0435\u043f\u0442\u044b/64. \u041f\u0440\u0438\u0447\u0438\u043d\u044b \u0431\u043e\u043b\u0435\u0437\u043d\u0435\u0439/video assets/1054197290-preview.mp4", "pixel_format": 0, "pixel_ratio": {"den": 1, "num": 1}, "sample_rate": 0, "top_field_first": true, "type": "FFmpegReader", "vcodec": "h264", "video_bit_rate": 412584, "video_length": "340", "video_stream_index": 0, "video_timebase": {"den": 30000, "num": 1}, "width": 596}, "rotation": {"Points": [{"co": {"X": 1, "Y": 0}, "interpolation": 2}]}, "scale": 1, "scale_x": {"Points": [{"co": {"X": 1, "Y": 1}, "interpolation": 2}]}, "scale_y": {"Points": [{"co": {"X": 1, "Y": 1}, "interpolation": 2}]}, "shear_x": {"Points": [{"co": {"X": 1, "Y": 0}, "interpolation": 2}]}, "shear_y": {"Points": [{"co": {"X": 1, "Y": 0}, "interpolation": 2}]}, "start": 0, "time": {"Points": [{"co": {"X": 1, "Y": 1}, "interpolation": 2}]}, "volume": {"Points": [{"co": {"X": 1, "Y": 1}, "interpolation": 2}]}, "wave_color": {"alpha": {"Points": [{"co": {"X": 1, "Y": 255}, "handle_left": {"X": 0.5, "Y": 1}, "handle_right": {"X": 0.5, "Y": 0}, "handle_type": 0, "interpolation": 0}]}, "blue": {"Points": [{"co": {"X": 1, "Y": 255}, "handle_left": {"X": 0.5, "Y": 1}, "handle_right": {"X": 0.5, "Y": 0}, "handle_type": 0, "interpolation": 0}]}, "green": {"Points": [{"co": {"X": 1, "Y": 123}, "handle_left": {"X": 0.5, "Y": 1}, "handle_right": {"X": 0.5, "Y": 0}, "handle_type": 0, "interpolation": 0}]}, "red": {"Points": [{"co": {"X": 1, "Y": 0}, "handle_left": {"X": 0.5, "Y": 1}, "handle_right": {"X": 0.5, "Y": 0}, "handle_type": 0, "interpolation": 0}]}}, "waveform": false, "file_id": "NSJHHWMT9I", "title": "1054197290-preview.mp4", "image": "/home/diary/.openshot_qt/thumbnail/NSJHHWMT9I.png"}, {"alpha": {"Points": [{"co": {"X": 1, "Y": 1}, "interpolation": 2}]}, "anchor": 0, "channel_filter": {"Points": [{"co": {"X": 1, "Y": -1}, "interpolation": 2}]}, "channel_mapping": {"Points": [{"co": {"X": 1, "Y": -1}, "interpolation": 2}]}, "crop_height": {"Points": [{"co": {"X": 1, "Y": -1}, "interpolation": 2}]}, "crop_width": {"Points": [{"co": {"X": 1, "Y": -1}, "interpolation": 2}]}, "crop_x": {"Points": [{"co": {"X": 1, "Y": 0}, "interpolation": 2}]}, "crop_y": {"Points": [{"co": {"X": 1, "Y": 0}, "interpolation": 2}]}, "display": 0, "duration": 36.5369987487793, "effects": [], "end": 36.5369987487793, "gravity": 4, "has_audio": {"Points": [{"co": {"X": 1, "Y": -1}, "interpolation": 2}]}, "has_video": {"Points": [{"co": {"X": 1, "Y": -1}, "interpolation": 2}]}, "id": "DQZBHY174R", "layer": 3, "location_x": {"Points": [{"co": {"X": 1, "Y": 0}, "interpolation": 2}]}, "location_y": {"Points": [{"co": {"X": 1, "Y": 0}, "interpolation": 2}]}, "perspective_c1_x": {"Points": [{"co": {"X": 1, "Y": -1}, "interpolation": 2}]}, "perspective_c1_y": {"Points": [{"co": {"X": 1, "Y": -1}, "interpolation": 2}]}, "perspective_c2_x": {"Points": [{"co": {"X": 1, "Y": -1}, "interpolation": 2}]}, "perspective_c2_y": {"Points": [{"co": {"X": 1, "Y": -1}, "interpolation": 2}]}, "perspective_c3_x": {"Points": [{"co": {"X": 1, "Y": -1}, "interpolation": 2}]}, "perspective_c3_y": {"Points": [{"co": {"X": 1, "Y": -1}, "interpolation": 2}]}, "perspective_c4_x": {"Points": [{"co": {"X": 1, "Y": -1}, "interpolation": 2}]}, "perspective_c4_y": {"Points": [{"co": {"X": 1, "Y": -1}, "interpolation": 2}]}, "position": 225.8119923019409, "reader": {"acodec": "", "audio_bit_rate": 0, "audio_stream_index": -1, "audio_timebase": {"den": 1, "num": 1}, "channel_layout": 4, "channels": 0, "display_ratio": {"den": 84, "num": 149}, "duration": 36.5369987487793, "file_size": "4196192", "fps": {"den": 1001, "num": 30000}, "has_audio": false, "has_single_image": false, "has_video": true, "height": 336, "interlaced_frame": false, "path": "/home/diary/Desktop/\u041a\u043e\u043d\u0446\u0435\u043f\u0442\u044b/64. \u041f\u0440\u0438\u0447\u0438\u043d\u044b \u0431\u043e\u043b\u0435\u0437\u043d\u0435\u0439/video assets/33052981-preview.mp4", "pixel_format": 0, "pixel_ratio": {"den": 1, "num": 1}, "sample_rate": 0, "top_field_first": true, "type": "FFmpegReader", "vcodec": "h264", "video_bit_rate": 918781, "video_length": "1095", "video_stream_index": 0, "video_timebase": {"den": 30000, "num": 1}, "width": 596}, "rotation": {"Points": [{"co": {"X": 1, "Y": 0}, "interpolation": 2}]}, "scale": 1, "scale_x": {"Points": [{"co": {"X": 1, "Y": 1}, "interpolation": 2}]}, "scale_y": {"Points": [{"co": {"X": 1, "Y": 1}, "interpolation": 2}]}, "shear_x": {"Points": [{"co": {"X": 1, "Y": 0}, "interpolation": 2}]}, "shear_y": {"Points": [{"co": {"X": 1, "Y": 0}, "interpolation": 2}]}, "start": 0, "time": {"Points": [{"co": {"X": 1, "Y": 1}, "interpolation": 2}]}, "volume": {"Points": [{"co": {"X": 1, "Y": 1}, "interpolation": 2}]}, "wave_color": {"alpha": {"Points": [{"co": {"X": 1, "Y": 255}, "handle_left": {"X": 0.5, "Y": 1}, "handle_right": {"X": 0.5, "Y": 0}, "handle_type": 0, "interpolation": 0}]}, "blue": {"Points": [{"co": {"X": 1, "Y": 255}, "handle_left": {"X": 0.5, "Y": 1}, "handle_right": {"X": 0.5, "Y": 0}, "handle_type": 0, "interpolation": 0}]}, "green": {"Points": [{"co": {"X": 1, "Y": 123}, "handle_left": {"X": 0.5, "Y": 1}, "handle_right": {"X": 0.5, "Y": 0}, "handle_type": 0, "interpolation": 0}]}, "red": {"Points": [{"co": {"X": 1, "Y": 0}, "handle_left": {"X": 0.5, "Y": 1}, "handle_right": {"X": 0.5, "Y": 0}, "handle_type": 0, "interpolation": 0}]}}, "waveform": false, "file_id": "EWG01CHQ4Z", "title": "33052981-preview.mp4", "image": "/home/diary/.openshot_qt/thumbnail/EWG01CHQ4Z.png"}, {"alpha": {"Points": [{"co": {"X": 1, "Y": 1}, "interpolation": 2}]}, "anchor": 0, "channel_filter": {"Points": [{"co": {"X": 1, "Y": -1}, "interpolation": 2}]}, "channel_mapping": {"Points": [{"co": {"X": 1, "Y": -1}, "interpolation": 2}]}, "crop_height": {"Points": [{"co": {"X": 1, "Y": -1}, "interpolation": 2}]}, "crop_width": {"Points": [{"co": {"X": 1, "Y": -1}, "interpolation": 2}]}, "crop_x": {"Points": [{"co": {"X": 1, "Y": 0}, "interpolation": 2}]}, "crop_y": {"Points": [{"co": {"X": 1, "Y": 0}, "interpolation": 2}]}, "display": 0, "duration": 25.458999633789062, "effects": [], "end": 25.458999633789062, "gravity": 4, "has_audio": {"Points": [{"co": {"X": 1, "Y": -1}, "interpolation": 2}]}, "has_video": {"Points": [{"co": {"X": 1, "Y": -1}, "interpolation": 2}]}, "id": "X7NXO3B9RG", "layer": 2, "location_x": {"Points": [{"co": {"X": 1, "Y": 0}, "interpolation": 2}]}, "location_y": {"Points": [{"co": {"X": 1, "Y": 0}, "interpolation": 2}]}, "perspective_c1_x": {"Points": [{"co": {"X": 1, "Y": -1}, "interpolation": 2}]}, "perspective_c1_y": {"Points": [{"co": {"X": 1, "Y": -1}, "interpolation": 2}]}, "perspective_c2_x": {"Points": [{"co": {"X": 1, "Y": -1}, "interpolation": 2}]}, "perspective_c2_y": {"Points": [{"co": {"X": 1, "Y": -1}, "interpolation": 2}]}, "perspective_c3_x": {"Points": [{"co": {"X": 1, "Y": -1}, "interpolation": 2}]}, "perspective_c3_y": {"Points": [{"co": {"X": 1, "Y": -1}, "interpolation": 2}]}, "perspective_c4_x": {"Points": [{"co": {"X": 1, "Y": -1}, "interpolation": 2}]}, "perspective_c4_y": {"Points": [{"co": {"X": 1, "Y": -1}, "interpolation": 2}]}, "position": 225.8119923019409, "reader": {"acodec": "", "audio_bit_rate": 0, "audio_stream_index": -1, "audio_timebase": {"den": 1, "num": 1}, "channel_layout": 4, "channels": 0, "display_ratio": {"den": 84, "num": 149}, "duration": 25.458999633789062, "file_size": "3043969", "fps": {"den": 1001, "num": 30000}, "has_audio": false, "has_single_image": false, "has_video": true, "height": 336, "interlaced_frame": false, "path": "/home/diary/Desktop/\u041a\u043e\u043d\u0446\u0435\u043f\u0442\u044b/64. \u041f\u0440\u0438\u0447\u0438\u043d\u044b \u0431\u043e\u043b\u0435\u0437\u043d\u0435\u0439/video assets/1007373979-preview.mp4", "pixel_format": 0, "pixel_ratio": {"den": 1, "num": 1}, "sample_rate": 0, "top_field_first": true, "type": "FFmpegReader", "vcodec": "h264", "video_bit_rate": 956508, "video_length": "763", "video_stream_index": 0, "video_timebase": {"den": 30000, "num": 1}, "width": 596}, "rotation": {"Points": [{"co": {"X": 1, "Y": 0}, "interpolation": 2}]}, "scale": 1, "scale_x": {"Points": [{"co": {"X": 1, "Y": 1}, "interpolation": 2}]}, "scale_y": {"Points": [{"co": {"X": 1, "Y": 1}, "interpolation": 2}]}, "shear_x": {"Points": [{"co": {"X": 1, "Y": 0}, "interpolation": 2}]}, "shear_y": {"Points": [{"co": {"X": 1, "Y": 0}, "interpolation": 2}]}, "start": 0, "time": {"Points": [{"co": {"X": 1, "Y": 1}, "interpolation": 2}]}, "volume": {"Points": [{"co": {"X": 1, "Y": 1}, "interpolation": 2}]}, "wave_color": {"alpha": {"Points": [{"co": {"X": 1, "Y": 255}, "handle_left": {"X": 0.5, "Y": 1}, "handle_right": {"X": 0.5, "Y": 0}, "handle_type": 0, "interpolation": 0}]}, "blue": {"Points": [{"co": {"X": 1, "Y": 255}, "handle_left": {"X": 0.5, "Y": 1}, "handle_right": {"X": 0.5, "Y": 0}, "handle_type": 0, "interpolation": 0}]}, "green": {"Points": [{"co": {"X": 1, "Y": 123}, "handle_left": {"X": 0.5, "Y": 1}, "handle_right": {"X": 0.5, "Y": 0}, "handle_type": 0, "interpolation": 0}]}, "red": {"Points": [{"co": {"X": 1, "Y": 0}, "handle_left": {"X": 0.5, "Y": 1}, "handle_right": {"X": 0.5, "Y": 0}, "handle_type": 0, "interpolation": 0}]}}, "waveform": false, "file_id": "SQO0PHY2HX", "title": "1007373979-preview.mp4", "image": "/home/diary/.openshot_qt/thumbnail/SQO0PHY2HX.png"}, {"alpha": {"Points": [{"co": {"X": 1, "Y": 1}, "interpolation": 2}]}, "anchor": 0, "channel_filter": {"Points": [{"co": {"X": 1, "Y": -1}, "interpolation": 2}]}, "channel_mapping": {"Points": [{"co": {"X": 1, "Y": -1}, "interpolation": 2}]}, "crop_height": {"Points": [{"co": {"X": 1, "Y": -1}, "interpolation": 2}]}, "crop_width": {"Points": [{"co": {"X": 1, "Y": -1}, "interpolation": 2}]}, "crop_x": {"Points": [{"co": {"X": 1, "Y": 0}, "interpolation": 2}]}, "crop_y": {"Points": [{"co": {"X": 1, "Y": 0}, "interpolation": 2}]}, "display": 0, "duration": 9.920000076293945, "effects": [], "end": 9.920000076293945, "gravity": 4, "has_audio": {"Points": [{"co": {"X": 1, "Y": -1}, "interpolation": 2}]}, "has_video": {"Points": [{"co": {"X": 1, "Y": -1}, "interpolation": 2}]}, "id": "6E7JZ7ZMGT", "layer": 3, "location_x": {"Points": [{"co": {"X": 1, "Y": 0}, "interpolation": 2}]}, "location_y": {"Points": [{"co": {"X": 1, "Y": 0}, "interpolation": 2}]}, "perspective_c1_x": {"Points": [{"co": {"X": 1, "Y": -1}, "interpolation": 2}]}, "perspective_c1_y": {"Points": [{"co": {"X": 1, "Y": -1}, "interpolation": 2}]}, "perspective_c2_x": {"Points": [{"co": {"X": 1, "Y": -1}, "interpolation": 2}]}, "perspective_c2_y": {"Points": [{"co": {"X": 1, "Y": -1}, "interpolation": 2}]}, "perspective_c3_x": {"Points": [{"co": {"X": 1, "Y": -1}, "interpolation": 2}]}, "perspective_c3_y": {"Points": [{"co": {"X": 1, "Y": -1}, "interpolation": 2}]}, "perspective_c4_x": {"Points": [{"co": {"X": 1, "Y": -1}, "interpolation": 2}]}, "perspective_c4_y": {"Points": [{"co": {"X": 1, "Y": -1}, "interpolation": 2}]}, "position": 282.88, "reader": {"acodec": "", "audio_bit_rate": 0, "audio_stream_index": -1, "audio_timebase": {"den": 1, "num": 1}, "channel_layout": 4, "channels": 0, "display_ratio": {"den": 84, "num": 149}, "duration": 9.920000076293945, "file_size": "1198046", "fps": {"den": 1, "num": 25}, "has_audio": false, "has_single_image": false, "has_video": true, "height": 336, "interlaced_frame": false, "path": "/home/diary/Desktop/\u041a\u043e\u043d\u0446\u0435\u043f\u0442\u044b/64. \u041f\u0440\u0438\u0447\u0438\u043d\u044b \u0431\u043e\u043b\u0435\u0437\u043d\u0435\u0439/video assets/1016309740-preview.mp4", "pixel_format": 0, "pixel_ratio": {"den": 1, "num": 1}, "sample_rate": 0, "top_field_first": true, "type": "FFmpegReader", "vcodec": "h264", "video_bit_rate": 966166, "video_length": "248", "video_stream_index": 0, "video_timebase": {"den": 12800, "num": 1}, "width": 596}, "rotation": {"Points": [{"co": {"X": 1, "Y": 0}, "interpolation": 2}]}, "scale": 1, "scale_x": {"Points": [{"co": {"X": 1, "Y": 1}, "interpolation": 2}]}, "scale_y": {"Points": [{"co": {"X": 1, "Y": 1}, "interpolation": 2}]}, "shear_x": {"Points": [{"co": {"X": 1, "Y": 0}, "interpolation": 2}]}, "shear_y": {"Points": [{"co": {"X": 1, "Y": 0}, "interpolation": 2}]}, "start": 0, "time": {"Points": [{"co": {"X": 1, "Y": 1}, "interpolation": 2}]}, "volume": {"Points": [{"co": {"X": 1, "Y": 1}, "interpolation": 2}]}, "wave_color": {"alpha": {"Points": [{"co": {"X": 1, "Y": 255}, "handle_left": {"X": 0.5, "Y": 1}, "handle_right": {"X": 0.5, "Y": 0}, "handle_type": 0, "interpolation": 0}]}, "blue": {"Points": [{"co": {"X": 1, "Y": 255}, "handle_left": {"X": 0.5, "Y": 1}, "handle_right": {"X": 0.5, "Y": 0}, "handle_type": 0, "interpolation": 0}]}, "green": {"Points": [{"co": {"X": 1, "Y": 123}, "handle_left": {"X": 0.5, "Y": 1}, "handle_right": {"X": 0.5, "Y": 0}, "handle_type": 0, "interpolation": 0}]}, "red": {"Points": [{"co": {"X": 1, "Y": 0}, "handle_left": {"X": 0.5, "Y": 1}, "handle_right": {"X": 0.5, "Y": 0}, "handle_type": 0, "interpolation": 0}]}}, "waveform": false, "file_id": "8T4SK39XZY", "title": "1016309740-preview.mp4", "image": "/home/diary/.openshot_qt/thumbnail/8T4SK39XZY.png"}, {"alpha": {"Points": [{"co": {"X": 1, "Y": 1}, "interpolation": 2}]}, "anchor": 0, "channel_filter": {"Points": [{"co": {"X": 1, "Y": -1}, "interpolation": 2}]}, "channel_mapping": {"Points": [{"co": {"X": 1, "Y": -1}, "interpolation": 2}]}, "crop_height": {"Points": [{"co": {"X": 1, "Y": -1}, "interpolation": 2}]}, "crop_width": {"Points": [{"co": {"X": 1, "Y": -1}, "interpolation": 2}]}, "crop_x": {"Points": [{"co": {"X": 1, "Y": 0}, "interpolation": 2}]}, "crop_y": {"Points": [{"co": {"X": 1, "Y": 0}, "interpolation": 2}]}, "display": 0, "duration": 46.0, "effects": [], "end": 46, "gravity": 4, "has_audio": {"Points": [{"co": {"X": 1, "Y": -1}, "interpolation": 2}]}, "has_video": {"Points": [{"co": {"X": 1, "Y": -1}, "interpolation": 2}]}, "id": "TGDE0HH714", "layer": 3, "location_x": {"Points": [{"co": {"X": 1, "Y": 0}, "interpolation": 2}]}, "location_y": {"Points": [{"co": {"X": 1, "Y": 0}, "interpolation": 2}]}, "perspective_c1_x": {"Points": [{"co": {"X": 1, "Y": -1}, "interpolation": 2}]}, "perspective_c1_y": {"Points": [{"co": {"X": 1, "Y": -1}, "interpolation": 2}]}, "perspective_c2_x": {"Points": [{"co": {"X": 1, "Y": -1}, "interpolation": 2}]}, "perspective_c2_y": {"Points": [{"co": {"X": 1, "Y": -1}, "interpolation": 2}]}, "perspective_c3_x": {"Points": [{"co": {"X": 1, "Y": -1}, "interpolation": 2}]}, "perspective_c3_y": {"Points": [{"co": {"X": 1, "Y": -1}, "interpolation": 2}]}, "perspective_c4_x": {"Points": [{"co": {"X": 1, "Y": -1}, "interpolation": 2}]}, "perspective_c4_y": {"Points": [{"co": {"X": 1, "Y": -1}, "interpolation": 2}]}, "position": 295.2, "reader": {"acodec": "", "audio_bit_rate": 0, "audio_stream_index": -1, "audio_timebase": {"den": 1, "num": 1}, "channel_layout": 4, "channels": 0, "display_ratio": {"den": 84, "num": 149}, "duration": 46.0, "file_size": "4877662", "fps": {"den": 1, "num": 25}, "has_audio": false, "has_single_image": false, "has_video": true, "height": 336, "interlaced_frame": false, "path": "/home/diary/Desktop/\u041a\u043e\u043d\u0446\u0435\u043f\u0442\u044b/64. \u041f\u0440\u0438\u0447\u0438\u043d\u044b \u0431\u043e\u043b\u0435\u0437\u043d\u0435\u0439/video assets/23705650-preview.mp4", "pixel_format": 0, "pixel_ratio": {"den": 1, "num": 1}, "sample_rate": 0, "top_field_first": true, "type": "FFmpegReader", "vcodec": "h264", "video_bit_rate": 848289, "video_length": "1150", "video_stream_index": 0, "video_timebase": {"den": 12800, "num": 1}, "width": 596}, "rotation": {"Points": [{"co": {"X": 1, "Y": 0}, "interpolation": 2}]}, "scale": 1, "scale_x": {"Points": [{"co": {"X": 1, "Y": 1}, "interpolation": 2}]}, "scale_y": {"Points": [{"co": {"X": 1, "Y": 1}, "interpolation": 2}]}, "shear_x": {"Points": [{"co": {"X": 1, "Y": 0}, "interpolation": 2}]}, "shear_y": {"Points": [{"co": {"X": 1, "Y": 0}, "interpolation": 2}]}, "start": 0, "time": {"Points": [{"co": {"X": 1, "Y": 1}, "interpolation": 2}]}, "volume": {"Points": [{"co": {"X": 1, "Y": 1}, "interpolation": 2}]}, "wave_color": {"alpha": {"Points": [{"co": {"X": 1, "Y": 255}, "handle_left": {"X": 0.5, "Y": 1}, "handle_right": {"X": 0.5, "Y": 0}, "handle_type": 0, "interpolation": 0}]}, "blue": {"Points": [{"co": {"X": 1, "Y": 255}, "handle_left": {"X": 0.5, "Y": 1}, "handle_right": {"X": 0.5, "Y": 0}, "handle_type": 0, "interpolation": 0}]}, "green": {"Points": [{"co": {"X": 1, "Y": 123}, "handle_left": {"X": 0.5, "Y": 1}, "handle_right": {"X": 0.5, "Y": 0}, "handle_type": 0, "interpolation": 0}]}, "red": {"Points": [{"co": {"X": 1, "Y": 0}, "handle_left": {"X": 0.5, "Y": 1}, "handle_right": {"X": 0.5, "Y": 0}, "handle_type": 0, "interpolation": 0}]}}, "waveform": false, "file_id": "VGKFBXYU5S", "title": "23705650-preview.mp4", "image": "/home/diary/.openshot_qt/thumbnail/VGKFBXYU5S.png"}, {"alpha": {"Points": [{"co": {"X": 1, "Y": 1}, "interpolation": 2}]}, "anchor": 0, "channel_filter": {"Points": [{"co": {"X": 1, "Y": -1}, "interpolation": 2}]}, "channel_mapping": {"Points": [{"co": {"X": 1, "Y": -1}, "interpolation": 2}]}, "crop_height": {"Points": [{"co": {"X": 1, "Y": -1}, "interpolation": 2}]}, "crop_width": {"Points": [{"co": {"X": 1, "Y": -1}, "interpolation": 2}]}, "crop_x": {"Points": [{"co": {"X": 1, "Y": 0}, "interpolation": 2}]}, "crop_y": {"Points": [{"co": {"X": 1, "Y": 0}, "interpolation": 2}]}, "display": 0, "duration": 46.0, "effects": [], "end": 46, "gravity": 4, "has_audio": {"Points": [{"co": {"X": 1, "Y": -1}, "interpolation": 2}]}, "has_video": {"Points": [{"co": {"X": 1, "Y": -1}, "interpolation": 2}]}, "id": "WS8DVA2S90", "layer": 3, "location_x": {"Points": [{"co": {"X": 1, "Y": 0}, "interpolation": 2}]}, "location_y": {"Points": [{"co": {"X": 1, "Y": 0}, "interpolation": 2}]}, "perspective_c1_x": {"Points": [{"co": {"X": 1, "Y": -1}, "interpolation": 2}]}, "perspective_c1_y": {"Points": [{"co": {"X": 1, "Y": -1}, "interpolation": 2}]}, "perspective_c2_x": {"Points": [{"co": {"X": 1, "Y": -1}, "interpolation": 2}]}, "perspective_c2_y": {"Points": [{"co": {"X": 1, "Y": -1}, "interpolation": 2}]}, "perspective_c3_x": {"Points": [{"co": {"X": 1, "Y": -1}, "interpolation": 2}]}, "perspective_c3_y": {"Points": [{"co": {"X": 1, "Y": -1}, "interpolation": 2}]}, "perspective_c4_x": {"Points": [{"co": {"X": 1, "Y": -1}, "interpolation": 2}]}, "perspective_c4_y": {"Points": [{"co": {"X": 1, "Y": -1}, "interpolation": 2}]}, "position": 343.2, "reader": {"acodec": "", "audio_bit_rate": 0, "audio_stream_index": -1, "audio_timebase": {"den": 1, "num": 1}, "channel_layout": 4, "channels": 0, "display_ratio": {"den": 84, "num": 149}, "duration": 46.0, "file_size": "4973482", "fps": {"den": 1, "num": 25}, "has_audio": false, "has_single_image": false, "has_video": true, "height": 336, "interlaced_frame": false, "path": "/home/diary/Desktop/\u041a\u043e\u043d\u0446\u0435\u043f\u0442\u044b/64. \u041f\u0440\u0438\u0447\u0438\u043d\u044b \u0431\u043e\u043b\u0435\u0437\u043d\u0435\u0439/video assets/22138156-preview.mp4", "pixel_format": 0, "pixel_ratio": {"den": 1, "num": 1}, "sample_rate": 0, "top_field_first": true, "type": "FFmpegReader", "vcodec": "h264", "video_bit_rate": 864953, "video_length": "1150", "video_stream_index": 0, "video_timebase": {"den": 12800, "num": 1}, "width": 596}, "rotation": {"Points": [{"co": {"X": 1, "Y": 0}, "interpolation": 2}]}, "scale": 1, "scale_x": {"Points": [{"co": {"X": 1, "Y": 1}, "interpolation": 2}]}, "scale_y": {"Points": [{"co": {"X": 1, "Y": 1}, "interpolation": 2}]}, "shear_x": {"Points": [{"co": {"X": 1, "Y": 0}, "interpolation": 2}]}, "shear_y": {"Points": [{"co": {"X": 1, "Y": 0}, "interpolation": 2}]}, "start": 0, "time": {"Points": [{"co": {"X": 1, "Y": 1}, "interpolation": 2}]}, "volume": {"Points": [{"co": {"X": 1, "Y": 1}, "interpolation": 2}]}, "wave_color": {"alpha": {"Points": [{"co": {"X": 1, "Y": 255}, "handle_left": {"X": 0.5, "Y": 1}, "handle_right": {"X": 0.5, "Y": 0}, "handle_type": 0, "interpolation": 0}]}, "blue": {"Points": [{"co": {"X": 1, "Y": 255}, "handle_left": {"X": 0.5, "Y": 1}, "handle_right": {"X": 0.5, "Y": 0}, "handle_type": 0, "interpolation": 0}]}, "green": {"Points": [{"co": {"X": 1, "Y": 123}, "handle_left": {"X": 0.5, "Y": 1}, "handle_right": {"X": 0.5, "Y": 0}, "handle_type": 0, "interpolation": 0}]}, "red": {"Points": [{"co": {"X": 1, "Y": 0}, "handle_left": {"X": 0.5, "Y": 1}, "handle_right": {"X": 0.5, "Y": 0}, "handle_type": 0, "interpolation": 0}]}}, "waveform": false, "file_id": "ZOUCJ0XQII", "title": "22138156-preview.mp4", "image": "/home/diary/.openshot_qt/thumbnail/ZOUCJ0XQII.png"}, {"alpha": {"Points": [{"co": {"X": 1, "Y": 1}, "interpolation": 2}]}, "anchor": 0, "channel_filter": {"Points": [{"co": {"X": 1, "Y": -1}, "interpolation": 2}]}, "channel_mapping": {"Points": [{"co": {"X": 1, "Y": -1}, "interpolation": 2}]}, "crop_height": {"Points": [{"co": {"X": 1, "Y": -1}, "interpolation": 2}]}, "crop_width": {"Points": [{"co": {"X": 1, "Y": -1}, "interpolation": 2}]}, "crop_x": {"Points": [{"co": {"X": 1, "Y": 0}, "interpolation": 2}]}, "crop_y": {"Points": [{"co": {"X": 1, "Y": 0}, "interpolation": 2}]}, "display": 0, "duration": 15.016016006469727, "effects": [], "end": 15.016016006469727, "gravity": 4, "has_audio": {"Points": [{"co": {"X": 1, "Y": -1}, "interpolation": 2}]}, "has_video": {"Points": [{"co": {"X": 1, "Y": -1}, "interpolation": 2}]}, "id": "71258V3T0Z", "layer": 3, "location_x": {"Points": [{"co": {"X": 1, "Y": 0}, "interpolation": 2}]}, "location_y": {"Points": [{"co": {"X": 1, "Y": 0}, "interpolation": 2}]}, "perspective_c1_x": {"Points": [{"co": {"X": 1, "Y": -1}, "interpolation": 2}]}, "perspective_c1_y": {"Points": [{"co": {"X": 1, "Y": -1}, "interpolation": 2}]}, "perspective_c2_x": {"Points": [{"co": {"X": 1, "Y": -1}, "interpolation": 2}]}, "perspective_c2_y": {"Points": [{"co": {"X": 1, "Y": -1}, "interpolation": 2}]}, "perspective_c3_x": {"Points": [{"co": {"X": 1, "Y": -1}, "interpolation": 2}]}, "perspective_c3_y": {"Points": [{"co": {"X": 1, "Y": -1}, "interpolation": 2}]}, "perspective_c4_x": {"Points": [{"co": {"X": 1, "Y": -1}, "interpolation": 2}]}, "perspective_c4_y": {"Points": [{"co": {"X": 1, "Y": -1}, "interpolation": 2}]}, "position": 389.2, "reader": {"acodec": "", "audio_bit_rate": 0, "audio_stream_index": -1, "audio_timebase": {"den": 1, "num": 1}, "channel_layout": 4, "channels": 0, "display_ratio": {"den": 84, "num": 149}, "duration": 15.016016006469727, "file_size": "1590835", "fps": {"den": 100, "num": 2997}, "has_audio": false, "has_single_image": false, "has_video": true, "height": 336, "interlaced_frame": false, "path": "/home/diary/Desktop/\u041a\u043e\u043d\u0446\u0435\u043f\u0442\u044b/64. \u041f\u0440\u0438\u0447\u0438\u043d\u044b \u0431\u043e\u043b\u0435\u0437\u043d\u0435\u0439/video assets/1265275-preview.mp4", "pixel_format": 0, "pixel_ratio": {"den": 1, "num": 1}, "sample_rate": 0, "top_field_first": true, "type": "FFmpegReader", "vcodec": "h264", "video_bit_rate": 847541, "video_length": "450", "video_stream_index": 0, "video_timebase": {"den": 2997, "num": 1}, "width": 596}, "rotation": {"Points": [{"co": {"X": 1, "Y": 0}, "interpolation": 2}]}, "scale": 1, "scale_x": {"Points": [{"co": {"X": 1, "Y": 1}, "interpolation": 2}]}, "scale_y": {"Points": [{"co": {"X": 1, "Y": 1}, "interpolation": 2}]}, "shear_x": {"Points": [{"co": {"X": 1, "Y": 0}, "interpolation": 2}]}, "shear_y": {"Points": [{"co": {"X": 1, "Y": 0}, "interpolation": 2}]}, "start": 0, "time": {"Points": [{"co": {"X": 1, "Y": 1}, "interpolation": 2}]}, "volume": {"Points": [{"co": {"X": 1, "Y": 1}, "interpolation": 2}]}, "wave_color": {"alpha": {"Points": [{"co": {"X": 1, "Y": 255}, "handle_left": {"X": 0.5, "Y": 1}, "handle_right": {"X": 0.5, "Y": 0}, "handle_type": 0, "interpolation": 0}]}, "blue": {"Points": [{"co": {"X": 1, "Y": 255}, "handle_left": {"X": 0.5, "Y": 1}, "handle_right": {"X": 0.5, "Y": 0}, "handle_type": 0, "interpolation": 0}]}, "green": {"Points": [{"co": {"X": 1, "Y": 123}, "handle_left": {"X": 0.5, "Y": 1}, "handle_right": {"X": 0.5, "Y": 0}, "handle_type": 0, "interpolation": 0}]}, "red": {"Points": [{"co": {"X": 1, "Y": 0}, "handle_left": {"X": 0.5, "Y": 1}, "handle_right": {"X": 0.5, "Y": 0}, "handle_type": 0, "interpolation": 0}]}}, "waveform": false, "file_id": "WCGA0NGXVJ", "title": "1265275-preview.mp4", "image": "/home/diary/.openshot_qt/thumbnail/WCGA0NGXVJ.png"}, {"alpha": {"Points": [{"co": {"X": 1, "Y": 1}, "interpolation": 2}]}, "anchor": 0, "channel_filter": {"Points": [{"co": {"X": 1, "Y": -1}, "interpolation": 2}]}, "channel_mapping": {"Points": [{"co": {"X": 1, "Y": -1}, "interpolation": 2}]}, "crop_height": {"Points": [{"co": {"X": 1, "Y": -1}, "interpolation": 2}]}, "crop_width": {"Points": [{"co": {"X": 1, "Y": -1}, "interpolation": 2}]}, "crop_x": {"Points": [{"co": {"X": 1, "Y": 0}, "interpolation": 2}]}, "crop_y": {"Points": [{"co": {"X": 1, "Y": 0}, "interpolation": 2}]}, "display": 0, "duration": 10.239999771118164, "effects": [], "end": 10.239999771118164, "gravity": 4, "has_audio": {"Points": [{"co": {"X": 1, "Y": -1}, "interpolation": 2}]}, "has_video": {"Points": [{"co": {"X": 1, "Y": -1}, "interpolation": 2}]}, "id": "6MMM42S9QO", "layer": 3, "location_x": {"Points": [{"co": {"X": 1, "Y": 0}, "interpolation": 2}]}, "location_y": {"Points": [{"co": {"X": 1, "Y": 0}, "interpolation": 2}]}, "perspective_c1_x": {"Points": [{"co": {"X": 1, "Y": -1}, "interpolation": 2}]}, "perspective_c1_y": {"Points": [{"co": {"X": 1, "Y": -1}, "interpolation": 2}]}, "perspective_c2_x": {"Points": [{"co": {"X": 1, "Y": -1}, "interpolation": 2}]}, "perspective_c2_y": {"Points": [{"co": {"X": 1, "Y": -1}, "interpolation": 2}]}, "perspective_c3_x": {"Points": [{"co": {"X": 1, "Y": -1}, "interpolation": 2}]}, "perspective_c3_y": {"Points": [{"co": {"X": 1, "Y": -1}, "interpolation": 2}]}, "perspective_c4_x": {"Points": [{"co": {"X": 1, "Y": -1}, "interpolation": 2}]}, "perspective_c4_y": {"Points": [{"co": {"X": 1, "Y": -1}, "interpolation": 2}]}, "position": 404.215, "reader": {"acodec": "aac", "audio_bit_rate": 2089, "audio_stream_index": 1, "audio_timebase": {"den": 44100, "num": 1}, "channel_layout": 3, "channels": 2, "display_ratio": {"den": 84, "num": 149}, "duration": 10.239999771118164, "file_size": "1678485", "fps": {"den": 100, "num": 2997}, "has_audio": true, "has_single_image": false, "has_video": true, "height": 336, "interlaced_frame": false, "path": "/home/diary/Desktop/\u041a\u043e\u043d\u0446\u0435\u043f\u0442\u044b/64. \u041f\u0440\u0438\u0447\u0438\u043d\u044b \u0431\u043e\u043b\u0435\u0437\u043d\u0435\u0439/video assets/3592964-preview.mp4", "pixel_format": 0, "pixel_ratio": {"den": 1, "num": 1}, "sample_rate": 44100, "top_field_first": true, "type": "FFmpegReader", "vcodec": "h264", "video_bit_rate": 1310804, "video_length": "307", "video_stream_index": 0, "video_timebase": {"den": 2997, "num": 1}, "width": 596}, "rotation": {"Points": [{"co": {"X": 1, "Y": 0}, "interpolation": 2}]}, "scale": 1, "scale_x": {"Points": [{"co": {"X": 1, "Y": 1}, "interpolation": 2}]}, "scale_y": {"Points": [{"co": {"X": 1, "Y": 1}, "interpolation": 2}]}, "shear_x": {"Points": [{"co": {"X": 1, "Y": 0}, "interpolation": 2}]}, "shear_y": {"Points": [{"co": {"X": 1, "Y": 0}, "interpolation": 2}]}, "start": 0, "time": {"Points": [{"co": {"X": 1, "Y": 1}, "interpolation": 2}]}, "volume": {"Points": [{"co": {"X": 1, "Y": 1}, "interpolation": 2}]}, "wave_color": {"alpha": {"Points": [{"co": {"X": 1, "Y": 255}, "handle_left": {"X": 0.5, "Y": 1}, "handle_right": {"X": 0.5, "Y": 0}, "handle_type": 0, "interpolation": 0}]}, "blue": {"Points": [{"co": {"X": 1, "Y": 255}, "handle_left": {"X": 0.5, "Y": 1}, "handle_right": {"X": 0.5, "Y": 0}, "handle_type": 0, "interpolation": 0}]}, "green": {"Points": [{"co": {"X": 1, "Y": 123}, "handle_left": {"X": 0.5, "Y": 1}, "handle_right": {"X": 0.5, "Y": 0}, "handle_type": 0, "interpolation": 0}]}, "red": {"Points": [{"co": {"X": 1, "Y": 0}, "handle_left": {"X": 0.5, "Y": 1}, "handle_right": {"X": 0.5, "Y": 0}, "handle_type": 0, "interpolation": 0}]}}, "waveform": false, "file_id": "G0HUTQ2EM1", "title": "3592964-preview.mp4", "image": "/home/diary/.openshot_qt/thumbnail/G0HUTQ2EM1.png"}, {"alpha": {"Points": [{"co": {"X": 1, "Y": 1}, "interpolation": 2}]}, "anchor": 0, "channel_filter": {"Points": [{"co": {"X": 1, "Y": -1}, "interpolation": 2}]}, "channel_mapping": {"Points": [{"co": {"X": 1, "Y": -1}, "interpolation": 2}]}, "crop_height": {"Points": [{"co": {"X": 1, "Y": -1}, "interpolation": 2}]}, "crop_width": {"Points": [{"co": {"X": 1, "Y": -1}, "interpolation": 2}]}, "crop_x": {"Points": [{"co": {"X": 1, "Y": 0}, "interpolation": 2}]}, "crop_y": {"Points": [{"co": {"X": 1, "Y": 0}, "interpolation": 2}]}, "display": 0, "duration": 8.035011291503906, "effects": [], "end": 8.035011291503906, "gravity": 4, "has_audio": {"Points": [{"co": {"X": 1, "Y": -1}, "interpolation": 2}]}, "has_video": {"Points": [{"co": {"X": 1, "Y": -1}, "interpolation": 2}]}, "id": "IF2JTNIVJD", "layer": 2, "location_x": {"Points": [{"co": {"X": 1, "Y": 0}, "interpolation": 2}]}, "location_y": {"Points": [{"co": {"X": 1, "Y": 0}, "interpolation": 2}]}, "perspective_c1_x": {"Points": [{"co": {"X": 1, "Y": -1}, "interpolation": 2}]}, "perspective_c1_y": {"Points": [{"co": {"X": 1, "Y": -1}, "interpolation": 2}]}, "perspective_c2_x": {"Points": [{"co": {"X": 1, "Y": -1}, "interpolation": 2}]}, "perspective_c2_y": {"Points": [{"co": {"X": 1, "Y": -1}, "interpolation": 2}]}, "perspective_c3_x": {"Points": [{"co": {"X": 1, "Y": -1}, "interpolation": 2}]}, "perspective_c3_y": {"Points": [{"co": {"X": 1, "Y": -1}, "interpolation": 2}]}, "perspective_c4_x": {"Points": [{"co": {"X": 1, "Y": -1}, "interpolation": 2}]}, "perspective_c4_y": {"Points": [{"co": {"X": 1, "Y": -1}, "interpolation": 2}]}, "position": 299.2, "reader": {"acodec": "aac", "audio_bit_rate": 2095, "audio_stream_index": 1, "audio_timebase": {"den": 44100, "num": 1}, "channel_layout": 3, "channels": 2, "display_ratio": {"den": 84, "num": 149}, "duration": 8.035011291503906, "file_size": "947319", "fps": {"den": 100, "num": 2997}, "has_audio": true, "has_single_image": false, "has_video": true, "height": 336, "interlaced_frame": false, "path": "/home/diary/Desktop/\u041a\u043e\u043d\u0446\u0435\u043f\u0442\u044b/64. \u041f\u0440\u0438\u0447\u0438\u043d\u044b \u0431\u043e\u043b\u0435\u0437\u043d\u0435\u0439/video assets/3594023-preview.mp4", "pixel_format": 0, "pixel_ratio": {"den": 1, "num": 1}, "sample_rate": 44100, "top_field_first": true, "type": "FFmpegReader", "vcodec": "h264", "video_bit_rate": 942371, "video_length": "241", "video_stream_index": 0, "video_timebase": {"den": 2997, "num": 1}, "width": 596}, "rotation": {"Points": [{"co": {"X": 1, "Y": 0}, "interpolation": 2}]}, "scale": 1, "scale_x": {"Points": [{"co": {"X": 1, "Y": 1}, "interpolation": 2}]}, "scale_y": {"Points": [{"co": {"X": 1, "Y": 1}, "interpolation": 2}]}, "shear_x": {"Points": [{"co": {"X": 1, "Y": 0}, "interpolation": 2}]}, "shear_y": {"Points": [{"co": {"X": 1, "Y": 0}, "interpolation": 2}]}, "start": 0, "time": {"Points": [{"co": {"X": 1, "Y": 1}, "interpolation": 2}]}, "volume": {"Points": [{"co": {"X": 1, "Y": 1}, "interpolation": 2}]}, "wave_color": {"alpha": {"Points": [{"co": {"X": 1, "Y": 255}, "handle_left": {"X": 0.5, "Y": 1}, "handle_right": {"X": 0.5, "Y": 0}, "handle_type": 0, "interpolation": 0}]}, "blue": {"Points": [{"co": {"X": 1, "Y": 255}, "handle_left": {"X": 0.5, "Y": 1}, "handle_right": {"X": 0.5, "Y": 0}, "handle_type": 0, "interpolation": 0}]}, "green": {"Points": [{"co": {"X": 1, "Y": 123}, "handle_left": {"X": 0.5, "Y": 1}, "handle_right": {"X": 0.5, "Y": 0}, "handle_type": 0, "interpolation": 0}]}, "red": {"Points": [{"co": {"X": 1, "Y": 0}, "handle_left": {"X": 0.5, "Y": 1}, "handle_right": {"X": 0.5, "Y": 0}, "handle_type": 0, "interpolation": 0}]}}, "waveform": false, "file_id": "HXED1LNWZL", "title": "3594023-preview.mp4", "image": "/home/diary/.openshot_qt/thumbnail/HXED1LNWZL.png"}, {"alpha": {"Points": [{"co": {"X": 1, "Y": 1}, "interpolation": 2}]}, "anchor": 0, "channel_filter": {"Points": [{"co": {"X": 1, "Y": -1}, "interpolation": 2}]}, "channel_mapping": {"Points": [{"co": {"X": 1, "Y": -1}, "interpolation": 2}]}, "crop_height": {"Points": [{"co": {"X": 1, "Y": -1}, "interpolation": 2}]}, "crop_width": {"Points": [{"co": {"X": 1, "Y": -1}, "interpolation": 2}]}, "crop_x": {"Points": [{"co": {"X": 1, "Y": 0}, "interpolation": 2}]}, "crop_y": {"Points": [{"co": {"X": 1, "Y": 0}, "interpolation": 2}]}, "display": 0, "duration": 21.689022064208984, "effects": [], "end": 21.689022064208984, "gravity": 4, "has_audio": {"Points": [{"co": {"X": 1, "Y": -1}, "interpolation": 2}]}, "has_video": {"Points": [{"co": {"X": 1, "Y": -1}, "interpolation": 2}]}, "id": "04XEF8WYBI", "layer": 2, "location_x": {"Points": [{"co": {"X": 1, "Y": 0}, "interpolation": 2}]}, "location_y": {"Points": [{"co": {"X": 1, "Y": 0}, "interpolation": 2}]}, "perspective_c1_x": {"Points": [{"co": {"X": 1, "Y": -1}, "interpolation": 2}]}, "perspective_c1_y": {"Points": [{"co": {"X": 1, "Y": -1}, "interpolation": 2}]}, "perspective_c2_x": {"Points": [{"co": {"X": 1, "Y": -1}, "interpolation": 2}]}, "perspective_c2_y": {"Points": [{"co": {"X": 1, "Y": -1}, "interpolation": 2}]}, "perspective_c3_x": {"Points": [{"co": {"X": 1, "Y": -1}, "interpolation": 2}]}, "perspective_c3_y": {"Points": [{"co": {"X": 1, "Y": -1}, "interpolation": 2}]}, "perspective_c4_x": {"Points": [{"co": {"X": 1, "Y": -1}, "interpolation": 2}]}, "perspective_c4_y": {"Points": [{"co": {"X": 1, "Y": -1}, "interpolation": 2}]}, "position": 311.04, "reader": {"acodec": "", "audio_bit_rate": 0, "audio_stream_index": -1, "audio_timebase": {"den": 1, "num": 1}, "channel_layout": 4, "channels": 0, "display_ratio": {"den": 84, "num": 149}, "duration": 21.689022064208984, "file_size": "2480680", "fps": {"den": 100, "num": 2997}, "has_audio": false, "has_single_image": false, "has_video": true, "height": 336, "interlaced_frame": false, "path": "/home/diary/Desktop/\u041a\u043e\u043d\u0446\u0435\u043f\u0442\u044b/64. \u041f\u0440\u0438\u0447\u0438\u043d\u044b \u0431\u043e\u043b\u0435\u0437\u043d\u0435\u0439/video assets/4371524-preview.mp4", "pixel_format": 0, "pixel_ratio": {"den": 1, "num": 1}, "sample_rate": 0, "top_field_first": true, "type": "FFmpegReader", "vcodec": "h264", "video_bit_rate": 915000, "video_length": "650", "video_stream_index": 0, "video_timebase": {"den": 2997, "num": 1}, "width": 596}, "rotation": {"Points": [{"co": {"X": 1, "Y": 0}, "interpolation": 2}]}, "scale": 1, "scale_x": {"Points": [{"co": {"X": 1, "Y": 1}, "interpolation": 2}]}, "scale_y": {"Points": [{"co": {"X": 1, "Y": 1}, "interpolation": 2}]}, "shear_x": {"Points": [{"co": {"X": 1, "Y": 0}, "interpolation": 2}]}, "shear_y": {"Points": [{"co": {"X": 1, "Y": 0}, "interpolation": 2}]}, "start": 0, "time": {"Points": [{"co": {"X": 1, "Y": 1}, "interpolation": 2}]}, "volume": {"Points": [{"co": {"X": 1, "Y": 1}, "interpolation": 2}]}, "wave_color": {"alpha": {"Points": [{"co": {"X": 1, "Y": 255}, "handle_left": {"X": 0.5, "Y": 1}, "handle_right": {"X": 0.5, "Y": 0}, "handle_type": 0, "interpolation": 0}]}, "blue": {"Points": [{"co": {"X": 1, "Y": 255}, "handle_left": {"X": 0.5, "Y": 1}, "handle_right": {"X": 0.5, "Y": 0}, "handle_type": 0, "interpolation": 0}]}, "green": {"Points": [{"co": {"X": 1, "Y": 123}, "handle_left": {"X": 0.5, "Y": 1}, "handle_right": {"X": 0.5, "Y": 0}, "handle_type": 0, "interpolation": 0}]}, "red": {"Points": [{"co": {"X": 1, "Y": 0}, "handle_left": {"X": 0.5, "Y": 1}, "handle_right": {"X": 0.5, "Y": 0}, "handle_type": 0, "interpolation": 0}]}}, "waveform": false, "file_id": "3XRS1VUDFX", "title": "4371524-preview.mp4", "image": "/home/diary/.openshot_qt/thumbnail/3XRS1VUDFX.png"}, {"alpha": {"Points": [{"co": {"X": 1, "Y": 1}, "interpolation": 2}]}, "anchor": 0, "channel_filter": {"Points": [{"co": {"X": 1, "Y": -1}, "interpolation": 2}]}, "channel_mapping": {"Points": [{"co": {"X": 1, "Y": -1}, "interpolation": 2}]}, "crop_height": {"Points": [{"co": {"X": 1, "Y": -1}, "interpolation": 2}]}, "crop_width": {"Points": [{"co": {"X": 1, "Y": -1}, "interpolation": 2}]}, "crop_x": {"Points": [{"co": {"X": 1, "Y": 0}, "interpolation": 2}]}, "crop_y": {"Points": [{"co": {"X": 1, "Y": 0}, "interpolation": 2}]}, "display": 0, "duration": 17.959999084472656, "effects": [], "end": 17.959999084472656, "gravity": 4, "has_audio": {"Points": [{"co": {"X": 1, "Y": -1}, "interpolation": 2}]}, "has_video": {"Points": [{"co": {"X": 1, "Y": -1}, "interpolation": 2}]}, "id": "YBSM4IH6IO", "layer": 2, "location_x": {"Points": [{"co": {"X": 1, "Y": 0}, "interpolation": 2}]}, "location_y": {"Points": [{"co": {"X": 1, "Y": 0}, "interpolation": 2}]}, "perspective_c1_x": {"Points": [{"co": {"X": 1, "Y": -1}, "interpolation": 2}]}, "perspective_c1_y": {"Points": [{"co": {"X": 1, "Y": -1}, "interpolation": 2}]}, "perspective_c2_x": {"Points": [{"co": {"X": 1, "Y": -1}, "interpolation": 2}]}, "perspective_c2_y": {"Points": [{"co": {"X": 1, "Y": -1}, "interpolation": 2}]}, "perspective_c3_x": {"Points": [{"co": {"X": 1, "Y": -1}, "interpolation": 2}]}, "perspective_c3_y": {"Points": [{"co": {"X": 1, "Y": -1}, "interpolation": 2}]}, "perspective_c4_x": {"Points": [{"co": {"X": 1, "Y": -1}, "interpolation": 2}]}, "perspective_c4_y": {"Points": [{"co": {"X": 1, "Y": -1}, "interpolation": 2}]}, "position": 337.12, "reader": {"acodec": "", "audio_bit_rate": 0, "audio_stream_index": -1, "audio_timebase": {"den": 1, "num": 1}, "channel_layout": 4, "channels": 0, "display_ratio": {"den": 84, "num": 149}, "duration": 17.959999084472656, "file_size": "2128140", "fps": {"den": 1, "num": 25}, "has_audio": false, "has_single_image": false, "has_video": true, "height": 336, "interlaced_frame": false, "path": "/home/diary/Desktop/\u041a\u043e\u043d\u0446\u0435\u043f\u0442\u044b/64. \u041f\u0440\u0438\u0447\u0438\u043d\u044b \u0431\u043e\u043b\u0435\u0437\u043d\u0435\u0439/video assets/6070205-preview.mp4", "pixel_format": 0, "pixel_ratio": {"den": 1, "num": 1}, "sample_rate": 0, "top_field_first": true, "type": "FFmpegReader", "vcodec": "h264", "video_bit_rate": 947946, "video_length": "449", "video_stream_index": 0, "video_timebase": {"den": 12800, "num": 1}, "width": 596}, "rotation": {"Points": [{"co": {"X": 1, "Y": 0}, "interpolation": 2}]}, "scale": 1, "scale_x": {"Points": [{"co": {"X": 1, "Y": 1}, "interpolation": 2}]}, "scale_y": {"Points": [{"co": {"X": 1, "Y": 1}, "interpolation": 2}]}, "shear_x": {"Points": [{"co": {"X": 1, "Y": 0}, "interpolation": 2}]}, "shear_y": {"Points": [{"co": {"X": 1, "Y": 0}, "interpolation": 2}]}, "start": 0, "time": {"Points": [{"co": {"X": 1, "Y": 1}, "interpolation": 2}]}, "volume": {"Points": [{"co": {"X": 1, "Y": 1}, "interpolation": 2}]}, "wave_color": {"alpha": {"Points": [{"co": {"X": 1, "Y": 255}, "handle_left": {"X": 0.5, "Y": 1}, "handle_right": {"X": 0.5, "Y": 0}, "handle_type": 0, "interpolation": 0}]}, "blue": {"Points": [{"co": {"X": 1, "Y": 255}, "handle_left": {"X": 0.5, "Y": 1}, "handle_right": {"X": 0.5, "Y": 0}, "handle_type": 0, "interpolation": 0}]}, "green": {"Points": [{"co": {"X": 1, "Y": 123}, "handle_left": {"X": 0.5, "Y": 1}, "handle_right": {"X": 0.5, "Y": 0}, "handle_type": 0, "interpolation": 0}]}, "red": {"Points": [{"co": {"X": 1, "Y": 0}, "handle_left": {"X": 0.5, "Y": 1}, "handle_right": {"X": 0.5, "Y": 0}, "handle_type": 0, "interpolation": 0}]}}, "waveform": false, "file_id": "HRHP5RQDW2", "title": "6070205-preview.mp4", "image": "/home/diary/.openshot_qt/thumbnail/HRHP5RQDW2.png"}, {"alpha": {"Points": [{"co": {"X": 1, "Y": 1}, "interpolation": 2}]}, "anchor": 0, "channel_filter": {"Points": [{"co": {"X": 1, "Y": -1}, "interpolation": 2}]}, "channel_mapping": {"Points": [{"co": {"X": 1, "Y": -1}, "interpolation": 2}]}, "crop_height": {"Points": [{"co": {"X": 1, "Y": -1}, "interpolation": 2}]}, "crop_width": {"Points": [{"co": {"X": 1, "Y": -1}, "interpolation": 2}]}, "crop_x": {"Points": [{"co": {"X": 1, "Y": 0}, "interpolation": 2}]}, "crop_y": {"Points": [{"co": {"X": 1, "Y": 0}, "interpolation": 2}]}, "display": 0, "duration": 30.0, "effects": [], "end": 30, "gravity": 4, "has_audio": {"Points": [{"co": {"X": 1, "Y": -1}, "interpolation": 2}]}, "has_video": {"Points": [{"co": {"X": 1, "Y": -1}, "interpolation": 2}]}, "id": "DWJQ9OZ2JK", "layer": 2, "location_x": {"Points": [{"co": {"X": 1, "Y": 0}, "interpolation": 2}]}, "location_y": {"Points": [{"co": {"X": 1, "Y": 0}, "interpolation": 2}]}, "perspective_c1_x": {"Points": [{"co": {"X": 1, "Y": -1}, "interpolation": 2}]}, "perspective_c1_y": {"Points": [{"co": {"X": 1, "Y": -1}, "interpolation": 2}]}, "perspective_c2_x": {"Points": [{"co": {"X": 1, "Y": -1}, "interpolation": 2}]}, "perspective_c2_y": {"Points": [{"co": {"X": 1, "Y": -1}, "interpolation": 2}]}, "perspective_c3_x": {"Points": [{"co": {"X": 1, "Y": -1}, "interpolation": 2}]}, "perspective_c3_y": {"Points": [{"co": {"X": 1, "Y": -1}, "interpolation": 2}]}, "perspective_c4_x": {"Points": [{"co": {"X": 1, "Y": -1}, "interpolation": 2}]}, "perspective_c4_y": {"Points": [{"co": {"X": 1, "Y": -1}, "interpolation": 2}]}, "position": 359.36, "reader": {"acodec": "", "audio_bit_rate": 0, "audio_stream_index": -1, "audio_timebase": {"den": 1, "num": 1}, "channel_layout": 4, "channels": 0, "display_ratio": {"den": 84, "num": 149}, "duration": 30.0, "file_size": "3680524", "fps": {"den": 1, "num": 30}, "has_audio": false, "has_single_image": false, "has_video": true, "height": 336, "interlaced_frame": false, "path": "/home/diary/Desktop/\u041a\u043e\u043d\u0446\u0435\u043f\u0442\u044b/64. \u041f\u0440\u0438\u0447\u0438\u043d\u044b \u0431\u043e\u043b\u0435\u0437\u043d\u0435\u0439/video assets/11728724-preview.mp4", "pixel_format": 0, "pixel_ratio": {"den": 1, "num": 1}, "sample_rate": 0, "top_field_first": true, "type": "FFmpegReader", "vcodec": "h264", "video_bit_rate": 981473, "video_length": "900", "video_stream_index": 0, "video_timebase": {"den": 15360, "num": 1}, "width": 596}, "rotation": {"Points": [{"co": {"X": 1, "Y": 0}, "interpolation": 2}]}, "scale": 1, "scale_x": {"Points": [{"co": {"X": 1, "Y": 1}, "interpolation": 2}]}, "scale_y": {"Points": [{"co": {"X": 1, "Y": 1}, "interpolation": 2}]}, "shear_x": {"Points": [{"co": {"X": 1, "Y": 0}, "interpolation": 2}]}, "shear_y": {"Points": [{"co": {"X": 1, "Y": 0}, "interpolation": 2}]}, "start": 0, "time": {"Points": [{"co": {"X": 1, "Y": 1}, "interpolation": 2}]}, "volume": {"Points": [{"co": {"X": 1, "Y": 1}, "interpolation": 2}]}, "wave_color": {"alpha": {"Points": [{"co": {"X": 1, "Y": 255}, "handle_left": {"X": 0.5, "Y": 1}, "handle_right": {"X": 0.5, "Y": 0}, "handle_type": 0, "interpolation": 0}]}, "blue": {"Points": [{"co": {"X": 1, "Y": 255}, "handle_left": {"X": 0.5, "Y": 1}, "handle_right": {"X": 0.5, "Y": 0}, "handle_type": 0, "interpolation": 0}]}, "green": {"Points": [{"co": {"X": 1, "Y": 123}, "handle_left": {"X": 0.5, "Y": 1}, "handle_right": {"X": 0.5, "Y": 0}, "handle_type": 0, "interpolation": 0}]}, "red": {"Points": [{"co": {"X": 1, "Y": 0}, "handle_left": {"X": 0.5, "Y": 1}, "handle_right": {"X": 0.5, "Y": 0}, "handle_type": 0, "interpolation": 0}]}}, "waveform": false, "file_id": "MK67AURUUX", "title": "11728724-preview.mp4", "image": "/home/diary/.openshot_qt/thumbnail/MK67AURUUX.png"}, {"alpha": {"Points": [{"co": {"X": 1, "Y": 1}, "interpolation": 2}]}, "anchor": 0, "channel_filter": {"Points": [{"co": {"X": 1, "Y": -1}, "interpolation": 2}]}, "channel_mapping": {"Points": [{"co": {"X": 1, "Y": -1}, "interpolation": 2}]}, "crop_height": {"Points": [{"co": {"X": 1, "Y": -1}, "interpolation": 2}]}, "crop_width": {"Points": [{"co": {"X": 1, "Y": -1}, "interpolation": 2}]}, "crop_x": {"Points": [{"co": {"X": 1, "Y": 0}, "interpolation": 2}]}, "crop_y": {"Points": [{"co": {"X": 1, "Y": 0}, "interpolation": 2}]}, "display": 0, "duration": 10.678000450134277, "effects": [], "end": 10.678000450134277, "gravity": 4, "has_audio": {"Points": [{"co": {"X": 1, "Y": -1}, "interpolation": 2}]}, "has_video": {"Points": [{"co": {"X": 1, "Y": -1}, "interpolation": 2}]}, "id": "9YPO39K8W5", "layer": 2, "location_x": {"Points": [{"co": {"X": 1, "Y": 0}, "interpolation": 2}]}, "location_y": {"Points": [{"co": {"X": 1, "Y": 0}, "interpolation": 2}]}, "perspective_c1_x": {"Points": [{"co": {"X": 1, "Y": -1}, "interpolation": 2}]}, "perspective_c1_y": {"Points": [{"co": {"X": 1, "Y": -1}, "interpolation": 2}]}, "perspective_c2_x": {"Points": [{"co": {"X": 1, "Y": -1}, "interpolation": 2}]}, "perspective_c2_y": {"Points": [{"co": {"X": 1, "Y": -1}, "interpolation": 2}]}, "perspective_c3_x": {"Points": [{"co": {"X": 1, "Y": -1}, "interpolation": 2}]}, "perspective_c3_y": {"Points": [{"co": {"X": 1, "Y": -1}, "interpolation": 2}]}, "perspective_c4_x": {"Points": [{"co": {"X": 1, "Y": -1}, "interpolation": 2}]}, "perspective_c4_y": {"Points": [{"co": {"X": 1, "Y": -1}, "interpolation": 2}]}, "position": 389.36, "reader": {"acodec": "", "audio_bit_rate": 0, "audio_stream_index": -1, "audio_timebase": {"den": 1, "num": 1}, "channel_layout": 4, "channels": 0, "display_ratio": {"den": 84, "num": 149}, "duration": 10.678000450134277, "file_size": "1248338", "fps": {"den": 1001, "num": 30000}, "has_audio": false, "has_single_image": false, "has_video": true, "height": 336, "interlaced_frame": false, "path": "/home/diary/Desktop/\u041a\u043e\u043d\u0446\u0435\u043f\u0442\u044b/64. \u041f\u0440\u0438\u0447\u0438\u043d\u044b \u0431\u043e\u043b\u0435\u0437\u043d\u0435\u0439/video assets/17157313-preview.mp4", "pixel_format": 0, "pixel_ratio": {"den": 1, "num": 1}, "sample_rate": 0, "top_field_first": true, "type": "FFmpegReader", "vcodec": "h264", "video_bit_rate": 935259, "video_length": "320", "video_stream_index": 0, "video_timebase": {"den": 30000, "num": 1}, "width": 596}, "rotation": {"Points": [{"co": {"X": 1, "Y": 0}, "interpolation": 2}]}, "scale": 1, "scale_x": {"Points": [{"co": {"X": 1, "Y": 1}, "interpolation": 2}]}, "scale_y": {"Points": [{"co": {"X": 1, "Y": 1}, "interpolation": 2}]}, "shear_x": {"Points": [{"co": {"X": 1, "Y": 0}, "interpolation": 2}]}, "shear_y": {"Points": [{"co": {"X": 1, "Y": 0}, "interpolation": 2}]}, "start": 0, "time": {"Points": [{"co": {"X": 1, "Y": 1}, "interpolation": 2}]}, "volume": {"Points": [{"co": {"X": 1, "Y": 1}, "interpolation": 2}]}, "wave_color": {"alpha": {"Points": [{"co": {"X": 1, "Y": 255}, "handle_left": {"X": 0.5, "Y": 1}, "handle_right": {"X": 0.5, "Y": 0}, "handle_type": 0, "interpolation": 0}]}, "blue": {"Points": [{"co": {"X": 1, "Y": 255}, "handle_left": {"X": 0.5, "Y": 1}, "handle_right": {"X": 0.5, "Y": 0}, "handle_type": 0, "interpolation": 0}]}, "green": {"Points": [{"co": {"X": 1, "Y": 123}, "handle_left": {"X": 0.5, "Y": 1}, "handle_right": {"X": 0.5, "Y": 0}, "handle_type": 0, "interpolation": 0}]}, "red": {"Points": [{"co": {"X": 1, "Y": 0}, "handle_left": {"X": 0.5, "Y": 1}, "handle_right": {"X": 0.5, "Y": 0}, "handle_type": 0, "interpolation": 0}]}}, "waveform": false, "file_id": "TUY59O1ZMZ", "title": "17157313-preview.mp4", "image": "/home/diary/.openshot_qt/thumbnail/TUY59O1ZMZ.png"}, {"alpha": {"Points": [{"co": {"X": 1, "Y": 1}, "interpolation": 2}]}, "anchor": 0, "channel_filter": {"Points": [{"co": {"X": 1, "Y": -1}, "interpolation": 2}]}, "channel_mapping": {"Points": [{"co": {"X": 1, "Y": -1}, "interpolation": 2}]}, "crop_height": {"Points": [{"co": {"X": 1, "Y": -1}, "interpolation": 2}]}, "crop_width": {"Points": [{"co": {"X": 1, "Y": -1}, "interpolation": 2}]}, "crop_x": {"Points": [{"co": {"X": 1, "Y": 0}, "interpolation": 2}]}, "crop_y": {"Points": [{"co": {"X": 1, "Y": 0}, "interpolation": 2}]}, "display": 0, "duration": 20.0, "effects": [], "end": 20, "gravity": 4, "has_audio": {"Points": [{"co": {"X": 1, "Y": -1}, "interpolation": 2}]}, "has_video": {"Points": [{"co": {"X": 1, "Y": -1}, "interpolation": 2}]}, "id": "BQRV4KZ7OT", "layer": 2, "location_x": {"Points": [{"co": {"X": 1, "Y": 0}, "interpolation": 2}]}, "location_y": {"Points": [{"co": {"X": 1, "Y": 0}, "interpolation": 2}]}, "perspective_c1_x": {"Points": [{"co": {"X": 1, "Y": -1}, "interpolation": 2}]}, "perspective_c1_y": {"Points": [{"co": {"X": 1, "Y": -1}, "interpolation": 2}]}, "perspective_c2_x": {"Points": [{"co": {"X": 1, "Y": -1}, "interpolation": 2}]}, "perspective_c2_y": {"Points": [{"co": {"X": 1, "Y": -1}, "interpolation": 2}]}, "perspective_c3_x": {"Points": [{"co": {"X": 1, "Y": -1}, "interpolation": 2}]}, "perspective_c3_y": {"Points": [{"co": {"X": 1, "Y": -1}, "interpolation": 2}]}, "perspective_c4_x": {"Points": [{"co": {"X": 1, "Y": -1}, "interpolation": 2}]}, "perspective_c4_y": {"Points": [{"co": {"X": 1, "Y": -1}, "interpolation": 2}]}, "position": 404.215, "reader": {"acodec": "", "audio_bit_rate": 0, "audio_stream_index": -1, "audio_timebase": {"den": 1, "num": 1}, "channel_layout": 4, "channels": 0, "display_ratio": {"den": 84, "num": 149}, "duration": 20.0, "file_size": "2423260", "fps": {"den": 1, "num": 30}, "has_audio": false, "has_single_image": false, "has_video": true, "height": 336, "interlaced_frame": false, "path": "/home/diary/Desktop/\u041a\u043e\u043d\u0446\u0435\u043f\u0442\u044b/64. \u041f\u0440\u0438\u0447\u0438\u043d\u044b \u0431\u043e\u043b\u0435\u0437\u043d\u0435\u0439/video assets/18292843-preview.mp4", "pixel_format": 0, "pixel_ratio": {"den": 1, "num": 1}, "sample_rate": 0, "top_field_first": true, "type": "FFmpegReader", "vcodec": "h264", "video_bit_rate": 969304, "video_length": "600", "video_stream_index": 0, "video_timebase": {"den": 15360, "num": 1}, "width": 596}, "rotation": {"Points": [{"co": {"X": 1, "Y": 0}, "interpolation": 2}]}, "scale": 1, "scale_x": {"Points": [{"co": {"X": 1, "Y": 1}, "interpolation": 2}]}, "scale_y": {"Points": [{"co": {"X": 1, "Y": 1}, "interpolation": 2}]}, "shear_x": {"Points": [{"co": {"X": 1, "Y": 0}, "interpolation": 2}]}, "shear_y": {"Points": [{"co": {"X": 1, "Y": 0}, "interpolation": 2}]}, "start": 0, "time": {"Points": [{"co": {"X": 1, "Y": 1}, "interpolation": 2}]}, "volume": {"Points": [{"co": {"X": 1, "Y": 1}, "interpolation": 2}]}, "wave_color": {"alpha": {"Points": [{"co": {"X": 1, "Y": 255}, "handle_left": {"X": 0.5, "Y": 1}, "handle_right": {"X": 0.5, "Y": 0}, "handle_type": 0, "interpolation": 0}]}, "blue": {"Points": [{"co": {"X": 1, "Y": 255}, "handle_left": {"X": 0.5, "Y": 1}, "handle_right": {"X": 0.5, "Y": 0}, "handle_type": 0, "interpolation": 0}]}, "green": {"Points": [{"co": {"X": 1, "Y": 123}, "handle_left": {"X": 0.5, "Y": 1}, "handle_right": {"X": 0.5, "Y": 0}, "handle_type": 0, "interpolation": 0}]}, "red": {"Points": [{"co": {"X": 1, "Y": 0}, "handle_left": {"X": 0.5, "Y": 1}, "handle_right": {"X": 0.5, "Y": 0}, "handle_type": 0, "interpolation": 0}]}}, "waveform": false, "file_id": "689UE7LWJF", "title": "18292843-preview.mp4", "image": "/home/diary/.openshot_qt/thumbnail/689UE7LWJF.png"}, {"alpha": {"Points": [{"co": {"X": 1, "Y": 1}, "interpolation": 2}]}, "anchor": 0, "channel_filter": {"Points": [{"co": {"X": 1, "Y": -1}, "interpolation": 2}]}, "channel_mapping": {"Points": [{"co": {"X": 1, "Y": -1}, "interpolation": 2}]}, "crop_height": {"Points": [{"co": {"X": 1, "Y": -1}, "interpolation": 2}]}, "crop_width": {"Points": [{"co": {"X": 1, "Y": -1}, "interpolation": 2}]}, "crop_x": {"Points": [{"co": {"X": 1, "Y": 0}, "interpolation": 2}]}, "crop_y": {"Points": [{"co": {"X": 1, "Y": 0}, "interpolation": 2}]}, "display": 0, "duration": 12.033984184265137, "effects": [], "end": 12.033984184265137, "gravity": 4, "has_audio": {"Points": [{"co": {"X": 1, "Y": -1}, "interpolation": 2}]}, "has_video": {"Points": [{"co": {"X": 1, "Y": -1}, "interpolation": 2}]}, "id": "D55F5EIJLL", "layer": 1, "location_x": {"Points": [{"co": {"X": 1, "Y": 0}, "interpolation": 2}]}, "location_y": {"Points": [{"co": {"X": 1, "Y": 0}, "interpolation": 2}]}, "perspective_c1_x": {"Points": [{"co": {"X": 1, "Y": -1}, "interpolation": 2}]}, "perspective_c1_y": {"Points": [{"co": {"X": 1, "Y": -1}, "interpolation": 2}]}, "perspective_c2_x": {"Points": [{"co": {"X": 1, "Y": -1}, "interpolation": 2}]}, "perspective_c2_y": {"Points": [{"co": {"X": 1, "Y": -1}, "interpolation": 2}]}, "perspective_c3_x": {"Points": [{"co": {"X": 1, "Y": -1}, "interpolation": 2}]}, "perspective_c3_y": {"Points": [{"co": {"X": 1, "Y": -1}, "interpolation": 2}]}, "perspective_c4_x": {"Points": [{"co": {"X": 1, "Y": -1}, "interpolation": 2}]}, "perspective_c4_y": {"Points": [{"co": {"X": 1, "Y": -1}, "interpolation": 2}]}, "position": 302.56, "reader": {"acodec": "", "audio_bit_rate": 0, "audio_stream_index": -1, "audio_timebase": {"den": 1, "num": 1}, "channel_layout": 4, "channels": 0, "display_ratio": {"den": 84, "num": 149}, "duration": 12.033984184265137, "file_size": "1559140", "fps": {"den": 1, "num": 30}, "has_audio": false, "has_single_image": false, "has_video": true, "height": 336, "interlaced_frame": false, "path": "/home/diary/Desktop/\u041a\u043e\u043d\u0446\u0435\u043f\u0442\u044b/64. \u041f\u0440\u0438\u0447\u0438\u043d\u044b \u0431\u043e\u043b\u0435\u0437\u043d\u0435\u0439/video assets/18846515-preview.mp4", "pixel_format": 0, "pixel_ratio": {"den": 1, "num": 1}, "sample_rate": 0, "top_field_first": true, "type": "FFmpegReader", "vcodec": "h264", "video_bit_rate": 1036489, "video_length": "361", "video_stream_index": 0, "video_timebase": {"den": 15360, "num": 1}, "width": 596}, "rotation": {"Points": [{"co": {"X": 1, "Y": 0}, "interpolation": 2}]}, "scale": 1, "scale_x": {"Points": [{"co": {"X": 1, "Y": 1}, "interpolation": 2}]}, "scale_y": {"Points": [{"co": {"X": 1, "Y": 1}, "interpolation": 2}]}, "shear_x": {"Points": [{"co": {"X": 1, "Y": 0}, "interpolation": 2}]}, "shear_y": {"Points": [{"co": {"X": 1, "Y": 0}, "interpolation": 2}]}, "start": 0, "time": {"Points": [{"co": {"X": 1, "Y": 1}, "interpolation": 2}]}, "volume": {"Points": [{"co": {"X": 1, "Y": 1}, "interpolation": 2}]}, "wave_color": {"alpha": {"Points": [{"co": {"X": 1, "Y": 255}, "handle_left": {"X": 0.5, "Y": 1}, "handle_right": {"X": 0.5, "Y": 0}, "handle_type": 0, "interpolation": 0}]}, "blue": {"Points": [{"co": {"X": 1, "Y": 255}, "handle_left": {"X": 0.5, "Y": 1}, "handle_right": {"X": 0.5, "Y": 0}, "handle_type": 0, "interpolation": 0}]}, "green": {"Points": [{"co": {"X": 1, "Y": 123}, "handle_left": {"X": 0.5, "Y": 1}, "handle_right": {"X": 0.5, "Y": 0}, "handle_type": 0, "interpolation": 0}]}, "red": {"Points": [{"co": {"X": 1, "Y": 0}, "handle_left": {"X": 0.5, "Y": 1}, "handle_right": {"X": 0.5, "Y": 0}, "handle_type": 0, "interpolation": 0}]}}, "waveform": false, "file_id": "TRSUKVWH99", "title": "18846515-preview.mp4", "image": "/home/diary/.openshot_qt/thumbnail/TRSUKVWH99.png"}, {"alpha": {"Points": [{"co": {"X": 1, "Y": 1}, "interpolation": 2}]}, "anchor": 0, "channel_filter": {"Points": [{"co": {"X": 1, "Y": -1}, "interpolation": 2}]}, "channel_mapping": {"Points": [{"co": {"X": 1, "Y": -1}, "interpolation": 2}]}, "crop_height": {"Points": [{"co": {"X": 1, "Y": -1}, "interpolation": 2}]}, "crop_width": {"Points": [{"co": {"X": 1, "Y": -1}, "interpolation": 2}]}, "crop_x": {"Points": [{"co": {"X": 1, "Y": 0}, "interpolation": 2}]}, "crop_y": {"Points": [{"co": {"X": 1, "Y": 0}, "interpolation": 2}]}, "display": 0, "duration": 30.030000686645508, "effects": [], "end": 30.030000686645508, "gravity": 4, "has_audio": {"Points": [{"co": {"X": 1, "Y": -1}, "interpolation": 2}]}, "has_video": {"Points": [{"co": {"X": 1, "Y": -1}, "interpolation": 2}]}, "id": "2YH5LK89RE", "layer": 1, "location_x": {"Points": [{"co": {"X": 1, "Y": 0}, "interpolation": 2}]}, "location_y": {"Points": [{"co": {"X": 1, "Y": 0}, "interpolation": 2}]}, "perspective_c1_x": {"Points": [{"co": {"X": 1, "Y": -1}, "interpolation": 2}]}, "perspective_c1_y": {"Points": [{"co": {"X": 1, "Y": -1}, "interpolation": 2}]}, "perspective_c2_x": {"Points": [{"co": {"X": 1, "Y": -1}, "interpolation": 2}]}, "perspective_c2_y": {"Points": [{"co": {"X": 1, "Y": -1}, "interpolation": 2}]}, "perspective_c3_x": {"Points": [{"co": {"X": 1, "Y": -1}, "interpolation": 2}]}, "perspective_c3_y": {"Points": [{"co": {"X": 1, "Y": -1}, "interpolation": 2}]}, "perspective_c4_x": {"Points": [{"co": {"X": 1, "Y": -1}, "interpolation": 2}]}, "perspective_c4_y": {"Points": [{"co": {"X": 1, "Y": -1}, "interpolation": 2}]}, "position": 320.64, "reader": {"acodec": "", "audio_bit_rate": 0, "audio_stream_index": -1, "audio_timebase": {"den": 1, "num": 1}, "channel_layout": 4, "channels": 0, "display_ratio": {"den": 84, "num": 149}, "duration": 30.030000686645508, "file_size": "3660080", "fps": {"den": 1001, "num": 60000}, "has_audio": false, "has_single_image": false, "has_video": true, "height": 336, "interlaced_frame": false, "path": "/home/diary/Desktop/\u041a\u043e\u043d\u0446\u0435\u043f\u0442\u044b/64. \u041f\u0440\u0438\u0447\u0438\u043d\u044b \u0431\u043e\u043b\u0435\u0437\u043d\u0435\u0439/video assets/25507277-preview.mp4", "pixel_format": 0, "pixel_ratio": {"den": 1, "num": 1}, "sample_rate": 0, "top_field_first": true, "type": "FFmpegReader", "vcodec": "h264", "video_bit_rate": 975046, "video_length": "1800", "video_stream_index": 0, "video_timebase": {"den": 60000, "num": 1}, "width": 596}, "rotation": {"Points": [{"co": {"X": 1, "Y": 0}, "interpolation": 2}]}, "scale": 1, "scale_x": {"Points": [{"co": {"X": 1, "Y": 1}, "interpolation": 2}]}, "scale_y": {"Points": [{"co": {"X": 1, "Y": 1}, "interpolation": 2}]}, "shear_x": {"Points": [{"co": {"X": 1, "Y": 0}, "interpolation": 2}]}, "shear_y": {"Points": [{"co": {"X": 1, "Y": 0}, "interpolation": 2}]}, "start": 0, "time": {"Points": [{"co": {"X": 1, "Y": 1}, "interpolation": 2}]}, "volume": {"Points": [{"co": {"X": 1, "Y": 1}, "interpolation": 2}]}, "wave_color": {"alpha": {"Points": [{"co": {"X": 1, "Y": 255}, "handle_left": {"X": 0.5, "Y": 1}, "handle_right": {"X": 0.5, "Y": 0}, "handle_type": 0, "interpolation": 0}]}, "blue": {"Points": [{"co": {"X": 1, "Y": 255}, "handle_left": {"X": 0.5, "Y": 1}, "handle_right": {"X": 0.5, "Y": 0}, "handle_type": 0, "interpolation": 0}]}, "green": {"Points": [{"co": {"X": 1, "Y": 123}, "handle_left": {"X": 0.5, "Y": 1}, "handle_right": {"X": 0.5, "Y": 0}, "handle_type": 0, "interpolation": 0}]}, "red": {"Points": [{"co": {"X": 1, "Y": 0}, "handle_left": {"X": 0.5, "Y": 1}, "handle_right": {"X": 0.5, "Y": 0}, "handle_type": 0, "interpolation": 0}]}}, "waveform": false, "file_id": "74FLNFK7DU", "title": "25507277-preview.mp4", "image": "/home/diary/.openshot_qt/thumbnail/74FLNFK7DU.png"}, {"alpha": {"Points": [{"co": {"X": 1, "Y": 1}, "interpolation": 2}]}, "anchor": 0, "channel_filter": {"Points": [{"co": {"X": 1, "Y": -1}, "interpolation": 2}]}, "channel_mapping": {"Points": [{"co": {"X": 1, "Y": -1}, "interpolation": 2}]}, "crop_height": {"Points": [{"co": {"X": 1, "Y": -1}, "interpolation": 2}]}, "crop_width": {"Points": [{"co": {"X": 1, "Y": -1}, "interpolation": 2}]}, "crop_x": {"Points": [{"co": {"X": 1, "Y": 0}, "interpolation": 2}]}, "crop_y": {"Points": [{"co": {"X": 1, "Y": 0}, "interpolation": 2}]}, "display": 0, "duration": 19.299999237060547, "effects": [], "end": 19.299999237060547, "gravity": 4, "has_audio": {"Points": [{"co": {"X": 1, "Y": -1}, "interpolation": 2}]}, "has_video": {"Points": [{"co": {"X": 1, "Y": -1}, "interpolation": 2}]}, "id": "L00FVPXSI2", "layer": 1, "location_x": {"Points": [{"co": {"X": 1, "Y": 0}, "interpolation": 2}]}, "location_y": {"Points": [{"co": {"X": 1, "Y": 0}, "interpolation": 2}]}, "perspective_c1_x": {"Points": [{"co": {"X": 1, "Y": -1}, "interpolation": 2}]}, "perspective_c1_y": {"Points": [{"co": {"X": 1, "Y": -1}, "interpolation": 2}]}, "perspective_c2_x": {"Points": [{"co": {"X": 1, "Y": -1}, "interpolation": 2}]}, "perspective_c2_y": {"Points": [{"co": {"X": 1, "Y": -1}, "interpolation": 2}]}, "perspective_c3_x": {"Points": [{"co": {"X": 1, "Y": -1}, "interpolation": 2}]}, "perspective_c3_y": {"Points": [{"co": {"X": 1, "Y": -1}, "interpolation": 2}]}, "perspective_c4_x": {"Points": [{"co": {"X": 1, "Y": -1}, "interpolation": 2}]}, "perspective_c4_y": {"Points": [{"co": {"X": 1, "Y": -1}, "interpolation": 2}]}, "position": 355.07999908447266, "reader": {"acodec": "", "audio_bit_rate": 0, "audio_stream_index": -1, "audio_timebase": {"den": 1, "num": 1}, "channel_layout": 4, "channels": 0, "display_ratio": {"den": 84, "num": 149}, "duration": 19.299999237060547, "file_size": "2254903", "fps": {"den": 1, "num": 30}, "has_audio": false, "has_single_image": false, "has_video": true, "height": 336, "interlaced_frame": false, "path": "/home/diary/Desktop/\u041a\u043e\u043d\u0446\u0435\u043f\u0442\u044b/64. \u041f\u0440\u0438\u0447\u0438\u043d\u044b \u0431\u043e\u043b\u0435\u0437\u043d\u0435\u0439/video assets/26828902-preview.mp4", "pixel_format": 0, "pixel_ratio": {"den": 1, "num": 1}, "sample_rate": 0, "top_field_first": true, "type": "FFmpegReader", "vcodec": "h264", "video_bit_rate": 934674, "video_length": "579", "video_stream_index": 0, "video_timebase": {"den": 15360, "num": 1}, "width": 596}, "rotation": {"Points": [{"co": {"X": 1, "Y": 0}, "interpolation": 2}]}, "scale": 1, "scale_x": {"Points": [{"co": {"X": 1, "Y": 1}, "interpolation": 2}]}, "scale_y": {"Points": [{"co": {"X": 1, "Y": 1}, "interpolation": 2}]}, "shear_x": {"Points": [{"co": {"X": 1, "Y": 0}, "interpolation": 2}]}, "shear_y": {"Points": [{"co": {"X": 1, "Y": 0}, "interpolation": 2}]}, "start": 0, "time": {"Points": [{"co": {"X": 1, "Y": 1}, "interpolation": 2}]}, "volume": {"Points": [{"co": {"X": 1, "Y": 1}, "interpolation": 2}]}, "wave_color": {"alpha": {"Points": [{"co": {"X": 1, "Y": 255}, "handle_left": {"X": 0.5, "Y": 1}, "handle_right": {"X": 0.5, "Y": 0}, "handle_type": 0, "interpolation": 0}]}, "blue": {"Points": [{"co": {"X": 1, "Y": 255}, "handle_left": {"X": 0.5, "Y": 1}, "handle_right": {"X": 0.5, "Y": 0}, "handle_type": 0, "interpolation": 0}]}, "green": {"Points": [{"co": {"X": 1, "Y": 123}, "handle_left": {"X": 0.5, "Y": 1}, "handle_right": {"X": 0.5, "Y": 0}, "handle_type": 0, "interpolation": 0}]}, "red": {"Points": [{"co": {"X": 1, "Y": 0}, "handle_left": {"X": 0.5, "Y": 1}, "handle_right": {"X": 0.5, "Y": 0}, "handle_type": 0, "interpolation": 0}]}}, "waveform": false, "file_id": "IFYA03SB19", "title": "26828902-preview.mp4", "image": "/home/diary/.openshot_qt/thumbnail/IFYA03SB19.png"}, {"alpha": {"Points": [{"co": {"X": 1, "Y": 1}, "interpolation": 2}]}, "anchor": 0, "channel_filter": {"Points": [{"co": {"X": 1, "Y": -1}, "interpolation": 2}]}, "channel_mapping": {"Points": [{"co": {"X": 1, "Y": -1}, "interpolation": 2}]}, "crop_height": {"Points": [{"co": {"X": 1, "Y": -1}, "interpolation": 2}]}, "crop_width": {"Points": [{"co": {"X": 1, "Y": -1}, "interpolation": 2}]}, "crop_x": {"Points": [{"co": {"X": 1, "Y": 0}, "interpolation": 2}]}, "crop_y": {"Points": [{"co": {"X": 1, "Y": 0}, "interpolation": 2}]}, "display": 0, "duration": 8.451982498168945, "effects": [], "end": 8.451982498168945, "gravity": 4, "has_audio": {"Points": [{"co": {"X": 1, "Y": -1}, "interpolation": 2}]}, "has_video": {"Points": [{"co": {"X": 1, "Y": -1}, "interpolation": 2}]}, "id": "HJJ4LDWCN9", "layer": 1, "location_x": {"Points": [{"co": {"X": 1, "Y": 0}, "interpolation": 2}]}, "location_y": {"Points": [{"co": {"X": 1, "Y": 0}, "interpolation": 2}]}, "perspective_c1_x": {"Points": [{"co": {"X": 1, "Y": -1}, "interpolation": 2}]}, "perspective_c1_y": {"Points": [{"co": {"X": 1, "Y": -1}, "interpolation": 2}]}, "perspective_c2_x": {"Points": [{"co": {"X": 1, "Y": -1}, "interpolation": 2}]}, "perspective_c2_y": {"Points": [{"co": {"X": 1, "Y": -1}, "interpolation": 2}]}, "perspective_c3_x": {"Points": [{"co": {"X": 1, "Y": -1}, "interpolation": 2}]}, "perspective_c3_y": {"Points": [{"co": {"X": 1, "Y": -1}, "interpolation": 2}]}, "perspective_c4_x": {"Points": [{"co": {"X": 1, "Y": -1}, "interpolation": 2}]}, "perspective_c4_y": {"Points": [{"co": {"X": 1, "Y": -1}, "interpolation": 2}]}, "position": 377.76, "reader": {"acodec": "", "audio_bit_rate": 0, "audio_stream_index": -1, "audio_timebase": {"den": 1, "num": 1}, "channel_layout": 4, "channels": 0, "display_ratio": {"den": 84, "num": 149}, "duration": 8.451982498168945, "file_size": "1148399", "fps": {"den": 12, "num": 301}, "has_audio": false, "has_single_image": false, "has_video": true, "height": 336, "interlaced_frame": false, "path": "/home/diary/Desktop/\u041a\u043e\u043d\u0446\u0435\u043f\u0442\u044b/64. \u041f\u0440\u0438\u0447\u0438\u043d\u044b \u0431\u043e\u043b\u0435\u0437\u043d\u0435\u0439/video assets/1008850895-preview.mp4", "pixel_format": 0, "pixel_ratio": {"den": 1, "num": 1}, "sample_rate": 0, "top_field_first": true, "type": "FFmpegReader", "vcodec": "h264", "video_bit_rate": 1086984, "video_length": "212", "video_stream_index": 0, "video_timebase": {"den": 19264, "num": 1}, "width": 596}, "rotation": {"Points": [{"co": {"X": 1, "Y": 0}, "interpolation": 2}]}, "scale": 1, "scale_x": {"Points": [{"co": {"X": 1, "Y": 1}, "interpolation": 2}]}, "scale_y": {"Points": [{"co": {"X": 1, "Y": 1}, "interpolation": 2}]}, "shear_x": {"Points": [{"co": {"X": 1, "Y": 0}, "interpolation": 2}]}, "shear_y": {"Points": [{"co": {"X": 1, "Y": 0}, "interpolation": 2}]}, "start": 0, "time": {"Points": [{"co": {"X": 1, "Y": 1}, "interpolation": 2}]}, "volume": {"Points": [{"co": {"X": 1, "Y": 1}, "interpolation": 2}]}, "wave_color": {"alpha": {"Points": [{"co": {"X": 1, "Y": 255}, "handle_left": {"X": 0.5, "Y": 1}, "handle_right": {"X": 0.5, "Y": 0}, "handle_type": 0, "interpolation": 0}]}, "blue": {"Points": [{"co": {"X": 1, "Y": 255}, "handle_left": {"X": 0.5, "Y": 1}, "handle_right": {"X": 0.5, "Y": 0}, "handle_type": 0, "interpolation": 0}]}, "green": {"Points": [{"co": {"X": 1, "Y": 123}, "handle_left": {"X": 0.5, "Y": 1}, "handle_right": {"X": 0.5, "Y": 0}, "handle_type": 0, "interpolation": 0}]}, "red": {"Points": [{"co": {"X": 1, "Y": 0}, "handle_left": {"X": 0.5, "Y": 1}, "handle_right": {"X": 0.5, "Y": 0}, "handle_type": 0, "interpolation": 0}]}}, "waveform": false, "file_id": "2D1LKDBFPE", "title": "1008850895-preview.mp4", "image": "/home/diary/.openshot_qt/thumbnail/2D1LKDBFPE.png"}, {"alpha": {"Points": [{"co": {"X": 1, "Y": 1}, "interpolation": 2}]}, "anchor": 0, "channel_filter": {"Points": [{"co": {"X": 1, "Y": -1}, "interpolation": 2}]}, "channel_mapping": {"Points": [{"co": {"X": 1, "Y": -1}, "interpolation": 2}]}, "crop_height": {"Points": [{"co": {"X": 1, "Y": -1}, "interpolation": 2}]}, "crop_width": {"Points": [{"co": {"X": 1, "Y": -1}, "interpolation": 2}]}, "crop_x": {"Points": [{"co": {"X": 1, "Y": 0}, "interpolation": 2}]}, "crop_y": {"Points": [{"co": {"X": 1, "Y": 0}, "interpolation": 2}]}, "display": 0, "duration": 17.207000732421875, "effects": [], "end": 17.207000732421875, "gravity": 4, "has_audio": {"Points": [{"co": {"X": 1, "Y": -1}, "interpolation": 2}]}, "has_video": {"Points": [{"co": {"X": 1, "Y": -1}, "interpolation": 2}]}, "id": "UGQQ7546SS", "layer": 1, "location_x": {"Points": [{"co": {"X": 1, "Y": 0}, "interpolation": 2}]}, "location_y": {"Points": [{"co": {"X": 1, "Y": 0}, "interpolation": 2}]}, "perspective_c1_x": {"Points": [{"co": {"X": 1, "Y": -1}, "interpolation": 2}]}, "perspective_c1_y": {"Points": [{"co": {"X": 1, "Y": -1}, "interpolation": 2}]}, "perspective_c2_x": {"Points": [{"co": {"X": 1, "Y": -1}, "interpolation": 2}]}, "perspective_c2_y": {"Points": [{"co": {"X": 1, "Y": -1}, "interpolation": 2}]}, "perspective_c3_x": {"Points": [{"co": {"X": 1, "Y": -1}, "interpolation": 2}]}, "perspective_c3_y": {"Points": [{"co": {"X": 1, "Y": -1}, "interpolation": 2}]}, "perspective_c4_x": {"Points": [{"co": {"X": 1, "Y": -1}, "interpolation": 2}]}, "perspective_c4_y": {"Points": [{"co": {"X": 1, "Y": -1}, "interpolation": 2}]}, "position": 389.36, "reader": {"acodec": "", "audio_bit_rate": 0, "audio_stream_index": -1, "audio_timebase": {"den": 1, "num": 1}, "channel_layout": 4, "channels": 0, "display_ratio": {"den": 84, "num": 149}, "duration": 17.207000732421875, "file_size": "2079960", "fps": {"den": 109869, "num": 2752000}, "has_audio": false, "has_single_image": false, "has_video": true, "height": 336, "interlaced_frame": false, "path": "/home/diary/Desktop/\u041a\u043e\u043d\u0446\u0435\u043f\u0442\u044b/64. \u041f\u0440\u0438\u0447\u0438\u043d\u044b \u0431\u043e\u043b\u0435\u0437\u043d\u0435\u0439/video assets/1008850913-preview.mp4", "pixel_format": 0, "pixel_ratio": {"den": 1, "num": 1}, "sample_rate": 0, "top_field_first": true, "type": "FFmpegReader", "vcodec": "h264", "video_bit_rate": 967029, "video_length": "431", "video_stream_index": 0, "video_timebase": {"den": 2752000, "num": 1}, "width": 596}, "rotation": {"Points": [{"co": {"X": 1, "Y": 0}, "interpolation": 2}]}, "scale": 1, "scale_x": {"Points": [{"co": {"X": 1, "Y": 1}, "interpolation": 2}]}, "scale_y": {"Points": [{"co": {"X": 1, "Y": 1}, "interpolation": 2}]}, "shear_x": {"Points": [{"co": {"X": 1, "Y": 0}, "interpolation": 2}]}, "shear_y": {"Points": [{"co": {"X": 1, "Y": 0}, "interpolation": 2}]}, "start": 0, "time": {"Points": [{"co": {"X": 1, "Y": 1}, "interpolation": 2}]}, "volume": {"Points": [{"co": {"X": 1, "Y": 1}, "interpolation": 2}]}, "wave_color": {"alpha": {"Points": [{"co": {"X": 1, "Y": 255}, "handle_left": {"X": 0.5, "Y": 1}, "handle_right": {"X": 0.5, "Y": 0}, "handle_type": 0, "interpolation": 0}]}, "blue": {"Points": [{"co": {"X": 1, "Y": 255}, "handle_left": {"X": 0.5, "Y": 1}, "handle_right": {"X": 0.5, "Y": 0}, "handle_type": 0, "interpolation": 0}]}, "green": {"Points": [{"co": {"X": 1, "Y": 123}, "handle_left": {"X": 0.5, "Y": 1}, "handle_right": {"X": 0.5, "Y": 0}, "handle_type": 0, "interpolation": 0}]}, "red": {"Points": [{"co": {"X": 1, "Y": 0}, "handle_left": {"X": 0.5, "Y": 1}, "handle_right": {"X": 0.5, "Y": 0}, "handle_type": 0, "interpolation": 0}]}}, "waveform": false, "file_id": "5ANJQ3DRT6", "title": "1008850913-preview.mp4", "image": "/home/diary/.openshot_qt/thumbnail/5ANJQ3DRT6.png"}, {"alpha": {"Points": [{"co": {"X": 1, "Y": 1}, "interpolation": 2}]}, "anchor": 0, "channel_filter": {"Points": [{"co": {"X": 1, "Y": -1}, "interpolation": 2}]}, "channel_mapping": {"Points": [{"co": {"X": 1, "Y": -1}, "interpolation": 2}]}, "crop_height": {"Points": [{"co": {"X": 1, "Y": -1}, "interpolation": 2}]}, "crop_width": {"Points": [{"co": {"X": 1, "Y": -1}, "interpolation": 2}]}, "crop_x": {"Points": [{"co": {"X": 1, "Y": 0}, "interpolation": 2}]}, "crop_y": {"Points": [{"co": {"X": 1, "Y": 0}, "interpolation": 2}]}, "display": 0, "duration": 13.5, "effects": [], "end": 13.5, "gravity": 4, "has_audio": {"Points": [{"co": {"X": 1, "Y": -1}, "interpolation": 2}]}, "has_video": {"Points": [{"co": {"X": 1, "Y": -1}, "interpolation": 2}]}, "id": "YPKL9WEMLR", "layer": 1, "location_x": {"Points": [{"co": {"X": 1, "Y": 0}, "interpolation": 2}]}, "location_y": {"Points": [{"co": {"X": 1, "Y": 0}, "interpolation": 2}]}, "perspective_c1_x": {"Points": [{"co": {"X": 1, "Y": -1}, "interpolation": 2}]}, "perspective_c1_y": {"Points": [{"co": {"X": 1, "Y": -1}, "interpolation": 2}]}, "perspective_c2_x": {"Points": [{"co": {"X": 1, "Y": -1}, "interpolation": 2}]}, "perspective_c2_y": {"Points": [{"co": {"X": 1, "Y": -1}, "interpolation": 2}]}, "perspective_c3_x": {"Points": [{"co": {"X": 1, "Y": -1}, "interpolation": 2}]}, "perspective_c3_y": {"Points": [{"co": {"X": 1, "Y": -1}, "interpolation": 2}]}, "perspective_c4_x": {"Points": [{"co": {"X": 1, "Y": -1}, "interpolation": 2}]}, "perspective_c4_y": {"Points": [{"co": {"X": 1, "Y": -1}, "interpolation": 2}]}, "position": 410.875, "reader": {"acodec": "", "audio_bit_rate": 0, "audio_stream_index": -1, "audio_timebase": {"den": 1, "num": 1}, "channel_layout": 4, "channels": 0, "display_ratio": {"den": 84, "num": 149}, "duration": 13.5, "file_size": "1421739", "fps": {"den": 1, "num": 30}, "has_audio": false, "has_single_image": false, "has_video": true, "height": 336, "interlaced_frame": false, "path": "/home/diary/Desktop/\u041a\u043e\u043d\u0446\u0435\u043f\u0442\u044b/64. \u041f\u0440\u0438\u0447\u0438\u043d\u044b \u0431\u043e\u043b\u0435\u0437\u043d\u0435\u0439/video assets/1009464575-preview.mp4", "pixel_format": 0, "pixel_ratio": {"den": 1, "num": 1}, "sample_rate": 0, "top_field_first": true, "type": "FFmpegReader", "vcodec": "h264", "video_bit_rate": 842512, "video_length": "405", "video_stream_index": 0, "video_timebase": {"den": 15360, "num": 1}, "width": 596}, "rotation": {"Points": [{"co": {"X": 1, "Y": 0}, "interpolation": 2}]}, "scale": 1, "scale_x": {"Points": [{"co": {"X": 1, "Y": 1}, "interpolation": 2}]}, "scale_y": {"Points": [{"co": {"X": 1, "Y": 1}, "interpolation": 2}]}, "shear_x": {"Points": [{"co": {"X": 1, "Y": 0}, "interpolation": 2}]}, "shear_y": {"Points": [{"co": {"X": 1, "Y": 0}, "interpolation": 2}]}, "start": 0, "time": {"Points": [{"co": {"X": 1, "Y": 1}, "interpolation": 2}]}, "volume": {"Points": [{"co": {"X": 1, "Y": 1}, "interpolation": 2}]}, "wave_color": {"alpha": {"Points": [{"co": {"X": 1, "Y": 255}, "handle_left": {"X": 0.5, "Y": 1}, "handle_right": {"X": 0.5, "Y": 0}, "handle_type": 0, "interpolation": 0}]}, "blue": {"Points": [{"co": {"X": 1, "Y": 255}, "handle_left": {"X": 0.5, "Y": 1}, "handle_right": {"X": 0.5, "Y": 0}, "handle_type": 0, "interpolation": 0}]}, "green": {"Points": [{"co": {"X": 1, "Y": 123}, "handle_left": {"X": 0.5, "Y": 1}, "handle_right": {"X": 0.5, "Y": 0}, "handle_type": 0, "interpolation": 0}]}, "red": {"Points": [{"co": {"X": 1, "Y": 0}, "handle_left": {"X": 0.5, "Y": 1}, "handle_right": {"X": 0.5, "Y": 0}, "handle_type": 0, "interpolation": 0}]}}, "waveform": false, "file_id": "E1WTKOKJLM", "title": "1009464575-preview.mp4", "image": "/home/diary/.openshot_qt/thumbnail/E1WTKOKJLM.png"}, {"alpha": {"Points": [{"co": {"X": 1, "Y": 1}, "interpolation": 2}]}, "anchor": 0, "channel_filter": {"Points": [{"co": {"X": 1, "Y": -1}, "interpolation": 2}]}, "channel_mapping": {"Points": [{"co": {"X": 1, "Y": -1}, "interpolation": 2}]}, "crop_height": {"Points": [{"co": {"X": 1, "Y": -1}, "interpolation": 2}]}, "crop_width": {"Points": [{"co": {"X": 1, "Y": -1}, "interpolation": 2}]}, "crop_x": {"Points": [{"co": {"X": 1, "Y": 0}, "interpolation": 2}]}, "crop_y": {"Points": [{"co": {"X": 1, "Y": 0}, "interpolation": 2}]}, "display": 0, "duration": 10.277000427246094, "effects": [], "end": 10.277000427246094, "gravity": 4, "has_audio": {"Points": [{"co": {"X": 1, "Y": -1}, "interpolation": 2}]}, "has_video": {"Points": [{"co": {"X": 1, "Y": -1}, "interpolation": 2}]}, "id": "60SW0D3JON", "layer": 2, "location_x": {"Points": [{"co": {"X": 1, "Y": 0}, "interpolation": 2}]}, "location_y": {"Points": [{"co": {"X": 1, "Y": 0}, "interpolation": 2}]}, "perspective_c1_x": {"Points": [{"co": {"X": 1, "Y": -1}, "interpolation": 2}]}, "perspective_c1_y": {"Points": [{"co": {"X": 1, "Y": -1}, "interpolation": 2}]}, "perspective_c2_x": {"Points": [{"co": {"X": 1, "Y": -1}, "interpolation": 2}]}, "perspective_c2_y": {"Points": [{"co": {"X": 1, "Y": -1}, "interpolation": 2}]}, "perspective_c3_x": {"Points": [{"co": {"X": 1, "Y": -1}, "interpolation": 2}]}, "perspective_c3_y": {"Points": [{"co": {"X": 1, "Y": -1}, "interpolation": 2}]}, "perspective_c4_x": {"Points": [{"co": {"X": 1, "Y": -1}, "interpolation": 2}]}, "perspective_c4_y": {"Points": [{"co": {"X": 1, "Y": -1}, "interpolation": 2}]}, "position": 253.92, "reader": {"acodec": "", "audio_bit_rate": 0, "audio_stream_index": -1, "audio_timebase": {"den": 1, "num": 1}, "channel_layout": 4, "channels": 0, "display_ratio": {"den": 84, "num": 149}, "duration": 10.277000427246094, "file_size": "1265434", "fps": {"den": 1001, "num": 30000}, "has_audio": false, "has_single_image": false, "has_video": true, "height": 336, "interlaced_frame": false, "path": "/home/diary/Desktop/\u041a\u043e\u043d\u0446\u0435\u043f\u0442\u044b/64. \u041f\u0440\u0438\u0447\u0438\u043d\u044b \u0431\u043e\u043b\u0435\u0437\u043d\u0435\u0439/video assets/1009568600-preview.mp4", "pixel_format": 0, "pixel_ratio": {"den": 1, "num": 1}, "sample_rate": 0, "top_field_first": true, "type": "FFmpegReader", "vcodec": "h264", "video_bit_rate": 985061, "video_length": "308", "video_stream_index": 0, "video_timebase": {"den": 30000, "num": 1}, "width": 596}, "rotation": {"Points": [{"co": {"X": 1, "Y": 0}, "interpolation": 2}]}, "scale": 1, "scale_x": {"Points": [{"co": {"X": 1, "Y": 1}, "interpolation": 2}]}, "scale_y": {"Points": [{"co": {"X": 1, "Y": 1}, "interpolation": 2}]}, "shear_x": {"Points": [{"co": {"X": 1, "Y": 0}, "interpolation": 2}]}, "shear_y": {"Points": [{"co": {"X": 1, "Y": 0}, "interpolation": 2}]}, "start": 0, "time": {"Points": [{"co": {"X": 1, "Y": 1}, "interpolation": 2}]}, "volume": {"Points": [{"co": {"X": 1, "Y": 1}, "interpolation": 2}]}, "wave_color": {"alpha": {"Points": [{"co": {"X": 1, "Y": 255}, "handle_left": {"X": 0.5, "Y": 1}, "handle_right": {"X": 0.5, "Y": 0}, "handle_type": 0, "interpolation": 0}]}, "blue": {"Points": [{"co": {"X": 1, "Y": 255}, "handle_left": {"X": 0.5, "Y": 1}, "handle_right": {"X": 0.5, "Y": 0}, "handle_type": 0, "interpolation": 0}]}, "green": {"Points": [{"co": {"X": 1, "Y": 123}, "handle_left": {"X": 0.5, "Y": 1}, "handle_right": {"X": 0.5, "Y": 0}, "handle_type": 0, "interpolation": 0}]}, "red": {"Points": [{"co": {"X": 1, "Y": 0}, "handle_left": {"X": 0.5, "Y": 1}, "handle_right": {"X": 0.5, "Y": 0}, "handle_type": 0, "interpolation": 0}]}}, "waveform": false, "file_id": "A4DPRYTBR3", "title": "1009568600-preview.mp4", "image": "/home/diary/.openshot_qt/thumbnail/A4DPRYTBR3.png"}, {"alpha": {"Points": [{"co": {"X": 1, "Y": 1}, "interpolation": 2}]}, "anchor": 0, "channel_filter": {"Points": [{"co": {"X": 1, "Y": -1}, "interpolation": 2}]}, "channel_mapping": {"Points": [{"co": {"X": 1, "Y": -1}, "interpolation": 2}]}, "crop_height": {"Points": [{"co": {"X": 1, "Y": -1}, "interpolation": 2}]}, "crop_width": {"Points": [{"co": {"X": 1, "Y": -1}, "interpolation": 2}]}, "crop_x": {"Points": [{"co": {"X": 1, "Y": 0}, "interpolation": 2}]}, "crop_y": {"Points": [{"co": {"X": 1, "Y": 0}, "interpolation": 2}]}, "display": 0, "duration": 12.5, "effects": [], "end": 12.5, "gravity": 4, "has_audio": {"Points": [{"co": {"X": 1, "Y": -1}, "interpolation": 2}]}, "has_video": {"Points": [{"co": {"X": 1, "Y": -1}, "interpolation": 2}]}, "id": "S81HCG4K8B", "layer": 4, "location_x": {"Points": [{"co": {"X": 1, "Y": 0}, "interpolation": 2}]}, "location_y": {"Points": [{"co": {"X": 1, "Y": 0}, "interpolation": 2}]}, "perspective_c1_x": {"Points": [{"co": {"X": 1, "Y": -1}, "interpolation": 2}]}, "perspective_c1_y": {"Points": [{"co": {"X": 1, "Y": -1}, "interpolation": 2}]}, "perspective_c2_x": {"Points": [{"co": {"X": 1, "Y": -1}, "interpolation": 2}]}, "perspective_c2_y": {"Points": [{"co": {"X": 1, "Y": -1}, "interpolation": 2}]}, "perspective_c3_x": {"Points": [{"co": {"X": 1, "Y": -1}, "interpolation": 2}]}, "perspective_c3_y": {"Points": [{"co": {"X": 1, "Y": -1}, "interpolation": 2}]}, "perspective_c4_x": {"Points": [{"co": {"X": 1, "Y": -1}, "interpolation": 2}]}, "perspective_c4_y": {"Points": [{"co": {"X": 1, "Y": -1}, "interpolation": 2}]}, "position": 332.7275, "reader": {"acodec": "", "audio_bit_rate": 0, "audio_stream_index": -1, "audio_timebase": {"den": 1, "num": 1}, "channel_layout": 4, "channels": 0, "display_ratio": {"den": 84, "num": 149}, "duration": 12.5, "file_size": "1478230", "fps": {"den": 1, "num": 24}, "has_audio": false, "has_single_image": false, "has_video": true, "height": 336, "interlaced_frame": false, "path": "/home/diary/Desktop/\u041a\u043e\u043d\u0446\u0435\u043f\u0442\u044b/64. \u041f\u0440\u0438\u0447\u0438\u043d\u044b \u0431\u043e\u043b\u0435\u0437\u043d\u0435\u0439/video assets/1011337619-preview.mp4", "pixel_format": 0, "pixel_ratio": {"den": 1, "num": 1}, "sample_rate": 0, "top_field_first": true, "type": "FFmpegReader", "vcodec": "h264", "video_bit_rate": 946067, "video_length": "300", "video_stream_index": 0, "video_timebase": {"den": 12288, "num": 1}, "width": 596}, "rotation": {"Points": [{"co": {"X": 1, "Y": 0}, "interpolation": 2}]}, "scale": 1, "scale_x": {"Points": [{"co": {"X": 1, "Y": 1}, "interpolation": 2}]}, "scale_y": {"Points": [{"co": {"X": 1, "Y": 1}, "interpolation": 2}]}, "shear_x": {"Points": [{"co": {"X": 1, "Y": 0}, "interpolation": 2}]}, "shear_y": {"Points": [{"co": {"X": 1, "Y": 0}, "interpolation": 2}]}, "start": 0, "time": {"Points": [{"co": {"X": 1, "Y": 1}, "interpolation": 2}]}, "volume": {"Points": [{"co": {"X": 1, "Y": 1}, "interpolation": 2}]}, "wave_color": {"alpha": {"Points": [{"co": {"X": 1, "Y": 255}, "handle_left": {"X": 0.5, "Y": 1}, "handle_right": {"X": 0.5, "Y": 0}, "handle_type": 0, "interpolation": 0}]}, "blue": {"Points": [{"co": {"X": 1, "Y": 255}, "handle_left": {"X": 0.5, "Y": 1}, "handle_right": {"X": 0.5, "Y": 0}, "handle_type": 0, "interpolation": 0}]}, "green": {"Points": [{"co": {"X": 1, "Y": 123}, "handle_left": {"X": 0.5, "Y": 1}, "handle_right": {"X": 0.5, "Y": 0}, "handle_type": 0, "interpolation": 0}]}, "red": {"Points": [{"co": {"X": 1, "Y": 0}, "handle_left": {"X": 0.5, "Y": 1}, "handle_right": {"X": 0.5, "Y": 0}, "handle_type": 0, "interpolation": 0}]}}, "waveform": false, "file_id": "O6ZG7ZNYW8", "title": "1011337619-preview.mp4", "image": "/home/diary/.openshot_qt/thumbnail/O6ZG7ZNYW8.png"}, {"alpha": {"Points": [{"co": {"X": 1, "Y": 1}, "interpolation": 2}]}, "anchor": 0, "channel_filter": {"Points": [{"co": {"X": 1, "Y": -1}, "interpolation": 2}]}, "channel_mapping": {"Points": [{"co": {"X": 1, "Y": -1}, "interpolation": 2}]}, "crop_height": {"Points": [{"co": {"X": 1, "Y": -1}, "interpolation": 2}]}, "crop_width": {"Points": [{"co": {"X": 1, "Y": -1}, "interpolation": 2}]}, "crop_x": {"Points": [{"co": {"X": 1, "Y": 0}, "interpolation": 2}]}, "crop_y": {"Points": [{"co": {"X": 1, "Y": 0}, "interpolation": 2}]}, "display": 0, "duration": 25.292993545532227, "effects": [], "end": 25.292993545532227, "gravity": 4, "has_audio": {"Points": [{"co": {"X": 1, "Y": -1}, "interpolation": 2}]}, "has_video": {"Points": [{"co": {"X": 1, "Y": -1}, "interpolation": 2}]}, "id": "P45NU8QLL3", "layer": 4, "location_x": {"Points": [{"co": {"X": 1, "Y": 0}, "interpolation": 2}]}, "location_y": {"Points": [{"co": {"X": 1, "Y": 0}, "interpolation": 2}]}, "perspective_c1_x": {"Points": [{"co": {"X": 1, "Y": -1}, "interpolation": 2}]}, "perspective_c1_y": {"Points": [{"co": {"X": 1, "Y": -1}, "interpolation": 2}]}, "perspective_c2_x": {"Points": [{"co": {"X": 1, "Y": -1}, "interpolation": 2}]}, "perspective_c2_y": {"Points": [{"co": {"X": 1, "Y": -1}, "interpolation": 2}]}, "perspective_c3_x": {"Points": [{"co": {"X": 1, "Y": -1}, "interpolation": 2}]}, "perspective_c3_y": {"Points": [{"co": {"X": 1, "Y": -1}, "interpolation": 2}]}, "perspective_c4_x": {"Points": [{"co": {"X": 1, "Y": -1}, "interpolation": 2}]}, "perspective_c4_y": {"Points": [{"co": {"X": 1, "Y": -1}, "interpolation": 2}]}, "position": 350.6700006866455, "reader": {"acodec": "aac", "audio_bit_rate": 2783, "audio_stream_index": 1, "audio_timebase": {"den": 44100, "num": 1}, "channel_layout": 3, "channels": 2, "display_ratio": {"den": 84, "num": 149}, "duration": 25.292993545532227, "file_size": "2738626", "fps": {"den": 1001, "num": 30000}, "has_audio": true, "has_single_image": false, "has_video": true, "height": 336, "interlaced_frame": false, "path": "/home/diary/Desktop/\u041a\u043e\u043d\u0446\u0435\u043f\u0442\u044b/64. \u041f\u0440\u0438\u0447\u0438\u043d\u044b \u0431\u043e\u043b\u0435\u0437\u043d\u0435\u0439/video assets/1013201579-preview.mp4", "pixel_format": 0, "pixel_ratio": {"den": 1, "num": 1}, "sample_rate": 44100, "top_field_first": true, "type": "FFmpegReader", "vcodec": "h264", "video_bit_rate": 865626, "video_length": "758", "video_stream_index": 0, "video_timebase": {"den": 30000, "num": 1}, "width": 596}, "rotation": {"Points": [{"co": {"X": 1, "Y": 0}, "interpolation": 2}]}, "scale": 1, "scale_x": {"Points": [{"co": {"X": 1, "Y": 1}, "interpolation": 2}]}, "scale_y": {"Points": [{"co": {"X": 1, "Y": 1}, "interpolation": 2}]}, "shear_x": {"Points": [{"co": {"X": 1, "Y": 0}, "interpolation": 2}]}, "shear_y": {"Points": [{"co": {"X": 1, "Y": 0}, "interpolation": 2}]}, "start": 0, "time": {"Points": [{"co": {"X": 1, "Y": 1}, "interpolation": 2}]}, "volume": {"Points": [{"co": {"X": 1, "Y": 1}, "interpolation": 2}]}, "wave_color": {"alpha": {"Points": [{"co": {"X": 1, "Y": 255}, "handle_left": {"X": 0.5, "Y": 1}, "handle_right": {"X": 0.5, "Y": 0}, "handle_type": 0, "interpolation": 0}]}, "blue": {"Points": [{"co": {"X": 1, "Y": 255}, "handle_left": {"X": 0.5, "Y": 1}, "handle_right": {"X": 0.5, "Y": 0}, "handle_type": 0, "interpolation": 0}]}, "green": {"Points": [{"co": {"X": 1, "Y": 123}, "handle_left": {"X": 0.5, "Y": 1}, "handle_right": {"X": 0.5, "Y": 0}, "handle_type": 0, "interpolation": 0}]}, "red": {"Points": [{"co": {"X": 1, "Y": 0}, "handle_left": {"X": 0.5, "Y": 1}, "handle_right": {"X": 0.5, "Y": 0}, "handle_type": 0, "interpolation": 0}]}}, "waveform": false, "file_id": "897BSNVSR8", "title": "1013201579-preview.mp4", "image": "/home/diary/.openshot_qt/thumbnail/897BSNVSR8.png"}, {"alpha": {"Points": [{"co": {"X": 1, "Y": 1}, "interpolation": 2}]}, "anchor": 0, "channel_filter": {"Points": [{"co": {"X": 1, "Y": -1}, "interpolation": 2}]}, "channel_mapping": {"Points": [{"co": {"X": 1, "Y": -1}, "interpolation": 2}]}, "crop_height": {"Points": [{"co": {"X": 1, "Y": -1}, "interpolation": 2}]}, "crop_width": {"Points": [{"co": {"X": 1, "Y": -1}, "interpolation": 2}]}, "crop_x": {"Points": [{"co": {"X": 1, "Y": 0}, "interpolation": 2}]}, "crop_y": {"Points": [{"co": {"X": 1, "Y": 0}, "interpolation": 2}]}, "display": 0, "duration": 16.1409969329834, "effects": [], "end": 16.1409969329834, "gravity": 4, "has_audio": {"Points": [{"co": {"X": 1, "Y": -1}, "interpolation": 2}]}, "has_video": {"Points": [{"co": {"X": 1, "Y": -1}, "interpolation": 2}]}, "id": "EA5LYYZO5T", "layer": 4, "location_x": {"Points": [{"co": {"X": 1, "Y": 0}, "interpolation": 2}]}, "location_y": {"Points": [{"co": {"X": 1, "Y": 0}, "interpolation": 2}]}, "perspective_c1_x": {"Points": [{"co": {"X": 1, "Y": -1}, "interpolation": 2}]}, "perspective_c1_y": {"Points": [{"co": {"X": 1, "Y": -1}, "interpolation": 2}]}, "perspective_c2_x": {"Points": [{"co": {"X": 1, "Y": -1}, "interpolation": 2}]}, "perspective_c2_y": {"Points": [{"co": {"X": 1, "Y": -1}, "interpolation": 2}]}, "perspective_c3_x": {"Points": [{"co": {"X": 1, "Y": -1}, "interpolation": 2}]}, "perspective_c3_y": {"Points": [{"co": {"X": 1, "Y": -1}, "interpolation": 2}]}, "perspective_c4_x": {"Points": [{"co": {"X": 1, "Y": -1}, "interpolation": 2}]}, "perspective_c4_y": {"Points": [{"co": {"X": 1, "Y": -1}, "interpolation": 2}]}, "position": 384.0580004501343, "reader": {"acodec": "aac", "audio_bit_rate": 2781, "audio_stream_index": 1, "audio_timebase": {"den": 44100, "num": 1}, "channel_layout": 3, "channels": 2, "display_ratio": {"den": 84, "num": 149}, "duration": 16.1409969329834, "file_size": "1911528", "fps": {"den": 1001, "num": 30000}, "has_audio": true, "has_single_image": false, "has_video": true, "height": 336, "interlaced_frame": false, "path": "/home/diary/Desktop/\u041a\u043e\u043d\u0446\u0435\u043f\u0442\u044b/64. \u041f\u0440\u0438\u0447\u0438\u043d\u044b \u0431\u043e\u043b\u0435\u0437\u043d\u0435\u0439/video assets/1015105216-preview.mp4", "pixel_format": 0, "pixel_ratio": {"den": 1, "num": 1}, "sample_rate": 44100, "top_field_first": true, "type": "FFmpegReader", "vcodec": "h264", "video_bit_rate": 944956, "video_length": "485", "video_stream_index": 0, "video_timebase": {"den": 30000, "num": 1}, "width": 596}, "rotation": {"Points": [{"co": {"X": 1, "Y": 0}, "interpolation": 2}]}, "scale": 1, "scale_x": {"Points": [{"co": {"X": 1, "Y": 1}, "interpolation": 2}]}, "scale_y": {"Points": [{"co": {"X": 1, "Y": 1}, "interpolation": 2}]}, "shear_x": {"Points": [{"co": {"X": 1, "Y": 0}, "interpolation": 2}]}, "shear_y": {"Points": [{"co": {"X": 1, "Y": 0}, "interpolation": 2}]}, "start": 0, "time": {"Points": [{"co": {"X": 1, "Y": 1}, "interpolation": 2}]}, "volume": {"Points": [{"co": {"X": 1, "Y": 1}, "interpolation": 2}]}, "wave_color": {"alpha": {"Points": [{"co": {"X": 1, "Y": 255}, "handle_left": {"X": 0.5, "Y": 1}, "handle_right": {"X": 0.5, "Y": 0}, "handle_type": 0, "interpolation": 0}]}, "blue": {"Points": [{"co": {"X": 1, "Y": 255}, "handle_left": {"X": 0.5, "Y": 1}, "handle_right": {"X": 0.5, "Y": 0}, "handle_type": 0, "interpolation": 0}]}, "green": {"Points": [{"co": {"X": 1, "Y": 123}, "handle_left": {"X": 0.5, "Y": 1}, "handle_right": {"X": 0.5, "Y": 0}, "handle_type": 0, "interpolation": 0}]}, "red": {"Points": [{"co": {"X": 1, "Y": 0}, "handle_left": {"X": 0.5, "Y": 1}, "handle_right": {"X": 0.5, "Y": 0}, "handle_type": 0, "interpolation": 0}]}}, "waveform": false, "file_id": "BSQO44CAX3", "title": "1015105216-preview.mp4", "image": "/home/diary/.openshot_qt/thumbnail/BSQO44CAX3.png"}, {"alpha": {"Points": [{"co": {"X": 1, "Y": 1}, "interpolation": 2}]}, "anchor": 0, "channel_filter": {"Points": [{"co": {"X": 1, "Y": -1}, "interpolation": 2}]}, "channel_mapping": {"Points": [{"co": {"X": 1, "Y": -1}, "interpolation": 2}]}, "crop_height": {"Points": [{"co": {"X": 1, "Y": -1}, "interpolation": 2}]}, "crop_width": {"Points": [{"co": {"X": 1, "Y": -1}, "interpolation": 2}]}, "crop_x": {"Points": [{"co": {"X": 1, "Y": 0}, "interpolation": 2}]}, "crop_y": {"Points": [{"co": {"X": 1, "Y": 0}, "interpolation": 2}]}, "display": 0, "duration": 10.143991470336914, "effects": [], "end": 10.143991470336914, "gravity": 4, "has_audio": {"Points": [{"co": {"X": 1, "Y": -1}, "interpolation": 2}]}, "has_video": {"Points": [{"co": {"X": 1, "Y": -1}, "interpolation": 2}]}, "id": "SGYHHR4NBG", "layer": 4, "location_x": {"Points": [{"co": {"X": 1, "Y": 0}, "interpolation": 2}]}, "location_y": {"Points": [{"co": {"X": 1, "Y": 0}, "interpolation": 2}]}, "perspective_c1_x": {"Points": [{"co": {"X": 1, "Y": -1}, "interpolation": 2}]}, "perspective_c1_y": {"Points": [{"co": {"X": 1, "Y": -1}, "interpolation": 2}]}, "perspective_c2_x": {"Points": [{"co": {"X": 1, "Y": -1}, "interpolation": 2}]}, "perspective_c2_y": {"Points": [{"co": {"X": 1, "Y": -1}, "interpolation": 2}]}, "perspective_c3_x": {"Points": [{"co": {"X": 1, "Y": -1}, "interpolation": 2}]}, "perspective_c3_y": {"Points": [{"co": {"X": 1, "Y": -1}, "interpolation": 2}]}, "perspective_c4_x": {"Points": [{"co": {"X": 1, "Y": -1}, "interpolation": 2}]}, "perspective_c4_y": {"Points": [{"co": {"X": 1, "Y": -1}, "interpolation": 2}]}, "position": 406.5670007324219, "reader": {"acodec": "", "audio_bit_rate": 0, "audio_stream_index": -1, "audio_timebase": {"den": 1, "num": 1}, "channel_layout": 4, "channels": 0, "display_ratio": {"den": 84, "num": 149}, "duration": 10.143991470336914, "file_size": "1221831", "fps": {"den": 6, "num": 181}, "has_audio": false, "has_single_image": false, "has_video": true, "height": 336, "interlaced_frame": false, "path": "/home/diary/Desktop/\u041a\u043e\u043d\u0446\u0435\u043f\u0442\u044b/64. \u041f\u0440\u0438\u0447\u0438\u043d\u044b \u0431\u043e\u043b\u0435\u0437\u043d\u0435\u0439/video assets/1019281846-preview.mp4", "pixel_format": 0, "pixel_ratio": {"den": 1, "num": 1}, "sample_rate": 0, "top_field_first": true, "type": "FFmpegReader", "vcodec": "h264", "video_bit_rate": 963589, "video_length": "306", "video_stream_index": 0, "video_timebase": {"den": 11584, "num": 1}, "width": 596}, "rotation": {"Points": [{"co": {"X": 1, "Y": 0}, "interpolation": 2}]}, "scale": 1, "scale_x": {"Points": [{"co": {"X": 1, "Y": 1}, "interpolation": 2}]}, "scale_y": {"Points": [{"co": {"X": 1, "Y": 1}, "interpolation": 2}]}, "shear_x": {"Points": [{"co": {"X": 1, "Y": 0}, "interpolation": 2}]}, "shear_y": {"Points": [{"co": {"X": 1, "Y": 0}, "interpolation": 2}]}, "start": 0, "time": {"Points": [{"co": {"X": 1, "Y": 1}, "interpolation": 2}]}, "volume": {"Points": [{"co": {"X": 1, "Y": 1}, "interpolation": 2}]}, "wave_color": {"alpha": {"Points": [{"co": {"X": 1, "Y": 255}, "handle_left": {"X": 0.5, "Y": 1}, "handle_right": {"X": 0.5, "Y": 0}, "handle_type": 0, "interpolation": 0}]}, "blue": {"Points": [{"co": {"X": 1, "Y": 255}, "handle_left": {"X": 0.5, "Y": 1}, "handle_right": {"X": 0.5, "Y": 0}, "handle_type": 0, "interpolation": 0}]}, "green": {"Points": [{"co": {"X": 1, "Y": 123}, "handle_left": {"X": 0.5, "Y": 1}, "handle_right": {"X": 0.5, "Y": 0}, "handle_type": 0, "interpolation": 0}]}, "red": {"Points": [{"co": {"X": 1, "Y": 0}, "handle_left": {"X": 0.5, "Y": 1}, "handle_right": {"X": 0.5, "Y": 0}, "handle_type": 0, "interpolation": 0}]}}, "waveform": false, "file_id": "37RK3BVHCD", "title": "1019281846-preview.mp4", "image": "/home/diary/.openshot_qt/thumbnail/37RK3BVHCD.png"}, {"alpha": {"Points": [{"co": {"X": 1, "Y": 1}, "interpolation": 2}]}, "anchor": 0, "channel_filter": {"Points": [{"co": {"X": 1, "Y": -1}, "interpolation": 2}]}, "channel_mapping": {"Points": [{"co": {"X": 1, "Y": -1}, "interpolation": 2}]}, "crop_height": {"Points": [{"co": {"X": 1, "Y": -1}, "interpolation": 2}]}, "crop_width": {"Points": [{"co": {"X": 1, "Y": -1}, "interpolation": 2}]}, "crop_x": {"Points": [{"co": {"X": 1, "Y": 0}, "interpolation": 2}]}, "crop_y": {"Points": [{"co": {"X": 1, "Y": 0}, "interpolation": 2}]}, "display": 0, "duration": 6.400000095367432, "effects": [], "end": 6.400000095367432, "gravity": 4, "has_audio": {"Points": [{"co": {"X": 1, "Y": -1}, "interpolation": 2}]}, "has_video": {"Points": [{"co": {"X": 1, "Y": -1}, "interpolation": 2}]}, "id": "C11WZIDB01", "layer": 2, "location_x": {"Points": [{"co": {"X": 1, "Y": 0}, "interpolation": 2}]}, "location_y": {"Points": [{"co": {"X": 1, "Y": 0}, "interpolation": 2}]}, "perspective_c1_x": {"Points": [{"co": {"X": 1, "Y": -1}, "interpolation": 2}]}, "perspective_c1_y": {"Points": [{"co": {"X": 1, "Y": -1}, "interpolation": 2}]}, "perspective_c2_x": {"Points": [{"co": {"X": 1, "Y": -1}, "interpolation": 2}]}, "perspective_c2_y": {"Points": [{"co": {"X": 1, "Y": -1}, "interpolation": 2}]}, "perspective_c3_x": {"Points": [{"co": {"X": 1, "Y": -1}, "interpolation": 2}]}, "perspective_c3_y": {"Points": [{"co": {"X": 1, "Y": -1}, "interpolation": 2}]}, "perspective_c4_x": {"Points": [{"co": {"X": 1, "Y": -1}, "interpolation": 2}]}, "perspective_c4_y": {"Points": [{"co": {"X": 1, "Y": -1}, "interpolation": 2}]}, "position": 286.56000007629393, "reader": {"acodec": "", "audio_bit_rate": 0, "audio_stream_index": -1, "audio_timebase": {"den": 1, "num": 1}, "channel_layout": 4, "channels": 0, "display_ratio": {"den": 84, "num": 149}, "duration": 6.400000095367432, "file_size": "752329", "fps": {"den": 1, "num": 30}, "has_audio": false, "has_single_image": false, "has_video": true, "height": 336, "interlaced_frame": false, "path": "/home/diary/Desktop/\u041a\u043e\u043d\u0446\u0435\u043f\u0442\u044b/64. \u041f\u0440\u0438\u0447\u0438\u043d\u044b \u0431\u043e\u043b\u0435\u0437\u043d\u0435\u0439/video assets/1016312956-preview.mp4", "pixel_format": 0, "pixel_ratio": {"den": 1, "num": 1}, "sample_rate": 0, "top_field_first": true, "type": "FFmpegReader", "vcodec": "h264", "video_bit_rate": 940411, "video_length": "192", "video_stream_index": 0, "video_timebase": {"den": 15360, "num": 1}, "width": 596}, "rotation": {"Points": [{"co": {"X": 1, "Y": 0}, "interpolation": 2}]}, "scale": 1, "scale_x": {"Points": [{"co": {"X": 1, "Y": 1}, "interpolation": 2}]}, "scale_y": {"Points": [{"co": {"X": 1, "Y": 1}, "interpolation": 2}]}, "shear_x": {"Points": [{"co": {"X": 1, "Y": 0}, "interpolation": 2}]}, "shear_y": {"Points": [{"co": {"X": 1, "Y": 0}, "interpolation": 2}]}, "start": 0, "time": {"Points": [{"co": {"X": 1, "Y": 1}, "interpolation": 2}]}, "volume": {"Points": [{"co": {"X": 1, "Y": 1}, "interpolation": 2}]}, "wave_color": {"alpha": {"Points": [{"co": {"X": 1, "Y": 255}, "handle_left": {"X": 0.5, "Y": 1}, "handle_right": {"X": 0.5, "Y": 0}, "handle_type": 0, "interpolation": 0}]}, "blue": {"Points": [{"co": {"X": 1, "Y": 255}, "handle_left": {"X": 0.5, "Y": 1}, "handle_right": {"X": 0.5, "Y": 0}, "handle_type": 0, "interpolation": 0}]}, "green": {"Points": [{"co": {"X": 1, "Y": 123}, "handle_left": {"X": 0.5, "Y": 1}, "handle_right": {"X": 0.5, "Y": 0}, "handle_type": 0, "interpolation": 0}]}, "red": {"Points": [{"co": {"X": 1, "Y": 0}, "handle_left": {"X": 0.5, "Y": 1}, "handle_right": {"X": 0.5, "Y": 0}, "handle_type": 0, "interpolation": 0}]}}, "waveform": false, "file_id": "6D5T1E4BRH", "title": "1016312956-preview.mp4", "image": "/home/diary/.openshot_qt/thumbnail/6D5T1E4BRH.png"}, {"alpha": {"Points": [{"co": {"X": 1, "Y": 1}, "interpolation": 2}]}, "anchor": 0, "channel_filter": {"Points": [{"co": {"X": 1, "Y": -1}, "interpolation": 2}]}, "channel_mapping": {"Points": [{"co": {"X": 1, "Y": -1}, "interpolation": 2}]}, "crop_height": {"Points": [{"co": {"X": 1, "Y": -1}, "interpolation": 2}]}, "crop_width": {"Points": [{"co": {"X": 1, "Y": -1}, "interpolation": 2}]}, "crop_x": {"Points": [{"co": {"X": 1, "Y": 0}, "interpolation": 2}]}, "crop_y": {"Points": [{"co": {"X": 1, "Y": 0}, "interpolation": 2}]}, "display": 0, "duration": 10.143991470336914, "effects": [], "end": 10.143991470336914, "gravity": 4, "has_audio": {"Points": [{"co": {"X": 1, "Y": -1}, "interpolation": 2}]}, "has_video": {"Points": [{"co": {"X": 1, "Y": -1}, "interpolation": 2}]}, "id": "CSN9JD9AUB", "layer": 3, "location_x": {"Points": [{"co": {"X": 1, "Y": 0}, "interpolation": 2}]}, "location_y": {"Points": [{"co": {"X": 1, "Y": 0}, "interpolation": 2}]}, "perspective_c1_x": {"Points": [{"co": {"X": 1, "Y": -1}, "interpolation": 2}]}, "perspective_c1_y": {"Points": [{"co": {"X": 1, "Y": -1}, "interpolation": 2}]}, "perspective_c2_x": {"Points": [{"co": {"X": 1, "Y": -1}, "interpolation": 2}]}, "perspective_c2_y": {"Points": [{"co": {"X": 1, "Y": -1}, "interpolation": 2}]}, "perspective_c3_x": {"Points": [{"co": {"X": 1, "Y": -1}, "interpolation": 2}]}, "perspective_c3_y": {"Points": [{"co": {"X": 1, "Y": -1}, "interpolation": 2}]}, "perspective_c4_x": {"Points": [{"co": {"X": 1, "Y": -1}, "interpolation": 2}]}, "perspective_c4_y": {"Points": [{"co": {"X": 1, "Y": -1}, "interpolation": 2}]}, "position": 416.7109922027588, "reader": {"acodec": "", "audio_bit_rate": 0, "audio_stream_index": -1, "audio_timebase": {"den": 1, "num": 1}, "channel_layout": 4, "channels": 0, "display_ratio": {"den": 84, "num": 149}, "duration": 10.143991470336914, "file_size": "1221831", "fps": {"den": 6, "num": 181}, "has_audio": false, "has_single_image": false, "has_video": true, "height": 336, "interlaced_frame": false, "path": "/home/diary/Desktop/\u041a\u043e\u043d\u0446\u0435\u043f\u0442\u044b/64. \u041f\u0440\u0438\u0447\u0438\u043d\u044b \u0431\u043e\u043b\u0435\u0437\u043d\u0435\u0439/video assets/1019281846-preview.mp4", "pixel_format": 0, "pixel_ratio": {"den": 1, "num": 1}, "sample_rate": 0, "top_field_first": true, "type": "FFmpegReader", "vcodec": "h264", "video_bit_rate": 963589, "video_length": "306", "video_stream_index": 0, "video_timebase": {"den": 11584, "num": 1}, "width": 596}, "rotation": {"Points": [{"co": {"X": 1, "Y": 0}, "interpolation": 2}]}, "scale": 1, "scale_x": {"Points": [{"co": {"X": 1, "Y": 1}, "interpolation": 2}]}, "scale_y": {"Points": [{"co": {"X": 1, "Y": 1}, "interpolation": 2}]}, "shear_x": {"Points": [{"co": {"X": 1, "Y": 0}, "interpolation": 2}]}, "shear_y": {"Points": [{"co": {"X": 1, "Y": 0}, "interpolation": 2}]}, "start": 0, "time": {"Points": [{"co": {"X": 1, "Y": 1}, "interpolation": 2}]}, "volume": {"Points": [{"co": {"X": 1, "Y": 1}, "interpolation": 2}]}, "wave_color": {"alpha": {"Points": [{"co": {"X": 1, "Y": 255}, "handle_left": {"X": 0.5, "Y": 1}, "handle_right": {"X": 0.5, "Y": 0}, "handle_type": 0, "interpolation": 0}]}, "blue": {"Points": [{"co": {"X": 1, "Y": 255}, "handle_left": {"X": 0.5, "Y": 1}, "handle_right": {"X": 0.5, "Y": 0}, "handle_type": 0, "interpolation": 0}]}, "green": {"Points": [{"co": {"X": 1, "Y": 123}, "handle_left": {"X": 0.5, "Y": 1}, "handle_right": {"X": 0.5, "Y": 0}, "handle_type": 0, "interpolation": 0}]}, "red": {"Points": [{"co": {"X": 1, "Y": 0}, "handle_left": {"X": 0.5, "Y": 1}, "handle_right": {"X": 0.5, "Y": 0}, "handle_type": 0, "interpolation": 0}]}}, "waveform": false, "file_id": "37RK3BVHCD", "title": "1019281846-preview.mp4", "image": "/home/diary/.openshot_qt/thumbnail/37RK3BVHCD.png"}, {"alpha": {"Points": [{"co": {"X": 1, "Y": 1}, "interpolation": 2}]}, "anchor": 0, "channel_filter": {"Points": [{"co": {"X": 1, "Y": -1}, "interpolation": 2}]}, "channel_mapping": {"Points": [{"co": {"X": 1, "Y": -1}, "interpolation": 2}]}, "crop_height": {"Points": [{"co": {"X": 1, "Y": -1}, "interpolation": 2}]}, "crop_width": {"Points": [{"co": {"X": 1, "Y": -1}, "interpolation": 2}]}, "crop_x": {"Points": [{"co": {"X": 1, "Y": 0}, "interpolation": 2}]}, "crop_y": {"Points": [{"co": {"X": 1, "Y": 0}, "interpolation": 2}]}, "display": 0, "duration": 15.015000343322754, "effects": [], "end": 15.015000343322754, "gravity": 4, "has_audio": {"Points": [{"co": {"X": 1, "Y": -1}, "interpolation": 2}]}, "has_video": {"Points": [{"co": {"X": 1, "Y": -1}, "interpolation": 2}]}, "id": "LA4ZKU0J5D", "layer": 4, "location_x": {"Points": [{"co": {"X": 1, "Y": 0}, "interpolation": 2}]}, "location_y": {"Points": [{"co": {"X": 1, "Y": 0}, "interpolation": 2}]}, "perspective_c1_x": {"Points": [{"co": {"X": 1, "Y": -1}, "interpolation": 2}]}, "perspective_c1_y": {"Points": [{"co": {"X": 1, "Y": -1}, "interpolation": 2}]}, "perspective_c2_x": {"Points": [{"co": {"X": 1, "Y": -1}, "interpolation": 2}]}, "perspective_c2_y": {"Points": [{"co": {"X": 1, "Y": -1}, "interpolation": 2}]}, "perspective_c3_x": {"Points": [{"co": {"X": 1, "Y": -1}, "interpolation": 2}]}, "perspective_c3_y": {"Points": [{"co": {"X": 1, "Y": -1}, "interpolation": 2}]}, "perspective_c4_x": {"Points": [{"co": {"X": 1, "Y": -1}, "interpolation": 2}]}, "perspective_c4_y": {"Points": [{"co": {"X": 1, "Y": -1}, "interpolation": 2}]}, "position": 314.59398418426514, "reader": {"acodec": "", "audio_bit_rate": 0, "audio_stream_index": -1, "audio_timebase": {"den": 1, "num": 1}, "channel_layout": 4, "channels": 0, "display_ratio": {"den": 84, "num": 149}, "duration": 15.015000343322754, "file_size": "1533333", "fps": {"den": 1001, "num": 30000}, "has_audio": false, "has_single_image": false, "has_video": true, "height": 336, "interlaced_frame": false, "path": "/home/diary/Desktop/\u041a\u043e\u043d\u0446\u0435\u043f\u0442\u044b/64. \u041f\u0440\u0438\u0447\u0438\u043d\u044b \u0431\u043e\u043b\u0435\u0437\u043d\u0435\u0439/video assets/1025020760-preview.mp4", "pixel_format": 0, "pixel_ratio": {"den": 1, "num": 1}, "sample_rate": 0, "top_field_first": true, "type": "FFmpegReader", "vcodec": "h264", "video_bit_rate": 816960, "video_length": "450", "video_stream_index": 0, "video_timebase": {"den": 30000, "num": 1}, "width": 596}, "rotation": {"Points": [{"co": {"X": 1, "Y": 0}, "interpolation": 2}]}, "scale": 1, "scale_x": {"Points": [{"co": {"X": 1, "Y": 1}, "interpolation": 2}]}, "scale_y": {"Points": [{"co": {"X": 1, "Y": 1}, "interpolation": 2}]}, "shear_x": {"Points": [{"co": {"X": 1, "Y": 0}, "interpolation": 2}]}, "shear_y": {"Points": [{"co": {"X": 1, "Y": 0}, "interpolation": 2}]}, "start": 0, "time": {"Points": [{"co": {"X": 1, "Y": 1}, "interpolation": 2}]}, "volume": {"Points": [{"co": {"X": 1, "Y": 1}, "interpolation": 2}]}, "wave_color": {"alpha": {"Points": [{"co": {"X": 1, "Y": 255}, "handle_left": {"X": 0.5, "Y": 1}, "handle_right": {"X": 0.5, "Y": 0}, "handle_type": 0, "interpolation": 0}]}, "blue": {"Points": [{"co": {"X": 1, "Y": 255}, "handle_left": {"X": 0.5, "Y": 1}, "handle_right": {"X": 0.5, "Y": 0}, "handle_type": 0, "interpolation": 0}]}, "green": {"Points": [{"co": {"X": 1, "Y": 123}, "handle_left": {"X": 0.5, "Y": 1}, "handle_right": {"X": 0.5, "Y": 0}, "handle_type": 0, "interpolation": 0}]}, "red": {"Points": [{"co": {"X": 1, "Y": 0}, "handle_left": {"X": 0.5, "Y": 1}, "handle_right": {"X": 0.5, "Y": 0}, "handle_type": 0, "interpolation": 0}]}}, "waveform": false, "file_id": "PK0GVBXWTM", "title": "1025020760-preview.mp4", "image": "/home/diary/.openshot_qt/thumbnail/PK0GVBXWTM.png"}, {"alpha": {"Points": [{"co": {"X": 1, "Y": 1}, "interpolation": 2}]}, "anchor": 0, "channel_filter": {"Points": [{"co": {"X": 1, "Y": -1}, "interpolation": 2}]}, "channel_mapping": {"Points": [{"co": {"X": 1, "Y": -1}, "interpolation": 2}]}, "crop_height": {"Points": [{"co": {"X": 1, "Y": -1}, "interpolation": 2}]}, "crop_width": {"Points": [{"co": {"X": 1, "Y": -1}, "interpolation": 2}]}, "crop_x": {"Points": [{"co": {"X": 1, "Y": 0}, "interpolation": 2}]}, "crop_y": {"Points": [{"co": {"X": 1, "Y": 0}, "interpolation": 2}]}, "display": 0, "duration": 19.366992950439453, "effects": [], "end": 19.366992950439453, "gravity": 4, "has_audio": {"Points": [{"co": {"X": 1, "Y": -1}, "interpolation": 2}]}, "has_video": {"Points": [{"co": {"X": 1, "Y": -1}, "interpolation": 2}]}, "id": "XBFU5J3IPT", "layer": 4, "location_x": {"Points": [{"co": {"X": 1, "Y": 0}, "interpolation": 2}]}, "location_y": {"Points": [{"co": {"X": 1, "Y": 0}, "interpolation": 2}]}, "perspective_c1_x": {"Points": [{"co": {"X": 1, "Y": -1}, "interpolation": 2}]}, "perspective_c1_y": {"Points": [{"co": {"X": 1, "Y": -1}, "interpolation": 2}]}, "perspective_c2_x": {"Points": [{"co": {"X": 1, "Y": -1}, "interpolation": 2}]}, "perspective_c2_y": {"Points": [{"co": {"X": 1, "Y": -1}, "interpolation": 2}]}, "perspective_c3_x": {"Points": [{"co": {"X": 1, "Y": -1}, "interpolation": 2}]}, "perspective_c3_y": {"Points": [{"co": {"X": 1, "Y": -1}, "interpolation": 2}]}, "perspective_c4_x": {"Points": [{"co": {"X": 1, "Y": -1}, "interpolation": 2}]}, "perspective_c4_y": {"Points": [{"co": {"X": 1, "Y": -1}, "interpolation": 2}]}, "position": 420.16, "reader": {"acodec": "", "audio_bit_rate": 0, "audio_stream_index": -1, "audio_timebase": {"den": 1, "num": 1}, "channel_layout": 4, "channels": 0, "display_ratio": {"den": 84, "num": 149}, "duration": 19.366992950439453, "file_size": "1210742", "fps": {"den": 1, "num": 30}, "has_audio": false, "has_single_image": false, "has_video": true, "height": 336, "interlaced_frame": false, "path": "/home/diary/Desktop/\u041a\u043e\u043d\u0446\u0435\u043f\u0442\u044b/64. \u041f\u0440\u0438\u0447\u0438\u043d\u044b \u0431\u043e\u043b\u0435\u0437\u043d\u0435\u0439/video assets/1031348399-preview.mp4", "pixel_format": 0, "pixel_ratio": {"den": 1, "num": 1}, "sample_rate": 0, "top_field_first": true, "type": "FFmpegReader", "vcodec": "h264", "video_bit_rate": 500125, "video_length": "581", "video_stream_index": 0, "video_timebase": {"den": 15360, "num": 1}, "width": 596}, "rotation": {"Points": [{"co": {"X": 1, "Y": 0}, "interpolation": 2}]}, "scale": 1, "scale_x": {"Points": [{"co": {"X": 1, "Y": 1}, "interpolation": 2}]}, "scale_y": {"Points": [{"co": {"X": 1, "Y": 1}, "interpolation": 2}]}, "shear_x": {"Points": [{"co": {"X": 1, "Y": 0}, "interpolation": 2}]}, "shear_y": {"Points": [{"co": {"X": 1, "Y": 0}, "interpolation": 2}]}, "start": 0, "time": {"Points": [{"co": {"X": 1, "Y": 1}, "interpolation": 2}]}, "volume": {"Points": [{"co": {"X": 1, "Y": 1}, "interpolation": 2}]}, "wave_color": {"alpha": {"Points": [{"co": {"X": 1, "Y": 255}, "handle_left": {"X": 0.5, "Y": 1}, "handle_right": {"X": 0.5, "Y": 0}, "handle_type": 0, "interpolation": 0}]}, "blue": {"Points": [{"co": {"X": 1, "Y": 255}, "handle_left": {"X": 0.5, "Y": 1}, "handle_right": {"X": 0.5, "Y": 0}, "handle_type": 0, "interpolation": 0}]}, "green": {"Points": [{"co": {"X": 1, "Y": 123}, "handle_left": {"X": 0.5, "Y": 1}, "handle_right": {"X": 0.5, "Y": 0}, "handle_type": 0, "interpolation": 0}]}, "red": {"Points": [{"co": {"X": 1, "Y": 0}, "handle_left": {"X": 0.5, "Y": 1}, "handle_right": {"X": 0.5, "Y": 0}, "handle_type": 0, "interpolation": 0}]}}, "waveform": false, "file_id": "5695A74IRT", "title": "1031348399-preview.mp4", "image": "/home/diary/.openshot_qt/thumbnail/5695A74IRT.png"}, {"alpha": {"Points": [{"co": {"X": 1, "Y": 1}, "interpolation": 2}]}, "anchor": 0, "channel_filter": {"Points": [{"co": {"X": 1, "Y": -1}, "interpolation": 2}]}, "channel_mapping": {"Points": [{"co": {"X": 1, "Y": -1}, "interpolation": 2}]}, "crop_height": {"Points": [{"co": {"X": 1, "Y": -1}, "interpolation": 2}]}, "crop_width": {"Points": [{"co": {"X": 1, "Y": -1}, "interpolation": 2}]}, "crop_x": {"Points": [{"co": {"X": 1, "Y": 0}, "interpolation": 2}]}, "crop_y": {"Points": [{"co": {"X": 1, "Y": 0}, "interpolation": 2}]}, "display": 0, "duration": 35.583984375, "effects": [], "end": 35.583984375, "gravity": 4, "has_audio": {"Points": [{"co": {"X": 1, "Y": -1}, "interpolation": 2}]}, "has_video": {"Points": [{"co": {"X": 1, "Y": -1}, "interpolation": 2}]}, "id": "3LBVTYEZ5B", "layer": 4, "location_x": {"Points": [{"co": {"X": 1, "Y": 0}, "interpolation": 2}]}, "location_y": {"Points": [{"co": {"X": 1, "Y": 0}, "interpolation": 2}]}, "perspective_c1_x": {"Points": [{"co": {"X": 1, "Y": -1}, "interpolation": 2}]}, "perspective_c1_y": {"Points": [{"co": {"X": 1, "Y": -1}, "interpolation": 2}]}, "perspective_c2_x": {"Points": [{"co": {"X": 1, "Y": -1}, "interpolation": 2}]}, "perspective_c2_y": {"Points": [{"co": {"X": 1, "Y": -1}, "interpolation": 2}]}, "perspective_c3_x": {"Points": [{"co": {"X": 1, "Y": -1}, "interpolation": 2}]}, "perspective_c3_y": {"Points": [{"co": {"X": 1, "Y": -1}, "interpolation": 2}]}, "perspective_c4_x": {"Points": [{"co": {"X": 1, "Y": -1}, "interpolation": 2}]}, "perspective_c4_y": {"Points": [{"co": {"X": 1, "Y": -1}, "interpolation": 2}]}, "position": 251.13750007629395, "reader": {"acodec": "", "audio_bit_rate": 0, "audio_stream_index": -1, "audio_timebase": {"den": 1, "num": 1}, "channel_layout": 4, "channels": 0, "display_ratio": {"den": 84, "num": 149}, "duration": 35.583984375, "file_size": "4040931", "fps": {"den": 1, "num": 24}, "has_audio": false, "has_single_image": false, "has_video": true, "height": 336, "interlaced_frame": false, "path": "/home/diary/Desktop/\u041a\u043e\u043d\u0446\u0435\u043f\u0442\u044b/64. \u041f\u0440\u0438\u0447\u0438\u043d\u044b \u0431\u043e\u043b\u0435\u0437\u043d\u0435\u0439/video assets/1033434362-preview.mp4", "pixel_format": 0, "pixel_ratio": {"den": 1, "num": 1}, "sample_rate": 0, "top_field_first": true, "type": "FFmpegReader", "vcodec": "h264", "video_bit_rate": 908482, "video_length": "854", "video_stream_index": 0, "video_timebase": {"den": 12288, "num": 1}, "width": 596}, "rotation": {"Points": [{"co": {"X": 1, "Y": 0}, "interpolation": 2}]}, "scale": 1, "scale_x": {"Points": [{"co": {"X": 1, "Y": 1}, "interpolation": 2}]}, "scale_y": {"Points": [{"co": {"X": 1, "Y": 1}, "interpolation": 2}]}, "shear_x": {"Points": [{"co": {"X": 1, "Y": 0}, "interpolation": 2}]}, "shear_y": {"Points": [{"co": {"X": 1, "Y": 0}, "interpolation": 2}]}, "start": 0, "time": {"Points": [{"co": {"X": 1, "Y": 1}, "interpolation": 2}]}, "volume": {"Points": [{"co": {"X": 1, "Y": 1}, "interpolation": 2}]}, "wave_color": {"alpha": {"Points": [{"co": {"X": 1, "Y": 255}, "handle_left": {"X": 0.5, "Y": 1}, "handle_right": {"X": 0.5, "Y": 0}, "handle_type": 0, "interpolation": 0}]}, "blue": {"Points": [{"co": {"X": 1, "Y": 255}, "handle_left": {"X": 0.5, "Y": 1}, "handle_right": {"X": 0.5, "Y": 0}, "handle_type": 0, "interpolation": 0}]}, "green": {"Points": [{"co": {"X": 1, "Y": 123}, "handle_left": {"X": 0.5, "Y": 1}, "handle_right": {"X": 0.5, "Y": 0}, "handle_type": 0, "interpolation": 0}]}, "red": {"Points": [{"co": {"X": 1, "Y": 0}, "handle_left": {"X": 0.5, "Y": 1}, "handle_right": {"X": 0.5, "Y": 0}, "handle_type": 0, "interpolation": 0}]}}, "waveform": false, "file_id": "O1B5S1FAAK", "title": "1033434362-preview.mp4", "image": "/home/diary/.openshot_qt/thumbnail/O1B5S1FAAK.png"}, {"alpha": {"Points": [{"co": {"X": 1, "Y": 1}, "interpolation": 2}]}, "anchor": 0, "channel_filter": {"Points": [{"co": {"X": 1, "Y": -1}, "interpolation": 2}]}, "channel_mapping": {"Points": [{"co": {"X": 1, "Y": -1}, "interpolation": 2}]}, "crop_height": {"Points": [{"co": {"X": 1, "Y": -1}, "interpolation": 2}]}, "crop_width": {"Points": [{"co": {"X": 1, "Y": -1}, "interpolation": 2}]}, "crop_x": {"Points": [{"co": {"X": 1, "Y": 0}, "interpolation": 2}]}, "crop_y": {"Points": [{"co": {"X": 1, "Y": 0}, "interpolation": 2}]}, "display": 0, "duration": 14.807000160217285, "effects": [], "end": 14.807000160217285, "gravity": 4, "has_audio": {"Points": [{"co": {"X": 1, "Y": -1}, "interpolation": 2}]}, "has_video": {"Points": [{"co": {"X": 1, "Y": -1}, "interpolation": 2}]}, "id": "9HBMVHJIJB", "layer": 1, "location_x": {"Points": [{"co": {"X": 1, "Y": 0}, "interpolation": 2}]}, "location_y": {"Points": [{"co": {"X": 1, "Y": 0}, "interpolation": 2}]}, "perspective_c1_x": {"Points": [{"co": {"X": 1, "Y": -1}, "interpolation": 2}]}, "perspective_c1_y": {"Points": [{"co": {"X": 1, "Y": -1}, "interpolation": 2}]}, "perspective_c2_x": {"Points": [{"co": {"X": 1, "Y": -1}, "interpolation": 2}]}, "perspective_c2_y": {"Points": [{"co": {"X": 1, "Y": -1}, "interpolation": 2}]}, "perspective_c3_x": {"Points": [{"co": {"X": 1, "Y": -1}, "interpolation": 2}]}, "perspective_c3_y": {"Points": [{"co": {"X": 1, "Y": -1}, "interpolation": 2}]}, "perspective_c4_x": {"Points": [{"co": {"X": 1, "Y": -1}, "interpolation": 2}]}, "perspective_c4_y": {"Points": [{"co": {"X": 1, "Y": -1}, "interpolation": 2}]}, "position": 244.32, "reader": {"acodec": "", "audio_bit_rate": 0, "audio_stream_index": -1, "audio_timebase": {"den": 1, "num": 1}, "channel_layout": 4, "channels": 0, "display_ratio": {"den": 79, "num": 150}, "duration": 14.807000160217285, "file_size": "1666944", "fps": {"den": 1001, "num": 24000}, "has_audio": false, "has_single_image": false, "has_video": true, "height": 316, "interlaced_frame": false, "path": "/home/diary/Desktop/\u041a\u043e\u043d\u0446\u0435\u043f\u0442\u044b/64. \u041f\u0440\u0438\u0447\u0438\u043d\u044b \u0431\u043e\u043b\u0435\u0437\u043d\u0435\u0439/video assets/1037066192-preview.mp4", "pixel_format": 0, "pixel_ratio": {"den": 1, "num": 1}, "sample_rate": 0, "top_field_first": true, "type": "FFmpegReader", "vcodec": "h264", "video_bit_rate": 900624, "video_length": "355", "video_stream_index": 0, "video_timebase": {"den": 24000, "num": 1}, "width": 600}, "rotation": {"Points": [{"co": {"X": 1, "Y": 0}, "interpolation": 2}]}, "scale": 1, "scale_x": {"Points": [{"co": {"X": 1, "Y": 1}, "interpolation": 2}]}, "scale_y": {"Points": [{"co": {"X": 1, "Y": 1}, "interpolation": 2}]}, "shear_x": {"Points": [{"co": {"X": 1, "Y": 0}, "interpolation": 2}]}, "shear_y": {"Points": [{"co": {"X": 1, "Y": 0}, "interpolation": 2}]}, "start": 0, "time": {"Points": [{"co": {"X": 1, "Y": 1}, "interpolation": 2}]}, "volume": {"Points": [{"co": {"X": 1, "Y": 1}, "interpolation": 2}]}, "wave_color": {"alpha": {"Points": [{"co": {"X": 1, "Y": 255}, "handle_left": {"X": 0.5, "Y": 1}, "handle_right": {"X": 0.5, "Y": 0}, "handle_type": 0, "interpolation": 0}]}, "blue": {"Points": [{"co": {"X": 1, "Y": 255}, "handle_left": {"X": 0.5, "Y": 1}, "handle_right": {"X": 0.5, "Y": 0}, "handle_type": 0, "interpolation": 0}]}, "green": {"Points": [{"co": {"X": 1, "Y": 123}, "handle_left": {"X": 0.5, "Y": 1}, "handle_right": {"X": 0.5, "Y": 0}, "handle_type": 0, "interpolation": 0}]}, "red": {"Points": [{"co": {"X": 1, "Y": 0}, "handle_left": {"X": 0.5, "Y": 1}, "handle_right": {"X": 0.5, "Y": 0}, "handle_type": 0, "interpolation": 0}]}}, "waveform": false, "file_id": "8PTZDQOQP0", "title": "1037066192-preview.mp4", "image": "/home/diary/.openshot_qt/thumbnail/8PTZDQOQP0.png"}, {"alpha": {"Points": [{"co": {"X": 1, "Y": 1}, "interpolation": 2}]}, "anchor": 0, "channel_filter": {"Points": [{"co": {"X": 1, "Y": -1}, "interpolation": 2}]}, "channel_mapping": {"Points": [{"co": {"X": 1, "Y": -1}, "interpolation": 2}]}, "crop_height": {"Points": [{"co": {"X": 1, "Y": -1}, "interpolation": 2}]}, "crop_width": {"Points": [{"co": {"X": 1, "Y": -1}, "interpolation": 2}]}, "crop_x": {"Points": [{"co": {"X": 1, "Y": 0}, "interpolation": 2}]}, "crop_y": {"Points": [{"co": {"X": 1, "Y": 0}, "interpolation": 2}]}, "display": 0, "duration": 8.942999839782715, "effects": [], "end": 8.942999839782715, "gravity": 4, "has_audio": {"Points": [{"co": {"X": 1, "Y": -1}, "interpolation": 2}]}, "has_video": {"Points": [{"co": {"X": 1, "Y": -1}, "interpolation": 2}]}, "id": "9ZR9NUT75S", "layer": 3, "location_x": {"Points": [{"co": {"X": 1, "Y": 0}, "interpolation": 2}]}, "location_y": {"Points": [{"co": {"X": 1, "Y": 0}, "interpolation": 2}]}, "perspective_c1_x": {"Points": [{"co": {"X": 1, "Y": -1}, "interpolation": 2}]}, "perspective_c1_y": {"Points": [{"co": {"X": 1, "Y": -1}, "interpolation": 2}]}, "perspective_c2_x": {"Points": [{"co": {"X": 1, "Y": -1}, "interpolation": 2}]}, "perspective_c2_y": {"Points": [{"co": {"X": 1, "Y": -1}, "interpolation": 2}]}, "perspective_c3_x": {"Points": [{"co": {"X": 1, "Y": -1}, "interpolation": 2}]}, "perspective_c3_y": {"Points": [{"co": {"X": 1, "Y": -1}, "interpolation": 2}]}, "perspective_c4_x": {"Points": [{"co": {"X": 1, "Y": -1}, "interpolation": 2}]}, "perspective_c4_y": {"Points": [{"co": {"X": 1, "Y": -1}, "interpolation": 2}]}, "position": 430.74449295043945, "reader": {"acodec": "", "audio_bit_rate": 0, "audio_stream_index": -1, "audio_timebase": {"den": 1, "num": 1}, "channel_layout": 4, "channels": 0, "display_ratio": {"den": 84, "num": 149}, "duration": 8.942999839782715, "file_size": "500156", "fps": {"den": 1001, "num": 30000}, "has_audio": false, "has_single_image": false, "has_video": true, "height": 336, "interlaced_frame": false, "path": "/home/diary/Desktop/\u041a\u043e\u043d\u0446\u0435\u043f\u0442\u044b/64. \u041f\u0440\u0438\u0447\u0438\u043d\u044b \u0431\u043e\u043b\u0435\u0437\u043d\u0435\u0439/video assets/1037685125-preview.mp4", "pixel_format": 0, "pixel_ratio": {"den": 1, "num": 1}, "sample_rate": 0, "top_field_first": true, "type": "FFmpegReader", "vcodec": "h264", "video_bit_rate": 447416, "video_length": "268", "video_stream_index": 0, "video_timebase": {"den": 30000, "num": 1}, "width": 596}, "rotation": {"Points": [{"co": {"X": 1, "Y": 0}, "interpolation": 2}]}, "scale": 1, "scale_x": {"Points": [{"co": {"X": 1, "Y": 1}, "interpolation": 2}]}, "scale_y": {"Points": [{"co": {"X": 1, "Y": 1}, "interpolation": 2}]}, "shear_x": {"Points": [{"co": {"X": 1, "Y": 0}, "interpolation": 2}]}, "shear_y": {"Points": [{"co": {"X": 1, "Y": 0}, "interpolation": 2}]}, "start": 0, "time": {"Points": [{"co": {"X": 1, "Y": 1}, "interpolation": 2}]}, "volume": {"Points": [{"co": {"X": 1, "Y": 1}, "interpolation": 2}]}, "wave_color": {"alpha": {"Points": [{"co": {"X": 1, "Y": 255}, "handle_left": {"X": 0.5, "Y": 1}, "handle_right": {"X": 0.5, "Y": 0}, "handle_type": 0, "interpolation": 0}]}, "blue": {"Points": [{"co": {"X": 1, "Y": 255}, "handle_left": {"X": 0.5, "Y": 1}, "handle_right": {"X": 0.5, "Y": 0}, "handle_type": 0, "interpolation": 0}]}, "green": {"Points": [{"co": {"X": 1, "Y": 123}, "handle_left": {"X": 0.5, "Y": 1}, "handle_right": {"X": 0.5, "Y": 0}, "handle_type": 0, "interpolation": 0}]}, "red": {"Points": [{"co": {"X": 1, "Y": 0}, "handle_left": {"X": 0.5, "Y": 1}, "handle_right": {"X": 0.5, "Y": 0}, "handle_type": 0, "interpolation": 0}]}}, "waveform": false, "file_id": "LG1NPUCC77", "title": "1037685125-preview.mp4", "image": "/home/diary/.openshot_qt/thumbnail/LG1NPUCC77.png"}, {"alpha": {"Points": [{"co": {"X": 1, "Y": 1}, "interpolation": 2}]}, "anchor": 0, "channel_filter": {"Points": [{"co": {"X": 1, "Y": -1}, "interpolation": 2}]}, "channel_mapping": {"Points": [{"co": {"X": 1, "Y": -1}, "interpolation": 2}]}, "crop_height": {"Points": [{"co": {"X": 1, "Y": -1}, "interpolation": 2}]}, "crop_width": {"Points": [{"co": {"X": 1, "Y": -1}, "interpolation": 2}]}, "crop_x": {"Points": [{"co": {"X": 1, "Y": 0}, "interpolation": 2}]}, "crop_y": {"Points": [{"co": {"X": 1, "Y": 0}, "interpolation": 2}]}, "display": 0, "duration": 29.933984756469727, "effects": [], "end": 29.933984756469727, "gravity": 4, "has_audio": {"Points": [{"co": {"X": 1, "Y": -1}, "interpolation": 2}]}, "has_video": {"Points": [{"co": {"X": 1, "Y": -1}, "interpolation": 2}]}, "id": "IWLR1LEDVN", "layer": 2, "location_x": {"Points": [{"co": {"X": 1, "Y": 0}, "interpolation": 2}]}, "location_y": {"Points": [{"co": {"X": 1, "Y": 0}, "interpolation": 2}]}, "perspective_c1_x": {"Points": [{"co": {"X": 1, "Y": -1}, "interpolation": 2}]}, "perspective_c1_y": {"Points": [{"co": {"X": 1, "Y": -1}, "interpolation": 2}]}, "perspective_c2_x": {"Points": [{"co": {"X": 1, "Y": -1}, "interpolation": 2}]}, "perspective_c2_y": {"Points": [{"co": {"X": 1, "Y": -1}, "interpolation": 2}]}, "perspective_c3_x": {"Points": [{"co": {"X": 1, "Y": -1}, "interpolation": 2}]}, "perspective_c3_y": {"Points": [{"co": {"X": 1, "Y": -1}, "interpolation": 2}]}, "perspective_c4_x": {"Points": [{"co": {"X": 1, "Y": -1}, "interpolation": 2}]}, "perspective_c4_y": {"Points": [{"co": {"X": 1, "Y": -1}, "interpolation": 2}]}, "position": 430.74449295043945, "reader": {"acodec": "", "audio_bit_rate": 0, "audio_stream_index": -1, "audio_timebase": {"den": 1, "num": 1}, "channel_layout": 4, "channels": 0, "display_ratio": {"den": 84, "num": 149}, "duration": 29.933984756469727, "file_size": "2385224", "fps": {"den": 1, "num": 30}, "has_audio": false, "has_single_image": false, "has_video": true, "height": 336, "interlaced_frame": false, "path": "/home/diary/Desktop/\u041a\u043e\u043d\u0446\u0435\u043f\u0442\u044b/64. \u041f\u0440\u0438\u0447\u0438\u043d\u044b \u0431\u043e\u043b\u0435\u0437\u043d\u0435\u0439/video assets/1042189108-preview.mp4", "pixel_format": 0, "pixel_ratio": {"den": 1, "num": 1}, "sample_rate": 0, "top_field_first": true, "type": "FFmpegReader", "vcodec": "h264", "video_bit_rate": 637462, "video_length": "898", "video_stream_index": 0, "video_timebase": {"den": 15360, "num": 1}, "width": 596}, "rotation": {"Points": [{"co": {"X": 1, "Y": 0}, "interpolation": 2}]}, "scale": 1, "scale_x": {"Points": [{"co": {"X": 1, "Y": 1}, "interpolation": 2}]}, "scale_y": {"Points": [{"co": {"X": 1, "Y": 1}, "interpolation": 2}]}, "shear_x": {"Points": [{"co": {"X": 1, "Y": 0}, "interpolation": 2}]}, "shear_y": {"Points": [{"co": {"X": 1, "Y": 0}, "interpolation": 2}]}, "start": 0, "time": {"Points": [{"co": {"X": 1, "Y": 1}, "interpolation": 2}]}, "volume": {"Points": [{"co": {"X": 1, "Y": 1}, "interpolation": 2}]}, "wave_color": {"alpha": {"Points": [{"co": {"X": 1, "Y": 255}, "handle_left": {"X": 0.5, "Y": 1}, "handle_right": {"X": 0.5, "Y": 0}, "handle_type": 0, "interpolation": 0}]}, "blue": {"Points": [{"co": {"X": 1, "Y": 255}, "handle_left": {"X": 0.5, "Y": 1}, "handle_right": {"X": 0.5, "Y": 0}, "handle_type": 0, "interpolation": 0}]}, "green": {"Points": [{"co": {"X": 1, "Y": 123}, "handle_left": {"X": 0.5, "Y": 1}, "handle_right": {"X": 0.5, "Y": 0}, "handle_type": 0, "interpolation": 0}]}, "red": {"Points": [{"co": {"X": 1, "Y": 0}, "handle_left": {"X": 0.5, "Y": 1}, "handle_right": {"X": 0.5, "Y": 0}, "handle_type": 0, "interpolation": 0}]}}, "waveform": false, "file_id": "B8ELRMI8NN", "title": "1042189108-preview.mp4", "image": "/home/diary/.openshot_qt/thumbnail/B8ELRMI8NN.png"}, {"alpha": {"Points": [{"co": {"X": 1, "Y": 1}, "interpolation": 2}]}, "anchor": 0, "channel_filter": {"Points": [{"co": {"X": 1, "Y": -1}, "interpolation": 2}]}, "channel_mapping": {"Points": [{"co": {"X": 1, "Y": -1}, "interpolation": 2}]}, "crop_height": {"Points": [{"co": {"X": 1, "Y": -1}, "interpolation": 2}]}, "crop_width": {"Points": [{"co": {"X": 1, "Y": -1}, "interpolation": 2}]}, "crop_x": {"Points": [{"co": {"X": 1, "Y": 0}, "interpolation": 2}]}, "crop_y": {"Points": [{"co": {"X": 1, "Y": 0}, "interpolation": 2}]}, "display": 0, "duration": 22.760000228881836, "effects": [], "end": 22.760000228881836, "gravity": 4, "has_audio": {"Points": [{"co": {"X": 1, "Y": -1}, "interpolation": 2}]}, "has_video": {"Points": [{"co": {"X": 1, "Y": -1}, "interpolation": 2}]}, "id": "CZ5GNQBJ79", "layer": 1, "location_x": {"Points": [{"co": {"X": 1, "Y": 0}, "interpolation": 2}]}, "location_y": {"Points": [{"co": {"X": 1, "Y": 0}, "interpolation": 2}]}, "perspective_c1_x": {"Points": [{"co": {"X": 1, "Y": -1}, "interpolation": 2}]}, "perspective_c1_y": {"Points": [{"co": {"X": 1, "Y": -1}, "interpolation": 2}]}, "perspective_c2_x": {"Points": [{"co": {"X": 1, "Y": -1}, "interpolation": 2}]}, "perspective_c2_y": {"Points": [{"co": {"X": 1, "Y": -1}, "interpolation": 2}]}, "perspective_c3_x": {"Points": [{"co": {"X": 1, "Y": -1}, "interpolation": 2}]}, "perspective_c3_y": {"Points": [{"co": {"X": 1, "Y": -1}, "interpolation": 2}]}, "perspective_c4_x": {"Points": [{"co": {"X": 1, "Y": -1}, "interpolation": 2}]}, "perspective_c4_y": {"Points": [{"co": {"X": 1, "Y": -1}, "interpolation": 2}]}, "position": 433.6, "reader": {"acodec": "", "audio_bit_rate": 0, "audio_stream_index": -1, "audio_timebase": {"den": 1, "num": 1}, "channel_layout": 4, "channels": 0, "display_ratio": {"den": 84, "num": 149}, "duration": 22.760000228881836, "file_size": "839329", "fps": {"den": 1, "num": 25}, "has_audio": false, "has_single_image": false, "has_video": true, "height": 336, "interlaced_frame": false, "path": "/home/diary/Desktop/\u041a\u043e\u043d\u0446\u0435\u043f\u0442\u044b/64. \u041f\u0440\u0438\u0447\u0438\u043d\u044b \u0431\u043e\u043b\u0435\u0437\u043d\u0435\u0439/video assets/1042776160-preview.mp4", "pixel_format": 0, "pixel_ratio": {"den": 1, "num": 1}, "sample_rate": 0, "top_field_first": true, "type": "FFmpegReader", "vcodec": "h264", "video_bit_rate": 295018, "video_length": "569", "video_stream_index": 0, "video_timebase": {"den": 12800, "num": 1}, "width": 596}, "rotation": {"Points": [{"co": {"X": 1, "Y": 0}, "interpolation": 2}]}, "scale": 1, "scale_x": {"Points": [{"co": {"X": 1, "Y": 1}, "interpolation": 2}]}, "scale_y": {"Points": [{"co": {"X": 1, "Y": 1}, "interpolation": 2}]}, "shear_x": {"Points": [{"co": {"X": 1, "Y": 0}, "interpolation": 2}]}, "shear_y": {"Points": [{"co": {"X": 1, "Y": 0}, "interpolation": 2}]}, "start": 0, "time": {"Points": [{"co": {"X": 1, "Y": 1}, "interpolation": 2}]}, "volume": {"Points": [{"co": {"X": 1, "Y": 1}, "interpolation": 2}]}, "wave_color": {"alpha": {"Points": [{"co": {"X": 1, "Y": 255}, "handle_left": {"X": 0.5, "Y": 1}, "handle_right": {"X": 0.5, "Y": 0}, "handle_type": 0, "interpolation": 0}]}, "blue": {"Points": [{"co": {"X": 1, "Y": 255}, "handle_left": {"X": 0.5, "Y": 1}, "handle_right": {"X": 0.5, "Y": 0}, "handle_type": 0, "interpolation": 0}]}, "green": {"Points": [{"co": {"X": 1, "Y": 123}, "handle_left": {"X": 0.5, "Y": 1}, "handle_right": {"X": 0.5, "Y": 0}, "handle_type": 0, "interpolation": 0}]}, "red": {"Points": [{"co": {"X": 1, "Y": 0}, "handle_left": {"X": 0.5, "Y": 1}, "handle_right": {"X": 0.5, "Y": 0}, "handle_type": 0, "interpolation": 0}]}}, "waveform": false, "file_id": "SJQTW5J2TE", "title": "1042776160-preview.mp4", "image": "/home/diary/.openshot_qt/thumbnail/SJQTW5J2TE.png"}, {"alpha": {"Points": [{"co": {"X": 1, "Y": 1}, "interpolation": 2}]}, "anchor": 0, "channel_filter": {"Points": [{"co": {"X": 1, "Y": -1}, "interpolation": 2}]}, "channel_mapping": {"Points": [{"co": {"X": 1, "Y": -1}, "interpolation": 2}]}, "crop_height": {"Points": [{"co": {"X": 1, "Y": -1}, "interpolation": 2}]}, "crop_width": {"Points": [{"co": {"X": 1, "Y": -1}, "interpolation": 2}]}, "crop_x": {"Points": [{"co": {"X": 1, "Y": 0}, "interpolation": 2}]}, "crop_y": {"Points": [{"co": {"X": 1, "Y": 0}, "interpolation": 2}]}, "display": 0, "duration": 9.376999855041504, "effects": [], "end": 9.376999855041504, "gravity": 4, "has_audio": {"Points": [{"co": {"X": 1, "Y": -1}, "interpolation": 2}]}, "has_video": {"Points": [{"co": {"X": 1, "Y": -1}, "interpolation": 2}]}, "id": "BM9ZX82JU6", "layer": 4, "location_x": {"Points": [{"co": {"X": 1, "Y": 0}, "interpolation": 2}]}, "location_y": {"Points": [{"co": {"X": 1, "Y": 0}, "interpolation": 2}]}, "perspective_c1_x": {"Points": [{"co": {"X": 1, "Y": -1}, "interpolation": 2}]}, "perspective_c1_y": {"Points": [{"co": {"X": 1, "Y": -1}, "interpolation": 2}]}, "perspective_c2_x": {"Points": [{"co": {"X": 1, "Y": -1}, "interpolation": 2}]}, "perspective_c2_y": {"Points": [{"co": {"X": 1, "Y": -1}, "interpolation": 2}]}, "perspective_c3_x": {"Points": [{"co": {"X": 1, "Y": -1}, "interpolation": 2}]}, "perspective_c3_y": {"Points": [{"co": {"X": 1, "Y": -1}, "interpolation": 2}]}, "perspective_c4_x": {"Points": [{"co": {"X": 1, "Y": -1}, "interpolation": 2}]}, "perspective_c4_y": {"Points": [{"co": {"X": 1, "Y": -1}, "interpolation": 2}]}, "position": 442.72, "reader": {"acodec": "", "audio_bit_rate": 0, "audio_stream_index": -1, "audio_timebase": {"den": 1, "num": 1}, "channel_layout": 4, "channels": 0, "display_ratio": {"den": 84, "num": 149}, "duration": 9.376999855041504, "file_size": "999115", "fps": {"den": 1001, "num": 30000}, "has_audio": false, "has_single_image": false, "has_video": true, "height": 336, "interlaced_frame": false, "path": "/home/diary/Desktop/\u041a\u043e\u043d\u0446\u0435\u043f\u0442\u044b/64. \u041f\u0440\u0438\u0447\u0438\u043d\u044b \u0431\u043e\u043b\u0435\u0437\u043d\u0435\u0439/video assets/1040051333-preview.mp4", "pixel_format": 0, "pixel_ratio": {"den": 1, "num": 1}, "sample_rate": 0, "top_field_first": true, "type": "FFmpegReader", "vcodec": "h264", "video_bit_rate": 852396, "video_length": "281", "video_stream_index": 0, "video_timebase": {"den": 30000, "num": 1}, "width": 596}, "rotation": {"Points": [{"co": {"X": 1, "Y": 0}, "interpolation": 2}]}, "scale": 1, "scale_x": {"Points": [{"co": {"X": 1, "Y": 1}, "interpolation": 2}]}, "scale_y": {"Points": [{"co": {"X": 1, "Y": 1}, "interpolation": 2}]}, "shear_x": {"Points": [{"co": {"X": 1, "Y": 0}, "interpolation": 2}]}, "shear_y": {"Points": [{"co": {"X": 1, "Y": 0}, "interpolation": 2}]}, "start": 0, "time": {"Points": [{"co": {"X": 1, "Y": 1}, "interpolation": 2}]}, "volume": {"Points": [{"co": {"X": 1, "Y": 1}, "interpolation": 2}]}, "wave_color": {"alpha": {"Points": [{"co": {"X": 1, "Y": 255}, "handle_left": {"X": 0.5, "Y": 1}, "handle_right": {"X": 0.5, "Y": 0}, "handle_type": 0, "interpolation": 0}]}, "blue": {"Points": [{"co": {"X": 1, "Y": 255}, "handle_left": {"X": 0.5, "Y": 1}, "handle_right": {"X": 0.5, "Y": 0}, "handle_type": 0, "interpolation": 0}]}, "green": {"Points": [{"co": {"X": 1, "Y": 123}, "handle_left": {"X": 0.5, "Y": 1}, "handle_right": {"X": 0.5, "Y": 0}, "handle_type": 0, "interpolation": 0}]}, "red": {"Points": [{"co": {"X": 1, "Y": 0}, "handle_left": {"X": 0.5, "Y": 1}, "handle_right": {"X": 0.5, "Y": 0}, "handle_type": 0, "interpolation": 0}]}}, "waveform": false, "file_id": "GRPF5ZYUU6", "title": "1040051333-preview.mp4", "image": "/home/diary/.openshot_qt/thumbnail/GRPF5ZYUU6.png"}, {"alpha": {"Points": [{"co": {"X": 1, "Y": 1}, "interpolation": 2}]}, "anchor": 0, "channel_filter": {"Points": [{"co": {"X": 1, "Y": -1}, "interpolation": 2}]}, "channel_mapping": {"Points": [{"co": {"X": 1, "Y": -1}, "interpolation": 2}]}, "crop_height": {"Points": [{"co": {"X": 1, "Y": -1}, "interpolation": 2}]}, "crop_width": {"Points": [{"co": {"X": 1, "Y": -1}, "interpolation": 2}]}, "crop_x": {"Points": [{"co": {"X": 1, "Y": 0}, "interpolation": 2}]}, "crop_y": {"Points": [{"co": {"X": 1, "Y": 0}, "interpolation": 2}]}, "display": 0, "duration": 46.70000076293945, "effects": [], "end": 46.70000076293945, "gravity": 4, "has_audio": {"Points": [{"co": {"X": 1, "Y": -1}, "interpolation": 2}]}, "has_video": {"Points": [{"co": {"X": 1, "Y": -1}, "interpolation": 2}]}, "id": "CMZY9IEJOT", "layer": 3, "location_x": {"Points": [{"co": {"X": 1, "Y": 0}, "interpolation": 2}]}, "location_y": {"Points": [{"co": {"X": 1, "Y": 0}, "interpolation": 2}]}, "perspective_c1_x": {"Points": [{"co": {"X": 1, "Y": -1}, "interpolation": 2}]}, "perspective_c1_y": {"Points": [{"co": {"X": 1, "Y": -1}, "interpolation": 2}]}, "perspective_c2_x": {"Points": [{"co": {"X": 1, "Y": -1}, "interpolation": 2}]}, "perspective_c2_y": {"Points": [{"co": {"X": 1, "Y": -1}, "interpolation": 2}]}, "perspective_c3_x": {"Points": [{"co": {"X": 1, "Y": -1}, "interpolation": 2}]}, "perspective_c3_y": {"Points": [{"co": {"X": 1, "Y": -1}, "interpolation": 2}]}, "perspective_c4_x": {"Points": [{"co": {"X": 1, "Y": -1}, "interpolation": 2}]}, "perspective_c4_y": {"Points": [{"co": {"X": 1, "Y": -1}, "interpolation": 2}]}, "position": 466.56, "reader": {"acodec": "aac", "audio_bit_rate": 128340, "audio_stream_index": 1, "audio_timebase": {"den": 44100, "num": 1}, "channel_layout": 3, "channels": 2, "display_ratio": {"den": 84, "num": 149}, "duration": 46.70000076293945, "file_size": "6092940", "fps": {"den": 1, "num": 30}, "has_audio": true, "has_single_image": false, "has_video": true, "height": 336, "interlaced_frame": false, "path": "/home/diary/Desktop/\u041a\u043e\u043d\u0446\u0435\u043f\u0442\u044b/64. \u041f\u0440\u0438\u0447\u0438\u043d\u044b \u0431\u043e\u043b\u0435\u0437\u043d\u0435\u0439/video assets/1045470025-preview.mp4", "pixel_format": 0, "pixel_ratio": {"den": 1, "num": 1}, "sample_rate": 44100, "top_field_first": true, "type": "FFmpegReader", "vcodec": "h264", "video_bit_rate": 1042709, "video_length": "1401", "video_stream_index": 0, "video_timebase": {"den": 15360, "num": 1}, "width": 596}, "rotation": {"Points": [{"co": {"X": 1, "Y": 0}, "interpolation": 2}]}, "scale": 1, "scale_x": {"Points": [{"co": {"X": 1, "Y": 1}, "interpolation": 2}]}, "scale_y": {"Points": [{"co": {"X": 1, "Y": 1}, "interpolation": 2}]}, "shear_x": {"Points": [{"co": {"X": 1, "Y": 0}, "interpolation": 2}]}, "shear_y": {"Points": [{"co": {"X": 1, "Y": 0}, "interpolation": 2}]}, "start": 0, "time": {"Points": [{"co": {"X": 1, "Y": 1}, "interpolation": 2}]}, "volume": {"Points": [{"co": {"X": 1, "Y": 1}, "interpolation": 2}]}, "wave_color": {"alpha": {"Points": [{"co": {"X": 1, "Y": 255}, "handle_left": {"X": 0.5, "Y": 1}, "handle_right": {"X": 0.5, "Y": 0}, "handle_type": 0, "interpolation": 0}]}, "blue": {"Points": [{"co": {"X": 1, "Y": 255}, "handle_left": {"X": 0.5, "Y": 1}, "handle_right": {"X": 0.5, "Y": 0}, "handle_type": 0, "interpolation": 0}]}, "green": {"Points": [{"co": {"X": 1, "Y": 123}, "handle_left": {"X": 0.5, "Y": 1}, "handle_right": {"X": 0.5, "Y": 0}, "handle_type": 0, "interpolation": 0}]}, "red": {"Points": [{"co": {"X": 1, "Y": 0}, "handle_left": {"X": 0.5, "Y": 1}, "handle_right": {"X": 0.5, "Y": 0}, "handle_type": 0, "interpolation": 0}]}}, "waveform": false, "file_id": "M0H2IT5DMM", "title": "1045470025-preview.mp4", "image": "/home/diary/.openshot_qt/thumbnail/M0H2IT5DMM.png"}, {"alpha": {"Points": [{"co": {"X": 1, "Y": 1}, "interpolation": 2}]}, "anchor": 0, "channel_filter": {"Points": [{"co": {"X": 1, "Y": -1}, "interpolation": 2}]}, "channel_mapping": {"Points": [{"co": {"X": 1, "Y": -1}, "interpolation": 2}]}, "crop_height": {"Points": [{"co": {"X": 1, "Y": -1}, "interpolation": 2}]}, "crop_width": {"Points": [{"co": {"X": 1, "Y": -1}, "interpolation": 2}]}, "crop_x": {"Points": [{"co": {"X": 1, "Y": 0}, "interpolation": 2}]}, "crop_y": {"Points": [{"co": {"X": 1, "Y": 0}, "interpolation": 2}]}, "display": 0, "duration": 7.0, "effects": [], "end": 7, "gravity": 4, "has_audio": {"Points": [{"co": {"X": 1, "Y": -1}, "interpolation": 2}]}, "has_video": {"Points": [{"co": {"X": 1, "Y": -1}, "interpolation": 2}]}, "id": "S1J5UIW9AV", "layer": 4, "location_x": {"Points": [{"co": {"X": 1, "Y": 0}, "interpolation": 2}]}, "location_y": {"Points": [{"co": {"X": 1, "Y": 0}, "interpolation": 2}]}, "perspective_c1_x": {"Points": [{"co": {"X": 1, "Y": -1}, "interpolation": 2}]}, "perspective_c1_y": {"Points": [{"co": {"X": 1, "Y": -1}, "interpolation": 2}]}, "perspective_c2_x": {"Points": [{"co": {"X": 1, "Y": -1}, "interpolation": 2}]}, "perspective_c2_y": {"Points": [{"co": {"X": 1, "Y": -1}, "interpolation": 2}]}, "perspective_c3_x": {"Points": [{"co": {"X": 1, "Y": -1}, "interpolation": 2}]}, "perspective_c3_y": {"Points": [{"co": {"X": 1, "Y": -1}, "interpolation": 2}]}, "perspective_c4_x": {"Points": [{"co": {"X": 1, "Y": -1}, "interpolation": 2}]}, "perspective_c4_y": {"Points": [{"co": {"X": 1, "Y": -1}, "interpolation": 2}]}, "position": 225.8119923019409, "reader": {"acodec": "", "audio_bit_rate": 0, "audio_stream_index": -1, "audio_timebase": {"den": 1, "num": 1}, "channel_layout": 4, "channels": 0, "display_ratio": {"den": 84, "num": 149}, "duration": 7.0, "file_size": "605172", "fps": {"den": 1, "num": 25}, "has_audio": false, "has_single_image": false, "has_video": true, "height": 336, "interlaced_frame": false, "path": "/home/diary/Desktop/\u041a\u043e\u043d\u0446\u0435\u043f\u0442\u044b/64. \u041f\u0440\u0438\u0447\u0438\u043d\u044b \u0431\u043e\u043b\u0435\u0437\u043d\u0435\u0439/video assets/1046167390-preview.mp4", "pixel_format": 0, "pixel_ratio": {"den": 1, "num": 1}, "sample_rate": 0, "top_field_first": true, "type": "FFmpegReader", "vcodec": "h264", "video_bit_rate": 691625, "video_length": "175", "video_stream_index": 0, "video_timebase": {"den": 12800, "num": 1}, "width": 596}, "rotation": {"Points": [{"co": {"X": 1, "Y": 0}, "interpolation": 2}]}, "scale": 1, "scale_x": {"Points": [{"co": {"X": 1, "Y": 1}, "interpolation": 2}]}, "scale_y": {"Points": [{"co": {"X": 1, "Y": 1}, "interpolation": 2}]}, "shear_x": {"Points": [{"co": {"X": 1, "Y": 0}, "interpolation": 2}]}, "shear_y": {"Points": [{"co": {"X": 1, "Y": 0}, "interpolation": 2}]}, "start": 0, "time": {"Points": [{"co": {"X": 1, "Y": 1}, "interpolation": 2}]}, "volume": {"Points": [{"co": {"X": 1, "Y": 1}, "interpolation": 2}]}, "wave_color": {"alpha": {"Points": [{"co": {"X": 1, "Y": 255}, "handle_left": {"X": 0.5, "Y": 1}, "handle_right": {"X": 0.5, "Y": 0}, "handle_type": 0, "interpolation": 0}]}, "blue": {"Points": [{"co": {"X": 1, "Y": 255}, "handle_left": {"X": 0.5, "Y": 1}, "handle_right": {"X": 0.5, "Y": 0}, "handle_type": 0, "interpolation": 0}]}, "green": {"Points": [{"co": {"X": 1, "Y": 123}, "handle_left": {"X": 0.5, "Y": 1}, "handle_right": {"X": 0.5, "Y": 0}, "handle_type": 0, "interpolation": 0}]}, "red": {"Points": [{"co": {"X": 1, "Y": 0}, "handle_left": {"X": 0.5, "Y": 1}, "handle_right": {"X": 0.5, "Y": 0}, "handle_type": 0, "interpolation": 0}]}}, "waveform": false, "file_id": "MJQYSRKC8R", "title": "1046167390-preview.mp4", "image": "/home/diary/.openshot_qt/thumbnail/MJQYSRKC8R.png"}, {"alpha": {"Points": [{"co": {"X": 1, "Y": 1}, "interpolation": 2}]}, "anchor": 0, "channel_filter": {"Points": [{"co": {"X": 1, "Y": -1}, "interpolation": 2}]}, "channel_mapping": {"Points": [{"co": {"X": 1, "Y": -1}, "interpolation": 2}]}, "crop_height": {"Points": [{"co": {"X": 1, "Y": -1}, "interpolation": 2}]}, "crop_width": {"Points": [{"co": {"X": 1, "Y": -1}, "interpolation": 2}]}, "crop_x": {"Points": [{"co": {"X": 1, "Y": 0}, "interpolation": 2}]}, "crop_y": {"Points": [{"co": {"X": 1, "Y": 0}, "interpolation": 2}]}, "display": 0, "duration": 23.333984375, "effects": [], "end": 23.333984375, "gravity": 4, "has_audio": {"Points": [{"co": {"X": 1, "Y": -1}, "interpolation": 2}]}, "has_video": {"Points": [{"co": {"X": 1, "Y": -1}, "interpolation": 2}]}, "id": "88LXJL99S5", "layer": 2, "location_x": {"Points": [{"co": {"X": 1, "Y": 0}, "interpolation": 2}]}, "location_y": {"Points": [{"co": {"X": 1, "Y": 0}, "interpolation": 2}]}, "perspective_c1_x": {"Points": [{"co": {"X": 1, "Y": -1}, "interpolation": 2}]}, "perspective_c1_y": {"Points": [{"co": {"X": 1, "Y": -1}, "interpolation": 2}]}, "perspective_c2_x": {"Points": [{"co": {"X": 1, "Y": -1}, "interpolation": 2}]}, "perspective_c2_y": {"Points": [{"co": {"X": 1, "Y": -1}, "interpolation": 2}]}, "perspective_c3_x": {"Points": [{"co": {"X": 1, "Y": -1}, "interpolation": 2}]}, "perspective_c3_y": {"Points": [{"co": {"X": 1, "Y": -1}, "interpolation": 2}]}, "perspective_c4_x": {"Points": [{"co": {"X": 1, "Y": -1}, "interpolation": 2}]}, "perspective_c4_y": {"Points": [{"co": {"X": 1, "Y": -1}, "interpolation": 2}]}, "position": 492, "reader": {"acodec": "", "audio_bit_rate": 0, "audio_stream_index": -1, "audio_timebase": {"den": 1, "num": 1}, "channel_layout": 4, "channels": 0, "display_ratio": {"den": 84, "num": 149}, "duration": 23.333984375, "file_size": "1912523", "fps": {"den": 1, "num": 30}, "has_audio": false, "has_single_image": false, "has_video": true, "height": 336, "interlaced_frame": false, "path": "/home/diary/Desktop/\u041a\u043e\u043d\u0446\u0435\u043f\u0442\u044b/64. \u041f\u0440\u0438\u0447\u0438\u043d\u044b \u0431\u043e\u043b\u0435\u0437\u043d\u0435\u0439/video assets/1046669254-preview.mp4", "pixel_format": 0, "pixel_ratio": {"den": 1, "num": 1}, "sample_rate": 0, "top_field_first": true, "type": "FFmpegReader", "vcodec": "h264", "video_bit_rate": 655703, "video_length": "700", "video_stream_index": 0, "video_timebase": {"den": 15360, "num": 1}, "width": 596}, "rotation": {"Points": [{"co": {"X": 1, "Y": 0}, "interpolation": 2}]}, "scale": 1, "scale_x": {"Points": [{"co": {"X": 1, "Y": 1}, "interpolation": 2}]}, "scale_y": {"Points": [{"co": {"X": 1, "Y": 1}, "interpolation": 2}]}, "shear_x": {"Points": [{"co": {"X": 1, "Y": 0}, "interpolation": 2}]}, "shear_y": {"Points": [{"co": {"X": 1, "Y": 0}, "interpolation": 2}]}, "start": 0, "time": {"Points": [{"co": {"X": 1, "Y": 1}, "interpolation": 2}]}, "volume": {"Points": [{"co": {"X": 1, "Y": 1}, "interpolation": 2}]}, "wave_color": {"alpha": {"Points": [{"co": {"X": 1, "Y": 255}, "handle_left": {"X": 0.5, "Y": 1}, "handle_right": {"X": 0.5, "Y": 0}, "handle_type": 0, "interpolation": 0}]}, "blue": {"Points": [{"co": {"X": 1, "Y": 255}, "handle_left": {"X": 0.5, "Y": 1}, "handle_right": {"X": 0.5, "Y": 0}, "handle_type": 0, "interpolation": 0}]}, "green": {"Points": [{"co": {"X": 1, "Y": 123}, "handle_left": {"X": 0.5, "Y": 1}, "handle_right": {"X": 0.5, "Y": 0}, "handle_type": 0, "interpolation": 0}]}, "red": {"Points": [{"co": {"X": 1, "Y": 0}, "handle_left": {"X": 0.5, "Y": 1}, "handle_right": {"X": 0.5, "Y": 0}, "handle_type": 0, "interpolation": 0}]}}, "waveform": false, "file_id": "2WNGMYMMB6", "title": "1046669254-preview.mp4", "image": "/home/diary/.openshot_qt/thumbnail/2WNGMYMMB6.png"}, {"alpha": {"Points": [{"co": {"X": 1, "Y": 1}, "interpolation": 2}]}, "anchor": 0, "channel_filter": {"Points": [{"co": {"X": 1, "Y": -1}, "interpolation": 2}]}, "channel_mapping": {"Points": [{"co": {"X": 1, "Y": -1}, "interpolation": 2}]}, "crop_height": {"Points": [{"co": {"X": 1, "Y": -1}, "interpolation": 2}]}, "crop_width": {"Points": [{"co": {"X": 1, "Y": -1}, "interpolation": 2}]}, "crop_x": {"Points": [{"co": {"X": 1, "Y": 0}, "interpolation": 2}]}, "crop_y": {"Points": [{"co": {"X": 1, "Y": 0}, "interpolation": 2}]}, "display": 0, "duration": 15.015000343322754, "effects": [], "end": 15.015000343322754, "gravity": 4, "has_audio": {"Points": [{"co": {"X": 1, "Y": -1}, "interpolation": 2}]}, "has_video": {"Points": [{"co": {"X": 1, "Y": -1}, "interpolation": 2}]}, "id": "NB6L1MNNM8", "layer": 1, "location_x": {"Points": [{"co": {"X": 1, "Y": 0}, "interpolation": 2}]}, "location_y": {"Points": [{"co": {"X": 1, "Y": 0}, "interpolation": 2}]}, "perspective_c1_x": {"Points": [{"co": {"X": 1, "Y": -1}, "interpolation": 2}]}, "perspective_c1_y": {"Points": [{"co": {"X": 1, "Y": -1}, "interpolation": 2}]}, "perspective_c2_x": {"Points": [{"co": {"X": 1, "Y": -1}, "interpolation": 2}]}, "perspective_c2_y": {"Points": [{"co": {"X": 1, "Y": -1}, "interpolation": 2}]}, "perspective_c3_x": {"Points": [{"co": {"X": 1, "Y": -1}, "interpolation": 2}]}, "perspective_c3_y": {"Points": [{"co": {"X": 1, "Y": -1}, "interpolation": 2}]}, "perspective_c4_x": {"Points": [{"co": {"X": 1, "Y": -1}, "interpolation": 2}]}, "perspective_c4_y": {"Points": [{"co": {"X": 1, "Y": -1}, "interpolation": 2}]}, "position": 492, "reader": {"acodec": "", "audio_bit_rate": 0, "audio_stream_index": -1, "audio_timebase": {"den": 1, "num": 1}, "channel_layout": 4, "channels": 0, "display_ratio": {"den": 84, "num": 149}, "duration": 15.015000343322754, "file_size": "1230915", "fps": {"den": 1001, "num": 24000}, "has_audio": false, "has_single_image": false, "has_video": true, "height": 336, "interlaced_frame": false, "path": "/home/diary/Desktop/\u041a\u043e\u043d\u0446\u0435\u043f\u0442\u044b/64. \u041f\u0440\u0438\u0447\u0438\u043d\u044b \u0431\u043e\u043b\u0435\u0437\u043d\u0435\u0439/video assets/1047425263-preview.mp4", "pixel_format": 0, "pixel_ratio": {"den": 1, "num": 1}, "sample_rate": 0, "top_field_first": true, "type": "FFmpegReader", "vcodec": "h264", "video_bit_rate": 655832, "video_length": "360", "video_stream_index": 0, "video_timebase": {"den": 24000, "num": 1}, "width": 596}, "rotation": {"Points": [{"co": {"X": 1, "Y": 0}, "interpolation": 2}]}, "scale": 1, "scale_x": {"Points": [{"co": {"X": 1, "Y": 1}, "interpolation": 2}]}, "scale_y": {"Points": [{"co": {"X": 1, "Y": 1}, "interpolation": 2}]}, "shear_x": {"Points": [{"co": {"X": 1, "Y": 0}, "interpolation": 2}]}, "shear_y": {"Points": [{"co": {"X": 1, "Y": 0}, "interpolation": 2}]}, "start": 0, "time": {"Points": [{"co": {"X": 1, "Y": 1}, "interpolation": 2}]}, "volume": {"Points": [{"co": {"X": 1, "Y": 1}, "interpolation": 2}]}, "wave_color": {"alpha": {"Points": [{"co": {"X": 1, "Y": 255}, "handle_left": {"X": 0.5, "Y": 1}, "handle_right": {"X": 0.5, "Y": 0}, "handle_type": 0, "interpolation": 0}]}, "blue": {"Points": [{"co": {"X": 1, "Y": 255}, "handle_left": {"X": 0.5, "Y": 1}, "handle_right": {"X": 0.5, "Y": 0}, "handle_type": 0, "interpolation": 0}]}, "green": {"Points": [{"co": {"X": 1, "Y": 123}, "handle_left": {"X": 0.5, "Y": 1}, "handle_right": {"X": 0.5, "Y": 0}, "handle_type": 0, "interpolation": 0}]}, "red": {"Points": [{"co": {"X": 1, "Y": 0}, "handle_left": {"X": 0.5, "Y": 1}, "handle_right": {"X": 0.5, "Y": 0}, "handle_type": 0, "interpolation": 0}]}}, "waveform": false, "file_id": "B97GWU5TU5", "title": "1047425263-preview.mp4", "image": "/home/diary/.openshot_qt/thumbnail/B97GWU5TU5.png"}, {"alpha": {"Points": [{"co": {"X": 1, "Y": 1}, "interpolation": 2}]}, "anchor": 0, "channel_filter": {"Points": [{"co": {"X": 1, "Y": -1}, "interpolation": 2}]}, "channel_mapping": {"Points": [{"co": {"X": 1, "Y": -1}, "interpolation": 2}]}, "crop_height": {"Points": [{"co": {"X": 1, "Y": -1}, "interpolation": 2}]}, "crop_width": {"Points": [{"co": {"X": 1, "Y": -1}, "interpolation": 2}]}, "crop_x": {"Points": [{"co": {"X": 1, "Y": 0}, "interpolation": 2}]}, "crop_y": {"Points": [{"co": {"X": 1, "Y": 0}, "interpolation": 2}]}, "display": 0, "duration": 23.333984375, "effects": [], "end": 23.333984375, "gravity": 4, "has_audio": {"Points": [{"co": {"X": 1, "Y": -1}, "interpolation": 2}]}, "has_video": {"Points": [{"co": {"X": 1, "Y": -1}, "interpolation": 2}]}, "id": "NR77C8ZFQT", "layer": 3, "location_x": {"Points": [{"co": {"X": 1, "Y": 0}, "interpolation": 2}]}, "location_y": {"Points": [{"co": {"X": 1, "Y": 0}, "interpolation": 2}]}, "perspective_c1_x": {"Points": [{"co": {"X": 1, "Y": -1}, "interpolation": 2}]}, "perspective_c1_y": {"Points": [{"co": {"X": 1, "Y": -1}, "interpolation": 2}]}, "perspective_c2_x": {"Points": [{"co": {"X": 1, "Y": -1}, "interpolation": 2}]}, "perspective_c2_y": {"Points": [{"co": {"X": 1, "Y": -1}, "interpolation": 2}]}, "perspective_c3_x": {"Points": [{"co": {"X": 1, "Y": -1}, "interpolation": 2}]}, "perspective_c3_y": {"Points": [{"co": {"X": 1, "Y": -1}, "interpolation": 2}]}, "perspective_c4_x": {"Points": [{"co": {"X": 1, "Y": -1}, "interpolation": 2}]}, "perspective_c4_y": {"Points": [{"co": {"X": 1, "Y": -1}, "interpolation": 2}]}, "position": 443.3875, "reader": {"acodec": "", "audio_bit_rate": 0, "audio_stream_index": -1, "audio_timebase": {"den": 1, "num": 1}, "channel_layout": 4, "channels": 0, "display_ratio": {"den": 84, "num": 149}, "duration": 23.333984375, "file_size": "2568585", "fps": {"den": 1, "num": 30}, "has_audio": false, "has_single_image": false, "has_video": true, "height": 336, "interlaced_frame": false, "path": "/home/diary/Desktop/\u041a\u043e\u043d\u0446\u0435\u043f\u0442\u044b/64. \u041f\u0440\u0438\u0447\u0438\u043d\u044b \u0431\u043e\u043b\u0435\u0437\u043d\u0435\u0439/video assets/1049558392-preview.mp4", "pixel_format": 0, "pixel_ratio": {"den": 1, "num": 1}, "sample_rate": 0, "top_field_first": true, "type": "FFmpegReader", "vcodec": "h264", "video_bit_rate": 880632, "video_length": "700", "video_stream_index": 0, "video_timebase": {"den": 15360, "num": 1}, "width": 596}, "rotation": {"Points": [{"co": {"X": 1, "Y": 0}, "interpolation": 2}]}, "scale": 1, "scale_x": {"Points": [{"co": {"X": 1, "Y": 1}, "interpolation": 2}]}, "scale_y": {"Points": [{"co": {"X": 1, "Y": 1}, "interpolation": 2}]}, "shear_x": {"Points": [{"co": {"X": 1, "Y": 0}, "interpolation": 2}]}, "shear_y": {"Points": [{"co": {"X": 1, "Y": 0}, "interpolation": 2}]}, "start": 0, "time": {"Points": [{"co": {"X": 1, "Y": 1}, "interpolation": 2}]}, "volume": {"Points": [{"co": {"X": 1, "Y": 1}, "interpolation": 2}]}, "wave_color": {"alpha": {"Points": [{"co": {"X": 1, "Y": 255}, "handle_left": {"X": 0.5, "Y": 1}, "handle_right": {"X": 0.5, "Y": 0}, "handle_type": 0, "interpolation": 0}]}, "blue": {"Points": [{"co": {"X": 1, "Y": 255}, "handle_left": {"X": 0.5, "Y": 1}, "handle_right": {"X": 0.5, "Y": 0}, "handle_type": 0, "interpolation": 0}]}, "green": {"Points": [{"co": {"X": 1, "Y": 123}, "handle_left": {"X": 0.5, "Y": 1}, "handle_right": {"X": 0.5, "Y": 0}, "handle_type": 0, "interpolation": 0}]}, "red": {"Points": [{"co": {"X": 1, "Y": 0}, "handle_left": {"X": 0.5, "Y": 1}, "handle_right": {"X": 0.5, "Y": 0}, "handle_type": 0, "interpolation": 0}]}}, "waveform": false, "file_id": "VENOL2QI0D", "title": "1049558392-preview.mp4", "image": "/home/diary/.openshot_qt/thumbnail/VENOL2QI0D.png"}, {"alpha": {"Points": [{"co": {"X": 1, "Y": 1}, "interpolation": 2}]}, "anchor": 0, "channel_filter": {"Points": [{"co": {"X": 1, "Y": -1}, "interpolation": 2}]}, "channel_mapping": {"Points": [{"co": {"X": 1, "Y": -1}, "interpolation": 2}]}, "crop_height": {"Points": [{"co": {"X": 1, "Y": -1}, "interpolation": 2}]}, "crop_width": {"Points": [{"co": {"X": 1, "Y": -1}, "interpolation": 2}]}, "crop_x": {"Points": [{"co": {"X": 1, "Y": 0}, "interpolation": 2}]}, "crop_y": {"Points": [{"co": {"X": 1, "Y": 0}, "interpolation": 2}]}, "display": 0, "duration": 12.5, "effects": [], "end": 12.5, "gravity": 4, "has_audio": {"Points": [{"co": {"X": 1, "Y": -1}, "interpolation": 2}]}, "has_video": {"Points": [{"co": {"X": 1, "Y": -1}, "interpolation": 2}]}, "id": "E8WDEU4D79", "layer": 1, "location_x": {"Points": [{"co": {"X": 1, "Y": 0}, "interpolation": 2}]}, "location_y": {"Points": [{"co": {"X": 1, "Y": 0}, "interpolation": 2}]}, "perspective_c1_x": {"Points": [{"co": {"X": 1, "Y": -1}, "interpolation": 2}]}, "perspective_c1_y": {"Points": [{"co": {"X": 1, "Y": -1}, "interpolation": 2}]}, "perspective_c2_x": {"Points": [{"co": {"X": 1, "Y": -1}, "interpolation": 2}]}, "perspective_c2_y": {"Points": [{"co": {"X": 1, "Y": -1}, "interpolation": 2}]}, "perspective_c3_x": {"Points": [{"co": {"X": 1, "Y": -1}, "interpolation": 2}]}, "perspective_c3_y": {"Points": [{"co": {"X": 1, "Y": -1}, "interpolation": 2}]}, "perspective_c4_x": {"Points": [{"co": {"X": 1, "Y": -1}, "interpolation": 2}]}, "perspective_c4_y": {"Points": [{"co": {"X": 1, "Y": -1}, "interpolation": 2}]}, "position": 458.72, "reader": {"acodec": "", "audio_bit_rate": 0, "audio_stream_index": -1, "audio_timebase": {"den": 1, "num": 1}, "channel_layout": 4, "channels": 0, "display_ratio": {"den": 84, "num": 149}, "duration": 12.5, "file_size": "1374542", "fps": {"den": 1, "num": 24}, "has_audio": false, "has_single_image": false, "has_video": true, "height": 336, "interlaced_frame": false, "path": "/home/diary/Desktop/\u041a\u043e\u043d\u0446\u0435\u043f\u0442\u044b/64. \u041f\u0440\u0438\u0447\u0438\u043d\u044b \u0431\u043e\u043b\u0435\u0437\u043d\u0435\u0439/video assets/1054044599-preview.mp4", "pixel_format": 0, "pixel_ratio": {"den": 1, "num": 1}, "sample_rate": 0, "top_field_first": true, "type": "FFmpegReader", "vcodec": "h264", "video_bit_rate": 879706, "video_length": "300", "video_stream_index": 0, "video_timebase": {"den": 12288, "num": 1}, "width": 596}, "rotation": {"Points": [{"co": {"X": 1, "Y": 0}, "interpolation": 2}]}, "scale": 1, "scale_x": {"Points": [{"co": {"X": 1, "Y": 1}, "interpolation": 2}]}, "scale_y": {"Points": [{"co": {"X": 1, "Y": 1}, "interpolation": 2}]}, "shear_x": {"Points": [{"co": {"X": 1, "Y": 0}, "interpolation": 2}]}, "shear_y": {"Points": [{"co": {"X": 1, "Y": 0}, "interpolation": 2}]}, "start": 0, "time": {"Points": [{"co": {"X": 1, "Y": 1}, "interpolation": 2}]}, "volume": {"Points": [{"co": {"X": 1, "Y": 1}, "interpolation": 2}]}, "wave_color": {"alpha": {"Points": [{"co": {"X": 1, "Y": 255}, "handle_left": {"X": 0.5, "Y": 1}, "handle_right": {"X": 0.5, "Y": 0}, "handle_type": 0, "interpolation": 0}]}, "blue": {"Points": [{"co": {"X": 1, "Y": 255}, "handle_left": {"X": 0.5, "Y": 1}, "handle_right": {"X": 0.5, "Y": 0}, "handle_type": 0, "interpolation": 0}]}, "green": {"Points": [{"co": {"X": 1, "Y": 123}, "handle_left": {"X": 0.5, "Y": 1}, "handle_right": {"X": 0.5, "Y": 0}, "handle_type": 0, "interpolation": 0}]}, "red": {"Points": [{"co": {"X": 1, "Y": 0}, "handle_left": {"X": 0.5, "Y": 1}, "handle_right": {"X": 0.5, "Y": 0}, "handle_type": 0, "interpolation": 0}]}}, "waveform": false, "file_id": "9Y73RSC2B4", "title": "1054044599-preview.mp4", "image": "/home/diary/.openshot_qt/thumbnail/9Y73RSC2B4.png"}, {"alpha": {"Points": [{"co": {"X": 1, "Y": 1}, "interpolation": 2}]}, "anchor": 0, "channel_filter": {"Points": [{"co": {"X": 1, "Y": -1}, "interpolation": 2}]}, "channel_mapping": {"Points": [{"co": {"X": 1, "Y": -1}, "interpolation": 2}]}, "crop_height": {"Points": [{"co": {"X": 1, "Y": -1}, "interpolation": 2}]}, "crop_width": {"Points": [{"co": {"X": 1, "Y": -1}, "interpolation": 2}]}, "crop_x": {"Points": [{"co": {"X": 1, "Y": 0}, "interpolation": 2}]}, "crop_y": {"Points": [{"co": {"X": 1, "Y": 0}, "interpolation": 2}]}, "display": 0, "duration": 86400.0, "effects": [], "end": 16.54, "gravity": 4, "has_audio": {"Points": [{"co": {"X": 1, "Y": -1}, "interpolation": 2}]}, "has_video": {"Points": [{"co": {"X": 1, "Y": -1}, "interpolation": 2}]}, "id": "ZYGACUIRPL", "layer": 4, "location_x": {"Points": [{"co": {"X": 1, "Y": 0}, "interpolation": 2}]}, "location_y": {"Points": [{"co": {"X": 1, "Y": 0}, "interpolation": 2}]}, "perspective_c1_x": {"Points": [{"co": {"X": 1, "Y": -1}, "interpolation": 2}]}, "perspective_c1_y": {"Points": [{"co": {"X": 1, "Y": -1}, "interpolation": 2}]}, "perspective_c2_x": {"Points": [{"co": {"X": 1, "Y": -1}, "interpolation": 2}]}, "perspective_c2_y": {"Points": [{"co": {"X": 1, "Y": -1}, "interpolation": 2}]}, "perspective_c3_x": {"Points": [{"co": {"X": 1, "Y": -1}, "interpolation": 2}]}, "perspective_c3_y": {"Points": [{"co": {"X": 1, "Y": -1}, "interpolation": 2}]}, "perspective_c4_x": {"Points": [{"co": {"X": 1, "Y": -1}, "interpolation": 2}]}, "perspective_c4_y": {"Points": [{"co": {"X": 1, "Y": -1}, "interpolation": 2}]}, "position": 29.5828125, "reader": {"acodec": "", "audio_bit_rate": 0, "audio_stream_index": -1, "audio_timebase": {"den": 1, "num": 1}, "channel_layout": 4, "channels": 0, "display_ratio": {"den": 275, "num": 499}, "duration": 86400.0, "file_size": "2195600", "fps": {"den": 1, "num": 30}, "has_audio": false, "has_single_image": true, "has_video": true, "height": 550, "interlaced_frame": false, "path": "/home/diary/Desktop/\u041a\u043e\u043d\u0446\u0435\u043f\u0442\u044b/64. \u041f\u0440\u0438\u0447\u0438\u043d\u044b \u0431\u043e\u043b\u0435\u0437\u043d\u0435\u0439/video assets/wrong stamp.png", "pixel_format": -1, "pixel_ratio": {"den": 1, "num": 1}, "sample_rate": 0, "top_field_first": true, "type": "QtImageReader", "vcodec": "", "video_bit_rate": 0, "video_length": "2592000", "video_stream_index": -1, "video_timebase": {"den": 30, "num": 1}, "width": 998}, "rotation": {"Points": [{"co": {"X": 1, "Y": 0}, "interpolation": 2}]}, "scale": 1, "scale_x": {"Points": [{"co": {"X": 1, "Y": 1}, "interpolation": 2}]}, "scale_y": {"Points": [{"co": {"X": 1, "Y": 1}, "interpolation": 2}]}, "shear_x": {"Points": [{"co": {"X": 1, "Y": 0}, "interpolation": 2}]}, "shear_y": {"Points": [{"co": {"X": 1, "Y": 0}, "interpolation": 2}]}, "start": 0, "time": {"Points": [{"co": {"X": 1, "Y": 1}, "interpolation": 2}]}, "volume": {"Points": [{"co": {"X": 1, "Y": 1}, "interpolation": 2}]}, "wave_color": {"alpha": {"Points": [{"co": {"X": 1, "Y": 255}, "handle_left": {"X": 0.5, "Y": 1}, "handle_right": {"X": 0.5, "Y": 0}, "handle_type": 0, "interpolation": 0}]}, "blue": {"Points": [{"co": {"X": 1, "Y": 255}, "handle_left": {"X": 0.5, "Y": 1}, "handle_right": {"X": 0.5, "Y": 0}, "handle_type": 0, "interpolation": 0}]}, "green": {"Points": [{"co": {"X": 1, "Y": 123}, "handle_left": {"X": 0.5, "Y": 1}, "handle_right": {"X": 0.5, "Y": 0}, "handle_type": 0, "interpolation": 0}]}, "red": {"Points": [{"co": {"X": 1, "Y": 0}, "handle_left": {"X": 0.5, "Y": 1}, "handle_right": {"X": 0.5, "Y": 0}, "handle_type": 0, "interpolation": 0}]}}, "waveform": false, "file_id": "0VXG5ZD080", "title": "wrong stamp.png", "image": "/home/diary/.openshot_qt/thumbnail/0VXG5ZD080.png"}, {"alpha": {"Points": [{"co": {"X": 1, "Y": 1}, "interpolation": 2}]}, "anchor": 0, "channel_filter": {"Points": [{"co": {"X": 1, "Y": -1}, "interpolation": 2}]}, "channel_mapping": {"Points": [{"co": {"X": 1, "Y": -1}, "interpolation": 2}]}, "crop_height": {"Points": [{"co": {"X": 1, "Y": -1}, "interpolation": 2}]}, "crop_width": {"Points": [{"co": {"X": 1, "Y": -1}, "interpolation": 2}]}, "crop_x": {"Points": [{"co": {"X": 1, "Y": 0}, "interpolation": 2}]}, "crop_y": {"Points": [{"co": {"X": 1, "Y": 0}, "interpolation": 2}]}, "display": 0, "duration": 86400.0, "effects": [], "end": 16.48, "gravity": 4, "has_audio": {"Points": [{"co": {"X": 1, "Y": -1}, "interpolation": 2}]}, "has_video": {"Points": [{"co": {"X": 1, "Y": -1}, "interpolation": 2}]}, "id": "88CYT0B0HE", "layer": 4, "location_x": {"Points": [{"co": {"X": 1, "Y": 0}, "interpolation": 2}]}, "location_y": {"Points": [{"co": {"X": 1, "Y": 0}, "interpolation": 2}]}, "perspective_c1_x": {"Points": [{"co": {"X": 1, "Y": -1}, "interpolation": 2}]}, "perspective_c1_y": {"Points": [{"co": {"X": 1, "Y": -1}, "interpolation": 2}]}, "perspective_c2_x": {"Points": [{"co": {"X": 1, "Y": -1}, "interpolation": 2}]}, "perspective_c2_y": {"Points": [{"co": {"X": 1, "Y": -1}, "interpolation": 2}]}, "perspective_c3_x": {"Points": [{"co": {"X": 1, "Y": -1}, "interpolation": 2}]}, "perspective_c3_y": {"Points": [{"co": {"X": 1, "Y": -1}, "interpolation": 2}]}, "perspective_c4_x": {"Points": [{"co": {"X": 1, "Y": -1}, "interpolation": 2}]}, "perspective_c4_y": {"Points": [{"co": {"X": 1, "Y": -1}, "interpolation": 2}]}, "position": 54.059999999999995, "reader": {"acodec": "", "audio_bit_rate": 0, "audio_stream_index": -1, "audio_timebase": {"den": 1, "num": 1}, "channel_layout": 4, "channels": 0, "display_ratio": {"den": 275, "num": 499}, "duration": 86400.0, "file_size": "2195600", "fps": {"den": 1, "num": 30}, "has_audio": false, "has_single_image": true, "has_video": true, "height": 550, "interlaced_frame": false, "path": "/home/diary/Desktop/\u041a\u043e\u043d\u0446\u0435\u043f\u0442\u044b/64. \u041f\u0440\u0438\u0447\u0438\u043d\u044b \u0431\u043e\u043b\u0435\u0437\u043d\u0435\u0439/video assets/wrong stamp.png", "pixel_format": -1, "pixel_ratio": {"den": 1, "num": 1}, "sample_rate": 0, "top_field_first": true, "type": "QtImageReader", "vcodec": "", "video_bit_rate": 0, "video_length": "2592000", "video_stream_index": -1, "video_timebase": {"den": 30, "num": 1}, "width": 998}, "rotation": {"Points": [{"co": {"X": 1, "Y": 0}, "interpolation": 2}]}, "scale": 1, "scale_x": {"Points": [{"co": {"X": 1, "Y": 1}, "interpolation": 2}]}, "scale_y": {"Points": [{"co": {"X": 1, "Y": 1}, "interpolation": 2}]}, "shear_x": {"Points": [{"co": {"X": 1, "Y": 0}, "interpolation": 2}]}, "shear_y": {"Points": [{"co": {"X": 1, "Y": 0}, "interpolation": 2}]}, "start": 0, "time": {"Points": [{"co": {"X": 1, "Y": 1}, "interpolation": 2}]}, "volume": {"Points": [{"co": {"X": 1, "Y": 1}, "interpolation": 2}]}, "wave_color": {"alpha": {"Points": [{"co": {"X": 1, "Y": 255}, "handle_left": {"X": 0.5, "Y": 1}, "handle_right": {"X": 0.5, "Y": 0}, "handle_type": 0, "interpolation": 0}]}, "blue": {"Points": [{"co": {"X": 1, "Y": 255}, "handle_left": {"X": 0.5, "Y": 1}, "handle_right": {"X": 0.5, "Y": 0}, "handle_type": 0, "interpolation": 0}]}, "green": {"Points": [{"co": {"X": 1, "Y": 123}, "handle_left": {"X": 0.5, "Y": 1}, "handle_right": {"X": 0.5, "Y": 0}, "handle_type": 0, "interpolation": 0}]}, "red": {"Points": [{"co": {"X": 1, "Y": 0}, "handle_left": {"X": 0.5, "Y": 1}, "handle_right": {"X": 0.5, "Y": 0}, "handle_type": 0, "interpolation": 0}]}}, "waveform": false, "file_id": "0VXG5ZD080", "title": "wrong stamp.png", "image": "/home/diary/.openshot_qt/thumbnail/0VXG5ZD080.png"}, {"alpha": {"Points": [{"co": {"X": 1, "Y": 1}, "interpolation": 2}]}, "anchor": 0, "channel_filter": {"Points": [{"co": {"X": 1, "Y": -1}, "interpolation": 2}]}, "channel_mapping": {"Points": [{"co": {"X": 1, "Y": -1}, "interpolation": 2}]}, "crop_height": {"Points": [{"co": {"X": 1, "Y": -1}, "interpolation": 2}]}, "crop_width": {"Points": [{"co": {"X": 1, "Y": -1}, "interpolation": 2}]}, "crop_x": {"Points": [{"co": {"X": 1, "Y": 0}, "interpolation": 2}]}, "crop_y": {"Points": [{"co": {"X": 1, "Y": 0}, "interpolation": 2}]}, "display": 0, "duration": 86400.0, "effects": [], "end": 10, "gravity": 4, "has_audio": {"Points": [{"co": {"X": 1, "Y": -1}, "interpolation": 2}]}, "has_video": {"Points": [{"co": {"X": 1, "Y": -1}, "interpolation": 2}]}, "id": "7NXRR1UD6W", "layer": 4, "location_x": {"Points": [{"co": {"X": 1, "Y": 0}, "interpolation": 2}]}, "location_y": {"Points": [{"co": {"X": 1, "Y": 0}, "interpolation": 2}]}, "perspective_c1_x": {"Points": [{"co": {"X": 1, "Y": -1}, "interpolation": 2}]}, "perspective_c1_y": {"Points": [{"co": {"X": 1, "Y": -1}, "interpolation": 2}]}, "perspective_c2_x": {"Points": [{"co": {"X": 1, "Y": -1}, "interpolation": 2}]}, "perspective_c2_y": {"Points": [{"co": {"X": 1, "Y": -1}, "interpolation": 2}]}, "perspective_c3_x": {"Points": [{"co": {"X": 1, "Y": -1}, "interpolation": 2}]}, "perspective_c3_y": {"Points": [{"co": {"X": 1, "Y": -1}, "interpolation": 2}]}, "perspective_c4_x": {"Points": [{"co": {"X": 1, "Y": -1}, "interpolation": 2}]}, "perspective_c4_y": {"Points": [{"co": {"X": 1, "Y": -1}, "interpolation": 2}]}, "position": 75.3406245803833, "reader": {"acodec": "", "audio_bit_rate": 0, "audio_stream_index": -1, "audio_timebase": {"den": 1, "num": 1}, "channel_layout": 4, "channels": 0, "display_ratio": {"den": 275, "num": 499}, "duration": 86400.0, "file_size": "2195600", "fps": {"den": 1, "num": 30}, "has_audio": false, "has_single_image": true, "has_video": true, "height": 550, "interlaced_frame": false, "path": "/home/diary/Desktop/\u041a\u043e\u043d\u0446\u0435\u043f\u0442\u044b/64. \u041f\u0440\u0438\u0447\u0438\u043d\u044b \u0431\u043e\u043b\u0435\u0437\u043d\u0435\u0439/video assets/wrong stamp.png", "pixel_format": -1, "pixel_ratio": {"den": 1, "num": 1}, "sample_rate": 0, "top_field_first": true, "type": "QtImageReader", "vcodec": "", "video_bit_rate": 0, "video_length": "2592000", "video_stream_index": -1, "video_timebase": {"den": 30, "num": 1}, "width": 998}, "rotation": {"Points": [{"co": {"X": 1, "Y": 0}, "interpolation": 2}]}, "scale": 1, "scale_x": {"Points": [{"co": {"X": 1, "Y": 1}, "interpolation": 2}]}, "scale_y": {"Points": [{"co": {"X": 1, "Y": 1}, "interpolation": 2}]}, "shear_x": {"Points": [{"co": {"X": 1, "Y": 0}, "interpolation": 2}]}, "shear_y": {"Points": [{"co": {"X": 1, "Y": 0}, "interpolation": 2}]}, "start": 0, "time": {"Points": [{"co": {"X": 1, "Y": 1}, "interpolation": 2}]}, "volume": {"Points": [{"co": {"X": 1, "Y": 1}, "interpolation": 2}]}, "wave_color": {"alpha": {"Points": [{"co": {"X": 1, "Y": 255}, "handle_left": {"X": 0.5, "Y": 1}, "handle_right": {"X": 0.5, "Y": 0}, "handle_type": 0, "interpolation": 0}]}, "blue": {"Points": [{"co": {"X": 1, "Y": 255}, "handle_left": {"X": 0.5, "Y": 1}, "handle_right": {"X": 0.5, "Y": 0}, "handle_type": 0, "interpolation": 0}]}, "green": {"Points": [{"co": {"X": 1, "Y": 123}, "handle_left": {"X": 0.5, "Y": 1}, "handle_right": {"X": 0.5, "Y": 0}, "handle_type": 0, "interpolation": 0}]}, "red": {"Points": [{"co": {"X": 1, "Y": 0}, "handle_left": {"X": 0.5, "Y": 1}, "handle_right": {"X": 0.5, "Y": 0}, "handle_type": 0, "interpolation": 0}]}}, "waveform": false, "file_id": "0VXG5ZD080", "title": "wrong stamp.png", "image": "/home/diary/.openshot_qt/thumbnail/0VXG5ZD080.png"}, {"alpha": {"Points": [{"co": {"X": 1, "Y": 1}, "interpolation": 2}]}, "anchor": 0, "channel_filter": {"Points": [{"co": {"X": 1, "Y": -1}, "interpolation": 2}]}, "channel_mapping": {"Points": [{"co": {"X": 1, "Y": -1}, "interpolation": 2}]}, "crop_height": {"Points": [{"co": {"X": 1, "Y": -1}, "interpolation": 2}]}, "crop_width": {"Points": [{"co": {"X": 1, "Y": -1}, "interpolation": 2}]}, "crop_x": {"Points": [{"co": {"X": 1, "Y": 0}, "interpolation": 2}]}, "crop_y": {"Points": [{"co": {"X": 1, "Y": 0}, "interpolation": 2}]}, "display": 0, "duration": 86400.0, "effects": [], "end": 36.99999999999999, "gravity": 4, "has_audio": {"Points": [{"co": {"X": 1, "Y": -1}, "interpolation": 2}]}, "has_video": {"Points": [{"co": {"X": 1, "Y": -1}, "interpolation": 2}]}, "id": "HTFUKU1BH6", "layer": 4, "location_x": {"Points": [{"co": {"X": 1, "Y": 0}, "interpolation": 2}]}, "location_y": {"Points": [{"co": {"X": 1, "Y": 0}, "interpolation": 2}]}, "perspective_c1_x": {"Points": [{"co": {"X": 1, "Y": -1}, "interpolation": 2}]}, "perspective_c1_y": {"Points": [{"co": {"X": 1, "Y": -1}, "interpolation": 2}]}, "perspective_c2_x": {"Points": [{"co": {"X": 1, "Y": -1}, "interpolation": 2}]}, "perspective_c2_y": {"Points": [{"co": {"X": 1, "Y": -1}, "interpolation": 2}]}, "perspective_c3_x": {"Points": [{"co": {"X": 1, "Y": -1}, "interpolation": 2}]}, "perspective_c3_y": {"Points": [{"co": {"X": 1, "Y": -1}, "interpolation": 2}]}, "perspective_c4_x": {"Points": [{"co": {"X": 1, "Y": -1}, "interpolation": 2}]}, "perspective_c4_y": {"Points": [{"co": {"X": 1, "Y": -1}, "interpolation": 2}]}, "position": 94.74, "reader": {"acodec": "", "audio_bit_rate": 0, "audio_stream_index": -1, "audio_timebase": {"den": 1, "num": 1}, "channel_layout": 4, "channels": 0, "display_ratio": {"den": 275, "num": 499}, "duration": 86400.0, "file_size": "2195600", "fps": {"den": 1, "num": 30}, "has_audio": false, "has_single_image": true, "has_video": true, "height": 550, "interlaced_frame": false, "path": "/home/diary/Desktop/\u041a\u043e\u043d\u0446\u0435\u043f\u0442\u044b/64. \u041f\u0440\u0438\u0447\u0438\u043d\u044b \u0431\u043e\u043b\u0435\u0437\u043d\u0435\u0439/video assets/wrong stamp.png", "pixel_format": -1, "pixel_ratio": {"den": 1, "num": 1}, "sample_rate": 0, "top_field_first": true, "type": "QtImageReader", "vcodec": "", "video_bit_rate": 0, "video_length": "2592000", "video_stream_index": -1, "video_timebase": {"den": 30, "num": 1}, "width": 998}, "rotation": {"Points": [{"co": {"X": 1, "Y": 0}, "interpolation": 2}]}, "scale": 1, "scale_x": {"Points": [{"co": {"X": 1, "Y": 1}, "interpolation": 2}]}, "scale_y": {"Points": [{"co": {"X": 1, "Y": 1}, "interpolation": 2}]}, "shear_x": {"Points": [{"co": {"X": 1, "Y": 0}, "interpolation": 2}]}, "shear_y": {"Points": [{"co": {"X": 1, "Y": 0}, "interpolation": 2}]}, "start": 0, "time": {"Points": [{"co": {"X": 1, "Y": 1}, "interpolation": 2}]}, "volume": {"Points": [{"co": {"X": 1, "Y": 1}, "interpolation": 2}]}, "wave_color": {"alpha": {"Points": [{"co": {"X": 1, "Y": 255}, "handle_left": {"X": 0.5, "Y": 1}, "handle_right": {"X": 0.5, "Y": 0}, "handle_type": 0, "interpolation": 0}]}, "blue": {"Points": [{"co": {"X": 1, "Y": 255}, "handle_left": {"X": 0.5, "Y": 1}, "handle_right": {"X": 0.5, "Y": 0}, "handle_type": 0, "interpolation": 0}]}, "green": {"Points": [{"co": {"X": 1, "Y": 123}, "handle_left": {"X": 0.5, "Y": 1}, "handle_right": {"X": 0.5, "Y": 0}, "handle_type": 0, "interpolation": 0}]}, "red": {"Points": [{"co": {"X": 1, "Y": 0}, "handle_left": {"X": 0.5, "Y": 1}, "handle_right": {"X": 0.5, "Y": 0}, "handle_type": 0, "interpolation": 0}]}}, "waveform": false, "file_id": "0VXG5ZD080", "title": "wrong stamp.png", "image": "/home/diary/.openshot_qt/thumbnail/0VXG5ZD080.png"}, {"alpha": {"Points": [{"co": {"X": 1, "Y": 1}, "interpolation": 2}]}, "anchor": 0, "channel_filter": {"Points": [{"co": {"X": 1, "Y": -1}, "interpolation": 2}]}, "channel_mapping": {"Points": [{"co": {"X": 1, "Y": -1}, "interpolation": 2}]}, "crop_height": {"Points": [{"co": {"X": 1, "Y": -1}, "interpolation": 2}]}, "crop_width": {"Points": [{"co": {"X": 1, "Y": -1}, "interpolation": 2}]}, "crop_x": {"Points": [{"co": {"X": 1, "Y": 0}, "interpolation": 2}]}, "crop_y": {"Points": [{"co": {"X": 1, "Y": 0}, "interpolation": 2}]}, "display": 0, "duration": 86400.0, "effects": [], "end": 10, "gravity": 4, "has_audio": {"Points": [{"co": {"X": 1, "Y": -1}, "interpolation": 2}]}, "has_video": {"Points": [{"co": {"X": 1, "Y": -1}, "interpolation": 2}]}, "id": "RWY6RH8HVY", "layer": 4, "location_x": {"Points": [{"co": {"X": 1, "Y": 0}, "interpolation": 2}]}, "location_y": {"Points": [{"co": {"X": 1, "Y": 0}, "interpolation": 2}]}, "perspective_c1_x": {"Points": [{"co": {"X": 1, "Y": -1}, "interpolation": 2}]}, "perspective_c1_y": {"Points": [{"co": {"X": 1, "Y": -1}, "interpolation": 2}]}, "perspective_c2_x": {"Points": [{"co": {"X": 1, "Y": -1}, "interpolation": 2}]}, "perspective_c2_y": {"Points": [{"co": {"X": 1, "Y": -1}, "interpolation": 2}]}, "perspective_c3_x": {"Points": [{"co": {"X": 1, "Y": -1}, "interpolation": 2}]}, "perspective_c3_y": {"Points": [{"co": {"X": 1, "Y": -1}, "interpolation": 2}]}, "perspective_c4_x": {"Points": [{"co": {"X": 1, "Y": -1}, "interpolation": 2}]}, "perspective_c4_y": {"Points": [{"co": {"X": 1, "Y": -1}, "interpolation": 2}]}, "position": 135.220625, "reader": {"acodec": "", "audio_bit_rate": 0, "audio_stream_index": -1, "audio_timebase": {"den": 1, "num": 1}, "channel_layout": 4, "channels": 0, "display_ratio": {"den": 275, "num": 499}, "duration": 86400.0, "file_size": "2195600", "fps": {"den": 1, "num": 30}, "has_audio": false, "has_single_image": true, "has_video": true, "height": 550, "interlaced_frame": false, "path": "/home/diary/Desktop/\u041a\u043e\u043d\u0446\u0435\u043f\u0442\u044b/64. \u041f\u0440\u0438\u0447\u0438\u043d\u044b \u0431\u043e\u043b\u0435\u0437\u043d\u0435\u0439/video assets/wrong stamp.png", "pixel_format": -1, "pixel_ratio": {"den": 1, "num": 1}, "sample_rate": 0, "top_field_first": true, "type": "QtImageReader", "vcodec": "", "video_bit_rate": 0, "video_length": "2592000", "video_stream_index": -1, "video_timebase": {"den": 30, "num": 1}, "width": 998}, "rotation": {"Points": [{"co": {"X": 1, "Y": 0}, "interpolation": 2}]}, "scale": 1, "scale_x": {"Points": [{"co": {"X": 1, "Y": 1}, "interpolation": 2}]}, "scale_y": {"Points": [{"co": {"X": 1, "Y": 1}, "interpolation": 2}]}, "shear_x": {"Points": [{"co": {"X": 1, "Y": 0}, "interpolation": 2}]}, "shear_y": {"Points": [{"co": {"X": 1, "Y": 0}, "interpolation": 2}]}, "start": 0, "time": {"Points": [{"co": {"X": 1, "Y": 1}, "interpolation": 2}]}, "volume": {"Points": [{"co": {"X": 1, "Y": 1}, "interpolation": 2}]}, "wave_color": {"alpha": {"Points": [{"co": {"X": 1, "Y": 255}, "handle_left": {"X": 0.5, "Y": 1}, "handle_right": {"X": 0.5, "Y": 0}, "handle_type": 0, "interpolation": 0}]}, "blue": {"Points": [{"co": {"X": 1, "Y": 255}, "handle_left": {"X": 0.5, "Y": 1}, "handle_right": {"X": 0.5, "Y": 0}, "handle_type": 0, "interpolation": 0}]}, "green": {"Points": [{"co": {"X": 1, "Y": 123}, "handle_left": {"X": 0.5, "Y": 1}, "handle_right": {"X": 0.5, "Y": 0}, "handle_type": 0, "interpolation": 0}]}, "red": {"Points": [{"co": {"X": 1, "Y": 0}, "handle_left": {"X": 0.5, "Y": 1}, "handle_right": {"X": 0.5, "Y": 0}, "handle_type": 0, "interpolation": 0}]}}, "waveform": false, "file_id": "0VXG5ZD080", "title": "wrong stamp.png", "image": "/home/diary/.openshot_qt/thumbnail/0VXG5ZD080.png"}, {"alpha": {"Points": [{"co": {"X": 1, "Y": 1}, "interpolation": 2}]}, "anchor": 0, "channel_filter": {"Points": [{"co": {"X": 1, "Y": -1}, "interpolation": 2}]}, "channel_mapping": {"Points": [{"co": {"X": 1, "Y": -1}, "interpolation": 2}]}, "crop_height": {"Points": [{"co": {"X": 1, "Y": -1}, "interpolation": 2}]}, "crop_width": {"Points": [{"co": {"X": 1, "Y": -1}, "interpolation": 2}]}, "crop_x": {"Points": [{"co": {"X": 1, "Y": 0}, "interpolation": 2}]}, "crop_y": {"Points": [{"co": {"X": 1, "Y": 0}, "interpolation": 2}]}, "display": 0, "duration": 86400.0, "effects": [], "end": 10, "gravity": 4, "has_audio": {"Points": [{"co": {"X": 1, "Y": -1}, "interpolation": 2}]}, "has_video": {"Points": [{"co": {"X": 1, "Y": -1}, "interpolation": 2}]}, "id": "PWDFICFP8Y", "layer": 4, "location_x": {"Points": [{"co": {"X": 1, "Y": 0}, "interpolation": 2}]}, "location_y": {"Points": [{"co": {"X": 1, "Y": 0}, "interpolation": 2}]}, "perspective_c1_x": {"Points": [{"co": {"X": 1, "Y": -1}, "interpolation": 2}]}, "perspective_c1_y": {"Points": [{"co": {"X": 1, "Y": -1}, "interpolation": 2}]}, "perspective_c2_x": {"Points": [{"co": {"X": 1, "Y": -1}, "interpolation": 2}]}, "perspective_c2_y": {"Points": [{"co": {"X": 1, "Y": -1}, "interpolation": 2}]}, "perspective_c3_x": {"Points": [{"co": {"X": 1, "Y": -1}, "interpolation": 2}]}, "perspective_c3_y": {"Points": [{"co": {"X": 1, "Y": -1}, "interpolation": 2}]}, "perspective_c4_x": {"Points": [{"co": {"X": 1, "Y": -1}, "interpolation": 2}]}, "perspective_c4_y": {"Points": [{"co": {"X": 1, "Y": -1}, "interpolation": 2}]}, "position": 152.220625, "reader": {"acodec": "", "audio_bit_rate": 0, "audio_stream_index": -1, "audio_timebase": {"den": 1, "num": 1}, "channel_layout": 4, "channels": 0, "display_ratio": {"den": 275, "num": 499}, "duration": 86400.0, "file_size": "2195600", "fps": {"den": 1, "num": 30}, "has_audio": false, "has_single_image": true, "has_video": true, "height": 550, "interlaced_frame": false, "path": "/home/diary/Desktop/\u041a\u043e\u043d\u0446\u0435\u043f\u0442\u044b/64. \u041f\u0440\u0438\u0447\u0438\u043d\u044b \u0431\u043e\u043b\u0435\u0437\u043d\u0435\u0439/video assets/wrong stamp.png", "pixel_format": -1, "pixel_ratio": {"den": 1, "num": 1}, "sample_rate": 0, "top_field_first": true, "type": "QtImageReader", "vcodec": "", "video_bit_rate": 0, "video_length": "2592000", "video_stream_index": -1, "video_timebase": {"den": 30, "num": 1}, "width": 998}, "rotation": {"Points": [{"co": {"X": 1, "Y": 0}, "interpolation": 2}]}, "scale": 1, "scale_x": {"Points": [{"co": {"X": 1, "Y": 1}, "interpolation": 2}]}, "scale_y": {"Points": [{"co": {"X": 1, "Y": 1}, "interpolation": 2}]}, "shear_x": {"Points": [{"co": {"X": 1, "Y": 0}, "interpolation": 2}]}, "shear_y": {"Points": [{"co": {"X": 1, "Y": 0}, "interpolation": 2}]}, "start": 0, "time": {"Points": [{"co": {"X": 1, "Y": 1}, "interpolation": 2}]}, "volume": {"Points": [{"co": {"X": 1, "Y": 1}, "interpolation": 2}]}, "wave_color": {"alpha": {"Points": [{"co": {"X": 1, "Y": 255}, "handle_left": {"X": 0.5, "Y": 1}, "handle_right": {"X": 0.5, "Y": 0}, "handle_type": 0, "interpolation": 0}]}, "blue": {"Points": [{"co": {"X": 1, "Y": 255}, "handle_left": {"X": 0.5, "Y": 1}, "handle_right": {"X": 0.5, "Y": 0}, "handle_type": 0, "interpolation": 0}]}, "green": {"Points": [{"co": {"X": 1, "Y": 123}, "handle_left": {"X": 0.5, "Y": 1}, "handle_right": {"X": 0.5, "Y": 0}, "handle_type": 0, "interpolation": 0}]}, "red": {"Points": [{"co": {"X": 1, "Y": 0}, "handle_left": {"X": 0.5, "Y": 1}, "handle_right": {"X": 0.5, "Y": 0}, "handle_type": 0, "interpolation": 0}]}}, "waveform": false, "file_id": "0VXG5ZD080", "title": "wrong stamp.png", "image": "/home/diary/.openshot_qt/thumbnail/0VXG5ZD080.png"}, {"alpha": {"Points": [{"co": {"X": 1, "Y": 1}, "interpolation": 2}]}, "anchor": 0, "channel_filter": {"Points": [{"co": {"X": 1, "Y": -1}, "interpolation": 2}]}, "channel_mapping": {"Points": [{"co": {"X": 1, "Y": -1}, "interpolation": 2}]}, "crop_height": {"Points": [{"co": {"X": 1, "Y": -1}, "interpolation": 2}]}, "crop_width": {"Points": [{"co": {"X": 1, "Y": -1}, "interpolation": 2}]}, "crop_x": {"Points": [{"co": {"X": 1, "Y": 0}, "interpolation": 2}]}, "crop_y": {"Points": [{"co": {"X": 1, "Y": 0}, "interpolation": 2}]}, "display": 0, "duration": 86400.0, "effects": [], "end": 7.66, "gravity": 4, "has_audio": {"Points": [{"co": {"X": 1, "Y": -1}, "interpolation": 2}]}, "has_video": {"Points": [{"co": {"X": 1, "Y": -1}, "interpolation": 2}]}, "id": "O8GAJXM1S6", "layer": 4, "location_x": {"Points": [{"co": {"X": 1, "Y": 0}, "interpolation": 2}]}, "location_y": {"Points": [{"co": {"X": 1, "Y": 0}, "interpolation": 2}]}, "perspective_c1_x": {"Points": [{"co": {"X": 1, "Y": -1}, "interpolation": 2}]}, "perspective_c1_y": {"Points": [{"co": {"X": 1, "Y": -1}, "interpolation": 2}]}, "perspective_c2_x": {"Points": [{"co": {"X": 1, "Y": -1}, "interpolation": 2}]}, "perspective_c2_y": {"Points": [{"co": {"X": 1, "Y": -1}, "interpolation": 2}]}, "perspective_c3_x": {"Points": [{"co": {"X": 1, "Y": -1}, "interpolation": 2}]}, "perspective_c3_y": {"Points": [{"co": {"X": 1, "Y": -1}, "interpolation": 2}]}, "perspective_c4_x": {"Points": [{"co": {"X": 1, "Y": -1}, "interpolation": 2}]}, "perspective_c4_y": {"Points": [{"co": {"X": 1, "Y": -1}, "interpolation": 2}]}, "position": 164.48062499999997, "reader": {"acodec": "", "audio_bit_rate": 0, "audio_stream_index": -1, "audio_timebase": {"den": 1, "num": 1}, "channel_layout": 4, "channels": 0, "display_ratio": {"den": 275, "num": 499}, "duration": 86400.0, "file_size": "2195600", "fps": {"den": 1, "num": 30}, "has_audio": false, "has_single_image": true, "has_video": true, "height": 550, "interlaced_frame": false, "path": "/home/diary/Desktop/\u041a\u043e\u043d\u0446\u0435\u043f\u0442\u044b/64. \u041f\u0440\u0438\u0447\u0438\u043d\u044b \u0431\u043e\u043b\u0435\u0437\u043d\u0435\u0439/video assets/wrong stamp.png", "pixel_format": -1, "pixel_ratio": {"den": 1, "num": 1}, "sample_rate": 0, "top_field_first": true, "type": "QtImageReader", "vcodec": "", "video_bit_rate": 0, "video_length": "2592000", "video_stream_index": -1, "video_timebase": {"den": 30, "num": 1}, "width": 998}, "rotation": {"Points": [{"co": {"X": 1, "Y": 0}, "interpolation": 2}]}, "scale": 1, "scale_x": {"Points": [{"co": {"X": 1, "Y": 1}, "interpolation": 2}]}, "scale_y": {"Points": [{"co": {"X": 1, "Y": 1}, "interpolation": 2}]}, "shear_x": {"Points": [{"co": {"X": 1, "Y": 0}, "interpolation": 2}]}, "shear_y": {"Points": [{"co": {"X": 1, "Y": 0}, "interpolation": 2}]}, "start": 0, "time": {"Points": [{"co": {"X": 1, "Y": 1}, "interpolation": 2}]}, "volume": {"Points": [{"co": {"X": 1, "Y": 1}, "interpolation": 2}]}, "wave_color": {"alpha": {"Points": [{"co": {"X": 1, "Y": 255}, "handle_left": {"X": 0.5, "Y": 1}, "handle_right": {"X": 0.5, "Y": 0}, "handle_type": 0, "interpolation": 0}]}, "blue": {"Points": [{"co": {"X": 1, "Y": 255}, "handle_left": {"X": 0.5, "Y": 1}, "handle_right": {"X": 0.5, "Y": 0}, "handle_type": 0, "interpolation": 0}]}, "green": {"Points": [{"co": {"X": 1, "Y": 123}, "handle_left": {"X": 0.5, "Y": 1}, "handle_right": {"X": 0.5, "Y": 0}, "handle_type": 0, "interpolation": 0}]}, "red": {"Points": [{"co": {"X": 1, "Y": 0}, "handle_left": {"X": 0.5, "Y": 1}, "handle_right": {"X": 0.5, "Y": 0}, "handle_type": 0, "interpolation": 0}]}}, "waveform": false, "file_id": "0VXG5ZD080", "title": "wrong stamp.png", "image": "/home/diary/.openshot_qt/thumbnail/0VXG5ZD080.png"}, {"alpha": {"Points": [{"co": {"X": 1, "Y": 1}, "interpolation": 2}]}, "anchor": 0, "channel_filter": {"Points": [{"co": {"X": 1, "Y": -1}, "interpolation": 2}]}, "channel_mapping": {"Points": [{"co": {"X": 1, "Y": -1}, "interpolation": 2}]}, "crop_height": {"Points": [{"co": {"X": 1, "Y": -1}, "interpolation": 2}]}, "crop_width": {"Points": [{"co": {"X": 1, "Y": -1}, "interpolation": 2}]}, "crop_x": {"Points": [{"co": {"X": 1, "Y": 0}, "interpolation": 2}]}, "crop_y": {"Points": [{"co": {"X": 1, "Y": 0}, "interpolation": 2}]}, "display": 0, "duration": 86400.0, "effects": [], "end": 10, "gravity": 4, "has_audio": {"Points": [{"co": {"X": 1, "Y": -1}, "interpolation": 2}]}, "has_video": {"Points": [{"co": {"X": 1, "Y": -1}, "interpolation": 2}]}, "id": "3JO4XG1LWJ", "layer": 4, "location_x": {"Points": [{"co": {"X": 1, "Y": 0}, "interpolation": 2}]}, "location_y": {"Points": [{"co": {"X": 1, "Y": 0}, "interpolation": 2}]}, "perspective_c1_x": {"Points": [{"co": {"X": 1, "Y": -1}, "interpolation": 2}]}, "perspective_c1_y": {"Points": [{"co": {"X": 1, "Y": -1}, "interpolation": 2}]}, "perspective_c2_x": {"Points": [{"co": {"X": 1, "Y": -1}, "interpolation": 2}]}, "perspective_c2_y": {"Points": [{"co": {"X": 1, "Y": -1}, "interpolation": 2}]}, "perspective_c3_x": {"Points": [{"co": {"X": 1, "Y": -1}, "interpolation": 2}]}, "perspective_c3_y": {"Points": [{"co": {"X": 1, "Y": -1}, "interpolation": 2}]}, "perspective_c4_x": {"Points": [{"co": {"X": 1, "Y": -1}, "interpolation": 2}]}, "perspective_c4_y": {"Points": [{"co": {"X": 1, "Y": -1}, "interpolation": 2}]}, "position": 174.50062538146975, "reader": {"acodec": "", "audio_bit_rate": 0, "audio_stream_index": -1, "audio_timebase": {"den": 1, "num": 1}, "channel_layout": 4, "channels": 0, "display_ratio": {"den": 275, "num": 499}, "duration": 86400.0, "file_size": "2195600", "fps": {"den": 1, "num": 30}, "has_audio": false, "has_single_image": true, "has_video": true, "height": 550, "interlaced_frame": false, "path": "/home/diary/Desktop/\u041a\u043e\u043d\u0446\u0435\u043f\u0442\u044b/64. \u041f\u0440\u0438\u0447\u0438\u043d\u044b \u0431\u043e\u043b\u0435\u0437\u043d\u0435\u0439/video assets/wrong stamp.png", "pixel_format": -1, "pixel_ratio": {"den": 1, "num": 1}, "sample_rate": 0, "top_field_first": true, "type": "QtImageReader", "vcodec": "", "video_bit_rate": 0, "video_length": "2592000", "video_stream_index": -1, "video_timebase": {"den": 30, "num": 1}, "width": 998}, "rotation": {"Points": [{"co": {"X": 1, "Y": 0}, "interpolation": 2}]}, "scale": 1, "scale_x": {"Points": [{"co": {"X": 1, "Y": 1}, "interpolation": 2}]}, "scale_y": {"Points": [{"co": {"X": 1, "Y": 1}, "interpolation": 2}]}, "shear_x": {"Points": [{"co": {"X": 1, "Y": 0}, "interpolation": 2}]}, "shear_y": {"Points": [{"co": {"X": 1, "Y": 0}, "interpolation": 2}]}, "start": 1.68, "time": {"Points": [{"co": {"X": 1, "Y": 1}, "interpolation": 2}]}, "volume": {"Points": [{"co": {"X": 1, "Y": 1}, "interpolation": 2}]}, "wave_color": {"alpha": {"Points": [{"co": {"X": 1, "Y": 255}, "handle_left": {"X": 0.5, "Y": 1}, "handle_right": {"X": 0.5, "Y": 0}, "handle_type": 0, "interpolation": 0}]}, "blue": {"Points": [{"co": {"X": 1, "Y": 255}, "handle_left": {"X": 0.5, "Y": 1}, "handle_right": {"X": 0.5, "Y": 0}, "handle_type": 0, "interpolation": 0}]}, "green": {"Points": [{"co": {"X": 1, "Y": 123}, "handle_left": {"X": 0.5, "Y": 1}, "handle_right": {"X": 0.5, "Y": 0}, "handle_type": 0, "interpolation": 0}]}, "red": {"Points": [{"co": {"X": 1, "Y": 0}, "handle_left": {"X": 0.5, "Y": 1}, "handle_right": {"X": 0.5, "Y": 0}, "handle_type": 0, "interpolation": 0}]}}, "waveform": false, "file_id": "0VXG5ZD080", "title": "wrong stamp.png", "image": "/home/diary/.openshot_qt/thumbnail/0VXG5ZD080.png"}, {"alpha": {"Points": [{"co": {"X": 1, "Y": 1}, "interpolation": 2}]}, "anchor": 0, "channel_filter": {"Points": [{"co": {"X": 1, "Y": -1}, "interpolation": 2}]}, "channel_mapping": {"Points": [{"co": {"X": 1, "Y": -1}, "interpolation": 2}]}, "crop_height": {"Points": [{"co": {"X": 1, "Y": -1}, "interpolation": 2}]}, "crop_width": {"Points": [{"co": {"X": 1, "Y": -1}, "interpolation": 2}]}, "crop_x": {"Points": [{"co": {"X": 1, "Y": 0}, "interpolation": 2}]}, "crop_y": {"Points": [{"co": {"X": 1, "Y": 0}, "interpolation": 2}]}, "display": 0, "duration": 86400.0, "effects": [], "end": 10, "gravity": 4, "has_audio": {"Points": [{"co": {"X": 1, "Y": -1}, "interpolation": 2}]}, "has_video": {"Points": [{"co": {"X": 1, "Y": -1}, "interpolation": 2}]}, "id": "UOU58CELB0", "layer": 4, "location_x": {"Points": [{"co": {"X": 1, "Y": 0}, "interpolation": 2}]}, "location_y": {"Points": [{"co": {"X": 1, "Y": 0}, "interpolation": 2}]}, "perspective_c1_x": {"Points": [{"co": {"X": 1, "Y": -1}, "interpolation": 2}]}, "perspective_c1_y": {"Points": [{"co": {"X": 1, "Y": -1}, "interpolation": 2}]}, "perspective_c2_x": {"Points": [{"co": {"X": 1, "Y": -1}, "interpolation": 2}]}, "perspective_c2_y": {"Points": [{"co": {"X": 1, "Y": -1}, "interpolation": 2}]}, "perspective_c3_x": {"Points": [{"co": {"X": 1, "Y": -1}, "interpolation": 2}]}, "perspective_c3_y": {"Points": [{"co": {"X": 1, "Y": -1}, "interpolation": 2}]}, "perspective_c4_x": {"Points": [{"co": {"X": 1, "Y": -1}, "interpolation": 2}]}, "perspective_c4_y": {"Points": [{"co": {"X": 1, "Y": -1}, "interpolation": 2}]}, "position": 187.94761680603028, "reader": {"acodec": "", "audio_bit_rate": 0, "audio_stream_index": -1, "audio_timebase": {"den": 1, "num": 1}, "channel_layout": 4, "channels": 0, "display_ratio": {"den": 275, "num": 499}, "duration": 86400.0, "file_size": "2195600", "fps": {"den": 1, "num": 30}, "has_audio": false, "has_single_image": true, "has_video": true, "height": 550, "interlaced_frame": false, "path": "/home/diary/Desktop/\u041a\u043e\u043d\u0446\u0435\u043f\u0442\u044b/64. \u041f\u0440\u0438\u0447\u0438\u043d\u044b \u0431\u043e\u043b\u0435\u0437\u043d\u0435\u0439/video assets/wrong stamp.png", "pixel_format": -1, "pixel_ratio": {"den": 1, "num": 1}, "sample_rate": 0, "top_field_first": true, "type": "QtImageReader", "vcodec": "", "video_bit_rate": 0, "video_length": "2592000", "video_stream_index": -1, "video_timebase": {"den": 30, "num": 1}, "width": 998}, "rotation": {"Points": [{"co": {"X": 1, "Y": 0}, "interpolation": 2}]}, "scale": 1, "scale_x": {"Points": [{"co": {"X": 1, "Y": 1}, "interpolation": 2}]}, "scale_y": {"Points": [{"co": {"X": 1, "Y": 1}, "interpolation": 2}]}, "shear_x": {"Points": [{"co": {"X": 1, "Y": 0}, "interpolation": 2}]}, "shear_y": {"Points": [{"co": {"X": 1, "Y": 0}, "interpolation": 2}]}, "start": 0, "time": {"Points": [{"co": {"X": 1, "Y": 1}, "interpolation": 2}]}, "volume": {"Points": [{"co": {"X": 1, "Y": 1}, "interpolation": 2}]}, "wave_color": {"alpha": {"Points": [{"co": {"X": 1, "Y": 255}, "handle_left": {"X": 0.5, "Y": 1}, "handle_right": {"X": 0.5, "Y": 0}, "handle_type": 0, "interpolation": 0}]}, "blue": {"Points": [{"co": {"X": 1, "Y": 255}, "handle_left": {"X": 0.5, "Y": 1}, "handle_right": {"X": 0.5, "Y": 0}, "handle_type": 0, "interpolation": 0}]}, "green": {"Points": [{"co": {"X": 1, "Y": 123}, "handle_left": {"X": 0.5, "Y": 1}, "handle_right": {"X": 0.5, "Y": 0}, "handle_type": 0, "interpolation": 0}]}, "red": {"Points": [{"co": {"X": 1, "Y": 0}, "handle_left": {"X": 0.5, "Y": 1}, "handle_right": {"X": 0.5, "Y": 0}, "handle_type": 0, "interpolation": 0}]}}, "waveform": false, "file_id": "0VXG5ZD080", "title": "wrong stamp.png", "image": "/home/diary/.openshot_qt/thumbnail/0VXG5ZD080.png"}, {"alpha": {"Points": [{"co": {"X": 1, "Y": 1}, "interpolation": 2}]}, "anchor": 0, "channel_filter": {"Points": [{"co": {"X": 1, "Y": -1}, "interpolation": 2}]}, "channel_mapping": {"Points": [{"co": {"X": 1, "Y": -1}, "interpolation": 2}]}, "crop_height": {"Points": [{"co": {"X": 1, "Y": -1}, "interpolation": 2}]}, "crop_width": {"Points": [{"co": {"X": 1, "Y": -1}, "interpolation": 2}]}, "crop_x": {"Points": [{"co": {"X": 1, "Y": 0}, "interpolation": 2}]}, "crop_y": {"Points": [{"co": {"X": 1, "Y": 0}, "interpolation": 2}]}, "display": 0, "duration": 86400.0, "effects": [], "end": 4.66, "gravity": 4, "has_audio": {"Points": [{"co": {"X": 1, "Y": -1}, "interpolation": 2}]}, "has_video": {"Points": [{"co": {"X": 1, "Y": -1}, "interpolation": 2}]}, "id": "6GH5R52ZZF", "layer": 4, "location_x": {"Points": [{"co": {"X": 1, "Y": 0}, "interpolation": 2}]}, "location_y": {"Points": [{"co": {"X": 1, "Y": 0}, "interpolation": 2}]}, "perspective_c1_x": {"Points": [{"co": {"X": 1, "Y": -1}, "interpolation": 2}]}, "perspective_c1_y": {"Points": [{"co": {"X": 1, "Y": -1}, "interpolation": 2}]}, "perspective_c2_x": {"Points": [{"co": {"X": 1, "Y": -1}, "interpolation": 2}]}, "perspective_c2_y": {"Points": [{"co": {"X": 1, "Y": -1}, "interpolation": 2}]}, "perspective_c3_x": {"Points": [{"co": {"X": 1, "Y": -1}, "interpolation": 2}]}, "perspective_c3_y": {"Points": [{"co": {"X": 1, "Y": -1}, "interpolation": 2}]}, "perspective_c4_x": {"Points": [{"co": {"X": 1, "Y": -1}, "interpolation": 2}]}, "perspective_c4_y": {"Points": [{"co": {"X": 1, "Y": -1}, "interpolation": 2}]}, "position": 200.1075, "reader": {"acodec": "", "audio_bit_rate": 0, "audio_stream_index": -1, "audio_timebase": {"den": 1, "num": 1}, "channel_layout": 4, "channels": 0, "display_ratio": {"den": 275, "num": 499}, "duration": 86400.0, "file_size": "2195600", "fps": {"den": 1, "num": 30}, "has_audio": false, "has_single_image": true, "has_video": true, "height": 550, "interlaced_frame": false, "path": "/home/diary/Desktop/\u041a\u043e\u043d\u0446\u0435\u043f\u0442\u044b/64. \u041f\u0440\u0438\u0447\u0438\u043d\u044b \u0431\u043e\u043b\u0435\u0437\u043d\u0435\u0439/video assets/wrong stamp.png", "pixel_format": -1, "pixel_ratio": {"den": 1, "num": 1}, "sample_rate": 0, "top_field_first": true, "type": "QtImageReader", "vcodec": "", "video_bit_rate": 0, "video_length": "2592000", "video_stream_index": -1, "video_timebase": {"den": 30, "num": 1}, "width": 998}, "rotation": {"Points": [{"co": {"X": 1, "Y": 0}, "interpolation": 2}]}, "scale": 1, "scale_x": {"Points": [{"co": {"X": 1, "Y": 1}, "interpolation": 2}]}, "scale_y": {"Points": [{"co": {"X": 1, "Y": 1}, "interpolation": 2}]}, "shear_x": {"Points": [{"co": {"X": 1, "Y": 0}, "interpolation": 2}]}, "shear_y": {"Points": [{"co": {"X": 1, "Y": 0}, "interpolation": 2}]}, "start": 0, "time": {"Points": [{"co": {"X": 1, "Y": 1}, "interpolation": 2}]}, "volume": {"Points": [{"co": {"X": 1, "Y": 1}, "interpolation": 2}]}, "wave_color": {"alpha": {"Points": [{"co": {"X": 1, "Y": 255}, "handle_left": {"X": 0.5, "Y": 1}, "handle_right": {"X": 0.5, "Y": 0}, "handle_type": 0, "interpolation": 0}]}, "blue": {"Points": [{"co": {"X": 1, "Y": 255}, "handle_left": {"X": 0.5, "Y": 1}, "handle_right": {"X": 0.5, "Y": 0}, "handle_type": 0, "interpolation": 0}]}, "green": {"Points": [{"co": {"X": 1, "Y": 123}, "handle_left": {"X": 0.5, "Y": 1}, "handle_right": {"X": 0.5, "Y": 0}, "handle_type": 0, "interpolation": 0}]}, "red": {"Points": [{"co": {"X": 1, "Y": 0}, "handle_left": {"X": 0.5, "Y": 1}, "handle_right": {"X": 0.5, "Y": 0}, "handle_type": 0, "interpolation": 0}]}}, "waveform": false, "file_id": "0VXG5ZD080", "title": "wrong stamp.png", "image": "/home/diary/.openshot_qt/thumbnail/0VXG5ZD080.png"}, {"alpha": {"Points": [{"co": {"X": 1, "Y": 1}, "interpolation": 2}]}, "anchor": 0, "channel_filter": {"Points": [{"co": {"X": 1, "Y": -1}, "interpolation": 2}]}, "channel_mapping": {"Points": [{"co": {"X": 1, "Y": -1}, "interpolation": 2}]}, "crop_height": {"Points": [{"co": {"X": 1, "Y": -1}, "interpolation": 2}]}, "crop_width": {"Points": [{"co": {"X": 1, "Y": -1}, "interpolation": 2}]}, "crop_x": {"Points": [{"co": {"X": 1, "Y": 0}, "interpolation": 2}]}, "crop_y": {"Points": [{"co": {"X": 1, "Y": 0}, "interpolation": 2}]}, "display": 0, "duration": 86400.0, "effects": [], "end": 10, "gravity": 4, "has_audio": {"Points": [{"co": {"X": 1, "Y": -1}, "interpolation": 2}]}, "has_video": {"Points": [{"co": {"X": 1, "Y": -1}, "interpolation": 2}]}, "id": "4JU44DY8O7", "layer": 4, "location_x": {"Points": [{"co": {"X": 1, "Y": 0}, "interpolation": 2}]}, "location_y": {"Points": [{"co": {"X": 1, "Y": 0}, "interpolation": 2}]}, "perspective_c1_x": {"Points": [{"co": {"X": 1, "Y": -1}, "interpolation": 2}]}, "perspective_c1_y": {"Points": [{"co": {"X": 1, "Y": -1}, "interpolation": 2}]}, "perspective_c2_x": {"Points": [{"co": {"X": 1, "Y": -1}, "interpolation": 2}]}, "perspective_c2_y": {"Points": [{"co": {"X": 1, "Y": -1}, "interpolation": 2}]}, "perspective_c3_x": {"Points": [{"co": {"X": 1, "Y": -1}, "interpolation": 2}]}, "perspective_c3_y": {"Points": [{"co": {"X": 1, "Y": -1}, "interpolation": 2}]}, "perspective_c4_x": {"Points": [{"co": {"X": 1, "Y": -1}, "interpolation": 2}]}, "perspective_c4_y": {"Points": [{"co": {"X": 1, "Y": -1}, "interpolation": 2}]}, "position": 209.11250026702882, "reader": {"acodec": "", "audio_bit_rate": 0, "audio_stream_index": -1, "audio_timebase": {"den": 1, "num": 1}, "channel_layout": 4, "channels": 0, "display_ratio": {"den": 275, "num": 499}, "duration": 86400.0, "file_size": "2195600", "fps": {"den": 1, "num": 30}, "has_audio": false, "has_single_image": true, "has_video": true, "height": 550, "interlaced_frame": false, "path": "/home/diary/Desktop/\u041a\u043e\u043d\u0446\u0435\u043f\u0442\u044b/64. \u041f\u0440\u0438\u0447\u0438\u043d\u044b \u0431\u043e\u043b\u0435\u0437\u043d\u0435\u0439/video assets/wrong stamp.png", "pixel_format": -1, "pixel_ratio": {"den": 1, "num": 1}, "sample_rate": 0, "top_field_first": true, "type": "QtImageReader", "vcodec": "", "video_bit_rate": 0, "video_length": "2592000", "video_stream_index": -1, "video_timebase": {"den": 30, "num": 1}, "width": 998}, "rotation": {"Points": [{"co": {"X": 1, "Y": 0}, "interpolation": 2}]}, "scale": 1, "scale_x": {"Points": [{"co": {"X": 1, "Y": 1}, "interpolation": 2}]}, "scale_y": {"Points": [{"co": {"X": 1, "Y": 1}, "interpolation": 2}]}, "shear_x": {"Points": [{"co": {"X": 1, "Y": 0}, "interpolation": 2}]}, "shear_y": {"Points": [{"co": {"X": 1, "Y": 0}, "interpolation": 2}]}, "start": 2.94, "time": {"Points": [{"co": {"X": 1, "Y": 1}, "interpolation": 2}]}, "volume": {"Points": [{"co": {"X": 1, "Y": 1}, "interpolation": 2}]}, "wave_color": {"alpha": {"Points": [{"co": {"X": 1, "Y": 255}, "handle_left": {"X": 0.5, "Y": 1}, "handle_right": {"X": 0.5, "Y": 0}, "handle_type": 0, "interpolation": 0}]}, "blue": {"Points": [{"co": {"X": 1, "Y": 255}, "handle_left": {"X": 0.5, "Y": 1}, "handle_right": {"X": 0.5, "Y": 0}, "handle_type": 0, "interpolation": 0}]}, "green": {"Points": [{"co": {"X": 1, "Y": 123}, "handle_left": {"X": 0.5, "Y": 1}, "handle_right": {"X": 0.5, "Y": 0}, "handle_type": 0, "interpolation": 0}]}, "red": {"Points": [{"co": {"X": 1, "Y": 0}, "handle_left": {"X": 0.5, "Y": 1}, "handle_right": {"X": 0.5, "Y": 0}, "handle_type": 0, "interpolation": 0}]}}, "waveform": false, "file_id": "0VXG5ZD080", "title": "wrong stamp.png", "image": "/home/diary/.openshot_qt/thumbnail/0VXG5ZD080.png"}]}, {"type": "update", "key": ["clips", {"id": "KZD7J8HX58"}], "value": {"id": "KZD7J8HX58", "layer": 1, "position": 8.63999973297119, "image": "/home/diary/.openshot_qt/thumbnail/LS19984FRT.png", "start": 0, "end": 186.0050048828125}, "partial": false, "old_values": {"alpha": {"Points": [{"co": {"X": 1, "Y": 1}, "interpolation": 2}]}, "anchor": 0, "channel_filter": {"Points": [{"co": {"X": 1, "Y": -1}, "interpolation": 2}]}, "channel_mapping": {"Points": [{"co": {"X": 1, "Y": -1}, "interpolation": 2}]}, "crop_height": {"Points": [{"co": {"X": 1, "Y": -1}, "interpolation": 2}]}, "crop_width": {"Points": [{"co": {"X": 1, "Y": -1}, "interpolation": 2}]}, "crop_x": {"Points": [{"co": {"X": 1, "Y": 0}, "interpolation": 2}]}, "crop_y": {"Points": [{"co": {"X": 1, "Y": 0}, "interpolation": 2}]}, "display": 0, "duration": 186.0050048828125, "effects": [], "end": 186.0050048828125, "gravity": 4, "has_audio": {"Points": [{"co": {"X": 1, "Y": -1}, "interpolation": 2}]}, "has_video": {"Points": [{"co": {"X": 1, "Y": -1}, "interpolation": 2}]}, "id": "KZD7J8HX58", "layer": 4, "location_x": {"Points": [{"co": {"X": 1, "Y": 0}, "interpolation": 2}]}, "location_y": {"Points": [{"co": {"X": 1, "Y": 0}, "interpolation": 2}]}, "perspective_c1_x": {"Points": [{"co": {"X": 1, "Y": -1}, "interpolation": 2}]}, "perspective_c1_y": {"Points": [{"co": {"X": 1, "Y": -1}, "interpolation": 2}]}, "perspective_c2_x": {"Points": [{"co": {"X": 1, "Y": -1}, "interpolation": 2}]}, "perspective_c2_y": {"Points": [{"co": {"X": 1, "Y": -1}, "interpolation": 2}]}, "perspective_c3_x": {"Points": [{"co": {"X": 1, "Y": -1}, "interpolation": 2}]}, "perspective_c3_y": {"Points": [{"co": {"X": 1, "Y": -1}, "interpolation": 2}]}, "perspective_c4_x": {"Points": [{"co": {"X": 1, "Y": -1}, "interpolation": 2}]}, "perspective_c4_y": {"Points": [{"co": {"X": 1, "Y": -1}, "interpolation": 2}]}, "position": 6.88, "reader": {"acodec": "aac", "audio_bit_rate": 2277, "audio_stream_index": 1, "audio_timebase": {"den": 48000, "num": 1}, "channel_layout": 3, "channels": 2, "display_ratio": {"den": 1, "num": 1}, "duration": 186.0050048828125, "file_size": "489181", "fps": {"den": 186, "num": 4465}, "has_audio": true, "has_single_image": false, "has_video": true, "height": 272, "interlaced_frame": false, "path": "/home/diary/Desktop/\u041a\u043e\u043d\u0446\u0435\u043f\u0442\u044b/64. \u041f\u0440\u0438\u0447\u0438\u043d\u044b \u0431\u043e\u043b\u0435\u0437\u043d\u0435\u0439/heartbeat 3 minutes/heartbeat 3 minutes olive.mp4", "pixel_format": 0, "pixel_ratio": {"den": 1, "num": 1}, "sample_rate": 48000, "top_field_first": true, "type": "FFmpegReader", "vcodec": "h264", "video_bit_rate": 21036, "video_length": "4465", "video_stream_index": 0, "video_timebase": {"den": 12288, "num": 1}, "width": 272}, "rotation": {"Points": [{"co": {"X": 1, "Y": 0}, "interpolation": 2}]}, "scale": 1, "scale_x": {"Points": [{"co": {"X": 1, "Y": 1}, "interpolation": 2}]}, "scale_y": {"Points": [{"co": {"X": 1, "Y": 1}, "interpolation": 2}]}, "shear_x": {"Points": [{"co": {"X": 1, "Y": 0}, "interpolation": 2}]}, "shear_y": {"Points": [{"co": {"X": 1, "Y": 0}, "interpolation": 2}]}, "start": 0, "time": {"Points": [{"co": {"X": 1, "Y": 1}, "interpolation": 2}]}, "volume": {"Points": [{"co": {"X": 1, "Y": 1}, "interpolation": 2}]}, "wave_color": {"alpha": {"Points": [{"co": {"X": 1, "Y": 255}, "handle_left": {"X": 0.5, "Y": 1}, "handle_right": {"X": 0.5, "Y": 0}, "handle_type": 0, "interpolation": 0}]}, "blue": {"Points": [{"co": {"X": 1, "Y": 255}, "handle_left": {"X": 0.5, "Y": 1}, "handle_right": {"X": 0.5, "Y": 0}, "handle_type": 0, "interpolation": 0}]}, "green": {"Points": [{"co": {"X": 1, "Y": 123}, "handle_left": {"X": 0.5, "Y": 1}, "handle_right": {"X": 0.5, "Y": 0}, "handle_type": 0, "interpolation": 0}]}, "red": {"Points": [{"co": {"X": 1, "Y": 0}, "handle_left": {"X": 0.5, "Y": 1}, "handle_right": {"X": 0.5, "Y": 0}, "handle_type": 0, "interpolation": 0}]}}, "waveform": false, "file_id": "LS19984FRT", "title": "heartbeat 3 minutes olive.mp4", "image": "/home/diary/.openshot_qt/thumbnail/LS19984FRT.png"}}, {"type": "delete", "key": ["files", {"id": "LS19984FRT"}], "value": null, "partial": false, "old_values": {"acodec": "aac", "audio_bit_rate": 2277, "audio_stream_index": 1, "audio_timebase": {"den": 48000, "num": 1}, "channel_layout": 3, "channels": 2, "display_ratio": {"den": 1, "num": 1}, "duration": 186.0050048828125, "file_size": "489181", "fps": {"den": 186, "num": 4465}, "has_audio": true, "has_single_image": false, "has_video": true, "height": 272, "interlaced_frame": false, "path": "/home/diary/Desktop/\u041a\u043e\u043d\u0446\u0435\u043f\u0442\u044b/64. \u041f\u0440\u0438\u0447\u0438\u043d\u044b \u0431\u043e\u043b\u0435\u0437\u043d\u0435\u0439/heartbeat 3 minutes/heartbeat 3 minutes olive.mp4", "pixel_format": 0, "pixel_ratio": {"den": 1, "num": 1}, "sample_rate": 48000, "top_field_first": true, "type": "FFmpegReader", "vcodec": "h264", "video_bit_rate": 21036, "video_length": "4465", "video_stream_index": 0, "video_timebase": {"den": 12288, "num": 1}, "width": 272, "media_type": "video", "id": "LS19984FRT"}}, {"type": "delete", "key": ["clips", {"id": "KZD7J8HX58"}], "value": null, "partial": false, "old_values": {"alpha": {"Points": [{"co": {"X": 1, "Y": 1}, "interpolation": 2}]}, "anchor": 0, "channel_filter": {"Points": [{"co": {"X": 1, "Y": -1}, "interpolation": 2}]}, "channel_mapping": {"Points": [{"co": {"X": 1, "Y": -1}, "interpolation": 2}]}, "crop_height": {"Points": [{"co": {"X": 1, "Y": -1}, "interpolation": 2}]}, "crop_width": {"Points": [{"co": {"X": 1, "Y": -1}, "interpolation": 2}]}, "crop_x": {"Points": [{"co": {"X": 1, "Y": 0}, "interpolation": 2}]}, "crop_y": {"Points": [{"co": {"X": 1, "Y": 0}, "interpolation": 2}]}, "display": 0, "duration": 186.0050048828125, "effects": [], "end": 186.0050048828125, "gravity": 4, "has_audio": {"Points": [{"co": {"X": 1, "Y": -1}, "interpolation": 2}]}, "has_video": {"Points": [{"co": {"X": 1, "Y": -1}, "interpolation": 2}]}, "id": "KZD7J8HX58", "layer": 1, "location_x": {"Points": [{"co": {"X": 1, "Y": 0}, "interpolation": 2}]}, "location_y": {"Points": [{"co": {"X": 1, "Y": 0}, "interpolation": 2}]}, "perspective_c1_x": {"Points": [{"co": {"X": 1, "Y": -1}, "interpolation": 2}]}, "perspective_c1_y": {"Points": [{"co": {"X": 1, "Y": -1}, "interpolation": 2}]}, "perspective_c2_x": {"Points": [{"co": {"X": 1, "Y": -1}, "interpolation": 2}]}, "perspective_c2_y": {"Points": [{"co": {"X": 1, "Y": -1}, "interpolation": 2}]}, "perspective_c3_x": {"Points": [{"co": {"X": 1, "Y": -1}, "interpolation": 2}]}, "perspective_c3_y": {"Points": [{"co": {"X": 1, "Y": -1}, "interpolation": 2}]}, "perspective_c4_x": {"Points": [{"co": {"X": 1, "Y": -1}, "interpolation": 2}]}, "perspective_c4_y": {"Points": [{"co": {"X": 1, "Y": -1}, "interpolation": 2}]}, "position": 8.63999973297119, "reader": {"acodec": "aac", "audio_bit_rate": 2277, "audio_stream_index": 1, "audio_timebase": {"den": 48000, "num": 1}, "channel_layout": 3, "channels": 2, "display_ratio": {"den": 1, "num": 1}, "duration": 186.0050048828125, "file_size": "489181", "fps": {"den": 186, "num": 4465}, "has_audio": true, "has_single_image": false, "has_video": true, "height": 272, "interlaced_frame": false, "path": "/home/diary/Desktop/\u041a\u043e\u043d\u0446\u0435\u043f\u0442\u044b/64. \u041f\u0440\u0438\u0447\u0438\u043d\u044b \u0431\u043e\u043b\u0435\u0437\u043d\u0435\u0439/heartbeat 3 minutes/heartbeat 3 minutes olive.mp4", "pixel_format": 0, "pixel_ratio": {"den": 1, "num": 1}, "sample_rate": 48000, "top_field_first": true, "type": "FFmpegReader", "vcodec": "h264", "video_bit_rate": 21036, "video_length": "4465", "video_stream_index": 0, "video_timebase": {"den": 12288, "num": 1}, "width": 272}, "rotation": {"Points": [{"co": {"X": 1, "Y": 0}, "interpolation": 2}]}, "scale": 1, "scale_x": {"Points": [{"co": {"X": 1, "Y": 1}, "interpolation": 2}]}, "scale_y": {"Points": [{"co": {"X": 1, "Y": 1}, "interpolation": 2}]}, "shear_x": {"Points": [{"co": {"X": 1, "Y": 0}, "interpolation": 2}]}, "shear_y": {"Points": [{"co": {"X": 1, "Y": 0}, "interpolation": 2}]}, "start": 0, "time": {"Points": [{"co": {"X": 1, "Y": 1}, "interpolation": 2}]}, "volume": {"Points": [{"co": {"X": 1, "Y": 1}, "interpolation": 2}]}, "wave_color": {"alpha": {"Points": [{"co": {"X": 1, "Y": 255}, "handle_left": {"X": 0.5, "Y": 1}, "handle_right": {"X": 0.5, "Y": 0}, "handle_type": 0, "interpolation": 0}]}, "blue": {"Points": [{"co": {"X": 1, "Y": 255}, "handle_left": {"X": 0.5, "Y": 1}, "handle_right": {"X": 0.5, "Y": 0}, "handle_type": 0, "interpolation": 0}]}, "green": {"Points": [{"co": {"X": 1, "Y": 123}, "handle_left": {"X": 0.5, "Y": 1}, "handle_right": {"X": 0.5, "Y": 0}, "handle_type": 0, "interpolation": 0}]}, "red": {"Points": [{"co": {"X": 1, "Y": 0}, "handle_left": {"X": 0.5, "Y": 1}, "handle_right": {"X": 0.5, "Y": 0}, "handle_type": 0, "interpolation": 0}]}}, "waveform": false, "file_id": "LS19984FRT", "title": "heartbeat 3 minutes olive.mp4", "image": "/home/diary/.openshot_qt/thumbnail/LS19984FRT.png"}}, {"type": "delete", "key": ["files", {"id": "OM4XFEDDAP"}], "value": null, "partial": false, "old_values": {"acodec": "", "audio_bit_rate": 0, "audio_stream_index": -1, "audio_timebase": {"den": 1, "num": 1}, "channel_layout": 4, "channels": 0, "display_ratio": {"den": 1, "num": 1}, "duration": 1.0419921875, "file_size": "45800", "fps": {"den": 1, "num": 24}, "has_audio": false, "has_single_image": false, "has_video": true, "height": 272, "interlaced_frame": false, "path": "/home/diary/Desktop/\u041a\u043e\u043d\u0446\u0435\u043f\u0442\u044b/64. \u041f\u0440\u0438\u0447\u0438\u043d\u044b \u0431\u043e\u043b\u0435\u0437\u043d\u0435\u0439/video assets/heart animation sysnfig.mp4", "pixel_format": 0, "pixel_ratio": {"den": 1, "num": 1}, "sample_rate": 0, "top_field_first": true, "type": "FFmpegReader", "vcodec": "h264", "video_bit_rate": 351631, "video_length": "25", "video_stream_index": 0, "video_timebase": {"den": 12288, "num": 1}, "width": 272, "media_type": "video", "id": "OM4XFEDDAP"}}, {"type": "delete", "key": ["files", {"id": "8XWLKKD2UP"}], "value": null, "partial": false, "old_values": {"acodec": "", "audio_bit_rate": 0, "audio_stream_index": -1, "audio_timebase": {"den": 1, "num": 1}, "channel_layout": 4, "channels": 0, "display_ratio": {"den": 84, "num": 149}, "duration": 10, "file_size": "1183766", "fps": {"den": 1, "num": 30}, "has_audio": false, "has_single_image": false, "has_video": true, "height": 336, "interlaced_frame": false, "path": "/home/diary/Desktop/\u041a\u043e\u043d\u0446\u0435\u043f\u0442\u044b/64. \u041f\u0440\u0438\u0447\u0438\u043d\u044b \u0431\u043e\u043b\u0435\u0437\u043d\u0435\u0439/video assets/23007178-preview.mp4", "pixel_format": 0, "pixel_ratio": {"den": 1, "num": 1}, "sample_rate": 0, "top_field_first": true, "type": "FFmpegReader", "vcodec": "h264", "video_bit_rate": 947012, "video_length": "300", "video_stream_index": 0, "video_timebase": {"den": 15360, "num": 1}, "width": 596, "media_type": "video", "id": "8XWLKKD2UP"}}, {"type": "insert", "key": ["files"], "value": {"acodec": "aac", "audio_bit_rate": 2276, "audio_stream_index": 1, "audio_timebase": {"den": 48000, "num": 1}, "channel_layout": 3, "channels": 2, "display_ratio": {"den": 1, "num": 1}, "duration": 193.77000427246094, "file_size": "1370812", "fps": {"den": 775, "num": 18604}, "has_audio": true, "has_single_image": false, "has_video": true, "height": 1000, "interlaced_frame": false, "path": "/home/diary/Desktop/\u041a\u043e\u043d\u0446\u0435\u043f\u0442\u044b/64. \u041f\u0440\u0438\u0447\u0438\u043d\u044b \u0431\u043e\u043b\u0435\u0437\u043d\u0435\u0439/heartbeat 3 minutes/heartbeat 3 minutes.mp4", "pixel_format": 0, "pixel_ratio": {"den": 1, "num": 1}, "sample_rate": 48000, "top_field_first": true, "type": "FFmpegReader", "vcodec": "h264", "video_bit_rate": 56589, "video_length": "4651", "video_stream_index": 0, "video_timebase": {"den": 12288, "num": 1}, "width": 1000, "media_type": "video", "id": "0JN8WFX709"}, "partial": false, "old_values": [{"image": "thumbnail/04LXAJ2X63.png", "type": "QtImageReader", "video_length": "108000", "channel_layout": 4, "vcodec": "", "height": 768, "display_ratio": {"num": 4, "den": 3}, "sample_rate": 0, "audio_bit_rate": 0, "channels": 0, "has_audio": false, "duration": 3600.0, "pixel_format": -1, "fps": {"num": 30, "den": 1}, "file_size": "3145728", "audio_timebase": {"num": 1, "den": 1}, "audio_stream_index": -1, "video_bit_rate": 0, "top_field_first": true, "has_video": true, "interlaced_frame": false, "path": "/home/diary/Desktop/\u041a\u043e\u043d\u0446\u0435\u043f\u0442\u044b/64. \u041f\u0440\u0438\u0447\u0438\u043d\u044b \u0431\u043e\u043b\u0435\u0437\u043d\u0435\u0439/video assets/white background.png", "acodec": "", "id": "04LXAJ2X63", "width": 1024, "metadata": {}, "media_type": "image", "has_single_image": true, "video_timebase": {"num": 1, "den": 30}, "video_stream_index": -1, "pixel_ratio": {"num": 1, "den": 1}}, {"acodec": "", "audio_bit_rate": 0, "audio_stream_index": -1, "audio_timebase": {"den": 1, "num": 1}, "channel_layout": 4, "channels": 0, "display_ratio": {"den": 9, "num": 16}, "duration": 86400, "file_size": "3686400", "fps": {"den": 1, "num": 30}, "has_audio": false, "has_single_image": true, "has_video": true, "height": 720, "interlaced_frame": false, "path": "/home/diary/Desktop/\u041a\u043e\u043d\u0446\u0435\u043f\u0442\u044b/64. \u041f\u0440\u0438\u0447\u0438\u043d\u044b \u0431\u043e\u043b\u0435\u0437\u043d\u0435\u0439/video assets/white bg.png", "pixel_format": -1, "pixel_ratio": {"den": 1, "num": 1}, "sample_rate": 0, "top_field_first": true, "type": "QtImageReader", "vcodec": "", "video_bit_rate": 0, "video_length": "2592000", "video_stream_index": -1, "video_timebase": {"den": 30, "num": 1}, "width": 1280, "media_type": "image", "id": "DYQPECIBL6"}, {"acodec": "", "audio_bit_rate": 0, "audio_stream_index": -1, "audio_timebase": {"den": 1, "num": 1}, "channel_layout": 4, "channels": 0, "display_ratio": {"den": 9, "num": 16}, "duration": 86400, "file_size": "8294400", "fps": {"den": 1, "num": 30}, "has_audio": false, "has_single_image": true, "has_video": true, "height": 1080, "interlaced_frame": false, "path": "/home/diary/Desktop/\u041a\u043e\u043d\u0446\u0435\u043f\u0442\u044b/64. \u041f\u0440\u0438\u0447\u0438\u043d\u044b \u0431\u043e\u043b\u0435\u0437\u043d\u0435\u0439/assets/TitleFileName-1.svg", "pixel_format": -1, "pixel_ratio": {"den": 1, "num": 1}, "sample_rate": 0, "top_field_first": true, "type": "QtImageReader", "vcodec": "", "video_bit_rate": 0, "video_length": "2592000", "video_stream_index": -1, "video_timebase": {"den": 30, "num": 1}, "width": 1920, "media_type": "image", "id": "ZF77Y451CT"}, {"acodec": "", "audio_bit_rate": 0, "audio_stream_index": -1, "audio_timebase": {"den": 1, "num": 1}, "channel_layout": 4, "channels": 0, "display_ratio": {"den": 9, "num": 16}, "duration": 8.399999618530273, "file_size": "-1", "fps": {"den": 1, "num": 25}, "has_audio": false, "has_single_image": false, "has_video": true, "height": 720, "interlaced_frame": false, "path": "/home/diary/Desktop/\u041a\u043e\u043d\u0446\u0435\u043f\u0442\u044b/64. \u041f\u0440\u0438\u0447\u0438\u043d\u044b \u0431\u043e\u043b\u0435\u0437\u043d\u0435\u0439/2305192a-aa30-11ea-a79a-0013729ccbc3/Health%04d.png", "pixel_format": 28, "pixel_ratio": {"den": 2835, "num": 2835}, "sample_rate": 0, "top_field_first": true, "type": "FFmpegReader", "vcodec": "png", "video_bit_rate": 0, "video_length": "210", "video_stream_index": 0, "video_timebase": {"den": 25, "num": 1}, "width": 1280, "media_type": "video", "id": "WU2Z07RHV4"}, {"acodec": "", "audio_bit_rate": 0, "audio_stream_index": -1, "audio_timebase": {"den": 1, "num": 1}, "channel_layout": 4, "channels": 0, "display_ratio": {"den": 9, "num": 16}, "duration": 86400, "file_size": "8294400", "fps": {"den": 1, "num": 30}, "has_audio": false, "has_single_image": true, "has_video": true, "height": 1080, "interlaced_frame": false, "path": "/home/diary/Desktop/\u041a\u043e\u043d\u0446\u0435\u043f\u0442\u044b/64. \u041f\u0440\u0438\u0447\u0438\u043d\u044b \u0431\u043e\u043b\u0435\u0437\u043d\u0435\u0439/assets/Vinogradoff Group.svg", "pixel_format": -1, "pixel_ratio": {"den": 1, "num": 1}, "sample_rate": 0, "top_field_first": true, "type": "QtImageReader", "vcodec": "", "video_bit_rate": 0, "video_length": "2592000", "video_stream_index": -1, "video_timebase": {"den": 30, "num": 1}, "width": 1920, "media_type": "image", "id": "FHRB35LFMC"}, {"acodec": "aac", "audio_bit_rate": 127927, "audio_stream_index": 1, "audio_timebase": {"den": 48000, "num": 1}, "channel_layout": 3, "channels": 2, "display_ratio": {"den": 9, "num": 16}, "duration": 13.279999732971191, "file_size": "33793647", "fps": {"den": 1, "num": 25}, "has_audio": true, "has_single_image": false, "has_video": true, "height": 1080, "interlaced_frame": false, "path": "/home/diary/Desktop/\u041a\u043e\u043d\u0446\u0435\u043f\u0442\u044b/64. \u041f\u0440\u0438\u0447\u0438\u043d\u044b \u0431\u043e\u043b\u0435\u0437\u043d\u0435\u0439/video assets/fire_background_loop2_videvo2.mov", "pixel_format": 0, "pixel_ratio": {"den": 1, "num": 1}, "sample_rate": 48000, "top_field_first": true, "type": "FFmpegReader", "vcodec": "h264", "video_bit_rate": 20357618, "video_length": "332", "video_stream_index": 0, "video_timebase": {"den": 25, "num": 1}, "width": 1920, "media_type": "video", "id": "4WES5Z3VG4"}, {"acodec": "", "audio_bit_rate": 0, "audio_stream_index": -1, "audio_timebase": {"den": 1, "num": 1}, "channel_layout": 4, "channels": 0, "display_ratio": {"den": 9, "num": 16}, "duration": 23.200000762939453, "file_size": "82713018", "fps": {"den": 1, "num": 25}, "has_audio": false, "has_single_image": false, "has_video": true, "height": 2160, "interlaced_frame": false, "path": "/home/diary/Desktop/\u041a\u043e\u043d\u0446\u0435\u043f\u0442\u044b/64. \u041f\u0440\u0438\u0447\u0438\u043d\u044b \u0431\u043e\u043b\u0435\u0437\u043d\u0435\u0439/video assets/200129_02_Medical_Ward_4k_103.mp4", "pixel_format": 0, "pixel_ratio": {"den": 1, "num": 1}, "sample_rate": 0, "top_field_first": true, "type": "FFmpegReader", "vcodec": "h264", "video_bit_rate": 28521730, "video_length": "580", "video_stream_index": 0, "video_timebase": {"den": 25000, "num": 1}, "width": 3840, "media_type": "video", "id": "YXHHBI5JHB"}, {"acodec": "", "audio_bit_rate": 0, "audio_stream_index": -1, "audio_timebase": {"den": 1, "num": 1}, "channel_layout": 4, "channels": 0, "display_ratio": {"den": 4, "num": 5}, "duration": 86400, "file_size": "5242880", "fps": {"den": 1, "num": 30}, "has_audio": false, "has_single_image": true, "has_video": true, "height": 1024, "interlaced_frame": false, "path": "/home/diary/Desktop/\u041a\u043e\u043d\u0446\u0435\u043f\u0442\u044b/64. \u041f\u0440\u0438\u0447\u0438\u043d\u044b \u0431\u043e\u043b\u0435\u0437\u043d\u0435\u0439/video assets/64b67ceabcb952bf0ce2a8853454cc99.jpg", "pixel_format": -1, "pixel_ratio": {"den": 1, "num": 1}, "sample_rate": 0, "top_field_first": true, "type": "QtImageReader", "vcodec": "", "video_bit_rate": 0, "video_length": "2592000", "video_stream_index": -1, "video_timebase": {"den": 30, "num": 1}, "width": 1280, "media_type": "image", "id": "VUZS2V91F0"}, {"acodec": "aac", "audio_bit_rate": 317375, "audio_stream_index": 1, "audio_timebase": {"den": 48000, "num": 1}, "channel_layout": 3, "channels": 2, "display_ratio": {"den": 9, "num": 16}, "duration": 23.360000610351562, "file_size": "96318984", "fps": {"den": 1, "num": 25}, "has_audio": true, "has_single_image": false, "has_video": true, "height": 1080, "interlaced_frame": false, "path": "/home/diary/Desktop/\u041a\u043e\u043d\u0446\u0435\u043f\u0442\u044b/64. \u041f\u0440\u0438\u0447\u0438\u043d\u044b \u0431\u043e\u043b\u0435\u0437\u043d\u0435\u0439/video assets/160714_Pills_2_1080p.mp4", "pixel_format": 0, "pixel_ratio": {"den": 1, "num": 1}, "sample_rate": 48000, "top_field_first": true, "type": "FFmpegReader", "vcodec": "h264", "video_bit_rate": 32925814, "video_length": "584", "video_stream_index": 0, "video_timebase": {"den": 25000, "num": 1}, "width": 1920, "media_type": "video", "id": "YBDV9IV3RQ"}, {"acodec": "aac", "audio_bit_rate": 317375, "audio_stream_index": 1, "audio_timebase": {"den": 48000, "num": 1}, "channel_layout": 3, "channels": 2, "display_ratio": {"den": 135, "num": 256}, "duration": 20.360000610351562, "file_size": "244824541", "fps": {"den": 1, "num": 25}, "has_audio": true, "has_single_image": false, "has_video": true, "height": 2160, "interlaced_frame": false, "path": "/home/diary/Desktop/\u041a\u043e\u043d\u0446\u0435\u043f\u0442\u044b/64. \u041f\u0440\u0438\u0447\u0438\u043d\u044b \u0431\u043e\u043b\u0435\u0437\u043d\u0435\u0439/video assets/190126_Valentines_49.mp4", "pixel_format": 0, "pixel_ratio": {"den": 1, "num": 1}, "sample_rate": 48000, "top_field_first": true, "type": "FFmpegReader", "vcodec": "h264", "video_bit_rate": 96198247, "video_length": "509", "video_stream_index": 0, "video_timebase": {"den": 25000, "num": 1}, "width": 4096, "media_type": "video", "id": "99JU91HHAD"}, {"acodec": "", "audio_bit_rate": 0, "audio_stream_index": -1, "audio_timebase": {"den": 1, "num": 1}, "channel_layout": 4, "channels": 0, "display_ratio": {"den": 84, "num": 149}, "duration": 15.016016006469727, "file_size": "1590835", "fps": {"den": 100, "num": 2997}, "has_audio": false, "has_single_image": false, "has_video": true, "height": 336, "interlaced_frame": false, "path": "/home/diary/Desktop/\u041a\u043e\u043d\u0446\u0435\u043f\u0442\u044b/64. \u041f\u0440\u0438\u0447\u0438\u043d\u044b \u0431\u043e\u043b\u0435\u0437\u043d\u0435\u0439/video assets/1265275-preview.mp4", "pixel_format": 0, "pixel_ratio": {"den": 1, "num": 1}, "sample_rate": 0, "top_field_first": true, "type": "FFmpegReader", "vcodec": "h264", "video_bit_rate": 847541, "video_length": "450", "video_stream_index": 0, "video_timebase": {"den": 2997, "num": 1}, "width": 596, "media_type": "video", "id": "WCGA0NGXVJ"}, {"acodec": "aac", "audio_bit_rate": 2089, "audio_stream_index": 1, "audio_timebase": {"den": 44100, "num": 1}, "channel_layout": 3, "channels": 2, "display_ratio": {"den": 84, "num": 149}, "duration": 10.239999771118164, "file_size": "1678485", "fps": {"den": 100, "num": 2997}, "has_audio": true, "has_single_image": false, "has_video": true, "height": 336, "interlaced_frame": false, "path": "/home/diary/Desktop/\u041a\u043e\u043d\u0446\u0435\u043f\u0442\u044b/64. \u041f\u0440\u0438\u0447\u0438\u043d\u044b \u0431\u043e\u043b\u0435\u0437\u043d\u0435\u0439/video assets/3592964-preview.mp4", "pixel_format": 0, "pixel_ratio": {"den": 1, "num": 1}, "sample_rate": 44100, "top_field_first": true, "type": "FFmpegReader", "vcodec": "h264", "video_bit_rate": 1310804, "video_length": "307", "video_stream_index": 0, "video_timebase": {"den": 2997, "num": 1}, "width": 596, "media_type": "video", "id": "G0HUTQ2EM1"}, {"acodec": "aac", "audio_bit_rate": 2095, "audio_stream_index": 1, "audio_timebase": {"den": 44100, "num": 1}, "channel_layout": 3, "channels": 2, "display_ratio": {"den": 84, "num": 149}, "duration": 8.035011291503906, "file_size": "947319", "fps": {"den": 100, "num": 2997}, "has_audio": true, "has_single_image": false, "has_video": true, "height": 336, "interlaced_frame": false, "path": "/home/diary/Desktop/\u041a\u043e\u043d\u0446\u0435\u043f\u0442\u044b/64. \u041f\u0440\u0438\u0447\u0438\u043d\u044b \u0431\u043e\u043b\u0435\u0437\u043d\u0435\u0439/video assets/3594023-preview.mp4", "pixel_format": 0, "pixel_ratio": {"den": 1, "num": 1}, "sample_rate": 44100, "top_field_first": true, "type": "FFmpegReader", "vcodec": "h264", "video_bit_rate": 942371, "video_length": "241", "video_stream_index": 0, "video_timebase": {"den": 2997, "num": 1}, "width": 596, "media_type": "video", "id": "HXED1LNWZL"}, {"acodec": "", "audio_bit_rate": 0, "audio_stream_index": -1, "audio_timebase": {"den": 1, "num": 1}, "channel_layout": 4, "channels": 0, "display_ratio": {"den": 84, "num": 149}, "duration": 21.689022064208984, "file_size": "2480680", "fps": {"den": 100, "num": 2997}, "has_audio": false, "has_single_image": false, "has_video": true, "height": 336, "interlaced_frame": false, "path": "/home/diary/Desktop/\u041a\u043e\u043d\u0446\u0435\u043f\u0442\u044b/64. \u041f\u0440\u0438\u0447\u0438\u043d\u044b \u0431\u043e\u043b\u0435\u0437\u043d\u0435\u0439/video assets/4371524-preview.mp4", "pixel_format": 0, "pixel_ratio": {"den": 1, "num": 1}, "sample_rate": 0, "top_field_first": true, "type": "FFmpegReader", "vcodec": "h264", "video_bit_rate": 915000, "video_length": "650", "video_stream_index": 0, "video_timebase": {"den": 2997, "num": 1}, "width": 596, "media_type": "video", "id": "3XRS1VUDFX"}, {"acodec": "", "audio_bit_rate": 0, "audio_stream_index": -1, "audio_timebase": {"den": 1, "num": 1}, "channel_layout": 4, "channels": 0, "display_ratio": {"den": 84, "num": 149}, "duration": 17.959999084472656, "file_size": "2128140", "fps": {"den": 1, "num": 25}, "has_audio": false, "has_single_image": false, "has_video": true, "height": 336, "interlaced_frame": false, "path": "/home/diary/Desktop/\u041a\u043e\u043d\u0446\u0435\u043f\u0442\u044b/64. \u041f\u0440\u0438\u0447\u0438\u043d\u044b \u0431\u043e\u043b\u0435\u0437\u043d\u0435\u0439/video assets/6070205-preview.mp4", "pixel_format": 0, "pixel_ratio": {"den": 1, "num": 1}, "sample_rate": 0, "top_field_first": true, "type": "FFmpegReader", "vcodec": "h264", "video_bit_rate": 947946, "video_length": "449", "video_stream_index": 0, "video_timebase": {"den": 12800, "num": 1}, "width": 596, "media_type": "video", "id": "HRHP5RQDW2"}, {"acodec": "", "audio_bit_rate": 0, "audio_stream_index": -1, "audio_timebase": {"den": 1, "num": 1}, "channel_layout": 4, "channels": 0, "display_ratio": {"den": 84, "num": 149}, "duration": 10.039999961853027, "file_size": "1274343", "fps": {"den": 1, "num": 25}, "has_audio": false, "has_single_image": false, "has_video": true, "height": 336, "interlaced_frame": false, "path": "/home/diary/Desktop/\u041a\u043e\u043d\u0446\u0435\u043f\u0442\u044b/64. \u041f\u0440\u0438\u0447\u0438\u043d\u044b \u0431\u043e\u043b\u0435\u0437\u043d\u0435\u0439/video assets/6528731-preview.mp4", "pixel_format": 0, "pixel_ratio": {"den": 1, "num": 1}, "sample_rate": 0, "top_field_first": true, "type": "FFmpegReader", "vcodec": "h264", "video_bit_rate": 1015412, "video_length": "251", "video_stream_index": 0, "video_timebase": {"den": 12800, "num": 1}, "width": 596, "media_type": "video", "id": "RFIGYYXQ6W"}, {"acodec": "", "audio_bit_rate": 0, "audio_stream_index": -1, "audio_timebase": {"den": 1, "num": 1}, "channel_layout": 4, "channels": 0, "display_ratio": {"den": 84, "num": 149}, "duration": 35.235984802246094, "file_size": "4296710", "fps": {"den": 100, "num": 2997}, "has_audio": false, "has_single_image": false, "has_video": true, "height": 336, "interlaced_frame": false, "path": "/home/diary/Desktop/\u041a\u043e\u043d\u0446\u0435\u043f\u0442\u044b/64. \u041f\u0440\u0438\u0447\u0438\u043d\u044b \u0431\u043e\u043b\u0435\u0437\u043d\u0435\u0439/video assets/7183237-preview.mp4", "pixel_format": 0, "pixel_ratio": {"den": 1, "num": 1}, "sample_rate": 0, "top_field_first": true, "type": "FFmpegReader", "vcodec": "h264", "video_bit_rate": 975527, "video_length": "1056", "video_stream_index": 0, "video_timebase": {"den": 11988, "num": 1}, "width": 596, "media_type": "video", "id": "7N5KQ9ZERK"}, {"acodec": "", "audio_bit_rate": 0, "audio_stream_index": -1, "audio_timebase": {"den": 1, "num": 1}, "channel_layout": 4, "channels": 0, "display_ratio": {"den": 84, "num": 149}, "duration": 26.6669921875, "file_size": "3130344", "fps": {"den": 1, "num": 30}, "has_audio": false, "has_single_image": false, "has_video": true, "height": 336, "interlaced_frame": false, "path": "/home/diary/Desktop/\u041a\u043e\u043d\u0446\u0435\u043f\u0442\u044b/64. \u041f\u0440\u0438\u0447\u0438\u043d\u044b \u0431\u043e\u043b\u0435\u0437\u043d\u0435\u0439/video assets/8866663-preview.mp4", "pixel_format": 0, "pixel_ratio": {"den": 1, "num": 1}, "sample_rate": 0, "top_field_first": true, "type": "FFmpegReader", "vcodec": "h264", "video_bit_rate": 939091, "video_length": "800", "video_stream_index": 0, "video_timebase": {"den": 15360, "num": 1}, "width": 596, "media_type": "video", "id": "G8B52U5OD3"}, {"acodec": "", "audio_bit_rate": 0, "audio_stream_index": -1, "audio_timebase": {"den": 1, "num": 1}, "channel_layout": 4, "channels": 0, "display_ratio": {"den": 84, "num": 149}, "duration": 30, "file_size": "3680524", "fps": {"den": 1, "num": 30}, "has_audio": false, "has_single_image": false, "has_video": true, "height": 336, "interlaced_frame": false, "path": "/home/diary/Desktop/\u041a\u043e\u043d\u0446\u0435\u043f\u0442\u044b/64. \u041f\u0440\u0438\u0447\u0438\u043d\u044b \u0431\u043e\u043b\u0435\u0437\u043d\u0435\u0439/video assets/11728724-preview.mp4", "pixel_format": 0, "pixel_ratio": {"den": 1, "num": 1}, "sample_rate": 0, "top_field_first": true, "type": "FFmpegReader", "vcodec": "h264", "video_bit_rate": 981473, "video_length": "900", "video_stream_index": 0, "video_timebase": {"den": 15360, "num": 1}, "width": 596, "media_type": "video", "id": "MK67AURUUX"}, {"acodec": "", "audio_bit_rate": 0, "audio_stream_index": -1, "audio_timebase": {"den": 1, "num": 1}, "channel_layout": 4, "channels": 0, "display_ratio": {"den": 84, "num": 149}, "duration": 13.413999557495117, "file_size": "1016982", "fps": {"den": 1001, "num": 30000}, "has_audio": false, "has_single_image": false, "has_video": true, "height": 336, "interlaced_frame": false, "path": "/home/diary/Desktop/\u041a\u043e\u043d\u0446\u0435\u043f\u0442\u044b/64. \u041f\u0440\u0438\u0447\u0438\u043d\u044b \u0431\u043e\u043b\u0435\u0437\u043d\u0435\u0439/video assets/12577880-preview.mp4", "pixel_format": 0, "pixel_ratio": {"den": 1, "num": 1}, "sample_rate": 0, "top_field_first": true, "type": "FFmpegReader", "vcodec": "h264", "video_bit_rate": 606519, "video_length": "402", "video_stream_index": 0, "video_timebase": {"den": 30000, "num": 1}, "width": 596, "media_type": "video", "id": "QZN4VVH4L1"}, {"acodec": "", "audio_bit_rate": 0, "audio_stream_index": -1, "audio_timebase": {"den": 1, "num": 1}, "channel_layout": 4, "channels": 0, "display_ratio": {"den": 84, "num": 149}, "duration": 15.048999786376953, "file_size": "1844586", "fps": {"den": 1001, "num": 30000}, "has_audio": false, "has_single_image": false, "has_video": true, "height": 336, "interlaced_frame": false, "path": "/home/diary/Desktop/\u041a\u043e\u043d\u0446\u0435\u043f\u0442\u044b/64. \u041f\u0440\u0438\u0447\u0438\u043d\u044b \u0431\u043e\u043b\u0435\u0437\u043d\u0435\u0439/video assets/13460132-preview.mp4", "pixel_format": 0, "pixel_ratio": {"den": 1, "num": 1}, "sample_rate": 0, "top_field_first": true, "type": "FFmpegReader", "vcodec": "h264", "video_bit_rate": 980575, "video_length": "451", "video_stream_index": 0, "video_timebase": {"den": 30000, "num": 1}, "width": 596, "media_type": "video", "id": "55I318G5W8"}, {"acodec": "", "audio_bit_rate": 0, "audio_stream_index": -1, "audio_timebase": {"den": 1, "num": 1}, "channel_layout": 4, "channels": 0, "display_ratio": {"den": 84, "num": 149}, "duration": 10.033984184265137, "file_size": "1160697", "fps": {"den": 1, "num": 30}, "has_audio": false, "has_single_image": false, "has_video": true, "height": 336, "interlaced_frame": false, "path": "/home/diary/Desktop/\u041a\u043e\u043d\u0446\u0435\u043f\u0442\u044b/64. \u041f\u0440\u0438\u0447\u0438\u043d\u044b \u0431\u043e\u043b\u0435\u0437\u043d\u0435\u0439/video assets/13983842-preview.mp4", "pixel_format": 0, "pixel_ratio": {"den": 1, "num": 1}, "sample_rate": 0, "top_field_first": true, "type": "FFmpegReader", "vcodec": "h264", "video_bit_rate": 925411, "video_length": "301", "video_stream_index": 0, "video_timebase": {"den": 15360, "num": 1}, "width": 596, "media_type": "video", "id": "ZLQQ7J03O5"}, {"acodec": "", "audio_bit_rate": 0, "audio_stream_index": -1, "audio_timebase": {"den": 1, "num": 1}, "channel_layout": 4, "channels": 0, "display_ratio": {"den": 84, "num": 149}, "duration": 20.020000457763672, "file_size": "2389941", "fps": {"den": 1001, "num": 30000}, "has_audio": false, "has_single_image": false, "has_video": true, "height": 336, "interlaced_frame": false, "path": "/home/diary/Desktop/\u041a\u043e\u043d\u0446\u0435\u043f\u0442\u044b/64. \u041f\u0440\u0438\u0447\u0438\u043d\u044b \u0431\u043e\u043b\u0435\u0437\u043d\u0435\u0439/video assets/16857802-preview.mp4", "pixel_format": 0, "pixel_ratio": {"den": 1, "num": 1}, "sample_rate": 0, "top_field_first": true, "type": "FFmpegReader", "vcodec": "h264", "video_bit_rate": 955021, "video_length": "600", "video_stream_index": 0, "video_timebase": {"den": 30000, "num": 1}, "width": 596, "media_type": "video", "id": "S4W73EP8XJ"}, {"acodec": "", "audio_bit_rate": 0, "audio_stream_index": -1, "audio_timebase": {"den": 1, "num": 1}, "channel_layout": 4, "channels": 0, "display_ratio": {"den": 84, "num": 149}, "duration": 10.678000450134277, "file_size": "1248338", "fps": {"den": 1001, "num": 30000}, "has_audio": false, "has_single_image": false, "has_video": true, "height": 336, "interlaced_frame": false, "path": "/home/diary/Desktop/\u041a\u043e\u043d\u0446\u0435\u043f\u0442\u044b/64. \u041f\u0440\u0438\u0447\u0438\u043d\u044b \u0431\u043e\u043b\u0435\u0437\u043d\u0435\u0439/video assets/17157313-preview.mp4", "pixel_format": 0, "pixel_ratio": {"den": 1, "num": 1}, "sample_rate": 0, "top_field_first": true, "type": "FFmpegReader", "vcodec": "h264", "video_bit_rate": 935259, "video_length": "320", "video_stream_index": 0, "video_timebase": {"den": 30000, "num": 1}, "width": 596, "media_type": "video", "id": "TUY59O1ZMZ"}, {"acodec": "", "audio_bit_rate": 0, "audio_stream_index": -1, "audio_timebase": {"den": 1, "num": 1}, "channel_layout": 4, "channels": 0, "display_ratio": {"den": 84, "num": 149}, "duration": 20, "file_size": "2423260", "fps": {"den": 1, "num": 30}, "has_audio": false, "has_single_image": false, "has_video": true, "height": 336, "interlaced_frame": false, "path": "/home/diary/Desktop/\u041a\u043e\u043d\u0446\u0435\u043f\u0442\u044b/64. \u041f\u0440\u0438\u0447\u0438\u043d\u044b \u0431\u043e\u043b\u0435\u0437\u043d\u0435\u0439/video assets/18292843-preview.mp4", "pixel_format": 0, "pixel_ratio": {"den": 1, "num": 1}, "sample_rate": 0, "top_field_first": true, "type": "FFmpegReader", "vcodec": "h264", "video_bit_rate": 969304, "video_length": "600", "video_stream_index": 0, "video_timebase": {"den": 15360, "num": 1}, "width": 596, "media_type": "video", "id": "689UE7LWJF"}, {"acodec": "", "audio_bit_rate": 0, "audio_stream_index": -1, "audio_timebase": {"den": 1, "num": 1}, "channel_layout": 4, "channels": 0, "display_ratio": {"den": 84, "num": 149}, "duration": 12.033984184265137, "file_size": "1559140", "fps": {"den": 1, "num": 30}, "has_audio": false, "has_single_image": false, "has_video": true, "height": 336, "interlaced_frame": false, "path": "/home/diary/Desktop/\u041a\u043e\u043d\u0446\u0435\u043f\u0442\u044b/64. \u041f\u0440\u0438\u0447\u0438\u043d\u044b \u0431\u043e\u043b\u0435\u0437\u043d\u0435\u0439/video assets/18846515-preview.mp4", "pixel_format": 0, "pixel_ratio": {"den": 1, "num": 1}, "sample_rate": 0, "top_field_first": true, "type": "FFmpegReader", "vcodec": "h264", "video_bit_rate": 1036489, "video_length": "361", "video_stream_index": 0, "video_timebase": {"den": 15360, "num": 1}, "width": 596, "media_type": "video", "id": "TRSUKVWH99"}, {"acodec": "", "audio_bit_rate": 0, "audio_stream_index": -1, "audio_timebase": {"den": 1, "num": 1}, "channel_layout": 4, "channels": 0, "display_ratio": {"den": 84, "num": 149}, "duration": 29.26300048828125, "file_size": "3401785", "fps": {"den": 1001, "num": 30000}, "has_audio": false, "has_single_image": false, "has_video": true, "height": 336, "interlaced_frame": false, "path": "/home/diary/Desktop/\u041a\u043e\u043d\u0446\u0435\u043f\u0442\u044b/64. \u041f\u0440\u0438\u0447\u0438\u043d\u044b \u0431\u043e\u043b\u0435\u0437\u043d\u0435\u0439/video assets/18915110-preview.mp4", "pixel_format": 0, "pixel_ratio": {"den": 1, "num": 1}, "sample_rate": 0, "top_field_first": true, "type": "FFmpegReader", "vcodec": "h264", "video_bit_rate": 929989, "video_length": "877", "video_stream_index": 0, "video_timebase": {"den": 30000, "num": 1}, "width": 596, "media_type": "video", "id": "RWJ8IDOIZC"}, {"acodec": "", "audio_bit_rate": 0, "audio_stream_index": -1, "audio_timebase": {"den": 1, "num": 1}, "channel_layout": 4, "channels": 0, "display_ratio": {"den": 84, "num": 149}, "duration": 46, "file_size": "4973482", "fps": {"den": 1, "num": 25}, "has_audio": false, "has_single_image": false, "has_video": true, "height": 336, "interlaced_frame": false, "path": "/home/diary/Desktop/\u041a\u043e\u043d\u0446\u0435\u043f\u0442\u044b/64. \u041f\u0440\u0438\u0447\u0438\u043d\u044b \u0431\u043e\u043b\u0435\u0437\u043d\u0435\u0439/video assets/22138156-preview.mp4", "pixel_format": 0, "pixel_ratio": {"den": 1, "num": 1}, "sample_rate": 0, "top_field_first": true, "type": "FFmpegReader", "vcodec": "h264", "video_bit_rate": 864953, "video_length": "1150", "video_stream_index": 0, "video_timebase": {"den": 12800, "num": 1}, "width": 596, "media_type": "video", "id": "ZOUCJ0XQII"}, {"acodec": "", "audio_bit_rate": 0, "audio_stream_index": -1, "audio_timebase": {"den": 1, "num": 1}, "channel_layout": 4, "channels": 0, "display_ratio": {"den": 84, "num": 149}, "duration": 13.4399995803833, "file_size": "1560325", "fps": {"den": 1, "num": 25}, "has_audio": false, "has_single_image": false, "has_video": true, "height": 336, "interlaced_frame": false, "path": "/home/diary/Desktop/\u041a\u043e\u043d\u0446\u0435\u043f\u0442\u044b/64. \u041f\u0440\u0438\u0447\u0438\u043d\u044b \u0431\u043e\u043b\u0435\u0437\u043d\u0435\u0439/video assets/22782544-preview.mp4", "pixel_format": 0, "pixel_ratio": {"den": 1, "num": 1}, "sample_rate": 0, "top_field_first": true, "type": "FFmpegReader", "vcodec": "h264", "video_bit_rate": 928764, "video_length": "336", "video_stream_index": 0, "video_timebase": {"den": 12800, "num": 1}, "width": 596, "media_type": "video", "id": "M9OO5LBDVO"}, {"acodec": "", "audio_bit_rate": 0, "audio_stream_index": -1, "audio_timebase": {"den": 1, "num": 1}, "channel_layout": 4, "channels": 0, "display_ratio": {"den": 84, "num": 149}, "duration": 40, "file_size": "3518030", "fps": {"den": 1, "num": 25}, "has_audio": false, "has_single_image": false, "has_video": true, "height": 336, "interlaced_frame": false, "path": "/home/diary/Desktop/\u041a\u043e\u043d\u0446\u0435\u043f\u0442\u044b/64. \u041f\u0440\u0438\u0447\u0438\u043d\u044b \u0431\u043e\u043b\u0435\u0437\u043d\u0435\u0439/video assets/23694901-preview.mp4", "pixel_format": 0, "pixel_ratio": {"den": 1, "num": 1}, "sample_rate": 0, "top_field_first": true, "type": "FFmpegReader", "vcodec": "h264", "video_bit_rate": 703606, "video_length": "1000", "video_stream_index": 0, "video_timebase": {"den": 12800, "num": 1}, "width": 596, "media_type": "video", "id": "5UL6RUFUBO"}, {"acodec": "", "audio_bit_rate": 0, "audio_stream_index": -1, "audio_timebase": {"den": 1, "num": 1}, "channel_layout": 4, "channels": 0, "display_ratio": {"den": 84, "num": 149}, "duration": 46, "file_size": "4877662", "fps": {"den": 1, "num": 25}, "has_audio": false, "has_single_image": false, "has_video": true, "height": 336, "interlaced_frame": false, "path": "/home/diary/Desktop/\u041a\u043e\u043d\u0446\u0435\u043f\u0442\u044b/64. \u041f\u0440\u0438\u0447\u0438\u043d\u044b \u0431\u043e\u043b\u0435\u0437\u043d\u0435\u0439/video assets/23705650-preview.mp4", "pixel_format": 0, "pixel_ratio": {"den": 1, "num": 1}, "sample_rate": 0, "top_field_first": true, "type": "FFmpegReader", "vcodec": "h264", "video_bit_rate": 848289, "video_length": "1150", "video_stream_index": 0, "video_timebase": {"den": 12800, "num": 1}, "width": 596, "media_type": "video", "id": "VGKFBXYU5S"}, {"acodec": "", "audio_bit_rate": 0, "audio_stream_index": -1, "audio_timebase": {"den": 1, "num": 1}, "channel_layout": 4, "channels": 0, "display_ratio": {"den": 21, "num": 31}, "duration": 14.800000190734863, "file_size": "1753952", "fps": {"den": 1, "num": 30}, "has_audio": false, "has_single_image": false, "has_video": true, "height": 336, "interlaced_frame": false, "path": "/home/diary/Desktop/\u041a\u043e\u043d\u0446\u0435\u043f\u0442\u044b/64. \u041f\u0440\u0438\u0447\u0438\u043d\u044b \u0431\u043e\u043b\u0435\u0437\u043d\u0435\u0439/video assets/24668264-preview.mp4", "pixel_format": 0, "pixel_ratio": {"den": 1, "num": 1}, "sample_rate": 0, "top_field_first": true, "type": "FFmpegReader", "vcodec": "h264", "video_bit_rate": 948082, "video_length": "444", "video_stream_index": 0, "video_timebase": {"den": 15360, "num": 1}, "width": 496, "media_type": "video", "id": "T89J08QXXO"}, {"acodec": "", "audio_bit_rate": 0, "audio_stream_index": -1, "audio_timebase": {"den": 1, "num": 1}, "channel_layout": 4, "channels": 0, "display_ratio": {"den": 84, "num": 149}, "duration": 30.030000686645508, "file_size": "3660080", "fps": {"den": 1001, "num": 60000}, "has_audio": false, "has_single_image": false, "has_video": true, "height": 336, "interlaced_frame": false, "path": "/home/diary/Desktop/\u041a\u043e\u043d\u0446\u0435\u043f\u0442\u044b/64. \u041f\u0440\u0438\u0447\u0438\u043d\u044b \u0431\u043e\u043b\u0435\u0437\u043d\u0435\u0439/video assets/25507277-preview.mp4", "pixel_format": 0, "pixel_ratio": {"den": 1, "num": 1}, "sample_rate": 0, "top_field_first": true, "type": "FFmpegReader", "vcodec": "h264", "video_bit_rate": 975046, "video_length": "1800", "video_stream_index": 0, "video_timebase": {"den": 60000, "num": 1}, "width": 596, "media_type": "video", "id": "74FLNFK7DU"}, {"acodec": "", "audio_bit_rate": 0, "audio_stream_index": -1, "audio_timebase": {"den": 1, "num": 1}, "channel_layout": 4, "channels": 0, "display_ratio": {"den": 84, "num": 149}, "duration": 32, "file_size": "3798500", "fps": {"den": 1, "num": 25}, "has_audio": false, "has_single_image": false, "has_video": true, "height": 336, "interlaced_frame": false, "path": "/home/diary/Desktop/\u041a\u043e\u043d\u0446\u0435\u043f\u0442\u044b/64. \u041f\u0440\u0438\u0447\u0438\u043d\u044b \u0431\u043e\u043b\u0435\u0437\u043d\u0435\u0439/video assets/26548781-preview.mp4", "pixel_format": 0, "pixel_ratio": {"den": 1, "num": 1}, "sample_rate": 0, "top_field_first": true, "type": "FFmpegReader", "vcodec": "h264", "video_bit_rate": 949625, "video_length": "800", "video_stream_index": 0, "video_timebase": {"den": 12800, "num": 1}, "width": 596, "media_type": "video", "id": "RK5H5FZIPK"}, {"acodec": "", "audio_bit_rate": 0, "audio_stream_index": -1, "audio_timebase": {"den": 1, "num": 1}, "channel_layout": 4, "channels": 0, "display_ratio": {"den": 84, "num": 149}, "duration": 19.299999237060547, "file_size": "2254903", "fps": {"den": 1, "num": 30}, "has_audio": false, "has_single_image": false, "has_video": true, "height": 336, "interlaced_frame": false, "path": "/home/diary/Desktop/\u041a\u043e\u043d\u0446\u0435\u043f\u0442\u044b/64. \u041f\u0440\u0438\u0447\u0438\u043d\u044b \u0431\u043e\u043b\u0435\u0437\u043d\u0435\u0439/video assets/26828902-preview.mp4", "pixel_format": 0, "pixel_ratio": {"den": 1, "num": 1}, "sample_rate": 0, "top_field_first": true, "type": "FFmpegReader", "vcodec": "h264", "video_bit_rate": 934674, "video_length": "579", "video_stream_index": 0, "video_timebase": {"den": 15360, "num": 1}, "width": 596, "media_type": "video", "id": "IFYA03SB19"}, {"acodec": "", "audio_bit_rate": 0, "audio_stream_index": -1, "audio_timebase": {"den": 1, "num": 1}, "channel_layout": 4, "channels": 0, "display_ratio": {"den": 84, "num": 149}, "duration": 22.790000915527344, "file_size": "2657213", "fps": {"den": 1001, "num": 30000}, "has_audio": false, "has_single_image": false, "has_video": true, "height": 336, "interlaced_frame": false, "path": "/home/diary/Desktop/\u041a\u043e\u043d\u0446\u0435\u043f\u0442\u044b/64. \u041f\u0440\u0438\u0447\u0438\u043d\u044b \u0431\u043e\u043b\u0435\u0437\u043d\u0435\u0439/video assets/32769901-preview.mp4", "pixel_format": 0, "pixel_ratio": {"den": 1, "num": 1}, "sample_rate": 0, "top_field_first": true, "type": "FFmpegReader", "vcodec": "h264", "video_bit_rate": 932764, "video_length": "683", "video_stream_index": 0, "video_timebase": {"den": 30000, "num": 1}, "width": 596, "media_type": "video", "id": "MVEDX0MXTE"}, {"acodec": "", "audio_bit_rate": 0, "audio_stream_index": -1, "audio_timebase": {"den": 1, "num": 1}, "channel_layout": 4, "channels": 0, "display_ratio": {"den": 84, "num": 149}, "duration": 36.5369987487793, "file_size": "4196192", "fps": {"den": 1001, "num": 30000}, "has_audio": false, "has_single_image": false, "has_video": true, "height": 336, "interlaced_frame": false, "path": "/home/diary/Desktop/\u041a\u043e\u043d\u0446\u0435\u043f\u0442\u044b/64. \u041f\u0440\u0438\u0447\u0438\u043d\u044b \u0431\u043e\u043b\u0435\u0437\u043d\u0435\u0439/video assets/33052981-preview.mp4", "pixel_format": 0, "pixel_ratio": {"den": 1, "num": 1}, "sample_rate": 0, "top_field_first": true, "type": "FFmpegReader", "vcodec": "h264", "video_bit_rate": 918781, "video_length": "1095", "video_stream_index": 0, "video_timebase": {"den": 30000, "num": 1}, "width": 596, "media_type": "video", "id": "EWG01CHQ4Z"}, {"acodec": "", "audio_bit_rate": 0, "audio_stream_index": -1, "audio_timebase": {"den": 1, "num": 1}, "channel_layout": 4, "channels": 0, "display_ratio": {"den": 84, "num": 149}, "duration": 25.458999633789062, "file_size": "3043969", "fps": {"den": 1001, "num": 30000}, "has_audio": false, "has_single_image": false, "has_video": true, "height": 336, "interlaced_frame": false, "path": "/home/diary/Desktop/\u041a\u043e\u043d\u0446\u0435\u043f\u0442\u044b/64. \u041f\u0440\u0438\u0447\u0438\u043d\u044b \u0431\u043e\u043b\u0435\u0437\u043d\u0435\u0439/video assets/1007373979-preview.mp4", "pixel_format": 0, "pixel_ratio": {"den": 1, "num": 1}, "sample_rate": 0, "top_field_first": true, "type": "FFmpegReader", "vcodec": "h264", "video_bit_rate": 956508, "video_length": "763", "video_stream_index": 0, "video_timebase": {"den": 30000, "num": 1}, "width": 596, "media_type": "video", "id": "SQO0PHY2HX"}, {"acodec": "", "audio_bit_rate": 0, "audio_stream_index": -1, "audio_timebase": {"den": 1, "num": 1}, "channel_layout": 4, "channels": 0, "display_ratio": {"den": 84, "num": 149}, "duration": 8.451982498168945, "file_size": "1148399", "fps": {"den": 12, "num": 301}, "has_audio": false, "has_single_image": false, "has_video": true, "height": 336, "interlaced_frame": false, "path": "/home/diary/Desktop/\u041a\u043e\u043d\u0446\u0435\u043f\u0442\u044b/64. \u041f\u0440\u0438\u0447\u0438\u043d\u044b \u0431\u043e\u043b\u0435\u0437\u043d\u0435\u0439/video assets/1008850895-preview.mp4", "pixel_format": 0, "pixel_ratio": {"den": 1, "num": 1}, "sample_rate": 0, "top_field_first": true, "type": "FFmpegReader", "vcodec": "h264", "video_bit_rate": 1086984, "video_length": "212", "video_stream_index": 0, "video_timebase": {"den": 19264, "num": 1}, "width": 596, "media_type": "video", "id": "2D1LKDBFPE"}, {"acodec": "", "audio_bit_rate": 0, "audio_stream_index": -1, "audio_timebase": {"den": 1, "num": 1}, "channel_layout": 4, "channels": 0, "display_ratio": {"den": 84, "num": 149}, "duration": 17.207000732421875, "file_size": "2079960", "fps": {"den": 109869, "num": 2752000}, "has_audio": false, "has_single_image": false, "has_video": true, "height": 336, "interlaced_frame": false, "path": "/home/diary/Desktop/\u041a\u043e\u043d\u0446\u0435\u043f\u0442\u044b/64. \u041f\u0440\u0438\u0447\u0438\u043d\u044b \u0431\u043e\u043b\u0435\u0437\u043d\u0435\u0439/video assets/1008850913-preview.mp4", "pixel_format": 0, "pixel_ratio": {"den": 1, "num": 1}, "sample_rate": 0, "top_field_first": true, "type": "FFmpegReader", "vcodec": "h264", "video_bit_rate": 967029, "video_length": "431", "video_stream_index": 0, "video_timebase": {"den": 2752000, "num": 1}, "width": 596, "media_type": "video", "id": "5ANJQ3DRT6"}, {"acodec": "", "audio_bit_rate": 0, "audio_stream_index": -1, "audio_timebase": {"den": 1, "num": 1}, "channel_layout": 4, "channels": 0, "display_ratio": {"den": 84, "num": 149}, "duration": 13.5, "file_size": "1421739", "fps": {"den": 1, "num": 30}, "has_audio": false, "has_single_image": false, "has_video": true, "height": 336, "interlaced_frame": false, "path": "/home/diary/Desktop/\u041a\u043e\u043d\u0446\u0435\u043f\u0442\u044b/64. \u041f\u0440\u0438\u0447\u0438\u043d\u044b \u0431\u043e\u043b\u0435\u0437\u043d\u0435\u0439/video assets/1009464575-preview.mp4", "pixel_format": 0, "pixel_ratio": {"den": 1, "num": 1}, "sample_rate": 0, "top_field_first": true, "type": "FFmpegReader", "vcodec": "h264", "video_bit_rate": 842512, "video_length": "405", "video_stream_index": 0, "video_timebase": {"den": 15360, "num": 1}, "width": 596, "media_type": "video", "id": "E1WTKOKJLM"}, {"acodec": "", "audio_bit_rate": 0, "audio_stream_index": -1, "audio_timebase": {"den": 1, "num": 1}, "channel_layout": 4, "channels": 0, "display_ratio": {"den": 84, "num": 149}, "duration": 10.277000427246094, "file_size": "1265434", "fps": {"den": 1001, "num": 30000}, "has_audio": false, "has_single_image": false, "has_video": true, "height": 336, "interlaced_frame": false, "path": "/home/diary/Desktop/\u041a\u043e\u043d\u0446\u0435\u043f\u0442\u044b/64. \u041f\u0440\u0438\u0447\u0438\u043d\u044b \u0431\u043e\u043b\u0435\u0437\u043d\u0435\u0439/video assets/1009568600-preview.mp4", "pixel_format": 0, "pixel_ratio": {"den": 1, "num": 1}, "sample_rate": 0, "top_field_first": true, "type": "FFmpegReader", "vcodec": "h264", "video_bit_rate": 985061, "video_length": "308", "video_stream_index": 0, "video_timebase": {"den": 30000, "num": 1}, "width": 596, "media_type": "video", "id": "A4DPRYTBR3"}, {"acodec": "", "audio_bit_rate": 0, "audio_stream_index": -1, "audio_timebase": {"den": 1, "num": 1}, "channel_layout": 4, "channels": 0, "display_ratio": {"den": 84, "num": 149}, "duration": 12.5, "file_size": "1478230", "fps": {"den": 1, "num": 24}, "has_audio": false, "has_single_image": false, "has_video": true, "height": 336, "interlaced_frame": false, "path": "/home/diary/Desktop/\u041a\u043e\u043d\u0446\u0435\u043f\u0442\u044b/64. \u041f\u0440\u0438\u0447\u0438\u043d\u044b \u0431\u043e\u043b\u0435\u0437\u043d\u0435\u0439/video assets/1011337619-preview.mp4", "pixel_format": 0, "pixel_ratio": {"den": 1, "num": 1}, "sample_rate": 0, "top_field_first": true, "type": "FFmpegReader", "vcodec": "h264", "video_bit_rate": 946067, "video_length": "300", "video_stream_index": 0, "video_timebase": {"den": 12288, "num": 1}, "width": 596, "media_type": "video", "id": "O6ZG7ZNYW8"}, {"acodec": "aac", "audio_bit_rate": 2783, "audio_stream_index": 1, "audio_timebase": {"den": 44100, "num": 1}, "channel_layout": 3, "channels": 2, "display_ratio": {"den": 84, "num": 149}, "duration": 25.292993545532227, "file_size": "2738626", "fps": {"den": 1001, "num": 30000}, "has_audio": true, "has_single_image": false, "has_video": true, "height": 336, "interlaced_frame": false, "path": "/home/diary/Desktop/\u041a\u043e\u043d\u0446\u0435\u043f\u0442\u044b/64. \u041f\u0440\u0438\u0447\u0438\u043d\u044b \u0431\u043e\u043b\u0435\u0437\u043d\u0435\u0439/video assets/1013201579-preview.mp4", "pixel_format": 0, "pixel_ratio": {"den": 1, "num": 1}, "sample_rate": 44100, "top_field_first": true, "type": "FFmpegReader", "vcodec": "h264", "video_bit_rate": 865626, "video_length": "758", "video_stream_index": 0, "video_timebase": {"den": 30000, "num": 1}, "width": 596, "media_type": "video", "id": "897BSNVSR8"}, {"acodec": "", "audio_bit_rate": 0, "audio_stream_index": -1, "audio_timebase": {"den": 1, "num": 1}, "channel_layout": 4, "channels": 0, "display_ratio": {"den": 84, "num": 149}, "duration": 14.114999771118164, "file_size": "1699356", "fps": {"den": 1001, "num": 30000}, "has_audio": false, "has_single_image": false, "has_video": true, "height": 336, "interlaced_frame": false, "path": "/home/diary/Desktop/\u041a\u043e\u043d\u0446\u0435\u043f\u0442\u044b/64. \u041f\u0440\u0438\u0447\u0438\u043d\u044b \u0431\u043e\u043b\u0435\u0437\u043d\u0435\u0439/video assets/1013914880-preview.mp4", "pixel_format": 0, "pixel_ratio": {"den": 1, "num": 1}, "sample_rate": 0, "top_field_first": true, "type": "FFmpegReader", "vcodec": "h264", "video_bit_rate": 963148, "video_length": "423", "video_stream_index": 0, "video_timebase": {"den": 30000, "num": 1}, "width": 596, "media_type": "video", "id": "A3QFKMTXIY"}, {"acodec": "aac", "audio_bit_rate": 2781, "audio_stream_index": 1, "audio_timebase": {"den": 44100, "num": 1}, "channel_layout": 3, "channels": 2, "display_ratio": {"den": 84, "num": 149}, "duration": 16.1409969329834, "file_size": "1911528", "fps": {"den": 1001, "num": 30000}, "has_audio": true, "has_single_image": false, "has_video": true, "height": 336, "interlaced_frame": false, "path": "/home/diary/Desktop/\u041a\u043e\u043d\u0446\u0435\u043f\u0442\u044b/64. \u041f\u0440\u0438\u0447\u0438\u043d\u044b \u0431\u043e\u043b\u0435\u0437\u043d\u0435\u0439/video assets/1015105216-preview.mp4", "pixel_format": 0, "pixel_ratio": {"den": 1, "num": 1}, "sample_rate": 44100, "top_field_first": true, "type": "FFmpegReader", "vcodec": "h264", "video_bit_rate": 944956, "video_length": "485", "video_stream_index": 0, "video_timebase": {"den": 30000, "num": 1}, "width": 596, "media_type": "video", "id": "BSQO44CAX3"}, {"acodec": "aac", "audio_bit_rate": 2781, "audio_stream_index": 1, "audio_timebase": {"den": 44100, "num": 1}, "channel_layout": 3, "channels": 2, "display_ratio": {"den": 84, "num": 149}, "duration": 16.1409969329834, "file_size": "1911528", "fps": {"den": 1001, "num": 30000}, "has_audio": true, "has_single_image": false, "has_video": true, "height": 336, "interlaced_frame": false, "path": "/home/diary/Desktop/\u041a\u043e\u043d\u0446\u0435\u043f\u0442\u044b/64. \u041f\u0440\u0438\u0447\u0438\u043d\u044b \u0431\u043e\u043b\u0435\u0437\u043d\u0435\u0439/video assets/1015105216-preview(1).mp4", "pixel_format": 0, "pixel_ratio": {"den": 1, "num": 1}, "sample_rate": 44100, "top_field_first": true, "type": "FFmpegReader", "vcodec": "h264", "video_bit_rate": 944956, "video_length": "485", "video_stream_index": 0, "video_timebase": {"den": 30000, "num": 1}, "width": 596, "media_type": "video", "id": "CX80APFSDI"}, {"acodec": "", "audio_bit_rate": 0, "audio_stream_index": -1, "audio_timebase": {"den": 1, "num": 1}, "channel_layout": 4, "channels": 0, "display_ratio": {"den": 84, "num": 149}, "duration": 11.319999694824219, "file_size": "1468440", "fps": {"den": 1, "num": 25}, "has_audio": false, "has_single_image": false, "has_video": true, "height": 336, "interlaced_frame": false, "path": "/home/diary/Desktop/\u041a\u043e\u043d\u0446\u0435\u043f\u0442\u044b/64. \u041f\u0440\u0438\u0447\u0438\u043d\u044b \u0431\u043e\u043b\u0435\u0437\u043d\u0435\u0439/video assets/1015371004-preview.mp4", "pixel_format": 0, "pixel_ratio": {"den": 1, "num": 1}, "sample_rate": 0, "top_field_first": true, "type": "FFmpegReader", "vcodec": "h264", "video_bit_rate": 1037766, "video_length": "283", "video_stream_index": 0, "video_timebase": {"den": 12800, "num": 1}, "width": 596, "media_type": "video", "id": "3RL2GADB3O"}, {"acodec": "", "audio_bit_rate": 0, "audio_stream_index": -1, "audio_timebase": {"den": 1, "num": 1}, "channel_layout": 4, "channels": 0, "display_ratio": {"den": 84, "num": 149}, "duration": 9.920000076293945, "file_size": "1198046", "fps": {"den": 1, "num": 25}, "has_audio": false, "has_single_image": false, "has_video": true, "height": 336, "interlaced_frame": false, "path": "/home/diary/Desktop/\u041a\u043e\u043d\u0446\u0435\u043f\u0442\u044b/64. \u041f\u0440\u0438\u0447\u0438\u043d\u044b \u0431\u043e\u043b\u0435\u0437\u043d\u0435\u0439/video assets/1016309740-preview.mp4", "pixel_format": 0, "pixel_ratio": {"den": 1, "num": 1}, "sample_rate": 0, "top_field_first": true, "type": "FFmpegReader", "vcodec": "h264", "video_bit_rate": 966166, "video_length": "248", "video_stream_index": 0, "video_timebase": {"den": 12800, "num": 1}, "width": 596, "media_type": "video", "id": "8T4SK39XZY"}, {"acodec": "", "audio_bit_rate": 0, "audio_stream_index": -1, "audio_timebase": {"den": 1, "num": 1}, "channel_layout": 4, "channels": 0, "display_ratio": {"den": 84, "num": 149}, "duration": 6.400000095367432, "file_size": "752329", "fps": {"den": 1, "num": 30}, "has_audio": false, "has_single_image": false, "has_video": true, "height": 336, "interlaced_frame": false, "path": "/home/diary/Desktop/\u041a\u043e\u043d\u0446\u0435\u043f\u0442\u044b/64. \u041f\u0440\u0438\u0447\u0438\u043d\u044b \u0431\u043e\u043b\u0435\u0437\u043d\u0435\u0439/video assets/1016312956-preview.mp4", "pixel_format": 0, "pixel_ratio": {"den": 1, "num": 1}, "sample_rate": 0, "top_field_first": true, "type": "FFmpegReader", "vcodec": "h264", "video_bit_rate": 940411, "video_length": "192", "video_stream_index": 0, "video_timebase": {"den": 15360, "num": 1}, "width": 596, "media_type": "video", "id": "6D5T1E4BRH"}, {"acodec": "", "audio_bit_rate": 0, "audio_stream_index": -1, "audio_timebase": {"den": 1, "num": 1}, "channel_layout": 4, "channels": 0, "display_ratio": {"den": 79, "num": 150}, "duration": 44.33599853515625, "file_size": "5120509", "fps": {"den": 1001, "num": 24000}, "has_audio": false, "has_single_image": false, "has_video": true, "height": 316, "interlaced_frame": false, "path": "/home/diary/Desktop/\u041a\u043e\u043d\u0446\u0435\u043f\u0442\u044b/64. \u041f\u0440\u0438\u0447\u0438\u043d\u044b \u0431\u043e\u043b\u0435\u0437\u043d\u0435\u0439/video assets/1019086909-preview.mp4", "pixel_format": 0, "pixel_ratio": {"den": 1, "num": 1}, "sample_rate": 0, "top_field_first": true, "type": "FFmpegReader", "vcodec": "h264", "video_bit_rate": 923946, "video_length": "1063", "video_stream_index": 0, "video_timebase": {"den": 24000, "num": 1}, "width": 600, "media_type": "video", "id": "S1F0PS2NHN"}, {"acodec": "", "audio_bit_rate": 0, "audio_stream_index": -1, "audio_timebase": {"den": 1, "num": 1}, "channel_layout": 4, "channels": 0, "display_ratio": {"den": 84, "num": 149}, "duration": 10.143991470336914, "file_size": "1221831", "fps": {"den": 6, "num": 181}, "has_audio": false, "has_single_image": false, "has_video": true, "height": 336, "interlaced_frame": false, "path": "/home/diary/Desktop/\u041a\u043e\u043d\u0446\u0435\u043f\u0442\u044b/64. \u041f\u0440\u0438\u0447\u0438\u043d\u044b \u0431\u043e\u043b\u0435\u0437\u043d\u0435\u0439/video assets/1019281846-preview.mp4", "pixel_format": 0, "pixel_ratio": {"den": 1, "num": 1}, "sample_rate": 0, "top_field_first": true, "type": "FFmpegReader", "vcodec": "h264", "video_bit_rate": 963589, "video_length": "306", "video_stream_index": 0, "video_timebase": {"den": 11584, "num": 1}, "width": 596, "media_type": "video", "id": "37RK3BVHCD"}, {"acodec": "", "audio_bit_rate": 0, "audio_stream_index": -1, "audio_timebase": {"den": 1, "num": 1}, "channel_layout": 4, "channels": 0, "display_ratio": {"den": 84, "num": 149}, "duration": 20, "file_size": "2331260", "fps": {"den": 1, "num": 25}, "has_audio": false, "has_single_image": false, "has_video": true, "height": 336, "interlaced_frame": false, "path": "/home/diary/Desktop/\u041a\u043e\u043d\u0446\u0435\u043f\u0442\u044b/64. \u041f\u0440\u0438\u0447\u0438\u043d\u044b \u0431\u043e\u043b\u0435\u0437\u043d\u0435\u0439/video assets/1020488074-preview.mp4", "pixel_format": 0, "pixel_ratio": {"den": 1, "num": 1}, "sample_rate": 0, "top_field_first": true, "type": "FFmpegReader", "vcodec": "h264", "video_bit_rate": 932504, "video_length": "500", "video_stream_index": 0, "video_timebase": {"den": 12800, "num": 1}, "width": 596, "media_type": "video", "id": "ULGCDBZHYU"}, {"acodec": "", "audio_bit_rate": 0, "audio_stream_index": -1, "audio_timebase": {"den": 1, "num": 1}, "channel_layout": 4, "channels": 0, "display_ratio": {"den": 84, "num": 149}, "duration": 9.880000114440918, "file_size": "1149638", "fps": {"den": 1, "num": 25}, "has_audio": false, "has_single_image": false, "has_video": true, "height": 336, "interlaced_frame": false, "path": "/home/diary/Desktop/\u041a\u043e\u043d\u0446\u0435\u043f\u0442\u044b/64. \u041f\u0440\u0438\u0447\u0438\u043d\u044b \u0431\u043e\u043b\u0435\u0437\u043d\u0435\u0439/video assets/1024315289-preview.mp4", "pixel_format": 0, "pixel_ratio": {"den": 1, "num": 1}, "sample_rate": 0, "top_field_first": true, "type": "FFmpegReader", "vcodec": "h264", "video_bit_rate": 930880, "video_length": "247", "video_stream_index": 0, "video_timebase": {"den": 12800, "num": 1}, "width": 596, "media_type": "video", "id": "BZZOUKMZQJ"}, {"acodec": "", "audio_bit_rate": 0, "audio_stream_index": -1, "audio_timebase": {"den": 1, "num": 1}, "channel_layout": 4, "channels": 0, "display_ratio": {"den": 84, "num": 149}, "duration": 15.015000343322754, "file_size": "1533333", "fps": {"den": 1001, "num": 30000}, "has_audio": false, "has_single_image": false, "has_video": true, "height": 336, "interlaced_frame": false, "path": "/home/diary/Desktop/\u041a\u043e\u043d\u0446\u0435\u043f\u0442\u044b/64. \u041f\u0440\u0438\u0447\u0438\u043d\u044b \u0431\u043e\u043b\u0435\u0437\u043d\u0435\u0439/video assets/1025020760-preview.mp4", "pixel_format": 0, "pixel_ratio": {"den": 1, "num": 1}, "sample_rate": 0, "top_field_first": true, "type": "FFmpegReader", "vcodec": "h264", "video_bit_rate": 816960, "video_length": "450", "video_stream_index": 0, "video_timebase": {"den": 30000, "num": 1}, "width": 596, "media_type": "video", "id": "PK0GVBXWTM"}, {"acodec": "aac", "audio_bit_rate": 2104, "audio_stream_index": 1, "audio_timebase": {"den": 44100, "num": 1}, "channel_layout": 3, "channels": 2, "display_ratio": {"den": 84, "num": 149}, "duration": 12.145010948181152, "file_size": "1493342", "fps": {"den": 1001, "num": 30000}, "has_audio": true, "has_single_image": false, "has_video": true, "height": 336, "interlaced_frame": false, "path": "/home/diary/Desktop/\u041a\u043e\u043d\u0446\u0435\u043f\u0442\u044b/64. \u041f\u0440\u0438\u0447\u0438\u043d\u044b \u0431\u043e\u043b\u0435\u0437\u043d\u0435\u0439/video assets/1027882982-preview.mp4", "pixel_format": 0, "pixel_ratio": {"den": 1, "num": 1}, "sample_rate": 44100, "top_field_first": true, "type": "FFmpegReader", "vcodec": "h264", "video_bit_rate": 981735, "video_length": "360", "video_stream_index": 0, "video_timebase": {"den": 30000, "num": 1}, "width": 596, "media_type": "video", "id": "XWL57LA791"}, {"acodec": "", "audio_bit_rate": 0, "audio_stream_index": -1, "audio_timebase": {"den": 1, "num": 1}, "channel_layout": 4, "channels": 0, "display_ratio": {"den": 84, "num": 149}, "duration": 16.280000686645508, "file_size": "2234883", "fps": {"den": 1, "num": 25}, "has_audio": false, "has_single_image": false, "has_video": true, "height": 336, "interlaced_frame": false, "path": "/home/diary/Desktop/\u041a\u043e\u043d\u0446\u0435\u043f\u0442\u044b/64. \u041f\u0440\u0438\u0447\u0438\u043d\u044b \u0431\u043e\u043b\u0435\u0437\u043d\u0435\u0439/video assets/1028153921-preview.mp4", "pixel_format": 0, "pixel_ratio": {"den": 1, "num": 1}, "sample_rate": 0, "top_field_first": true, "type": "FFmpegReader", "vcodec": "h264", "video_bit_rate": 1098222, "video_length": "407", "video_stream_index": 0, "video_timebase": {"den": 12800, "num": 1}, "width": 596, "media_type": "video", "id": "SA7BPKZ4IK"}, {"acodec": "", "audio_bit_rate": 0, "audio_stream_index": -1, "audio_timebase": {"den": 1, "num": 1}, "channel_layout": 4, "channels": 0, "display_ratio": {"den": 84, "num": 149}, "duration": 23.39900016784668, "file_size": "2614845", "fps": {"den": 1001, "num": 24000}, "has_audio": false, "has_single_image": false, "has_video": true, "height": 336, "interlaced_frame": false, "path": "/home/diary/Desktop/\u041a\u043e\u043d\u0446\u0435\u043f\u0442\u044b/64. \u041f\u0440\u0438\u0447\u0438\u043d\u044b \u0431\u043e\u043b\u0435\u0437\u043d\u0435\u0439/video assets/1028477030-preview.mp4", "pixel_format": 0, "pixel_ratio": {"den": 1, "num": 1}, "sample_rate": 0, "top_field_first": true, "type": "FFmpegReader", "vcodec": "h264", "video_bit_rate": 894002, "video_length": "561", "video_stream_index": 0, "video_timebase": {"den": 24000, "num": 1}, "width": 596, "media_type": "video", "id": "SLPZBORB0C"}, {"acodec": "", "audio_bit_rate": 0, "audio_stream_index": -1, "audio_timebase": {"den": 1, "num": 1}, "channel_layout": 4, "channels": 0, "display_ratio": {"den": 84, "num": 149}, "duration": 15, "file_size": "1802531", "fps": {"den": 1, "num": 30}, "has_audio": false, "has_single_image": false, "has_video": true, "height": 336, "interlaced_frame": false, "path": "/home/diary/Desktop/\u041a\u043e\u043d\u0446\u0435\u043f\u0442\u044b/64. \u041f\u0440\u0438\u0447\u0438\u043d\u044b \u0431\u043e\u043b\u0435\u0437\u043d\u0435\u0439/video assets/1028934152-preview.mp4", "pixel_format": 0, "pixel_ratio": {"den": 1, "num": 1}, "sample_rate": 0, "top_field_first": true, "type": "FFmpegReader", "vcodec": "h264", "video_bit_rate": 961349, "video_length": "450", "video_stream_index": 0, "video_timebase": {"den": 15360, "num": 1}, "width": 596, "media_type": "video", "id": "60L2HY5M6S"}, {"acodec": "", "audio_bit_rate": 0, "audio_stream_index": -1, "audio_timebase": {"den": 1, "num": 1}, "channel_layout": 4, "channels": 0, "display_ratio": {"den": 84, "num": 149}, "duration": 19.366992950439453, "file_size": "1210742", "fps": {"den": 1, "num": 30}, "has_audio": false, "has_single_image": false, "has_video": true, "height": 336, "interlaced_frame": false, "path": "/home/diary/Desktop/\u041a\u043e\u043d\u0446\u0435\u043f\u0442\u044b/64. \u041f\u0440\u0438\u0447\u0438\u043d\u044b \u0431\u043e\u043b\u0435\u0437\u043d\u0435\u0439/video assets/1031348399-preview.mp4", "pixel_format": 0, "pixel_ratio": {"den": 1, "num": 1}, "sample_rate": 0, "top_field_first": true, "type": "FFmpegReader", "vcodec": "h264", "video_bit_rate": 500125, "video_length": "581", "video_stream_index": 0, "video_timebase": {"den": 15360, "num": 1}, "width": 596, "media_type": "video", "id": "5695A74IRT"}, {"acodec": "", "audio_bit_rate": 0, "audio_stream_index": -1, "audio_timebase": {"den": 1, "num": 1}, "channel_layout": 4, "channels": 0, "display_ratio": {"den": 84, "num": 149}, "duration": 35.583984375, "file_size": "4040931", "fps": {"den": 1, "num": 24}, "has_audio": false, "has_single_image": false, "has_video": true, "height": 336, "interlaced_frame": false, "path": "/home/diary/Desktop/\u041a\u043e\u043d\u0446\u0435\u043f\u0442\u044b/64. \u041f\u0440\u0438\u0447\u0438\u043d\u044b \u0431\u043e\u043b\u0435\u0437\u043d\u0435\u0439/video assets/1033434362-preview.mp4", "pixel_format": 0, "pixel_ratio": {"den": 1, "num": 1}, "sample_rate": 0, "top_field_first": true, "type": "FFmpegReader", "vcodec": "h264", "video_bit_rate": 908482, "video_length": "854", "video_stream_index": 0, "video_timebase": {"den": 12288, "num": 1}, "width": 596, "media_type": "video", "id": "O1B5S1FAAK"}, {"acodec": "", "audio_bit_rate": 0, "audio_stream_index": -1, "audio_timebase": {"den": 1, "num": 1}, "channel_layout": 4, "channels": 0, "display_ratio": {"den": 79, "num": 150}, "duration": 8.479999542236328, "file_size": "989933", "fps": {"den": 1, "num": 25}, "has_audio": false, "has_single_image": false, "has_video": true, "height": 316, "interlaced_frame": false, "path": "/home/diary/Desktop/\u041a\u043e\u043d\u0446\u0435\u043f\u0442\u044b/64. \u041f\u0440\u0438\u0447\u0438\u043d\u044b \u0431\u043e\u043b\u0435\u0437\u043d\u0435\u0439/video assets/1034434721-preview.mp4", "pixel_format": 0, "pixel_ratio": {"den": 1, "num": 1}, "sample_rate": 0, "top_field_first": true, "type": "FFmpegReader", "vcodec": "h264", "video_bit_rate": 933899, "video_length": "212", "video_stream_index": 0, "video_timebase": {"den": 12800, "num": 1}, "width": 600, "media_type": "video", "id": "E15A7825UX"}, {"acodec": "", "audio_bit_rate": 0, "audio_stream_index": -1, "audio_timebase": {"den": 1, "num": 1}, "channel_layout": 4, "channels": 0, "display_ratio": {"den": 79, "num": 150}, "duration": 14, "file_size": "1548688", "fps": {"den": 1, "num": 30}, "has_audio": false, "has_single_image": false, "has_video": true, "height": 316, "interlaced_frame": false, "path": "/home/diary/Desktop/\u041a\u043e\u043d\u0446\u0435\u043f\u0442\u044b/64. \u041f\u0440\u0438\u0447\u0438\u043d\u044b \u0431\u043e\u043b\u0435\u0437\u043d\u0435\u0439/video assets/1034566781-preview.mp4", "pixel_format": 0, "pixel_ratio": {"den": 1, "num": 1}, "sample_rate": 0, "top_field_first": true, "type": "FFmpegReader", "vcodec": "h264", "video_bit_rate": 884964, "video_length": "420", "video_stream_index": 0, "video_timebase": {"den": 15360, "num": 1}, "width": 600, "media_type": "video", "id": "4SPGIYR94H"}, {"acodec": "", "audio_bit_rate": 0, "audio_stream_index": -1, "audio_timebase": {"den": 1, "num": 1}, "channel_layout": 4, "channels": 0, "display_ratio": {"den": 79, "num": 150}, "duration": 14, "file_size": "1548688", "fps": {"den": 1, "num": 30}, "has_audio": false, "has_single_image": false, "has_video": true, "height": 316, "interlaced_frame": false, "path": "/home/diary/Desktop/\u041a\u043e\u043d\u0446\u0435\u043f\u0442\u044b/64. \u041f\u0440\u0438\u0447\u0438\u043d\u044b \u0431\u043e\u043b\u0435\u0437\u043d\u0435\u0439/video assets/1034566781-preview(1).mp4", "pixel_format": 0, "pixel_ratio": {"den": 1, "num": 1}, "sample_rate": 0, "top_field_first": true, "type": "FFmpegReader", "vcodec": "h264", "video_bit_rate": 884964, "video_length": "420", "video_stream_index": 0, "video_timebase": {"den": 15360, "num": 1}, "width": 600, "media_type": "video", "id": "G8W3M465Z2"}, {"acodec": "", "audio_bit_rate": 0, "audio_stream_index": -1, "audio_timebase": {"den": 1, "num": 1}, "channel_layout": 4, "channels": 0, "display_ratio": {"den": 84, "num": 149}, "duration": 12.479999542236328, "file_size": "1377383", "fps": {"den": 1, "num": 25}, "has_audio": false, "has_single_image": false, "has_video": true, "height": 336, "interlaced_frame": false, "path": "/home/diary/Desktop/\u041a\u043e\u043d\u0446\u0435\u043f\u0442\u044b/64. \u041f\u0440\u0438\u0447\u0438\u043d\u044b \u0431\u043e\u043b\u0435\u0437\u043d\u0435\u0439/video assets/1035271574-preview.mp4", "pixel_format": 0, "pixel_ratio": {"den": 1, "num": 1}, "sample_rate": 0, "top_field_first": true, "type": "FFmpegReader", "vcodec": "h264", "video_bit_rate": 882937, "video_length": "312", "video_stream_index": 0, "video_timebase": {"den": 12800, "num": 1}, "width": 596, "media_type": "video", "id": "D9LWSONSN7"}, {"acodec": "", "audio_bit_rate": 0, "audio_stream_index": -1, "audio_timebase": {"den": 1, "num": 1}, "channel_layout": 4, "channels": 0, "display_ratio": {"den": 84, "num": 149}, "duration": 9.876999855041504, "file_size": "1089677", "fps": {"den": 1001, "num": 30000}, "has_audio": false, "has_single_image": false, "has_video": true, "height": 336, "interlaced_frame": false, "path": "/home/diary/Desktop/\u041a\u043e\u043d\u0446\u0435\u043f\u0442\u044b/64. \u041f\u0440\u0438\u0447\u0438\u043d\u044b \u0431\u043e\u043b\u0435\u0437\u043d\u0435\u0439/video assets/1035604484-preview.mp4", "pixel_format": 0, "pixel_ratio": {"den": 1, "num": 1}, "sample_rate": 0, "top_field_first": true, "type": "FFmpegReader", "vcodec": "h264", "video_bit_rate": 882597, "video_length": "296", "video_stream_index": 0, "video_timebase": {"den": 30000, "num": 1}, "width": 596, "media_type": "video", "id": "FC9NLBSBPT"}, {"acodec": "", "audio_bit_rate": 0, "audio_stream_index": -1, "audio_timebase": {"den": 1, "num": 1}, "channel_layout": 4, "channels": 0, "display_ratio": {"den": 79, "num": 150}, "duration": 18.68600082397461, "file_size": "1391693", "fps": {"den": 1001, "num": 24000}, "has_audio": false, "has_single_image": false, "has_video": true, "height": 316, "interlaced_frame": false, "path": "/home/diary/Desktop/\u041a\u043e\u043d\u0446\u0435\u043f\u0442\u044b/64. \u041f\u0440\u0438\u0447\u0438\u043d\u044b \u0431\u043e\u043b\u0435\u0437\u043d\u0435\u0439/video assets/1036322543-preview.mp4", "pixel_format": 0, "pixel_ratio": {"den": 1, "num": 1}, "sample_rate": 0, "top_field_first": true, "type": "FFmpegReader", "vcodec": "h264", "video_bit_rate": 595822, "video_length": "448", "video_stream_index": 0, "video_timebase": {"den": 24000, "num": 1}, "width": 600, "media_type": "video", "id": "3371VX0R9A"}, {"acodec": "", "audio_bit_rate": 0, "audio_stream_index": -1, "audio_timebase": {"den": 1, "num": 1}, "channel_layout": 4, "channels": 0, "display_ratio": {"den": 84, "num": 149}, "duration": 6.760000228881836, "file_size": "286173", "fps": {"den": 1, "num": 25}, "has_audio": false, "has_single_image": false, "has_video": true, "height": 336, "interlaced_frame": false, "path": "/home/diary/Desktop/\u041a\u043e\u043d\u0446\u0435\u043f\u0442\u044b/64. \u041f\u0440\u0438\u0447\u0438\u043d\u044b \u0431\u043e\u043b\u0435\u0437\u043d\u0435\u0439/video assets/1036992635-preview.mp4", "pixel_format": 0, "pixel_ratio": {"den": 1, "num": 1}, "sample_rate": 0, "top_field_first": true, "type": "FFmpegReader", "vcodec": "h264", "video_bit_rate": 338666, "video_length": "169", "video_stream_index": 0, "video_timebase": {"den": 12800, "num": 1}, "width": 596, "media_type": "video", "id": "7RHPWGPYIR"}, {"acodec": "", "audio_bit_rate": 0, "audio_stream_index": -1, "audio_timebase": {"den": 1, "num": 1}, "channel_layout": 4, "channels": 0, "display_ratio": {"den": 79, "num": 150}, "duration": 14.807000160217285, "file_size": "1666944", "fps": {"den": 1001, "num": 24000}, "has_audio": false, "has_single_image": false, "has_video": true, "height": 316, "interlaced_frame": false, "path": "/home/diary/Desktop/\u041a\u043e\u043d\u0446\u0435\u043f\u0442\u044b/64. \u041f\u0440\u0438\u0447\u0438\u043d\u044b \u0431\u043e\u043b\u0435\u0437\u043d\u0435\u0439/video assets/1037066192-preview.mp4", "pixel_format": 0, "pixel_ratio": {"den": 1, "num": 1}, "sample_rate": 0, "top_field_first": true, "type": "FFmpegReader", "vcodec": "h264", "video_bit_rate": 900624, "video_length": "355", "video_stream_index": 0, "video_timebase": {"den": 24000, "num": 1}, "width": 600, "media_type": "video", "id": "8PTZDQOQP0"}, {"acodec": "", "audio_bit_rate": 0, "audio_stream_index": -1, "audio_timebase": {"den": 1, "num": 1}, "channel_layout": 4, "channels": 0, "display_ratio": {"den": 79, "num": 150}, "duration": 18.01799964904785, "file_size": "1891066", "fps": {"den": 1001, "num": 24000}, "has_audio": false, "has_single_image": false, "has_video": true, "height": 316, "interlaced_frame": false, "path": "/home/diary/Desktop/\u041a\u043e\u043d\u0446\u0435\u043f\u0442\u044b/64. \u041f\u0440\u0438\u0447\u0438\u043d\u044b \u0431\u043e\u043b\u0435\u0437\u043d\u0435\u0439/video assets/1037301098-preview.mp4", "pixel_format": 0, "pixel_ratio": {"den": 1, "num": 1}, "sample_rate": 0, "top_field_first": true, "type": "FFmpegReader", "vcodec": "h264", "video_bit_rate": 839634, "video_length": "432", "video_stream_index": 0, "video_timebase": {"den": 24000, "num": 1}, "width": 600, "media_type": "video", "id": "91G9I2DA4B"}, {"acodec": "", "audio_bit_rate": 0, "audio_stream_index": -1, "audio_timebase": {"den": 1, "num": 1}, "channel_layout": 4, "channels": 0, "display_ratio": {"den": 84, "num": 149}, "duration": 8.942999839782715, "file_size": "500156", "fps": {"den": 1001, "num": 30000}, "has_audio": false, "has_single_image": false, "has_video": true, "height": 336, "interlaced_frame": false, "path": "/home/diary/Desktop/\u041a\u043e\u043d\u0446\u0435\u043f\u0442\u044b/64. \u041f\u0440\u0438\u0447\u0438\u043d\u044b \u0431\u043e\u043b\u0435\u0437\u043d\u0435\u0439/video assets/1037685125-preview.mp4", "pixel_format": 0, "pixel_ratio": {"den": 1, "num": 1}, "sample_rate": 0, "top_field_first": true, "type": "FFmpegReader", "vcodec": "h264", "video_bit_rate": 447416, "video_length": "268", "video_stream_index": 0, "video_timebase": {"den": 30000, "num": 1}, "width": 596, "media_type": "video", "id": "LG1NPUCC77"}, {"acodec": "", "audio_bit_rate": 0, "audio_stream_index": -1, "audio_timebase": {"den": 1, "num": 1}, "channel_layout": 4, "channels": 0, "display_ratio": {"den": 84, "num": 149}, "duration": 16.75, "file_size": "726021", "fps": {"den": 1, "num": 24}, "has_audio": false, "has_single_image": false, "has_video": true, "height": 336, "interlaced_frame": false, "path": "/home/diary/Desktop/\u041a\u043e\u043d\u0446\u0435\u043f\u0442\u044b/64. \u041f\u0440\u0438\u0447\u0438\u043d\u044b \u0431\u043e\u043b\u0435\u0437\u043d\u0435\u0439/video assets/1038544145-preview.mp4", "pixel_format": 0, "pixel_ratio": {"den": 1, "num": 1}, "sample_rate": 0, "top_field_first": true, "type": "FFmpegReader", "vcodec": "h264", "video_bit_rate": 346756, "video_length": "402", "video_stream_index": 0, "video_timebase": {"den": 12288, "num": 1}, "width": 596, "media_type": "video", "id": "ODV1FPO0X2"}, {"acodec": "", "audio_bit_rate": 0, "audio_stream_index": -1, "audio_timebase": {"den": 1, "num": 1}, "channel_layout": 4, "channels": 0, "display_ratio": {"den": 84, "num": 149}, "duration": 16.75, "file_size": "726021", "fps": {"den": 1, "num": 24}, "has_audio": false, "has_single_image": false, "has_video": true, "height": 336, "interlaced_frame": false, "path": "/home/diary/Desktop/\u041a\u043e\u043d\u0446\u0435\u043f\u0442\u044b/64. \u041f\u0440\u0438\u0447\u0438\u043d\u044b \u0431\u043e\u043b\u0435\u0437\u043d\u0435\u0439/video assets/1038544145-preview(1).mp4", "pixel_format": 0, "pixel_ratio": {"den": 1, "num": 1}, "sample_rate": 0, "top_field_first": true, "type": "FFmpegReader", "vcodec": "h264", "video_bit_rate": 346756, "video_length": "402", "video_stream_index": 0, "video_timebase": {"den": 12288, "num": 1}, "width": 596, "media_type": "video", "id": "L4IRBG3SAW"}, {"acodec": "", "audio_bit_rate": 0, "audio_stream_index": -1, "audio_timebase": {"den": 1, "num": 1}, "channel_layout": 4, "channels": 0, "display_ratio": {"den": 84, "num": 149}, "duration": 9.376999855041504, "file_size": "999115", "fps": {"den": 1001, "num": 30000}, "has_audio": false, "has_single_image": false, "has_video": true, "height": 336, "interlaced_frame": false, "path": "/home/diary/Desktop/\u041a\u043e\u043d\u0446\u0435\u043f\u0442\u044b/64. \u041f\u0440\u0438\u0447\u0438\u043d\u044b \u0431\u043e\u043b\u0435\u0437\u043d\u0435\u0439/video assets/1040051333-preview.mp4", "pixel_format": 0, "pixel_ratio": {"den": 1, "num": 1}, "sample_rate": 0, "top_field_first": true, "type": "FFmpegReader", "vcodec": "h264", "video_bit_rate": 852396, "video_length": "281", "video_stream_index": 0, "video_timebase": {"den": 30000, "num": 1}, "width": 596, "media_type": "video", "id": "GRPF5ZYUU6"}, {"acodec": "", "audio_bit_rate": 0, "audio_stream_index": -1, "audio_timebase": {"den": 1, "num": 1}, "channel_layout": 4, "channels": 0, "display_ratio": {"den": 84, "num": 149}, "duration": 29.933984756469727, "file_size": "2385224", "fps": {"den": 1, "num": 30}, "has_audio": false, "has_single_image": false, "has_video": true, "height": 336, "interlaced_frame": false, "path": "/home/diary/Desktop/\u041a\u043e\u043d\u0446\u0435\u043f\u0442\u044b/64. \u041f\u0440\u0438\u0447\u0438\u043d\u044b \u0431\u043e\u043b\u0435\u0437\u043d\u0435\u0439/video assets/1042189108-preview.mp4", "pixel_format": 0, "pixel_ratio": {"den": 1, "num": 1}, "sample_rate": 0, "top_field_first": true, "type": "FFmpegReader", "vcodec": "h264", "video_bit_rate": 637462, "video_length": "898", "video_stream_index": 0, "video_timebase": {"den": 15360, "num": 1}, "width": 596, "media_type": "video", "id": "B8ELRMI8NN"}, {"acodec": "", "audio_bit_rate": 0, "audio_stream_index": -1, "audio_timebase": {"den": 1, "num": 1}, "channel_layout": 4, "channels": 0, "display_ratio": {"den": 84, "num": 149}, "duration": 22.760000228881836, "file_size": "839329", "fps": {"den": 1, "num": 25}, "has_audio": false, "has_single_image": false, "has_video": true, "height": 336, "interlaced_frame": false, "path": "/home/diary/Desktop/\u041a\u043e\u043d\u0446\u0435\u043f\u0442\u044b/64. \u041f\u0440\u0438\u0447\u0438\u043d\u044b \u0431\u043e\u043b\u0435\u0437\u043d\u0435\u0439/video assets/1042776160-preview.mp4", "pixel_format": 0, "pixel_ratio": {"den": 1, "num": 1}, "sample_rate": 0, "top_field_first": true, "type": "FFmpegReader", "vcodec": "h264", "video_bit_rate": 295018, "video_length": "569", "video_stream_index": 0, "video_timebase": {"den": 12800, "num": 1}, "width": 596, "media_type": "video", "id": "SJQTW5J2TE"}, {"acodec": "aac", "audio_bit_rate": 128442, "audio_stream_index": 1, "audio_timebase": {"den": 44100, "num": 1}, "channel_layout": 3, "channels": 2, "display_ratio": {"den": 84, "num": 149}, "duration": 17, "file_size": "1082198", "fps": {"den": 1, "num": 24}, "has_audio": true, "has_single_image": false, "has_video": true, "height": 336, "interlaced_frame": false, "path": "/home/diary/Desktop/\u041a\u043e\u043d\u0446\u0435\u043f\u0442\u044b/64. \u041f\u0440\u0438\u0447\u0438\u043d\u044b \u0431\u043e\u043b\u0435\u0437\u043d\u0435\u0439/video assets/1044123580-preview.mp4", "pixel_format": 0, "pixel_ratio": {"den": 1, "num": 1}, "sample_rate": 44100, "top_field_first": true, "type": "FFmpegReader", "vcodec": "h264", "video_bit_rate": 507865, "video_length": "408", "video_stream_index": 0, "video_timebase": {"den": 12288, "num": 1}, "width": 596, "media_type": "video", "id": "73OC331NN1"}, {"acodec": "aac", "audio_bit_rate": 128340, "audio_stream_index": 1, "audio_timebase": {"den": 44100, "num": 1}, "channel_layout": 3, "channels": 2, "display_ratio": {"den": 84, "num": 149}, "duration": 46.70000076293945, "file_size": "6092940", "fps": {"den": 1, "num": 30}, "has_audio": true, "has_single_image": false, "has_video": true, "height": 336, "interlaced_frame": false, "path": "/home/diary/Desktop/\u041a\u043e\u043d\u0446\u0435\u043f\u0442\u044b/64. \u041f\u0440\u0438\u0447\u0438\u043d\u044b \u0431\u043e\u043b\u0435\u0437\u043d\u0435\u0439/video assets/1045470025-preview.mp4", "pixel_format": 0, "pixel_ratio": {"den": 1, "num": 1}, "sample_rate": 44100, "top_field_first": true, "type": "FFmpegReader", "vcodec": "h264", "video_bit_rate": 1042709, "video_length": "1401", "video_stream_index": 0, "video_timebase": {"den": 15360, "num": 1}, "width": 596, "media_type": "video", "id": "M0H2IT5DMM"}, {"acodec": "", "audio_bit_rate": 0, "audio_stream_index": -1, "audio_timebase": {"den": 1, "num": 1}, "channel_layout": 4, "channels": 0, "display_ratio": {"den": 84, "num": 149}, "duration": 7, "file_size": "605172", "fps": {"den": 1, "num": 25}, "has_audio": false, "has_single_image": false, "has_video": true, "height": 336, "interlaced_frame": false, "path": "/home/diary/Desktop/\u041a\u043e\u043d\u0446\u0435\u043f\u0442\u044b/64. \u041f\u0440\u0438\u0447\u0438\u043d\u044b \u0431\u043e\u043b\u0435\u0437\u043d\u0435\u0439/video assets/1046167390-preview.mp4", "pixel_format": 0, "pixel_ratio": {"den": 1, "num": 1}, "sample_rate": 0, "top_field_first": true, "type": "FFmpegReader", "vcodec": "h264", "video_bit_rate": 691625, "video_length": "175", "video_stream_index": 0, "video_timebase": {"den": 12800, "num": 1}, "width": 596, "media_type": "video", "id": "MJQYSRKC8R"}, {"acodec": "", "audio_bit_rate": 0, "audio_stream_index": -1, "audio_timebase": {"den": 1, "num": 1}, "channel_layout": 4, "channels": 0, "display_ratio": {"den": 84, "num": 149}, "duration": 23.333984375, "file_size": "1912523", "fps": {"den": 1, "num": 30}, "has_audio": false, "has_single_image": false, "has_video": true, "height": 336, "interlaced_frame": false, "path": "/home/diary/Desktop/\u041a\u043e\u043d\u0446\u0435\u043f\u0442\u044b/64. \u041f\u0440\u0438\u0447\u0438\u043d\u044b \u0431\u043e\u043b\u0435\u0437\u043d\u0435\u0439/video assets/1046669254-preview.mp4", "pixel_format": 0, "pixel_ratio": {"den": 1, "num": 1}, "sample_rate": 0, "top_field_first": true, "type": "FFmpegReader", "vcodec": "h264", "video_bit_rate": 655703, "video_length": "700", "video_stream_index": 0, "video_timebase": {"den": 15360, "num": 1}, "width": 596, "media_type": "video", "id": "2WNGMYMMB6"}, {"acodec": "", "audio_bit_rate": 0, "audio_stream_index": -1, "audio_timebase": {"den": 1, "num": 1}, "channel_layout": 4, "channels": 0, "display_ratio": {"den": 84, "num": 149}, "duration": 15.015000343322754, "file_size": "1230915", "fps": {"den": 1001, "num": 24000}, "has_audio": false, "has_single_image": false, "has_video": true, "height": 336, "interlaced_frame": false, "path": "/home/diary/Desktop/\u041a\u043e\u043d\u0446\u0435\u043f\u0442\u044b/64. \u041f\u0440\u0438\u0447\u0438\u043d\u044b \u0431\u043e\u043b\u0435\u0437\u043d\u0435\u0439/video assets/1047425263-preview.mp4", "pixel_format": 0, "pixel_ratio": {"den": 1, "num": 1}, "sample_rate": 0, "top_field_first": true, "type": "FFmpegReader", "vcodec": "h264", "video_bit_rate": 655832, "video_length": "360", "video_stream_index": 0, "video_timebase": {"den": 24000, "num": 1}, "width": 596, "media_type": "video", "id": "B97GWU5TU5"}, {"acodec": "", "audio_bit_rate": 0, "audio_stream_index": -1, "audio_timebase": {"den": 1, "num": 1}, "channel_layout": 4, "channels": 0, "display_ratio": {"den": 84, "num": 149}, "duration": 23.333984375, "file_size": "2568585", "fps": {"den": 1, "num": 30}, "has_audio": false, "has_single_image": false, "has_video": true, "height": 336, "interlaced_frame": false, "path": "/home/diary/Desktop/\u041a\u043e\u043d\u0446\u0435\u043f\u0442\u044b/64. \u041f\u0440\u0438\u0447\u0438\u043d\u044b \u0431\u043e\u043b\u0435\u0437\u043d\u0435\u0439/video assets/1049558392-preview.mp4", "pixel_format": 0, "pixel_ratio": {"den": 1, "num": 1}, "sample_rate": 0, "top_field_first": true, "type": "FFmpegReader", "vcodec": "h264", "video_bit_rate": 880632, "video_length": "700", "video_stream_index": 0, "video_timebase": {"den": 15360, "num": 1}, "width": 596, "media_type": "video", "id": "VENOL2QI0D"}, {"acodec": "", "audio_bit_rate": 0, "audio_stream_index": -1, "audio_timebase": {"den": 1, "num": 1}, "channel_layout": 4, "channels": 0, "display_ratio": {"den": 84, "num": 149}, "duration": 15.725000381469727, "file_size": "1743909", "fps": {"den": 1001, "num": 24000}, "has_audio": false, "has_single_image": false, "has_video": true, "height": 336, "interlaced_frame": false, "path": "/home/diary/Desktop/\u041a\u043e\u043d\u0446\u0435\u043f\u0442\u044b/64. \u041f\u0440\u0438\u0447\u0438\u043d\u044b \u0431\u043e\u043b\u0435\u0437\u043d\u0435\u0439/video assets/1051994641-preview.mp4", "pixel_format": 0, "pixel_ratio": {"den": 1, "num": 1}, "sample_rate": 0, "top_field_first": true, "type": "FFmpegReader", "vcodec": "h264", "video_bit_rate": 887203, "video_length": "377", "video_stream_index": 0, "video_timebase": {"den": 24000, "num": 1}, "width": 596, "media_type": "video", "id": "SRBZ92P9IQ"}, {"acodec": "", "audio_bit_rate": 0, "audio_stream_index": -1, "audio_timebase": {"den": 1, "num": 1}, "channel_layout": 4, "channels": 0, "display_ratio": {"den": 84, "num": 149}, "duration": 12.279999732971191, "file_size": "1168686", "fps": {"den": 1, "num": 50}, "has_audio": false, "has_single_image": false, "has_video": true, "height": 336, "interlaced_frame": false, "path": "/home/diary/Desktop/\u041a\u043e\u043d\u0446\u0435\u043f\u0442\u044b/64. \u041f\u0440\u0438\u0447\u0438\u043d\u044b \u0431\u043e\u043b\u0435\u0437\u043d\u0435\u0439/video assets/1053397550-preview.mp4", "pixel_format": 0, "pixel_ratio": {"den": 1, "num": 1}, "sample_rate": 0, "top_field_first": true, "type": "FFmpegReader", "vcodec": "h264", "video_bit_rate": 761358, "video_length": "614", "video_stream_index": 0, "video_timebase": {"den": 12800, "num": 1}, "width": 596, "media_type": "video", "id": "1I8C58GEZU"}, {"acodec": "", "audio_bit_rate": 0, "audio_stream_index": -1, "audio_timebase": {"den": 1, "num": 1}, "channel_layout": 4, "channels": 0, "display_ratio": {"den": 84, "num": 149}, "duration": 27.795000076293945, "file_size": "3105168", "fps": {"den": 1001, "num": 30000}, "has_audio": false, "has_single_image": false, "has_video": true, "height": 336, "interlaced_frame": false, "path": "/home/diary/Desktop/\u041a\u043e\u043d\u0446\u0435\u043f\u0442\u044b/64. \u041f\u0440\u0438\u0447\u0438\u043d\u044b \u0431\u043e\u043b\u0435\u0437\u043d\u0435\u0439/video assets/1053418412-preview.mp4", "pixel_format": 0, "pixel_ratio": {"den": 1, "num": 1}, "sample_rate": 0, "top_field_first": true, "type": "FFmpegReader", "vcodec": "h264", "video_bit_rate": 893734, "video_length": "833", "video_stream_index": 0, "video_timebase": {"den": 30000, "num": 1}, "width": 596, "media_type": "video", "id": "TJIR5I5EWI"}, {"acodec": "", "audio_bit_rate": 0, "audio_stream_index": -1, "audio_timebase": {"den": 1, "num": 1}, "channel_layout": 4, "channels": 0, "display_ratio": {"den": 84, "num": 149}, "duration": 10.039999961853027, "file_size": "1131232", "fps": {"den": 1, "num": 25}, "has_audio": false, "has_single_image": false, "has_video": true, "height": 336, "interlaced_frame": false, "path": "/home/diary/Desktop/\u041a\u043e\u043d\u0446\u0435\u043f\u0442\u044b/64. \u041f\u0440\u0438\u0447\u0438\u043d\u044b \u0431\u043e\u043b\u0435\u0437\u043d\u0435\u0439/video assets/1053523496-preview.mp4", "pixel_format": 0, "pixel_ratio": {"den": 1, "num": 1}, "sample_rate": 0, "top_field_first": true, "type": "FFmpegReader", "vcodec": "h264", "video_bit_rate": 901380, "video_length": "251", "video_stream_index": 0, "video_timebase": {"den": 12800, "num": 1}, "width": 596, "media_type": "video", "id": "JA89XAYY7G"}, {"acodec": "aac", "audio_bit_rate": 128321, "audio_stream_index": 1, "audio_timebase": {"den": 44100, "num": 1}, "channel_layout": 3, "channels": 2, "display_ratio": {"den": 84, "num": 149}, "duration": 13, "file_size": "1223144", "fps": {"den": 1, "num": 25}, "has_audio": true, "has_single_image": false, "has_video": true, "height": 336, "interlaced_frame": false, "path": "/home/diary/Desktop/\u041a\u043e\u043d\u0446\u0435\u043f\u0442\u044b/64. \u041f\u0440\u0438\u0447\u0438\u043d\u044b \u0431\u043e\u043b\u0435\u0437\u043d\u0435\u0439/video assets/1053783902-preview.mp4", "pixel_format": 0, "pixel_ratio": {"den": 1, "num": 1}, "sample_rate": 44100, "top_field_first": true, "type": "FFmpegReader", "vcodec": "h264", "video_bit_rate": 749992, "video_length": "325", "video_stream_index": 0, "video_timebase": {"den": 12800, "num": 1}, "width": 596, "media_type": "video", "id": "49AUONUONS"}, {"acodec": "", "audio_bit_rate": 0, "audio_stream_index": -1, "audio_timebase": {"den": 1, "num": 1}, "channel_layout": 4, "channels": 0, "display_ratio": {"den": 84, "num": 149}, "duration": 17.5, "file_size": "1892524", "fps": {"den": 1, "num": 24}, "has_audio": false, "has_single_image": false, "has_video": true, "height": 336, "interlaced_frame": false, "path": "/home/diary/Desktop/\u041a\u043e\u043d\u0446\u0435\u043f\u0442\u044b/64. \u041f\u0440\u0438\u0447\u0438\u043d\u044b \u0431\u043e\u043b\u0435\u0437\u043d\u0435\u0439/video assets/1053992147-preview.mp4", "pixel_format": 0, "pixel_ratio": {"den": 1, "num": 1}, "sample_rate": 0, "top_field_first": true, "type": "FFmpegReader", "vcodec": "h264", "video_bit_rate": 865153, "video_length": "420", "video_stream_index": 0, "video_timebase": {"den": 12288, "num": 1}, "width": 596, "media_type": "video", "id": "TW4VF0HFWK"}, {"acodec": "", "audio_bit_rate": 0, "audio_stream_index": -1, "audio_timebase": {"den": 1, "num": 1}, "channel_layout": 4, "channels": 0, "display_ratio": {"den": 84, "num": 149}, "duration": 12.5, "file_size": "1374542", "fps": {"den": 1, "num": 24}, "has_audio": false, "has_single_image": false, "has_video": true, "height": 336, "interlaced_frame": false, "path": "/home/diary/Desktop/\u041a\u043e\u043d\u0446\u0435\u043f\u0442\u044b/64. \u041f\u0440\u0438\u0447\u0438\u043d\u044b \u0431\u043e\u043b\u0435\u0437\u043d\u0435\u0439/video assets/1054044599-preview.mp4", "pixel_format": 0, "pixel_ratio": {"den": 1, "num": 1}, "sample_rate": 0, "top_field_first": true, "type": "FFmpegReader", "vcodec": "h264", "video_bit_rate": 879706, "video_length": "300", "video_stream_index": 0, "video_timebase": {"den": 12288, "num": 1}, "width": 596, "media_type": "video", "id": "9Y73RSC2B4"}, {"acodec": "", "audio_bit_rate": 0, "audio_stream_index": -1, "audio_timebase": {"den": 1, "num": 1}, "channel_layout": 4, "channels": 0, "display_ratio": {"den": 84, "num": 149}, "duration": 10.611000061035156, "file_size": "586271", "fps": {"den": 1001, "num": 30000}, "has_audio": false, "has_single_image": false, "has_video": true, "height": 336, "interlaced_frame": false, "path": "/home/diary/Desktop/\u041a\u043e\u043d\u0446\u0435\u043f\u0442\u044b/64. \u041f\u0440\u0438\u0447\u0438\u043d\u044b \u0431\u043e\u043b\u0435\u0437\u043d\u0435\u0439/video assets/1054197287-preview.mp4", "pixel_format": 0, "pixel_ratio": {"den": 1, "num": 1}, "sample_rate": 0, "top_field_first": true, "type": "FFmpegReader", "vcodec": "h264", "video_bit_rate": 442009, "video_length": "318", "video_stream_index": 0, "video_timebase": {"den": 30000, "num": 1}, "width": 596, "media_type": "video", "id": "6FGGJZTXDO"}, {"acodec": "", "audio_bit_rate": 0, "audio_stream_index": -1, "audio_timebase": {"den": 1, "num": 1}, "channel_layout": 4, "channels": 0, "display_ratio": {"den": 84, "num": 149}, "duration": 11.345000267028809, "file_size": "585096", "fps": {"den": 1001, "num": 30000}, "has_audio": false, "has_single_image": false, "has_video": true, "height": 336, "interlaced_frame": false, "path": "/home/diary/Desktop/\u041a\u043e\u043d\u0446\u0435\u043f\u0442\u044b/64. \u041f\u0440\u0438\u0447\u0438\u043d\u044b \u0431\u043e\u043b\u0435\u0437\u043d\u0435\u0439/video assets/1054197290-preview.mp4", "pixel_format": 0, "pixel_ratio": {"den": 1, "num": 1}, "sample_rate": 0, "top_field_first": true, "type": "FFmpegReader", "vcodec": "h264", "video_bit_rate": 412584, "video_length": "340", "video_stream_index": 0, "video_timebase": {"den": 30000, "num": 1}, "width": 596, "media_type": "video", "id": "NSJHHWMT9I"}, {"acodec": "", "audio_bit_rate": 0, "audio_stream_index": -1, "audio_timebase": {"den": 1, "num": 1}, "channel_layout": 4, "channels": 0, "display_ratio": {"den": 79, "num": 96}, "duration": 86400, "file_size": "758400", "fps": {"den": 1, "num": 30}, "has_audio": false, "has_single_image": true, "has_video": true, "height": 395, "interlaced_frame": false, "path": "/home/diary/Desktop/\u041a\u043e\u043d\u0446\u0435\u043f\u0442\u044b/64. \u041f\u0440\u0438\u0447\u0438\u043d\u044b \u0431\u043e\u043b\u0435\u0437\u043d\u0435\u0439/video assets/CG06.gif", "pixel_format": -1, "pixel_ratio": {"den": 1, "num": 1}, "sample_rate": 0, "top_field_first": true, "type": "QtImageReader", "vcodec": "", "video_bit_rate": 0, "video_length": "2592000", "video_stream_index": -1, "video_timebase": {"den": 30, "num": 1}, "width": 480, "media_type": "image", "id": "T98F47KQJ3"}, {"acodec": "", "audio_bit_rate": 0, "audio_stream_index": -1, "audio_timebase": {"den": 1, "num": 1}, "channel_layout": 4, "channels": 0, "display_ratio": {"den": 9, "num": 16}, "duration": 12.033984184265137, "file_size": "1357980", "fps": {"den": 1, "num": 30}, "has_audio": false, "has_single_image": false, "has_video": true, "height": 1080, "interlaced_frame": false, "path": "/home/diary/Desktop/\u041a\u043e\u043d\u0446\u0435\u043f\u0442\u044b/64. \u041f\u0440\u0438\u0447\u0438\u043d\u044b \u0431\u043e\u043b\u0435\u0437\u043d\u0435\u0439/video assets/Health - 18687.mp4", "pixel_format": 0, "pixel_ratio": {"den": 1, "num": 1}, "sample_rate": 0, "top_field_first": true, "type": "FFmpegReader", "vcodec": "h264", "video_bit_rate": 902762, "video_length": "361", "video_stream_index": 0, "video_timebase": {"den": 15360, "num": 1}, "width": 1920, "media_type": "video", "id": "C6PVWY7M1M"}, {"acodec": "", "audio_bit_rate": 0, "audio_stream_index": -1, "audio_timebase": {"den": 1, "num": 1}, "channel_layout": 4, "channels": 0, "display_ratio": {"den": 9, "num": 16}, "duration": 15.066991806030273, "file_size": "5622748", "fps": {"den": 1, "num": 30}, "has_audio": false, "has_single_image": false, "has_video": true, "height": 1080, "interlaced_frame": false, "path": "/home/diary/Desktop/\u041a\u043e\u043d\u0446\u0435\u043f\u0442\u044b/64. \u041f\u0440\u0438\u0447\u0438\u043d\u044b \u0431\u043e\u043b\u0435\u0437\u043d\u0435\u0439/video assets/Training - 30417.mp4", "pixel_format": 0, "pixel_ratio": {"den": 1, "num": 1}, "sample_rate": 0, "top_field_first": true, "type": "FFmpegReader", "vcodec": "h264", "video_bit_rate": 2985463, "video_length": "452", "video_stream_index": 0, "video_timebase": {"den": 15360, "num": 1}, "width": 1920, "media_type": "video", "id": "HK4I9P85GF"}, {"acodec": "", "audio_bit_rate": 0, "audio_stream_index": -1, "audio_timebase": {"den": 1, "num": 1}, "channel_layout": 4, "channels": 0, "display_ratio": {"den": 79, "num": 124}, "duration": -1, "file_size": "40466", "fps": {"den": 1, "num": 24}, "has_audio": false, "has_single_image": false, "has_video": true, "height": 316, "interlaced_frame": false, "path": "/home/diary/Desktop/\u041a\u043e\u043d\u0446\u0435\u043f\u0442\u044b/64. \u041f\u0440\u0438\u0447\u0438\u043d\u044b \u0431\u043e\u043b\u0435\u0437\u043d\u0435\u0439/video assets/file-20190723-110195-dj127n.jpg", "pixel_format": 0, "pixel_ratio": {"den": 1, "num": 1}, "sample_rate": 0, "top_field_first": true, "type": "FFmpegReader", "vcodec": "webp", "video_bit_rate": 0, "video_length": "-24", "video_stream_index": 0, "video_timebase": {"den": 24, "num": 1}, "width": 496, "media_type": "image", "id": "G33ZVB9ITZ"}, {"acodec": "", "audio_bit_rate": 0, "audio_stream_index": -1, "audio_timebase": {"den": 1, "num": 1}, "channel_layout": 4, "channels": 0, "display_ratio": {"den": 9, "num": 16}, "duration": 9.920000076293945, "file_size": "1950637", "fps": {"den": 1, "num": 25}, "has_audio": false, "has_single_image": false, "has_video": true, "height": 360, "interlaced_frame": false, "path": "/home/diary/Desktop/\u041a\u043e\u043d\u0446\u0435\u043f\u0442\u044b/64. \u041f\u0440\u0438\u0447\u0438\u043d\u044b \u0431\u043e\u043b\u0435\u0437\u043d\u0435\u0439/video assets/istockphoto-541088960-640_adpp_is.mp4", "pixel_format": 0, "pixel_ratio": {"den": 1, "num": 1}, "sample_rate": 0, "top_field_first": true, "type": "FFmpegReader", "vcodec": "h264", "video_bit_rate": 1573094, "video_length": "248", "video_stream_index": 0, "video_timebase": {"den": 25000, "num": 1}, "width": 640, "media_type": "video", "id": "7RTHRR68QT"}, {"acodec": "", "audio_bit_rate": 0, "audio_stream_index": -1, "audio_timebase": {"den": 1, "num": 1}, "channel_layout": 4, "channels": 0, "display_ratio": {"den": 9, "num": 16}, "duration": 10.680000305175781, "file_size": "841784", "fps": {"den": 1, "num": 25}, "has_audio": false, "has_single_image": false, "has_video": true, "height": 360, "interlaced_frame": false, "path": "/home/diary/Desktop/\u041a\u043e\u043d\u0446\u0435\u043f\u0442\u044b/64. \u041f\u0440\u0438\u0447\u0438\u043d\u044b \u0431\u043e\u043b\u0435\u0437\u043d\u0435\u0439/video assets/istockphoto-1165266246-640_adpp_is.mp4", "pixel_format": 0, "pixel_ratio": {"den": 1, "num": 1}, "sample_rate": 0, "top_field_first": true, "type": "FFmpegReader", "vcodec": "h264", "video_bit_rate": 630549, "video_length": "267", "video_stream_index": 0, "video_timebase": {"den": 12800, "num": 1}, "width": 640, "media_type": "video", "id": "TKNIYVDKGW"}, {"acodec": "", "audio_bit_rate": 0, "audio_stream_index": -1, "audio_timebase": {"den": 1, "num": 1}, "channel_layout": 4, "channels": 0, "display_ratio": {"den": 136, "num": 249}, "duration": 86400, "file_size": "541824", "fps": {"den": 1, "num": 30}, "has_audio": false, "has_single_image": true, "has_video": true, "height": 272, "interlaced_frame": false, "path": "/home/diary/Desktop/\u041a\u043e\u043d\u0446\u0435\u043f\u0442\u044b/64. \u041f\u0440\u0438\u0447\u0438\u043d\u044b \u0431\u043e\u043b\u0435\u0437\u043d\u0435\u0439/video assets/tenor.gif", "pixel_format": -1, "pixel_ratio": {"den": 1, "num": 1}, "sample_rate": 0, "top_field_first": true, "type": "QtImageReader", "vcodec": "", "video_bit_rate": 0, "video_length": "2592000", "video_stream_index": -1, "video_timebase": {"den": 30, "num": 1}, "width": 498, "media_type": "image", "id": "AWM14EHUOO"}, {"acodec": "", "audio_bit_rate": 0, "audio_stream_index": -1, "audio_timebase": {"den": 1, "num": 1}, "channel_layout": 4, "channels": 0, "display_ratio": {"den": 275, "num": 499}, "duration": 86400, "file_size": "2195600", "fps": {"den": 1, "num": 30}, "has_audio": false, "has_single_image": true, "has_video": true, "height": 550, "interlaced_frame": false, "path": "/home/diary/Desktop/\u041a\u043e\u043d\u0446\u0435\u043f\u0442\u044b/64. \u041f\u0440\u0438\u0447\u0438\u043d\u044b \u0431\u043e\u043b\u0435\u0437\u043d\u0435\u0439/video assets/wrong stamp.png", "pixel_format": -1, "pixel_ratio": {"den": 1, "num": 1}, "sample_rate": 0, "top_field_first": true, "type": "QtImageReader", "vcodec": "", "video_bit_rate": 0, "video_length": "2592000", "video_stream_index": -1, "video_timebase": {"den": 30, "num": 1}, "width": 998, "media_type": "image", "id": "0VXG5ZD080"}]}, {"type": "insert", "key": ["clips"], "value": {"alpha": {"Points": [{"co": {"X": 1, "Y": 1}, "interpolation": 2}]}, "anchor": 0, "channel_filter": {"Points": [{"co": {"X": 1, "Y": -1}, "interpolation": 2}]}, "channel_mapping": {"Points": [{"co": {"X": 1, "Y": -1}, "interpolation": 2}]}, "crop_height": {"Points": [{"co": {"X": 1, "Y": -1}, "interpolation": 2}]}, "crop_width": {"Points": [{"co": {"X": 1, "Y": -1}, "interpolation": 2}]}, "crop_x": {"Points": [{"co": {"X": 1, "Y": 0}, "interpolation": 2}]}, "crop_y": {"Points": [{"co": {"X": 1, "Y": 0}, "interpolation": 2}]}, "display": 0, "duration": 193.77000427246094, "effects": [], "end": 193.77000427246094, "gravity": 4, "has_audio": {"Points": [{"co": {"X": 1, "Y": -1}, "interpolation": 2}]}, "has_video": {"Points": [{"co": {"X": 1, "Y": -1}, "interpolation": 2}]}, "id": "VP8TR78SVG", "layer": 1, "location_x": {"Points": [{"co": {"X": 1, "Y": 0}, "interpolation": 2}]}, "location_y": {"Points": [{"co": {"X": 1, "Y": 0}, "interpolation": 2}]}, "perspective_c1_x": {"Points": [{"co": {"X": 1, "Y": -1}, "interpolation": 2}]}, "perspective_c1_y": {"Points": [{"co": {"X": 1, "Y": -1}, "interpolation": 2}]}, "perspective_c2_x": {"Points": [{"co": {"X": 1, "Y": -1}, "interpolation": 2}]}, "perspective_c2_y": {"Points": [{"co": {"X": 1, "Y": -1}, "interpolation": 2}]}, "perspective_c3_x": {"Points": [{"co": {"X": 1, "Y": -1}, "interpolation": 2}]}, "perspective_c3_y": {"Points": [{"co": {"X": 1, "Y": -1}, "interpolation": 2}]}, "perspective_c4_x": {"Points": [{"co": {"X": 1, "Y": -1}, "interpolation": 2}]}, "perspective_c4_y": {"Points": [{"co": {"X": 1, "Y": -1}, "interpolation": 2}]}, "position": 8.63999973297119, "reader": {"acodec": "aac", "audio_bit_rate": 2276, "audio_stream_index": 1, "audio_timebase": {"den": 48000, "num": 1}, "channel_layout": 3, "channels": 2, "display_ratio": {"den": 1, "num": 1}, "duration": 193.77000427246094, "file_size": "1370812", "fps": {"den": 775, "num": 18604}, "has_audio": true, "has_single_image": false, "has_video": true, "height": 1000, "interlaced_frame": false, "path": "/home/diary/Desktop/\u041a\u043e\u043d\u0446\u0435\u043f\u0442\u044b/64. \u041f\u0440\u0438\u0447\u0438\u043d\u044b \u0431\u043e\u043b\u0435\u0437\u043d\u0435\u0439/heartbeat 3 minutes/heartbeat 3 minutes.mp4", "pixel_format": 0, "pixel_ratio": {"den": 1, "num": 1}, "sample_rate": 48000, "top_field_first": true, "type": "FFmpegReader", "vcodec": "h264", "video_bit_rate": 56589, "video_length": "4651", "video_stream_index": 0, "video_timebase": {"den": 12288, "num": 1}, "width": 1000}, "rotation": {"Points": [{"co": {"X": 1, "Y": 0}, "interpolation": 2}]}, "scale": 1, "scale_x": {"Points": [{"co": {"X": 1, "Y": 1}, "interpolation": 2}, {"co": {"X": -2, "Y": 0.4614285714285714}, "interpolation": 0}]}, "scale_y": {"Points": [{"co": {"X": 1, "Y": 1}, "interpolation": 2}, {"co": {"X": -2, "Y": 0.4614285714285714}, "interpolation": 0}]}, "shear_x": {"Points": [{"co": {"X": 1, "Y": 0}, "interpolation": 2}]}, "shear_y": {"Points": [{"co": {"X": 1, "Y": 0}, "interpolation": 2}]}, "start": 0, "time": {"Points": [{"co": {"X": 1, "Y": 1}, "interpolation": 2}]}, "volume": {"Points": [{"co": {"X": 1, "Y": 1}, "interpolation": 2}]}, "wave_color": {"alpha": {"Points": [{"co": {"X": 1, "Y": 255}, "handle_left": {"X": 0.5, "Y": 1}, "handle_right": {"X": 0.5, "Y": 0}, "handle_type": 0, "interpolation": 0}]}, "blue": {"Points": [{"co": {"X": 1, "Y": 255}, "handle_left": {"X": 0.5, "Y": 1}, "handle_right": {"X": 0.5, "Y": 0}, "handle_type": 0, "interpolation": 0}]}, "green": {"Points": [{"co": {"X": 1, "Y": 123}, "handle_left": {"X": 0.5, "Y": 1}, "handle_right": {"X": 0.5, "Y": 0}, "handle_type": 0, "interpolation": 0}]}, "red": {"Points": [{"co": {"X": 1, "Y": 0}, "handle_left": {"X": 0.5, "Y": 1}, "handle_right": {"X": 0.5, "Y": 0}, "handle_type": 0, "interpolation": 0}]}}, "waveform": false, "file_id": "0JN8WFX709", "title": "heartbeat 3 minutes.mp4", "image": "/home/diary/.openshot_qt/thumbnail/0JN8WFX709.png"}, "partial": false, "old_values": [{"alpha": {"Points": [{"co": {"X": 1, "Y": 1}, "interpolation": 2}]}, "anchor": 0, "channel_filter": {"Points": [{"co": {"X": 1, "Y": -1}, "interpolation": 2}]}, "channel_mapping": {"Points": [{"co": {"X": 1, "Y": -1}, "interpolation": 2}]}, "crop_height": {"Points": [{"co": {"X": 1, "Y": -1}, "interpolation": 2}]}, "crop_width": {"Points": [{"co": {"X": 1, "Y": -1}, "interpolation": 2}]}, "crop_x": {"Points": [{"co": {"X": 1, "Y": 0}, "interpolation": 2}]}, "crop_y": {"Points": [{"co": {"X": 1, "Y": 0}, "interpolation": 2}]}, "display": 0, "duration": 86400.0, "effects": [], "end": 22.959999999999994, "gravity": 4, "has_audio": {"Points": [{"co": {"X": 1, "Y": -1}, "interpolation": 2}]}, "has_video": {"Points": [{"co": {"X": 1, "Y": -1}, "interpolation": 2}]}, "id": "KJRMFF10ED", "layer": 0, "location_x": {"Points": [{"co": {"X": 1, "Y": 0}, "interpolation": 2}]}, "location_y": {"Points": [{"co": {"X": 1, "Y": 0}, "interpolation": 2}]}, "perspective_c1_x": {"Points": [{"co": {"X": 1, "Y": -1}, "interpolation": 2}]}, "perspective_c1_y": {"Points": [{"co": {"X": 1, "Y": -1}, "interpolation": 2}]}, "perspective_c2_x": {"Points": [{"co": {"X": 1, "Y": -1}, "interpolation": 2}]}, "perspective_c2_y": {"Points": [{"co": {"X": 1, "Y": -1}, "interpolation": 2}]}, "perspective_c3_x": {"Points": [{"co": {"X": 1, "Y": -1}, "interpolation": 2}]}, "perspective_c3_y": {"Points": [{"co": {"X": 1, "Y": -1}, "interpolation": 2}]}, "perspective_c4_x": {"Points": [{"co": {"X": 1, "Y": -1}, "interpolation": 2}]}, "perspective_c4_y": {"Points": [{"co": {"X": 1, "Y": -1}, "interpolation": 2}]}, "position": 8.4, "reader": {"acodec": "", "audio_bit_rate": 0, "audio_stream_index": -1, "audio_timebase": {"den": 1, "num": 1}, "channel_layout": 4, "channels": 0, "display_ratio": {"den": 9, "num": 16}, "duration": 86400.0, "file_size": "3686400", "fps": {"den": 1, "num": 30}, "has_audio": false, "has_single_image": true, "has_video": true, "height": 720, "interlaced_frame": false, "path": "/home/diary/Desktop/\u041a\u043e\u043d\u0446\u0435\u043f\u0442\u044b/64. \u041f\u0440\u0438\u0447\u0438\u043d\u044b \u0431\u043e\u043b\u0435\u0437\u043d\u0435\u0439/video assets/white bg.png", "pixel_format": -1, "pixel_ratio": {"den": 1, "num": 1}, "sample_rate": 0, "top_field_first": true, "type": "QtImageReader", "vcodec": "", "video_bit_rate": 0, "video_length": "2592000", "video_stream_index": -1, "video_timebase": {"den": 30, "num": 1}, "width": 1280}, "rotation": {"Points": [{"co": {"X": 1, "Y": 0}, "interpolation": 2}]}, "scale": 1, "scale_x": {"Points": [{"co": {"X": 1, "Y": 1}, "interpolation": 2}]}, "scale_y": {"Points": [{"co": {"X": 1, "Y": 1}, "interpolation": 2}]}, "shear_x": {"Points": [{"co": {"X": 1, "Y": 0}, "interpolation": 2}]}, "shear_y": {"Points": [{"co": {"X": 1, "Y": 0}, "interpolation": 2}]}, "start": 0, "time": {"Points": [{"co": {"X": 1, "Y": 1}, "interpolation": 2}]}, "volume": {"Points": [{"co": {"X": 1, "Y": 1}, "interpolation": 2}]}, "wave_color": {"alpha": {"Points": [{"co": {"X": 1, "Y": 255}, "handle_left": {"X": 0.5, "Y": 1}, "handle_right": {"X": 0.5, "Y": 0}, "handle_type": 0, "interpolation": 0}]}, "blue": {"Points": [{"co": {"X": 1, "Y": 255}, "handle_left": {"X": 0.5, "Y": 1}, "handle_right": {"X": 0.5, "Y": 0}, "handle_type": 0, "interpolation": 0}]}, "green": {"Points": [{"co": {"X": 1, "Y": 123}, "handle_left": {"X": 0.5, "Y": 1}, "handle_right": {"X": 0.5, "Y": 0}, "handle_type": 0, "interpolation": 0}]}, "red": {"Points": [{"co": {"X": 1, "Y": 0}, "handle_left": {"X": 0.5, "Y": 1}, "handle_right": {"X": 0.5, "Y": 0}, "handle_type": 0, "interpolation": 0}]}}, "waveform": false, "file_id": "DYQPECIBL6", "title": "white bg.png", "image": "/home/diary/.openshot_qt/thumbnail/DYQPECIBL6.png"}, {"alpha": {"Points": [{"co": {"X": 1, "Y": 1}, "interpolation": 2}]}, "anchor": 0, "channel_filter": {"Points": [{"co": {"X": 1, "Y": -1}, "interpolation": 2}]}, "channel_mapping": {"Points": [{"co": {"X": 1, "Y": -1}, "interpolation": 2}]}, "crop_height": {"Points": [{"co": {"X": 1, "Y": -1}, "interpolation": 2}]}, "crop_width": {"Points": [{"co": {"X": 1, "Y": -1}, "interpolation": 2}]}, "crop_x": {"Points": [{"co": {"X": 1, "Y": 0}, "interpolation": 2}]}, "crop_y": {"Points": [{"co": {"X": 1, "Y": 0}, "interpolation": 2}]}, "display": 0, "duration": 8.399999618530273, "effects": [], "end": 8.399999618530273, "gravity": 4, "has_audio": {"Points": [{"co": {"X": 1, "Y": -1}, "interpolation": 2}]}, "has_video": {"Points": [{"co": {"X": 1, "Y": -1}, "interpolation": 2}]}, "id": "Z9ELMDF57H", "layer": 2, "location_x": {"Points": [{"co": {"X": 1, "Y": 0.0}, "handle_left": {"X": 0.5, "Y": 1}, "handle_right": {"X": 0.5, "Y": 0}, "handle_type": 0, "interpolation": 0}]}, "location_y": {"Points": [{"co": {"X": 1, "Y": 0.23096446700507614}, "handle_left": {"X": 0.5, "Y": 1}, "handle_right": {"X": 0.5, "Y": 0}, "handle_type": 0, "interpolation": 0}]}, "perspective_c1_x": {"Points": [{"co": {"X": 1, "Y": -1}, "interpolation": 2}]}, "perspective_c1_y": {"Points": [{"co": {"X": 1, "Y": -1}, "interpolation": 2}]}, "perspective_c2_x": {"Points": [{"co": {"X": 1, "Y": -1}, "interpolation": 2}]}, "perspective_c2_y": {"Points": [{"co": {"X": 1, "Y": -1}, "interpolation": 2}]}, "perspective_c3_x": {"Points": [{"co": {"X": 1, "Y": -1}, "interpolation": 2}]}, "perspective_c3_y": {"Points": [{"co": {"X": 1, "Y": -1}, "interpolation": 2}]}, "perspective_c4_x": {"Points": [{"co": {"X": 1, "Y": -1}, "interpolation": 2}]}, "perspective_c4_y": {"Points": [{"co": {"X": 1, "Y": -1}, "interpolation": 2}]}, "position": 11.6075, "reader": {"acodec": "", "audio_bit_rate": 0, "audio_stream_index": -1, "audio_timebase": {"den": 1, "num": 1}, "channel_layout": 4, "channels": 0, "display_ratio": {"den": 9, "num": 16}, "duration": 8.399999618530273, "file_size": "-1", "fps": {"den": 1, "num": 25}, "has_audio": false, "has_single_image": false, "has_video": true, "height": 720, "interlaced_frame": false, "path": "/home/diary/Desktop/\u041a\u043e\u043d\u0446\u0435\u043f\u0442\u044b/64. \u041f\u0440\u0438\u0447\u0438\u043d\u044b \u0431\u043e\u043b\u0435\u0437\u043d\u0435\u0439/2305192a-aa30-11ea-a79a-0013729ccbc3/Health%04d.png", "pixel_format": 28, "pixel_ratio": {"den": 2835, "num": 2835}, "sample_rate": 0, "top_field_first": true, "type": "FFmpegReader", "vcodec": "png", "video_bit_rate": 0, "video_length": "210", "video_stream_index": 0, "video_timebase": {"den": 25, "num": 1}, "width": 1280}, "rotation": {"Points": [{"co": {"X": 1, "Y": 0}, "interpolation": 2}]}, "scale": 1, "scale_x": {"Points": [{"co": {"X": 1, "Y": 0.30428571428571427}, "handle_left": {"X": 0.5, "Y": 1}, "handle_right": {"X": 0.5, "Y": 0}, "handle_type": 0, "interpolation": 0}]}, "scale_y": {"Points": [{"co": {"X": 1, "Y": 0.20304568527918782}, "handle_left": {"X": 0.5, "Y": 1}, "handle_right": {"X": 0.5, "Y": 0}, "handle_type": 0, "interpolation": 0}]}, "shear_x": {"Points": [{"co": {"X": 1, "Y": 0}, "interpolation": 2}]}, "shear_y": {"Points": [{"co": {"X": 1, "Y": 0}, "interpolation": 2}]}, "start": 0, "time": {"Points": [{"co": {"X": 1, "Y": 1}, "interpolation": 2}]}, "volume": {"Points": [{"co": {"X": 1, "Y": 1}, "interpolation": 2}]}, "wave_color": {"alpha": {"Points": [{"co": {"X": 1, "Y": 255}, "handle_left": {"X": 0.5, "Y": 1}, "handle_right": {"X": 0.5, "Y": 0}, "handle_type": 0, "interpolation": 0}]}, "blue": {"Points": [{"co": {"X": 1, "Y": 255}, "handle_left": {"X": 0.5, "Y": 1}, "handle_right": {"X": 0.5, "Y": 0}, "handle_type": 0, "interpolation": 0}]}, "green": {"Points": [{"co": {"X": 1, "Y": 123}, "handle_left": {"X": 0.5, "Y": 1}, "handle_right": {"X": 0.5, "Y": 0}, "handle_type": 0, "interpolation": 0}]}, "red": {"Points": [{"co": {"X": 1, "Y": 0}, "handle_left": {"X": 0.5, "Y": 1}, "handle_right": {"X": 0.5, "Y": 0}, "handle_type": 0, "interpolation": 0}]}}, "waveform": false, "file_id": "WU2Z07RHV4", "title": "Health%04d.png", "image": "/home/diary/.openshot_qt/thumbnail/WU2Z07RHV4.png"}, {"alpha": {"Points": [{"co": {"X": 1, "Y": 1}, "interpolation": 2}]}, "anchor": 0, "channel_filter": {"Points": [{"co": {"X": 1, "Y": -1}, "interpolation": 2}]}, "channel_mapping": {"Points": [{"co": {"X": 1, "Y": -1}, "interpolation": 2}]}, "crop_height": {"Points": [{"co": {"X": 1, "Y": -1}, "interpolation": 2}]}, "crop_width": {"Points": [{"co": {"X": 1, "Y": -1}, "interpolation": 2}]}, "crop_x": {"Points": [{"co": {"X": 1, "Y": 0}, "interpolation": 2}]}, "crop_y": {"Points": [{"co": {"X": 1, "Y": 0}, "interpolation": 2}]}, "display": 0, "duration": 86400.0, "effects": [], "end": 8.4, "gravity": 4, "has_audio": {"Points": [{"co": {"X": 1, "Y": -1}, "interpolation": 2}]}, "has_video": {"Points": [{"co": {"X": 1, "Y": -1}, "interpolation": 2}]}, "id": "CZ56MTN6QM", "layer": 4, "location_x": {"Points": [{"co": {"X": 1, "Y": 0}, "interpolation": 2}]}, "location_y": {"Points": [{"co": {"X": 1, "Y": 0}, "interpolation": 2}]}, "perspective_c1_x": {"Points": [{"co": {"X": 1, "Y": -1}, "interpolation": 2}]}, "perspective_c1_y": {"Points": [{"co": {"X": 1, "Y": -1}, "interpolation": 2}]}, "perspective_c2_x": {"Points": [{"co": {"X": 1, "Y": -1}, "interpolation": 2}]}, "perspective_c2_y": {"Points": [{"co": {"X": 1, "Y": -1}, "interpolation": 2}]}, "perspective_c3_x": {"Points": [{"co": {"X": 1, "Y": -1}, "interpolation": 2}]}, "perspective_c3_y": {"Points": [{"co": {"X": 1, "Y": -1}, "interpolation": 2}]}, "perspective_c4_x": {"Points": [{"co": {"X": 1, "Y": -1}, "interpolation": 2}]}, "perspective_c4_y": {"Points": [{"co": {"X": 1, "Y": -1}, "interpolation": 2}]}, "position": 0, "reader": {"acodec": "", "audio_bit_rate": 0, "audio_stream_index": -1, "audio_timebase": {"den": 1, "num": 1}, "channel_layout": 4, "channels": 0, "display_ratio": {"den": 9, "num": 16}, "duration": 86400.0, "file_size": "8294400", "fps": {"den": 1, "num": 30}, "has_audio": false, "has_single_image": true, "has_video": true, "height": 1080, "interlaced_frame": false, "path": "/home/diary/Desktop/\u041a\u043e\u043d\u0446\u0435\u043f\u0442\u044b/64. \u041f\u0440\u0438\u0447\u0438\u043d\u044b \u0431\u043e\u043b\u0435\u0437\u043d\u0435\u0439/assets/Vinogradoff Group.svg", "pixel_format": -1, "pixel_ratio": {"den": 1, "num": 1}, "sample_rate": 0, "top_field_first": true, "type": "QtImageReader", "vcodec": "", "video_bit_rate": 0, "video_length": "2592000", "video_stream_index": -1, "video_timebase": {"den": 30, "num": 1}, "width": 1920}, "rotation": {"Points": [{"co": {"X": 1, "Y": 0}, "interpolation": 2}]}, "scale": 1, "scale_x": {"Points": [{"co": {"X": 1, "Y": 1}, "interpolation": 2}]}, "scale_y": {"Points": [{"co": {"X": 1, "Y": 1}, "interpolation": 2}]}, "shear_x": {"Points": [{"co": {"X": 1, "Y": 0}, "interpolation": 2}]}, "shear_y": {"Points": [{"co": {"X": 1, "Y": 0}, "interpolation": 2}]}, "start": 0, "time": {"Points": [{"co": {"X": 1, "Y": 1}, "interpolation": 2}]}, "volume": {"Points": [{"co": {"X": 1, "Y": 1}, "interpolation": 2}]}, "wave_color": {"alpha": {"Points": [{"co": {"X": 1, "Y": 255}, "handle_left": {"X": 0.5, "Y": 1}, "handle_right": {"X": 0.5, "Y": 0}, "handle_type": 0, "interpolation": 0}]}, "blue": {"Points": [{"co": {"X": 1, "Y": 255}, "handle_left": {"X": 0.5, "Y": 1}, "handle_right": {"X": 0.5, "Y": 0}, "handle_type": 0, "interpolation": 0}]}, "green": {"Points": [{"co": {"X": 1, "Y": 123}, "handle_left": {"X": 0.5, "Y": 1}, "handle_right": {"X": 0.5, "Y": 0}, "handle_type": 0, "interpolation": 0}]}, "red": {"Points": [{"co": {"X": 1, "Y": 0}, "handle_left": {"X": 0.5, "Y": 1}, "handle_right": {"X": 0.5, "Y": 0}, "handle_type": 0, "interpolation": 0}]}}, "waveform": false, "file_id": "FHRB35LFMC", "title": "Vinogradoff Group.svg", "image": "/home/diary/.openshot_qt/thumbnail/FHRB35LFMC.png"}, {"alpha": {"Points": [{"co": {"X": 1, "Y": 1}, "interpolation": 2}]}, "anchor": 0, "channel_filter": {"Points": [{"co": {"X": 1, "Y": -1}, "interpolation": 2}]}, "channel_mapping": {"Points": [{"co": {"X": 1, "Y": -1}, "interpolation": 2}]}, "crop_height": {"Points": [{"co": {"X": 1, "Y": -1}, "interpolation": 2}]}, "crop_width": {"Points": [{"co": {"X": 1, "Y": -1}, "interpolation": 2}]}, "crop_x": {"Points": [{"co": {"X": 1, "Y": 0}, "interpolation": 2}]}, "crop_y": {"Points": [{"co": {"X": 1, "Y": 0}, "interpolation": 2}]}, "display": 0, "duration": 13.279999732971191, "effects": [], "end": 8.63999973297119, "gravity": 4, "has_audio": {"Points": [{"co": {"X": 1, "Y": -1}, "interpolation": 2}]}, "has_video": {"Points": [{"co": {"X": 1, "Y": -1}, "interpolation": 2}]}, "id": "BMEREUEBD0", "layer": 3, "location_x": {"Points": [{"co": {"X": 1, "Y": 0}, "interpolation": 2}]}, "location_y": {"Points": [{"co": {"X": 1, "Y": 0}, "interpolation": 2}]}, "perspective_c1_x": {"Points": [{"co": {"X": 1, "Y": -1}, "interpolation": 2}]}, "perspective_c1_y": {"Points": [{"co": {"X": 1, "Y": -1}, "interpolation": 2}]}, "perspective_c2_x": {"Points": [{"co": {"X": 1, "Y": -1}, "interpolation": 2}]}, "perspective_c2_y": {"Points": [{"co": {"X": 1, "Y": -1}, "interpolation": 2}]}, "perspective_c3_x": {"Points": [{"co": {"X": 1, "Y": -1}, "interpolation": 2}]}, "perspective_c3_y": {"Points": [{"co": {"X": 1, "Y": -1}, "interpolation": 2}]}, "perspective_c4_x": {"Points": [{"co": {"X": 1, "Y": -1}, "interpolation": 2}]}, "perspective_c4_y": {"Points": [{"co": {"X": 1, "Y": -1}, "interpolation": 2}]}, "position": 0, "reader": {"acodec": "aac", "audio_bit_rate": 127927, "audio_stream_index": 1, "audio_timebase": {"den": 48000, "num": 1}, "channel_layout": 3, "channels": 2, "display_ratio": {"den": 9, "num": 16}, "duration": 13.279999732971191, "file_size": "33793647", "fps": {"den": 1, "num": 25}, "has_audio": true, "has_single_image": false, "has_video": true, "height": 1080, "interlaced_frame": false, "path": "/home/diary/Desktop/\u041a\u043e\u043d\u0446\u0435\u043f\u0442\u044b/64. \u041f\u0440\u0438\u0447\u0438\u043d\u044b \u0431\u043e\u043b\u0435\u0437\u043d\u0435\u0439/video assets/fire_background_loop2_videvo2.mov", "pixel_format": 0, "pixel_ratio": {"den": 1, "num": 1}, "sample_rate": 48000, "top_field_first": true, "type": "FFmpegReader", "vcodec": "h264", "video_bit_rate": 20357618, "video_length": "332", "video_stream_index": 0, "video_timebase": {"den": 25, "num": 1}, "width": 1920}, "rotation": {"Points": [{"co": {"X": 1, "Y": 0}, "interpolation": 2}]}, "scale": 1, "scale_x": {"Points": [{"co": {"X": 1, "Y": 1}, "interpolation": 2}]}, "scale_y": {"Points": [{"co": {"X": 1, "Y": 1}, "interpolation": 2}]}, "shear_x": {"Points": [{"co": {"X": 1, "Y": 0}, "interpolation": 2}]}, "shear_y": {"Points": [{"co": {"X": 1, "Y": 0}, "interpolation": 2}]}, "start": 0, "time": {"Points": [{"co": {"X": 1, "Y": 1}, "interpolation": 2}]}, "volume": {"Points": [{"co": {"X": 1, "Y": 1}, "interpolation": 2}]}, "wave_color": {"alpha": {"Points": [{"co": {"X": 1, "Y": 255}, "handle_left": {"X": 0.5, "Y": 1}, "handle_right": {"X": 0.5, "Y": 0}, "handle_type": 0, "interpolation": 0}]}, "blue": {"Points": [{"co": {"X": 1, "Y": 255}, "handle_left": {"X": 0.5, "Y": 1}, "handle_right": {"X": 0.5, "Y": 0}, "handle_type": 0, "interpolation": 0}]}, "green": {"Points": [{"co": {"X": 1, "Y": 123}, "handle_left": {"X": 0.5, "Y": 1}, "handle_right": {"X": 0.5, "Y": 0}, "handle_type": 0, "interpolation": 0}]}, "red": {"Points": [{"co": {"X": 1, "Y": 0}, "handle_left": {"X": 0.5, "Y": 1}, "handle_right": {"X": 0.5, "Y": 0}, "handle_type": 0, "interpolation": 0}]}}, "waveform": false, "file_id": "4WES5Z3VG4", "title": "fire_background_loop2_videvo2.mov", "image": "/home/diary/.openshot_qt/thumbnail/4WES5Z3VG4.png"}, {"alpha": {"Points": [{"co": {"X": 1, "Y": 1}, "interpolation": 2}]}, "anchor": 0, "channel_filter": {"Points": [{"co": {"X": 1, "Y": -1}, "interpolation": 2}]}, "channel_mapping": {"Points": [{"co": {"X": 1, "Y": -1}, "interpolation": 2}]}, "crop_height": {"Points": [{"co": {"X": 1, "Y": -1}, "interpolation": 2}]}, "crop_width": {"Points": [{"co": {"X": 1, "Y": -1}, "interpolation": 2}]}, "crop_x": {"Points": [{"co": {"X": 1, "Y": 0}, "interpolation": 2}]}, "crop_y": {"Points": [{"co": {"X": 1, "Y": 0}, "interpolation": 2}]}, "display": 0, "duration": 23.200000762939453, "effects": [], "end": 23.200000762939453, "gravity": 4, "has_audio": {"Points": [{"co": {"X": 1, "Y": -1}, "interpolation": 2}]}, "has_video": {"Points": [{"co": {"X": 1, "Y": -1}, "interpolation": 2}]}, "id": "8S65LG0ZFO", "layer": 3, "location_x": {"Points": [{"co": {"X": 1, "Y": 0}, "interpolation": 2}]}, "location_y": {"Points": [{"co": {"X": 1, "Y": 0}, "interpolation": 2}]}, "perspective_c1_x": {"Points": [{"co": {"X": 1, "Y": -1}, "interpolation": 2}]}, "perspective_c1_y": {"Points": [{"co": {"X": 1, "Y": -1}, "interpolation": 2}]}, "perspective_c2_x": {"Points": [{"co": {"X": 1, "Y": -1}, "interpolation": 2}]}, "perspective_c2_y": {"Points": [{"co": {"X": 1, "Y": -1}, "interpolation": 2}]}, "perspective_c3_x": {"Points": [{"co": {"X": 1, "Y": -1}, "interpolation": 2}]}, "perspective_c3_y": {"Points": [{"co": {"X": 1, "Y": -1}, "interpolation": 2}]}, "perspective_c4_x": {"Points": [{"co": {"X": 1, "Y": -1}, "interpolation": 2}]}, "perspective_c4_y": {"Points": [{"co": {"X": 1, "Y": -1}, "interpolation": 2}]}, "position": 23.52, "reader": {"acodec": "", "audio_bit_rate": 0, "audio_stream_index": -1, "audio_timebase": {"den": 1, "num": 1}, "channel_layout": 4, "channels": 0, "display_ratio": {"den": 9, "num": 16}, "duration": 23.200000762939453, "file_size": "82713018", "fps": {"den": 1, "num": 25}, "has_audio": false, "has_single_image": false, "has_video": true, "height": 2160, "interlaced_frame": false, "path": "/home/diary/Desktop/\u041a\u043e\u043d\u0446\u0435\u043f\u0442\u044b/64. \u041f\u0440\u0438\u0447\u0438\u043d\u044b \u0431\u043e\u043b\u0435\u0437\u043d\u0435\u0439/video assets/200129_02_Medical_Ward_4k_103.mp4", "pixel_format": 0, "pixel_ratio": {"den": 1, "num": 1}, "sample_rate": 0, "top_field_first": true, "type": "FFmpegReader", "vcodec": "h264", "video_bit_rate": 28521730, "video_length": "580", "video_stream_index": 0, "video_timebase": {"den": 25000, "num": 1}, "width": 3840}, "rotation": {"Points": [{"co": {"X": 1, "Y": 0}, "interpolation": 2}]}, "scale": 1, "scale_x": {"Points": [{"co": {"X": 1, "Y": 1}, "interpolation": 2}]}, "scale_y": {"Points": [{"co": {"X": 1, "Y": 1}, "interpolation": 2}]}, "shear_x": {"Points": [{"co": {"X": 1, "Y": 0}, "interpolation": 2}]}, "shear_y": {"Points": [{"co": {"X": 1, "Y": 0}, "interpolation": 2}]}, "start": 0, "time": {"Points": [{"co": {"X": 1, "Y": 1}, "interpolation": 2}]}, "volume": {"Points": [{"co": {"X": 1, "Y": 1}, "interpolation": 2}]}, "wave_color": {"alpha": {"Points": [{"co": {"X": 1, "Y": 255}, "handle_left": {"X": 0.5, "Y": 1}, "handle_right": {"X": 0.5, "Y": 0}, "handle_type": 0, "interpolation": 0}]}, "blue": {"Points": [{"co": {"X": 1, "Y": 255}, "handle_left": {"X": 0.5, "Y": 1}, "handle_right": {"X": 0.5, "Y": 0}, "handle_type": 0, "interpolation": 0}]}, "green": {"Points": [{"co": {"X": 1, "Y": 123}, "handle_left": {"X": 0.5, "Y": 1}, "handle_right": {"X": 0.5, "Y": 0}, "handle_type": 0, "interpolation": 0}]}, "red": {"Points": [{"co": {"X": 1, "Y": 0}, "handle_left": {"X": 0.5, "Y": 1}, "handle_right": {"X": 0.5, "Y": 0}, "handle_type": 0, "interpolation": 0}]}}, "waveform": false, "file_id": "YXHHBI5JHB", "title": "200129_02_Medical_Ward_4k_103.mp4", "image": "/home/diary/.openshot_qt/thumbnail/YXHHBI5JHB.png"}, {"alpha": {"Points": [{"co": {"X": 1, "Y": 1}, "interpolation": 2}]}, "anchor": 0, "channel_filter": {"Points": [{"co": {"X": 1, "Y": -1}, "interpolation": 2}]}, "channel_mapping": {"Points": [{"co": {"X": 1, "Y": -1}, "interpolation": 2}]}, "crop_height": {"Points": [{"co": {"X": 1, "Y": -1}, "interpolation": 2}]}, "crop_width": {"Points": [{"co": {"X": 1, "Y": -1}, "interpolation": 2}]}, "crop_x": {"Points": [{"co": {"X": 1, "Y": 0}, "interpolation": 2}]}, "crop_y": {"Points": [{"co": {"X": 1, "Y": 0}, "interpolation": 2}]}, "display": 0, "duration": 23.360000610351562, "effects": [], "end": 23.360000610351562, "gravity": 4, "has_audio": {"Points": [{"co": {"X": 1, "Y": -1}, "interpolation": 2}]}, "has_video": {"Points": [{"co": {"X": 1, "Y": -1}, "interpolation": 2}]}, "id": "RTVAO9LI1Y", "layer": 3, "location_x": {"Points": [{"co": {"X": 1, "Y": 0}, "interpolation": 2}]}, "location_y": {"Points": [{"co": {"X": 1, "Y": 0}, "interpolation": 2}]}, "perspective_c1_x": {"Points": [{"co": {"X": 1, "Y": -1}, "interpolation": 2}]}, "perspective_c1_y": {"Points": [{"co": {"X": 1, "Y": -1}, "interpolation": 2}]}, "perspective_c2_x": {"Points": [{"co": {"X": 1, "Y": -1}, "interpolation": 2}]}, "perspective_c2_y": {"Points": [{"co": {"X": 1, "Y": -1}, "interpolation": 2}]}, "perspective_c3_x": {"Points": [{"co": {"X": 1, "Y": -1}, "interpolation": 2}]}, "perspective_c3_y": {"Points": [{"co": {"X": 1, "Y": -1}, "interpolation": 2}]}, "perspective_c4_x": {"Points": [{"co": {"X": 1, "Y": -1}, "interpolation": 2}]}, "perspective_c4_y": {"Points": [{"co": {"X": 1, "Y": -1}, "interpolation": 2}]}, "position": 47.442187499999996, "reader": {"acodec": "aac", "audio_bit_rate": 317375, "audio_stream_index": 1, "audio_timebase": {"den": 48000, "num": 1}, "channel_layout": 3, "channels": 2, "display_ratio": {"den": 9, "num": 16}, "duration": 23.360000610351562, "file_size": "96318984", "fps": {"den": 1, "num": 25}, "has_audio": true, "has_single_image": false, "has_video": true, "height": 1080, "interlaced_frame": false, "path": "/home/diary/Desktop/\u041a\u043e\u043d\u0446\u0435\u043f\u0442\u044b/64. \u041f\u0440\u0438\u0447\u0438\u043d\u044b \u0431\u043e\u043b\u0435\u0437\u043d\u0435\u0439/video assets/160714_Pills_2_1080p.mp4", "pixel_format": 0, "pixel_ratio": {"den": 1, "num": 1}, "sample_rate": 48000, "top_field_first": true, "type": "FFmpegReader", "vcodec": "h264", "video_bit_rate": 32925814, "video_length": "584", "video_stream_index": 0, "video_timebase": {"den": 25000, "num": 1}, "width": 1920}, "rotation": {"Points": [{"co": {"X": 1, "Y": 0}, "interpolation": 2}]}, "scale": 1, "scale_x": {"Points": [{"co": {"X": 1, "Y": 1}, "interpolation": 2}]}, "scale_y": {"Points": [{"co": {"X": 1, "Y": 1}, "interpolation": 2}]}, "shear_x": {"Points": [{"co": {"X": 1, "Y": 0}, "interpolation": 2}]}, "shear_y": {"Points": [{"co": {"X": 1, "Y": 0}, "interpolation": 2}]}, "start": 0, "time": {"Points": [{"co": {"X": 1, "Y": 1}, "interpolation": 2}]}, "volume": {"Points": [{"co": {"X": 1, "Y": 1}, "interpolation": 2}]}, "wave_color": {"alpha": {"Points": [{"co": {"X": 1, "Y": 255}, "handle_left": {"X": 0.5, "Y": 1}, "handle_right": {"X": 0.5, "Y": 0}, "handle_type": 0, "interpolation": 0}]}, "blue": {"Points": [{"co": {"X": 1, "Y": 255}, "handle_left": {"X": 0.5, "Y": 1}, "handle_right": {"X": 0.5, "Y": 0}, "handle_type": 0, "interpolation": 0}]}, "green": {"Points": [{"co": {"X": 1, "Y": 123}, "handle_left": {"X": 0.5, "Y": 1}, "handle_right": {"X": 0.5, "Y": 0}, "handle_type": 0, "interpolation": 0}]}, "red": {"Points": [{"co": {"X": 1, "Y": 0}, "handle_left": {"X": 0.5, "Y": 1}, "handle_right": {"X": 0.5, "Y": 0}, "handle_type": 0, "interpolation": 0}]}}, "waveform": false, "file_id": "YBDV9IV3RQ", "title": "160714_Pills_2_1080p.mp4", "image": "/home/diary/.openshot_qt/thumbnail/YBDV9IV3RQ.png"}, {"alpha": {"Points": [{"co": {"X": 1, "Y": 1}, "interpolation": 2}]}, "anchor": 0, "channel_filter": {"Points": [{"co": {"X": 1, "Y": -1}, "interpolation": 2}]}, "channel_mapping": {"Points": [{"co": {"X": 1, "Y": -1}, "interpolation": 2}]}, "crop_height": {"Points": [{"co": {"X": 1, "Y": -1}, "interpolation": 2}]}, "crop_width": {"Points": [{"co": {"X": 1, "Y": -1}, "interpolation": 2}]}, "crop_x": {"Points": [{"co": {"X": 1, "Y": 0}, "interpolation": 2}]}, "crop_y": {"Points": [{"co": {"X": 1, "Y": 0}, "interpolation": 2}]}, "display": 0, "duration": 13.4399995803833, "effects": [], "end": 13.4399995803833, "gravity": 4, "has_audio": {"Points": [{"co": {"X": 1, "Y": -1}, "interpolation": 2}]}, "has_video": {"Points": [{"co": {"X": 1, "Y": -1}, "interpolation": 2}]}, "id": "64ET1DMXTY", "layer": 3, "location_x": {"Points": [{"co": {"X": 1, "Y": 0}, "interpolation": 2}]}, "location_y": {"Points": [{"co": {"X": 1, "Y": 0}, "interpolation": 2}]}, "perspective_c1_x": {"Points": [{"co": {"X": 1, "Y": -1}, "interpolation": 2}]}, "perspective_c1_y": {"Points": [{"co": {"X": 1, "Y": -1}, "interpolation": 2}]}, "perspective_c2_x": {"Points": [{"co": {"X": 1, "Y": -1}, "interpolation": 2}]}, "perspective_c2_y": {"Points": [{"co": {"X": 1, "Y": -1}, "interpolation": 2}]}, "perspective_c3_x": {"Points": [{"co": {"X": 1, "Y": -1}, "interpolation": 2}]}, "perspective_c3_y": {"Points": [{"co": {"X": 1, "Y": -1}, "interpolation": 2}]}, "perspective_c4_x": {"Points": [{"co": {"X": 1, "Y": -1}, "interpolation": 2}]}, "perspective_c4_y": {"Points": [{"co": {"X": 1, "Y": -1}, "interpolation": 2}]}, "position": 71.84, "reader": {"acodec": "", "audio_bit_rate": 0, "audio_stream_index": -1, "audio_timebase": {"den": 1, "num": 1}, "channel_layout": 4, "channels": 0, "display_ratio": {"den": 84, "num": 149}, "duration": 13.4399995803833, "file_size": "1560325", "fps": {"den": 1, "num": 25}, "has_audio": false, "has_single_image": false, "has_video": true, "height": 336, "interlaced_frame": false, "path": "/home/diary/Desktop/\u041a\u043e\u043d\u0446\u0435\u043f\u0442\u044b/64. \u041f\u0440\u0438\u0447\u0438\u043d\u044b \u0431\u043e\u043b\u0435\u0437\u043d\u0435\u0439/video assets/22782544-preview.mp4", "pixel_format": 0, "pixel_ratio": {"den": 1, "num": 1}, "sample_rate": 0, "top_field_first": true, "type": "FFmpegReader", "vcodec": "h264", "video_bit_rate": 928764, "video_length": "336", "video_stream_index": 0, "video_timebase": {"den": 12800, "num": 1}, "width": 596}, "rotation": {"Points": [{"co": {"X": 1, "Y": 0}, "interpolation": 2}]}, "scale": 1, "scale_x": {"Points": [{"co": {"X": 1, "Y": 1}, "interpolation": 2}]}, "scale_y": {"Points": [{"co": {"X": 1, "Y": 1}, "interpolation": 2}]}, "shear_x": {"Points": [{"co": {"X": 1, "Y": 0}, "interpolation": 2}]}, "shear_y": {"Points": [{"co": {"X": 1, "Y": 0}, "interpolation": 2}]}, "start": 0, "time": {"Points": [{"co": {"X": 1, "Y": 1}, "interpolation": 2}]}, "volume": {"Points": [{"co": {"X": 1, "Y": 1}, "interpolation": 2}]}, "wave_color": {"alpha": {"Points": [{"co": {"X": 1, "Y": 255}, "handle_left": {"X": 0.5, "Y": 1}, "handle_right": {"X": 0.5, "Y": 0}, "handle_type": 0, "interpolation": 0}]}, "blue": {"Points": [{"co": {"X": 1, "Y": 255}, "handle_left": {"X": 0.5, "Y": 1}, "handle_right": {"X": 0.5, "Y": 0}, "handle_type": 0, "interpolation": 0}]}, "green": {"Points": [{"co": {"X": 1, "Y": 123}, "handle_left": {"X": 0.5, "Y": 1}, "handle_right": {"X": 0.5, "Y": 0}, "handle_type": 0, "interpolation": 0}]}, "red": {"Points": [{"co": {"X": 1, "Y": 0}, "handle_left": {"X": 0.5, "Y": 1}, "handle_right": {"X": 0.5, "Y": 0}, "handle_type": 0, "interpolation": 0}]}}, "waveform": false, "file_id": "M9OO5LBDVO", "title": "22782544-preview.mp4", "image": "/home/diary/.openshot_qt/thumbnail/M9OO5LBDVO.png"}, {"alpha": {"Points": [{"co": {"X": 1, "Y": 1}, "interpolation": 2}]}, "anchor": 0, "channel_filter": {"Points": [{"co": {"X": 1, "Y": -1}, "interpolation": 2}]}, "channel_mapping": {"Points": [{"co": {"X": 1, "Y": -1}, "interpolation": 2}]}, "crop_height": {"Points": [{"co": {"X": 1, "Y": -1}, "interpolation": 2}]}, "crop_width": {"Points": [{"co": {"X": 1, "Y": -1}, "interpolation": 2}]}, "crop_x": {"Points": [{"co": {"X": 1, "Y": 0}, "interpolation": 2}]}, "crop_y": {"Points": [{"co": {"X": 1, "Y": 0}, "interpolation": 2}]}, "display": 0, "duration": 13.0, "effects": [], "end": 13, "gravity": 4, "has_audio": {"Points": [{"co": {"X": 1, "Y": -1}, "interpolation": 2}]}, "has_video": {"Points": [{"co": {"X": 1, "Y": -1}, "interpolation": 2}]}, "id": "FAQG1NALP6", "layer": 3, "location_x": {"Points": [{"co": {"X": 1, "Y": 0}, "interpolation": 2}]}, "location_y": {"Points": [{"co": {"X": 1, "Y": 0}, "interpolation": 2}]}, "perspective_c1_x": {"Points": [{"co": {"X": 1, "Y": -1}, "interpolation": 2}]}, "perspective_c1_y": {"Points": [{"co": {"X": 1, "Y": -1}, "interpolation": 2}]}, "perspective_c2_x": {"Points": [{"co": {"X": 1, "Y": -1}, "interpolation": 2}]}, "perspective_c2_y": {"Points": [{"co": {"X": 1, "Y": -1}, "interpolation": 2}]}, "perspective_c3_x": {"Points": [{"co": {"X": 1, "Y": -1}, "interpolation": 2}]}, "perspective_c3_y": {"Points": [{"co": {"X": 1, "Y": -1}, "interpolation": 2}]}, "perspective_c4_x": {"Points": [{"co": {"X": 1, "Y": -1}, "interpolation": 2}]}, "perspective_c4_y": {"Points": [{"co": {"X": 1, "Y": -1}, "interpolation": 2}]}, "position": 132.16, "reader": {"acodec": "aac", "audio_bit_rate": 128321, "audio_stream_index": 1, "audio_timebase": {"den": 44100, "num": 1}, "channel_layout": 3, "channels": 2, "display_ratio": {"den": 84, "num": 149}, "duration": 13.0, "file_size": "1223144", "fps": {"den": 1, "num": 25}, "has_audio": true, "has_single_image": false, "has_video": true, "height": 336, "interlaced_frame": false, "path": "/home/diary/Desktop/\u041a\u043e\u043d\u0446\u0435\u043f\u0442\u044b/64. \u041f\u0440\u0438\u0447\u0438\u043d\u044b \u0431\u043e\u043b\u0435\u0437\u043d\u0435\u0439/video assets/1053783902-preview.mp4", "pixel_format": 0, "pixel_ratio": {"den": 1, "num": 1}, "sample_rate": 44100, "top_field_first": true, "type": "FFmpegReader", "vcodec": "h264", "video_bit_rate": 749992, "video_length": "325", "video_stream_index": 0, "video_timebase": {"den": 12800, "num": 1}, "width": 596}, "rotation": {"Points": [{"co": {"X": 1, "Y": 0}, "interpolation": 2}]}, "scale": 1, "scale_x": {"Points": [{"co": {"X": 1, "Y": 1}, "interpolation": 2}]}, "scale_y": {"Points": [{"co": {"X": 1, "Y": 1}, "interpolation": 2}]}, "shear_x": {"Points": [{"co": {"X": 1, "Y": 0}, "interpolation": 2}]}, "shear_y": {"Points": [{"co": {"X": 1, "Y": 0}, "interpolation": 2}]}, "start": 0, "time": {"Points": [{"co": {"X": 1, "Y": 1}, "interpolation": 2}]}, "volume": {"Points": [{"co": {"X": 1, "Y": 1}, "interpolation": 2}]}, "wave_color": {"alpha": {"Points": [{"co": {"X": 1, "Y": 255}, "handle_left": {"X": 0.5, "Y": 1}, "handle_right": {"X": 0.5, "Y": 0}, "handle_type": 0, "interpolation": 0}]}, "blue": {"Points": [{"co": {"X": 1, "Y": 255}, "handle_left": {"X": 0.5, "Y": 1}, "handle_right": {"X": 0.5, "Y": 0}, "handle_type": 0, "interpolation": 0}]}, "green": {"Points": [{"co": {"X": 1, "Y": 123}, "handle_left": {"X": 0.5, "Y": 1}, "handle_right": {"X": 0.5, "Y": 0}, "handle_type": 0, "interpolation": 0}]}, "red": {"Points": [{"co": {"X": 1, "Y": 0}, "handle_left": {"X": 0.5, "Y": 1}, "handle_right": {"X": 0.5, "Y": 0}, "handle_type": 0, "interpolation": 0}]}}, "waveform": false, "file_id": "49AUONUONS", "title": "1053783902-preview.mp4", "image": "/home/diary/.openshot_qt/thumbnail/49AUONUONS.png"}, {"alpha": {"Points": [{"co": {"X": 1, "Y": 1}, "interpolation": 2}]}, "anchor": 0, "channel_filter": {"Points": [{"co": {"X": 1, "Y": -1}, "interpolation": 2}]}, "channel_mapping": {"Points": [{"co": {"X": 1, "Y": -1}, "interpolation": 2}]}, "crop_height": {"Points": [{"co": {"X": 1, "Y": -1}, "interpolation": 2}]}, "crop_width": {"Points": [{"co": {"X": 1, "Y": -1}, "interpolation": 2}]}, "crop_x": {"Points": [{"co": {"X": 1, "Y": 0}, "interpolation": 2}]}, "crop_y": {"Points": [{"co": {"X": 1, "Y": 0}, "interpolation": 2}]}, "display": 0, "duration": 44.33599853515625, "effects": [], "end": 44.33599853515625, "gravity": 4, "has_audio": {"Points": [{"co": {"X": 1, "Y": -1}, "interpolation": 2}]}, "has_video": {"Points": [{"co": {"X": 1, "Y": -1}, "interpolation": 2}]}, "id": "65NA5MTRQE", "layer": 3, "location_x": {"Points": [{"co": {"X": 1, "Y": 0}, "interpolation": 2}]}, "location_y": {"Points": [{"co": {"X": 1, "Y": 0}, "interpolation": 2}]}, "perspective_c1_x": {"Points": [{"co": {"X": 1, "Y": -1}, "interpolation": 2}]}, "perspective_c1_y": {"Points": [{"co": {"X": 1, "Y": -1}, "interpolation": 2}]}, "perspective_c2_x": {"Points": [{"co": {"X": 1, "Y": -1}, "interpolation": 2}]}, "perspective_c2_y": {"Points": [{"co": {"X": 1, "Y": -1}, "interpolation": 2}]}, "perspective_c3_x": {"Points": [{"co": {"X": 1, "Y": -1}, "interpolation": 2}]}, "perspective_c3_y": {"Points": [{"co": {"X": 1, "Y": -1}, "interpolation": 2}]}, "perspective_c4_x": {"Points": [{"co": {"X": 1, "Y": -1}, "interpolation": 2}]}, "perspective_c4_y": {"Points": [{"co": {"X": 1, "Y": -1}, "interpolation": 2}]}, "position": 87.985, "reader": {"acodec": "", "audio_bit_rate": 0, "audio_stream_index": -1, "audio_timebase": {"den": 1, "num": 1}, "channel_layout": 4, "channels": 0, "display_ratio": {"den": 79, "num": 150}, "duration": 44.33599853515625, "file_size": "5120509", "fps": {"den": 1001, "num": 24000}, "has_audio": false, "has_single_image": false, "has_video": true, "height": 316, "interlaced_frame": false, "path": "/home/diary/Desktop/\u041a\u043e\u043d\u0446\u0435\u043f\u0442\u044b/64. \u041f\u0440\u0438\u0447\u0438\u043d\u044b \u0431\u043e\u043b\u0435\u0437\u043d\u0435\u0439/video assets/1019086909-preview.mp4", "pixel_format": 0, "pixel_ratio": {"den": 1, "num": 1}, "sample_rate": 0, "top_field_first": true, "type": "FFmpegReader", "vcodec": "h264", "video_bit_rate": 923946, "video_length": "1063", "video_stream_index": 0, "video_timebase": {"den": 24000, "num": 1}, "width": 600}, "rotation": {"Points": [{"co": {"X": 1, "Y": 0}, "interpolation": 2}]}, "scale": 1, "scale_x": {"Points": [{"co": {"X": 1, "Y": 1}, "interpolation": 2}]}, "scale_y": {"Points": [{"co": {"X": 1, "Y": 1}, "interpolation": 2}]}, "shear_x": {"Points": [{"co": {"X": 1, "Y": 0}, "interpolation": 2}]}, "shear_y": {"Points": [{"co": {"X": 1, "Y": 0}, "interpolation": 2}]}, "start": 0, "time": {"Points": [{"co": {"X": 1, "Y": 1}, "interpolation": 2}]}, "volume": {"Points": [{"co": {"X": 1, "Y": 1}, "interpolation": 2}]}, "wave_color": {"alpha": {"Points": [{"co": {"X": 1, "Y": 255}, "handle_left": {"X": 0.5, "Y": 1}, "handle_right": {"X": 0.5, "Y": 0}, "handle_type": 0, "interpolation": 0}]}, "blue": {"Points": [{"co": {"X": 1, "Y": 255}, "handle_left": {"X": 0.5, "Y": 1}, "handle_right": {"X": 0.5, "Y": 0}, "handle_type": 0, "interpolation": 0}]}, "green": {"Points": [{"co": {"X": 1, "Y": 123}, "handle_left": {"X": 0.5, "Y": 1}, "handle_right": {"X": 0.5, "Y": 0}, "handle_type": 0, "interpolation": 0}]}, "red": {"Points": [{"co": {"X": 1, "Y": 0}, "handle_left": {"X": 0.5, "Y": 1}, "handle_right": {"X": 0.5, "Y": 0}, "handle_type": 0, "interpolation": 0}]}}, "waveform": false, "file_id": "S1F0PS2NHN", "title": "1019086909-preview.mp4", "image": "/home/diary/.openshot_qt/thumbnail/S1F0PS2NHN.png"}, {"alpha": {"Points": [{"co": {"X": 1, "Y": 1}, "interpolation": 2}]}, "anchor": 0, "channel_filter": {"Points": [{"co": {"X": 1, "Y": -1}, "interpolation": 2}]}, "channel_mapping": {"Points": [{"co": {"X": 1, "Y": -1}, "interpolation": 2}]}, "crop_height": {"Points": [{"co": {"X": 1, "Y": -1}, "interpolation": 2}]}, "crop_width": {"Points": [{"co": {"X": 1, "Y": -1}, "interpolation": 2}]}, "crop_x": {"Points": [{"co": {"X": 1, "Y": 0}, "interpolation": 2}]}, "crop_y": {"Points": [{"co": {"X": 1, "Y": 0}, "interpolation": 2}]}, "display": 0, "duration": 17.0, "effects": [], "end": 17, "gravity": 4, "has_audio": {"Points": [{"co": {"X": 1, "Y": -1}, "interpolation": 2}]}, "has_video": {"Points": [{"co": {"X": 1, "Y": -1}, "interpolation": 2}]}, "id": "0NV0TKPJLV", "layer": 3, "location_x": {"Points": [{"co": {"X": 1, "Y": 0}, "interpolation": 2}]}, "location_y": {"Points": [{"co": {"X": 1, "Y": 0}, "interpolation": 2}]}, "perspective_c1_x": {"Points": [{"co": {"X": 1, "Y": -1}, "interpolation": 2}]}, "perspective_c1_y": {"Points": [{"co": {"X": 1, "Y": -1}, "interpolation": 2}]}, "perspective_c2_x": {"Points": [{"co": {"X": 1, "Y": -1}, "interpolation": 2}]}, "perspective_c2_y": {"Points": [{"co": {"X": 1, "Y": -1}, "interpolation": 2}]}, "perspective_c3_x": {"Points": [{"co": {"X": 1, "Y": -1}, "interpolation": 2}]}, "perspective_c3_y": {"Points": [{"co": {"X": 1, "Y": -1}, "interpolation": 2}]}, "perspective_c4_x": {"Points": [{"co": {"X": 1, "Y": -1}, "interpolation": 2}]}, "perspective_c4_y": {"Points": [{"co": {"X": 1, "Y": -1}, "interpolation": 2}]}, "position": 145.16, "reader": {"acodec": "aac", "audio_bit_rate": 128442, "audio_stream_index": 1, "audio_timebase": {"den": 44100, "num": 1}, "channel_layout": 3, "channels": 2, "display_ratio": {"den": 84, "num": 149}, "duration": 17.0, "file_size": "1082198", "fps": {"den": 1, "num": 24}, "has_audio": true, "has_single_image": false, "has_video": true, "height": 336, "interlaced_frame": false, "path": "/home/diary/Desktop/\u041a\u043e\u043d\u0446\u0435\u043f\u0442\u044b/64. \u041f\u0440\u0438\u0447\u0438\u043d\u044b \u0431\u043e\u043b\u0435\u0437\u043d\u0435\u0439/video assets/1044123580-preview.mp4", "pixel_format": 0, "pixel_ratio": {"den": 1, "num": 1}, "sample_rate": 44100, "top_field_first": true, "type": "FFmpegReader", "vcodec": "h264", "video_bit_rate": 507865, "video_length": "408", "video_stream_index": 0, "video_timebase": {"den": 12288, "num": 1}, "width": 596}, "rotation": {"Points": [{"co": {"X": 1, "Y": 0}, "interpolation": 2}]}, "scale": 1, "scale_x": {"Points": [{"co": {"X": 1, "Y": 1}, "interpolation": 2}]}, "scale_y": {"Points": [{"co": {"X": 1, "Y": 1}, "interpolation": 2}]}, "shear_x": {"Points": [{"co": {"X": 1, "Y": 0}, "interpolation": 2}]}, "shear_y": {"Points": [{"co": {"X": 1, "Y": 0}, "interpolation": 2}]}, "start": 0, "time": {"Points": [{"co": {"X": 1, "Y": 1}, "interpolation": 2}]}, "volume": {"Points": [{"co": {"X": 1, "Y": 1}, "interpolation": 2}]}, "wave_color": {"alpha": {"Points": [{"co": {"X": 1, "Y": 255}, "handle_left": {"X": 0.5, "Y": 1}, "handle_right": {"X": 0.5, "Y": 0}, "handle_type": 0, "interpolation": 0}]}, "blue": {"Points": [{"co": {"X": 1, "Y": 255}, "handle_left": {"X": 0.5, "Y": 1}, "handle_right": {"X": 0.5, "Y": 0}, "handle_type": 0, "interpolation": 0}]}, "green": {"Points": [{"co": {"X": 1, "Y": 123}, "handle_left": {"X": 0.5, "Y": 1}, "handle_right": {"X": 0.5, "Y": 0}, "handle_type": 0, "interpolation": 0}]}, "red": {"Points": [{"co": {"X": 1, "Y": 0}, "handle_left": {"X": 0.5, "Y": 1}, "handle_right": {"X": 0.5, "Y": 0}, "handle_type": 0, "interpolation": 0}]}}, "waveform": false, "file_id": "73OC331NN1", "title": "1044123580-preview.mp4", "image": "/home/diary/.openshot_qt/thumbnail/73OC331NN1.png"}, {"alpha": {"Points": [{"co": {"X": 1, "Y": 1}, "interpolation": 2}]}, "anchor": 0, "channel_filter": {"Points": [{"co": {"X": 1, "Y": -1}, "interpolation": 2}]}, "channel_mapping": {"Points": [{"co": {"X": 1, "Y": -1}, "interpolation": 2}]}, "crop_height": {"Points": [{"co": {"X": 1, "Y": -1}, "interpolation": 2}]}, "crop_width": {"Points": [{"co": {"X": 1, "Y": -1}, "interpolation": 2}]}, "crop_x": {"Points": [{"co": {"X": 1, "Y": 0}, "interpolation": 2}]}, "crop_y": {"Points": [{"co": {"X": 1, "Y": 0}, "interpolation": 2}]}, "display": 0, "duration": 9.920000076293945, "effects": [], "end": 9.920000076293945, "gravity": 4, "has_audio": {"Points": [{"co": {"X": 1, "Y": -1}, "interpolation": 2}]}, "has_video": {"Points": [{"co": {"X": 1, "Y": -1}, "interpolation": 2}]}, "id": "RAKQERJ6P1", "layer": 3, "location_x": {"Points": [{"co": {"X": 1, "Y": 0}, "interpolation": 2}]}, "location_y": {"Points": [{"co": {"X": 1, "Y": 0}, "interpolation": 2}]}, "perspective_c1_x": {"Points": [{"co": {"X": 1, "Y": -1}, "interpolation": 2}]}, "perspective_c1_y": {"Points": [{"co": {"X": 1, "Y": -1}, "interpolation": 2}]}, "perspective_c2_x": {"Points": [{"co": {"X": 1, "Y": -1}, "interpolation": 2}]}, "perspective_c2_y": {"Points": [{"co": {"X": 1, "Y": -1}, "interpolation": 2}]}, "perspective_c3_x": {"Points": [{"co": {"X": 1, "Y": -1}, "interpolation": 2}]}, "perspective_c3_y": {"Points": [{"co": {"X": 1, "Y": -1}, "interpolation": 2}]}, "perspective_c4_x": {"Points": [{"co": {"X": 1, "Y": -1}, "interpolation": 2}]}, "perspective_c4_y": {"Points": [{"co": {"X": 1, "Y": -1}, "interpolation": 2}]}, "position": 162.16, "reader": {"acodec": "", "audio_bit_rate": 0, "audio_stream_index": -1, "audio_timebase": {"den": 1, "num": 1}, "channel_layout": 4, "channels": 0, "display_ratio": {"den": 9, "num": 16}, "duration": 9.920000076293945, "file_size": "1950637", "fps": {"den": 1, "num": 25}, "has_audio": false, "has_single_image": false, "has_video": true, "height": 360, "interlaced_frame": false, "path": "/home/diary/Desktop/\u041a\u043e\u043d\u0446\u0435\u043f\u0442\u044b/64. \u041f\u0440\u0438\u0447\u0438\u043d\u044b \u0431\u043e\u043b\u0435\u0437\u043d\u0435\u0439/video assets/istockphoto-541088960-640_adpp_is.mp4", "pixel_format": 0, "pixel_ratio": {"den": 1, "num": 1}, "sample_rate": 0, "top_field_first": true, "type": "FFmpegReader", "vcodec": "h264", "video_bit_rate": 1573094, "video_length": "248", "video_stream_index": 0, "video_timebase": {"den": 25000, "num": 1}, "width": 640}, "rotation": {"Points": [{"co": {"X": 1, "Y": 0}, "interpolation": 2}]}, "scale": 1, "scale_x": {"Points": [{"co": {"X": 1, "Y": 1}, "interpolation": 2}]}, "scale_y": {"Points": [{"co": {"X": 1, "Y": 1}, "interpolation": 2}]}, "shear_x": {"Points": [{"co": {"X": 1, "Y": 0}, "interpolation": 2}]}, "shear_y": {"Points": [{"co": {"X": 1, "Y": 0}, "interpolation": 2}]}, "start": 0, "time": {"Points": [{"co": {"X": 1, "Y": 1}, "interpolation": 2}]}, "volume": {"Points": [{"co": {"X": 1, "Y": 1}, "interpolation": 2}]}, "wave_color": {"alpha": {"Points": [{"co": {"X": 1, "Y": 255}, "handle_left": {"X": 0.5, "Y": 1}, "handle_right": {"X": 0.5, "Y": 0}, "handle_type": 0, "interpolation": 0}]}, "blue": {"Points": [{"co": {"X": 1, "Y": 255}, "handle_left": {"X": 0.5, "Y": 1}, "handle_right": {"X": 0.5, "Y": 0}, "handle_type": 0, "interpolation": 0}]}, "green": {"Points": [{"co": {"X": 1, "Y": 123}, "handle_left": {"X": 0.5, "Y": 1}, "handle_right": {"X": 0.5, "Y": 0}, "handle_type": 0, "interpolation": 0}]}, "red": {"Points": [{"co": {"X": 1, "Y": 0}, "handle_left": {"X": 0.5, "Y": 1}, "handle_right": {"X": 0.5, "Y": 0}, "handle_type": 0, "interpolation": 0}]}}, "waveform": false, "file_id": "7RTHRR68QT", "title": "istockphoto-541088960-640_adpp_is.mp4", "image": "/home/diary/.openshot_qt/thumbnail/7RTHRR68QT.png"}, {"alpha": {"Points": [{"co": {"X": 1, "Y": 1}, "interpolation": 2}]}, "anchor": 0, "channel_filter": {"Points": [{"co": {"X": 1, "Y": -1}, "interpolation": 2}]}, "channel_mapping": {"Points": [{"co": {"X": 1, "Y": -1}, "interpolation": 2}]}, "crop_height": {"Points": [{"co": {"X": 1, "Y": -1}, "interpolation": 2}]}, "crop_width": {"Points": [{"co": {"X": 1, "Y": -1}, "interpolation": 2}]}, "crop_x": {"Points": [{"co": {"X": 1, "Y": 0}, "interpolation": 2}]}, "crop_y": {"Points": [{"co": {"X": 1, "Y": 0}, "interpolation": 2}]}, "display": 0, "duration": 10.680000305175781, "effects": [], "end": 10.680000305175781, "gravity": 4, "has_audio": {"Points": [{"co": {"X": 1, "Y": -1}, "interpolation": 2}]}, "has_video": {"Points": [{"co": {"X": 1, "Y": -1}, "interpolation": 2}]}, "id": "A95SGPNEM2", "layer": 3, "location_x": {"Points": [{"co": {"X": 1, "Y": 0}, "interpolation": 2}]}, "location_y": {"Points": [{"co": {"X": 1, "Y": 0}, "interpolation": 2}]}, "perspective_c1_x": {"Points": [{"co": {"X": 1, "Y": -1}, "interpolation": 2}]}, "perspective_c1_y": {"Points": [{"co": {"X": 1, "Y": -1}, "interpolation": 2}]}, "perspective_c2_x": {"Points": [{"co": {"X": 1, "Y": -1}, "interpolation": 2}]}, "perspective_c2_y": {"Points": [{"co": {"X": 1, "Y": -1}, "interpolation": 2}]}, "perspective_c3_x": {"Points": [{"co": {"X": 1, "Y": -1}, "interpolation": 2}]}, "perspective_c3_y": {"Points": [{"co": {"X": 1, "Y": -1}, "interpolation": 2}]}, "perspective_c4_x": {"Points": [{"co": {"X": 1, "Y": -1}, "interpolation": 2}]}, "perspective_c4_y": {"Points": [{"co": {"X": 1, "Y": -1}, "interpolation": 2}]}, "position": 172.08000007629394, "reader": {"acodec": "", "audio_bit_rate": 0, "audio_stream_index": -1, "audio_timebase": {"den": 1, "num": 1}, "channel_layout": 4, "channels": 0, "display_ratio": {"den": 9, "num": 16}, "duration": 10.680000305175781, "file_size": "841784", "fps": {"den": 1, "num": 25}, "has_audio": false, "has_single_image": false, "has_video": true, "height": 360, "interlaced_frame": false, "path": "/home/diary/Desktop/\u041a\u043e\u043d\u0446\u0435\u043f\u0442\u044b/64. \u041f\u0440\u0438\u0447\u0438\u043d\u044b \u0431\u043e\u043b\u0435\u0437\u043d\u0435\u0439/video assets/istockphoto-1165266246-640_adpp_is.mp4", "pixel_format": 0, "pixel_ratio": {"den": 1, "num": 1}, "sample_rate": 0, "top_field_first": true, "type": "FFmpegReader", "vcodec": "h264", "video_bit_rate": 630549, "video_length": "267", "video_stream_index": 0, "video_timebase": {"den": 12800, "num": 1}, "width": 640}, "rotation": {"Points": [{"co": {"X": 1, "Y": 0}, "interpolation": 2}]}, "scale": 1, "scale_x": {"Points": [{"co": {"X": 1, "Y": 1}, "interpolation": 2}]}, "scale_y": {"Points": [{"co": {"X": 1, "Y": 1}, "interpolation": 2}]}, "shear_x": {"Points": [{"co": {"X": 1, "Y": 0}, "interpolation": 2}]}, "shear_y": {"Points": [{"co": {"X": 1, "Y": 0}, "interpolation": 2}]}, "start": 0, "time": {"Points": [{"co": {"X": 1, "Y": 1}, "interpolation": 2}]}, "volume": {"Points": [{"co": {"X": 1, "Y": 1}, "interpolation": 2}]}, "wave_color": {"alpha": {"Points": [{"co": {"X": 1, "Y": 255}, "handle_left": {"X": 0.5, "Y": 1}, "handle_right": {"X": 0.5, "Y": 0}, "handle_type": 0, "interpolation": 0}]}, "blue": {"Points": [{"co": {"X": 1, "Y": 255}, "handle_left": {"X": 0.5, "Y": 1}, "handle_right": {"X": 0.5, "Y": 0}, "handle_type": 0, "interpolation": 0}]}, "green": {"Points": [{"co": {"X": 1, "Y": 123}, "handle_left": {"X": 0.5, "Y": 1}, "handle_right": {"X": 0.5, "Y": 0}, "handle_type": 0, "interpolation": 0}]}, "red": {"Points": [{"co": {"X": 1, "Y": 0}, "handle_left": {"X": 0.5, "Y": 1}, "handle_right": {"X": 0.5, "Y": 0}, "handle_type": 0, "interpolation": 0}]}}, "waveform": false, "file_id": "TKNIYVDKGW", "title": "istockphoto-1165266246-640_adpp_is.mp4", "image": "/home/diary/.openshot_qt/thumbnail/TKNIYVDKGW.png"}, {"alpha": {"Points": [{"co": {"X": 1, "Y": 1}, "interpolation": 2}]}, "anchor": 0, "channel_filter": {"Points": [{"co": {"X": 1, "Y": -1}, "interpolation": 2}]}, "channel_mapping": {"Points": [{"co": {"X": 1, "Y": -1}, "interpolation": 2}]}, "crop_height": {"Points": [{"co": {"X": 1, "Y": -1}, "interpolation": 2}]}, "crop_width": {"Points": [{"co": {"X": 1, "Y": -1}, "interpolation": 2}]}, "crop_x": {"Points": [{"co": {"X": 1, "Y": 0}, "interpolation": 2}]}, "crop_y": {"Points": [{"co": {"X": 1, "Y": 0}, "interpolation": 2}]}, "display": 0, "duration": 15.066991806030273, "effects": [], "end": 15.066991806030273, "gravity": 4, "has_audio": {"Points": [{"co": {"X": 1, "Y": -1}, "interpolation": 2}]}, "has_video": {"Points": [{"co": {"X": 1, "Y": -1}, "interpolation": 2}]}, "id": "ZHGYC49V4E", "layer": 3, "location_x": {"Points": [{"co": {"X": 1, "Y": 0}, "interpolation": 2}]}, "location_y": {"Points": [{"co": {"X": 1, "Y": 0}, "interpolation": 2}]}, "perspective_c1_x": {"Points": [{"co": {"X": 1, "Y": -1}, "interpolation": 2}]}, "perspective_c1_y": {"Points": [{"co": {"X": 1, "Y": -1}, "interpolation": 2}]}, "perspective_c2_x": {"Points": [{"co": {"X": 1, "Y": -1}, "interpolation": 2}]}, "perspective_c2_y": {"Points": [{"co": {"X": 1, "Y": -1}, "interpolation": 2}]}, "perspective_c3_x": {"Points": [{"co": {"X": 1, "Y": -1}, "interpolation": 2}]}, "perspective_c3_y": {"Points": [{"co": {"X": 1, "Y": -1}, "interpolation": 2}]}, "perspective_c4_x": {"Points": [{"co": {"X": 1, "Y": -1}, "interpolation": 2}]}, "perspective_c4_y": {"Points": [{"co": {"X": 1, "Y": -1}, "interpolation": 2}]}, "position": 182.82, "reader": {"acodec": "", "audio_bit_rate": 0, "audio_stream_index": -1, "audio_timebase": {"den": 1, "num": 1}, "channel_layout": 4, "channels": 0, "display_ratio": {"den": 9, "num": 16}, "duration": 15.066991806030273, "file_size": "5622748", "fps": {"den": 1, "num": 30}, "has_audio": false, "has_single_image": false, "has_video": true, "height": 1080, "interlaced_frame": false, "path": "/home/diary/Desktop/\u041a\u043e\u043d\u0446\u0435\u043f\u0442\u044b/64. \u041f\u0440\u0438\u0447\u0438\u043d\u044b \u0431\u043e\u043b\u0435\u0437\u043d\u0435\u0439/video assets/Training - 30417.mp4", "pixel_format": 0, "pixel_ratio": {"den": 1, "num": 1}, "sample_rate": 0, "top_field_first": true, "type": "FFmpegReader", "vcodec": "h264", "video_bit_rate": 2985463, "video_length": "452", "video_stream_index": 0, "video_timebase": {"den": 15360, "num": 1}, "width": 1920}, "rotation": {"Points": [{"co": {"X": 1, "Y": 0}, "interpolation": 2}]}, "scale": 1, "scale_x": {"Points": [{"co": {"X": 1, "Y": 1}, "interpolation": 2}]}, "scale_y": {"Points": [{"co": {"X": 1, "Y": 1}, "interpolation": 2}]}, "shear_x": {"Points": [{"co": {"X": 1, "Y": 0}, "interpolation": 2}]}, "shear_y": {"Points": [{"co": {"X": 1, "Y": 0}, "interpolation": 2}]}, "start": 0, "time": {"Points": [{"co": {"X": 1, "Y": 1}, "interpolation": 2}]}, "volume": {"Points": [{"co": {"X": 1, "Y": 1}, "interpolation": 2}]}, "wave_color": {"alpha": {"Points": [{"co": {"X": 1, "Y": 255}, "handle_left": {"X": 0.5, "Y": 1}, "handle_right": {"X": 0.5, "Y": 0}, "handle_type": 0, "interpolation": 0}]}, "blue": {"Points": [{"co": {"X": 1, "Y": 255}, "handle_left": {"X": 0.5, "Y": 1}, "handle_right": {"X": 0.5, "Y": 0}, "handle_type": 0, "interpolation": 0}]}, "green": {"Points": [{"co": {"X": 1, "Y": 123}, "handle_left": {"X": 0.5, "Y": 1}, "handle_right": {"X": 0.5, "Y": 0}, "handle_type": 0, "interpolation": 0}]}, "red": {"Points": [{"co": {"X": 1, "Y": 0}, "handle_left": {"X": 0.5, "Y": 1}, "handle_right": {"X": 0.5, "Y": 0}, "handle_type": 0, "interpolation": 0}]}}, "waveform": false, "file_id": "HK4I9P85GF", "title": "Training - 30417.mp4", "image": "/home/diary/.openshot_qt/thumbnail/HK4I9P85GF.png"}, {"alpha": {"Points": [{"co": {"X": 1, "Y": 1}, "interpolation": 2}]}, "anchor": 0, "channel_filter": {"Points": [{"co": {"X": 1, "Y": -1}, "interpolation": 2}]}, "channel_mapping": {"Points": [{"co": {"X": 1, "Y": -1}, "interpolation": 2}]}, "crop_height": {"Points": [{"co": {"X": 1, "Y": -1}, "interpolation": 2}]}, "crop_width": {"Points": [{"co": {"X": 1, "Y": -1}, "interpolation": 2}]}, "crop_x": {"Points": [{"co": {"X": 1, "Y": 0}, "interpolation": 2}]}, "crop_y": {"Points": [{"co": {"X": 1, "Y": 0}, "interpolation": 2}]}, "display": 0, "duration": 6.760000228881836, "effects": [], "end": 6.760000228881836, "gravity": 4, "has_audio": {"Points": [{"co": {"X": 1, "Y": -1}, "interpolation": 2}]}, "has_video": {"Points": [{"co": {"X": 1, "Y": -1}, "interpolation": 2}]}, "id": "SMV5H9WKLM", "layer": 3, "location_x": {"Points": [{"co": {"X": 1, "Y": 0}, "interpolation": 2}]}, "location_y": {"Points": [{"co": {"X": 1, "Y": 0}, "interpolation": 2}]}, "perspective_c1_x": {"Points": [{"co": {"X": 1, "Y": -1}, "interpolation": 2}]}, "perspective_c1_y": {"Points": [{"co": {"X": 1, "Y": -1}, "interpolation": 2}]}, "perspective_c2_x": {"Points": [{"co": {"X": 1, "Y": -1}, "interpolation": 2}]}, "perspective_c2_y": {"Points": [{"co": {"X": 1, "Y": -1}, "interpolation": 2}]}, "perspective_c3_x": {"Points": [{"co": {"X": 1, "Y": -1}, "interpolation": 2}]}, "perspective_c3_y": {"Points": [{"co": {"X": 1, "Y": -1}, "interpolation": 2}]}, "perspective_c4_x": {"Points": [{"co": {"X": 1, "Y": -1}, "interpolation": 2}]}, "perspective_c4_y": {"Points": [{"co": {"X": 1, "Y": -1}, "interpolation": 2}]}, "position": 197.9475, "reader": {"acodec": "", "audio_bit_rate": 0, "audio_stream_index": -1, "audio_timebase": {"den": 1, "num": 1}, "channel_layout": 4, "channels": 0, "display_ratio": {"den": 84, "num": 149}, "duration": 6.760000228881836, "file_size": "286173", "fps": {"den": 1, "num": 25}, "has_audio": false, "has_single_image": false, "has_video": true, "height": 336, "interlaced_frame": false, "path": "/home/diary/Desktop/\u041a\u043e\u043d\u0446\u0435\u043f\u0442\u044b/64. \u041f\u0440\u0438\u0447\u0438\u043d\u044b \u0431\u043e\u043b\u0435\u0437\u043d\u0435\u0439/video assets/1036992635-preview.mp4", "pixel_format": 0, "pixel_ratio": {"den": 1, "num": 1}, "sample_rate": 0, "top_field_first": true, "type": "FFmpegReader", "vcodec": "h264", "video_bit_rate": 338666, "video_length": "169", "video_stream_index": 0, "video_timebase": {"den": 12800, "num": 1}, "width": 596}, "rotation": {"Points": [{"co": {"X": 1, "Y": 0}, "interpolation": 2}]}, "scale": 1, "scale_x": {"Points": [{"co": {"X": 1, "Y": 1}, "interpolation": 2}]}, "scale_y": {"Points": [{"co": {"X": 1, "Y": 1}, "interpolation": 2}]}, "shear_x": {"Points": [{"co": {"X": 1, "Y": 0}, "interpolation": 2}]}, "shear_y": {"Points": [{"co": {"X": 1, "Y": 0}, "interpolation": 2}]}, "start": 0, "time": {"Points": [{"co": {"X": 1, "Y": 1}, "interpolation": 2}]}, "volume": {"Points": [{"co": {"X": 1, "Y": 1}, "interpolation": 2}]}, "wave_color": {"alpha": {"Points": [{"co": {"X": 1, "Y": 255}, "handle_left": {"X": 0.5, "Y": 1}, "handle_right": {"X": 0.5, "Y": 0}, "handle_type": 0, "interpolation": 0}]}, "blue": {"Points": [{"co": {"X": 1, "Y": 255}, "handle_left": {"X": 0.5, "Y": 1}, "handle_right": {"X": 0.5, "Y": 0}, "handle_type": 0, "interpolation": 0}]}, "green": {"Points": [{"co": {"X": 1, "Y": 123}, "handle_left": {"X": 0.5, "Y": 1}, "handle_right": {"X": 0.5, "Y": 0}, "handle_type": 0, "interpolation": 0}]}, "red": {"Points": [{"co": {"X": 1, "Y": 0}, "handle_left": {"X": 0.5, "Y": 1}, "handle_right": {"X": 0.5, "Y": 0}, "handle_type": 0, "interpolation": 0}]}}, "waveform": false, "file_id": "7RHPWGPYIR", "title": "1036992635-preview.mp4", "image": "/home/diary/.openshot_qt/thumbnail/7RHPWGPYIR.png"}, {"alpha": {"Points": [{"co": {"X": 1, "Y": 1}, "interpolation": 2}]}, "anchor": 0, "channel_filter": {"Points": [{"co": {"X": 1, "Y": -1}, "interpolation": 2}]}, "channel_mapping": {"Points": [{"co": {"X": 1, "Y": -1}, "interpolation": 2}]}, "crop_height": {"Points": [{"co": {"X": 1, "Y": -1}, "interpolation": 2}]}, "crop_width": {"Points": [{"co": {"X": 1, "Y": -1}, "interpolation": 2}]}, "crop_x": {"Points": [{"co": {"X": 1, "Y": 0}, "interpolation": 2}]}, "crop_y": {"Points": [{"co": {"X": 1, "Y": 0}, "interpolation": 2}]}, "display": 0, "duration": 12.479999542236328, "effects": [], "end": 12.479999542236328, "gravity": 4, "has_audio": {"Points": [{"co": {"X": 1, "Y": -1}, "interpolation": 2}]}, "has_video": {"Points": [{"co": {"X": 1, "Y": -1}, "interpolation": 2}]}, "id": "YV4VIGQETQ", "layer": 2, "location_x": {"Points": [{"co": {"X": 1, "Y": 0}, "interpolation": 2}]}, "location_y": {"Points": [{"co": {"X": 1, "Y": 0}, "interpolation": 2}]}, "perspective_c1_x": {"Points": [{"co": {"X": 1, "Y": -1}, "interpolation": 2}]}, "perspective_c1_y": {"Points": [{"co": {"X": 1, "Y": -1}, "interpolation": 2}]}, "perspective_c2_x": {"Points": [{"co": {"X": 1, "Y": -1}, "interpolation": 2}]}, "perspective_c2_y": {"Points": [{"co": {"X": 1, "Y": -1}, "interpolation": 2}]}, "perspective_c3_x": {"Points": [{"co": {"X": 1, "Y": -1}, "interpolation": 2}]}, "perspective_c3_y": {"Points": [{"co": {"X": 1, "Y": -1}, "interpolation": 2}]}, "perspective_c4_x": {"Points": [{"co": {"X": 1, "Y": -1}, "interpolation": 2}]}, "perspective_c4_y": {"Points": [{"co": {"X": 1, "Y": -1}, "interpolation": 2}]}, "position": 185.46656249999998, "reader": {"acodec": "", "audio_bit_rate": 0, "audio_stream_index": -1, "audio_timebase": {"den": 1, "num": 1}, "channel_layout": 4, "channels": 0, "display_ratio": {"den": 84, "num": 149}, "duration": 12.479999542236328, "file_size": "1377383", "fps": {"den": 1, "num": 25}, "has_audio": false, "has_single_image": false, "has_video": true, "height": 336, "interlaced_frame": false, "path": "/home/diary/Desktop/\u041a\u043e\u043d\u0446\u0435\u043f\u0442\u044b/64. \u041f\u0440\u0438\u0447\u0438\u043d\u044b \u0431\u043e\u043b\u0435\u0437\u043d\u0435\u0439/video assets/1035271574-preview.mp4", "pixel_format": 0, "pixel_ratio": {"den": 1, "num": 1}, "sample_rate": 0, "top_field_first": true, "type": "FFmpegReader", "vcodec": "h264", "video_bit_rate": 882937, "video_length": "312", "video_stream_index": 0, "video_timebase": {"den": 12800, "num": 1}, "width": 596}, "rotation": {"Points": [{"co": {"X": 1, "Y": 0}, "interpolation": 2}]}, "scale": 1, "scale_x": {"Points": [{"co": {"X": 1, "Y": 1}, "interpolation": 2}]}, "scale_y": {"Points": [{"co": {"X": 1, "Y": 1}, "interpolation": 2}]}, "shear_x": {"Points": [{"co": {"X": 1, "Y": 0}, "interpolation": 2}]}, "shear_y": {"Points": [{"co": {"X": 1, "Y": 0}, "interpolation": 2}]}, "start": 0, "time": {"Points": [{"co": {"X": 1, "Y": 1}, "interpolation": 2}]}, "volume": {"Points": [{"co": {"X": 1, "Y": 1}, "interpolation": 2}]}, "wave_color": {"alpha": {"Points": [{"co": {"X": 1, "Y": 255}, "handle_left": {"X": 0.5, "Y": 1}, "handle_right": {"X": 0.5, "Y": 0}, "handle_type": 0, "interpolation": 0}]}, "blue": {"Points": [{"co": {"X": 1, "Y": 255}, "handle_left": {"X": 0.5, "Y": 1}, "handle_right": {"X": 0.5, "Y": 0}, "handle_type": 0, "interpolation": 0}]}, "green": {"Points": [{"co": {"X": 1, "Y": 123}, "handle_left": {"X": 0.5, "Y": 1}, "handle_right": {"X": 0.5, "Y": 0}, "handle_type": 0, "interpolation": 0}]}, "red": {"Points": [{"co": {"X": 1, "Y": 0}, "handle_left": {"X": 0.5, "Y": 1}, "handle_right": {"X": 0.5, "Y": 0}, "handle_type": 0, "interpolation": 0}]}}, "waveform": false, "file_id": "D9LWSONSN7", "title": "1035271574-preview.mp4", "image": "/home/diary/.openshot_qt/thumbnail/D9LWSONSN7.png"}, {"alpha": {"Points": [{"co": {"X": 1, "Y": 1}, "interpolation": 2}]}, "anchor": 0, "channel_filter": {"Points": [{"co": {"X": 1, "Y": -1}, "interpolation": 2}]}, "channel_mapping": {"Points": [{"co": {"X": 1, "Y": -1}, "interpolation": 2}]}, "crop_height": {"Points": [{"co": {"X": 1, "Y": -1}, "interpolation": 2}]}, "crop_width": {"Points": [{"co": {"X": 1, "Y": -1}, "interpolation": 2}]}, "crop_x": {"Points": [{"co": {"X": 1, "Y": 0}, "interpolation": 2}]}, "crop_y": {"Points": [{"co": {"X": 1, "Y": 0}, "interpolation": 2}]}, "display": 0, "duration": 9.876999855041504, "effects": [], "end": 9.876999855041504, "gravity": 4, "has_audio": {"Points": [{"co": {"X": 1, "Y": -1}, "interpolation": 2}]}, "has_video": {"Points": [{"co": {"X": 1, "Y": -1}, "interpolation": 2}]}, "id": "PI0T3VQEKQ", "layer": 3, "location_x": {"Points": [{"co": {"X": 1, "Y": 0}, "interpolation": 2}]}, "location_y": {"Points": [{"co": {"X": 1, "Y": 0}, "interpolation": 2}]}, "perspective_c1_x": {"Points": [{"co": {"X": 1, "Y": -1}, "interpolation": 2}]}, "perspective_c1_y": {"Points": [{"co": {"X": 1, "Y": -1}, "interpolation": 2}]}, "perspective_c2_x": {"Points": [{"co": {"X": 1, "Y": -1}, "interpolation": 2}]}, "perspective_c2_y": {"Points": [{"co": {"X": 1, "Y": -1}, "interpolation": 2}]}, "perspective_c3_x": {"Points": [{"co": {"X": 1, "Y": -1}, "interpolation": 2}]}, "perspective_c3_y": {"Points": [{"co": {"X": 1, "Y": -1}, "interpolation": 2}]}, "perspective_c4_x": {"Points": [{"co": {"X": 1, "Y": -1}, "interpolation": 2}]}, "perspective_c4_y": {"Points": [{"co": {"X": 1, "Y": -1}, "interpolation": 2}]}, "position": 262.3475, "reader": {"acodec": "", "audio_bit_rate": 0, "audio_stream_index": -1, "audio_timebase": {"den": 1, "num": 1}, "channel_layout": 4, "channels": 0, "display_ratio": {"den": 84, "num": 149}, "duration": 9.876999855041504, "file_size": "1089677", "fps": {"den": 1001, "num": 30000}, "has_audio": false, "has_single_image": false, "has_video": true, "height": 336, "interlaced_frame": false, "path": "/home/diary/Desktop/\u041a\u043e\u043d\u0446\u0435\u043f\u0442\u044b/64. \u041f\u0440\u0438\u0447\u0438\u043d\u044b \u0431\u043e\u043b\u0435\u0437\u043d\u0435\u0439/video assets/1035604484-preview.mp4", "pixel_format": 0, "pixel_ratio": {"den": 1, "num": 1}, "sample_rate": 0, "top_field_first": true, "type": "FFmpegReader", "vcodec": "h264", "video_bit_rate": 882597, "video_length": "296", "video_stream_index": 0, "video_timebase": {"den": 30000, "num": 1}, "width": 596}, "rotation": {"Points": [{"co": {"X": 1, "Y": 0}, "interpolation": 2}]}, "scale": 1, "scale_x": {"Points": [{"co": {"X": 1, "Y": 1}, "interpolation": 2}]}, "scale_y": {"Points": [{"co": {"X": 1, "Y": 1}, "interpolation": 2}]}, "shear_x": {"Points": [{"co": {"X": 1, "Y": 0}, "interpolation": 2}]}, "shear_y": {"Points": [{"co": {"X": 1, "Y": 0}, "interpolation": 2}]}, "start": 0, "time": {"Points": [{"co": {"X": 1, "Y": 1}, "interpolation": 2}]}, "volume": {"Points": [{"co": {"X": 1, "Y": 1}, "interpolation": 2}]}, "wave_color": {"alpha": {"Points": [{"co": {"X": 1, "Y": 255}, "handle_left": {"X": 0.5, "Y": 1}, "handle_right": {"X": 0.5, "Y": 0}, "handle_type": 0, "interpolation": 0}]}, "blue": {"Points": [{"co": {"X": 1, "Y": 255}, "handle_left": {"X": 0.5, "Y": 1}, "handle_right": {"X": 0.5, "Y": 0}, "handle_type": 0, "interpolation": 0}]}, "green": {"Points": [{"co": {"X": 1, "Y": 123}, "handle_left": {"X": 0.5, "Y": 1}, "handle_right": {"X": 0.5, "Y": 0}, "handle_type": 0, "interpolation": 0}]}, "red": {"Points": [{"co": {"X": 1, "Y": 0}, "handle_left": {"X": 0.5, "Y": 1}, "handle_right": {"X": 0.5, "Y": 0}, "handle_type": 0, "interpolation": 0}]}}, "waveform": false, "file_id": "FC9NLBSBPT", "title": "1035604484-preview.mp4", "image": "/home/diary/.openshot_qt/thumbnail/FC9NLBSBPT.png"}, {"alpha": {"Points": [{"co": {"X": 1, "Y": 1}, "interpolation": 2}]}, "anchor": 0, "channel_filter": {"Points": [{"co": {"X": 1, "Y": -1}, "interpolation": 2}]}, "channel_mapping": {"Points": [{"co": {"X": 1, "Y": -1}, "interpolation": 2}]}, "crop_height": {"Points": [{"co": {"X": 1, "Y": -1}, "interpolation": 2}]}, "crop_width": {"Points": [{"co": {"X": 1, "Y": -1}, "interpolation": 2}]}, "crop_x": {"Points": [{"co": {"X": 1, "Y": 0}, "interpolation": 2}]}, "crop_y": {"Points": [{"co": {"X": 1, "Y": 0}, "interpolation": 2}]}, "display": 0, "duration": 11.345000267028809, "effects": [], "end": 11.345000267028809, "gravity": 4, "has_audio": {"Points": [{"co": {"X": 1, "Y": -1}, "interpolation": 2}]}, "has_video": {"Points": [{"co": {"X": 1, "Y": -1}, "interpolation": 2}]}, "id": "7BA7UKZEQV", "layer": 3, "location_x": {"Points": [{"co": {"X": 1, "Y": 0}, "interpolation": 2}]}, "location_y": {"Points": [{"co": {"X": 1, "Y": 0}, "interpolation": 2}]}, "perspective_c1_x": {"Points": [{"co": {"X": 1, "Y": -1}, "interpolation": 2}]}, "perspective_c1_y": {"Points": [{"co": {"X": 1, "Y": -1}, "interpolation": 2}]}, "perspective_c2_x": {"Points": [{"co": {"X": 1, "Y": -1}, "interpolation": 2}]}, "perspective_c2_y": {"Points": [{"co": {"X": 1, "Y": -1}, "interpolation": 2}]}, "perspective_c3_x": {"Points": [{"co": {"X": 1, "Y": -1}, "interpolation": 2}]}, "perspective_c3_y": {"Points": [{"co": {"X": 1, "Y": -1}, "interpolation": 2}]}, "perspective_c4_x": {"Points": [{"co": {"X": 1, "Y": -1}, "interpolation": 2}]}, "perspective_c4_y": {"Points": [{"co": {"X": 1, "Y": -1}, "interpolation": 2}]}, "position": 204.766875, "reader": {"acodec": "", "audio_bit_rate": 0, "audio_stream_index": -1, "audio_timebase": {"den": 1, "num": 1}, "channel_layout": 4, "channels": 0, "display_ratio": {"den": 84, "num": 149}, "duration": 11.345000267028809, "file_size": "585096", "fps": {"den": 1001, "num": 30000}, "has_audio": false, "has_single_image": false, "has_video": true, "height": 336, "interlaced_frame": false, "path": "/home/diary/Desktop/\u041a\u043e\u043d\u0446\u0435\u043f\u0442\u044b/64. \u041f\u0440\u0438\u0447\u0438\u043d\u044b \u0431\u043e\u043b\u0435\u0437\u043d\u0435\u0439/video assets/1054197290-preview.mp4", "pixel_format": 0, "pixel_ratio": {"den": 1, "num": 1}, "sample_rate": 0, "top_field_first": true, "type": "FFmpegReader", "vcodec": "h264", "video_bit_rate": 412584, "video_length": "340", "video_stream_index": 0, "video_timebase": {"den": 30000, "num": 1}, "width": 596}, "rotation": {"Points": [{"co": {"X": 1, "Y": 0}, "interpolation": 2}]}, "scale": 1, "scale_x": {"Points": [{"co": {"X": 1, "Y": 1}, "interpolation": 2}]}, "scale_y": {"Points": [{"co": {"X": 1, "Y": 1}, "interpolation": 2}]}, "shear_x": {"Points": [{"co": {"X": 1, "Y": 0}, "interpolation": 2}]}, "shear_y": {"Points": [{"co": {"X": 1, "Y": 0}, "interpolation": 2}]}, "start": 0, "time": {"Points": [{"co": {"X": 1, "Y": 1}, "interpolation": 2}]}, "volume": {"Points": [{"co": {"X": 1, "Y": 1}, "interpolation": 2}]}, "wave_color": {"alpha": {"Points": [{"co": {"X": 1, "Y": 255}, "handle_left": {"X": 0.5, "Y": 1}, "handle_right": {"X": 0.5, "Y": 0}, "handle_type": 0, "interpolation": 0}]}, "blue": {"Points": [{"co": {"X": 1, "Y": 255}, "handle_left": {"X": 0.5, "Y": 1}, "handle_right": {"X": 0.5, "Y": 0}, "handle_type": 0, "interpolation": 0}]}, "green": {"Points": [{"co": {"X": 1, "Y": 123}, "handle_left": {"X": 0.5, "Y": 1}, "handle_right": {"X": 0.5, "Y": 0}, "handle_type": 0, "interpolation": 0}]}, "red": {"Points": [{"co": {"X": 1, "Y": 0}, "handle_left": {"X": 0.5, "Y": 1}, "handle_right": {"X": 0.5, "Y": 0}, "handle_type": 0, "interpolation": 0}]}}, "waveform": false, "file_id": "NSJHHWMT9I", "title": "1054197290-preview.mp4", "image": "/home/diary/.openshot_qt/thumbnail/NSJHHWMT9I.png"}, {"alpha": {"Points": [{"co": {"X": 1, "Y": 1}, "interpolation": 2}]}, "anchor": 0, "channel_filter": {"Points": [{"co": {"X": 1, "Y": -1}, "interpolation": 2}]}, "channel_mapping": {"Points": [{"co": {"X": 1, "Y": -1}, "interpolation": 2}]}, "crop_height": {"Points": [{"co": {"X": 1, "Y": -1}, "interpolation": 2}]}, "crop_width": {"Points": [{"co": {"X": 1, "Y": -1}, "interpolation": 2}]}, "crop_x": {"Points": [{"co": {"X": 1, "Y": 0}, "interpolation": 2}]}, "crop_y": {"Points": [{"co": {"X": 1, "Y": 0}, "interpolation": 2}]}, "display": 0, "duration": 36.5369987487793, "effects": [], "end": 36.5369987487793, "gravity": 4, "has_audio": {"Points": [{"co": {"X": 1, "Y": -1}, "interpolation": 2}]}, "has_video": {"Points": [{"co": {"X": 1, "Y": -1}, "interpolation": 2}]}, "id": "DQZBHY174R", "layer": 3, "location_x": {"Points": [{"co": {"X": 1, "Y": 0}, "interpolation": 2}]}, "location_y": {"Points": [{"co": {"X": 1, "Y": 0}, "interpolation": 2}]}, "perspective_c1_x": {"Points": [{"co": {"X": 1, "Y": -1}, "interpolation": 2}]}, "perspective_c1_y": {"Points": [{"co": {"X": 1, "Y": -1}, "interpolation": 2}]}, "perspective_c2_x": {"Points": [{"co": {"X": 1, "Y": -1}, "interpolation": 2}]}, "perspective_c2_y": {"Points": [{"co": {"X": 1, "Y": -1}, "interpolation": 2}]}, "perspective_c3_x": {"Points": [{"co": {"X": 1, "Y": -1}, "interpolation": 2}]}, "perspective_c3_y": {"Points": [{"co": {"X": 1, "Y": -1}, "interpolation": 2}]}, "perspective_c4_x": {"Points": [{"co": {"X": 1, "Y": -1}, "interpolation": 2}]}, "perspective_c4_y": {"Points": [{"co": {"X": 1, "Y": -1}, "interpolation": 2}]}, "position": 225.8119923019409, "reader": {"acodec": "", "audio_bit_rate": 0, "audio_stream_index": -1, "audio_timebase": {"den": 1, "num": 1}, "channel_layout": 4, "channels": 0, "display_ratio": {"den": 84, "num": 149}, "duration": 36.5369987487793, "file_size": "4196192", "fps": {"den": 1001, "num": 30000}, "has_audio": false, "has_single_image": false, "has_video": true, "height": 336, "interlaced_frame": false, "path": "/home/diary/Desktop/\u041a\u043e\u043d\u0446\u0435\u043f\u0442\u044b/64. \u041f\u0440\u0438\u0447\u0438\u043d\u044b \u0431\u043e\u043b\u0435\u0437\u043d\u0435\u0439/video assets/33052981-preview.mp4", "pixel_format": 0, "pixel_ratio": {"den": 1, "num": 1}, "sample_rate": 0, "top_field_first": true, "type": "FFmpegReader", "vcodec": "h264", "video_bit_rate": 918781, "video_length": "1095", "video_stream_index": 0, "video_timebase": {"den": 30000, "num": 1}, "width": 596}, "rotation": {"Points": [{"co": {"X": 1, "Y": 0}, "interpolation": 2}]}, "scale": 1, "scale_x": {"Points": [{"co": {"X": 1, "Y": 1}, "interpolation": 2}]}, "scale_y": {"Points": [{"co": {"X": 1, "Y": 1}, "interpolation": 2}]}, "shear_x": {"Points": [{"co": {"X": 1, "Y": 0}, "interpolation": 2}]}, "shear_y": {"Points": [{"co": {"X": 1, "Y": 0}, "interpolation": 2}]}, "start": 0, "time": {"Points": [{"co": {"X": 1, "Y": 1}, "interpolation": 2}]}, "volume": {"Points": [{"co": {"X": 1, "Y": 1}, "interpolation": 2}]}, "wave_color": {"alpha": {"Points": [{"co": {"X": 1, "Y": 255}, "handle_left": {"X": 0.5, "Y": 1}, "handle_right": {"X": 0.5, "Y": 0}, "handle_type": 0, "interpolation": 0}]}, "blue": {"Points": [{"co": {"X": 1, "Y": 255}, "handle_left": {"X": 0.5, "Y": 1}, "handle_right": {"X": 0.5, "Y": 0}, "handle_type": 0, "interpolation": 0}]}, "green": {"Points": [{"co": {"X": 1, "Y": 123}, "handle_left": {"X": 0.5, "Y": 1}, "handle_right": {"X": 0.5, "Y": 0}, "handle_type": 0, "interpolation": 0}]}, "red": {"Points": [{"co": {"X": 1, "Y": 0}, "handle_left": {"X": 0.5, "Y": 1}, "handle_right": {"X": 0.5, "Y": 0}, "handle_type": 0, "interpolation": 0}]}}, "waveform": false, "file_id": "EWG01CHQ4Z", "title": "33052981-preview.mp4", "image": "/home/diary/.openshot_qt/thumbnail/EWG01CHQ4Z.png"}, {"alpha": {"Points": [{"co": {"X": 1, "Y": 1}, "interpolation": 2}]}, "anchor": 0, "channel_filter": {"Points": [{"co": {"X": 1, "Y": -1}, "interpolation": 2}]}, "channel_mapping": {"Points": [{"co": {"X": 1, "Y": -1}, "interpolation": 2}]}, "crop_height": {"Points": [{"co": {"X": 1, "Y": -1}, "interpolation": 2}]}, "crop_width": {"Points": [{"co": {"X": 1, "Y": -1}, "interpolation": 2}]}, "crop_x": {"Points": [{"co": {"X": 1, "Y": 0}, "interpolation": 2}]}, "crop_y": {"Points": [{"co": {"X": 1, "Y": 0}, "interpolation": 2}]}, "display": 0, "duration": 25.458999633789062, "effects": [], "end": 25.458999633789062, "gravity": 4, "has_audio": {"Points": [{"co": {"X": 1, "Y": -1}, "interpolation": 2}]}, "has_video": {"Points": [{"co": {"X": 1, "Y": -1}, "interpolation": 2}]}, "id": "X7NXO3B9RG", "layer": 2, "location_x": {"Points": [{"co": {"X": 1, "Y": 0}, "interpolation": 2}]}, "location_y": {"Points": [{"co": {"X": 1, "Y": 0}, "interpolation": 2}]}, "perspective_c1_x": {"Points": [{"co": {"X": 1, "Y": -1}, "interpolation": 2}]}, "perspective_c1_y": {"Points": [{"co": {"X": 1, "Y": -1}, "interpolation": 2}]}, "perspective_c2_x": {"Points": [{"co": {"X": 1, "Y": -1}, "interpolation": 2}]}, "perspective_c2_y": {"Points": [{"co": {"X": 1, "Y": -1}, "interpolation": 2}]}, "perspective_c3_x": {"Points": [{"co": {"X": 1, "Y": -1}, "interpolation": 2}]}, "perspective_c3_y": {"Points": [{"co": {"X": 1, "Y": -1}, "interpolation": 2}]}, "perspective_c4_x": {"Points": [{"co": {"X": 1, "Y": -1}, "interpolation": 2}]}, "perspective_c4_y": {"Points": [{"co": {"X": 1, "Y": -1}, "interpolation": 2}]}, "position": 225.8119923019409, "reader": {"acodec": "", "audio_bit_rate": 0, "audio_stream_index": -1, "audio_timebase": {"den": 1, "num": 1}, "channel_layout": 4, "channels": 0, "display_ratio": {"den": 84, "num": 149}, "duration": 25.458999633789062, "file_size": "3043969", "fps": {"den": 1001, "num": 30000}, "has_audio": false, "has_single_image": false, "has_video": true, "height": 336, "interlaced_frame": false, "path": "/home/diary/Desktop/\u041a\u043e\u043d\u0446\u0435\u043f\u0442\u044b/64. \u041f\u0440\u0438\u0447\u0438\u043d\u044b \u0431\u043e\u043b\u0435\u0437\u043d\u0435\u0439/video assets/1007373979-preview.mp4", "pixel_format": 0, "pixel_ratio": {"den": 1, "num": 1}, "sample_rate": 0, "top_field_first": true, "type": "FFmpegReader", "vcodec": "h264", "video_bit_rate": 956508, "video_length": "763", "video_stream_index": 0, "video_timebase": {"den": 30000, "num": 1}, "width": 596}, "rotation": {"Points": [{"co": {"X": 1, "Y": 0}, "interpolation": 2}]}, "scale": 1, "scale_x": {"Points": [{"co": {"X": 1, "Y": 1}, "interpolation": 2}]}, "scale_y": {"Points": [{"co": {"X": 1, "Y": 1}, "interpolation": 2}]}, "shear_x": {"Points": [{"co": {"X": 1, "Y": 0}, "interpolation": 2}]}, "shear_y": {"Points": [{"co": {"X": 1, "Y": 0}, "interpolation": 2}]}, "start": 0, "time": {"Points": [{"co": {"X": 1, "Y": 1}, "interpolation": 2}]}, "volume": {"Points": [{"co": {"X": 1, "Y": 1}, "interpolation": 2}]}, "wave_color": {"alpha": {"Points": [{"co": {"X": 1, "Y": 255}, "handle_left": {"X": 0.5, "Y": 1}, "handle_right": {"X": 0.5, "Y": 0}, "handle_type": 0, "interpolation": 0}]}, "blue": {"Points": [{"co": {"X": 1, "Y": 255}, "handle_left": {"X": 0.5, "Y": 1}, "handle_right": {"X": 0.5, "Y": 0}, "handle_type": 0, "interpolation": 0}]}, "green": {"Points": [{"co": {"X": 1, "Y": 123}, "handle_left": {"X": 0.5, "Y": 1}, "handle_right": {"X": 0.5, "Y": 0}, "handle_type": 0, "interpolation": 0}]}, "red": {"Points": [{"co": {"X": 1, "Y": 0}, "handle_left": {"X": 0.5, "Y": 1}, "handle_right": {"X": 0.5, "Y": 0}, "handle_type": 0, "interpolation": 0}]}}, "waveform": false, "file_id": "SQO0PHY2HX", "title": "1007373979-preview.mp4", "image": "/home/diary/.openshot_qt/thumbnail/SQO0PHY2HX.png"}, {"alpha": {"Points": [{"co": {"X": 1, "Y": 1}, "interpolation": 2}]}, "anchor": 0, "channel_filter": {"Points": [{"co": {"X": 1, "Y": -1}, "interpolation": 2}]}, "channel_mapping": {"Points": [{"co": {"X": 1, "Y": -1}, "interpolation": 2}]}, "crop_height": {"Points": [{"co": {"X": 1, "Y": -1}, "interpolation": 2}]}, "crop_width": {"Points": [{"co": {"X": 1, "Y": -1}, "interpolation": 2}]}, "crop_x": {"Points": [{"co": {"X": 1, "Y": 0}, "interpolation": 2}]}, "crop_y": {"Points": [{"co": {"X": 1, "Y": 0}, "interpolation": 2}]}, "display": 0, "duration": 9.920000076293945, "effects": [], "end": 9.920000076293945, "gravity": 4, "has_audio": {"Points": [{"co": {"X": 1, "Y": -1}, "interpolation": 2}]}, "has_video": {"Points": [{"co": {"X": 1, "Y": -1}, "interpolation": 2}]}, "id": "6E7JZ7ZMGT", "layer": 3, "location_x": {"Points": [{"co": {"X": 1, "Y": 0}, "interpolation": 2}]}, "location_y": {"Points": [{"co": {"X": 1, "Y": 0}, "interpolation": 2}]}, "perspective_c1_x": {"Points": [{"co": {"X": 1, "Y": -1}, "interpolation": 2}]}, "perspective_c1_y": {"Points": [{"co": {"X": 1, "Y": -1}, "interpolation": 2}]}, "perspective_c2_x": {"Points": [{"co": {"X": 1, "Y": -1}, "interpolation": 2}]}, "perspective_c2_y": {"Points": [{"co": {"X": 1, "Y": -1}, "interpolation": 2}]}, "perspective_c3_x": {"Points": [{"co": {"X": 1, "Y": -1}, "interpolation": 2}]}, "perspective_c3_y": {"Points": [{"co": {"X": 1, "Y": -1}, "interpolation": 2}]}, "perspective_c4_x": {"Points": [{"co": {"X": 1, "Y": -1}, "interpolation": 2}]}, "perspective_c4_y": {"Points": [{"co": {"X": 1, "Y": -1}, "interpolation": 2}]}, "position": 282.88, "reader": {"acodec": "", "audio_bit_rate": 0, "audio_stream_index": -1, "audio_timebase": {"den": 1, "num": 1}, "channel_layout": 4, "channels": 0, "display_ratio": {"den": 84, "num": 149}, "duration": 9.920000076293945, "file_size": "1198046", "fps": {"den": 1, "num": 25}, "has_audio": false, "has_single_image": false, "has_video": true, "height": 336, "interlaced_frame": false, "path": "/home/diary/Desktop/\u041a\u043e\u043d\u0446\u0435\u043f\u0442\u044b/64. \u041f\u0440\u0438\u0447\u0438\u043d\u044b \u0431\u043e\u043b\u0435\u0437\u043d\u0435\u0439/video assets/1016309740-preview.mp4", "pixel_format": 0, "pixel_ratio": {"den": 1, "num": 1}, "sample_rate": 0, "top_field_first": true, "type": "FFmpegReader", "vcodec": "h264", "video_bit_rate": 966166, "video_length": "248", "video_stream_index": 0, "video_timebase": {"den": 12800, "num": 1}, "width": 596}, "rotation": {"Points": [{"co": {"X": 1, "Y": 0}, "interpolation": 2}]}, "scale": 1, "scale_x": {"Points": [{"co": {"X": 1, "Y": 1}, "interpolation": 2}]}, "scale_y": {"Points": [{"co": {"X": 1, "Y": 1}, "interpolation": 2}]}, "shear_x": {"Points": [{"co": {"X": 1, "Y": 0}, "interpolation": 2}]}, "shear_y": {"Points": [{"co": {"X": 1, "Y": 0}, "interpolation": 2}]}, "start": 0, "time": {"Points": [{"co": {"X": 1, "Y": 1}, "interpolation": 2}]}, "volume": {"Points": [{"co": {"X": 1, "Y": 1}, "interpolation": 2}]}, "wave_color": {"alpha": {"Points": [{"co": {"X": 1, "Y": 255}, "handle_left": {"X": 0.5, "Y": 1}, "handle_right": {"X": 0.5, "Y": 0}, "handle_type": 0, "interpolation": 0}]}, "blue": {"Points": [{"co": {"X": 1, "Y": 255}, "handle_left": {"X": 0.5, "Y": 1}, "handle_right": {"X": 0.5, "Y": 0}, "handle_type": 0, "interpolation": 0}]}, "green": {"Points": [{"co": {"X": 1, "Y": 123}, "handle_left": {"X": 0.5, "Y": 1}, "handle_right": {"X": 0.5, "Y": 0}, "handle_type": 0, "interpolation": 0}]}, "red": {"Points": [{"co": {"X": 1, "Y": 0}, "handle_left": {"X": 0.5, "Y": 1}, "handle_right": {"X": 0.5, "Y": 0}, "handle_type": 0, "interpolation": 0}]}}, "waveform": false, "file_id": "8T4SK39XZY", "title": "1016309740-preview.mp4", "image": "/home/diary/.openshot_qt/thumbnail/8T4SK39XZY.png"}, {"alpha": {"Points": [{"co": {"X": 1, "Y": 1}, "interpolation": 2}]}, "anchor": 0, "channel_filter": {"Points": [{"co": {"X": 1, "Y": -1}, "interpolation": 2}]}, "channel_mapping": {"Points": [{"co": {"X": 1, "Y": -1}, "interpolation": 2}]}, "crop_height": {"Points": [{"co": {"X": 1, "Y": -1}, "interpolation": 2}]}, "crop_width": {"Points": [{"co": {"X": 1, "Y": -1}, "interpolation": 2}]}, "crop_x": {"Points": [{"co": {"X": 1, "Y": 0}, "interpolation": 2}]}, "crop_y": {"Points": [{"co": {"X": 1, "Y": 0}, "interpolation": 2}]}, "display": 0, "duration": 46.0, "effects": [], "end": 46, "gravity": 4, "has_audio": {"Points": [{"co": {"X": 1, "Y": -1}, "interpolation": 2}]}, "has_video": {"Points": [{"co": {"X": 1, "Y": -1}, "interpolation": 2}]}, "id": "TGDE0HH714", "layer": 3, "location_x": {"Points": [{"co": {"X": 1, "Y": 0}, "interpolation": 2}]}, "location_y": {"Points": [{"co": {"X": 1, "Y": 0}, "interpolation": 2}]}, "perspective_c1_x": {"Points": [{"co": {"X": 1, "Y": -1}, "interpolation": 2}]}, "perspective_c1_y": {"Points": [{"co": {"X": 1, "Y": -1}, "interpolation": 2}]}, "perspective_c2_x": {"Points": [{"co": {"X": 1, "Y": -1}, "interpolation": 2}]}, "perspective_c2_y": {"Points": [{"co": {"X": 1, "Y": -1}, "interpolation": 2}]}, "perspective_c3_x": {"Points": [{"co": {"X": 1, "Y": -1}, "interpolation": 2}]}, "perspective_c3_y": {"Points": [{"co": {"X": 1, "Y": -1}, "interpolation": 2}]}, "perspective_c4_x": {"Points": [{"co": {"X": 1, "Y": -1}, "interpolation": 2}]}, "perspective_c4_y": {"Points": [{"co": {"X": 1, "Y": -1}, "interpolation": 2}]}, "position": 295.2, "reader": {"acodec": "", "audio_bit_rate": 0, "audio_stream_index": -1, "audio_timebase": {"den": 1, "num": 1}, "channel_layout": 4, "channels": 0, "display_ratio": {"den": 84, "num": 149}, "duration": 46.0, "file_size": "4877662", "fps": {"den": 1, "num": 25}, "has_audio": false, "has_single_image": false, "has_video": true, "height": 336, "interlaced_frame": false, "path": "/home/diary/Desktop/\u041a\u043e\u043d\u0446\u0435\u043f\u0442\u044b/64. \u041f\u0440\u0438\u0447\u0438\u043d\u044b \u0431\u043e\u043b\u0435\u0437\u043d\u0435\u0439/video assets/23705650-preview.mp4", "pixel_format": 0, "pixel_ratio": {"den": 1, "num": 1}, "sample_rate": 0, "top_field_first": true, "type": "FFmpegReader", "vcodec": "h264", "video_bit_rate": 848289, "video_length": "1150", "video_stream_index": 0, "video_timebase": {"den": 12800, "num": 1}, "width": 596}, "rotation": {"Points": [{"co": {"X": 1, "Y": 0}, "interpolation": 2}]}, "scale": 1, "scale_x": {"Points": [{"co": {"X": 1, "Y": 1}, "interpolation": 2}]}, "scale_y": {"Points": [{"co": {"X": 1, "Y": 1}, "interpolation": 2}]}, "shear_x": {"Points": [{"co": {"X": 1, "Y": 0}, "interpolation": 2}]}, "shear_y": {"Points": [{"co": {"X": 1, "Y": 0}, "interpolation": 2}]}, "start": 0, "time": {"Points": [{"co": {"X": 1, "Y": 1}, "interpolation": 2}]}, "volume": {"Points": [{"co": {"X": 1, "Y": 1}, "interpolation": 2}]}, "wave_color": {"alpha": {"Points": [{"co": {"X": 1, "Y": 255}, "handle_left": {"X": 0.5, "Y": 1}, "handle_right": {"X": 0.5, "Y": 0}, "handle_type": 0, "interpolation": 0}]}, "blue": {"Points": [{"co": {"X": 1, "Y": 255}, "handle_left": {"X": 0.5, "Y": 1}, "handle_right": {"X": 0.5, "Y": 0}, "handle_type": 0, "interpolation": 0}]}, "green": {"Points": [{"co": {"X": 1, "Y": 123}, "handle_left": {"X": 0.5, "Y": 1}, "handle_right": {"X": 0.5, "Y": 0}, "handle_type": 0, "interpolation": 0}]}, "red": {"Points": [{"co": {"X": 1, "Y": 0}, "handle_left": {"X": 0.5, "Y": 1}, "handle_right": {"X": 0.5, "Y": 0}, "handle_type": 0, "interpolation": 0}]}}, "waveform": false, "file_id": "VGKFBXYU5S", "title": "23705650-preview.mp4", "image": "/home/diary/.openshot_qt/thumbnail/VGKFBXYU5S.png"}, {"alpha": {"Points": [{"co": {"X": 1, "Y": 1}, "interpolation": 2}]}, "anchor": 0, "channel_filter": {"Points": [{"co": {"X": 1, "Y": -1}, "interpolation": 2}]}, "channel_mapping": {"Points": [{"co": {"X": 1, "Y": -1}, "interpolation": 2}]}, "crop_height": {"Points": [{"co": {"X": 1, "Y": -1}, "interpolation": 2}]}, "crop_width": {"Points": [{"co": {"X": 1, "Y": -1}, "interpolation": 2}]}, "crop_x": {"Points": [{"co": {"X": 1, "Y": 0}, "interpolation": 2}]}, "crop_y": {"Points": [{"co": {"X": 1, "Y": 0}, "interpolation": 2}]}, "display": 0, "duration": 46.0, "effects": [], "end": 46, "gravity": 4, "has_audio": {"Points": [{"co": {"X": 1, "Y": -1}, "interpolation": 2}]}, "has_video": {"Points": [{"co": {"X": 1, "Y": -1}, "interpolation": 2}]}, "id": "WS8DVA2S90", "layer": 3, "location_x": {"Points": [{"co": {"X": 1, "Y": 0}, "interpolation": 2}]}, "location_y": {"Points": [{"co": {"X": 1, "Y": 0}, "interpolation": 2}]}, "perspective_c1_x": {"Points": [{"co": {"X": 1, "Y": -1}, "interpolation": 2}]}, "perspective_c1_y": {"Points": [{"co": {"X": 1, "Y": -1}, "interpolation": 2}]}, "perspective_c2_x": {"Points": [{"co": {"X": 1, "Y": -1}, "interpolation": 2}]}, "perspective_c2_y": {"Points": [{"co": {"X": 1, "Y": -1}, "interpolation": 2}]}, "perspective_c3_x": {"Points": [{"co": {"X": 1, "Y": -1}, "interpolation": 2}]}, "perspective_c3_y": {"Points": [{"co": {"X": 1, "Y": -1}, "interpolation": 2}]}, "perspective_c4_x": {"Points": [{"co": {"X": 1, "Y": -1}, "interpolation": 2}]}, "perspective_c4_y": {"Points": [{"co": {"X": 1, "Y": -1}, "interpolation": 2}]}, "position": 343.2, "reader": {"acodec": "", "audio_bit_rate": 0, "audio_stream_index": -1, "audio_timebase": {"den": 1, "num": 1}, "channel_layout": 4, "channels": 0, "display_ratio": {"den": 84, "num": 149}, "duration": 46.0, "file_size": "4973482", "fps": {"den": 1, "num": 25}, "has_audio": false, "has_single_image": false, "has_video": true, "height": 336, "interlaced_frame": false, "path": "/home/diary/Desktop/\u041a\u043e\u043d\u0446\u0435\u043f\u0442\u044b/64. \u041f\u0440\u0438\u0447\u0438\u043d\u044b \u0431\u043e\u043b\u0435\u0437\u043d\u0435\u0439/video assets/22138156-preview.mp4", "pixel_format": 0, "pixel_ratio": {"den": 1, "num": 1}, "sample_rate": 0, "top_field_first": true, "type": "FFmpegReader", "vcodec": "h264", "video_bit_rate": 864953, "video_length": "1150", "video_stream_index": 0, "video_timebase": {"den": 12800, "num": 1}, "width": 596}, "rotation": {"Points": [{"co": {"X": 1, "Y": 0}, "interpolation": 2}]}, "scale": 1, "scale_x": {"Points": [{"co": {"X": 1, "Y": 1}, "interpolation": 2}]}, "scale_y": {"Points": [{"co": {"X": 1, "Y": 1}, "interpolation": 2}]}, "shear_x": {"Points": [{"co": {"X": 1, "Y": 0}, "interpolation": 2}]}, "shear_y": {"Points": [{"co": {"X": 1, "Y": 0}, "interpolation": 2}]}, "start": 0, "time": {"Points": [{"co": {"X": 1, "Y": 1}, "interpolation": 2}]}, "volume": {"Points": [{"co": {"X": 1, "Y": 1}, "interpolation": 2}]}, "wave_color": {"alpha": {"Points": [{"co": {"X": 1, "Y": 255}, "handle_left": {"X": 0.5, "Y": 1}, "handle_right": {"X": 0.5, "Y": 0}, "handle_type": 0, "interpolation": 0}]}, "blue": {"Points": [{"co": {"X": 1, "Y": 255}, "handle_left": {"X": 0.5, "Y": 1}, "handle_right": {"X": 0.5, "Y": 0}, "handle_type": 0, "interpolation": 0}]}, "green": {"Points": [{"co": {"X": 1, "Y": 123}, "handle_left": {"X": 0.5, "Y": 1}, "handle_right": {"X": 0.5, "Y": 0}, "handle_type": 0, "interpolation": 0}]}, "red": {"Points": [{"co": {"X": 1, "Y": 0}, "handle_left": {"X": 0.5, "Y": 1}, "handle_right": {"X": 0.5, "Y": 0}, "handle_type": 0, "interpolation": 0}]}}, "waveform": false, "file_id": "ZOUCJ0XQII", "title": "22138156-preview.mp4", "image": "/home/diary/.openshot_qt/thumbnail/ZOUCJ0XQII.png"}, {"alpha": {"Points": [{"co": {"X": 1, "Y": 1}, "interpolation": 2}]}, "anchor": 0, "channel_filter": {"Points": [{"co": {"X": 1, "Y": -1}, "interpolation": 2}]}, "channel_mapping": {"Points": [{"co": {"X": 1, "Y": -1}, "interpolation": 2}]}, "crop_height": {"Points": [{"co": {"X": 1, "Y": -1}, "interpolation": 2}]}, "crop_width": {"Points": [{"co": {"X": 1, "Y": -1}, "interpolation": 2}]}, "crop_x": {"Points": [{"co": {"X": 1, "Y": 0}, "interpolation": 2}]}, "crop_y": {"Points": [{"co": {"X": 1, "Y": 0}, "interpolation": 2}]}, "display": 0, "duration": 15.016016006469727, "effects": [], "end": 15.016016006469727, "gravity": 4, "has_audio": {"Points": [{"co": {"X": 1, "Y": -1}, "interpolation": 2}]}, "has_video": {"Points": [{"co": {"X": 1, "Y": -1}, "interpolation": 2}]}, "id": "71258V3T0Z", "layer": 3, "location_x": {"Points": [{"co": {"X": 1, "Y": 0}, "interpolation": 2}]}, "location_y": {"Points": [{"co": {"X": 1, "Y": 0}, "interpolation": 2}]}, "perspective_c1_x": {"Points": [{"co": {"X": 1, "Y": -1}, "interpolation": 2}]}, "perspective_c1_y": {"Points": [{"co": {"X": 1, "Y": -1}, "interpolation": 2}]}, "perspective_c2_x": {"Points": [{"co": {"X": 1, "Y": -1}, "interpolation": 2}]}, "perspective_c2_y": {"Points": [{"co": {"X": 1, "Y": -1}, "interpolation": 2}]}, "perspective_c3_x": {"Points": [{"co": {"X": 1, "Y": -1}, "interpolation": 2}]}, "perspective_c3_y": {"Points": [{"co": {"X": 1, "Y": -1}, "interpolation": 2}]}, "perspective_c4_x": {"Points": [{"co": {"X": 1, "Y": -1}, "interpolation": 2}]}, "perspective_c4_y": {"Points": [{"co": {"X": 1, "Y": -1}, "interpolation": 2}]}, "position": 389.2, "reader": {"acodec": "", "audio_bit_rate": 0, "audio_stream_index": -1, "audio_timebase": {"den": 1, "num": 1}, "channel_layout": 4, "channels": 0, "display_ratio": {"den": 84, "num": 149}, "duration": 15.016016006469727, "file_size": "1590835", "fps": {"den": 100, "num": 2997}, "has_audio": false, "has_single_image": false, "has_video": true, "height": 336, "interlaced_frame": false, "path": "/home/diary/Desktop/\u041a\u043e\u043d\u0446\u0435\u043f\u0442\u044b/64. \u041f\u0440\u0438\u0447\u0438\u043d\u044b \u0431\u043e\u043b\u0435\u0437\u043d\u0435\u0439/video assets/1265275-preview.mp4", "pixel_format": 0, "pixel_ratio": {"den": 1, "num": 1}, "sample_rate": 0, "top_field_first": true, "type": "FFmpegReader", "vcodec": "h264", "video_bit_rate": 847541, "video_length": "450", "video_stream_index": 0, "video_timebase": {"den": 2997, "num": 1}, "width": 596}, "rotation": {"Points": [{"co": {"X": 1, "Y": 0}, "interpolation": 2}]}, "scale": 1, "scale_x": {"Points": [{"co": {"X": 1, "Y": 1}, "interpolation": 2}]}, "scale_y": {"Points": [{"co": {"X": 1, "Y": 1}, "interpolation": 2}]}, "shear_x": {"Points": [{"co": {"X": 1, "Y": 0}, "interpolation": 2}]}, "shear_y": {"Points": [{"co": {"X": 1, "Y": 0}, "interpolation": 2}]}, "start": 0, "time": {"Points": [{"co": {"X": 1, "Y": 1}, "interpolation": 2}]}, "volume": {"Points": [{"co": {"X": 1, "Y": 1}, "interpolation": 2}]}, "wave_color": {"alpha": {"Points": [{"co": {"X": 1, "Y": 255}, "handle_left": {"X": 0.5, "Y": 1}, "handle_right": {"X": 0.5, "Y": 0}, "handle_type": 0, "interpolation": 0}]}, "blue": {"Points": [{"co": {"X": 1, "Y": 255}, "handle_left": {"X": 0.5, "Y": 1}, "handle_right": {"X": 0.5, "Y": 0}, "handle_type": 0, "interpolation": 0}]}, "green": {"Points": [{"co": {"X": 1, "Y": 123}, "handle_left": {"X": 0.5, "Y": 1}, "handle_right": {"X": 0.5, "Y": 0}, "handle_type": 0, "interpolation": 0}]}, "red": {"Points": [{"co": {"X": 1, "Y": 0}, "handle_left": {"X": 0.5, "Y": 1}, "handle_right": {"X": 0.5, "Y": 0}, "handle_type": 0, "interpolation": 0}]}}, "waveform": false, "file_id": "WCGA0NGXVJ", "title": "1265275-preview.mp4", "image": "/home/diary/.openshot_qt/thumbnail/WCGA0NGXVJ.png"}, {"alpha": {"Points": [{"co": {"X": 1, "Y": 1}, "interpolation": 2}]}, "anchor": 0, "channel_filter": {"Points": [{"co": {"X": 1, "Y": -1}, "interpolation": 2}]}, "channel_mapping": {"Points": [{"co": {"X": 1, "Y": -1}, "interpolation": 2}]}, "crop_height": {"Points": [{"co": {"X": 1, "Y": -1}, "interpolation": 2}]}, "crop_width": {"Points": [{"co": {"X": 1, "Y": -1}, "interpolation": 2}]}, "crop_x": {"Points": [{"co": {"X": 1, "Y": 0}, "interpolation": 2}]}, "crop_y": {"Points": [{"co": {"X": 1, "Y": 0}, "interpolation": 2}]}, "display": 0, "duration": 10.239999771118164, "effects": [], "end": 10.239999771118164, "gravity": 4, "has_audio": {"Points": [{"co": {"X": 1, "Y": -1}, "interpolation": 2}]}, "has_video": {"Points": [{"co": {"X": 1, "Y": -1}, "interpolation": 2}]}, "id": "6MMM42S9QO", "layer": 3, "location_x": {"Points": [{"co": {"X": 1, "Y": 0}, "interpolation": 2}]}, "location_y": {"Points": [{"co": {"X": 1, "Y": 0}, "interpolation": 2}]}, "perspective_c1_x": {"Points": [{"co": {"X": 1, "Y": -1}, "interpolation": 2}]}, "perspective_c1_y": {"Points": [{"co": {"X": 1, "Y": -1}, "interpolation": 2}]}, "perspective_c2_x": {"Points": [{"co": {"X": 1, "Y": -1}, "interpolation": 2}]}, "perspective_c2_y": {"Points": [{"co": {"X": 1, "Y": -1}, "interpolation": 2}]}, "perspective_c3_x": {"Points": [{"co": {"X": 1, "Y": -1}, "interpolation": 2}]}, "perspective_c3_y": {"Points": [{"co": {"X": 1, "Y": -1}, "interpolation": 2}]}, "perspective_c4_x": {"Points": [{"co": {"X": 1, "Y": -1}, "interpolation": 2}]}, "perspective_c4_y": {"Points": [{"co": {"X": 1, "Y": -1}, "interpolation": 2}]}, "position": 404.215, "reader": {"acodec": "aac", "audio_bit_rate": 2089, "audio_stream_index": 1, "audio_timebase": {"den": 44100, "num": 1}, "channel_layout": 3, "channels": 2, "display_ratio": {"den": 84, "num": 149}, "duration": 10.239999771118164, "file_size": "1678485", "fps": {"den": 100, "num": 2997}, "has_audio": true, "has_single_image": false, "has_video": true, "height": 336, "interlaced_frame": false, "path": "/home/diary/Desktop/\u041a\u043e\u043d\u0446\u0435\u043f\u0442\u044b/64. \u041f\u0440\u0438\u0447\u0438\u043d\u044b \u0431\u043e\u043b\u0435\u0437\u043d\u0435\u0439/video assets/3592964-preview.mp4", "pixel_format": 0, "pixel_ratio": {"den": 1, "num": 1}, "sample_rate": 44100, "top_field_first": true, "type": "FFmpegReader", "vcodec": "h264", "video_bit_rate": 1310804, "video_length": "307", "video_stream_index": 0, "video_timebase": {"den": 2997, "num": 1}, "width": 596}, "rotation": {"Points": [{"co": {"X": 1, "Y": 0}, "interpolation": 2}]}, "scale": 1, "scale_x": {"Points": [{"co": {"X": 1, "Y": 1}, "interpolation": 2}]}, "scale_y": {"Points": [{"co": {"X": 1, "Y": 1}, "interpolation": 2}]}, "shear_x": {"Points": [{"co": {"X": 1, "Y": 0}, "interpolation": 2}]}, "shear_y": {"Points": [{"co": {"X": 1, "Y": 0}, "interpolation": 2}]}, "start": 0, "time": {"Points": [{"co": {"X": 1, "Y": 1}, "interpolation": 2}]}, "volume": {"Points": [{"co": {"X": 1, "Y": 1}, "interpolation": 2}]}, "wave_color": {"alpha": {"Points": [{"co": {"X": 1, "Y": 255}, "handle_left": {"X": 0.5, "Y": 1}, "handle_right": {"X": 0.5, "Y": 0}, "handle_type": 0, "interpolation": 0}]}, "blue": {"Points": [{"co": {"X": 1, "Y": 255}, "handle_left": {"X": 0.5, "Y": 1}, "handle_right": {"X": 0.5, "Y": 0}, "handle_type": 0, "interpolation": 0}]}, "green": {"Points": [{"co": {"X": 1, "Y": 123}, "handle_left": {"X": 0.5, "Y": 1}, "handle_right": {"X": 0.5, "Y": 0}, "handle_type": 0, "interpolation": 0}]}, "red": {"Points": [{"co": {"X": 1, "Y": 0}, "handle_left": {"X": 0.5, "Y": 1}, "handle_right": {"X": 0.5, "Y": 0}, "handle_type": 0, "interpolation": 0}]}}, "waveform": false, "file_id": "G0HUTQ2EM1", "title": "3592964-preview.mp4", "image": "/home/diary/.openshot_qt/thumbnail/G0HUTQ2EM1.png"}, {"alpha": {"Points": [{"co": {"X": 1, "Y": 1}, "interpolation": 2}]}, "anchor": 0, "channel_filter": {"Points": [{"co": {"X": 1, "Y": -1}, "interpolation": 2}]}, "channel_mapping": {"Points": [{"co": {"X": 1, "Y": -1}, "interpolation": 2}]}, "crop_height": {"Points": [{"co": {"X": 1, "Y": -1}, "interpolation": 2}]}, "crop_width": {"Points": [{"co": {"X": 1, "Y": -1}, "interpolation": 2}]}, "crop_x": {"Points": [{"co": {"X": 1, "Y": 0}, "interpolation": 2}]}, "crop_y": {"Points": [{"co": {"X": 1, "Y": 0}, "interpolation": 2}]}, "display": 0, "duration": 8.035011291503906, "effects": [], "end": 8.035011291503906, "gravity": 4, "has_audio": {"Points": [{"co": {"X": 1, "Y": -1}, "interpolation": 2}]}, "has_video": {"Points": [{"co": {"X": 1, "Y": -1}, "interpolation": 2}]}, "id": "IF2JTNIVJD", "layer": 2, "location_x": {"Points": [{"co": {"X": 1, "Y": 0}, "interpolation": 2}]}, "location_y": {"Points": [{"co": {"X": 1, "Y": 0}, "interpolation": 2}]}, "perspective_c1_x": {"Points": [{"co": {"X": 1, "Y": -1}, "interpolation": 2}]}, "perspective_c1_y": {"Points": [{"co": {"X": 1, "Y": -1}, "interpolation": 2}]}, "perspective_c2_x": {"Points": [{"co": {"X": 1, "Y": -1}, "interpolation": 2}]}, "perspective_c2_y": {"Points": [{"co": {"X": 1, "Y": -1}, "interpolation": 2}]}, "perspective_c3_x": {"Points": [{"co": {"X": 1, "Y": -1}, "interpolation": 2}]}, "perspective_c3_y": {"Points": [{"co": {"X": 1, "Y": -1}, "interpolation": 2}]}, "perspective_c4_x": {"Points": [{"co": {"X": 1, "Y": -1}, "interpolation": 2}]}, "perspective_c4_y": {"Points": [{"co": {"X": 1, "Y": -1}, "interpolation": 2}]}, "position": 299.2, "reader": {"acodec": "aac", "audio_bit_rate": 2095, "audio_stream_index": 1, "audio_timebase": {"den": 44100, "num": 1}, "channel_layout": 3, "channels": 2, "display_ratio": {"den": 84, "num": 149}, "duration": 8.035011291503906, "file_size": "947319", "fps": {"den": 100, "num": 2997}, "has_audio": true, "has_single_image": false, "has_video": true, "height": 336, "interlaced_frame": false, "path": "/home/diary/Desktop/\u041a\u043e\u043d\u0446\u0435\u043f\u0442\u044b/64. \u041f\u0440\u0438\u0447\u0438\u043d\u044b \u0431\u043e\u043b\u0435\u0437\u043d\u0435\u0439/video assets/3594023-preview.mp4", "pixel_format": 0, "pixel_ratio": {"den": 1, "num": 1}, "sample_rate": 44100, "top_field_first": true, "type": "FFmpegReader", "vcodec": "h264", "video_bit_rate": 942371, "video_length": "241", "video_stream_index": 0, "video_timebase": {"den": 2997, "num": 1}, "width": 596}, "rotation": {"Points": [{"co": {"X": 1, "Y": 0}, "interpolation": 2}]}, "scale": 1, "scale_x": {"Points": [{"co": {"X": 1, "Y": 1}, "interpolation": 2}]}, "scale_y": {"Points": [{"co": {"X": 1, "Y": 1}, "interpolation": 2}]}, "shear_x": {"Points": [{"co": {"X": 1, "Y": 0}, "interpolation": 2}]}, "shear_y": {"Points": [{"co": {"X": 1, "Y": 0}, "interpolation": 2}]}, "start": 0, "time": {"Points": [{"co": {"X": 1, "Y": 1}, "interpolation": 2}]}, "volume": {"Points": [{"co": {"X": 1, "Y": 1}, "interpolation": 2}]}, "wave_color": {"alpha": {"Points": [{"co": {"X": 1, "Y": 255}, "handle_left": {"X": 0.5, "Y": 1}, "handle_right": {"X": 0.5, "Y": 0}, "handle_type": 0, "interpolation": 0}]}, "blue": {"Points": [{"co": {"X": 1, "Y": 255}, "handle_left": {"X": 0.5, "Y": 1}, "handle_right": {"X": 0.5, "Y": 0}, "handle_type": 0, "interpolation": 0}]}, "green": {"Points": [{"co": {"X": 1, "Y": 123}, "handle_left": {"X": 0.5, "Y": 1}, "handle_right": {"X": 0.5, "Y": 0}, "handle_type": 0, "interpolation": 0}]}, "red": {"Points": [{"co": {"X": 1, "Y": 0}, "handle_left": {"X": 0.5, "Y": 1}, "handle_right": {"X": 0.5, "Y": 0}, "handle_type": 0, "interpolation": 0}]}}, "waveform": false, "file_id": "HXED1LNWZL", "title": "3594023-preview.mp4", "image": "/home/diary/.openshot_qt/thumbnail/HXED1LNWZL.png"}, {"alpha": {"Points": [{"co": {"X": 1, "Y": 1}, "interpolation": 2}]}, "anchor": 0, "channel_filter": {"Points": [{"co": {"X": 1, "Y": -1}, "interpolation": 2}]}, "channel_mapping": {"Points": [{"co": {"X": 1, "Y": -1}, "interpolation": 2}]}, "crop_height": {"Points": [{"co": {"X": 1, "Y": -1}, "interpolation": 2}]}, "crop_width": {"Points": [{"co": {"X": 1, "Y": -1}, "interpolation": 2}]}, "crop_x": {"Points": [{"co": {"X": 1, "Y": 0}, "interpolation": 2}]}, "crop_y": {"Points": [{"co": {"X": 1, "Y": 0}, "interpolation": 2}]}, "display": 0, "duration": 21.689022064208984, "effects": [], "end": 21.689022064208984, "gravity": 4, "has_audio": {"Points": [{"co": {"X": 1, "Y": -1}, "interpolation": 2}]}, "has_video": {"Points": [{"co": {"X": 1, "Y": -1}, "interpolation": 2}]}, "id": "04XEF8WYBI", "layer": 2, "location_x": {"Points": [{"co": {"X": 1, "Y": 0}, "interpolation": 2}]}, "location_y": {"Points": [{"co": {"X": 1, "Y": 0}, "interpolation": 2}]}, "perspective_c1_x": {"Points": [{"co": {"X": 1, "Y": -1}, "interpolation": 2}]}, "perspective_c1_y": {"Points": [{"co": {"X": 1, "Y": -1}, "interpolation": 2}]}, "perspective_c2_x": {"Points": [{"co": {"X": 1, "Y": -1}, "interpolation": 2}]}, "perspective_c2_y": {"Points": [{"co": {"X": 1, "Y": -1}, "interpolation": 2}]}, "perspective_c3_x": {"Points": [{"co": {"X": 1, "Y": -1}, "interpolation": 2}]}, "perspective_c3_y": {"Points": [{"co": {"X": 1, "Y": -1}, "interpolation": 2}]}, "perspective_c4_x": {"Points": [{"co": {"X": 1, "Y": -1}, "interpolation": 2}]}, "perspective_c4_y": {"Points": [{"co": {"X": 1, "Y": -1}, "interpolation": 2}]}, "position": 311.04, "reader": {"acodec": "", "audio_bit_rate": 0, "audio_stream_index": -1, "audio_timebase": {"den": 1, "num": 1}, "channel_layout": 4, "channels": 0, "display_ratio": {"den": 84, "num": 149}, "duration": 21.689022064208984, "file_size": "2480680", "fps": {"den": 100, "num": 2997}, "has_audio": false, "has_single_image": false, "has_video": true, "height": 336, "interlaced_frame": false, "path": "/home/diary/Desktop/\u041a\u043e\u043d\u0446\u0435\u043f\u0442\u044b/64. \u041f\u0440\u0438\u0447\u0438\u043d\u044b \u0431\u043e\u043b\u0435\u0437\u043d\u0435\u0439/video assets/4371524-preview.mp4", "pixel_format": 0, "pixel_ratio": {"den": 1, "num": 1}, "sample_rate": 0, "top_field_first": true, "type": "FFmpegReader", "vcodec": "h264", "video_bit_rate": 915000, "video_length": "650", "video_stream_index": 0, "video_timebase": {"den": 2997, "num": 1}, "width": 596}, "rotation": {"Points": [{"co": {"X": 1, "Y": 0}, "interpolation": 2}]}, "scale": 1, "scale_x": {"Points": [{"co": {"X": 1, "Y": 1}, "interpolation": 2}]}, "scale_y": {"Points": [{"co": {"X": 1, "Y": 1}, "interpolation": 2}]}, "shear_x": {"Points": [{"co": {"X": 1, "Y": 0}, "interpolation": 2}]}, "shear_y": {"Points": [{"co": {"X": 1, "Y": 0}, "interpolation": 2}]}, "start": 0, "time": {"Points": [{"co": {"X": 1, "Y": 1}, "interpolation": 2}]}, "volume": {"Points": [{"co": {"X": 1, "Y": 1}, "interpolation": 2}]}, "wave_color": {"alpha": {"Points": [{"co": {"X": 1, "Y": 255}, "handle_left": {"X": 0.5, "Y": 1}, "handle_right": {"X": 0.5, "Y": 0}, "handle_type": 0, "interpolation": 0}]}, "blue": {"Points": [{"co": {"X": 1, "Y": 255}, "handle_left": {"X": 0.5, "Y": 1}, "handle_right": {"X": 0.5, "Y": 0}, "handle_type": 0, "interpolation": 0}]}, "green": {"Points": [{"co": {"X": 1, "Y": 123}, "handle_left": {"X": 0.5, "Y": 1}, "handle_right": {"X": 0.5, "Y": 0}, "handle_type": 0, "interpolation": 0}]}, "red": {"Points": [{"co": {"X": 1, "Y": 0}, "handle_left": {"X": 0.5, "Y": 1}, "handle_right": {"X": 0.5, "Y": 0}, "handle_type": 0, "interpolation": 0}]}}, "waveform": false, "file_id": "3XRS1VUDFX", "title": "4371524-preview.mp4", "image": "/home/diary/.openshot_qt/thumbnail/3XRS1VUDFX.png"}, {"alpha": {"Points": [{"co": {"X": 1, "Y": 1}, "interpolation": 2}]}, "anchor": 0, "channel_filter": {"Points": [{"co": {"X": 1, "Y": -1}, "interpolation": 2}]}, "channel_mapping": {"Points": [{"co": {"X": 1, "Y": -1}, "interpolation": 2}]}, "crop_height": {"Points": [{"co": {"X": 1, "Y": -1}, "interpolation": 2}]}, "crop_width": {"Points": [{"co": {"X": 1, "Y": -1}, "interpolation": 2}]}, "crop_x": {"Points": [{"co": {"X": 1, "Y": 0}, "interpolation": 2}]}, "crop_y": {"Points": [{"co": {"X": 1, "Y": 0}, "interpolation": 2}]}, "display": 0, "duration": 17.959999084472656, "effects": [], "end": 17.959999084472656, "gravity": 4, "has_audio": {"Points": [{"co": {"X": 1, "Y": -1}, "interpolation": 2}]}, "has_video": {"Points": [{"co": {"X": 1, "Y": -1}, "interpolation": 2}]}, "id": "YBSM4IH6IO", "layer": 2, "location_x": {"Points": [{"co": {"X": 1, "Y": 0}, "interpolation": 2}]}, "location_y": {"Points": [{"co": {"X": 1, "Y": 0}, "interpolation": 2}]}, "perspective_c1_x": {"Points": [{"co": {"X": 1, "Y": -1}, "interpolation": 2}]}, "perspective_c1_y": {"Points": [{"co": {"X": 1, "Y": -1}, "interpolation": 2}]}, "perspective_c2_x": {"Points": [{"co": {"X": 1, "Y": -1}, "interpolation": 2}]}, "perspective_c2_y": {"Points": [{"co": {"X": 1, "Y": -1}, "interpolation": 2}]}, "perspective_c3_x": {"Points": [{"co": {"X": 1, "Y": -1}, "interpolation": 2}]}, "perspective_c3_y": {"Points": [{"co": {"X": 1, "Y": -1}, "interpolation": 2}]}, "perspective_c4_x": {"Points": [{"co": {"X": 1, "Y": -1}, "interpolation": 2}]}, "perspective_c4_y": {"Points": [{"co": {"X": 1, "Y": -1}, "interpolation": 2}]}, "position": 337.12, "reader": {"acodec": "", "audio_bit_rate": 0, "audio_stream_index": -1, "audio_timebase": {"den": 1, "num": 1}, "channel_layout": 4, "channels": 0, "display_ratio": {"den": 84, "num": 149}, "duration": 17.959999084472656, "file_size": "2128140", "fps": {"den": 1, "num": 25}, "has_audio": false, "has_single_image": false, "has_video": true, "height": 336, "interlaced_frame": false, "path": "/home/diary/Desktop/\u041a\u043e\u043d\u0446\u0435\u043f\u0442\u044b/64. \u041f\u0440\u0438\u0447\u0438\u043d\u044b \u0431\u043e\u043b\u0435\u0437\u043d\u0435\u0439/video assets/6070205-preview.mp4", "pixel_format": 0, "pixel_ratio": {"den": 1, "num": 1}, "sample_rate": 0, "top_field_first": true, "type": "FFmpegReader", "vcodec": "h264", "video_bit_rate": 947946, "video_length": "449", "video_stream_index": 0, "video_timebase": {"den": 12800, "num": 1}, "width": 596}, "rotation": {"Points": [{"co": {"X": 1, "Y": 0}, "interpolation": 2}]}, "scale": 1, "scale_x": {"Points": [{"co": {"X": 1, "Y": 1}, "interpolation": 2}]}, "scale_y": {"Points": [{"co": {"X": 1, "Y": 1}, "interpolation": 2}]}, "shear_x": {"Points": [{"co": {"X": 1, "Y": 0}, "interpolation": 2}]}, "shear_y": {"Points": [{"co": {"X": 1, "Y": 0}, "interpolation": 2}]}, "start": 0, "time": {"Points": [{"co": {"X": 1, "Y": 1}, "interpolation": 2}]}, "volume": {"Points": [{"co": {"X": 1, "Y": 1}, "interpolation": 2}]}, "wave_color": {"alpha": {"Points": [{"co": {"X": 1, "Y": 255}, "handle_left": {"X": 0.5, "Y": 1}, "handle_right": {"X": 0.5, "Y": 0}, "handle_type": 0, "interpolation": 0}]}, "blue": {"Points": [{"co": {"X": 1, "Y": 255}, "handle_left": {"X": 0.5, "Y": 1}, "handle_right": {"X": 0.5, "Y": 0}, "handle_type": 0, "interpolation": 0}]}, "green": {"Points": [{"co": {"X": 1, "Y": 123}, "handle_left": {"X": 0.5, "Y": 1}, "handle_right": {"X": 0.5, "Y": 0}, "handle_type": 0, "interpolation": 0}]}, "red": {"Points": [{"co": {"X": 1, "Y": 0}, "handle_left": {"X": 0.5, "Y": 1}, "handle_right": {"X": 0.5, "Y": 0}, "handle_type": 0, "interpolation": 0}]}}, "waveform": false, "file_id": "HRHP5RQDW2", "title": "6070205-preview.mp4", "image": "/home/diary/.openshot_qt/thumbnail/HRHP5RQDW2.png"}, {"alpha": {"Points": [{"co": {"X": 1, "Y": 1}, "interpolation": 2}]}, "anchor": 0, "channel_filter": {"Points": [{"co": {"X": 1, "Y": -1}, "interpolation": 2}]}, "channel_mapping": {"Points": [{"co": {"X": 1, "Y": -1}, "interpolation": 2}]}, "crop_height": {"Points": [{"co": {"X": 1, "Y": -1}, "interpolation": 2}]}, "crop_width": {"Points": [{"co": {"X": 1, "Y": -1}, "interpolation": 2}]}, "crop_x": {"Points": [{"co": {"X": 1, "Y": 0}, "interpolation": 2}]}, "crop_y": {"Points": [{"co": {"X": 1, "Y": 0}, "interpolation": 2}]}, "display": 0, "duration": 30.0, "effects": [], "end": 30, "gravity": 4, "has_audio": {"Points": [{"co": {"X": 1, "Y": -1}, "interpolation": 2}]}, "has_video": {"Points": [{"co": {"X": 1, "Y": -1}, "interpolation": 2}]}, "id": "DWJQ9OZ2JK", "layer": 2, "location_x": {"Points": [{"co": {"X": 1, "Y": 0}, "interpolation": 2}]}, "location_y": {"Points": [{"co": {"X": 1, "Y": 0}, "interpolation": 2}]}, "perspective_c1_x": {"Points": [{"co": {"X": 1, "Y": -1}, "interpolation": 2}]}, "perspective_c1_y": {"Points": [{"co": {"X": 1, "Y": -1}, "interpolation": 2}]}, "perspective_c2_x": {"Points": [{"co": {"X": 1, "Y": -1}, "interpolation": 2}]}, "perspective_c2_y": {"Points": [{"co": {"X": 1, "Y": -1}, "interpolation": 2}]}, "perspective_c3_x": {"Points": [{"co": {"X": 1, "Y": -1}, "interpolation": 2}]}, "perspective_c3_y": {"Points": [{"co": {"X": 1, "Y": -1}, "interpolation": 2}]}, "perspective_c4_x": {"Points": [{"co": {"X": 1, "Y": -1}, "interpolation": 2}]}, "perspective_c4_y": {"Points": [{"co": {"X": 1, "Y": -1}, "interpolation": 2}]}, "position": 359.36, "reader": {"acodec": "", "audio_bit_rate": 0, "audio_stream_index": -1, "audio_timebase": {"den": 1, "num": 1}, "channel_layout": 4, "channels": 0, "display_ratio": {"den": 84, "num": 149}, "duration": 30.0, "file_size": "3680524", "fps": {"den": 1, "num": 30}, "has_audio": false, "has_single_image": false, "has_video": true, "height": 336, "interlaced_frame": false, "path": "/home/diary/Desktop/\u041a\u043e\u043d\u0446\u0435\u043f\u0442\u044b/64. \u041f\u0440\u0438\u0447\u0438\u043d\u044b \u0431\u043e\u043b\u0435\u0437\u043d\u0435\u0439/video assets/11728724-preview.mp4", "pixel_format": 0, "pixel_ratio": {"den": 1, "num": 1}, "sample_rate": 0, "top_field_first": true, "type": "FFmpegReader", "vcodec": "h264", "video_bit_rate": 981473, "video_length": "900", "video_stream_index": 0, "video_timebase": {"den": 15360, "num": 1}, "width": 596}, "rotation": {"Points": [{"co": {"X": 1, "Y": 0}, "interpolation": 2}]}, "scale": 1, "scale_x": {"Points": [{"co": {"X": 1, "Y": 1}, "interpolation": 2}]}, "scale_y": {"Points": [{"co": {"X": 1, "Y": 1}, "interpolation": 2}]}, "shear_x": {"Points": [{"co": {"X": 1, "Y": 0}, "interpolation": 2}]}, "shear_y": {"Points": [{"co": {"X": 1, "Y": 0}, "interpolation": 2}]}, "start": 0, "time": {"Points": [{"co": {"X": 1, "Y": 1}, "interpolation": 2}]}, "volume": {"Points": [{"co": {"X": 1, "Y": 1}, "interpolation": 2}]}, "wave_color": {"alpha": {"Points": [{"co": {"X": 1, "Y": 255}, "handle_left": {"X": 0.5, "Y": 1}, "handle_right": {"X": 0.5, "Y": 0}, "handle_type": 0, "interpolation": 0}]}, "blue": {"Points": [{"co": {"X": 1, "Y": 255}, "handle_left": {"X": 0.5, "Y": 1}, "handle_right": {"X": 0.5, "Y": 0}, "handle_type": 0, "interpolation": 0}]}, "green": {"Points": [{"co": {"X": 1, "Y": 123}, "handle_left": {"X": 0.5, "Y": 1}, "handle_right": {"X": 0.5, "Y": 0}, "handle_type": 0, "interpolation": 0}]}, "red": {"Points": [{"co": {"X": 1, "Y": 0}, "handle_left": {"X": 0.5, "Y": 1}, "handle_right": {"X": 0.5, "Y": 0}, "handle_type": 0, "interpolation": 0}]}}, "waveform": false, "file_id": "MK67AURUUX", "title": "11728724-preview.mp4", "image": "/home/diary/.openshot_qt/thumbnail/MK67AURUUX.png"}, {"alpha": {"Points": [{"co": {"X": 1, "Y": 1}, "interpolation": 2}]}, "anchor": 0, "channel_filter": {"Points": [{"co": {"X": 1, "Y": -1}, "interpolation": 2}]}, "channel_mapping": {"Points": [{"co": {"X": 1, "Y": -1}, "interpolation": 2}]}, "crop_height": {"Points": [{"co": {"X": 1, "Y": -1}, "interpolation": 2}]}, "crop_width": {"Points": [{"co": {"X": 1, "Y": -1}, "interpolation": 2}]}, "crop_x": {"Points": [{"co": {"X": 1, "Y": 0}, "interpolation": 2}]}, "crop_y": {"Points": [{"co": {"X": 1, "Y": 0}, "interpolation": 2}]}, "display": 0, "duration": 10.678000450134277, "effects": [], "end": 10.678000450134277, "gravity": 4, "has_audio": {"Points": [{"co": {"X": 1, "Y": -1}, "interpolation": 2}]}, "has_video": {"Points": [{"co": {"X": 1, "Y": -1}, "interpolation": 2}]}, "id": "9YPO39K8W5", "layer": 2, "location_x": {"Points": [{"co": {"X": 1, "Y": 0}, "interpolation": 2}]}, "location_y": {"Points": [{"co": {"X": 1, "Y": 0}, "interpolation": 2}]}, "perspective_c1_x": {"Points": [{"co": {"X": 1, "Y": -1}, "interpolation": 2}]}, "perspective_c1_y": {"Points": [{"co": {"X": 1, "Y": -1}, "interpolation": 2}]}, "perspective_c2_x": {"Points": [{"co": {"X": 1, "Y": -1}, "interpolation": 2}]}, "perspective_c2_y": {"Points": [{"co": {"X": 1, "Y": -1}, "interpolation": 2}]}, "perspective_c3_x": {"Points": [{"co": {"X": 1, "Y": -1}, "interpolation": 2}]}, "perspective_c3_y": {"Points": [{"co": {"X": 1, "Y": -1}, "interpolation": 2}]}, "perspective_c4_x": {"Points": [{"co": {"X": 1, "Y": -1}, "interpolation": 2}]}, "perspective_c4_y": {"Points": [{"co": {"X": 1, "Y": -1}, "interpolation": 2}]}, "position": 389.36, "reader": {"acodec": "", "audio_bit_rate": 0, "audio_stream_index": -1, "audio_timebase": {"den": 1, "num": 1}, "channel_layout": 4, "channels": 0, "display_ratio": {"den": 84, "num": 149}, "duration": 10.678000450134277, "file_size": "1248338", "fps": {"den": 1001, "num": 30000}, "has_audio": false, "has_single_image": false, "has_video": true, "height": 336, "interlaced_frame": false, "path": "/home/diary/Desktop/\u041a\u043e\u043d\u0446\u0435\u043f\u0442\u044b/64. \u041f\u0440\u0438\u0447\u0438\u043d\u044b \u0431\u043e\u043b\u0435\u0437\u043d\u0435\u0439/video assets/17157313-preview.mp4", "pixel_format": 0, "pixel_ratio": {"den": 1, "num": 1}, "sample_rate": 0, "top_field_first": true, "type": "FFmpegReader", "vcodec": "h264", "video_bit_rate": 935259, "video_length": "320", "video_stream_index": 0, "video_timebase": {"den": 30000, "num": 1}, "width": 596}, "rotation": {"Points": [{"co": {"X": 1, "Y": 0}, "interpolation": 2}]}, "scale": 1, "scale_x": {"Points": [{"co": {"X": 1, "Y": 1}, "interpolation": 2}]}, "scale_y": {"Points": [{"co": {"X": 1, "Y": 1}, "interpolation": 2}]}, "shear_x": {"Points": [{"co": {"X": 1, "Y": 0}, "interpolation": 2}]}, "shear_y": {"Points": [{"co": {"X": 1, "Y": 0}, "interpolation": 2}]}, "start": 0, "time": {"Points": [{"co": {"X": 1, "Y": 1}, "interpolation": 2}]}, "volume": {"Points": [{"co": {"X": 1, "Y": 1}, "interpolation": 2}]}, "wave_color": {"alpha": {"Points": [{"co": {"X": 1, "Y": 255}, "handle_left": {"X": 0.5, "Y": 1}, "handle_right": {"X": 0.5, "Y": 0}, "handle_type": 0, "interpolation": 0}]}, "blue": {"Points": [{"co": {"X": 1, "Y": 255}, "handle_left": {"X": 0.5, "Y": 1}, "handle_right": {"X": 0.5, "Y": 0}, "handle_type": 0, "interpolation": 0}]}, "green": {"Points": [{"co": {"X": 1, "Y": 123}, "handle_left": {"X": 0.5, "Y": 1}, "handle_right": {"X": 0.5, "Y": 0}, "handle_type": 0, "interpolation": 0}]}, "red": {"Points": [{"co": {"X": 1, "Y": 0}, "handle_left": {"X": 0.5, "Y": 1}, "handle_right": {"X": 0.5, "Y": 0}, "handle_type": 0, "interpolation": 0}]}}, "waveform": false, "file_id": "TUY59O1ZMZ", "title": "17157313-preview.mp4", "image": "/home/diary/.openshot_qt/thumbnail/TUY59O1ZMZ.png"}, {"alpha": {"Points": [{"co": {"X": 1, "Y": 1}, "interpolation": 2}]}, "anchor": 0, "channel_filter": {"Points": [{"co": {"X": 1, "Y": -1}, "interpolation": 2}]}, "channel_mapping": {"Points": [{"co": {"X": 1, "Y": -1}, "interpolation": 2}]}, "crop_height": {"Points": [{"co": {"X": 1, "Y": -1}, "interpolation": 2}]}, "crop_width": {"Points": [{"co": {"X": 1, "Y": -1}, "interpolation": 2}]}, "crop_x": {"Points": [{"co": {"X": 1, "Y": 0}, "interpolation": 2}]}, "crop_y": {"Points": [{"co": {"X": 1, "Y": 0}, "interpolation": 2}]}, "display": 0, "duration": 20.0, "effects": [], "end": 20, "gravity": 4, "has_audio": {"Points": [{"co": {"X": 1, "Y": -1}, "interpolation": 2}]}, "has_video": {"Points": [{"co": {"X": 1, "Y": -1}, "interpolation": 2}]}, "id": "BQRV4KZ7OT", "layer": 2, "location_x": {"Points": [{"co": {"X": 1, "Y": 0}, "interpolation": 2}]}, "location_y": {"Points": [{"co": {"X": 1, "Y": 0}, "interpolation": 2}]}, "perspective_c1_x": {"Points": [{"co": {"X": 1, "Y": -1}, "interpolation": 2}]}, "perspective_c1_y": {"Points": [{"co": {"X": 1, "Y": -1}, "interpolation": 2}]}, "perspective_c2_x": {"Points": [{"co": {"X": 1, "Y": -1}, "interpolation": 2}]}, "perspective_c2_y": {"Points": [{"co": {"X": 1, "Y": -1}, "interpolation": 2}]}, "perspective_c3_x": {"Points": [{"co": {"X": 1, "Y": -1}, "interpolation": 2}]}, "perspective_c3_y": {"Points": [{"co": {"X": 1, "Y": -1}, "interpolation": 2}]}, "perspective_c4_x": {"Points": [{"co": {"X": 1, "Y": -1}, "interpolation": 2}]}, "perspective_c4_y": {"Points": [{"co": {"X": 1, "Y": -1}, "interpolation": 2}]}, "position": 404.215, "reader": {"acodec": "", "audio_bit_rate": 0, "audio_stream_index": -1, "audio_timebase": {"den": 1, "num": 1}, "channel_layout": 4, "channels": 0, "display_ratio": {"den": 84, "num": 149}, "duration": 20.0, "file_size": "2423260", "fps": {"den": 1, "num": 30}, "has_audio": false, "has_single_image": false, "has_video": true, "height": 336, "interlaced_frame": false, "path": "/home/diary/Desktop/\u041a\u043e\u043d\u0446\u0435\u043f\u0442\u044b/64. \u041f\u0440\u0438\u0447\u0438\u043d\u044b \u0431\u043e\u043b\u0435\u0437\u043d\u0435\u0439/video assets/18292843-preview.mp4", "pixel_format": 0, "pixel_ratio": {"den": 1, "num": 1}, "sample_rate": 0, "top_field_first": true, "type": "FFmpegReader", "vcodec": "h264", "video_bit_rate": 969304, "video_length": "600", "video_stream_index": 0, "video_timebase": {"den": 15360, "num": 1}, "width": 596}, "rotation": {"Points": [{"co": {"X": 1, "Y": 0}, "interpolation": 2}]}, "scale": 1, "scale_x": {"Points": [{"co": {"X": 1, "Y": 1}, "interpolation": 2}]}, "scale_y": {"Points": [{"co": {"X": 1, "Y": 1}, "interpolation": 2}]}, "shear_x": {"Points": [{"co": {"X": 1, "Y": 0}, "interpolation": 2}]}, "shear_y": {"Points": [{"co": {"X": 1, "Y": 0}, "interpolation": 2}]}, "start": 0, "time": {"Points": [{"co": {"X": 1, "Y": 1}, "interpolation": 2}]}, "volume": {"Points": [{"co": {"X": 1, "Y": 1}, "interpolation": 2}]}, "wave_color": {"alpha": {"Points": [{"co": {"X": 1, "Y": 255}, "handle_left": {"X": 0.5, "Y": 1}, "handle_right": {"X": 0.5, "Y": 0}, "handle_type": 0, "interpolation": 0}]}, "blue": {"Points": [{"co": {"X": 1, "Y": 255}, "handle_left": {"X": 0.5, "Y": 1}, "handle_right": {"X": 0.5, "Y": 0}, "handle_type": 0, "interpolation": 0}]}, "green": {"Points": [{"co": {"X": 1, "Y": 123}, "handle_left": {"X": 0.5, "Y": 1}, "handle_right": {"X": 0.5, "Y": 0}, "handle_type": 0, "interpolation": 0}]}, "red": {"Points": [{"co": {"X": 1, "Y": 0}, "handle_left": {"X": 0.5, "Y": 1}, "handle_right": {"X": 0.5, "Y": 0}, "handle_type": 0, "interpolation": 0}]}}, "waveform": false, "file_id": "689UE7LWJF", "title": "18292843-preview.mp4", "image": "/home/diary/.openshot_qt/thumbnail/689UE7LWJF.png"}, {"alpha": {"Points": [{"co": {"X": 1, "Y": 1}, "interpolation": 2}]}, "anchor": 0, "channel_filter": {"Points": [{"co": {"X": 1, "Y": -1}, "interpolation": 2}]}, "channel_mapping": {"Points": [{"co": {"X": 1, "Y": -1}, "interpolation": 2}]}, "crop_height": {"Points": [{"co": {"X": 1, "Y": -1}, "interpolation": 2}]}, "crop_width": {"Points": [{"co": {"X": 1, "Y": -1}, "interpolation": 2}]}, "crop_x": {"Points": [{"co": {"X": 1, "Y": 0}, "interpolation": 2}]}, "crop_y": {"Points": [{"co": {"X": 1, "Y": 0}, "interpolation": 2}]}, "display": 0, "duration": 12.033984184265137, "effects": [], "end": 12.033984184265137, "gravity": 4, "has_audio": {"Points": [{"co": {"X": 1, "Y": -1}, "interpolation": 2}]}, "has_video": {"Points": [{"co": {"X": 1, "Y": -1}, "interpolation": 2}]}, "id": "D55F5EIJLL", "layer": 1, "location_x": {"Points": [{"co": {"X": 1, "Y": 0}, "interpolation": 2}]}, "location_y": {"Points": [{"co": {"X": 1, "Y": 0}, "interpolation": 2}]}, "perspective_c1_x": {"Points": [{"co": {"X": 1, "Y": -1}, "interpolation": 2}]}, "perspective_c1_y": {"Points": [{"co": {"X": 1, "Y": -1}, "interpolation": 2}]}, "perspective_c2_x": {"Points": [{"co": {"X": 1, "Y": -1}, "interpolation": 2}]}, "perspective_c2_y": {"Points": [{"co": {"X": 1, "Y": -1}, "interpolation": 2}]}, "perspective_c3_x": {"Points": [{"co": {"X": 1, "Y": -1}, "interpolation": 2}]}, "perspective_c3_y": {"Points": [{"co": {"X": 1, "Y": -1}, "interpolation": 2}]}, "perspective_c4_x": {"Points": [{"co": {"X": 1, "Y": -1}, "interpolation": 2}]}, "perspective_c4_y": {"Points": [{"co": {"X": 1, "Y": -1}, "interpolation": 2}]}, "position": 302.56, "reader": {"acodec": "", "audio_bit_rate": 0, "audio_stream_index": -1, "audio_timebase": {"den": 1, "num": 1}, "channel_layout": 4, "channels": 0, "display_ratio": {"den": 84, "num": 149}, "duration": 12.033984184265137, "file_size": "1559140", "fps": {"den": 1, "num": 30}, "has_audio": false, "has_single_image": false, "has_video": true, "height": 336, "interlaced_frame": false, "path": "/home/diary/Desktop/\u041a\u043e\u043d\u0446\u0435\u043f\u0442\u044b/64. \u041f\u0440\u0438\u0447\u0438\u043d\u044b \u0431\u043e\u043b\u0435\u0437\u043d\u0435\u0439/video assets/18846515-preview.mp4", "pixel_format": 0, "pixel_ratio": {"den": 1, "num": 1}, "sample_rate": 0, "top_field_first": true, "type": "FFmpegReader", "vcodec": "h264", "video_bit_rate": 1036489, "video_length": "361", "video_stream_index": 0, "video_timebase": {"den": 15360, "num": 1}, "width": 596}, "rotation": {"Points": [{"co": {"X": 1, "Y": 0}, "interpolation": 2}]}, "scale": 1, "scale_x": {"Points": [{"co": {"X": 1, "Y": 1}, "interpolation": 2}]}, "scale_y": {"Points": [{"co": {"X": 1, "Y": 1}, "interpolation": 2}]}, "shear_x": {"Points": [{"co": {"X": 1, "Y": 0}, "interpolation": 2}]}, "shear_y": {"Points": [{"co": {"X": 1, "Y": 0}, "interpolation": 2}]}, "start": 0, "time": {"Points": [{"co": {"X": 1, "Y": 1}, "interpolation": 2}]}, "volume": {"Points": [{"co": {"X": 1, "Y": 1}, "interpolation": 2}]}, "wave_color": {"alpha": {"Points": [{"co": {"X": 1, "Y": 255}, "handle_left": {"X": 0.5, "Y": 1}, "handle_right": {"X": 0.5, "Y": 0}, "handle_type": 0, "interpolation": 0}]}, "blue": {"Points": [{"co": {"X": 1, "Y": 255}, "handle_left": {"X": 0.5, "Y": 1}, "handle_right": {"X": 0.5, "Y": 0}, "handle_type": 0, "interpolation": 0}]}, "green": {"Points": [{"co": {"X": 1, "Y": 123}, "handle_left": {"X": 0.5, "Y": 1}, "handle_right": {"X": 0.5, "Y": 0}, "handle_type": 0, "interpolation": 0}]}, "red": {"Points": [{"co": {"X": 1, "Y": 0}, "handle_left": {"X": 0.5, "Y": 1}, "handle_right": {"X": 0.5, "Y": 0}, "handle_type": 0, "interpolation": 0}]}}, "waveform": false, "file_id": "TRSUKVWH99", "title": "18846515-preview.mp4", "image": "/home/diary/.openshot_qt/thumbnail/TRSUKVWH99.png"}, {"alpha": {"Points": [{"co": {"X": 1, "Y": 1}, "interpolation": 2}]}, "anchor": 0, "channel_filter": {"Points": [{"co": {"X": 1, "Y": -1}, "interpolation": 2}]}, "channel_mapping": {"Points": [{"co": {"X": 1, "Y": -1}, "interpolation": 2}]}, "crop_height": {"Points": [{"co": {"X": 1, "Y": -1}, "interpolation": 2}]}, "crop_width": {"Points": [{"co": {"X": 1, "Y": -1}, "interpolation": 2}]}, "crop_x": {"Points": [{"co": {"X": 1, "Y": 0}, "interpolation": 2}]}, "crop_y": {"Points": [{"co": {"X": 1, "Y": 0}, "interpolation": 2}]}, "display": 0, "duration": 30.030000686645508, "effects": [], "end": 30.030000686645508, "gravity": 4, "has_audio": {"Points": [{"co": {"X": 1, "Y": -1}, "interpolation": 2}]}, "has_video": {"Points": [{"co": {"X": 1, "Y": -1}, "interpolation": 2}]}, "id": "2YH5LK89RE", "layer": 1, "location_x": {"Points": [{"co": {"X": 1, "Y": 0}, "interpolation": 2}]}, "location_y": {"Points": [{"co": {"X": 1, "Y": 0}, "interpolation": 2}]}, "perspective_c1_x": {"Points": [{"co": {"X": 1, "Y": -1}, "interpolation": 2}]}, "perspective_c1_y": {"Points": [{"co": {"X": 1, "Y": -1}, "interpolation": 2}]}, "perspective_c2_x": {"Points": [{"co": {"X": 1, "Y": -1}, "interpolation": 2}]}, "perspective_c2_y": {"Points": [{"co": {"X": 1, "Y": -1}, "interpolation": 2}]}, "perspective_c3_x": {"Points": [{"co": {"X": 1, "Y": -1}, "interpolation": 2}]}, "perspective_c3_y": {"Points": [{"co": {"X": 1, "Y": -1}, "interpolation": 2}]}, "perspective_c4_x": {"Points": [{"co": {"X": 1, "Y": -1}, "interpolation": 2}]}, "perspective_c4_y": {"Points": [{"co": {"X": 1, "Y": -1}, "interpolation": 2}]}, "position": 320.64, "reader": {"acodec": "", "audio_bit_rate": 0, "audio_stream_index": -1, "audio_timebase": {"den": 1, "num": 1}, "channel_layout": 4, "channels": 0, "display_ratio": {"den": 84, "num": 149}, "duration": 30.030000686645508, "file_size": "3660080", "fps": {"den": 1001, "num": 60000}, "has_audio": false, "has_single_image": false, "has_video": true, "height": 336, "interlaced_frame": false, "path": "/home/diary/Desktop/\u041a\u043e\u043d\u0446\u0435\u043f\u0442\u044b/64. \u041f\u0440\u0438\u0447\u0438\u043d\u044b \u0431\u043e\u043b\u0435\u0437\u043d\u0435\u0439/video assets/25507277-preview.mp4", "pixel_format": 0, "pixel_ratio": {"den": 1, "num": 1}, "sample_rate": 0, "top_field_first": true, "type": "FFmpegReader", "vcodec": "h264", "video_bit_rate": 975046, "video_length": "1800", "video_stream_index": 0, "video_timebase": {"den": 60000, "num": 1}, "width": 596}, "rotation": {"Points": [{"co": {"X": 1, "Y": 0}, "interpolation": 2}]}, "scale": 1, "scale_x": {"Points": [{"co": {"X": 1, "Y": 1}, "interpolation": 2}]}, "scale_y": {"Points": [{"co": {"X": 1, "Y": 1}, "interpolation": 2}]}, "shear_x": {"Points": [{"co": {"X": 1, "Y": 0}, "interpolation": 2}]}, "shear_y": {"Points": [{"co": {"X": 1, "Y": 0}, "interpolation": 2}]}, "start": 0, "time": {"Points": [{"co": {"X": 1, "Y": 1}, "interpolation": 2}]}, "volume": {"Points": [{"co": {"X": 1, "Y": 1}, "interpolation": 2}]}, "wave_color": {"alpha": {"Points": [{"co": {"X": 1, "Y": 255}, "handle_left": {"X": 0.5, "Y": 1}, "handle_right": {"X": 0.5, "Y": 0}, "handle_type": 0, "interpolation": 0}]}, "blue": {"Points": [{"co": {"X": 1, "Y": 255}, "handle_left": {"X": 0.5, "Y": 1}, "handle_right": {"X": 0.5, "Y": 0}, "handle_type": 0, "interpolation": 0}]}, "green": {"Points": [{"co": {"X": 1, "Y": 123}, "handle_left": {"X": 0.5, "Y": 1}, "handle_right": {"X": 0.5, "Y": 0}, "handle_type": 0, "interpolation": 0}]}, "red": {"Points": [{"co": {"X": 1, "Y": 0}, "handle_left": {"X": 0.5, "Y": 1}, "handle_right": {"X": 0.5, "Y": 0}, "handle_type": 0, "interpolation": 0}]}}, "waveform": false, "file_id": "74FLNFK7DU", "title": "25507277-preview.mp4", "image": "/home/diary/.openshot_qt/thumbnail/74FLNFK7DU.png"}, {"alpha": {"Points": [{"co": {"X": 1, "Y": 1}, "interpolation": 2}]}, "anchor": 0, "channel_filter": {"Points": [{"co": {"X": 1, "Y": -1}, "interpolation": 2}]}, "channel_mapping": {"Points": [{"co": {"X": 1, "Y": -1}, "interpolation": 2}]}, "crop_height": {"Points": [{"co": {"X": 1, "Y": -1}, "interpolation": 2}]}, "crop_width": {"Points": [{"co": {"X": 1, "Y": -1}, "interpolation": 2}]}, "crop_x": {"Points": [{"co": {"X": 1, "Y": 0}, "interpolation": 2}]}, "crop_y": {"Points": [{"co": {"X": 1, "Y": 0}, "interpolation": 2}]}, "display": 0, "duration": 19.299999237060547, "effects": [], "end": 19.299999237060547, "gravity": 4, "has_audio": {"Points": [{"co": {"X": 1, "Y": -1}, "interpolation": 2}]}, "has_video": {"Points": [{"co": {"X": 1, "Y": -1}, "interpolation": 2}]}, "id": "L00FVPXSI2", "layer": 1, "location_x": {"Points": [{"co": {"X": 1, "Y": 0}, "interpolation": 2}]}, "location_y": {"Points": [{"co": {"X": 1, "Y": 0}, "interpolation": 2}]}, "perspective_c1_x": {"Points": [{"co": {"X": 1, "Y": -1}, "interpolation": 2}]}, "perspective_c1_y": {"Points": [{"co": {"X": 1, "Y": -1}, "interpolation": 2}]}, "perspective_c2_x": {"Points": [{"co": {"X": 1, "Y": -1}, "interpolation": 2}]}, "perspective_c2_y": {"Points": [{"co": {"X": 1, "Y": -1}, "interpolation": 2}]}, "perspective_c3_x": {"Points": [{"co": {"X": 1, "Y": -1}, "interpolation": 2}]}, "perspective_c3_y": {"Points": [{"co": {"X": 1, "Y": -1}, "interpolation": 2}]}, "perspective_c4_x": {"Points": [{"co": {"X": 1, "Y": -1}, "interpolation": 2}]}, "perspective_c4_y": {"Points": [{"co": {"X": 1, "Y": -1}, "interpolation": 2}]}, "position": 355.07999908447266, "reader": {"acodec": "", "audio_bit_rate": 0, "audio_stream_index": -1, "audio_timebase": {"den": 1, "num": 1}, "channel_layout": 4, "channels": 0, "display_ratio": {"den": 84, "num": 149}, "duration": 19.299999237060547, "file_size": "2254903", "fps": {"den": 1, "num": 30}, "has_audio": false, "has_single_image": false, "has_video": true, "height": 336, "interlaced_frame": false, "path": "/home/diary/Desktop/\u041a\u043e\u043d\u0446\u0435\u043f\u0442\u044b/64. \u041f\u0440\u0438\u0447\u0438\u043d\u044b \u0431\u043e\u043b\u0435\u0437\u043d\u0435\u0439/video assets/26828902-preview.mp4", "pixel_format": 0, "pixel_ratio": {"den": 1, "num": 1}, "sample_rate": 0, "top_field_first": true, "type": "FFmpegReader", "vcodec": "h264", "video_bit_rate": 934674, "video_length": "579", "video_stream_index": 0, "video_timebase": {"den": 15360, "num": 1}, "width": 596}, "rotation": {"Points": [{"co": {"X": 1, "Y": 0}, "interpolation": 2}]}, "scale": 1, "scale_x": {"Points": [{"co": {"X": 1, "Y": 1}, "interpolation": 2}]}, "scale_y": {"Points": [{"co": {"X": 1, "Y": 1}, "interpolation": 2}]}, "shear_x": {"Points": [{"co": {"X": 1, "Y": 0}, "interpolation": 2}]}, "shear_y": {"Points": [{"co": {"X": 1, "Y": 0}, "interpolation": 2}]}, "start": 0, "time": {"Points": [{"co": {"X": 1, "Y": 1}, "interpolation": 2}]}, "volume": {"Points": [{"co": {"X": 1, "Y": 1}, "interpolation": 2}]}, "wave_color": {"alpha": {"Points": [{"co": {"X": 1, "Y": 255}, "handle_left": {"X": 0.5, "Y": 1}, "handle_right": {"X": 0.5, "Y": 0}, "handle_type": 0, "interpolation": 0}]}, "blue": {"Points": [{"co": {"X": 1, "Y": 255}, "handle_left": {"X": 0.5, "Y": 1}, "handle_right": {"X": 0.5, "Y": 0}, "handle_type": 0, "interpolation": 0}]}, "green": {"Points": [{"co": {"X": 1, "Y": 123}, "handle_left": {"X": 0.5, "Y": 1}, "handle_right": {"X": 0.5, "Y": 0}, "handle_type": 0, "interpolation": 0}]}, "red": {"Points": [{"co": {"X": 1, "Y": 0}, "handle_left": {"X": 0.5, "Y": 1}, "handle_right": {"X": 0.5, "Y": 0}, "handle_type": 0, "interpolation": 0}]}}, "waveform": false, "file_id": "IFYA03SB19", "title": "26828902-preview.mp4", "image": "/home/diary/.openshot_qt/thumbnail/IFYA03SB19.png"}, {"alpha": {"Points": [{"co": {"X": 1, "Y": 1}, "interpolation": 2}]}, "anchor": 0, "channel_filter": {"Points": [{"co": {"X": 1, "Y": -1}, "interpolation": 2}]}, "channel_mapping": {"Points": [{"co": {"X": 1, "Y": -1}, "interpolation": 2}]}, "crop_height": {"Points": [{"co": {"X": 1, "Y": -1}, "interpolation": 2}]}, "crop_width": {"Points": [{"co": {"X": 1, "Y": -1}, "interpolation": 2}]}, "crop_x": {"Points": [{"co": {"X": 1, "Y": 0}, "interpolation": 2}]}, "crop_y": {"Points": [{"co": {"X": 1, "Y": 0}, "interpolation": 2}]}, "display": 0, "duration": 8.451982498168945, "effects": [], "end": 8.451982498168945, "gravity": 4, "has_audio": {"Points": [{"co": {"X": 1, "Y": -1}, "interpolation": 2}]}, "has_video": {"Points": [{"co": {"X": 1, "Y": -1}, "interpolation": 2}]}, "id": "HJJ4LDWCN9", "layer": 1, "location_x": {"Points": [{"co": {"X": 1, "Y": 0}, "interpolation": 2}]}, "location_y": {"Points": [{"co": {"X": 1, "Y": 0}, "interpolation": 2}]}, "perspective_c1_x": {"Points": [{"co": {"X": 1, "Y": -1}, "interpolation": 2}]}, "perspective_c1_y": {"Points": [{"co": {"X": 1, "Y": -1}, "interpolation": 2}]}, "perspective_c2_x": {"Points": [{"co": {"X": 1, "Y": -1}, "interpolation": 2}]}, "perspective_c2_y": {"Points": [{"co": {"X": 1, "Y": -1}, "interpolation": 2}]}, "perspective_c3_x": {"Points": [{"co": {"X": 1, "Y": -1}, "interpolation": 2}]}, "perspective_c3_y": {"Points": [{"co": {"X": 1, "Y": -1}, "interpolation": 2}]}, "perspective_c4_x": {"Points": [{"co": {"X": 1, "Y": -1}, "interpolation": 2}]}, "perspective_c4_y": {"Points": [{"co": {"X": 1, "Y": -1}, "interpolation": 2}]}, "position": 377.76, "reader": {"acodec": "", "audio_bit_rate": 0, "audio_stream_index": -1, "audio_timebase": {"den": 1, "num": 1}, "channel_layout": 4, "channels": 0, "display_ratio": {"den": 84, "num": 149}, "duration": 8.451982498168945, "file_size": "1148399", "fps": {"den": 12, "num": 301}, "has_audio": false, "has_single_image": false, "has_video": true, "height": 336, "interlaced_frame": false, "path": "/home/diary/Desktop/\u041a\u043e\u043d\u0446\u0435\u043f\u0442\u044b/64. \u041f\u0440\u0438\u0447\u0438\u043d\u044b \u0431\u043e\u043b\u0435\u0437\u043d\u0435\u0439/video assets/1008850895-preview.mp4", "pixel_format": 0, "pixel_ratio": {"den": 1, "num": 1}, "sample_rate": 0, "top_field_first": true, "type": "FFmpegReader", "vcodec": "h264", "video_bit_rate": 1086984, "video_length": "212", "video_stream_index": 0, "video_timebase": {"den": 19264, "num": 1}, "width": 596}, "rotation": {"Points": [{"co": {"X": 1, "Y": 0}, "interpolation": 2}]}, "scale": 1, "scale_x": {"Points": [{"co": {"X": 1, "Y": 1}, "interpolation": 2}]}, "scale_y": {"Points": [{"co": {"X": 1, "Y": 1}, "interpolation": 2}]}, "shear_x": {"Points": [{"co": {"X": 1, "Y": 0}, "interpolation": 2}]}, "shear_y": {"Points": [{"co": {"X": 1, "Y": 0}, "interpolation": 2}]}, "start": 0, "time": {"Points": [{"co": {"X": 1, "Y": 1}, "interpolation": 2}]}, "volume": {"Points": [{"co": {"X": 1, "Y": 1}, "interpolation": 2}]}, "wave_color": {"alpha": {"Points": [{"co": {"X": 1, "Y": 255}, "handle_left": {"X": 0.5, "Y": 1}, "handle_right": {"X": 0.5, "Y": 0}, "handle_type": 0, "interpolation": 0}]}, "blue": {"Points": [{"co": {"X": 1, "Y": 255}, "handle_left": {"X": 0.5, "Y": 1}, "handle_right": {"X": 0.5, "Y": 0}, "handle_type": 0, "interpolation": 0}]}, "green": {"Points": [{"co": {"X": 1, "Y": 123}, "handle_left": {"X": 0.5, "Y": 1}, "handle_right": {"X": 0.5, "Y": 0}, "handle_type": 0, "interpolation": 0}]}, "red": {"Points": [{"co": {"X": 1, "Y": 0}, "handle_left": {"X": 0.5, "Y": 1}, "handle_right": {"X": 0.5, "Y": 0}, "handle_type": 0, "interpolation": 0}]}}, "waveform": false, "file_id": "2D1LKDBFPE", "title": "1008850895-preview.mp4", "image": "/home/diary/.openshot_qt/thumbnail/2D1LKDBFPE.png"}, {"alpha": {"Points": [{"co": {"X": 1, "Y": 1}, "interpolation": 2}]}, "anchor": 0, "channel_filter": {"Points": [{"co": {"X": 1, "Y": -1}, "interpolation": 2}]}, "channel_mapping": {"Points": [{"co": {"X": 1, "Y": -1}, "interpolation": 2}]}, "crop_height": {"Points": [{"co": {"X": 1, "Y": -1}, "interpolation": 2}]}, "crop_width": {"Points": [{"co": {"X": 1, "Y": -1}, "interpolation": 2}]}, "crop_x": {"Points": [{"co": {"X": 1, "Y": 0}, "interpolation": 2}]}, "crop_y": {"Points": [{"co": {"X": 1, "Y": 0}, "interpolation": 2}]}, "display": 0, "duration": 17.207000732421875, "effects": [], "end": 17.207000732421875, "gravity": 4, "has_audio": {"Points": [{"co": {"X": 1, "Y": -1}, "interpolation": 2}]}, "has_video": {"Points": [{"co": {"X": 1, "Y": -1}, "interpolation": 2}]}, "id": "UGQQ7546SS", "layer": 1, "location_x": {"Points": [{"co": {"X": 1, "Y": 0}, "interpolation": 2}]}, "location_y": {"Points": [{"co": {"X": 1, "Y": 0}, "interpolation": 2}]}, "perspective_c1_x": {"Points": [{"co": {"X": 1, "Y": -1}, "interpolation": 2}]}, "perspective_c1_y": {"Points": [{"co": {"X": 1, "Y": -1}, "interpolation": 2}]}, "perspective_c2_x": {"Points": [{"co": {"X": 1, "Y": -1}, "interpolation": 2}]}, "perspective_c2_y": {"Points": [{"co": {"X": 1, "Y": -1}, "interpolation": 2}]}, "perspective_c3_x": {"Points": [{"co": {"X": 1, "Y": -1}, "interpolation": 2}]}, "perspective_c3_y": {"Points": [{"co": {"X": 1, "Y": -1}, "interpolation": 2}]}, "perspective_c4_x": {"Points": [{"co": {"X": 1, "Y": -1}, "interpolation": 2}]}, "perspective_c4_y": {"Points": [{"co": {"X": 1, "Y": -1}, "interpolation": 2}]}, "position": 389.36, "reader": {"acodec": "", "audio_bit_rate": 0, "audio_stream_index": -1, "audio_timebase": {"den": 1, "num": 1}, "channel_layout": 4, "channels": 0, "display_ratio": {"den": 84, "num": 149}, "duration": 17.207000732421875, "file_size": "2079960", "fps": {"den": 109869, "num": 2752000}, "has_audio": false, "has_single_image": false, "has_video": true, "height": 336, "interlaced_frame": false, "path": "/home/diary/Desktop/\u041a\u043e\u043d\u0446\u0435\u043f\u0442\u044b/64. \u041f\u0440\u0438\u0447\u0438\u043d\u044b \u0431\u043e\u043b\u0435\u0437\u043d\u0435\u0439/video assets/1008850913-preview.mp4", "pixel_format": 0, "pixel_ratio": {"den": 1, "num": 1}, "sample_rate": 0, "top_field_first": true, "type": "FFmpegReader", "vcodec": "h264", "video_bit_rate": 967029, "video_length": "431", "video_stream_index": 0, "video_timebase": {"den": 2752000, "num": 1}, "width": 596}, "rotation": {"Points": [{"co": {"X": 1, "Y": 0}, "interpolation": 2}]}, "scale": 1, "scale_x": {"Points": [{"co": {"X": 1, "Y": 1}, "interpolation": 2}]}, "scale_y": {"Points": [{"co": {"X": 1, "Y": 1}, "interpolation": 2}]}, "shear_x": {"Points": [{"co": {"X": 1, "Y": 0}, "interpolation": 2}]}, "shear_y": {"Points": [{"co": {"X": 1, "Y": 0}, "interpolation": 2}]}, "start": 0, "time": {"Points": [{"co": {"X": 1, "Y": 1}, "interpolation": 2}]}, "volume": {"Points": [{"co": {"X": 1, "Y": 1}, "interpolation": 2}]}, "wave_color": {"alpha": {"Points": [{"co": {"X": 1, "Y": 255}, "handle_left": {"X": 0.5, "Y": 1}, "handle_right": {"X": 0.5, "Y": 0}, "handle_type": 0, "interpolation": 0}]}, "blue": {"Points": [{"co": {"X": 1, "Y": 255}, "handle_left": {"X": 0.5, "Y": 1}, "handle_right": {"X": 0.5, "Y": 0}, "handle_type": 0, "interpolation": 0}]}, "green": {"Points": [{"co": {"X": 1, "Y": 123}, "handle_left": {"X": 0.5, "Y": 1}, "handle_right": {"X": 0.5, "Y": 0}, "handle_type": 0, "interpolation": 0}]}, "red": {"Points": [{"co": {"X": 1, "Y": 0}, "handle_left": {"X": 0.5, "Y": 1}, "handle_right": {"X": 0.5, "Y": 0}, "handle_type": 0, "interpolation": 0}]}}, "waveform": false, "file_id": "5ANJQ3DRT6", "title": "1008850913-preview.mp4", "image": "/home/diary/.openshot_qt/thumbnail/5ANJQ3DRT6.png"}, {"alpha": {"Points": [{"co": {"X": 1, "Y": 1}, "interpolation": 2}]}, "anchor": 0, "channel_filter": {"Points": [{"co": {"X": 1, "Y": -1}, "interpolation": 2}]}, "channel_mapping": {"Points": [{"co": {"X": 1, "Y": -1}, "interpolation": 2}]}, "crop_height": {"Points": [{"co": {"X": 1, "Y": -1}, "interpolation": 2}]}, "crop_width": {"Points": [{"co": {"X": 1, "Y": -1}, "interpolation": 2}]}, "crop_x": {"Points": [{"co": {"X": 1, "Y": 0}, "interpolation": 2}]}, "crop_y": {"Points": [{"co": {"X": 1, "Y": 0}, "interpolation": 2}]}, "display": 0, "duration": 13.5, "effects": [], "end": 13.5, "gravity": 4, "has_audio": {"Points": [{"co": {"X": 1, "Y": -1}, "interpolation": 2}]}, "has_video": {"Points": [{"co": {"X": 1, "Y": -1}, "interpolation": 2}]}, "id": "YPKL9WEMLR", "layer": 1, "location_x": {"Points": [{"co": {"X": 1, "Y": 0}, "interpolation": 2}]}, "location_y": {"Points": [{"co": {"X": 1, "Y": 0}, "interpolation": 2}]}, "perspective_c1_x": {"Points": [{"co": {"X": 1, "Y": -1}, "interpolation": 2}]}, "perspective_c1_y": {"Points": [{"co": {"X": 1, "Y": -1}, "interpolation": 2}]}, "perspective_c2_x": {"Points": [{"co": {"X": 1, "Y": -1}, "interpolation": 2}]}, "perspective_c2_y": {"Points": [{"co": {"X": 1, "Y": -1}, "interpolation": 2}]}, "perspective_c3_x": {"Points": [{"co": {"X": 1, "Y": -1}, "interpolation": 2}]}, "perspective_c3_y": {"Points": [{"co": {"X": 1, "Y": -1}, "interpolation": 2}]}, "perspective_c4_x": {"Points": [{"co": {"X": 1, "Y": -1}, "interpolation": 2}]}, "perspective_c4_y": {"Points": [{"co": {"X": 1, "Y": -1}, "interpolation": 2}]}, "position": 410.875, "reader": {"acodec": "", "audio_bit_rate": 0, "audio_stream_index": -1, "audio_timebase": {"den": 1, "num": 1}, "channel_layout": 4, "channels": 0, "display_ratio": {"den": 84, "num": 149}, "duration": 13.5, "file_size": "1421739", "fps": {"den": 1, "num": 30}, "has_audio": false, "has_single_image": false, "has_video": true, "height": 336, "interlaced_frame": false, "path": "/home/diary/Desktop/\u041a\u043e\u043d\u0446\u0435\u043f\u0442\u044b/64. \u041f\u0440\u0438\u0447\u0438\u043d\u044b \u0431\u043e\u043b\u0435\u0437\u043d\u0435\u0439/video assets/1009464575-preview.mp4", "pixel_format": 0, "pixel_ratio": {"den": 1, "num": 1}, "sample_rate": 0, "top_field_first": true, "type": "FFmpegReader", "vcodec": "h264", "video_bit_rate": 842512, "video_length": "405", "video_stream_index": 0, "video_timebase": {"den": 15360, "num": 1}, "width": 596}, "rotation": {"Points": [{"co": {"X": 1, "Y": 0}, "interpolation": 2}]}, "scale": 1, "scale_x": {"Points": [{"co": {"X": 1, "Y": 1}, "interpolation": 2}]}, "scale_y": {"Points": [{"co": {"X": 1, "Y": 1}, "interpolation": 2}]}, "shear_x": {"Points": [{"co": {"X": 1, "Y": 0}, "interpolation": 2}]}, "shear_y": {"Points": [{"co": {"X": 1, "Y": 0}, "interpolation": 2}]}, "start": 0, "time": {"Points": [{"co": {"X": 1, "Y": 1}, "interpolation": 2}]}, "volume": {"Points": [{"co": {"X": 1, "Y": 1}, "interpolation": 2}]}, "wave_color": {"alpha": {"Points": [{"co": {"X": 1, "Y": 255}, "handle_left": {"X": 0.5, "Y": 1}, "handle_right": {"X": 0.5, "Y": 0}, "handle_type": 0, "interpolation": 0}]}, "blue": {"Points": [{"co": {"X": 1, "Y": 255}, "handle_left": {"X": 0.5, "Y": 1}, "handle_right": {"X": 0.5, "Y": 0}, "handle_type": 0, "interpolation": 0}]}, "green": {"Points": [{"co": {"X": 1, "Y": 123}, "handle_left": {"X": 0.5, "Y": 1}, "handle_right": {"X": 0.5, "Y": 0}, "handle_type": 0, "interpolation": 0}]}, "red": {"Points": [{"co": {"X": 1, "Y": 0}, "handle_left": {"X": 0.5, "Y": 1}, "handle_right": {"X": 0.5, "Y": 0}, "handle_type": 0, "interpolation": 0}]}}, "waveform": false, "file_id": "E1WTKOKJLM", "title": "1009464575-preview.mp4", "image": "/home/diary/.openshot_qt/thumbnail/E1WTKOKJLM.png"}, {"alpha": {"Points": [{"co": {"X": 1, "Y": 1}, "interpolation": 2}]}, "anchor": 0, "channel_filter": {"Points": [{"co": {"X": 1, "Y": -1}, "interpolation": 2}]}, "channel_mapping": {"Points": [{"co": {"X": 1, "Y": -1}, "interpolation": 2}]}, "crop_height": {"Points": [{"co": {"X": 1, "Y": -1}, "interpolation": 2}]}, "crop_width": {"Points": [{"co": {"X": 1, "Y": -1}, "interpolation": 2}]}, "crop_x": {"Points": [{"co": {"X": 1, "Y": 0}, "interpolation": 2}]}, "crop_y": {"Points": [{"co": {"X": 1, "Y": 0}, "interpolation": 2}]}, "display": 0, "duration": 10.277000427246094, "effects": [], "end": 10.277000427246094, "gravity": 4, "has_audio": {"Points": [{"co": {"X": 1, "Y": -1}, "interpolation": 2}]}, "has_video": {"Points": [{"co": {"X": 1, "Y": -1}, "interpolation": 2}]}, "id": "60SW0D3JON", "layer": 2, "location_x": {"Points": [{"co": {"X": 1, "Y": 0}, "interpolation": 2}]}, "location_y": {"Points": [{"co": {"X": 1, "Y": 0}, "interpolation": 2}]}, "perspective_c1_x": {"Points": [{"co": {"X": 1, "Y": -1}, "interpolation": 2}]}, "perspective_c1_y": {"Points": [{"co": {"X": 1, "Y": -1}, "interpolation": 2}]}, "perspective_c2_x": {"Points": [{"co": {"X": 1, "Y": -1}, "interpolation": 2}]}, "perspective_c2_y": {"Points": [{"co": {"X": 1, "Y": -1}, "interpolation": 2}]}, "perspective_c3_x": {"Points": [{"co": {"X": 1, "Y": -1}, "interpolation": 2}]}, "perspective_c3_y": {"Points": [{"co": {"X": 1, "Y": -1}, "interpolation": 2}]}, "perspective_c4_x": {"Points": [{"co": {"X": 1, "Y": -1}, "interpolation": 2}]}, "perspective_c4_y": {"Points": [{"co": {"X": 1, "Y": -1}, "interpolation": 2}]}, "position": 253.92, "reader": {"acodec": "", "audio_bit_rate": 0, "audio_stream_index": -1, "audio_timebase": {"den": 1, "num": 1}, "channel_layout": 4, "channels": 0, "display_ratio": {"den": 84, "num": 149}, "duration": 10.277000427246094, "file_size": "1265434", "fps": {"den": 1001, "num": 30000}, "has_audio": false, "has_single_image": false, "has_video": true, "height": 336, "interlaced_frame": false, "path": "/home/diary/Desktop/\u041a\u043e\u043d\u0446\u0435\u043f\u0442\u044b/64. \u041f\u0440\u0438\u0447\u0438\u043d\u044b \u0431\u043e\u043b\u0435\u0437\u043d\u0435\u0439/video assets/1009568600-preview.mp4", "pixel_format": 0, "pixel_ratio": {"den": 1, "num": 1}, "sample_rate": 0, "top_field_first": true, "type": "FFmpegReader", "vcodec": "h264", "video_bit_rate": 985061, "video_length": "308", "video_stream_index": 0, "video_timebase": {"den": 30000, "num": 1}, "width": 596}, "rotation": {"Points": [{"co": {"X": 1, "Y": 0}, "interpolation": 2}]}, "scale": 1, "scale_x": {"Points": [{"co": {"X": 1, "Y": 1}, "interpolation": 2}]}, "scale_y": {"Points": [{"co": {"X": 1, "Y": 1}, "interpolation": 2}]}, "shear_x": {"Points": [{"co": {"X": 1, "Y": 0}, "interpolation": 2}]}, "shear_y": {"Points": [{"co": {"X": 1, "Y": 0}, "interpolation": 2}]}, "start": 0, "time": {"Points": [{"co": {"X": 1, "Y": 1}, "interpolation": 2}]}, "volume": {"Points": [{"co": {"X": 1, "Y": 1}, "interpolation": 2}]}, "wave_color": {"alpha": {"Points": [{"co": {"X": 1, "Y": 255}, "handle_left": {"X": 0.5, "Y": 1}, "handle_right": {"X": 0.5, "Y": 0}, "handle_type": 0, "interpolation": 0}]}, "blue": {"Points": [{"co": {"X": 1, "Y": 255}, "handle_left": {"X": 0.5, "Y": 1}, "handle_right": {"X": 0.5, "Y": 0}, "handle_type": 0, "interpolation": 0}]}, "green": {"Points": [{"co": {"X": 1, "Y": 123}, "handle_left": {"X": 0.5, "Y": 1}, "handle_right": {"X": 0.5, "Y": 0}, "handle_type": 0, "interpolation": 0}]}, "red": {"Points": [{"co": {"X": 1, "Y": 0}, "handle_left": {"X": 0.5, "Y": 1}, "handle_right": {"X": 0.5, "Y": 0}, "handle_type": 0, "interpolation": 0}]}}, "waveform": false, "file_id": "A4DPRYTBR3", "title": "1009568600-preview.mp4", "image": "/home/diary/.openshot_qt/thumbnail/A4DPRYTBR3.png"}, {"alpha": {"Points": [{"co": {"X": 1, "Y": 1}, "interpolation": 2}]}, "anchor": 0, "channel_filter": {"Points": [{"co": {"X": 1, "Y": -1}, "interpolation": 2}]}, "channel_mapping": {"Points": [{"co": {"X": 1, "Y": -1}, "interpolation": 2}]}, "crop_height": {"Points": [{"co": {"X": 1, "Y": -1}, "interpolation": 2}]}, "crop_width": {"Points": [{"co": {"X": 1, "Y": -1}, "interpolation": 2}]}, "crop_x": {"Points": [{"co": {"X": 1, "Y": 0}, "interpolation": 2}]}, "crop_y": {"Points": [{"co": {"X": 1, "Y": 0}, "interpolation": 2}]}, "display": 0, "duration": 12.5, "effects": [], "end": 12.5, "gravity": 4, "has_audio": {"Points": [{"co": {"X": 1, "Y": -1}, "interpolation": 2}]}, "has_video": {"Points": [{"co": {"X": 1, "Y": -1}, "interpolation": 2}]}, "id": "S81HCG4K8B", "layer": 4, "location_x": {"Points": [{"co": {"X": 1, "Y": 0}, "interpolation": 2}]}, "location_y": {"Points": [{"co": {"X": 1, "Y": 0}, "interpolation": 2}]}, "perspective_c1_x": {"Points": [{"co": {"X": 1, "Y": -1}, "interpolation": 2}]}, "perspective_c1_y": {"Points": [{"co": {"X": 1, "Y": -1}, "interpolation": 2}]}, "perspective_c2_x": {"Points": [{"co": {"X": 1, "Y": -1}, "interpolation": 2}]}, "perspective_c2_y": {"Points": [{"co": {"X": 1, "Y": -1}, "interpolation": 2}]}, "perspective_c3_x": {"Points": [{"co": {"X": 1, "Y": -1}, "interpolation": 2}]}, "perspective_c3_y": {"Points": [{"co": {"X": 1, "Y": -1}, "interpolation": 2}]}, "perspective_c4_x": {"Points": [{"co": {"X": 1, "Y": -1}, "interpolation": 2}]}, "perspective_c4_y": {"Points": [{"co": {"X": 1, "Y": -1}, "interpolation": 2}]}, "position": 332.7275, "reader": {"acodec": "", "audio_bit_rate": 0, "audio_stream_index": -1, "audio_timebase": {"den": 1, "num": 1}, "channel_layout": 4, "channels": 0, "display_ratio": {"den": 84, "num": 149}, "duration": 12.5, "file_size": "1478230", "fps": {"den": 1, "num": 24}, "has_audio": false, "has_single_image": false, "has_video": true, "height": 336, "interlaced_frame": false, "path": "/home/diary/Desktop/\u041a\u043e\u043d\u0446\u0435\u043f\u0442\u044b/64. \u041f\u0440\u0438\u0447\u0438\u043d\u044b \u0431\u043e\u043b\u0435\u0437\u043d\u0435\u0439/video assets/1011337619-preview.mp4", "pixel_format": 0, "pixel_ratio": {"den": 1, "num": 1}, "sample_rate": 0, "top_field_first": true, "type": "FFmpegReader", "vcodec": "h264", "video_bit_rate": 946067, "video_length": "300", "video_stream_index": 0, "video_timebase": {"den": 12288, "num": 1}, "width": 596}, "rotation": {"Points": [{"co": {"X": 1, "Y": 0}, "interpolation": 2}]}, "scale": 1, "scale_x": {"Points": [{"co": {"X": 1, "Y": 1}, "interpolation": 2}]}, "scale_y": {"Points": [{"co": {"X": 1, "Y": 1}, "interpolation": 2}]}, "shear_x": {"Points": [{"co": {"X": 1, "Y": 0}, "interpolation": 2}]}, "shear_y": {"Points": [{"co": {"X": 1, "Y": 0}, "interpolation": 2}]}, "start": 0, "time": {"Points": [{"co": {"X": 1, "Y": 1}, "interpolation": 2}]}, "volume": {"Points": [{"co": {"X": 1, "Y": 1}, "interpolation": 2}]}, "wave_color": {"alpha": {"Points": [{"co": {"X": 1, "Y": 255}, "handle_left": {"X": 0.5, "Y": 1}, "handle_right": {"X": 0.5, "Y": 0}, "handle_type": 0, "interpolation": 0}]}, "blue": {"Points": [{"co": {"X": 1, "Y": 255}, "handle_left": {"X": 0.5, "Y": 1}, "handle_right": {"X": 0.5, "Y": 0}, "handle_type": 0, "interpolation": 0}]}, "green": {"Points": [{"co": {"X": 1, "Y": 123}, "handle_left": {"X": 0.5, "Y": 1}, "handle_right": {"X": 0.5, "Y": 0}, "handle_type": 0, "interpolation": 0}]}, "red": {"Points": [{"co": {"X": 1, "Y": 0}, "handle_left": {"X": 0.5, "Y": 1}, "handle_right": {"X": 0.5, "Y": 0}, "handle_type": 0, "interpolation": 0}]}}, "waveform": false, "file_id": "O6ZG7ZNYW8", "title": "1011337619-preview.mp4", "image": "/home/diary/.openshot_qt/thumbnail/O6ZG7ZNYW8.png"}, {"alpha": {"Points": [{"co": {"X": 1, "Y": 1}, "interpolation": 2}]}, "anchor": 0, "channel_filter": {"Points": [{"co": {"X": 1, "Y": -1}, "interpolation": 2}]}, "channel_mapping": {"Points": [{"co": {"X": 1, "Y": -1}, "interpolation": 2}]}, "crop_height": {"Points": [{"co": {"X": 1, "Y": -1}, "interpolation": 2}]}, "crop_width": {"Points": [{"co": {"X": 1, "Y": -1}, "interpolation": 2}]}, "crop_x": {"Points": [{"co": {"X": 1, "Y": 0}, "interpolation": 2}]}, "crop_y": {"Points": [{"co": {"X": 1, "Y": 0}, "interpolation": 2}]}, "display": 0, "duration": 25.292993545532227, "effects": [], "end": 25.292993545532227, "gravity": 4, "has_audio": {"Points": [{"co": {"X": 1, "Y": -1}, "interpolation": 2}]}, "has_video": {"Points": [{"co": {"X": 1, "Y": -1}, "interpolation": 2}]}, "id": "P45NU8QLL3", "layer": 4, "location_x": {"Points": [{"co": {"X": 1, "Y": 0}, "interpolation": 2}]}, "location_y": {"Points": [{"co": {"X": 1, "Y": 0}, "interpolation": 2}]}, "perspective_c1_x": {"Points": [{"co": {"X": 1, "Y": -1}, "interpolation": 2}]}, "perspective_c1_y": {"Points": [{"co": {"X": 1, "Y": -1}, "interpolation": 2}]}, "perspective_c2_x": {"Points": [{"co": {"X": 1, "Y": -1}, "interpolation": 2}]}, "perspective_c2_y": {"Points": [{"co": {"X": 1, "Y": -1}, "interpolation": 2}]}, "perspective_c3_x": {"Points": [{"co": {"X": 1, "Y": -1}, "interpolation": 2}]}, "perspective_c3_y": {"Points": [{"co": {"X": 1, "Y": -1}, "interpolation": 2}]}, "perspective_c4_x": {"Points": [{"co": {"X": 1, "Y": -1}, "interpolation": 2}]}, "perspective_c4_y": {"Points": [{"co": {"X": 1, "Y": -1}, "interpolation": 2}]}, "position": 350.6700006866455, "reader": {"acodec": "aac", "audio_bit_rate": 2783, "audio_stream_index": 1, "audio_timebase": {"den": 44100, "num": 1}, "channel_layout": 3, "channels": 2, "display_ratio": {"den": 84, "num": 149}, "duration": 25.292993545532227, "file_size": "2738626", "fps": {"den": 1001, "num": 30000}, "has_audio": true, "has_single_image": false, "has_video": true, "height": 336, "interlaced_frame": false, "path": "/home/diary/Desktop/\u041a\u043e\u043d\u0446\u0435\u043f\u0442\u044b/64. \u041f\u0440\u0438\u0447\u0438\u043d\u044b \u0431\u043e\u043b\u0435\u0437\u043d\u0435\u0439/video assets/1013201579-preview.mp4", "pixel_format": 0, "pixel_ratio": {"den": 1, "num": 1}, "sample_rate": 44100, "top_field_first": true, "type": "FFmpegReader", "vcodec": "h264", "video_bit_rate": 865626, "video_length": "758", "video_stream_index": 0, "video_timebase": {"den": 30000, "num": 1}, "width": 596}, "rotation": {"Points": [{"co": {"X": 1, "Y": 0}, "interpolation": 2}]}, "scale": 1, "scale_x": {"Points": [{"co": {"X": 1, "Y": 1}, "interpolation": 2}]}, "scale_y": {"Points": [{"co": {"X": 1, "Y": 1}, "interpolation": 2}]}, "shear_x": {"Points": [{"co": {"X": 1, "Y": 0}, "interpolation": 2}]}, "shear_y": {"Points": [{"co": {"X": 1, "Y": 0}, "interpolation": 2}]}, "start": 0, "time": {"Points": [{"co": {"X": 1, "Y": 1}, "interpolation": 2}]}, "volume": {"Points": [{"co": {"X": 1, "Y": 1}, "interpolation": 2}]}, "wave_color": {"alpha": {"Points": [{"co": {"X": 1, "Y": 255}, "handle_left": {"X": 0.5, "Y": 1}, "handle_right": {"X": 0.5, "Y": 0}, "handle_type": 0, "interpolation": 0}]}, "blue": {"Points": [{"co": {"X": 1, "Y": 255}, "handle_left": {"X": 0.5, "Y": 1}, "handle_right": {"X": 0.5, "Y": 0}, "handle_type": 0, "interpolation": 0}]}, "green": {"Points": [{"co": {"X": 1, "Y": 123}, "handle_left": {"X": 0.5, "Y": 1}, "handle_right": {"X": 0.5, "Y": 0}, "handle_type": 0, "interpolation": 0}]}, "red": {"Points": [{"co": {"X": 1, "Y": 0}, "handle_left": {"X": 0.5, "Y": 1}, "handle_right": {"X": 0.5, "Y": 0}, "handle_type": 0, "interpolation": 0}]}}, "waveform": false, "file_id": "897BSNVSR8", "title": "1013201579-preview.mp4", "image": "/home/diary/.openshot_qt/thumbnail/897BSNVSR8.png"}, {"alpha": {"Points": [{"co": {"X": 1, "Y": 1}, "interpolation": 2}]}, "anchor": 0, "channel_filter": {"Points": [{"co": {"X": 1, "Y": -1}, "interpolation": 2}]}, "channel_mapping": {"Points": [{"co": {"X": 1, "Y": -1}, "interpolation": 2}]}, "crop_height": {"Points": [{"co": {"X": 1, "Y": -1}, "interpolation": 2}]}, "crop_width": {"Points": [{"co": {"X": 1, "Y": -1}, "interpolation": 2}]}, "crop_x": {"Points": [{"co": {"X": 1, "Y": 0}, "interpolation": 2}]}, "crop_y": {"Points": [{"co": {"X": 1, "Y": 0}, "interpolation": 2}]}, "display": 0, "duration": 16.1409969329834, "effects": [], "end": 16.1409969329834, "gravity": 4, "has_audio": {"Points": [{"co": {"X": 1, "Y": -1}, "interpolation": 2}]}, "has_video": {"Points": [{"co": {"X": 1, "Y": -1}, "interpolation": 2}]}, "id": "EA5LYYZO5T", "layer": 4, "location_x": {"Points": [{"co": {"X": 1, "Y": 0}, "interpolation": 2}]}, "location_y": {"Points": [{"co": {"X": 1, "Y": 0}, "interpolation": 2}]}, "perspective_c1_x": {"Points": [{"co": {"X": 1, "Y": -1}, "interpolation": 2}]}, "perspective_c1_y": {"Points": [{"co": {"X": 1, "Y": -1}, "interpolation": 2}]}, "perspective_c2_x": {"Points": [{"co": {"X": 1, "Y": -1}, "interpolation": 2}]}, "perspective_c2_y": {"Points": [{"co": {"X": 1, "Y": -1}, "interpolation": 2}]}, "perspective_c3_x": {"Points": [{"co": {"X": 1, "Y": -1}, "interpolation": 2}]}, "perspective_c3_y": {"Points": [{"co": {"X": 1, "Y": -1}, "interpolation": 2}]}, "perspective_c4_x": {"Points": [{"co": {"X": 1, "Y": -1}, "interpolation": 2}]}, "perspective_c4_y": {"Points": [{"co": {"X": 1, "Y": -1}, "interpolation": 2}]}, "position": 384.0580004501343, "reader": {"acodec": "aac", "audio_bit_rate": 2781, "audio_stream_index": 1, "audio_timebase": {"den": 44100, "num": 1}, "channel_layout": 3, "channels": 2, "display_ratio": {"den": 84, "num": 149}, "duration": 16.1409969329834, "file_size": "1911528", "fps": {"den": 1001, "num": 30000}, "has_audio": true, "has_single_image": false, "has_video": true, "height": 336, "interlaced_frame": false, "path": "/home/diary/Desktop/\u041a\u043e\u043d\u0446\u0435\u043f\u0442\u044b/64. \u041f\u0440\u0438\u0447\u0438\u043d\u044b \u0431\u043e\u043b\u0435\u0437\u043d\u0435\u0439/video assets/1015105216-preview.mp4", "pixel_format": 0, "pixel_ratio": {"den": 1, "num": 1}, "sample_rate": 44100, "top_field_first": true, "type": "FFmpegReader", "vcodec": "h264", "video_bit_rate": 944956, "video_length": "485", "video_stream_index": 0, "video_timebase": {"den": 30000, "num": 1}, "width": 596}, "rotation": {"Points": [{"co": {"X": 1, "Y": 0}, "interpolation": 2}]}, "scale": 1, "scale_x": {"Points": [{"co": {"X": 1, "Y": 1}, "interpolation": 2}]}, "scale_y": {"Points": [{"co": {"X": 1, "Y": 1}, "interpolation": 2}]}, "shear_x": {"Points": [{"co": {"X": 1, "Y": 0}, "interpolation": 2}]}, "shear_y": {"Points": [{"co": {"X": 1, "Y": 0}, "interpolation": 2}]}, "start": 0, "time": {"Points": [{"co": {"X": 1, "Y": 1}, "interpolation": 2}]}, "volume": {"Points": [{"co": {"X": 1, "Y": 1}, "interpolation": 2}]}, "wave_color": {"alpha": {"Points": [{"co": {"X": 1, "Y": 255}, "handle_left": {"X": 0.5, "Y": 1}, "handle_right": {"X": 0.5, "Y": 0}, "handle_type": 0, "interpolation": 0}]}, "blue": {"Points": [{"co": {"X": 1, "Y": 255}, "handle_left": {"X": 0.5, "Y": 1}, "handle_right": {"X": 0.5, "Y": 0}, "handle_type": 0, "interpolation": 0}]}, "green": {"Points": [{"co": {"X": 1, "Y": 123}, "handle_left": {"X": 0.5, "Y": 1}, "handle_right": {"X": 0.5, "Y": 0}, "handle_type": 0, "interpolation": 0}]}, "red": {"Points": [{"co": {"X": 1, "Y": 0}, "handle_left": {"X": 0.5, "Y": 1}, "handle_right": {"X": 0.5, "Y": 0}, "handle_type": 0, "interpolation": 0}]}}, "waveform": false, "file_id": "BSQO44CAX3", "title": "1015105216-preview.mp4", "image": "/home/diary/.openshot_qt/thumbnail/BSQO44CAX3.png"}, {"alpha": {"Points": [{"co": {"X": 1, "Y": 1}, "interpolation": 2}]}, "anchor": 0, "channel_filter": {"Points": [{"co": {"X": 1, "Y": -1}, "interpolation": 2}]}, "channel_mapping": {"Points": [{"co": {"X": 1, "Y": -1}, "interpolation": 2}]}, "crop_height": {"Points": [{"co": {"X": 1, "Y": -1}, "interpolation": 2}]}, "crop_width": {"Points": [{"co": {"X": 1, "Y": -1}, "interpolation": 2}]}, "crop_x": {"Points": [{"co": {"X": 1, "Y": 0}, "interpolation": 2}]}, "crop_y": {"Points": [{"co": {"X": 1, "Y": 0}, "interpolation": 2}]}, "display": 0, "duration": 10.143991470336914, "effects": [], "end": 10.143991470336914, "gravity": 4, "has_audio": {"Points": [{"co": {"X": 1, "Y": -1}, "interpolation": 2}]}, "has_video": {"Points": [{"co": {"X": 1, "Y": -1}, "interpolation": 2}]}, "id": "SGYHHR4NBG", "layer": 4, "location_x": {"Points": [{"co": {"X": 1, "Y": 0}, "interpolation": 2}]}, "location_y": {"Points": [{"co": {"X": 1, "Y": 0}, "interpolation": 2}]}, "perspective_c1_x": {"Points": [{"co": {"X": 1, "Y": -1}, "interpolation": 2}]}, "perspective_c1_y": {"Points": [{"co": {"X": 1, "Y": -1}, "interpolation": 2}]}, "perspective_c2_x": {"Points": [{"co": {"X": 1, "Y": -1}, "interpolation": 2}]}, "perspective_c2_y": {"Points": [{"co": {"X": 1, "Y": -1}, "interpolation": 2}]}, "perspective_c3_x": {"Points": [{"co": {"X": 1, "Y": -1}, "interpolation": 2}]}, "perspective_c3_y": {"Points": [{"co": {"X": 1, "Y": -1}, "interpolation": 2}]}, "perspective_c4_x": {"Points": [{"co": {"X": 1, "Y": -1}, "interpolation": 2}]}, "perspective_c4_y": {"Points": [{"co": {"X": 1, "Y": -1}, "interpolation": 2}]}, "position": 406.5670007324219, "reader": {"acodec": "", "audio_bit_rate": 0, "audio_stream_index": -1, "audio_timebase": {"den": 1, "num": 1}, "channel_layout": 4, "channels": 0, "display_ratio": {"den": 84, "num": 149}, "duration": 10.143991470336914, "file_size": "1221831", "fps": {"den": 6, "num": 181}, "has_audio": false, "has_single_image": false, "has_video": true, "height": 336, "interlaced_frame": false, "path": "/home/diary/Desktop/\u041a\u043e\u043d\u0446\u0435\u043f\u0442\u044b/64. \u041f\u0440\u0438\u0447\u0438\u043d\u044b \u0431\u043e\u043b\u0435\u0437\u043d\u0435\u0439/video assets/1019281846-preview.mp4", "pixel_format": 0, "pixel_ratio": {"den": 1, "num": 1}, "sample_rate": 0, "top_field_first": true, "type": "FFmpegReader", "vcodec": "h264", "video_bit_rate": 963589, "video_length": "306", "video_stream_index": 0, "video_timebase": {"den": 11584, "num": 1}, "width": 596}, "rotation": {"Points": [{"co": {"X": 1, "Y": 0}, "interpolation": 2}]}, "scale": 1, "scale_x": {"Points": [{"co": {"X": 1, "Y": 1}, "interpolation": 2}]}, "scale_y": {"Points": [{"co": {"X": 1, "Y": 1}, "interpolation": 2}]}, "shear_x": {"Points": [{"co": {"X": 1, "Y": 0}, "interpolation": 2}]}, "shear_y": {"Points": [{"co": {"X": 1, "Y": 0}, "interpolation": 2}]}, "start": 0, "time": {"Points": [{"co": {"X": 1, "Y": 1}, "interpolation": 2}]}, "volume": {"Points": [{"co": {"X": 1, "Y": 1}, "interpolation": 2}]}, "wave_color": {"alpha": {"Points": [{"co": {"X": 1, "Y": 255}, "handle_left": {"X": 0.5, "Y": 1}, "handle_right": {"X": 0.5, "Y": 0}, "handle_type": 0, "interpolation": 0}]}, "blue": {"Points": [{"co": {"X": 1, "Y": 255}, "handle_left": {"X": 0.5, "Y": 1}, "handle_right": {"X": 0.5, "Y": 0}, "handle_type": 0, "interpolation": 0}]}, "green": {"Points": [{"co": {"X": 1, "Y": 123}, "handle_left": {"X": 0.5, "Y": 1}, "handle_right": {"X": 0.5, "Y": 0}, "handle_type": 0, "interpolation": 0}]}, "red": {"Points": [{"co": {"X": 1, "Y": 0}, "handle_left": {"X": 0.5, "Y": 1}, "handle_right": {"X": 0.5, "Y": 0}, "handle_type": 0, "interpolation": 0}]}}, "waveform": false, "file_id": "37RK3BVHCD", "title": "1019281846-preview.mp4", "image": "/home/diary/.openshot_qt/thumbnail/37RK3BVHCD.png"}, {"alpha": {"Points": [{"co": {"X": 1, "Y": 1}, "interpolation": 2}]}, "anchor": 0, "channel_filter": {"Points": [{"co": {"X": 1, "Y": -1}, "interpolation": 2}]}, "channel_mapping": {"Points": [{"co": {"X": 1, "Y": -1}, "interpolation": 2}]}, "crop_height": {"Points": [{"co": {"X": 1, "Y": -1}, "interpolation": 2}]}, "crop_width": {"Points": [{"co": {"X": 1, "Y": -1}, "interpolation": 2}]}, "crop_x": {"Points": [{"co": {"X": 1, "Y": 0}, "interpolation": 2}]}, "crop_y": {"Points": [{"co": {"X": 1, "Y": 0}, "interpolation": 2}]}, "display": 0, "duration": 6.400000095367432, "effects": [], "end": 6.400000095367432, "gravity": 4, "has_audio": {"Points": [{"co": {"X": 1, "Y": -1}, "interpolation": 2}]}, "has_video": {"Points": [{"co": {"X": 1, "Y": -1}, "interpolation": 2}]}, "id": "C11WZIDB01", "layer": 2, "location_x": {"Points": [{"co": {"X": 1, "Y": 0}, "interpolation": 2}]}, "location_y": {"Points": [{"co": {"X": 1, "Y": 0}, "interpolation": 2}]}, "perspective_c1_x": {"Points": [{"co": {"X": 1, "Y": -1}, "interpolation": 2}]}, "perspective_c1_y": {"Points": [{"co": {"X": 1, "Y": -1}, "interpolation": 2}]}, "perspective_c2_x": {"Points": [{"co": {"X": 1, "Y": -1}, "interpolation": 2}]}, "perspective_c2_y": {"Points": [{"co": {"X": 1, "Y": -1}, "interpolation": 2}]}, "perspective_c3_x": {"Points": [{"co": {"X": 1, "Y": -1}, "interpolation": 2}]}, "perspective_c3_y": {"Points": [{"co": {"X": 1, "Y": -1}, "interpolation": 2}]}, "perspective_c4_x": {"Points": [{"co": {"X": 1, "Y": -1}, "interpolation": 2}]}, "perspective_c4_y": {"Points": [{"co": {"X": 1, "Y": -1}, "interpolation": 2}]}, "position": 286.56000007629393, "reader": {"acodec": "", "audio_bit_rate": 0, "audio_stream_index": -1, "audio_timebase": {"den": 1, "num": 1}, "channel_layout": 4, "channels": 0, "display_ratio": {"den": 84, "num": 149}, "duration": 6.400000095367432, "file_size": "752329", "fps": {"den": 1, "num": 30}, "has_audio": false, "has_single_image": false, "has_video": true, "height": 336, "interlaced_frame": false, "path": "/home/diary/Desktop/\u041a\u043e\u043d\u0446\u0435\u043f\u0442\u044b/64. \u041f\u0440\u0438\u0447\u0438\u043d\u044b \u0431\u043e\u043b\u0435\u0437\u043d\u0435\u0439/video assets/1016312956-preview.mp4", "pixel_format": 0, "pixel_ratio": {"den": 1, "num": 1}, "sample_rate": 0, "top_field_first": true, "type": "FFmpegReader", "vcodec": "h264", "video_bit_rate": 940411, "video_length": "192", "video_stream_index": 0, "video_timebase": {"den": 15360, "num": 1}, "width": 596}, "rotation": {"Points": [{"co": {"X": 1, "Y": 0}, "interpolation": 2}]}, "scale": 1, "scale_x": {"Points": [{"co": {"X": 1, "Y": 1}, "interpolation": 2}]}, "scale_y": {"Points": [{"co": {"X": 1, "Y": 1}, "interpolation": 2}]}, "shear_x": {"Points": [{"co": {"X": 1, "Y": 0}, "interpolation": 2}]}, "shear_y": {"Points": [{"co": {"X": 1, "Y": 0}, "interpolation": 2}]}, "start": 0, "time": {"Points": [{"co": {"X": 1, "Y": 1}, "interpolation": 2}]}, "volume": {"Points": [{"co": {"X": 1, "Y": 1}, "interpolation": 2}]}, "wave_color": {"alpha": {"Points": [{"co": {"X": 1, "Y": 255}, "handle_left": {"X": 0.5, "Y": 1}, "handle_right": {"X": 0.5, "Y": 0}, "handle_type": 0, "interpolation": 0}]}, "blue": {"Points": [{"co": {"X": 1, "Y": 255}, "handle_left": {"X": 0.5, "Y": 1}, "handle_right": {"X": 0.5, "Y": 0}, "handle_type": 0, "interpolation": 0}]}, "green": {"Points": [{"co": {"X": 1, "Y": 123}, "handle_left": {"X": 0.5, "Y": 1}, "handle_right": {"X": 0.5, "Y": 0}, "handle_type": 0, "interpolation": 0}]}, "red": {"Points": [{"co": {"X": 1, "Y": 0}, "handle_left": {"X": 0.5, "Y": 1}, "handle_right": {"X": 0.5, "Y": 0}, "handle_type": 0, "interpolation": 0}]}}, "waveform": false, "file_id": "6D5T1E4BRH", "title": "1016312956-preview.mp4", "image": "/home/diary/.openshot_qt/thumbnail/6D5T1E4BRH.png"}, {"alpha": {"Points": [{"co": {"X": 1, "Y": 1}, "interpolation": 2}]}, "anchor": 0, "channel_filter": {"Points": [{"co": {"X": 1, "Y": -1}, "interpolation": 2}]}, "channel_mapping": {"Points": [{"co": {"X": 1, "Y": -1}, "interpolation": 2}]}, "crop_height": {"Points": [{"co": {"X": 1, "Y": -1}, "interpolation": 2}]}, "crop_width": {"Points": [{"co": {"X": 1, "Y": -1}, "interpolation": 2}]}, "crop_x": {"Points": [{"co": {"X": 1, "Y": 0}, "interpolation": 2}]}, "crop_y": {"Points": [{"co": {"X": 1, "Y": 0}, "interpolation": 2}]}, "display": 0, "duration": 10.143991470336914, "effects": [], "end": 10.143991470336914, "gravity": 4, "has_audio": {"Points": [{"co": {"X": 1, "Y": -1}, "interpolation": 2}]}, "has_video": {"Points": [{"co": {"X": 1, "Y": -1}, "interpolation": 2}]}, "id": "CSN9JD9AUB", "layer": 3, "location_x": {"Points": [{"co": {"X": 1, "Y": 0}, "interpolation": 2}]}, "location_y": {"Points": [{"co": {"X": 1, "Y": 0}, "interpolation": 2}]}, "perspective_c1_x": {"Points": [{"co": {"X": 1, "Y": -1}, "interpolation": 2}]}, "perspective_c1_y": {"Points": [{"co": {"X": 1, "Y": -1}, "interpolation": 2}]}, "perspective_c2_x": {"Points": [{"co": {"X": 1, "Y": -1}, "interpolation": 2}]}, "perspective_c2_y": {"Points": [{"co": {"X": 1, "Y": -1}, "interpolation": 2}]}, "perspective_c3_x": {"Points": [{"co": {"X": 1, "Y": -1}, "interpolation": 2}]}, "perspective_c3_y": {"Points": [{"co": {"X": 1, "Y": -1}, "interpolation": 2}]}, "perspective_c4_x": {"Points": [{"co": {"X": 1, "Y": -1}, "interpolation": 2}]}, "perspective_c4_y": {"Points": [{"co": {"X": 1, "Y": -1}, "interpolation": 2}]}, "position": 416.7109922027588, "reader": {"acodec": "", "audio_bit_rate": 0, "audio_stream_index": -1, "audio_timebase": {"den": 1, "num": 1}, "channel_layout": 4, "channels": 0, "display_ratio": {"den": 84, "num": 149}, "duration": 10.143991470336914, "file_size": "1221831", "fps": {"den": 6, "num": 181}, "has_audio": false, "has_single_image": false, "has_video": true, "height": 336, "interlaced_frame": false, "path": "/home/diary/Desktop/\u041a\u043e\u043d\u0446\u0435\u043f\u0442\u044b/64. \u041f\u0440\u0438\u0447\u0438\u043d\u044b \u0431\u043e\u043b\u0435\u0437\u043d\u0435\u0439/video assets/1019281846-preview.mp4", "pixel_format": 0, "pixel_ratio": {"den": 1, "num": 1}, "sample_rate": 0, "top_field_first": true, "type": "FFmpegReader", "vcodec": "h264", "video_bit_rate": 963589, "video_length": "306", "video_stream_index": 0, "video_timebase": {"den": 11584, "num": 1}, "width": 596}, "rotation": {"Points": [{"co": {"X": 1, "Y": 0}, "interpolation": 2}]}, "scale": 1, "scale_x": {"Points": [{"co": {"X": 1, "Y": 1}, "interpolation": 2}]}, "scale_y": {"Points": [{"co": {"X": 1, "Y": 1}, "interpolation": 2}]}, "shear_x": {"Points": [{"co": {"X": 1, "Y": 0}, "interpolation": 2}]}, "shear_y": {"Points": [{"co": {"X": 1, "Y": 0}, "interpolation": 2}]}, "start": 0, "time": {"Points": [{"co": {"X": 1, "Y": 1}, "interpolation": 2}]}, "volume": {"Points": [{"co": {"X": 1, "Y": 1}, "interpolation": 2}]}, "wave_color": {"alpha": {"Points": [{"co": {"X": 1, "Y": 255}, "handle_left": {"X": 0.5, "Y": 1}, "handle_right": {"X": 0.5, "Y": 0}, "handle_type": 0, "interpolation": 0}]}, "blue": {"Points": [{"co": {"X": 1, "Y": 255}, "handle_left": {"X": 0.5, "Y": 1}, "handle_right": {"X": 0.5, "Y": 0}, "handle_type": 0, "interpolation": 0}]}, "green": {"Points": [{"co": {"X": 1, "Y": 123}, "handle_left": {"X": 0.5, "Y": 1}, "handle_right": {"X": 0.5, "Y": 0}, "handle_type": 0, "interpolation": 0}]}, "red": {"Points": [{"co": {"X": 1, "Y": 0}, "handle_left": {"X": 0.5, "Y": 1}, "handle_right": {"X": 0.5, "Y": 0}, "handle_type": 0, "interpolation": 0}]}}, "waveform": false, "file_id": "37RK3BVHCD", "title": "1019281846-preview.mp4", "image": "/home/diary/.openshot_qt/thumbnail/37RK3BVHCD.png"}, {"alpha": {"Points": [{"co": {"X": 1, "Y": 1}, "interpolation": 2}]}, "anchor": 0, "channel_filter": {"Points": [{"co": {"X": 1, "Y": -1}, "interpolation": 2}]}, "channel_mapping": {"Points": [{"co": {"X": 1, "Y": -1}, "interpolation": 2}]}, "crop_height": {"Points": [{"co": {"X": 1, "Y": -1}, "interpolation": 2}]}, "crop_width": {"Points": [{"co": {"X": 1, "Y": -1}, "interpolation": 2}]}, "crop_x": {"Points": [{"co": {"X": 1, "Y": 0}, "interpolation": 2}]}, "crop_y": {"Points": [{"co": {"X": 1, "Y": 0}, "interpolation": 2}]}, "display": 0, "duration": 15.015000343322754, "effects": [], "end": 15.015000343322754, "gravity": 4, "has_audio": {"Points": [{"co": {"X": 1, "Y": -1}, "interpolation": 2}]}, "has_video": {"Points": [{"co": {"X": 1, "Y": -1}, "interpolation": 2}]}, "id": "LA4ZKU0J5D", "layer": 4, "location_x": {"Points": [{"co": {"X": 1, "Y": 0}, "interpolation": 2}]}, "location_y": {"Points": [{"co": {"X": 1, "Y": 0}, "interpolation": 2}]}, "perspective_c1_x": {"Points": [{"co": {"X": 1, "Y": -1}, "interpolation": 2}]}, "perspective_c1_y": {"Points": [{"co": {"X": 1, "Y": -1}, "interpolation": 2}]}, "perspective_c2_x": {"Points": [{"co": {"X": 1, "Y": -1}, "interpolation": 2}]}, "perspective_c2_y": {"Points": [{"co": {"X": 1, "Y": -1}, "interpolation": 2}]}, "perspective_c3_x": {"Points": [{"co": {"X": 1, "Y": -1}, "interpolation": 2}]}, "perspective_c3_y": {"Points": [{"co": {"X": 1, "Y": -1}, "interpolation": 2}]}, "perspective_c4_x": {"Points": [{"co": {"X": 1, "Y": -1}, "interpolation": 2}]}, "perspective_c4_y": {"Points": [{"co": {"X": 1, "Y": -1}, "interpolation": 2}]}, "position": 314.59398418426514, "reader": {"acodec": "", "audio_bit_rate": 0, "audio_stream_index": -1, "audio_timebase": {"den": 1, "num": 1}, "channel_layout": 4, "channels": 0, "display_ratio": {"den": 84, "num": 149}, "duration": 15.015000343322754, "file_size": "1533333", "fps": {"den": 1001, "num": 30000}, "has_audio": false, "has_single_image": false, "has_video": true, "height": 336, "interlaced_frame": false, "path": "/home/diary/Desktop/\u041a\u043e\u043d\u0446\u0435\u043f\u0442\u044b/64. \u041f\u0440\u0438\u0447\u0438\u043d\u044b \u0431\u043e\u043b\u0435\u0437\u043d\u0435\u0439/video assets/1025020760-preview.mp4", "pixel_format": 0, "pixel_ratio": {"den": 1, "num": 1}, "sample_rate": 0, "top_field_first": true, "type": "FFmpegReader", "vcodec": "h264", "video_bit_rate": 816960, "video_length": "450", "video_stream_index": 0, "video_timebase": {"den": 30000, "num": 1}, "width": 596}, "rotation": {"Points": [{"co": {"X": 1, "Y": 0}, "interpolation": 2}]}, "scale": 1, "scale_x": {"Points": [{"co": {"X": 1, "Y": 1}, "interpolation": 2}]}, "scale_y": {"Points": [{"co": {"X": 1, "Y": 1}, "interpolation": 2}]}, "shear_x": {"Points": [{"co": {"X": 1, "Y": 0}, "interpolation": 2}]}, "shear_y": {"Points": [{"co": {"X": 1, "Y": 0}, "interpolation": 2}]}, "start": 0, "time": {"Points": [{"co": {"X": 1, "Y": 1}, "interpolation": 2}]}, "volume": {"Points": [{"co": {"X": 1, "Y": 1}, "interpolation": 2}]}, "wave_color": {"alpha": {"Points": [{"co": {"X": 1, "Y": 255}, "handle_left": {"X": 0.5, "Y": 1}, "handle_right": {"X": 0.5, "Y": 0}, "handle_type": 0, "interpolation": 0}]}, "blue": {"Points": [{"co": {"X": 1, "Y": 255}, "handle_left": {"X": 0.5, "Y": 1}, "handle_right": {"X": 0.5, "Y": 0}, "handle_type": 0, "interpolation": 0}]}, "green": {"Points": [{"co": {"X": 1, "Y": 123}, "handle_left": {"X": 0.5, "Y": 1}, "handle_right": {"X": 0.5, "Y": 0}, "handle_type": 0, "interpolation": 0}]}, "red": {"Points": [{"co": {"X": 1, "Y": 0}, "handle_left": {"X": 0.5, "Y": 1}, "handle_right": {"X": 0.5, "Y": 0}, "handle_type": 0, "interpolation": 0}]}}, "waveform": false, "file_id": "PK0GVBXWTM", "title": "1025020760-preview.mp4", "image": "/home/diary/.openshot_qt/thumbnail/PK0GVBXWTM.png"}, {"alpha": {"Points": [{"co": {"X": 1, "Y": 1}, "interpolation": 2}]}, "anchor": 0, "channel_filter": {"Points": [{"co": {"X": 1, "Y": -1}, "interpolation": 2}]}, "channel_mapping": {"Points": [{"co": {"X": 1, "Y": -1}, "interpolation": 2}]}, "crop_height": {"Points": [{"co": {"X": 1, "Y": -1}, "interpolation": 2}]}, "crop_width": {"Points": [{"co": {"X": 1, "Y": -1}, "interpolation": 2}]}, "crop_x": {"Points": [{"co": {"X": 1, "Y": 0}, "interpolation": 2}]}, "crop_y": {"Points": [{"co": {"X": 1, "Y": 0}, "interpolation": 2}]}, "display": 0, "duration": 19.366992950439453, "effects": [], "end": 19.366992950439453, "gravity": 4, "has_audio": {"Points": [{"co": {"X": 1, "Y": -1}, "interpolation": 2}]}, "has_video": {"Points": [{"co": {"X": 1, "Y": -1}, "interpolation": 2}]}, "id": "XBFU5J3IPT", "layer": 4, "location_x": {"Points": [{"co": {"X": 1, "Y": 0}, "interpolation": 2}]}, "location_y": {"Points": [{"co": {"X": 1, "Y": 0}, "interpolation": 2}]}, "perspective_c1_x": {"Points": [{"co": {"X": 1, "Y": -1}, "interpolation": 2}]}, "perspective_c1_y": {"Points": [{"co": {"X": 1, "Y": -1}, "interpolation": 2}]}, "perspective_c2_x": {"Points": [{"co": {"X": 1, "Y": -1}, "interpolation": 2}]}, "perspective_c2_y": {"Points": [{"co": {"X": 1, "Y": -1}, "interpolation": 2}]}, "perspective_c3_x": {"Points": [{"co": {"X": 1, "Y": -1}, "interpolation": 2}]}, "perspective_c3_y": {"Points": [{"co": {"X": 1, "Y": -1}, "interpolation": 2}]}, "perspective_c4_x": {"Points": [{"co": {"X": 1, "Y": -1}, "interpolation": 2}]}, "perspective_c4_y": {"Points": [{"co": {"X": 1, "Y": -1}, "interpolation": 2}]}, "position": 420.16, "reader": {"acodec": "", "audio_bit_rate": 0, "audio_stream_index": -1, "audio_timebase": {"den": 1, "num": 1}, "channel_layout": 4, "channels": 0, "display_ratio": {"den": 84, "num": 149}, "duration": 19.366992950439453, "file_size": "1210742", "fps": {"den": 1, "num": 30}, "has_audio": false, "has_single_image": false, "has_video": true, "height": 336, "interlaced_frame": false, "path": "/home/diary/Desktop/\u041a\u043e\u043d\u0446\u0435\u043f\u0442\u044b/64. \u041f\u0440\u0438\u0447\u0438\u043d\u044b \u0431\u043e\u043b\u0435\u0437\u043d\u0435\u0439/video assets/1031348399-preview.mp4", "pixel_format": 0, "pixel_ratio": {"den": 1, "num": 1}, "sample_rate": 0, "top_field_first": true, "type": "FFmpegReader", "vcodec": "h264", "video_bit_rate": 500125, "video_length": "581", "video_stream_index": 0, "video_timebase": {"den": 15360, "num": 1}, "width": 596}, "rotation": {"Points": [{"co": {"X": 1, "Y": 0}, "interpolation": 2}]}, "scale": 1, "scale_x": {"Points": [{"co": {"X": 1, "Y": 1}, "interpolation": 2}]}, "scale_y": {"Points": [{"co": {"X": 1, "Y": 1}, "interpolation": 2}]}, "shear_x": {"Points": [{"co": {"X": 1, "Y": 0}, "interpolation": 2}]}, "shear_y": {"Points": [{"co": {"X": 1, "Y": 0}, "interpolation": 2}]}, "start": 0, "time": {"Points": [{"co": {"X": 1, "Y": 1}, "interpolation": 2}]}, "volume": {"Points": [{"co": {"X": 1, "Y": 1}, "interpolation": 2}]}, "wave_color": {"alpha": {"Points": [{"co": {"X": 1, "Y": 255}, "handle_left": {"X": 0.5, "Y": 1}, "handle_right": {"X": 0.5, "Y": 0}, "handle_type": 0, "interpolation": 0}]}, "blue": {"Points": [{"co": {"X": 1, "Y": 255}, "handle_left": {"X": 0.5, "Y": 1}, "handle_right": {"X": 0.5, "Y": 0}, "handle_type": 0, "interpolation": 0}]}, "green": {"Points": [{"co": {"X": 1, "Y": 123}, "handle_left": {"X": 0.5, "Y": 1}, "handle_right": {"X": 0.5, "Y": 0}, "handle_type": 0, "interpolation": 0}]}, "red": {"Points": [{"co": {"X": 1, "Y": 0}, "handle_left": {"X": 0.5, "Y": 1}, "handle_right": {"X": 0.5, "Y": 0}, "handle_type": 0, "interpolation": 0}]}}, "waveform": false, "file_id": "5695A74IRT", "title": "1031348399-preview.mp4", "image": "/home/diary/.openshot_qt/thumbnail/5695A74IRT.png"}, {"alpha": {"Points": [{"co": {"X": 1, "Y": 1}, "interpolation": 2}]}, "anchor": 0, "channel_filter": {"Points": [{"co": {"X": 1, "Y": -1}, "interpolation": 2}]}, "channel_mapping": {"Points": [{"co": {"X": 1, "Y": -1}, "interpolation": 2}]}, "crop_height": {"Points": [{"co": {"X": 1, "Y": -1}, "interpolation": 2}]}, "crop_width": {"Points": [{"co": {"X": 1, "Y": -1}, "interpolation": 2}]}, "crop_x": {"Points": [{"co": {"X": 1, "Y": 0}, "interpolation": 2}]}, "crop_y": {"Points": [{"co": {"X": 1, "Y": 0}, "interpolation": 2}]}, "display": 0, "duration": 35.583984375, "effects": [], "end": 35.583984375, "gravity": 4, "has_audio": {"Points": [{"co": {"X": 1, "Y": -1}, "interpolation": 2}]}, "has_video": {"Points": [{"co": {"X": 1, "Y": -1}, "interpolation": 2}]}, "id": "3LBVTYEZ5B", "layer": 4, "location_x": {"Points": [{"co": {"X": 1, "Y": 0}, "interpolation": 2}]}, "location_y": {"Points": [{"co": {"X": 1, "Y": 0}, "interpolation": 2}]}, "perspective_c1_x": {"Points": [{"co": {"X": 1, "Y": -1}, "interpolation": 2}]}, "perspective_c1_y": {"Points": [{"co": {"X": 1, "Y": -1}, "interpolation": 2}]}, "perspective_c2_x": {"Points": [{"co": {"X": 1, "Y": -1}, "interpolation": 2}]}, "perspective_c2_y": {"Points": [{"co": {"X": 1, "Y": -1}, "interpolation": 2}]}, "perspective_c3_x": {"Points": [{"co": {"X": 1, "Y": -1}, "interpolation": 2}]}, "perspective_c3_y": {"Points": [{"co": {"X": 1, "Y": -1}, "interpolation": 2}]}, "perspective_c4_x": {"Points": [{"co": {"X": 1, "Y": -1}, "interpolation": 2}]}, "perspective_c4_y": {"Points": [{"co": {"X": 1, "Y": -1}, "interpolation": 2}]}, "position": 251.13750007629395, "reader": {"acodec": "", "audio_bit_rate": 0, "audio_stream_index": -1, "audio_timebase": {"den": 1, "num": 1}, "channel_layout": 4, "channels": 0, "display_ratio": {"den": 84, "num": 149}, "duration": 35.583984375, "file_size": "4040931", "fps": {"den": 1, "num": 24}, "has_audio": false, "has_single_image": false, "has_video": true, "height": 336, "interlaced_frame": false, "path": "/home/diary/Desktop/\u041a\u043e\u043d\u0446\u0435\u043f\u0442\u044b/64. \u041f\u0440\u0438\u0447\u0438\u043d\u044b \u0431\u043e\u043b\u0435\u0437\u043d\u0435\u0439/video assets/1033434362-preview.mp4", "pixel_format": 0, "pixel_ratio": {"den": 1, "num": 1}, "sample_rate": 0, "top_field_first": true, "type": "FFmpegReader", "vcodec": "h264", "video_bit_rate": 908482, "video_length": "854", "video_stream_index": 0, "video_timebase": {"den": 12288, "num": 1}, "width": 596}, "rotation": {"Points": [{"co": {"X": 1, "Y": 0}, "interpolation": 2}]}, "scale": 1, "scale_x": {"Points": [{"co": {"X": 1, "Y": 1}, "interpolation": 2}]}, "scale_y": {"Points": [{"co": {"X": 1, "Y": 1}, "interpolation": 2}]}, "shear_x": {"Points": [{"co": {"X": 1, "Y": 0}, "interpolation": 2}]}, "shear_y": {"Points": [{"co": {"X": 1, "Y": 0}, "interpolation": 2}]}, "start": 0, "time": {"Points": [{"co": {"X": 1, "Y": 1}, "interpolation": 2}]}, "volume": {"Points": [{"co": {"X": 1, "Y": 1}, "interpolation": 2}]}, "wave_color": {"alpha": {"Points": [{"co": {"X": 1, "Y": 255}, "handle_left": {"X": 0.5, "Y": 1}, "handle_right": {"X": 0.5, "Y": 0}, "handle_type": 0, "interpolation": 0}]}, "blue": {"Points": [{"co": {"X": 1, "Y": 255}, "handle_left": {"X": 0.5, "Y": 1}, "handle_right": {"X": 0.5, "Y": 0}, "handle_type": 0, "interpolation": 0}]}, "green": {"Points": [{"co": {"X": 1, "Y": 123}, "handle_left": {"X": 0.5, "Y": 1}, "handle_right": {"X": 0.5, "Y": 0}, "handle_type": 0, "interpolation": 0}]}, "red": {"Points": [{"co": {"X": 1, "Y": 0}, "handle_left": {"X": 0.5, "Y": 1}, "handle_right": {"X": 0.5, "Y": 0}, "handle_type": 0, "interpolation": 0}]}}, "waveform": false, "file_id": "O1B5S1FAAK", "title": "1033434362-preview.mp4", "image": "/home/diary/.openshot_qt/thumbnail/O1B5S1FAAK.png"}, {"alpha": {"Points": [{"co": {"X": 1, "Y": 1}, "interpolation": 2}]}, "anchor": 0, "channel_filter": {"Points": [{"co": {"X": 1, "Y": -1}, "interpolation": 2}]}, "channel_mapping": {"Points": [{"co": {"X": 1, "Y": -1}, "interpolation": 2}]}, "crop_height": {"Points": [{"co": {"X": 1, "Y": -1}, "interpolation": 2}]}, "crop_width": {"Points": [{"co": {"X": 1, "Y": -1}, "interpolation": 2}]}, "crop_x": {"Points": [{"co": {"X": 1, "Y": 0}, "interpolation": 2}]}, "crop_y": {"Points": [{"co": {"X": 1, "Y": 0}, "interpolation": 2}]}, "display": 0, "duration": 14.807000160217285, "effects": [], "end": 14.807000160217285, "gravity": 4, "has_audio": {"Points": [{"co": {"X": 1, "Y": -1}, "interpolation": 2}]}, "has_video": {"Points": [{"co": {"X": 1, "Y": -1}, "interpolation": 2}]}, "id": "9HBMVHJIJB", "layer": 1, "location_x": {"Points": [{"co": {"X": 1, "Y": 0}, "interpolation": 2}]}, "location_y": {"Points": [{"co": {"X": 1, "Y": 0}, "interpolation": 2}]}, "perspective_c1_x": {"Points": [{"co": {"X": 1, "Y": -1}, "interpolation": 2}]}, "perspective_c1_y": {"Points": [{"co": {"X": 1, "Y": -1}, "interpolation": 2}]}, "perspective_c2_x": {"Points": [{"co": {"X": 1, "Y": -1}, "interpolation": 2}]}, "perspective_c2_y": {"Points": [{"co": {"X": 1, "Y": -1}, "interpolation": 2}]}, "perspective_c3_x": {"Points": [{"co": {"X": 1, "Y": -1}, "interpolation": 2}]}, "perspective_c3_y": {"Points": [{"co": {"X": 1, "Y": -1}, "interpolation": 2}]}, "perspective_c4_x": {"Points": [{"co": {"X": 1, "Y": -1}, "interpolation": 2}]}, "perspective_c4_y": {"Points": [{"co": {"X": 1, "Y": -1}, "interpolation": 2}]}, "position": 244.32, "reader": {"acodec": "", "audio_bit_rate": 0, "audio_stream_index": -1, "audio_timebase": {"den": 1, "num": 1}, "channel_layout": 4, "channels": 0, "display_ratio": {"den": 79, "num": 150}, "duration": 14.807000160217285, "file_size": "1666944", "fps": {"den": 1001, "num": 24000}, "has_audio": false, "has_single_image": false, "has_video": true, "height": 316, "interlaced_frame": false, "path": "/home/diary/Desktop/\u041a\u043e\u043d\u0446\u0435\u043f\u0442\u044b/64. \u041f\u0440\u0438\u0447\u0438\u043d\u044b \u0431\u043e\u043b\u0435\u0437\u043d\u0435\u0439/video assets/1037066192-preview.mp4", "pixel_format": 0, "pixel_ratio": {"den": 1, "num": 1}, "sample_rate": 0, "top_field_first": true, "type": "FFmpegReader", "vcodec": "h264", "video_bit_rate": 900624, "video_length": "355", "video_stream_index": 0, "video_timebase": {"den": 24000, "num": 1}, "width": 600}, "rotation": {"Points": [{"co": {"X": 1, "Y": 0}, "interpolation": 2}]}, "scale": 1, "scale_x": {"Points": [{"co": {"X": 1, "Y": 1}, "interpolation": 2}]}, "scale_y": {"Points": [{"co": {"X": 1, "Y": 1}, "interpolation": 2}]}, "shear_x": {"Points": [{"co": {"X": 1, "Y": 0}, "interpolation": 2}]}, "shear_y": {"Points": [{"co": {"X": 1, "Y": 0}, "interpolation": 2}]}, "start": 0, "time": {"Points": [{"co": {"X": 1, "Y": 1}, "interpolation": 2}]}, "volume": {"Points": [{"co": {"X": 1, "Y": 1}, "interpolation": 2}]}, "wave_color": {"alpha": {"Points": [{"co": {"X": 1, "Y": 255}, "handle_left": {"X": 0.5, "Y": 1}, "handle_right": {"X": 0.5, "Y": 0}, "handle_type": 0, "interpolation": 0}]}, "blue": {"Points": [{"co": {"X": 1, "Y": 255}, "handle_left": {"X": 0.5, "Y": 1}, "handle_right": {"X": 0.5, "Y": 0}, "handle_type": 0, "interpolation": 0}]}, "green": {"Points": [{"co": {"X": 1, "Y": 123}, "handle_left": {"X": 0.5, "Y": 1}, "handle_right": {"X": 0.5, "Y": 0}, "handle_type": 0, "interpolation": 0}]}, "red": {"Points": [{"co": {"X": 1, "Y": 0}, "handle_left": {"X": 0.5, "Y": 1}, "handle_right": {"X": 0.5, "Y": 0}, "handle_type": 0, "interpolation": 0}]}}, "waveform": false, "file_id": "8PTZDQOQP0", "title": "1037066192-preview.mp4", "image": "/home/diary/.openshot_qt/thumbnail/8PTZDQOQP0.png"}, {"alpha": {"Points": [{"co": {"X": 1, "Y": 1}, "interpolation": 2}]}, "anchor": 0, "channel_filter": {"Points": [{"co": {"X": 1, "Y": -1}, "interpolation": 2}]}, "channel_mapping": {"Points": [{"co": {"X": 1, "Y": -1}, "interpolation": 2}]}, "crop_height": {"Points": [{"co": {"X": 1, "Y": -1}, "interpolation": 2}]}, "crop_width": {"Points": [{"co": {"X": 1, "Y": -1}, "interpolation": 2}]}, "crop_x": {"Points": [{"co": {"X": 1, "Y": 0}, "interpolation": 2}]}, "crop_y": {"Points": [{"co": {"X": 1, "Y": 0}, "interpolation": 2}]}, "display": 0, "duration": 8.942999839782715, "effects": [], "end": 8.942999839782715, "gravity": 4, "has_audio": {"Points": [{"co": {"X": 1, "Y": -1}, "interpolation": 2}]}, "has_video": {"Points": [{"co": {"X": 1, "Y": -1}, "interpolation": 2}]}, "id": "9ZR9NUT75S", "layer": 3, "location_x": {"Points": [{"co": {"X": 1, "Y": 0}, "interpolation": 2}]}, "location_y": {"Points": [{"co": {"X": 1, "Y": 0}, "interpolation": 2}]}, "perspective_c1_x": {"Points": [{"co": {"X": 1, "Y": -1}, "interpolation": 2}]}, "perspective_c1_y": {"Points": [{"co": {"X": 1, "Y": -1}, "interpolation": 2}]}, "perspective_c2_x": {"Points": [{"co": {"X": 1, "Y": -1}, "interpolation": 2}]}, "perspective_c2_y": {"Points": [{"co": {"X": 1, "Y": -1}, "interpolation": 2}]}, "perspective_c3_x": {"Points": [{"co": {"X": 1, "Y": -1}, "interpolation": 2}]}, "perspective_c3_y": {"Points": [{"co": {"X": 1, "Y": -1}, "interpolation": 2}]}, "perspective_c4_x": {"Points": [{"co": {"X": 1, "Y": -1}, "interpolation": 2}]}, "perspective_c4_y": {"Points": [{"co": {"X": 1, "Y": -1}, "interpolation": 2}]}, "position": 430.74449295043945, "reader": {"acodec": "", "audio_bit_rate": 0, "audio_stream_index": -1, "audio_timebase": {"den": 1, "num": 1}, "channel_layout": 4, "channels": 0, "display_ratio": {"den": 84, "num": 149}, "duration": 8.942999839782715, "file_size": "500156", "fps": {"den": 1001, "num": 30000}, "has_audio": false, "has_single_image": false, "has_video": true, "height": 336, "interlaced_frame": false, "path": "/home/diary/Desktop/\u041a\u043e\u043d\u0446\u0435\u043f\u0442\u044b/64. \u041f\u0440\u0438\u0447\u0438\u043d\u044b \u0431\u043e\u043b\u0435\u0437\u043d\u0435\u0439/video assets/1037685125-preview.mp4", "pixel_format": 0, "pixel_ratio": {"den": 1, "num": 1}, "sample_rate": 0, "top_field_first": true, "type": "FFmpegReader", "vcodec": "h264", "video_bit_rate": 447416, "video_length": "268", "video_stream_index": 0, "video_timebase": {"den": 30000, "num": 1}, "width": 596}, "rotation": {"Points": [{"co": {"X": 1, "Y": 0}, "interpolation": 2}]}, "scale": 1, "scale_x": {"Points": [{"co": {"X": 1, "Y": 1}, "interpolation": 2}]}, "scale_y": {"Points": [{"co": {"X": 1, "Y": 1}, "interpolation": 2}]}, "shear_x": {"Points": [{"co": {"X": 1, "Y": 0}, "interpolation": 2}]}, "shear_y": {"Points": [{"co": {"X": 1, "Y": 0}, "interpolation": 2}]}, "start": 0, "time": {"Points": [{"co": {"X": 1, "Y": 1}, "interpolation": 2}]}, "volume": {"Points": [{"co": {"X": 1, "Y": 1}, "interpolation": 2}]}, "wave_color": {"alpha": {"Points": [{"co": {"X": 1, "Y": 255}, "handle_left": {"X": 0.5, "Y": 1}, "handle_right": {"X": 0.5, "Y": 0}, "handle_type": 0, "interpolation": 0}]}, "blue": {"Points": [{"co": {"X": 1, "Y": 255}, "handle_left": {"X": 0.5, "Y": 1}, "handle_right": {"X": 0.5, "Y": 0}, "handle_type": 0, "interpolation": 0}]}, "green": {"Points": [{"co": {"X": 1, "Y": 123}, "handle_left": {"X": 0.5, "Y": 1}, "handle_right": {"X": 0.5, "Y": 0}, "handle_type": 0, "interpolation": 0}]}, "red": {"Points": [{"co": {"X": 1, "Y": 0}, "handle_left": {"X": 0.5, "Y": 1}, "handle_right": {"X": 0.5, "Y": 0}, "handle_type": 0, "interpolation": 0}]}}, "waveform": false, "file_id": "LG1NPUCC77", "title": "1037685125-preview.mp4", "image": "/home/diary/.openshot_qt/thumbnail/LG1NPUCC77.png"}, {"alpha": {"Points": [{"co": {"X": 1, "Y": 1}, "interpolation": 2}]}, "anchor": 0, "channel_filter": {"Points": [{"co": {"X": 1, "Y": -1}, "interpolation": 2}]}, "channel_mapping": {"Points": [{"co": {"X": 1, "Y": -1}, "interpolation": 2}]}, "crop_height": {"Points": [{"co": {"X": 1, "Y": -1}, "interpolation": 2}]}, "crop_width": {"Points": [{"co": {"X": 1, "Y": -1}, "interpolation": 2}]}, "crop_x": {"Points": [{"co": {"X": 1, "Y": 0}, "interpolation": 2}]}, "crop_y": {"Points": [{"co": {"X": 1, "Y": 0}, "interpolation": 2}]}, "display": 0, "duration": 29.933984756469727, "effects": [], "end": 29.933984756469727, "gravity": 4, "has_audio": {"Points": [{"co": {"X": 1, "Y": -1}, "interpolation": 2}]}, "has_video": {"Points": [{"co": {"X": 1, "Y": -1}, "interpolation": 2}]}, "id": "IWLR1LEDVN", "layer": 2, "location_x": {"Points": [{"co": {"X": 1, "Y": 0}, "interpolation": 2}]}, "location_y": {"Points": [{"co": {"X": 1, "Y": 0}, "interpolation": 2}]}, "perspective_c1_x": {"Points": [{"co": {"X": 1, "Y": -1}, "interpolation": 2}]}, "perspective_c1_y": {"Points": [{"co": {"X": 1, "Y": -1}, "interpolation": 2}]}, "perspective_c2_x": {"Points": [{"co": {"X": 1, "Y": -1}, "interpolation": 2}]}, "perspective_c2_y": {"Points": [{"co": {"X": 1, "Y": -1}, "interpolation": 2}]}, "perspective_c3_x": {"Points": [{"co": {"X": 1, "Y": -1}, "interpolation": 2}]}, "perspective_c3_y": {"Points": [{"co": {"X": 1, "Y": -1}, "interpolation": 2}]}, "perspective_c4_x": {"Points": [{"co": {"X": 1, "Y": -1}, "interpolation": 2}]}, "perspective_c4_y": {"Points": [{"co": {"X": 1, "Y": -1}, "interpolation": 2}]}, "position": 430.74449295043945, "reader": {"acodec": "", "audio_bit_rate": 0, "audio_stream_index": -1, "audio_timebase": {"den": 1, "num": 1}, "channel_layout": 4, "channels": 0, "display_ratio": {"den": 84, "num": 149}, "duration": 29.933984756469727, "file_size": "2385224", "fps": {"den": 1, "num": 30}, "has_audio": false, "has_single_image": false, "has_video": true, "height": 336, "interlaced_frame": false, "path": "/home/diary/Desktop/\u041a\u043e\u043d\u0446\u0435\u043f\u0442\u044b/64. \u041f\u0440\u0438\u0447\u0438\u043d\u044b \u0431\u043e\u043b\u0435\u0437\u043d\u0435\u0439/video assets/1042189108-preview.mp4", "pixel_format": 0, "pixel_ratio": {"den": 1, "num": 1}, "sample_rate": 0, "top_field_first": true, "type": "FFmpegReader", "vcodec": "h264", "video_bit_rate": 637462, "video_length": "898", "video_stream_index": 0, "video_timebase": {"den": 15360, "num": 1}, "width": 596}, "rotation": {"Points": [{"co": {"X": 1, "Y": 0}, "interpolation": 2}]}, "scale": 1, "scale_x": {"Points": [{"co": {"X": 1, "Y": 1}, "interpolation": 2}]}, "scale_y": {"Points": [{"co": {"X": 1, "Y": 1}, "interpolation": 2}]}, "shear_x": {"Points": [{"co": {"X": 1, "Y": 0}, "interpolation": 2}]}, "shear_y": {"Points": [{"co": {"X": 1, "Y": 0}, "interpolation": 2}]}, "start": 0, "time": {"Points": [{"co": {"X": 1, "Y": 1}, "interpolation": 2}]}, "volume": {"Points": [{"co": {"X": 1, "Y": 1}, "interpolation": 2}]}, "wave_color": {"alpha": {"Points": [{"co": {"X": 1, "Y": 255}, "handle_left": {"X": 0.5, "Y": 1}, "handle_right": {"X": 0.5, "Y": 0}, "handle_type": 0, "interpolation": 0}]}, "blue": {"Points": [{"co": {"X": 1, "Y": 255}, "handle_left": {"X": 0.5, "Y": 1}, "handle_right": {"X": 0.5, "Y": 0}, "handle_type": 0, "interpolation": 0}]}, "green": {"Points": [{"co": {"X": 1, "Y": 123}, "handle_left": {"X": 0.5, "Y": 1}, "handle_right": {"X": 0.5, "Y": 0}, "handle_type": 0, "interpolation": 0}]}, "red": {"Points": [{"co": {"X": 1, "Y": 0}, "handle_left": {"X": 0.5, "Y": 1}, "handle_right": {"X": 0.5, "Y": 0}, "handle_type": 0, "interpolation": 0}]}}, "waveform": false, "file_id": "B8ELRMI8NN", "title": "1042189108-preview.mp4", "image": "/home/diary/.openshot_qt/thumbnail/B8ELRMI8NN.png"}, {"alpha": {"Points": [{"co": {"X": 1, "Y": 1}, "interpolation": 2}]}, "anchor": 0, "channel_filter": {"Points": [{"co": {"X": 1, "Y": -1}, "interpolation": 2}]}, "channel_mapping": {"Points": [{"co": {"X": 1, "Y": -1}, "interpolation": 2}]}, "crop_height": {"Points": [{"co": {"X": 1, "Y": -1}, "interpolation": 2}]}, "crop_width": {"Points": [{"co": {"X": 1, "Y": -1}, "interpolation": 2}]}, "crop_x": {"Points": [{"co": {"X": 1, "Y": 0}, "interpolation": 2}]}, "crop_y": {"Points": [{"co": {"X": 1, "Y": 0}, "interpolation": 2}]}, "display": 0, "duration": 22.760000228881836, "effects": [], "end": 22.760000228881836, "gravity": 4, "has_audio": {"Points": [{"co": {"X": 1, "Y": -1}, "interpolation": 2}]}, "has_video": {"Points": [{"co": {"X": 1, "Y": -1}, "interpolation": 2}]}, "id": "CZ5GNQBJ79", "layer": 1, "location_x": {"Points": [{"co": {"X": 1, "Y": 0}, "interpolation": 2}]}, "location_y": {"Points": [{"co": {"X": 1, "Y": 0}, "interpolation": 2}]}, "perspective_c1_x": {"Points": [{"co": {"X": 1, "Y": -1}, "interpolation": 2}]}, "perspective_c1_y": {"Points": [{"co": {"X": 1, "Y": -1}, "interpolation": 2}]}, "perspective_c2_x": {"Points": [{"co": {"X": 1, "Y": -1}, "interpolation": 2}]}, "perspective_c2_y": {"Points": [{"co": {"X": 1, "Y": -1}, "interpolation": 2}]}, "perspective_c3_x": {"Points": [{"co": {"X": 1, "Y": -1}, "interpolation": 2}]}, "perspective_c3_y": {"Points": [{"co": {"X": 1, "Y": -1}, "interpolation": 2}]}, "perspective_c4_x": {"Points": [{"co": {"X": 1, "Y": -1}, "interpolation": 2}]}, "perspective_c4_y": {"Points": [{"co": {"X": 1, "Y": -1}, "interpolation": 2}]}, "position": 433.6, "reader": {"acodec": "", "audio_bit_rate": 0, "audio_stream_index": -1, "audio_timebase": {"den": 1, "num": 1}, "channel_layout": 4, "channels": 0, "display_ratio": {"den": 84, "num": 149}, "duration": 22.760000228881836, "file_size": "839329", "fps": {"den": 1, "num": 25}, "has_audio": false, "has_single_image": false, "has_video": true, "height": 336, "interlaced_frame": false, "path": "/home/diary/Desktop/\u041a\u043e\u043d\u0446\u0435\u043f\u0442\u044b/64. \u041f\u0440\u0438\u0447\u0438\u043d\u044b \u0431\u043e\u043b\u0435\u0437\u043d\u0435\u0439/video assets/1042776160-preview.mp4", "pixel_format": 0, "pixel_ratio": {"den": 1, "num": 1}, "sample_rate": 0, "top_field_first": true, "type": "FFmpegReader", "vcodec": "h264", "video_bit_rate": 295018, "video_length": "569", "video_stream_index": 0, "video_timebase": {"den": 12800, "num": 1}, "width": 596}, "rotation": {"Points": [{"co": {"X": 1, "Y": 0}, "interpolation": 2}]}, "scale": 1, "scale_x": {"Points": [{"co": {"X": 1, "Y": 1}, "interpolation": 2}]}, "scale_y": {"Points": [{"co": {"X": 1, "Y": 1}, "interpolation": 2}]}, "shear_x": {"Points": [{"co": {"X": 1, "Y": 0}, "interpolation": 2}]}, "shear_y": {"Points": [{"co": {"X": 1, "Y": 0}, "interpolation": 2}]}, "start": 0, "time": {"Points": [{"co": {"X": 1, "Y": 1}, "interpolation": 2}]}, "volume": {"Points": [{"co": {"X": 1, "Y": 1}, "interpolation": 2}]}, "wave_color": {"alpha": {"Points": [{"co": {"X": 1, "Y": 255}, "handle_left": {"X": 0.5, "Y": 1}, "handle_right": {"X": 0.5, "Y": 0}, "handle_type": 0, "interpolation": 0}]}, "blue": {"Points": [{"co": {"X": 1, "Y": 255}, "handle_left": {"X": 0.5, "Y": 1}, "handle_right": {"X": 0.5, "Y": 0}, "handle_type": 0, "interpolation": 0}]}, "green": {"Points": [{"co": {"X": 1, "Y": 123}, "handle_left": {"X": 0.5, "Y": 1}, "handle_right": {"X": 0.5, "Y": 0}, "handle_type": 0, "interpolation": 0}]}, "red": {"Points": [{"co": {"X": 1, "Y": 0}, "handle_left": {"X": 0.5, "Y": 1}, "handle_right": {"X": 0.5, "Y": 0}, "handle_type": 0, "interpolation": 0}]}}, "waveform": false, "file_id": "SJQTW5J2TE", "title": "1042776160-preview.mp4", "image": "/home/diary/.openshot_qt/thumbnail/SJQTW5J2TE.png"}, {"alpha": {"Points": [{"co": {"X": 1, "Y": 1}, "interpolation": 2}]}, "anchor": 0, "channel_filter": {"Points": [{"co": {"X": 1, "Y": -1}, "interpolation": 2}]}, "channel_mapping": {"Points": [{"co": {"X": 1, "Y": -1}, "interpolation": 2}]}, "crop_height": {"Points": [{"co": {"X": 1, "Y": -1}, "interpolation": 2}]}, "crop_width": {"Points": [{"co": {"X": 1, "Y": -1}, "interpolation": 2}]}, "crop_x": {"Points": [{"co": {"X": 1, "Y": 0}, "interpolation": 2}]}, "crop_y": {"Points": [{"co": {"X": 1, "Y": 0}, "interpolation": 2}]}, "display": 0, "duration": 9.376999855041504, "effects": [], "end": 9.376999855041504, "gravity": 4, "has_audio": {"Points": [{"co": {"X": 1, "Y": -1}, "interpolation": 2}]}, "has_video": {"Points": [{"co": {"X": 1, "Y": -1}, "interpolation": 2}]}, "id": "BM9ZX82JU6", "layer": 4, "location_x": {"Points": [{"co": {"X": 1, "Y": 0}, "interpolation": 2}]}, "location_y": {"Points": [{"co": {"X": 1, "Y": 0}, "interpolation": 2}]}, "perspective_c1_x": {"Points": [{"co": {"X": 1, "Y": -1}, "interpolation": 2}]}, "perspective_c1_y": {"Points": [{"co": {"X": 1, "Y": -1}, "interpolation": 2}]}, "perspective_c2_x": {"Points": [{"co": {"X": 1, "Y": -1}, "interpolation": 2}]}, "perspective_c2_y": {"Points": [{"co": {"X": 1, "Y": -1}, "interpolation": 2}]}, "perspective_c3_x": {"Points": [{"co": {"X": 1, "Y": -1}, "interpolation": 2}]}, "perspective_c3_y": {"Points": [{"co": {"X": 1, "Y": -1}, "interpolation": 2}]}, "perspective_c4_x": {"Points": [{"co": {"X": 1, "Y": -1}, "interpolation": 2}]}, "perspective_c4_y": {"Points": [{"co": {"X": 1, "Y": -1}, "interpolation": 2}]}, "position": 442.72, "reader": {"acodec": "", "audio_bit_rate": 0, "audio_stream_index": -1, "audio_timebase": {"den": 1, "num": 1}, "channel_layout": 4, "channels": 0, "display_ratio": {"den": 84, "num": 149}, "duration": 9.376999855041504, "file_size": "999115", "fps": {"den": 1001, "num": 30000}, "has_audio": false, "has_single_image": false, "has_video": true, "height": 336, "interlaced_frame": false, "path": "/home/diary/Desktop/\u041a\u043e\u043d\u0446\u0435\u043f\u0442\u044b/64. \u041f\u0440\u0438\u0447\u0438\u043d\u044b \u0431\u043e\u043b\u0435\u0437\u043d\u0435\u0439/video assets/1040051333-preview.mp4", "pixel_format": 0, "pixel_ratio": {"den": 1, "num": 1}, "sample_rate": 0, "top_field_first": true, "type": "FFmpegReader", "vcodec": "h264", "video_bit_rate": 852396, "video_length": "281", "video_stream_index": 0, "video_timebase": {"den": 30000, "num": 1}, "width": 596}, "rotation": {"Points": [{"co": {"X": 1, "Y": 0}, "interpolation": 2}]}, "scale": 1, "scale_x": {"Points": [{"co": {"X": 1, "Y": 1}, "interpolation": 2}]}, "scale_y": {"Points": [{"co": {"X": 1, "Y": 1}, "interpolation": 2}]}, "shear_x": {"Points": [{"co": {"X": 1, "Y": 0}, "interpolation": 2}]}, "shear_y": {"Points": [{"co": {"X": 1, "Y": 0}, "interpolation": 2}]}, "start": 0, "time": {"Points": [{"co": {"X": 1, "Y": 1}, "interpolation": 2}]}, "volume": {"Points": [{"co": {"X": 1, "Y": 1}, "interpolation": 2}]}, "wave_color": {"alpha": {"Points": [{"co": {"X": 1, "Y": 255}, "handle_left": {"X": 0.5, "Y": 1}, "handle_right": {"X": 0.5, "Y": 0}, "handle_type": 0, "interpolation": 0}]}, "blue": {"Points": [{"co": {"X": 1, "Y": 255}, "handle_left": {"X": 0.5, "Y": 1}, "handle_right": {"X": 0.5, "Y": 0}, "handle_type": 0, "interpolation": 0}]}, "green": {"Points": [{"co": {"X": 1, "Y": 123}, "handle_left": {"X": 0.5, "Y": 1}, "handle_right": {"X": 0.5, "Y": 0}, "handle_type": 0, "interpolation": 0}]}, "red": {"Points": [{"co": {"X": 1, "Y": 0}, "handle_left": {"X": 0.5, "Y": 1}, "handle_right": {"X": 0.5, "Y": 0}, "handle_type": 0, "interpolation": 0}]}}, "waveform": false, "file_id": "GRPF5ZYUU6", "title": "1040051333-preview.mp4", "image": "/home/diary/.openshot_qt/thumbnail/GRPF5ZYUU6.png"}, {"alpha": {"Points": [{"co": {"X": 1, "Y": 1}, "interpolation": 2}]}, "anchor": 0, "channel_filter": {"Points": [{"co": {"X": 1, "Y": -1}, "interpolation": 2}]}, "channel_mapping": {"Points": [{"co": {"X": 1, "Y": -1}, "interpolation": 2}]}, "crop_height": {"Points": [{"co": {"X": 1, "Y": -1}, "interpolation": 2}]}, "crop_width": {"Points": [{"co": {"X": 1, "Y": -1}, "interpolation": 2}]}, "crop_x": {"Points": [{"co": {"X": 1, "Y": 0}, "interpolation": 2}]}, "crop_y": {"Points": [{"co": {"X": 1, "Y": 0}, "interpolation": 2}]}, "display": 0, "duration": 46.70000076293945, "effects": [], "end": 46.70000076293945, "gravity": 4, "has_audio": {"Points": [{"co": {"X": 1, "Y": -1}, "interpolation": 2}]}, "has_video": {"Points": [{"co": {"X": 1, "Y": -1}, "interpolation": 2}]}, "id": "CMZY9IEJOT", "layer": 3, "location_x": {"Points": [{"co": {"X": 1, "Y": 0}, "interpolation": 2}]}, "location_y": {"Points": [{"co": {"X": 1, "Y": 0}, "interpolation": 2}]}, "perspective_c1_x": {"Points": [{"co": {"X": 1, "Y": -1}, "interpolation": 2}]}, "perspective_c1_y": {"Points": [{"co": {"X": 1, "Y": -1}, "interpolation": 2}]}, "perspective_c2_x": {"Points": [{"co": {"X": 1, "Y": -1}, "interpolation": 2}]}, "perspective_c2_y": {"Points": [{"co": {"X": 1, "Y": -1}, "interpolation": 2}]}, "perspective_c3_x": {"Points": [{"co": {"X": 1, "Y": -1}, "interpolation": 2}]}, "perspective_c3_y": {"Points": [{"co": {"X": 1, "Y": -1}, "interpolation": 2}]}, "perspective_c4_x": {"Points": [{"co": {"X": 1, "Y": -1}, "interpolation": 2}]}, "perspective_c4_y": {"Points": [{"co": {"X": 1, "Y": -1}, "interpolation": 2}]}, "position": 466.56, "reader": {"acodec": "aac", "audio_bit_rate": 128340, "audio_stream_index": 1, "audio_timebase": {"den": 44100, "num": 1}, "channel_layout": 3, "channels": 2, "display_ratio": {"den": 84, "num": 149}, "duration": 46.70000076293945, "file_size": "6092940", "fps": {"den": 1, "num": 30}, "has_audio": true, "has_single_image": false, "has_video": true, "height": 336, "interlaced_frame": false, "path": "/home/diary/Desktop/\u041a\u043e\u043d\u0446\u0435\u043f\u0442\u044b/64. \u041f\u0440\u0438\u0447\u0438\u043d\u044b \u0431\u043e\u043b\u0435\u0437\u043d\u0435\u0439/video assets/1045470025-preview.mp4", "pixel_format": 0, "pixel_ratio": {"den": 1, "num": 1}, "sample_rate": 44100, "top_field_first": true, "type": "FFmpegReader", "vcodec": "h264", "video_bit_rate": 1042709, "video_length": "1401", "video_stream_index": 0, "video_timebase": {"den": 15360, "num": 1}, "width": 596}, "rotation": {"Points": [{"co": {"X": 1, "Y": 0}, "interpolation": 2}]}, "scale": 1, "scale_x": {"Points": [{"co": {"X": 1, "Y": 1}, "interpolation": 2}]}, "scale_y": {"Points": [{"co": {"X": 1, "Y": 1}, "interpolation": 2}]}, "shear_x": {"Points": [{"co": {"X": 1, "Y": 0}, "interpolation": 2}]}, "shear_y": {"Points": [{"co": {"X": 1, "Y": 0}, "interpolation": 2}]}, "start": 0, "time": {"Points": [{"co": {"X": 1, "Y": 1}, "interpolation": 2}]}, "volume": {"Points": [{"co": {"X": 1, "Y": 1}, "interpolation": 2}]}, "wave_color": {"alpha": {"Points": [{"co": {"X": 1, "Y": 255}, "handle_left": {"X": 0.5, "Y": 1}, "handle_right": {"X": 0.5, "Y": 0}, "handle_type": 0, "interpolation": 0}]}, "blue": {"Points": [{"co": {"X": 1, "Y": 255}, "handle_left": {"X": 0.5, "Y": 1}, "handle_right": {"X": 0.5, "Y": 0}, "handle_type": 0, "interpolation": 0}]}, "green": {"Points": [{"co": {"X": 1, "Y": 123}, "handle_left": {"X": 0.5, "Y": 1}, "handle_right": {"X": 0.5, "Y": 0}, "handle_type": 0, "interpolation": 0}]}, "red": {"Points": [{"co": {"X": 1, "Y": 0}, "handle_left": {"X": 0.5, "Y": 1}, "handle_right": {"X": 0.5, "Y": 0}, "handle_type": 0, "interpolation": 0}]}}, "waveform": false, "file_id": "M0H2IT5DMM", "title": "1045470025-preview.mp4", "image": "/home/diary/.openshot_qt/thumbnail/M0H2IT5DMM.png"}, {"alpha": {"Points": [{"co": {"X": 1, "Y": 1}, "interpolation": 2}]}, "anchor": 0, "channel_filter": {"Points": [{"co": {"X": 1, "Y": -1}, "interpolation": 2}]}, "channel_mapping": {"Points": [{"co": {"X": 1, "Y": -1}, "interpolation": 2}]}, "crop_height": {"Points": [{"co": {"X": 1, "Y": -1}, "interpolation": 2}]}, "crop_width": {"Points": [{"co": {"X": 1, "Y": -1}, "interpolation": 2}]}, "crop_x": {"Points": [{"co": {"X": 1, "Y": 0}, "interpolation": 2}]}, "crop_y": {"Points": [{"co": {"X": 1, "Y": 0}, "interpolation": 2}]}, "display": 0, "duration": 7.0, "effects": [], "end": 7, "gravity": 4, "has_audio": {"Points": [{"co": {"X": 1, "Y": -1}, "interpolation": 2}]}, "has_video": {"Points": [{"co": {"X": 1, "Y": -1}, "interpolation": 2}]}, "id": "S1J5UIW9AV", "layer": 4, "location_x": {"Points": [{"co": {"X": 1, "Y": 0}, "interpolation": 2}]}, "location_y": {"Points": [{"co": {"X": 1, "Y": 0}, "interpolation": 2}]}, "perspective_c1_x": {"Points": [{"co": {"X": 1, "Y": -1}, "interpolation": 2}]}, "perspective_c1_y": {"Points": [{"co": {"X": 1, "Y": -1}, "interpolation": 2}]}, "perspective_c2_x": {"Points": [{"co": {"X": 1, "Y": -1}, "interpolation": 2}]}, "perspective_c2_y": {"Points": [{"co": {"X": 1, "Y": -1}, "interpolation": 2}]}, "perspective_c3_x": {"Points": [{"co": {"X": 1, "Y": -1}, "interpolation": 2}]}, "perspective_c3_y": {"Points": [{"co": {"X": 1, "Y": -1}, "interpolation": 2}]}, "perspective_c4_x": {"Points": [{"co": {"X": 1, "Y": -1}, "interpolation": 2}]}, "perspective_c4_y": {"Points": [{"co": {"X": 1, "Y": -1}, "interpolation": 2}]}, "position": 225.8119923019409, "reader": {"acodec": "", "audio_bit_rate": 0, "audio_stream_index": -1, "audio_timebase": {"den": 1, "num": 1}, "channel_layout": 4, "channels": 0, "display_ratio": {"den": 84, "num": 149}, "duration": 7.0, "file_size": "605172", "fps": {"den": 1, "num": 25}, "has_audio": false, "has_single_image": false, "has_video": true, "height": 336, "interlaced_frame": false, "path": "/home/diary/Desktop/\u041a\u043e\u043d\u0446\u0435\u043f\u0442\u044b/64. \u041f\u0440\u0438\u0447\u0438\u043d\u044b \u0431\u043e\u043b\u0435\u0437\u043d\u0435\u0439/video assets/1046167390-preview.mp4", "pixel_format": 0, "pixel_ratio": {"den": 1, "num": 1}, "sample_rate": 0, "top_field_first": true, "type": "FFmpegReader", "vcodec": "h264", "video_bit_rate": 691625, "video_length": "175", "video_stream_index": 0, "video_timebase": {"den": 12800, "num": 1}, "width": 596}, "rotation": {"Points": [{"co": {"X": 1, "Y": 0}, "interpolation": 2}]}, "scale": 1, "scale_x": {"Points": [{"co": {"X": 1, "Y": 1}, "interpolation": 2}]}, "scale_y": {"Points": [{"co": {"X": 1, "Y": 1}, "interpolation": 2}]}, "shear_x": {"Points": [{"co": {"X": 1, "Y": 0}, "interpolation": 2}]}, "shear_y": {"Points": [{"co": {"X": 1, "Y": 0}, "interpolation": 2}]}, "start": 0, "time": {"Points": [{"co": {"X": 1, "Y": 1}, "interpolation": 2}]}, "volume": {"Points": [{"co": {"X": 1, "Y": 1}, "interpolation": 2}]}, "wave_color": {"alpha": {"Points": [{"co": {"X": 1, "Y": 255}, "handle_left": {"X": 0.5, "Y": 1}, "handle_right": {"X": 0.5, "Y": 0}, "handle_type": 0, "interpolation": 0}]}, "blue": {"Points": [{"co": {"X": 1, "Y": 255}, "handle_left": {"X": 0.5, "Y": 1}, "handle_right": {"X": 0.5, "Y": 0}, "handle_type": 0, "interpolation": 0}]}, "green": {"Points": [{"co": {"X": 1, "Y": 123}, "handle_left": {"X": 0.5, "Y": 1}, "handle_right": {"X": 0.5, "Y": 0}, "handle_type": 0, "interpolation": 0}]}, "red": {"Points": [{"co": {"X": 1, "Y": 0}, "handle_left": {"X": 0.5, "Y": 1}, "handle_right": {"X": 0.5, "Y": 0}, "handle_type": 0, "interpolation": 0}]}}, "waveform": false, "file_id": "MJQYSRKC8R", "title": "1046167390-preview.mp4", "image": "/home/diary/.openshot_qt/thumbnail/MJQYSRKC8R.png"}, {"alpha": {"Points": [{"co": {"X": 1, "Y": 1}, "interpolation": 2}]}, "anchor": 0, "channel_filter": {"Points": [{"co": {"X": 1, "Y": -1}, "interpolation": 2}]}, "channel_mapping": {"Points": [{"co": {"X": 1, "Y": -1}, "interpolation": 2}]}, "crop_height": {"Points": [{"co": {"X": 1, "Y": -1}, "interpolation": 2}]}, "crop_width": {"Points": [{"co": {"X": 1, "Y": -1}, "interpolation": 2}]}, "crop_x": {"Points": [{"co": {"X": 1, "Y": 0}, "interpolation": 2}]}, "crop_y": {"Points": [{"co": {"X": 1, "Y": 0}, "interpolation": 2}]}, "display": 0, "duration": 23.333984375, "effects": [], "end": 23.333984375, "gravity": 4, "has_audio": {"Points": [{"co": {"X": 1, "Y": -1}, "interpolation": 2}]}, "has_video": {"Points": [{"co": {"X": 1, "Y": -1}, "interpolation": 2}]}, "id": "88LXJL99S5", "layer": 2, "location_x": {"Points": [{"co": {"X": 1, "Y": 0}, "interpolation": 2}]}, "location_y": {"Points": [{"co": {"X": 1, "Y": 0}, "interpolation": 2}]}, "perspective_c1_x": {"Points": [{"co": {"X": 1, "Y": -1}, "interpolation": 2}]}, "perspective_c1_y": {"Points": [{"co": {"X": 1, "Y": -1}, "interpolation": 2}]}, "perspective_c2_x": {"Points": [{"co": {"X": 1, "Y": -1}, "interpolation": 2}]}, "perspective_c2_y": {"Points": [{"co": {"X": 1, "Y": -1}, "interpolation": 2}]}, "perspective_c3_x": {"Points": [{"co": {"X": 1, "Y": -1}, "interpolation": 2}]}, "perspective_c3_y": {"Points": [{"co": {"X": 1, "Y": -1}, "interpolation": 2}]}, "perspective_c4_x": {"Points": [{"co": {"X": 1, "Y": -1}, "interpolation": 2}]}, "perspective_c4_y": {"Points": [{"co": {"X": 1, "Y": -1}, "interpolation": 2}]}, "position": 492, "reader": {"acodec": "", "audio_bit_rate": 0, "audio_stream_index": -1, "audio_timebase": {"den": 1, "num": 1}, "channel_layout": 4, "channels": 0, "display_ratio": {"den": 84, "num": 149}, "duration": 23.333984375, "file_size": "1912523", "fps": {"den": 1, "num": 30}, "has_audio": false, "has_single_image": false, "has_video": true, "height": 336, "interlaced_frame": false, "path": "/home/diary/Desktop/\u041a\u043e\u043d\u0446\u0435\u043f\u0442\u044b/64. \u041f\u0440\u0438\u0447\u0438\u043d\u044b \u0431\u043e\u043b\u0435\u0437\u043d\u0435\u0439/video assets/1046669254-preview.mp4", "pixel_format": 0, "pixel_ratio": {"den": 1, "num": 1}, "sample_rate": 0, "top_field_first": true, "type": "FFmpegReader", "vcodec": "h264", "video_bit_rate": 655703, "video_length": "700", "video_stream_index": 0, "video_timebase": {"den": 15360, "num": 1}, "width": 596}, "rotation": {"Points": [{"co": {"X": 1, "Y": 0}, "interpolation": 2}]}, "scale": 1, "scale_x": {"Points": [{"co": {"X": 1, "Y": 1}, "interpolation": 2}]}, "scale_y": {"Points": [{"co": {"X": 1, "Y": 1}, "interpolation": 2}]}, "shear_x": {"Points": [{"co": {"X": 1, "Y": 0}, "interpolation": 2}]}, "shear_y": {"Points": [{"co": {"X": 1, "Y": 0}, "interpolation": 2}]}, "start": 0, "time": {"Points": [{"co": {"X": 1, "Y": 1}, "interpolation": 2}]}, "volume": {"Points": [{"co": {"X": 1, "Y": 1}, "interpolation": 2}]}, "wave_color": {"alpha": {"Points": [{"co": {"X": 1, "Y": 255}, "handle_left": {"X": 0.5, "Y": 1}, "handle_right": {"X": 0.5, "Y": 0}, "handle_type": 0, "interpolation": 0}]}, "blue": {"Points": [{"co": {"X": 1, "Y": 255}, "handle_left": {"X": 0.5, "Y": 1}, "handle_right": {"X": 0.5, "Y": 0}, "handle_type": 0, "interpolation": 0}]}, "green": {"Points": [{"co": {"X": 1, "Y": 123}, "handle_left": {"X": 0.5, "Y": 1}, "handle_right": {"X": 0.5, "Y": 0}, "handle_type": 0, "interpolation": 0}]}, "red": {"Points": [{"co": {"X": 1, "Y": 0}, "handle_left": {"X": 0.5, "Y": 1}, "handle_right": {"X": 0.5, "Y": 0}, "handle_type": 0, "interpolation": 0}]}}, "waveform": false, "file_id": "2WNGMYMMB6", "title": "1046669254-preview.mp4", "image": "/home/diary/.openshot_qt/thumbnail/2WNGMYMMB6.png"}, {"alpha": {"Points": [{"co": {"X": 1, "Y": 1}, "interpolation": 2}]}, "anchor": 0, "channel_filter": {"Points": [{"co": {"X": 1, "Y": -1}, "interpolation": 2}]}, "channel_mapping": {"Points": [{"co": {"X": 1, "Y": -1}, "interpolation": 2}]}, "crop_height": {"Points": [{"co": {"X": 1, "Y": -1}, "interpolation": 2}]}, "crop_width": {"Points": [{"co": {"X": 1, "Y": -1}, "interpolation": 2}]}, "crop_x": {"Points": [{"co": {"X": 1, "Y": 0}, "interpolation": 2}]}, "crop_y": {"Points": [{"co": {"X": 1, "Y": 0}, "interpolation": 2}]}, "display": 0, "duration": 15.015000343322754, "effects": [], "end": 15.015000343322754, "gravity": 4, "has_audio": {"Points": [{"co": {"X": 1, "Y": -1}, "interpolation": 2}]}, "has_video": {"Points": [{"co": {"X": 1, "Y": -1}, "interpolation": 2}]}, "id": "NB6L1MNNM8", "layer": 1, "location_x": {"Points": [{"co": {"X": 1, "Y": 0}, "interpolation": 2}]}, "location_y": {"Points": [{"co": {"X": 1, "Y": 0}, "interpolation": 2}]}, "perspective_c1_x": {"Points": [{"co": {"X": 1, "Y": -1}, "interpolation": 2}]}, "perspective_c1_y": {"Points": [{"co": {"X": 1, "Y": -1}, "interpolation": 2}]}, "perspective_c2_x": {"Points": [{"co": {"X": 1, "Y": -1}, "interpolation": 2}]}, "perspective_c2_y": {"Points": [{"co": {"X": 1, "Y": -1}, "interpolation": 2}]}, "perspective_c3_x": {"Points": [{"co": {"X": 1, "Y": -1}, "interpolation": 2}]}, "perspective_c3_y": {"Points": [{"co": {"X": 1, "Y": -1}, "interpolation": 2}]}, "perspective_c4_x": {"Points": [{"co": {"X": 1, "Y": -1}, "interpolation": 2}]}, "perspective_c4_y": {"Points": [{"co": {"X": 1, "Y": -1}, "interpolation": 2}]}, "position": 492, "reader": {"acodec": "", "audio_bit_rate": 0, "audio_stream_index": -1, "audio_timebase": {"den": 1, "num": 1}, "channel_layout": 4, "channels": 0, "display_ratio": {"den": 84, "num": 149}, "duration": 15.015000343322754, "file_size": "1230915", "fps": {"den": 1001, "num": 24000}, "has_audio": false, "has_single_image": false, "has_video": true, "height": 336, "interlaced_frame": false, "path": "/home/diary/Desktop/\u041a\u043e\u043d\u0446\u0435\u043f\u0442\u044b/64. \u041f\u0440\u0438\u0447\u0438\u043d\u044b \u0431\u043e\u043b\u0435\u0437\u043d\u0435\u0439/video assets/1047425263-preview.mp4", "pixel_format": 0, "pixel_ratio": {"den": 1, "num": 1}, "sample_rate": 0, "top_field_first": true, "type": "FFmpegReader", "vcodec": "h264", "video_bit_rate": 655832, "video_length": "360", "video_stream_index": 0, "video_timebase": {"den": 24000, "num": 1}, "width": 596}, "rotation": {"Points": [{"co": {"X": 1, "Y": 0}, "interpolation": 2}]}, "scale": 1, "scale_x": {"Points": [{"co": {"X": 1, "Y": 1}, "interpolation": 2}]}, "scale_y": {"Points": [{"co": {"X": 1, "Y": 1}, "interpolation": 2}]}, "shear_x": {"Points": [{"co": {"X": 1, "Y": 0}, "interpolation": 2}]}, "shear_y": {"Points": [{"co": {"X": 1, "Y": 0}, "interpolation": 2}]}, "start": 0, "time": {"Points": [{"co": {"X": 1, "Y": 1}, "interpolation": 2}]}, "volume": {"Points": [{"co": {"X": 1, "Y": 1}, "interpolation": 2}]}, "wave_color": {"alpha": {"Points": [{"co": {"X": 1, "Y": 255}, "handle_left": {"X": 0.5, "Y": 1}, "handle_right": {"X": 0.5, "Y": 0}, "handle_type": 0, "interpolation": 0}]}, "blue": {"Points": [{"co": {"X": 1, "Y": 255}, "handle_left": {"X": 0.5, "Y": 1}, "handle_right": {"X": 0.5, "Y": 0}, "handle_type": 0, "interpolation": 0}]}, "green": {"Points": [{"co": {"X": 1, "Y": 123}, "handle_left": {"X": 0.5, "Y": 1}, "handle_right": {"X": 0.5, "Y": 0}, "handle_type": 0, "interpolation": 0}]}, "red": {"Points": [{"co": {"X": 1, "Y": 0}, "handle_left": {"X": 0.5, "Y": 1}, "handle_right": {"X": 0.5, "Y": 0}, "handle_type": 0, "interpolation": 0}]}}, "waveform": false, "file_id": "B97GWU5TU5", "title": "1047425263-preview.mp4", "image": "/home/diary/.openshot_qt/thumbnail/B97GWU5TU5.png"}, {"alpha": {"Points": [{"co": {"X": 1, "Y": 1}, "interpolation": 2}]}, "anchor": 0, "channel_filter": {"Points": [{"co": {"X": 1, "Y": -1}, "interpolation": 2}]}, "channel_mapping": {"Points": [{"co": {"X": 1, "Y": -1}, "interpolation": 2}]}, "crop_height": {"Points": [{"co": {"X": 1, "Y": -1}, "interpolation": 2}]}, "crop_width": {"Points": [{"co": {"X": 1, "Y": -1}, "interpolation": 2}]}, "crop_x": {"Points": [{"co": {"X": 1, "Y": 0}, "interpolation": 2}]}, "crop_y": {"Points": [{"co": {"X": 1, "Y": 0}, "interpolation": 2}]}, "display": 0, "duration": 23.333984375, "effects": [], "end": 23.333984375, "gravity": 4, "has_audio": {"Points": [{"co": {"X": 1, "Y": -1}, "interpolation": 2}]}, "has_video": {"Points": [{"co": {"X": 1, "Y": -1}, "interpolation": 2}]}, "id": "NR77C8ZFQT", "layer": 3, "location_x": {"Points": [{"co": {"X": 1, "Y": 0}, "interpolation": 2}]}, "location_y": {"Points": [{"co": {"X": 1, "Y": 0}, "interpolation": 2}]}, "perspective_c1_x": {"Points": [{"co": {"X": 1, "Y": -1}, "interpolation": 2}]}, "perspective_c1_y": {"Points": [{"co": {"X": 1, "Y": -1}, "interpolation": 2}]}, "perspective_c2_x": {"Points": [{"co": {"X": 1, "Y": -1}, "interpolation": 2}]}, "perspective_c2_y": {"Points": [{"co": {"X": 1, "Y": -1}, "interpolation": 2}]}, "perspective_c3_x": {"Points": [{"co": {"X": 1, "Y": -1}, "interpolation": 2}]}, "perspective_c3_y": {"Points": [{"co": {"X": 1, "Y": -1}, "interpolation": 2}]}, "perspective_c4_x": {"Points": [{"co": {"X": 1, "Y": -1}, "interpolation": 2}]}, "perspective_c4_y": {"Points": [{"co": {"X": 1, "Y": -1}, "interpolation": 2}]}, "position": 443.3875, "reader": {"acodec": "", "audio_bit_rate": 0, "audio_stream_index": -1, "audio_timebase": {"den": 1, "num": 1}, "channel_layout": 4, "channels": 0, "display_ratio": {"den": 84, "num": 149}, "duration": 23.333984375, "file_size": "2568585", "fps": {"den": 1, "num": 30}, "has_audio": false, "has_single_image": false, "has_video": true, "height": 336, "interlaced_frame": false, "path": "/home/diary/Desktop/\u041a\u043e\u043d\u0446\u0435\u043f\u0442\u044b/64. \u041f\u0440\u0438\u0447\u0438\u043d\u044b \u0431\u043e\u043b\u0435\u0437\u043d\u0435\u0439/video assets/1049558392-preview.mp4", "pixel_format": 0, "pixel_ratio": {"den": 1, "num": 1}, "sample_rate": 0, "top_field_first": true, "type": "FFmpegReader", "vcodec": "h264", "video_bit_rate": 880632, "video_length": "700", "video_stream_index": 0, "video_timebase": {"den": 15360, "num": 1}, "width": 596}, "rotation": {"Points": [{"co": {"X": 1, "Y": 0}, "interpolation": 2}]}, "scale": 1, "scale_x": {"Points": [{"co": {"X": 1, "Y": 1}, "interpolation": 2}]}, "scale_y": {"Points": [{"co": {"X": 1, "Y": 1}, "interpolation": 2}]}, "shear_x": {"Points": [{"co": {"X": 1, "Y": 0}, "interpolation": 2}]}, "shear_y": {"Points": [{"co": {"X": 1, "Y": 0}, "interpolation": 2}]}, "start": 0, "time": {"Points": [{"co": {"X": 1, "Y": 1}, "interpolation": 2}]}, "volume": {"Points": [{"co": {"X": 1, "Y": 1}, "interpolation": 2}]}, "wave_color": {"alpha": {"Points": [{"co": {"X": 1, "Y": 255}, "handle_left": {"X": 0.5, "Y": 1}, "handle_right": {"X": 0.5, "Y": 0}, "handle_type": 0, "interpolation": 0}]}, "blue": {"Points": [{"co": {"X": 1, "Y": 255}, "handle_left": {"X": 0.5, "Y": 1}, "handle_right": {"X": 0.5, "Y": 0}, "handle_type": 0, "interpolation": 0}]}, "green": {"Points": [{"co": {"X": 1, "Y": 123}, "handle_left": {"X": 0.5, "Y": 1}, "handle_right": {"X": 0.5, "Y": 0}, "handle_type": 0, "interpolation": 0}]}, "red": {"Points": [{"co": {"X": 1, "Y": 0}, "handle_left": {"X": 0.5, "Y": 1}, "handle_right": {"X": 0.5, "Y": 0}, "handle_type": 0, "interpolation": 0}]}}, "waveform": false, "file_id": "VENOL2QI0D", "title": "1049558392-preview.mp4", "image": "/home/diary/.openshot_qt/thumbnail/VENOL2QI0D.png"}, {"alpha": {"Points": [{"co": {"X": 1, "Y": 1}, "interpolation": 2}]}, "anchor": 0, "channel_filter": {"Points": [{"co": {"X": 1, "Y": -1}, "interpolation": 2}]}, "channel_mapping": {"Points": [{"co": {"X": 1, "Y": -1}, "interpolation": 2}]}, "crop_height": {"Points": [{"co": {"X": 1, "Y": -1}, "interpolation": 2}]}, "crop_width": {"Points": [{"co": {"X": 1, "Y": -1}, "interpolation": 2}]}, "crop_x": {"Points": [{"co": {"X": 1, "Y": 0}, "interpolation": 2}]}, "crop_y": {"Points": [{"co": {"X": 1, "Y": 0}, "interpolation": 2}]}, "display": 0, "duration": 12.5, "effects": [], "end": 12.5, "gravity": 4, "has_audio": {"Points": [{"co": {"X": 1, "Y": -1}, "interpolation": 2}]}, "has_video": {"Points": [{"co": {"X": 1, "Y": -1}, "interpolation": 2}]}, "id": "E8WDEU4D79", "layer": 1, "location_x": {"Points": [{"co": {"X": 1, "Y": 0}, "interpolation": 2}]}, "location_y": {"Points": [{"co": {"X": 1, "Y": 0}, "interpolation": 2}]}, "perspective_c1_x": {"Points": [{"co": {"X": 1, "Y": -1}, "interpolation": 2}]}, "perspective_c1_y": {"Points": [{"co": {"X": 1, "Y": -1}, "interpolation": 2}]}, "perspective_c2_x": {"Points": [{"co": {"X": 1, "Y": -1}, "interpolation": 2}]}, "perspective_c2_y": {"Points": [{"co": {"X": 1, "Y": -1}, "interpolation": 2}]}, "perspective_c3_x": {"Points": [{"co": {"X": 1, "Y": -1}, "interpolation": 2}]}, "perspective_c3_y": {"Points": [{"co": {"X": 1, "Y": -1}, "interpolation": 2}]}, "perspective_c4_x": {"Points": [{"co": {"X": 1, "Y": -1}, "interpolation": 2}]}, "perspective_c4_y": {"Points": [{"co": {"X": 1, "Y": -1}, "interpolation": 2}]}, "position": 458.72, "reader": {"acodec": "", "audio_bit_rate": 0, "audio_stream_index": -1, "audio_timebase": {"den": 1, "num": 1}, "channel_layout": 4, "channels": 0, "display_ratio": {"den": 84, "num": 149}, "duration": 12.5, "file_size": "1374542", "fps": {"den": 1, "num": 24}, "has_audio": false, "has_single_image": false, "has_video": true, "height": 336, "interlaced_frame": false, "path": "/home/diary/Desktop/\u041a\u043e\u043d\u0446\u0435\u043f\u0442\u044b/64. \u041f\u0440\u0438\u0447\u0438\u043d\u044b \u0431\u043e\u043b\u0435\u0437\u043d\u0435\u0439/video assets/1054044599-preview.mp4", "pixel_format": 0, "pixel_ratio": {"den": 1, "num": 1}, "sample_rate": 0, "top_field_first": true, "type": "FFmpegReader", "vcodec": "h264", "video_bit_rate": 879706, "video_length": "300", "video_stream_index": 0, "video_timebase": {"den": 12288, "num": 1}, "width": 596}, "rotation": {"Points": [{"co": {"X": 1, "Y": 0}, "interpolation": 2}]}, "scale": 1, "scale_x": {"Points": [{"co": {"X": 1, "Y": 1}, "interpolation": 2}]}, "scale_y": {"Points": [{"co": {"X": 1, "Y": 1}, "interpolation": 2}]}, "shear_x": {"Points": [{"co": {"X": 1, "Y": 0}, "interpolation": 2}]}, "shear_y": {"Points": [{"co": {"X": 1, "Y": 0}, "interpolation": 2}]}, "start": 0, "time": {"Points": [{"co": {"X": 1, "Y": 1}, "interpolation": 2}]}, "volume": {"Points": [{"co": {"X": 1, "Y": 1}, "interpolation": 2}]}, "wave_color": {"alpha": {"Points": [{"co": {"X": 1, "Y": 255}, "handle_left": {"X": 0.5, "Y": 1}, "handle_right": {"X": 0.5, "Y": 0}, "handle_type": 0, "interpolation": 0}]}, "blue": {"Points": [{"co": {"X": 1, "Y": 255}, "handle_left": {"X": 0.5, "Y": 1}, "handle_right": {"X": 0.5, "Y": 0}, "handle_type": 0, "interpolation": 0}]}, "green": {"Points": [{"co": {"X": 1, "Y": 123}, "handle_left": {"X": 0.5, "Y": 1}, "handle_right": {"X": 0.5, "Y": 0}, "handle_type": 0, "interpolation": 0}]}, "red": {"Points": [{"co": {"X": 1, "Y": 0}, "handle_left": {"X": 0.5, "Y": 1}, "handle_right": {"X": 0.5, "Y": 0}, "handle_type": 0, "interpolation": 0}]}}, "waveform": false, "file_id": "9Y73RSC2B4", "title": "1054044599-preview.mp4", "image": "/home/diary/.openshot_qt/thumbnail/9Y73RSC2B4.png"}, {"alpha": {"Points": [{"co": {"X": 1, "Y": 1}, "interpolation": 2}]}, "anchor": 0, "channel_filter": {"Points": [{"co": {"X": 1, "Y": -1}, "interpolation": 2}]}, "channel_mapping": {"Points": [{"co": {"X": 1, "Y": -1}, "interpolation": 2}]}, "crop_height": {"Points": [{"co": {"X": 1, "Y": -1}, "interpolation": 2}]}, "crop_width": {"Points": [{"co": {"X": 1, "Y": -1}, "interpolation": 2}]}, "crop_x": {"Points": [{"co": {"X": 1, "Y": 0}, "interpolation": 2}]}, "crop_y": {"Points": [{"co": {"X": 1, "Y": 0}, "interpolation": 2}]}, "display": 0, "duration": 86400.0, "effects": [], "end": 16.54, "gravity": 4, "has_audio": {"Points": [{"co": {"X": 1, "Y": -1}, "interpolation": 2}]}, "has_video": {"Points": [{"co": {"X": 1, "Y": -1}, "interpolation": 2}]}, "id": "ZYGACUIRPL", "layer": 4, "location_x": {"Points": [{"co": {"X": 1, "Y": 0}, "interpolation": 2}]}, "location_y": {"Points": [{"co": {"X": 1, "Y": 0}, "interpolation": 2}]}, "perspective_c1_x": {"Points": [{"co": {"X": 1, "Y": -1}, "interpolation": 2}]}, "perspective_c1_y": {"Points": [{"co": {"X": 1, "Y": -1}, "interpolation": 2}]}, "perspective_c2_x": {"Points": [{"co": {"X": 1, "Y": -1}, "interpolation": 2}]}, "perspective_c2_y": {"Points": [{"co": {"X": 1, "Y": -1}, "interpolation": 2}]}, "perspective_c3_x": {"Points": [{"co": {"X": 1, "Y": -1}, "interpolation": 2}]}, "perspective_c3_y": {"Points": [{"co": {"X": 1, "Y": -1}, "interpolation": 2}]}, "perspective_c4_x": {"Points": [{"co": {"X": 1, "Y": -1}, "interpolation": 2}]}, "perspective_c4_y": {"Points": [{"co": {"X": 1, "Y": -1}, "interpolation": 2}]}, "position": 29.5828125, "reader": {"acodec": "", "audio_bit_rate": 0, "audio_stream_index": -1, "audio_timebase": {"den": 1, "num": 1}, "channel_layout": 4, "channels": 0, "display_ratio": {"den": 275, "num": 499}, "duration": 86400.0, "file_size": "2195600", "fps": {"den": 1, "num": 30}, "has_audio": false, "has_single_image": true, "has_video": true, "height": 550, "interlaced_frame": false, "path": "/home/diary/Desktop/\u041a\u043e\u043d\u0446\u0435\u043f\u0442\u044b/64. \u041f\u0440\u0438\u0447\u0438\u043d\u044b \u0431\u043e\u043b\u0435\u0437\u043d\u0435\u0439/video assets/wrong stamp.png", "pixel_format": -1, "pixel_ratio": {"den": 1, "num": 1}, "sample_rate": 0, "top_field_first": true, "type": "QtImageReader", "vcodec": "", "video_bit_rate": 0, "video_length": "2592000", "video_stream_index": -1, "video_timebase": {"den": 30, "num": 1}, "width": 998}, "rotation": {"Points": [{"co": {"X": 1, "Y": 0}, "interpolation": 2}]}, "scale": 1, "scale_x": {"Points": [{"co": {"X": 1, "Y": 1}, "interpolation": 2}]}, "scale_y": {"Points": [{"co": {"X": 1, "Y": 1}, "interpolation": 2}]}, "shear_x": {"Points": [{"co": {"X": 1, "Y": 0}, "interpolation": 2}]}, "shear_y": {"Points": [{"co": {"X": 1, "Y": 0}, "interpolation": 2}]}, "start": 0, "time": {"Points": [{"co": {"X": 1, "Y": 1}, "interpolation": 2}]}, "volume": {"Points": [{"co": {"X": 1, "Y": 1}, "interpolation": 2}]}, "wave_color": {"alpha": {"Points": [{"co": {"X": 1, "Y": 255}, "handle_left": {"X": 0.5, "Y": 1}, "handle_right": {"X": 0.5, "Y": 0}, "handle_type": 0, "interpolation": 0}]}, "blue": {"Points": [{"co": {"X": 1, "Y": 255}, "handle_left": {"X": 0.5, "Y": 1}, "handle_right": {"X": 0.5, "Y": 0}, "handle_type": 0, "interpolation": 0}]}, "green": {"Points": [{"co": {"X": 1, "Y": 123}, "handle_left": {"X": 0.5, "Y": 1}, "handle_right": {"X": 0.5, "Y": 0}, "handle_type": 0, "interpolation": 0}]}, "red": {"Points": [{"co": {"X": 1, "Y": 0}, "handle_left": {"X": 0.5, "Y": 1}, "handle_right": {"X": 0.5, "Y": 0}, "handle_type": 0, "interpolation": 0}]}}, "waveform": false, "file_id": "0VXG5ZD080", "title": "wrong stamp.png", "image": "/home/diary/.openshot_qt/thumbnail/0VXG5ZD080.png"}, {"alpha": {"Points": [{"co": {"X": 1, "Y": 1}, "interpolation": 2}]}, "anchor": 0, "channel_filter": {"Points": [{"co": {"X": 1, "Y": -1}, "interpolation": 2}]}, "channel_mapping": {"Points": [{"co": {"X": 1, "Y": -1}, "interpolation": 2}]}, "crop_height": {"Points": [{"co": {"X": 1, "Y": -1}, "interpolation": 2}]}, "crop_width": {"Points": [{"co": {"X": 1, "Y": -1}, "interpolation": 2}]}, "crop_x": {"Points": [{"co": {"X": 1, "Y": 0}, "interpolation": 2}]}, "crop_y": {"Points": [{"co": {"X": 1, "Y": 0}, "interpolation": 2}]}, "display": 0, "duration": 86400.0, "effects": [], "end": 16.48, "gravity": 4, "has_audio": {"Points": [{"co": {"X": 1, "Y": -1}, "interpolation": 2}]}, "has_video": {"Points": [{"co": {"X": 1, "Y": -1}, "interpolation": 2}]}, "id": "88CYT0B0HE", "layer": 4, "location_x": {"Points": [{"co": {"X": 1, "Y": 0}, "interpolation": 2}]}, "location_y": {"Points": [{"co": {"X": 1, "Y": 0}, "interpolation": 2}]}, "perspective_c1_x": {"Points": [{"co": {"X": 1, "Y": -1}, "interpolation": 2}]}, "perspective_c1_y": {"Points": [{"co": {"X": 1, "Y": -1}, "interpolation": 2}]}, "perspective_c2_x": {"Points": [{"co": {"X": 1, "Y": -1}, "interpolation": 2}]}, "perspective_c2_y": {"Points": [{"co": {"X": 1, "Y": -1}, "interpolation": 2}]}, "perspective_c3_x": {"Points": [{"co": {"X": 1, "Y": -1}, "interpolation": 2}]}, "perspective_c3_y": {"Points": [{"co": {"X": 1, "Y": -1}, "interpolation": 2}]}, "perspective_c4_x": {"Points": [{"co": {"X": 1, "Y": -1}, "interpolation": 2}]}, "perspective_c4_y": {"Points": [{"co": {"X": 1, "Y": -1}, "interpolation": 2}]}, "position": 54.059999999999995, "reader": {"acodec": "", "audio_bit_rate": 0, "audio_stream_index": -1, "audio_timebase": {"den": 1, "num": 1}, "channel_layout": 4, "channels": 0, "display_ratio": {"den": 275, "num": 499}, "duration": 86400.0, "file_size": "2195600", "fps": {"den": 1, "num": 30}, "has_audio": false, "has_single_image": true, "has_video": true, "height": 550, "interlaced_frame": false, "path": "/home/diary/Desktop/\u041a\u043e\u043d\u0446\u0435\u043f\u0442\u044b/64. \u041f\u0440\u0438\u0447\u0438\u043d\u044b \u0431\u043e\u043b\u0435\u0437\u043d\u0435\u0439/video assets/wrong stamp.png", "pixel_format": -1, "pixel_ratio": {"den": 1, "num": 1}, "sample_rate": 0, "top_field_first": true, "type": "QtImageReader", "vcodec": "", "video_bit_rate": 0, "video_length": "2592000", "video_stream_index": -1, "video_timebase": {"den": 30, "num": 1}, "width": 998}, "rotation": {"Points": [{"co": {"X": 1, "Y": 0}, "interpolation": 2}]}, "scale": 1, "scale_x": {"Points": [{"co": {"X": 1, "Y": 1}, "interpolation": 2}]}, "scale_y": {"Points": [{"co": {"X": 1, "Y": 1}, "interpolation": 2}]}, "shear_x": {"Points": [{"co": {"X": 1, "Y": 0}, "interpolation": 2}]}, "shear_y": {"Points": [{"co": {"X": 1, "Y": 0}, "interpolation": 2}]}, "start": 0, "time": {"Points": [{"co": {"X": 1, "Y": 1}, "interpolation": 2}]}, "volume": {"Points": [{"co": {"X": 1, "Y": 1}, "interpolation": 2}]}, "wave_color": {"alpha": {"Points": [{"co": {"X": 1, "Y": 255}, "handle_left": {"X": 0.5, "Y": 1}, "handle_right": {"X": 0.5, "Y": 0}, "handle_type": 0, "interpolation": 0}]}, "blue": {"Points": [{"co": {"X": 1, "Y": 255}, "handle_left": {"X": 0.5, "Y": 1}, "handle_right": {"X": 0.5, "Y": 0}, "handle_type": 0, "interpolation": 0}]}, "green": {"Points": [{"co": {"X": 1, "Y": 123}, "handle_left": {"X": 0.5, "Y": 1}, "handle_right": {"X": 0.5, "Y": 0}, "handle_type": 0, "interpolation": 0}]}, "red": {"Points": [{"co": {"X": 1, "Y": 0}, "handle_left": {"X": 0.5, "Y": 1}, "handle_right": {"X": 0.5, "Y": 0}, "handle_type": 0, "interpolation": 0}]}}, "waveform": false, "file_id": "0VXG5ZD080", "title": "wrong stamp.png", "image": "/home/diary/.openshot_qt/thumbnail/0VXG5ZD080.png"}, {"alpha": {"Points": [{"co": {"X": 1, "Y": 1}, "interpolation": 2}]}, "anchor": 0, "channel_filter": {"Points": [{"co": {"X": 1, "Y": -1}, "interpolation": 2}]}, "channel_mapping": {"Points": [{"co": {"X": 1, "Y": -1}, "interpolation": 2}]}, "crop_height": {"Points": [{"co": {"X": 1, "Y": -1}, "interpolation": 2}]}, "crop_width": {"Points": [{"co": {"X": 1, "Y": -1}, "interpolation": 2}]}, "crop_x": {"Points": [{"co": {"X": 1, "Y": 0}, "interpolation": 2}]}, "crop_y": {"Points": [{"co": {"X": 1, "Y": 0}, "interpolation": 2}]}, "display": 0, "duration": 86400.0, "effects": [], "end": 10, "gravity": 4, "has_audio": {"Points": [{"co": {"X": 1, "Y": -1}, "interpolation": 2}]}, "has_video": {"Points": [{"co": {"X": 1, "Y": -1}, "interpolation": 2}]}, "id": "7NXRR1UD6W", "layer": 4, "location_x": {"Points": [{"co": {"X": 1, "Y": 0}, "interpolation": 2}]}, "location_y": {"Points": [{"co": {"X": 1, "Y": 0}, "interpolation": 2}]}, "perspective_c1_x": {"Points": [{"co": {"X": 1, "Y": -1}, "interpolation": 2}]}, "perspective_c1_y": {"Points": [{"co": {"X": 1, "Y": -1}, "interpolation": 2}]}, "perspective_c2_x": {"Points": [{"co": {"X": 1, "Y": -1}, "interpolation": 2}]}, "perspective_c2_y": {"Points": [{"co": {"X": 1, "Y": -1}, "interpolation": 2}]}, "perspective_c3_x": {"Points": [{"co": {"X": 1, "Y": -1}, "interpolation": 2}]}, "perspective_c3_y": {"Points": [{"co": {"X": 1, "Y": -1}, "interpolation": 2}]}, "perspective_c4_x": {"Points": [{"co": {"X": 1, "Y": -1}, "interpolation": 2}]}, "perspective_c4_y": {"Points": [{"co": {"X": 1, "Y": -1}, "interpolation": 2}]}, "position": 75.3406245803833, "reader": {"acodec": "", "audio_bit_rate": 0, "audio_stream_index": -1, "audio_timebase": {"den": 1, "num": 1}, "channel_layout": 4, "channels": 0, "display_ratio": {"den": 275, "num": 499}, "duration": 86400.0, "file_size": "2195600", "fps": {"den": 1, "num": 30}, "has_audio": false, "has_single_image": true, "has_video": true, "height": 550, "interlaced_frame": false, "path": "/home/diary/Desktop/\u041a\u043e\u043d\u0446\u0435\u043f\u0442\u044b/64. \u041f\u0440\u0438\u0447\u0438\u043d\u044b \u0431\u043e\u043b\u0435\u0437\u043d\u0435\u0439/video assets/wrong stamp.png", "pixel_format": -1, "pixel_ratio": {"den": 1, "num": 1}, "sample_rate": 0, "top_field_first": true, "type": "QtImageReader", "vcodec": "", "video_bit_rate": 0, "video_length": "2592000", "video_stream_index": -1, "video_timebase": {"den": 30, "num": 1}, "width": 998}, "rotation": {"Points": [{"co": {"X": 1, "Y": 0}, "interpolation": 2}]}, "scale": 1, "scale_x": {"Points": [{"co": {"X": 1, "Y": 1}, "interpolation": 2}]}, "scale_y": {"Points": [{"co": {"X": 1, "Y": 1}, "interpolation": 2}]}, "shear_x": {"Points": [{"co": {"X": 1, "Y": 0}, "interpolation": 2}]}, "shear_y": {"Points": [{"co": {"X": 1, "Y": 0}, "interpolation": 2}]}, "start": 0, "time": {"Points": [{"co": {"X": 1, "Y": 1}, "interpolation": 2}]}, "volume": {"Points": [{"co": {"X": 1, "Y": 1}, "interpolation": 2}]}, "wave_color": {"alpha": {"Points": [{"co": {"X": 1, "Y": 255}, "handle_left": {"X": 0.5, "Y": 1}, "handle_right": {"X": 0.5, "Y": 0}, "handle_type": 0, "interpolation": 0}]}, "blue": {"Points": [{"co": {"X": 1, "Y": 255}, "handle_left": {"X": 0.5, "Y": 1}, "handle_right": {"X": 0.5, "Y": 0}, "handle_type": 0, "interpolation": 0}]}, "green": {"Points": [{"co": {"X": 1, "Y": 123}, "handle_left": {"X": 0.5, "Y": 1}, "handle_right": {"X": 0.5, "Y": 0}, "handle_type": 0, "interpolation": 0}]}, "red": {"Points": [{"co": {"X": 1, "Y": 0}, "handle_left": {"X": 0.5, "Y": 1}, "handle_right": {"X": 0.5, "Y": 0}, "handle_type": 0, "interpolation": 0}]}}, "waveform": false, "file_id": "0VXG5ZD080", "title": "wrong stamp.png", "image": "/home/diary/.openshot_qt/thumbnail/0VXG5ZD080.png"}, {"alpha": {"Points": [{"co": {"X": 1, "Y": 1}, "interpolation": 2}]}, "anchor": 0, "channel_filter": {"Points": [{"co": {"X": 1, "Y": -1}, "interpolation": 2}]}, "channel_mapping": {"Points": [{"co": {"X": 1, "Y": -1}, "interpolation": 2}]}, "crop_height": {"Points": [{"co": {"X": 1, "Y": -1}, "interpolation": 2}]}, "crop_width": {"Points": [{"co": {"X": 1, "Y": -1}, "interpolation": 2}]}, "crop_x": {"Points": [{"co": {"X": 1, "Y": 0}, "interpolation": 2}]}, "crop_y": {"Points": [{"co": {"X": 1, "Y": 0}, "interpolation": 2}]}, "display": 0, "duration": 86400.0, "effects": [], "end": 36.99999999999999, "gravity": 4, "has_audio": {"Points": [{"co": {"X": 1, "Y": -1}, "interpolation": 2}]}, "has_video": {"Points": [{"co": {"X": 1, "Y": -1}, "interpolation": 2}]}, "id": "HTFUKU1BH6", "layer": 4, "location_x": {"Points": [{"co": {"X": 1, "Y": 0}, "interpolation": 2}]}, "location_y": {"Points": [{"co": {"X": 1, "Y": 0}, "interpolation": 2}]}, "perspective_c1_x": {"Points": [{"co": {"X": 1, "Y": -1}, "interpolation": 2}]}, "perspective_c1_y": {"Points": [{"co": {"X": 1, "Y": -1}, "interpolation": 2}]}, "perspective_c2_x": {"Points": [{"co": {"X": 1, "Y": -1}, "interpolation": 2}]}, "perspective_c2_y": {"Points": [{"co": {"X": 1, "Y": -1}, "interpolation": 2}]}, "perspective_c3_x": {"Points": [{"co": {"X": 1, "Y": -1}, "interpolation": 2}]}, "perspective_c3_y": {"Points": [{"co": {"X": 1, "Y": -1}, "interpolation": 2}]}, "perspective_c4_x": {"Points": [{"co": {"X": 1, "Y": -1}, "interpolation": 2}]}, "perspective_c4_y": {"Points": [{"co": {"X": 1, "Y": -1}, "interpolation": 2}]}, "position": 94.74, "reader": {"acodec": "", "audio_bit_rate": 0, "audio_stream_index": -1, "audio_timebase": {"den": 1, "num": 1}, "channel_layout": 4, "channels": 0, "display_ratio": {"den": 275, "num": 499}, "duration": 86400.0, "file_size": "2195600", "fps": {"den": 1, "num": 30}, "has_audio": false, "has_single_image": true, "has_video": true, "height": 550, "interlaced_frame": false, "path": "/home/diary/Desktop/\u041a\u043e\u043d\u0446\u0435\u043f\u0442\u044b/64. \u041f\u0440\u0438\u0447\u0438\u043d\u044b \u0431\u043e\u043b\u0435\u0437\u043d\u0435\u0439/video assets/wrong stamp.png", "pixel_format": -1, "pixel_ratio": {"den": 1, "num": 1}, "sample_rate": 0, "top_field_first": true, "type": "QtImageReader", "vcodec": "", "video_bit_rate": 0, "video_length": "2592000", "video_stream_index": -1, "video_timebase": {"den": 30, "num": 1}, "width": 998}, "rotation": {"Points": [{"co": {"X": 1, "Y": 0}, "interpolation": 2}]}, "scale": 1, "scale_x": {"Points": [{"co": {"X": 1, "Y": 1}, "interpolation": 2}]}, "scale_y": {"Points": [{"co": {"X": 1, "Y": 1}, "interpolation": 2}]}, "shear_x": {"Points": [{"co": {"X": 1, "Y": 0}, "interpolation": 2}]}, "shear_y": {"Points": [{"co": {"X": 1, "Y": 0}, "interpolation": 2}]}, "start": 0, "time": {"Points": [{"co": {"X": 1, "Y": 1}, "interpolation": 2}]}, "volume": {"Points": [{"co": {"X": 1, "Y": 1}, "interpolation": 2}]}, "wave_color": {"alpha": {"Points": [{"co": {"X": 1, "Y": 255}, "handle_left": {"X": 0.5, "Y": 1}, "handle_right": {"X": 0.5, "Y": 0}, "handle_type": 0, "interpolation": 0}]}, "blue": {"Points": [{"co": {"X": 1, "Y": 255}, "handle_left": {"X": 0.5, "Y": 1}, "handle_right": {"X": 0.5, "Y": 0}, "handle_type": 0, "interpolation": 0}]}, "green": {"Points": [{"co": {"X": 1, "Y": 123}, "handle_left": {"X": 0.5, "Y": 1}, "handle_right": {"X": 0.5, "Y": 0}, "handle_type": 0, "interpolation": 0}]}, "red": {"Points": [{"co": {"X": 1, "Y": 0}, "handle_left": {"X": 0.5, "Y": 1}, "handle_right": {"X": 0.5, "Y": 0}, "handle_type": 0, "interpolation": 0}]}}, "waveform": false, "file_id": "0VXG5ZD080", "title": "wrong stamp.png", "image": "/home/diary/.openshot_qt/thumbnail/0VXG5ZD080.png"}, {"alpha": {"Points": [{"co": {"X": 1, "Y": 1}, "interpolation": 2}]}, "anchor": 0, "channel_filter": {"Points": [{"co": {"X": 1, "Y": -1}, "interpolation": 2}]}, "channel_mapping": {"Points": [{"co": {"X": 1, "Y": -1}, "interpolation": 2}]}, "crop_height": {"Points": [{"co": {"X": 1, "Y": -1}, "interpolation": 2}]}, "crop_width": {"Points": [{"co": {"X": 1, "Y": -1}, "interpolation": 2}]}, "crop_x": {"Points": [{"co": {"X": 1, "Y": 0}, "interpolation": 2}]}, "crop_y": {"Points": [{"co": {"X": 1, "Y": 0}, "interpolation": 2}]}, "display": 0, "duration": 86400.0, "effects": [], "end": 10, "gravity": 4, "has_audio": {"Points": [{"co": {"X": 1, "Y": -1}, "interpolation": 2}]}, "has_video": {"Points": [{"co": {"X": 1, "Y": -1}, "interpolation": 2}]}, "id": "RWY6RH8HVY", "layer": 4, "location_x": {"Points": [{"co": {"X": 1, "Y": 0}, "interpolation": 2}]}, "location_y": {"Points": [{"co": {"X": 1, "Y": 0}, "interpolation": 2}]}, "perspective_c1_x": {"Points": [{"co": {"X": 1, "Y": -1}, "interpolation": 2}]}, "perspective_c1_y": {"Points": [{"co": {"X": 1, "Y": -1}, "interpolation": 2}]}, "perspective_c2_x": {"Points": [{"co": {"X": 1, "Y": -1}, "interpolation": 2}]}, "perspective_c2_y": {"Points": [{"co": {"X": 1, "Y": -1}, "interpolation": 2}]}, "perspective_c3_x": {"Points": [{"co": {"X": 1, "Y": -1}, "interpolation": 2}]}, "perspective_c3_y": {"Points": [{"co": {"X": 1, "Y": -1}, "interpolation": 2}]}, "perspective_c4_x": {"Points": [{"co": {"X": 1, "Y": -1}, "interpolation": 2}]}, "perspective_c4_y": {"Points": [{"co": {"X": 1, "Y": -1}, "interpolation": 2}]}, "position": 135.220625, "reader": {"acodec": "", "audio_bit_rate": 0, "audio_stream_index": -1, "audio_timebase": {"den": 1, "num": 1}, "channel_layout": 4, "channels": 0, "display_ratio": {"den": 275, "num": 499}, "duration": 86400.0, "file_size": "2195600", "fps": {"den": 1, "num": 30}, "has_audio": false, "has_single_image": true, "has_video": true, "height": 550, "interlaced_frame": false, "path": "/home/diary/Desktop/\u041a\u043e\u043d\u0446\u0435\u043f\u0442\u044b/64. \u041f\u0440\u0438\u0447\u0438\u043d\u044b \u0431\u043e\u043b\u0435\u0437\u043d\u0435\u0439/video assets/wrong stamp.png", "pixel_format": -1, "pixel_ratio": {"den": 1, "num": 1}, "sample_rate": 0, "top_field_first": true, "type": "QtImageReader", "vcodec": "", "video_bit_rate": 0, "video_length": "2592000", "video_stream_index": -1, "video_timebase": {"den": 30, "num": 1}, "width": 998}, "rotation": {"Points": [{"co": {"X": 1, "Y": 0}, "interpolation": 2}]}, "scale": 1, "scale_x": {"Points": [{"co": {"X": 1, "Y": 1}, "interpolation": 2}]}, "scale_y": {"Points": [{"co": {"X": 1, "Y": 1}, "interpolation": 2}]}, "shear_x": {"Points": [{"co": {"X": 1, "Y": 0}, "interpolation": 2}]}, "shear_y": {"Points": [{"co": {"X": 1, "Y": 0}, "interpolation": 2}]}, "start": 0, "time": {"Points": [{"co": {"X": 1, "Y": 1}, "interpolation": 2}]}, "volume": {"Points": [{"co": {"X": 1, "Y": 1}, "interpolation": 2}]}, "wave_color": {"alpha": {"Points": [{"co": {"X": 1, "Y": 255}, "handle_left": {"X": 0.5, "Y": 1}, "handle_right": {"X": 0.5, "Y": 0}, "handle_type": 0, "interpolation": 0}]}, "blue": {"Points": [{"co": {"X": 1, "Y": 255}, "handle_left": {"X": 0.5, "Y": 1}, "handle_right": {"X": 0.5, "Y": 0}, "handle_type": 0, "interpolation": 0}]}, "green": {"Points": [{"co": {"X": 1, "Y": 123}, "handle_left": {"X": 0.5, "Y": 1}, "handle_right": {"X": 0.5, "Y": 0}, "handle_type": 0, "interpolation": 0}]}, "red": {"Points": [{"co": {"X": 1, "Y": 0}, "handle_left": {"X": 0.5, "Y": 1}, "handle_right": {"X": 0.5, "Y": 0}, "handle_type": 0, "interpolation": 0}]}}, "waveform": false, "file_id": "0VXG5ZD080", "title": "wrong stamp.png", "image": "/home/diary/.openshot_qt/thumbnail/0VXG5ZD080.png"}, {"alpha": {"Points": [{"co": {"X": 1, "Y": 1}, "interpolation": 2}]}, "anchor": 0, "channel_filter": {"Points": [{"co": {"X": 1, "Y": -1}, "interpolation": 2}]}, "channel_mapping": {"Points": [{"co": {"X": 1, "Y": -1}, "interpolation": 2}]}, "crop_height": {"Points": [{"co": {"X": 1, "Y": -1}, "interpolation": 2}]}, "crop_width": {"Points": [{"co": {"X": 1, "Y": -1}, "interpolation": 2}]}, "crop_x": {"Points": [{"co": {"X": 1, "Y": 0}, "interpolation": 2}]}, "crop_y": {"Points": [{"co": {"X": 1, "Y": 0}, "interpolation": 2}]}, "display": 0, "duration": 86400.0, "effects": [], "end": 10, "gravity": 4, "has_audio": {"Points": [{"co": {"X": 1, "Y": -1}, "interpolation": 2}]}, "has_video": {"Points": [{"co": {"X": 1, "Y": -1}, "interpolation": 2}]}, "id": "PWDFICFP8Y", "layer": 4, "location_x": {"Points": [{"co": {"X": 1, "Y": 0}, "interpolation": 2}]}, "location_y": {"Points": [{"co": {"X": 1, "Y": 0}, "interpolation": 2}]}, "perspective_c1_x": {"Points": [{"co": {"X": 1, "Y": -1}, "interpolation": 2}]}, "perspective_c1_y": {"Points": [{"co": {"X": 1, "Y": -1}, "interpolation": 2}]}, "perspective_c2_x": {"Points": [{"co": {"X": 1, "Y": -1}, "interpolation": 2}]}, "perspective_c2_y": {"Points": [{"co": {"X": 1, "Y": -1}, "interpolation": 2}]}, "perspective_c3_x": {"Points": [{"co": {"X": 1, "Y": -1}, "interpolation": 2}]}, "perspective_c3_y": {"Points": [{"co": {"X": 1, "Y": -1}, "interpolation": 2}]}, "perspective_c4_x": {"Points": [{"co": {"X": 1, "Y": -1}, "interpolation": 2}]}, "perspective_c4_y": {"Points": [{"co": {"X": 1, "Y": -1}, "interpolation": 2}]}, "position": 152.220625, "reader": {"acodec": "", "audio_bit_rate": 0, "audio_stream_index": -1, "audio_timebase": {"den": 1, "num": 1}, "channel_layout": 4, "channels": 0, "display_ratio": {"den": 275, "num": 499}, "duration": 86400.0, "file_size": "2195600", "fps": {"den": 1, "num": 30}, "has_audio": false, "has_single_image": true, "has_video": true, "height": 550, "interlaced_frame": false, "path": "/home/diary/Desktop/\u041a\u043e\u043d\u0446\u0435\u043f\u0442\u044b/64. \u041f\u0440\u0438\u0447\u0438\u043d\u044b \u0431\u043e\u043b\u0435\u0437\u043d\u0435\u0439/video assets/wrong stamp.png", "pixel_format": -1, "pixel_ratio": {"den": 1, "num": 1}, "sample_rate": 0, "top_field_first": true, "type": "QtImageReader", "vcodec": "", "video_bit_rate": 0, "video_length": "2592000", "video_stream_index": -1, "video_timebase": {"den": 30, "num": 1}, "width": 998}, "rotation": {"Points": [{"co": {"X": 1, "Y": 0}, "interpolation": 2}]}, "scale": 1, "scale_x": {"Points": [{"co": {"X": 1, "Y": 1}, "interpolation": 2}]}, "scale_y": {"Points": [{"co": {"X": 1, "Y": 1}, "interpolation": 2}]}, "shear_x": {"Points": [{"co": {"X": 1, "Y": 0}, "interpolation": 2}]}, "shear_y": {"Points": [{"co": {"X": 1, "Y": 0}, "interpolation": 2}]}, "start": 0, "time": {"Points": [{"co": {"X": 1, "Y": 1}, "interpolation": 2}]}, "volume": {"Points": [{"co": {"X": 1, "Y": 1}, "interpolation": 2}]}, "wave_color": {"alpha": {"Points": [{"co": {"X": 1, "Y": 255}, "handle_left": {"X": 0.5, "Y": 1}, "handle_right": {"X": 0.5, "Y": 0}, "handle_type": 0, "interpolation": 0}]}, "blue": {"Points": [{"co": {"X": 1, "Y": 255}, "handle_left": {"X": 0.5, "Y": 1}, "handle_right": {"X": 0.5, "Y": 0}, "handle_type": 0, "interpolation": 0}]}, "green": {"Points": [{"co": {"X": 1, "Y": 123}, "handle_left": {"X": 0.5, "Y": 1}, "handle_right": {"X": 0.5, "Y": 0}, "handle_type": 0, "interpolation": 0}]}, "red": {"Points": [{"co": {"X": 1, "Y": 0}, "handle_left": {"X": 0.5, "Y": 1}, "handle_right": {"X": 0.5, "Y": 0}, "handle_type": 0, "interpolation": 0}]}}, "waveform": false, "file_id": "0VXG5ZD080", "title": "wrong stamp.png", "image": "/home/diary/.openshot_qt/thumbnail/0VXG5ZD080.png"}, {"alpha": {"Points": [{"co": {"X": 1, "Y": 1}, "interpolation": 2}]}, "anchor": 0, "channel_filter": {"Points": [{"co": {"X": 1, "Y": -1}, "interpolation": 2}]}, "channel_mapping": {"Points": [{"co": {"X": 1, "Y": -1}, "interpolation": 2}]}, "crop_height": {"Points": [{"co": {"X": 1, "Y": -1}, "interpolation": 2}]}, "crop_width": {"Points": [{"co": {"X": 1, "Y": -1}, "interpolation": 2}]}, "crop_x": {"Points": [{"co": {"X": 1, "Y": 0}, "interpolation": 2}]}, "crop_y": {"Points": [{"co": {"X": 1, "Y": 0}, "interpolation": 2}]}, "display": 0, "duration": 86400.0, "effects": [], "end": 7.66, "gravity": 4, "has_audio": {"Points": [{"co": {"X": 1, "Y": -1}, "interpolation": 2}]}, "has_video": {"Points": [{"co": {"X": 1, "Y": -1}, "interpolation": 2}]}, "id": "O8GAJXM1S6", "layer": 4, "location_x": {"Points": [{"co": {"X": 1, "Y": 0}, "interpolation": 2}]}, "location_y": {"Points": [{"co": {"X": 1, "Y": 0}, "interpolation": 2}]}, "perspective_c1_x": {"Points": [{"co": {"X": 1, "Y": -1}, "interpolation": 2}]}, "perspective_c1_y": {"Points": [{"co": {"X": 1, "Y": -1}, "interpolation": 2}]}, "perspective_c2_x": {"Points": [{"co": {"X": 1, "Y": -1}, "interpolation": 2}]}, "perspective_c2_y": {"Points": [{"co": {"X": 1, "Y": -1}, "interpolation": 2}]}, "perspective_c3_x": {"Points": [{"co": {"X": 1, "Y": -1}, "interpolation": 2}]}, "perspective_c3_y": {"Points": [{"co": {"X": 1, "Y": -1}, "interpolation": 2}]}, "perspective_c4_x": {"Points": [{"co": {"X": 1, "Y": -1}, "interpolation": 2}]}, "perspective_c4_y": {"Points": [{"co": {"X": 1, "Y": -1}, "interpolation": 2}]}, "position": 164.48062499999997, "reader": {"acodec": "", "audio_bit_rate": 0, "audio_stream_index": -1, "audio_timebase": {"den": 1, "num": 1}, "channel_layout": 4, "channels": 0, "display_ratio": {"den": 275, "num": 499}, "duration": 86400.0, "file_size": "2195600", "fps": {"den": 1, "num": 30}, "has_audio": false, "has_single_image": true, "has_video": true, "height": 550, "interlaced_frame": false, "path": "/home/diary/Desktop/\u041a\u043e\u043d\u0446\u0435\u043f\u0442\u044b/64. \u041f\u0440\u0438\u0447\u0438\u043d\u044b \u0431\u043e\u043b\u0435\u0437\u043d\u0435\u0439/video assets/wrong stamp.png", "pixel_format": -1, "pixel_ratio": {"den": 1, "num": 1}, "sample_rate": 0, "top_field_first": true, "type": "QtImageReader", "vcodec": "", "video_bit_rate": 0, "video_length": "2592000", "video_stream_index": -1, "video_timebase": {"den": 30, "num": 1}, "width": 998}, "rotation": {"Points": [{"co": {"X": 1, "Y": 0}, "interpolation": 2}]}, "scale": 1, "scale_x": {"Points": [{"co": {"X": 1, "Y": 1}, "interpolation": 2}]}, "scale_y": {"Points": [{"co": {"X": 1, "Y": 1}, "interpolation": 2}]}, "shear_x": {"Points": [{"co": {"X": 1, "Y": 0}, "interpolation": 2}]}, "shear_y": {"Points": [{"co": {"X": 1, "Y": 0}, "interpolation": 2}]}, "start": 0, "time": {"Points": [{"co": {"X": 1, "Y": 1}, "interpolation": 2}]}, "volume": {"Points": [{"co": {"X": 1, "Y": 1}, "interpolation": 2}]}, "wave_color": {"alpha": {"Points": [{"co": {"X": 1, "Y": 255}, "handle_left": {"X": 0.5, "Y": 1}, "handle_right": {"X": 0.5, "Y": 0}, "handle_type": 0, "interpolation": 0}]}, "blue": {"Points": [{"co": {"X": 1, "Y": 255}, "handle_left": {"X": 0.5, "Y": 1}, "handle_right": {"X": 0.5, "Y": 0}, "handle_type": 0, "interpolation": 0}]}, "green": {"Points": [{"co": {"X": 1, "Y": 123}, "handle_left": {"X": 0.5, "Y": 1}, "handle_right": {"X": 0.5, "Y": 0}, "handle_type": 0, "interpolation": 0}]}, "red": {"Points": [{"co": {"X": 1, "Y": 0}, "handle_left": {"X": 0.5, "Y": 1}, "handle_right": {"X": 0.5, "Y": 0}, "handle_type": 0, "interpolation": 0}]}}, "waveform": false, "file_id": "0VXG5ZD080", "title": "wrong stamp.png", "image": "/home/diary/.openshot_qt/thumbnail/0VXG5ZD080.png"}, {"alpha": {"Points": [{"co": {"X": 1, "Y": 1}, "interpolation": 2}]}, "anchor": 0, "channel_filter": {"Points": [{"co": {"X": 1, "Y": -1}, "interpolation": 2}]}, "channel_mapping": {"Points": [{"co": {"X": 1, "Y": -1}, "interpolation": 2}]}, "crop_height": {"Points": [{"co": {"X": 1, "Y": -1}, "interpolation": 2}]}, "crop_width": {"Points": [{"co": {"X": 1, "Y": -1}, "interpolation": 2}]}, "crop_x": {"Points": [{"co": {"X": 1, "Y": 0}, "interpolation": 2}]}, "crop_y": {"Points": [{"co": {"X": 1, "Y": 0}, "interpolation": 2}]}, "display": 0, "duration": 86400.0, "effects": [], "end": 10, "gravity": 4, "has_audio": {"Points": [{"co": {"X": 1, "Y": -1}, "interpolation": 2}]}, "has_video": {"Points": [{"co": {"X": 1, "Y": -1}, "interpolation": 2}]}, "id": "3JO4XG1LWJ", "layer": 4, "location_x": {"Points": [{"co": {"X": 1, "Y": 0}, "interpolation": 2}]}, "location_y": {"Points": [{"co": {"X": 1, "Y": 0}, "interpolation": 2}]}, "perspective_c1_x": {"Points": [{"co": {"X": 1, "Y": -1}, "interpolation": 2}]}, "perspective_c1_y": {"Points": [{"co": {"X": 1, "Y": -1}, "interpolation": 2}]}, "perspective_c2_x": {"Points": [{"co": {"X": 1, "Y": -1}, "interpolation": 2}]}, "perspective_c2_y": {"Points": [{"co": {"X": 1, "Y": -1}, "interpolation": 2}]}, "perspective_c3_x": {"Points": [{"co": {"X": 1, "Y": -1}, "interpolation": 2}]}, "perspective_c3_y": {"Points": [{"co": {"X": 1, "Y": -1}, "interpolation": 2}]}, "perspective_c4_x": {"Points": [{"co": {"X": 1, "Y": -1}, "interpolation": 2}]}, "perspective_c4_y": {"Points": [{"co": {"X": 1, "Y": -1}, "interpolation": 2}]}, "position": 174.50062538146975, "reader": {"acodec": "", "audio_bit_rate": 0, "audio_stream_index": -1, "audio_timebase": {"den": 1, "num": 1}, "channel_layout": 4, "channels": 0, "display_ratio": {"den": 275, "num": 499}, "duration": 86400.0, "file_size": "2195600", "fps": {"den": 1, "num": 30}, "has_audio": false, "has_single_image": true, "has_video": true, "height": 550, "interlaced_frame": false, "path": "/home/diary/Desktop/\u041a\u043e\u043d\u0446\u0435\u043f\u0442\u044b/64. \u041f\u0440\u0438\u0447\u0438\u043d\u044b \u0431\u043e\u043b\u0435\u0437\u043d\u0435\u0439/video assets/wrong stamp.png", "pixel_format": -1, "pixel_ratio": {"den": 1, "num": 1}, "sample_rate": 0, "top_field_first": true, "type": "QtImageReader", "vcodec": "", "video_bit_rate": 0, "video_length": "2592000", "video_stream_index": -1, "video_timebase": {"den": 30, "num": 1}, "width": 998}, "rotation": {"Points": [{"co": {"X": 1, "Y": 0}, "interpolation": 2}]}, "scale": 1, "scale_x": {"Points": [{"co": {"X": 1, "Y": 1}, "interpolation": 2}]}, "scale_y": {"Points": [{"co": {"X": 1, "Y": 1}, "interpolation": 2}]}, "shear_x": {"Points": [{"co": {"X": 1, "Y": 0}, "interpolation": 2}]}, "shear_y": {"Points": [{"co": {"X": 1, "Y": 0}, "interpolation": 2}]}, "start": 1.68, "time": {"Points": [{"co": {"X": 1, "Y": 1}, "interpolation": 2}]}, "volume": {"Points": [{"co": {"X": 1, "Y": 1}, "interpolation": 2}]}, "wave_color": {"alpha": {"Points": [{"co": {"X": 1, "Y": 255}, "handle_left": {"X": 0.5, "Y": 1}, "handle_right": {"X": 0.5, "Y": 0}, "handle_type": 0, "interpolation": 0}]}, "blue": {"Points": [{"co": {"X": 1, "Y": 255}, "handle_left": {"X": 0.5, "Y": 1}, "handle_right": {"X": 0.5, "Y": 0}, "handle_type": 0, "interpolation": 0}]}, "green": {"Points": [{"co": {"X": 1, "Y": 123}, "handle_left": {"X": 0.5, "Y": 1}, "handle_right": {"X": 0.5, "Y": 0}, "handle_type": 0, "interpolation": 0}]}, "red": {"Points": [{"co": {"X": 1, "Y": 0}, "handle_left": {"X": 0.5, "Y": 1}, "handle_right": {"X": 0.5, "Y": 0}, "handle_type": 0, "interpolation": 0}]}}, "waveform": false, "file_id": "0VXG5ZD080", "title": "wrong stamp.png", "image": "/home/diary/.openshot_qt/thumbnail/0VXG5ZD080.png"}, {"alpha": {"Points": [{"co": {"X": 1, "Y": 1}, "interpolation": 2}]}, "anchor": 0, "channel_filter": {"Points": [{"co": {"X": 1, "Y": -1}, "interpolation": 2}]}, "channel_mapping": {"Points": [{"co": {"X": 1, "Y": -1}, "interpolation": 2}]}, "crop_height": {"Points": [{"co": {"X": 1, "Y": -1}, "interpolation": 2}]}, "crop_width": {"Points": [{"co": {"X": 1, "Y": -1}, "interpolation": 2}]}, "crop_x": {"Points": [{"co": {"X": 1, "Y": 0}, "interpolation": 2}]}, "crop_y": {"Points": [{"co": {"X": 1, "Y": 0}, "interpolation": 2}]}, "display": 0, "duration": 86400.0, "effects": [], "end": 10, "gravity": 4, "has_audio": {"Points": [{"co": {"X": 1, "Y": -1}, "interpolation": 2}]}, "has_video": {"Points": [{"co": {"X": 1, "Y": -1}, "interpolation": 2}]}, "id": "UOU58CELB0", "layer": 4, "location_x": {"Points": [{"co": {"X": 1, "Y": 0}, "interpolation": 2}]}, "location_y": {"Points": [{"co": {"X": 1, "Y": 0}, "interpolation": 2}]}, "perspective_c1_x": {"Points": [{"co": {"X": 1, "Y": -1}, "interpolation": 2}]}, "perspective_c1_y": {"Points": [{"co": {"X": 1, "Y": -1}, "interpolation": 2}]}, "perspective_c2_x": {"Points": [{"co": {"X": 1, "Y": -1}, "interpolation": 2}]}, "perspective_c2_y": {"Points": [{"co": {"X": 1, "Y": -1}, "interpolation": 2}]}, "perspective_c3_x": {"Points": [{"co": {"X": 1, "Y": -1}, "interpolation": 2}]}, "perspective_c3_y": {"Points": [{"co": {"X": 1, "Y": -1}, "interpolation": 2}]}, "perspective_c4_x": {"Points": [{"co": {"X": 1, "Y": -1}, "interpolation": 2}]}, "perspective_c4_y": {"Points": [{"co": {"X": 1, "Y": -1}, "interpolation": 2}]}, "position": 187.94761680603028, "reader": {"acodec": "", "audio_bit_rate": 0, "audio_stream_index": -1, "audio_timebase": {"den": 1, "num": 1}, "channel_layout": 4, "channels": 0, "display_ratio": {"den": 275, "num": 499}, "duration": 86400.0, "file_size": "2195600", "fps": {"den": 1, "num": 30}, "has_audio": false, "has_single_image": true, "has_video": true, "height": 550, "interlaced_frame": false, "path": "/home/diary/Desktop/\u041a\u043e\u043d\u0446\u0435\u043f\u0442\u044b/64. \u041f\u0440\u0438\u0447\u0438\u043d\u044b \u0431\u043e\u043b\u0435\u0437\u043d\u0435\u0439/video assets/wrong stamp.png", "pixel_format": -1, "pixel_ratio": {"den": 1, "num": 1}, "sample_rate": 0, "top_field_first": true, "type": "QtImageReader", "vcodec": "", "video_bit_rate": 0, "video_length": "2592000", "video_stream_index": -1, "video_timebase": {"den": 30, "num": 1}, "width": 998}, "rotation": {"Points": [{"co": {"X": 1, "Y": 0}, "interpolation": 2}]}, "scale": 1, "scale_x": {"Points": [{"co": {"X": 1, "Y": 1}, "interpolation": 2}]}, "scale_y": {"Points": [{"co": {"X": 1, "Y": 1}, "interpolation": 2}]}, "shear_x": {"Points": [{"co": {"X": 1, "Y": 0}, "interpolation": 2}]}, "shear_y": {"Points": [{"co": {"X": 1, "Y": 0}, "interpolation": 2}]}, "start": 0, "time": {"Points": [{"co": {"X": 1, "Y": 1}, "interpolation": 2}]}, "volume": {"Points": [{"co": {"X": 1, "Y": 1}, "interpolation": 2}]}, "wave_color": {"alpha": {"Points": [{"co": {"X": 1, "Y": 255}, "handle_left": {"X": 0.5, "Y": 1}, "handle_right": {"X": 0.5, "Y": 0}, "handle_type": 0, "interpolation": 0}]}, "blue": {"Points": [{"co": {"X": 1, "Y": 255}, "handle_left": {"X": 0.5, "Y": 1}, "handle_right": {"X": 0.5, "Y": 0}, "handle_type": 0, "interpolation": 0}]}, "green": {"Points": [{"co": {"X": 1, "Y": 123}, "handle_left": {"X": 0.5, "Y": 1}, "handle_right": {"X": 0.5, "Y": 0}, "handle_type": 0, "interpolation": 0}]}, "red": {"Points": [{"co": {"X": 1, "Y": 0}, "handle_left": {"X": 0.5, "Y": 1}, "handle_right": {"X": 0.5, "Y": 0}, "handle_type": 0, "interpolation": 0}]}}, "waveform": false, "file_id": "0VXG5ZD080", "title": "wrong stamp.png", "image": "/home/diary/.openshot_qt/thumbnail/0VXG5ZD080.png"}, {"alpha": {"Points": [{"co": {"X": 1, "Y": 1}, "interpolation": 2}]}, "anchor": 0, "channel_filter": {"Points": [{"co": {"X": 1, "Y": -1}, "interpolation": 2}]}, "channel_mapping": {"Points": [{"co": {"X": 1, "Y": -1}, "interpolation": 2}]}, "crop_height": {"Points": [{"co": {"X": 1, "Y": -1}, "interpolation": 2}]}, "crop_width": {"Points": [{"co": {"X": 1, "Y": -1}, "interpolation": 2}]}, "crop_x": {"Points": [{"co": {"X": 1, "Y": 0}, "interpolation": 2}]}, "crop_y": {"Points": [{"co": {"X": 1, "Y": 0}, "interpolation": 2}]}, "display": 0, "duration": 86400.0, "effects": [], "end": 4.66, "gravity": 4, "has_audio": {"Points": [{"co": {"X": 1, "Y": -1}, "interpolation": 2}]}, "has_video": {"Points": [{"co": {"X": 1, "Y": -1}, "interpolation": 2}]}, "id": "6GH5R52ZZF", "layer": 4, "location_x": {"Points": [{"co": {"X": 1, "Y": 0}, "interpolation": 2}]}, "location_y": {"Points": [{"co": {"X": 1, "Y": 0}, "interpolation": 2}]}, "perspective_c1_x": {"Points": [{"co": {"X": 1, "Y": -1}, "interpolation": 2}]}, "perspective_c1_y": {"Points": [{"co": {"X": 1, "Y": -1}, "interpolation": 2}]}, "perspective_c2_x": {"Points": [{"co": {"X": 1, "Y": -1}, "interpolation": 2}]}, "perspective_c2_y": {"Points": [{"co": {"X": 1, "Y": -1}, "interpolation": 2}]}, "perspective_c3_x": {"Points": [{"co": {"X": 1, "Y": -1}, "interpolation": 2}]}, "perspective_c3_y": {"Points": [{"co": {"X": 1, "Y": -1}, "interpolation": 2}]}, "perspective_c4_x": {"Points": [{"co": {"X": 1, "Y": -1}, "interpolation": 2}]}, "perspective_c4_y": {"Points": [{"co": {"X": 1, "Y": -1}, "interpolation": 2}]}, "position": 200.1075, "reader": {"acodec": "", "audio_bit_rate": 0, "audio_stream_index": -1, "audio_timebase": {"den": 1, "num": 1}, "channel_layout": 4, "channels": 0, "display_ratio": {"den": 275, "num": 499}, "duration": 86400.0, "file_size": "2195600", "fps": {"den": 1, "num": 30}, "has_audio": false, "has_single_image": true, "has_video": true, "height": 550, "interlaced_frame": false, "path": "/home/diary/Desktop/\u041a\u043e\u043d\u0446\u0435\u043f\u0442\u044b/64. \u041f\u0440\u0438\u0447\u0438\u043d\u044b \u0431\u043e\u043b\u0435\u0437\u043d\u0435\u0439/video assets/wrong stamp.png", "pixel_format": -1, "pixel_ratio": {"den": 1, "num": 1}, "sample_rate": 0, "top_field_first": true, "type": "QtImageReader", "vcodec": "", "video_bit_rate": 0, "video_length": "2592000", "video_stream_index": -1, "video_timebase": {"den": 30, "num": 1}, "width": 998}, "rotation": {"Points": [{"co": {"X": 1, "Y": 0}, "interpolation": 2}]}, "scale": 1, "scale_x": {"Points": [{"co": {"X": 1, "Y": 1}, "interpolation": 2}]}, "scale_y": {"Points": [{"co": {"X": 1, "Y": 1}, "interpolation": 2}]}, "shear_x": {"Points": [{"co": {"X": 1, "Y": 0}, "interpolation": 2}]}, "shear_y": {"Points": [{"co": {"X": 1, "Y": 0}, "interpolation": 2}]}, "start": 0, "time": {"Points": [{"co": {"X": 1, "Y": 1}, "interpolation": 2}]}, "volume": {"Points": [{"co": {"X": 1, "Y": 1}, "interpolation": 2}]}, "wave_color": {"alpha": {"Points": [{"co": {"X": 1, "Y": 255}, "handle_left": {"X": 0.5, "Y": 1}, "handle_right": {"X": 0.5, "Y": 0}, "handle_type": 0, "interpolation": 0}]}, "blue": {"Points": [{"co": {"X": 1, "Y": 255}, "handle_left": {"X": 0.5, "Y": 1}, "handle_right": {"X": 0.5, "Y": 0}, "handle_type": 0, "interpolation": 0}]}, "green": {"Points": [{"co": {"X": 1, "Y": 123}, "handle_left": {"X": 0.5, "Y": 1}, "handle_right": {"X": 0.5, "Y": 0}, "handle_type": 0, "interpolation": 0}]}, "red": {"Points": [{"co": {"X": 1, "Y": 0}, "handle_left": {"X": 0.5, "Y": 1}, "handle_right": {"X": 0.5, "Y": 0}, "handle_type": 0, "interpolation": 0}]}}, "waveform": false, "file_id": "0VXG5ZD080", "title": "wrong stamp.png", "image": "/home/diary/.openshot_qt/thumbnail/0VXG5ZD080.png"}, {"alpha": {"Points": [{"co": {"X": 1, "Y": 1}, "interpolation": 2}]}, "anchor": 0, "channel_filter": {"Points": [{"co": {"X": 1, "Y": -1}, "interpolation": 2}]}, "channel_mapping": {"Points": [{"co": {"X": 1, "Y": -1}, "interpolation": 2}]}, "crop_height": {"Points": [{"co": {"X": 1, "Y": -1}, "interpolation": 2}]}, "crop_width": {"Points": [{"co": {"X": 1, "Y": -1}, "interpolation": 2}]}, "crop_x": {"Points": [{"co": {"X": 1, "Y": 0}, "interpolation": 2}]}, "crop_y": {"Points": [{"co": {"X": 1, "Y": 0}, "interpolation": 2}]}, "display": 0, "duration": 86400.0, "effects": [], "end": 10, "gravity": 4, "has_audio": {"Points": [{"co": {"X": 1, "Y": -1}, "interpolation": 2}]}, "has_video": {"Points": [{"co": {"X": 1, "Y": -1}, "interpolation": 2}]}, "id": "4JU44DY8O7", "layer": 4, "location_x": {"Points": [{"co": {"X": 1, "Y": 0}, "interpolation": 2}]}, "location_y": {"Points": [{"co": {"X": 1, "Y": 0}, "interpolation": 2}]}, "perspective_c1_x": {"Points": [{"co": {"X": 1, "Y": -1}, "interpolation": 2}]}, "perspective_c1_y": {"Points": [{"co": {"X": 1, "Y": -1}, "interpolation": 2}]}, "perspective_c2_x": {"Points": [{"co": {"X": 1, "Y": -1}, "interpolation": 2}]}, "perspective_c2_y": {"Points": [{"co": {"X": 1, "Y": -1}, "interpolation": 2}]}, "perspective_c3_x": {"Points": [{"co": {"X": 1, "Y": -1}, "interpolation": 2}]}, "perspective_c3_y": {"Points": [{"co": {"X": 1, "Y": -1}, "interpolation": 2}]}, "perspective_c4_x": {"Points": [{"co": {"X": 1, "Y": -1}, "interpolation": 2}]}, "perspective_c4_y": {"Points": [{"co": {"X": 1, "Y": -1}, "interpolation": 2}]}, "position": 209.11250026702882, "reader": {"acodec": "", "audio_bit_rate": 0, "audio_stream_index": -1, "audio_timebase": {"den": 1, "num": 1}, "channel_layout": 4, "channels": 0, "display_ratio": {"den": 275, "num": 499}, "duration": 86400.0, "file_size": "2195600", "fps": {"den": 1, "num": 30}, "has_audio": false, "has_single_image": true, "has_video": true, "height": 550, "interlaced_frame": false, "path": "/home/diary/Desktop/\u041a\u043e\u043d\u0446\u0435\u043f\u0442\u044b/64. \u041f\u0440\u0438\u0447\u0438\u043d\u044b \u0431\u043e\u043b\u0435\u0437\u043d\u0435\u0439/video assets/wrong stamp.png", "pixel_format": -1, "pixel_ratio": {"den": 1, "num": 1}, "sample_rate": 0, "top_field_first": true, "type": "QtImageReader", "vcodec": "", "video_bit_rate": 0, "video_length": "2592000", "video_stream_index": -1, "video_timebase": {"den": 30, "num": 1}, "width": 998}, "rotation": {"Points": [{"co": {"X": 1, "Y": 0}, "interpolation": 2}]}, "scale": 1, "scale_x": {"Points": [{"co": {"X": 1, "Y": 1}, "interpolation": 2}]}, "scale_y": {"Points": [{"co": {"X": 1, "Y": 1}, "interpolation": 2}]}, "shear_x": {"Points": [{"co": {"X": 1, "Y": 0}, "interpolation": 2}]}, "shear_y": {"Points": [{"co": {"X": 1, "Y": 0}, "interpolation": 2}]}, "start": 2.94, "time": {"Points": [{"co": {"X": 1, "Y": 1}, "interpolation": 2}]}, "volume": {"Points": [{"co": {"X": 1, "Y": 1}, "interpolation": 2}]}, "wave_color": {"alpha": {"Points": [{"co": {"X": 1, "Y": 255}, "handle_left": {"X": 0.5, "Y": 1}, "handle_right": {"X": 0.5, "Y": 0}, "handle_type": 0, "interpolation": 0}]}, "blue": {"Points": [{"co": {"X": 1, "Y": 255}, "handle_left": {"X": 0.5, "Y": 1}, "handle_right": {"X": 0.5, "Y": 0}, "handle_type": 0, "interpolation": 0}]}, "green": {"Points": [{"co": {"X": 1, "Y": 123}, "handle_left": {"X": 0.5, "Y": 1}, "handle_right": {"X": 0.5, "Y": 0}, "handle_type": 0, "interpolation": 0}]}, "red": {"Points": [{"co": {"X": 1, "Y": 0}, "handle_left": {"X": 0.5, "Y": 1}, "handle_right": {"X": 0.5, "Y": 0}, "handle_type": 0, "interpolation": 0}]}}, "waveform": false, "file_id": "0VXG5ZD080", "title": "wrong stamp.png", "image": "/home/diary/.openshot_qt/thumbnail/0VXG5ZD080.png"}]}, {"type": "update", "key": ["clips", {"id": "VP8TR78SVG"}], "value": {"id": "VP8TR78SVG", "layer": 1, "position": 8.63999973297119, "image": "/home/diary/.openshot_qt/thumbnail/0JN8WFX709.png", "start": 0, "end": 193.77000427246094}, "partial": false, "old_values": {"alpha": {"Points": [{"co": {"X": 1, "Y": 1}, "interpolation": 2}]}, "anchor": 0, "channel_filter": {"Points": [{"co": {"X": 1, "Y": -1}, "interpolation": 2}]}, "channel_mapping": {"Points": [{"co": {"X": 1, "Y": -1}, "interpolation": 2}]}, "crop_height": {"Points": [{"co": {"X": 1, "Y": -1}, "interpolation": 2}]}, "crop_width": {"Points": [{"co": {"X": 1, "Y": -1}, "interpolation": 2}]}, "crop_x": {"Points": [{"co": {"X": 1, "Y": 0}, "interpolation": 2}]}, "crop_y": {"Points": [{"co": {"X": 1, "Y": 0}, "interpolation": 2}]}, "display": 0, "duration": 193.77000427246094, "effects": [], "end": 193.77000427246094, "gravity": 4, "has_audio": {"Points": [{"co": {"X": 1, "Y": -1}, "interpolation": 2}]}, "has_video": {"Points": [{"co": {"X": 1, "Y": -1}, "interpolation": 2}]}, "id": "VP8TR78SVG", "layer": 4, "location_x": {"Points": [{"co": {"X": 1, "Y": 0}, "interpolation": 2}]}, "location_y": {"Points": [{"co": {"X": 1, "Y": 0}, "interpolation": 2}]}, "perspective_c1_x": {"Points": [{"co": {"X": 1, "Y": -1}, "interpolation": 2}]}, "perspective_c1_y": {"Points": [{"co": {"X": 1, "Y": -1}, "interpolation": 2}]}, "perspective_c2_x": {"Points": [{"co": {"X": 1, "Y": -1}, "interpolation": 2}]}, "perspective_c2_y": {"Points": [{"co": {"X": 1, "Y": -1}, "interpolation": 2}]}, "perspective_c3_x": {"Points": [{"co": {"X": 1, "Y": -1}, "interpolation": 2}]}, "perspective_c3_y": {"Points": [{"co": {"X": 1, "Y": -1}, "interpolation": 2}]}, "perspective_c4_x": {"Points": [{"co": {"X": 1, "Y": -1}, "interpolation": 2}]}, "perspective_c4_y": {"Points": [{"co": {"X": 1, "Y": -1}, "interpolation": 2}]}, "position": 3.28, "reader": {"acodec": "aac", "audio_bit_rate": 2276, "audio_stream_index": 1, "audio_timebase": {"den": 48000, "num": 1}, "channel_layout": 3, "channels": 2, "display_ratio": {"den": 1, "num": 1}, "duration": 193.77000427246094, "file_size": "1370812", "fps": {"den": 775, "num": 18604}, "has_audio": true, "has_single_image": false, "has_video": true, "height": 1000, "interlaced_frame": false, "path": "/home/diary/Desktop/\u041a\u043e\u043d\u0446\u0435\u043f\u0442\u044b/64. \u041f\u0440\u0438\u0447\u0438\u043d\u044b \u0431\u043e\u043b\u0435\u0437\u043d\u0435\u0439/heartbeat 3 minutes/heartbeat 3 minutes.mp4", "pixel_format": 0, "pixel_ratio": {"den": 1, "num": 1}, "sample_rate": 48000, "top_field_first": true, "type": "FFmpegReader", "vcodec": "h264", "video_bit_rate": 56589, "video_length": "4651", "video_stream_index": 0, "video_timebase": {"den": 12288, "num": 1}, "width": 1000}, "rotation": {"Points": [{"co": {"X": 1, "Y": 0}, "interpolation": 2}]}, "scale": 1, "scale_x": {"Points": [{"co": {"X": 1, "Y": 1}, "interpolation": 2}]}, "scale_y": {"Points": [{"co": {"X": 1, "Y": 1}, "interpolation": 2}]}, "shear_x": {"Points": [{"co": {"X": 1, "Y": 0}, "interpolation": 2}]}, "shear_y": {"Points": [{"co": {"X": 1, "Y": 0}, "interpolation": 2}]}, "start": 0, "time": {"Points": [{"co": {"X": 1, "Y": 1}, "interpolation": 2}]}, "volume": {"Points": [{"co": {"X": 1, "Y": 1}, "interpolation": 2}]}, "wave_color": {"alpha": {"Points": [{"co": {"X": 1, "Y": 255}, "handle_left": {"X": 0.5, "Y": 1}, "handle_right": {"X": 0.5, "Y": 0}, "handle_type": 0, "interpolation": 0}]}, "blue": {"Points": [{"co": {"X": 1, "Y": 255}, "handle_left": {"X": 0.5, "Y": 1}, "handle_right": {"X": 0.5, "Y": 0}, "handle_type": 0, "interpolation": 0}]}, "green": {"Points": [{"co": {"X": 1, "Y": 123}, "handle_left": {"X": 0.5, "Y": 1}, "handle_right": {"X": 0.5, "Y": 0}, "handle_type": 0, "interpolation": 0}]}, "red": {"Points": [{"co": {"X": 1, "Y": 0}, "handle_left": {"X": 0.5, "Y": 1}, "handle_right": {"X": 0.5, "Y": 0}, "handle_type": 0, "interpolation": 0}]}}, "waveform": false, "file_id": "0JN8WFX709", "title": "heartbeat 3 minutes.mp4", "image": "/home/diary/.openshot_qt/thumbnail/0JN8WFX709.png"}}, {"type": "update", "key": ["clips", {"id": "VP8TR78SVG"}], "value": {"scale_x": {"Points": [{"co": {"X": 1, "Y": 1}, "interpolation": 2}, {"co": {"X": -2, "Y": 0.38142857142857145}, "interpolation": 0}]}}, "partial": false, "old_values": {"alpha": {"Points": [{"co": {"X": 1, "Y": 1}, "interpolation": 2}]}, "anchor": 0, "channel_filter": {"Points": [{"co": {"X": 1, "Y": -1}, "interpolation": 2}]}, "channel_mapping": {"Points": [{"co": {"X": 1, "Y": -1}, "interpolation": 2}]}, "crop_height": {"Points": [{"co": {"X": 1, "Y": -1}, "interpolation": 2}]}, "crop_width": {"Points": [{"co": {"X": 1, "Y": -1}, "interpolation": 2}]}, "crop_x": {"Points": [{"co": {"X": 1, "Y": 0}, "interpolation": 2}]}, "crop_y": {"Points": [{"co": {"X": 1, "Y": 0}, "interpolation": 2}]}, "display": 0, "duration": 193.77000427246094, "effects": [], "end": 193.77000427246094, "gravity": 4, "has_audio": {"Points": [{"co": {"X": 1, "Y": -1}, "interpolation": 2}]}, "has_video": {"Points": [{"co": {"X": 1, "Y": -1}, "interpolation": 2}]}, "id": "VP8TR78SVG", "layer": 1, "location_x": {"Points": [{"co": {"X": 1, "Y": 0}, "interpolation": 2}]}, "location_y": {"Points": [{"co": {"X": 1, "Y": 0}, "interpolation": 2}]}, "perspective_c1_x": {"Points": [{"co": {"X": 1, "Y": -1}, "interpolation": 2}]}, "perspective_c1_y": {"Points": [{"co": {"X": 1, "Y": -1}, "interpolation": 2}]}, "perspective_c2_x": {"Points": [{"co": {"X": 1, "Y": -1}, "interpolation": 2}]}, "perspective_c2_y": {"Points": [{"co": {"X": 1, "Y": -1}, "interpolation": 2}]}, "perspective_c3_x": {"Points": [{"co": {"X": 1, "Y": -1}, "interpolation": 2}]}, "perspective_c3_y": {"Points": [{"co": {"X": 1, "Y": -1}, "interpolation": 2}]}, "perspective_c4_x": {"Points": [{"co": {"X": 1, "Y": -1}, "interpolation": 2}]}, "perspective_c4_y": {"Points": [{"co": {"X": 1, "Y": -1}, "interpolation": 2}]}, "position": 8.63999973297119, "reader": {"acodec": "aac", "audio_bit_rate": 2276, "audio_stream_index": 1, "audio_timebase": {"den": 48000, "num": 1}, "channel_layout": 3, "channels": 2, "display_ratio": {"den": 1, "num": 1}, "duration": 193.77000427246094, "file_size": "1370812", "fps": {"den": 775, "num": 18604}, "has_audio": true, "has_single_image": false, "has_video": true, "height": 1000, "interlaced_frame": false, "path": "/home/diary/Desktop/\u041a\u043e\u043d\u0446\u0435\u043f\u0442\u044b/64. \u041f\u0440\u0438\u0447\u0438\u043d\u044b \u0431\u043e\u043b\u0435\u0437\u043d\u0435\u0439/heartbeat 3 minutes/heartbeat 3 minutes.mp4", "pixel_format": 0, "pixel_ratio": {"den": 1, "num": 1}, "sample_rate": 48000, "top_field_first": true, "type": "FFmpegReader", "vcodec": "h264", "video_bit_rate": 56589, "video_length": "4651", "video_stream_index": 0, "video_timebase": {"den": 12288, "num": 1}, "width": 1000}, "rotation": {"Points": [{"co": {"X": 1, "Y": 0}, "interpolation": 2}]}, "scale": 1, "scale_x": {"Points": [{"co": {"X": 1, "Y": 1}, "interpolation": 2}, {"co": {"X": -2, "Y": 0.37857142857142856}, "interpolation": 0}]}, "scale_y": {"Points": [{"co": {"X": 1, "Y": 1}, "interpolation": 2}, {"co": {"X": -2, "Y": 0.37857142857142856}, "interpolation": 0}]}, "shear_x": {"Points": [{"co": {"X": 1, "Y": 0}, "interpolation": 2}]}, "shear_y": {"Points": [{"co": {"X": 1, "Y": 0}, "interpolation": 2}]}, "start": 0, "time": {"Points": [{"co": {"X": 1, "Y": 1}, "interpolation": 2}]}, "volume": {"Points": [{"co": {"X": 1, "Y": 1}, "interpolation": 2}]}, "wave_color": {"alpha": {"Points": [{"co": {"X": 1, "Y": 255}, "handle_left": {"X": 0.5, "Y": 1}, "handle_right": {"X": 0.5, "Y": 0}, "handle_type": 0, "interpolation": 0}]}, "blue": {"Points": [{"co": {"X": 1, "Y": 255}, "handle_left": {"X": 0.5, "Y": 1}, "handle_right": {"X": 0.5, "Y": 0}, "handle_type": 0, "interpolation": 0}]}, "green": {"Points": [{"co": {"X": 1, "Y": 123}, "handle_left": {"X": 0.5, "Y": 1}, "handle_right": {"X": 0.5, "Y": 0}, "handle_type": 0, "interpolation": 0}]}, "red": {"Points": [{"co": {"X": 1, "Y": 0}, "handle_left": {"X": 0.5, "Y": 1}, "handle_right": {"X": 0.5, "Y": 0}, "handle_type": 0, "interpolation": 0}]}}, "waveform": false, "file_id": "0JN8WFX709", "title": "heartbeat 3 minutes.mp4", "image": "/home/diary/.openshot_qt/thumbnail/0JN8WFX709.png"}}, {"type": "update", "key": ["clips", {"id": "VP8TR78SVG"}], "value": {"scale_y": {"Points": [{"co": {"X": 1, "Y": 1}, "interpolation": 2}, {"co": {"X": -2, "Y": 0.38142857142857145}, "interpolation": 0}]}}, "partial": false, "old_values": {"alpha": {"Points": [{"co": {"X": 1, "Y": 1}, "interpolation": 2}]}, "anchor": 0, "channel_filter": {"Points": [{"co": {"X": 1, "Y": -1}, "interpolation": 2}]}, "channel_mapping": {"Points": [{"co": {"X": 1, "Y": -1}, "interpolation": 2}]}, "crop_height": {"Points": [{"co": {"X": 1, "Y": -1}, "interpolation": 2}]}, "crop_width": {"Points": [{"co": {"X": 1, "Y": -1}, "interpolation": 2}]}, "crop_x": {"Points": [{"co": {"X": 1, "Y": 0}, "interpolation": 2}]}, "crop_y": {"Points": [{"co": {"X": 1, "Y": 0}, "interpolation": 2}]}, "display": 0, "duration": 193.77000427246094, "effects": [], "end": 193.77000427246094, "gravity": 4, "has_audio": {"Points": [{"co": {"X": 1, "Y": -1}, "interpolation": 2}]}, "has_video": {"Points": [{"co": {"X": 1, "Y": -1}, "interpolation": 2}]}, "id": "VP8TR78SVG", "layer": 1, "location_x": {"Points": [{"co": {"X": 1, "Y": 0}, "interpolation": 2}]}, "location_y": {"Points": [{"co": {"X": 1, "Y": 0}, "interpolation": 2}]}, "perspective_c1_x": {"Points": [{"co": {"X": 1, "Y": -1}, "interpolation": 2}]}, "perspective_c1_y": {"Points": [{"co": {"X": 1, "Y": -1}, "interpolation": 2}]}, "perspective_c2_x": {"Points": [{"co": {"X": 1, "Y": -1}, "interpolation": 2}]}, "perspective_c2_y": {"Points": [{"co": {"X": 1, "Y": -1}, "interpolation": 2}]}, "perspective_c3_x": {"Points": [{"co": {"X": 1, "Y": -1}, "interpolation": 2}]}, "perspective_c3_y": {"Points": [{"co": {"X": 1, "Y": -1}, "interpolation": 2}]}, "perspective_c4_x": {"Points": [{"co": {"X": 1, "Y": -1}, "interpolation": 2}]}, "perspective_c4_y": {"Points": [{"co": {"X": 1, "Y": -1}, "interpolation": 2}]}, "position": 8.63999973297119, "reader": {"acodec": "aac", "audio_bit_rate": 2276, "audio_stream_index": 1, "audio_timebase": {"den": 48000, "num": 1}, "channel_layout": 3, "channels": 2, "display_ratio": {"den": 1, "num": 1}, "duration": 193.77000427246094, "file_size": "1370812", "fps": {"den": 775, "num": 18604}, "has_audio": true, "has_single_image": false, "has_video": true, "height": 1000, "interlaced_frame": false, "path": "/home/diary/Desktop/\u041a\u043e\u043d\u0446\u0435\u043f\u0442\u044b/64. \u041f\u0440\u0438\u0447\u0438\u043d\u044b \u0431\u043e\u043b\u0435\u0437\u043d\u0435\u0439/heartbeat 3 minutes/heartbeat 3 minutes.mp4", "pixel_format": 0, "pixel_ratio": {"den": 1, "num": 1}, "sample_rate": 48000, "top_field_first": true, "type": "FFmpegReader", "vcodec": "h264", "video_bit_rate": 56589, "video_length": "4651", "video_stream_index": 0, "video_timebase": {"den": 12288, "num": 1}, "width": 1000}, "rotation": {"Points": [{"co": {"X": 1, "Y": 0}, "interpolation": 2}]}, "scale": 1, "scale_x": {"Points": [{"co": {"X": 1, "Y": 1}, "interpolation": 2}, {"co": {"X": -2, "Y": 0.38142857142857145}, "interpolation": 0}]}, "scale_y": {"Points": [{"co": {"X": 1, "Y": 1}, "interpolation": 2}, {"co": {"X": -2, "Y": 0.37857142857142856}, "interpolation": 0}]}, "shear_x": {"Points": [{"co": {"X": 1, "Y": 0}, "interpolation": 2}]}, "shear_y": {"Points": [{"co": {"X": 1, "Y": 0}, "interpolation": 2}]}, "start": 0, "time": {"Points": [{"co": {"X": 1, "Y": 1}, "interpolation": 2}]}, "volume": {"Points": [{"co": {"X": 1, "Y": 1}, "interpolation": 2}]}, "wave_color": {"alpha": {"Points": [{"co": {"X": 1, "Y": 255}, "handle_left": {"X": 0.5, "Y": 1}, "handle_right": {"X": 0.5, "Y": 0}, "handle_type": 0, "interpolation": 0}]}, "blue": {"Points": [{"co": {"X": 1, "Y": 255}, "handle_left": {"X": 0.5, "Y": 1}, "handle_right": {"X": 0.5, "Y": 0}, "handle_type": 0, "interpolation": 0}]}, "green": {"Points": [{"co": {"X": 1, "Y": 123}, "handle_left": {"X": 0.5, "Y": 1}, "handle_right": {"X": 0.5, "Y": 0}, "handle_type": 0, "interpolation": 0}]}, "red": {"Points": [{"co": {"X": 1, "Y": 0}, "handle_left": {"X": 0.5, "Y": 1}, "handle_right": {"X": 0.5, "Y": 0}, "handle_type": 0, "interpolation": 0}]}}, "waveform": false, "file_id": "0JN8WFX709", "title": "heartbeat 3 minutes.mp4", "image": "/home/diary/.openshot_qt/thumbnail/0JN8WFX709.png"}}, {"type": "update", "key": ["clips", {"id": "VP8TR78SVG"}], "value": {"scale_x": {"Points": [{"co": {"X": 1, "Y": 1}, "interpolation": 2}, {"co": {"X": -2, "Y": 0.43857142857142856}, "interpolation": 0}]}}, "partial": false, "old_values": {"alpha": {"Points": [{"co": {"X": 1, "Y": 1}, "interpolation": 2}]}, "anchor": 0, "channel_filter": {"Points": [{"co": {"X": 1, "Y": -1}, "interpolation": 2}]}, "channel_mapping": {"Points": [{"co": {"X": 1, "Y": -1}, "interpolation": 2}]}, "crop_height": {"Points": [{"co": {"X": 1, "Y": -1}, "interpolation": 2}]}, "crop_width": {"Points": [{"co": {"X": 1, "Y": -1}, "interpolation": 2}]}, "crop_x": {"Points": [{"co": {"X": 1, "Y": 0}, "interpolation": 2}]}, "crop_y": {"Points": [{"co": {"X": 1, "Y": 0}, "interpolation": 2}]}, "display": 0, "duration": 193.77000427246094, "effects": [], "end": 193.77000427246094, "gravity": 4, "has_audio": {"Points": [{"co": {"X": 1, "Y": -1}, "interpolation": 2}]}, "has_video": {"Points": [{"co": {"X": 1, "Y": -1}, "interpolation": 2}]}, "id": "VP8TR78SVG", "layer": 1, "location_x": {"Points": [{"co": {"X": 1, "Y": 0}, "interpolation": 2}]}, "location_y": {"Points": [{"co": {"X": 1, "Y": 0}, "interpolation": 2}]}, "perspective_c1_x": {"Points": [{"co": {"X": 1, "Y": -1}, "interpolation": 2}]}, "perspective_c1_y": {"Points": [{"co": {"X": 1, "Y": -1}, "interpolation": 2}]}, "perspective_c2_x": {"Points": [{"co": {"X": 1, "Y": -1}, "interpolation": 2}]}, "perspective_c2_y": {"Points": [{"co": {"X": 1, "Y": -1}, "interpolation": 2}]}, "perspective_c3_x": {"Points": [{"co": {"X": 1, "Y": -1}, "interpolation": 2}]}, "perspective_c3_y": {"Points": [{"co": {"X": 1, "Y": -1}, "interpolation": 2}]}, "perspective_c4_x": {"Points": [{"co": {"X": 1, "Y": -1}, "interpolation": 2}]}, "perspective_c4_y": {"Points": [{"co": {"X": 1, "Y": -1}, "interpolation": 2}]}, "position": 8.63999973297119, "reader": {"acodec": "aac", "audio_bit_rate": 2276, "audio_stream_index": 1, "audio_timebase": {"den": 48000, "num": 1}, "channel_layout": 3, "channels": 2, "display_ratio": {"den": 1, "num": 1}, "duration": 193.77000427246094, "file_size": "1370812", "fps": {"den": 775, "num": 18604}, "has_audio": true, "has_single_image": false, "has_video": true, "height": 1000, "interlaced_frame": false, "path": "/home/diary/Desktop/\u041a\u043e\u043d\u0446\u0435\u043f\u0442\u044b/64. \u041f\u0440\u0438\u0447\u0438\u043d\u044b \u0431\u043e\u043b\u0435\u0437\u043d\u0435\u0439/heartbeat 3 minutes/heartbeat 3 minutes.mp4", "pixel_format": 0, "pixel_ratio": {"den": 1, "num": 1}, "sample_rate": 48000, "top_field_first": true, "type": "FFmpegReader", "vcodec": "h264", "video_bit_rate": 56589, "video_length": "4651", "video_stream_index": 0, "video_timebase": {"den": 12288, "num": 1}, "width": 1000}, "rotation": {"Points": [{"co": {"X": 1, "Y": 0}, "interpolation": 2}]}, "scale": 1, "scale_x": {"Points": [{"co": {"X": 1, "Y": 1}, "interpolation": 2}, {"co": {"X": -2, "Y": 0.38142857142857145}, "interpolation": 0}]}, "scale_y": {"Points": [{"co": {"X": 1, "Y": 1}, "interpolation": 2}, {"co": {"X": -2, "Y": 0.38142857142857145}, "interpolation": 0}]}, "shear_x": {"Points": [{"co": {"X": 1, "Y": 0}, "interpolation": 2}]}, "shear_y": {"Points": [{"co": {"X": 1, "Y": 0}, "interpolation": 2}]}, "start": 0, "time": {"Points": [{"co": {"X": 1, "Y": 1}, "interpolation": 2}]}, "volume": {"Points": [{"co": {"X": 1, "Y": 1}, "interpolation": 2}]}, "wave_color": {"alpha": {"Points": [{"co": {"X": 1, "Y": 255}, "handle_left": {"X": 0.5, "Y": 1}, "handle_right": {"X": 0.5, "Y": 0}, "handle_type": 0, "interpolation": 0}]}, "blue": {"Points": [{"co": {"X": 1, "Y": 255}, "handle_left": {"X": 0.5, "Y": 1}, "handle_right": {"X": 0.5, "Y": 0}, "handle_type": 0, "interpolation": 0}]}, "green": {"Points": [{"co": {"X": 1, "Y": 123}, "handle_left": {"X": 0.5, "Y": 1}, "handle_right": {"X": 0.5, "Y": 0}, "handle_type": 0, "interpolation": 0}]}, "red": {"Points": [{"co": {"X": 1, "Y": 0}, "handle_left": {"X": 0.5, "Y": 1}, "handle_right": {"X": 0.5, "Y": 0}, "handle_type": 0, "interpolation": 0}]}}, "waveform": false, "file_id": "0JN8WFX709", "title": "heartbeat 3 minutes.mp4", "image": "/home/diary/.openshot_qt/thumbnail/0JN8WFX709.png"}}, {"type": "update", "key": ["clips", {"id": "VP8TR78SVG"}], "value": {"scale_y": {"Points": [{"co": {"X": 1, "Y": 1}, "interpolation": 2}, {"co": {"X": -2, "Y": 0.43857142857142856}, "interpolation": 0}]}}, "partial": false, "old_values": {"alpha": {"Points": [{"co": {"X": 1, "Y": 1}, "interpolation": 2}]}, "anchor": 0, "channel_filter": {"Points": [{"co": {"X": 1, "Y": -1}, "interpolation": 2}]}, "channel_mapping": {"Points": [{"co": {"X": 1, "Y": -1}, "interpolation": 2}]}, "crop_height": {"Points": [{"co": {"X": 1, "Y": -1}, "interpolation": 2}]}, "crop_width": {"Points": [{"co": {"X": 1, "Y": -1}, "interpolation": 2}]}, "crop_x": {"Points": [{"co": {"X": 1, "Y": 0}, "interpolation": 2}]}, "crop_y": {"Points": [{"co": {"X": 1, "Y": 0}, "interpolation": 2}]}, "display": 0, "duration": 193.77000427246094, "effects": [], "end": 193.77000427246094, "gravity": 4, "has_audio": {"Points": [{"co": {"X": 1, "Y": -1}, "interpolation": 2}]}, "has_video": {"Points": [{"co": {"X": 1, "Y": -1}, "interpolation": 2}]}, "id": "VP8TR78SVG", "layer": 1, "location_x": {"Points": [{"co": {"X": 1, "Y": 0}, "interpolation": 2}]}, "location_y": {"Points": [{"co": {"X": 1, "Y": 0}, "interpolation": 2}]}, "perspective_c1_x": {"Points": [{"co": {"X": 1, "Y": -1}, "interpolation": 2}]}, "perspective_c1_y": {"Points": [{"co": {"X": 1, "Y": -1}, "interpolation": 2}]}, "perspective_c2_x": {"Points": [{"co": {"X": 1, "Y": -1}, "interpolation": 2}]}, "perspective_c2_y": {"Points": [{"co": {"X": 1, "Y": -1}, "interpolation": 2}]}, "perspective_c3_x": {"Points": [{"co": {"X": 1, "Y": -1}, "interpolation": 2}]}, "perspective_c3_y": {"Points": [{"co": {"X": 1, "Y": -1}, "interpolation": 2}]}, "perspective_c4_x": {"Points": [{"co": {"X": 1, "Y": -1}, "interpolation": 2}]}, "perspective_c4_y": {"Points": [{"co": {"X": 1, "Y": -1}, "interpolation": 2}]}, "position": 8.63999973297119, "reader": {"acodec": "aac", "audio_bit_rate": 2276, "audio_stream_index": 1, "audio_timebase": {"den": 48000, "num": 1}, "channel_layout": 3, "channels": 2, "display_ratio": {"den": 1, "num": 1}, "duration": 193.77000427246094, "file_size": "1370812", "fps": {"den": 775, "num": 18604}, "has_audio": true, "has_single_image": false, "has_video": true, "height": 1000, "interlaced_frame": false, "path": "/home/diary/Desktop/\u041a\u043e\u043d\u0446\u0435\u043f\u0442\u044b/64. \u041f\u0440\u0438\u0447\u0438\u043d\u044b \u0431\u043e\u043b\u0435\u0437\u043d\u0435\u0439/heartbeat 3 minutes/heartbeat 3 minutes.mp4", "pixel_format": 0, "pixel_ratio": {"den": 1, "num": 1}, "sample_rate": 48000, "top_field_first": true, "type": "FFmpegReader", "vcodec": "h264", "video_bit_rate": 56589, "video_length": "4651", "video_stream_index": 0, "video_timebase": {"den": 12288, "num": 1}, "width": 1000}, "rotation": {"Points": [{"co": {"X": 1, "Y": 0}, "interpolation": 2}]}, "scale": 1, "scale_x": {"Points": [{"co": {"X": 1, "Y": 1}, "interpolation": 2}, {"co": {"X": -2, "Y": 0.43857142857142856}, "interpolation": 0}]}, "scale_y": {"Points": [{"co": {"X": 1, "Y": 1}, "interpolation": 2}, {"co": {"X": -2, "Y": 0.38142857142857145}, "interpolation": 0}]}, "shear_x": {"Points": [{"co": {"X": 1, "Y": 0}, "interpolation": 2}]}, "shear_y": {"Points": [{"co": {"X": 1, "Y": 0}, "interpolation": 2}]}, "start": 0, "time": {"Points": [{"co": {"X": 1, "Y": 1}, "interpolation": 2}]}, "volume": {"Points": [{"co": {"X": 1, "Y": 1}, "interpolation": 2}]}, "wave_color": {"alpha": {"Points": [{"co": {"X": 1, "Y": 255}, "handle_left": {"X": 0.5, "Y": 1}, "handle_right": {"X": 0.5, "Y": 0}, "handle_type": 0, "interpolation": 0}]}, "blue": {"Points": [{"co": {"X": 1, "Y": 255}, "handle_left": {"X": 0.5, "Y": 1}, "handle_right": {"X": 0.5, "Y": 0}, "handle_type": 0, "interpolation": 0}]}, "green": {"Points": [{"co": {"X": 1, "Y": 123}, "handle_left": {"X": 0.5, "Y": 1}, "handle_right": {"X": 0.5, "Y": 0}, "handle_type": 0, "interpolation": 0}]}, "red": {"Points": [{"co": {"X": 1, "Y": 0}, "handle_left": {"X": 0.5, "Y": 1}, "handle_right": {"X": 0.5, "Y": 0}, "handle_type": 0, "interpolation": 0}]}}, "waveform": false, "file_id": "0JN8WFX709", "title": "heartbeat 3 minutes.mp4", "image": "/home/diary/.openshot_qt/thumbnail/0JN8WFX709.png"}}, {"type": "update", "key": ["clips", {"id": "VP8TR78SVG"}], "value": {"scale_x": {"Points": [{"co": {"X": 1, "Y": 1}, "interpolation": 2}, {"co": {"X": -2, "Y": 0.4614285714285714}, "interpolation": 0}]}}, "partial": false, "old_values": {"alpha": {"Points": [{"co": {"X": 1, "Y": 1}, "interpolation": 2}]}, "anchor": 0, "channel_filter": {"Points": [{"co": {"X": 1, "Y": -1}, "interpolation": 2}]}, "channel_mapping": {"Points": [{"co": {"X": 1, "Y": -1}, "interpolation": 2}]}, "crop_height": {"Points": [{"co": {"X": 1, "Y": -1}, "interpolation": 2}]}, "crop_width": {"Points": [{"co": {"X": 1, "Y": -1}, "interpolation": 2}]}, "crop_x": {"Points": [{"co": {"X": 1, "Y": 0}, "interpolation": 2}]}, "crop_y": {"Points": [{"co": {"X": 1, "Y": 0}, "interpolation": 2}]}, "display": 0, "duration": 193.77000427246094, "effects": [], "end": 193.77000427246094, "gravity": 4, "has_audio": {"Points": [{"co": {"X": 1, "Y": -1}, "interpolation": 2}]}, "has_video": {"Points": [{"co": {"X": 1, "Y": -1}, "interpolation": 2}]}, "id": "VP8TR78SVG", "layer": 1, "location_x": {"Points": [{"co": {"X": 1, "Y": 0}, "interpolation": 2}]}, "location_y": {"Points": [{"co": {"X": 1, "Y": 0}, "interpolation": 2}]}, "perspective_c1_x": {"Points": [{"co": {"X": 1, "Y": -1}, "interpolation": 2}]}, "perspective_c1_y": {"Points": [{"co": {"X": 1, "Y": -1}, "interpolation": 2}]}, "perspective_c2_x": {"Points": [{"co": {"X": 1, "Y": -1}, "interpolation": 2}]}, "perspective_c2_y": {"Points": [{"co": {"X": 1, "Y": -1}, "interpolation": 2}]}, "perspective_c3_x": {"Points": [{"co": {"X": 1, "Y": -1}, "interpolation": 2}]}, "perspective_c3_y": {"Points": [{"co": {"X": 1, "Y": -1}, "interpolation": 2}]}, "perspective_c4_x": {"Points": [{"co": {"X": 1, "Y": -1}, "interpolation": 2}]}, "perspective_c4_y": {"Points": [{"co": {"X": 1, "Y": -1}, "interpolation": 2}]}, "position": 8.63999973297119, "reader": {"acodec": "aac", "audio_bit_rate": 2276, "audio_stream_index": 1, "audio_timebase": {"den": 48000, "num": 1}, "channel_layout": 3, "channels": 2, "display_ratio": {"den": 1, "num": 1}, "duration": 193.77000427246094, "file_size": "1370812", "fps": {"den": 775, "num": 18604}, "has_audio": true, "has_single_image": false, "has_video": true, "height": 1000, "interlaced_frame": false, "path": "/home/diary/Desktop/\u041a\u043e\u043d\u0446\u0435\u043f\u0442\u044b/64. \u041f\u0440\u0438\u0447\u0438\u043d\u044b \u0431\u043e\u043b\u0435\u0437\u043d\u0435\u0439/heartbeat 3 minutes/heartbeat 3 minutes.mp4", "pixel_format": 0, "pixel_ratio": {"den": 1, "num": 1}, "sample_rate": 48000, "top_field_first": true, "type": "FFmpegReader", "vcodec": "h264", "video_bit_rate": 56589, "video_length": "4651", "video_stream_index": 0, "video_timebase": {"den": 12288, "num": 1}, "width": 1000}, "rotation": {"Points": [{"co": {"X": 1, "Y": 0}, "interpolation": 2}]}, "scale": 1, "scale_x": {"Points": [{"co": {"X": 1, "Y": 1}, "interpolation": 2}, {"co": {"X": -2, "Y": 0.43857142857142856}, "interpolation": 0}]}, "scale_y": {"Points": [{"co": {"X": 1, "Y": 1}, "interpolation": 2}, {"co": {"X": -2, "Y": 0.43857142857142856}, "interpolation": 0}]}, "shear_x": {"Points": [{"co": {"X": 1, "Y": 0}, "interpolation": 2}]}, "shear_y": {"Points": [{"co": {"X": 1, "Y": 0}, "interpolation": 2}]}, "start": 0, "time": {"Points": [{"co": {"X": 1, "Y": 1}, "interpolation": 2}]}, "volume": {"Points": [{"co": {"X": 1, "Y": 1}, "interpolation": 2}]}, "wave_color": {"alpha": {"Points": [{"co": {"X": 1, "Y": 255}, "handle_left": {"X": 0.5, "Y": 1}, "handle_right": {"X": 0.5, "Y": 0}, "handle_type": 0, "interpolation": 0}]}, "blue": {"Points": [{"co": {"X": 1, "Y": 255}, "handle_left": {"X": 0.5, "Y": 1}, "handle_right": {"X": 0.5, "Y": 0}, "handle_type": 0, "interpolation": 0}]}, "green": {"Points": [{"co": {"X": 1, "Y": 123}, "handle_left": {"X": 0.5, "Y": 1}, "handle_right": {"X": 0.5, "Y": 0}, "handle_type": 0, "interpolation": 0}]}, "red": {"Points": [{"co": {"X": 1, "Y": 0}, "handle_left": {"X": 0.5, "Y": 1}, "handle_right": {"X": 0.5, "Y": 0}, "handle_type": 0, "interpolation": 0}]}}, "waveform": false, "file_id": "0JN8WFX709", "title": "heartbeat 3 minutes.mp4", "image": "/home/diary/.openshot_qt/thumbnail/0JN8WFX709.png"}}, {"type": "update", "key": ["clips", {"id": "VP8TR78SVG"}], "value": {"scale_y": {"Points": [{"co": {"X": 1, "Y": 1}, "interpolation": 2}, {"co": {"X": -2, "Y": 0.4614285714285714}, "interpolation": 0}]}}, "partial": false, "old_values": {"alpha": {"Points": [{"co": {"X": 1, "Y": 1}, "interpolation": 2}]}, "anchor": 0, "channel_filter": {"Points": [{"co": {"X": 1, "Y": -1}, "interpolation": 2}]}, "channel_mapping": {"Points": [{"co": {"X": 1, "Y": -1}, "interpolation": 2}]}, "crop_height": {"Points": [{"co": {"X": 1, "Y": -1}, "interpolation": 2}]}, "crop_width": {"Points": [{"co": {"X": 1, "Y": -1}, "interpolation": 2}]}, "crop_x": {"Points": [{"co": {"X": 1, "Y": 0}, "interpolation": 2}]}, "crop_y": {"Points": [{"co": {"X": 1, "Y": 0}, "interpolation": 2}]}, "display": 0, "duration": 193.77000427246094, "effects": [], "end": 193.77000427246094, "gravity": 4, "has_audio": {"Points": [{"co": {"X": 1, "Y": -1}, "interpolation": 2}]}, "has_video": {"Points": [{"co": {"X": 1, "Y": -1}, "interpolation": 2}]}, "id": "VP8TR78SVG", "layer": 1, "location_x": {"Points": [{"co": {"X": 1, "Y": 0}, "interpolation": 2}]}, "location_y": {"Points": [{"co": {"X": 1, "Y": 0}, "interpolation": 2}]}, "perspective_c1_x": {"Points": [{"co": {"X": 1, "Y": -1}, "interpolation": 2}]}, "perspective_c1_y": {"Points": [{"co": {"X": 1, "Y": -1}, "interpolation": 2}]}, "perspective_c2_x": {"Points": [{"co": {"X": 1, "Y": -1}, "interpolation": 2}]}, "perspective_c2_y": {"Points": [{"co": {"X": 1, "Y": -1}, "interpolation": 2}]}, "perspective_c3_x": {"Points": [{"co": {"X": 1, "Y": -1}, "interpolation": 2}]}, "perspective_c3_y": {"Points": [{"co": {"X": 1, "Y": -1}, "interpolation": 2}]}, "perspective_c4_x": {"Points": [{"co": {"X": 1, "Y": -1}, "interpolation": 2}]}, "perspective_c4_y": {"Points": [{"co": {"X": 1, "Y": -1}, "interpolation": 2}]}, "position": 8.63999973297119, "reader": {"acodec": "aac", "audio_bit_rate": 2276, "audio_stream_index": 1, "audio_timebase": {"den": 48000, "num": 1}, "channel_layout": 3, "channels": 2, "display_ratio": {"den": 1, "num": 1}, "duration": 193.77000427246094, "file_size": "1370812", "fps": {"den": 775, "num": 18604}, "has_audio": true, "has_single_image": false, "has_video": true, "height": 1000, "interlaced_frame": false, "path": "/home/diary/Desktop/\u041a\u043e\u043d\u0446\u0435\u043f\u0442\u044b/64. \u041f\u0440\u0438\u0447\u0438\u043d\u044b \u0431\u043e\u043b\u0435\u0437\u043d\u0435\u0439/heartbeat 3 minutes/heartbeat 3 minutes.mp4", "pixel_format": 0, "pixel_ratio": {"den": 1, "num": 1}, "sample_rate": 48000, "top_field_first": true, "type": "FFmpegReader", "vcodec": "h264", "video_bit_rate": 56589, "video_length": "4651", "video_stream_index": 0, "video_timebase": {"den": 12288, "num": 1}, "width": 1000}, "rotation": {"Points": [{"co": {"X": 1, "Y": 0}, "interpolation": 2}]}, "scale": 1, "scale_x": {"Points": [{"co": {"X": 1, "Y": 1}, "interpolation": 2}]}, "scale_y": {"Points": [{"co": {"X": 1, "Y": 1}, "interpolation": 2}]}, "shear_x": {"Points": [{"co": {"X": 1, "Y": 0}, "interpolation": 2}]}, "shear_y": {"Points": [{"co": {"X": 1, "Y": 0}, "interpolation": 2}]}, "start": 0, "time": {"Points": [{"co": {"X": 1, "Y": 1}, "interpolation": 2}]}, "volume": {"Points": [{"co": {"X": 1, "Y": 1}, "interpolation": 2}]}, "wave_color": {"alpha": {"Points": [{"co": {"X": 1, "Y": 255}, "handle_left": {"X": 0.5, "Y": 1}, "handle_right": {"X": 0.5, "Y": 0}, "handle_type": 0, "interpolation": 0}]}, "blue": {"Points": [{"co": {"X": 1, "Y": 255}, "handle_left": {"X": 0.5, "Y": 1}, "handle_right": {"X": 0.5, "Y": 0}, "handle_type": 0, "interpolation": 0}]}, "green": {"Points": [{"co": {"X": 1, "Y": 123}, "handle_left": {"X": 0.5, "Y": 1}, "handle_right": {"X": 0.5, "Y": 0}, "handle_type": 0, "interpolation": 0}]}, "red": {"Points": [{"co": {"X": 1, "Y": 0}, "handle_left": {"X": 0.5, "Y": 1}, "handle_right": {"X": 0.5, "Y": 0}, "handle_type": 0, "interpolation": 0}]}}, "waveform": false, "file_id": "0JN8WFX709", "title": "heartbeat 3 minutes.mp4", "image": "/home/diary/.openshot_qt/thumbnail/0JN8WFX709.png"}}, {"type": "update", "key": ["clips", {"id": "VP8TR78SVG"}], "value": {"scale_y": {"Points": [{"co": {"X": 1, "Y": 1}, "interpolation": 2}, {"co": {"X": -2, "Y": 0.4614285714285714}, "interpolation": 0}]}}, "partial": false, "old_values": {"alpha": {"Points": [{"co": {"X": 1, "Y": 1}, "interpolation": 2}]}, "anchor": 0, "channel_filter": {"Points": [{"co": {"X": 1, "Y": -1}, "interpolation": 2}]}, "channel_mapping": {"Points": [{"co": {"X": 1, "Y": -1}, "interpolation": 2}]}, "crop_height": {"Points": [{"co": {"X": 1, "Y": -1}, "interpolation": 2}]}, "crop_width": {"Points": [{"co": {"X": 1, "Y": -1}, "interpolation": 2}]}, "crop_x": {"Points": [{"co": {"X": 1, "Y": 0}, "interpolation": 2}]}, "crop_y": {"Points": [{"co": {"X": 1, "Y": 0}, "interpolation": 2}]}, "display": 0, "duration": 193.77000427246094, "effects": [], "end": 193.77000427246094, "gravity": 4, "has_audio": {"Points": [{"co": {"X": 1, "Y": -1}, "interpolation": 2}]}, "has_video": {"Points": [{"co": {"X": 1, "Y": -1}, "interpolation": 2}]}, "id": "VP8TR78SVG", "layer": 1, "location_x": {"Points": [{"co": {"X": 1, "Y": 0}, "interpolation": 2}]}, "location_y": {"Points": [{"co": {"X": 1, "Y": 0}, "interpolation": 2}]}, "perspective_c1_x": {"Points": [{"co": {"X": 1, "Y": -1}, "interpolation": 2}]}, "perspective_c1_y": {"Points": [{"co": {"X": 1, "Y": -1}, "interpolation": 2}]}, "perspective_c2_x": {"Points": [{"co": {"X": 1, "Y": -1}, "interpolation": 2}]}, "perspective_c2_y": {"Points": [{"co": {"X": 1, "Y": -1}, "interpolation": 2}]}, "perspective_c3_x": {"Points": [{"co": {"X": 1, "Y": -1}, "interpolation": 2}]}, "perspective_c3_y": {"Points": [{"co": {"X": 1, "Y": -1}, "interpolation": 2}]}, "perspective_c4_x": {"Points": [{"co": {"X": 1, "Y": -1}, "interpolation": 2}]}, "perspective_c4_y": {"Points": [{"co": {"X": 1, "Y": -1}, "interpolation": 2}]}, "position": 8.63999973297119, "reader": {"acodec": "aac", "audio_bit_rate": 2276, "audio_stream_index": 1, "audio_timebase": {"den": 48000, "num": 1}, "channel_layout": 3, "channels": 2, "display_ratio": {"den": 1, "num": 1}, "duration": 193.77000427246094, "file_size": "1370812", "fps": {"den": 775, "num": 18604}, "has_audio": true, "has_single_image": false, "has_video": true, "height": 1000, "interlaced_frame": false, "path": "/home/diary/Desktop/\u041a\u043e\u043d\u0446\u0435\u043f\u0442\u044b/64. \u041f\u0440\u0438\u0447\u0438\u043d\u044b \u0431\u043e\u043b\u0435\u0437\u043d\u0435\u0439/heartbeat 3 minutes/heartbeat 3 minutes.mp4", "pixel_format": 0, "pixel_ratio": {"den": 1, "num": 1}, "sample_rate": 48000, "top_field_first": true, "type": "FFmpegReader", "vcodec": "h264", "video_bit_rate": 56589, "video_length": "4651", "video_stream_index": 0, "video_timebase": {"den": 12288, "num": 1}, "width": 1000}, "rotation": {"Points": [{"co": {"X": 1, "Y": 0}, "interpolation": 2}]}, "scale": 1, "scale_x": {"Points": [{"co": {"X": 1, "Y": 1}, "interpolation": 2}]}, "scale_y": {"Points": [{"co": {"X": 1, "Y": 1}, "interpolation": 2}]}, "shear_x": {"Points": [{"co": {"X": 1, "Y": 0}, "interpolation": 2}]}, "shear_y": {"Points": [{"co": {"X": 1, "Y": 0}, "interpolation": 2}]}, "start": 0, "time": {"Points": [{"co": {"X": 1, "Y": 1}, "interpolation": 2}]}, "volume": {"Points": [{"co": {"X": 1, "Y": 1}, "interpolation": 2}]}, "wave_color": {"alpha": {"Points": [{"co": {"X": 1, "Y": 255}, "handle_left": {"X": 0.5, "Y": 1}, "handle_right": {"X": 0.5, "Y": 0}, "handle_type": 0, "interpolation": 0}]}, "blue": {"Points": [{"co": {"X": 1, "Y": 255}, "handle_left": {"X": 0.5, "Y": 1}, "handle_right": {"X": 0.5, "Y": 0}, "handle_type": 0, "interpolation": 0}]}, "green": {"Points": [{"co": {"X": 1, "Y": 123}, "handle_left": {"X": 0.5, "Y": 1}, "handle_right": {"X": 0.5, "Y": 0}, "handle_type": 0, "interpolation": 0}]}, "red": {"Points": [{"co": {"X": 1, "Y": 0}, "handle_left": {"X": 0.5, "Y": 1}, "handle_right": {"X": 0.5, "Y": 0}, "handle_type": 0, "interpolation": 0}]}}, "waveform": false, "file_id": "0JN8WFX709", "title": "heartbeat 3 minutes.mp4", "image": "/home/diary/.openshot_qt/thumbnail/0JN8WFX709.png"}}, {"type": "update", "key": ["scale"], "value": 2, "partial": false, "old_values": 4}, {"type": "update", "key": ["scale"], "value": 1, "partial": false, "old_values": 2}, {"type": "update", "key": ["scale"], "value": 3, "partial": false, "old_values": 1}, {"type": "update", "key": ["scale"], "value": 5, "partial": false, "old_values": 3}], "redo": []}, "duration": 523.2600007629394, "channel_layout": 3, "files": [{"image": "thumbnail/04LXAJ2X63.png", "type": "QtImageReader", "video_length": "108000", "channel_layout": 4, "vcodec": "", "height": 768, "display_ratio": {"num": 4, "den": 3}, "sample_rate": 0, "audio_bit_rate": 0, "channels": 0, "has_audio": false, "duration": 3600.0, "pixel_format": -1, "fps": {"num": 30, "den": 1}, "file_size": "3145728", "audio_timebase": {"num": 1, "den": 1}, "audio_stream_index": -1, "video_bit_rate": 0, "top_field_first": true, "has_video": true, "interlaced_frame": false, "path": "video assets/white background.png", "acodec": "", "id": "04LXAJ2X63", "width": 1024, "metadata": {}, "media_type": "image", "has_single_image": true, "video_timebase": {"num": 1, "den": 30}, "video_stream_index": -1, "pixel_ratio": {"num": 1, "den": 1}}, {"acodec": "", "audio_bit_rate": 0, "audio_stream_index": -1, "audio_timebase": {"den": 1, "num": 1}, "channel_layout": 4, "channels": 0, "display_ratio": {"den": 9, "num": 16}, "duration": 86400, "file_size": "3686400", "fps": {"den": 1, "num": 30}, "has_audio": false, "has_single_image": true, "has_video": true, "height": 720, "interlaced_frame": false, "path": "video assets/white bg.png", "pixel_format": -1, "pixel_ratio": {"den": 1, "num": 1}, "sample_rate": 0, "top_field_first": true, "type": "QtImageReader", "vcodec": "", "video_bit_rate": 0, "video_length": "2592000", "video_stream_index": -1, "video_timebase": {"den": 30, "num": 1}, "width": 1280, "media_type": "image", "id": "DYQPECIBL6"}, {"acodec": "", "audio_bit_rate": 0, "audio_stream_index": -1, "audio_timebase": {"den": 1, "num": 1}, "channel_layout": 4, "channels": 0, "display_ratio": {"den": 9, "num": 16}, "duration": 86400, "file_size": "8294400", "fps": {"den": 1, "num": 30}, "has_audio": false, "has_single_image": true, "has_video": true, "height": 1080, "interlaced_frame": false, "path": "assets/TitleFileName-1.svg", "pixel_format": -1, "pixel_ratio": {"den": 1, "num": 1}, "sample_rate": 0, "top_field_first": true, "type": "QtImageReader", "vcodec": "", "video_bit_rate": 0, "video_length": "2592000", "video_stream_index": -1, "video_timebase": {"den": 30, "num": 1}, "width": 1920, "media_type": "image", "id": "ZF77Y451CT"}, {"acodec": "", "audio_bit_rate": 0, "audio_stream_index": -1, "audio_timebase": {"den": 1, "num": 1}, "channel_layout": 4, "channels": 0, "display_ratio": {"den": 9, "num": 16}, "duration": 8.399999618530273, "file_size": "-1", "fps": {"den": 1, "num": 25}, "has_audio": false, "has_single_image": false, "has_video": true, "height": 720, "interlaced_frame": false, "path": "2305192a-aa30-11ea-a79a-0013729ccbc3/Health%04d.png", "pixel_format": 28, "pixel_ratio": {"den": 2835, "num": 2835}, "sample_rate": 0, "top_field_first": true, "type": "FFmpegReader", "vcodec": "png", "video_bit_rate": 0, "video_length": "210", "video_stream_index": 0, "video_timebase": {"den": 25, "num": 1}, "width": 1280, "media_type": "video", "id": "WU2Z07RHV4"}, {"acodec": "", "audio_bit_rate": 0, "audio_stream_index": -1, "audio_timebase": {"den": 1, "num": 1}, "channel_layout": 4, "channels": 0, "display_ratio": {"den": 9, "num": 16}, "duration": 86400, "file_size": "8294400", "fps": {"den": 1, "num": 30}, "has_audio": false, "has_single_image": true, "has_video": true, "height": 1080, "interlaced_frame": false, "path": "assets/Vinogradoff Group.svg", "pixel_format": -1, "pixel_ratio": {"den": 1, "num": 1}, "sample_rate": 0, "top_field_first": true, "type": "QtImageReader", "vcodec": "", "video_bit_rate": 0, "video_length": "2592000", "video_stream_index": -1, "video_timebase": {"den": 30, "num": 1}, "width": 1920, "media_type": "image", "id": "FHRB35LFMC"}, {"acodec": "aac", "audio_bit_rate": 127927, "audio_stream_index": 1, "audio_timebase": {"den": 48000, "num": 1}, "channel_layout": 3, "channels": 2, "display_ratio": {"den": 9, "num": 16}, "duration": 13.279999732971191, "file_size": "33793647", "fps": {"den": 1, "num": 25}, "has_audio": true, "has_single_image": false, "has_video": true, "height": 1080, "interlaced_frame": false, "path": "video assets/fire_background_loop2_videvo2.mov", "pixel_format": 0, "pixel_ratio": {"den": 1, "num": 1}, "sample_rate": 48000, "top_field_first": true, "type": "FFmpegReader", "vcodec": "h264", "video_bit_rate": 20357618, "video_length": "332", "video_stream_index": 0, "video_timebase": {"den": 25, "num": 1}, "width": 1920, "media_type": "video", "id": "4WES5Z3VG4"}, {"acodec": "", "audio_bit_rate": 0, "audio_stream_index": -1, "audio_timebase": {"den": 1, "num": 1}, "channel_layout": 4, "channels": 0, "display_ratio": {"den": 9, "num": 16}, "duration": 23.200000762939453, "file_size": "82713018", "fps": {"den": 1, "num": 25}, "has_audio": false, "has_single_image": false, "has_video": true, "height": 2160, "interlaced_frame": false, "path": "video assets/200129_02_Medical_Ward_4k_103.mp4", "pixel_format": 0, "pixel_ratio": {"den": 1, "num": 1}, "sample_rate": 0, "top_field_first": true, "type": "FFmpegReader", "vcodec": "h264", "video_bit_rate": 28521730, "video_length": "580", "video_stream_index": 0, "video_timebase": {"den": 25000, "num": 1}, "width": 3840, "media_type": "video", "id": "YXHHBI5JHB"}, {"acodec": "", "audio_bit_rate": 0, "audio_stream_index": -1, "audio_timebase": {"den": 1, "num": 1}, "channel_layout": 4, "channels": 0, "display_ratio": {"den": 4, "num": 5}, "duration": 86400, "file_size": "5242880", "fps": {"den": 1, "num": 30}, "has_audio": false, "has_single_image": true, "has_video": true, "height": 1024, "interlaced_frame": false, "path": "video assets/64b67ceabcb952bf0ce2a8853454cc99.jpg", "pixel_format": -1, "pixel_ratio": {"den": 1, "num": 1}, "sample_rate": 0, "top_field_first": true, "type": "QtImageReader", "vcodec": "", "video_bit_rate": 0, "video_length": "2592000", "video_stream_index": -1, "video_timebase": {"den": 30, "num": 1}, "width": 1280, "media_type": "image", "id": "VUZS2V91F0"}, {"acodec": "aac", "audio_bit_rate": 317375, "audio_stream_index": 1, "audio_timebase": {"den": 48000, "num": 1}, "channel_layout": 3, "channels": 2, "display_ratio": {"den": 9, "num": 16}, "duration": 23.360000610351562, "file_size": "96318984", "fps": {"den": 1, "num": 25}, "has_audio": true, "has_single_image": false, "has_video": true, "height": 1080, "interlaced_frame": false, "path": "video assets/160714_Pills_2_1080p.mp4", "pixel_format": 0, "pixel_ratio": {"den": 1, "num": 1}, "sample_rate": 48000, "top_field_first": true, "type": "FFmpegReader", "vcodec": "h264", "video_bit_rate": 32925814, "video_length": "584", "video_stream_index": 0, "video_timebase": {"den": 25000, "num": 1}, "width": 1920, "media_type": "video", "id": "YBDV9IV3RQ"}, {"acodec": "aac", "audio_bit_rate": 317375, "audio_stream_index": 1, "audio_timebase": {"den": 48000, "num": 1}, "channel_layout": 3, "channels": 2, "display_ratio": {"den": 135, "num": 256}, "duration": 20.360000610351562, "file_size": "244824541", "fps": {"den": 1, "num": 25}, "has_audio": true, "has_single_image": false, "has_video": true, "height": 2160, "interlaced_frame": false, "path": "video assets/190126_Valentines_49.mp4", "pixel_format": 0, "pixel_ratio": {"den": 1, "num": 1}, "sample_rate": 48000, "top_field_first": true, "type": "FFmpegReader", "vcodec": "h264", "video_bit_rate": 96198247, "video_length": "509", "video_stream_index": 0, "video_timebase": {"den": 25000, "num": 1}, "width": 4096, "media_type": "video", "id": "99JU91HHAD"}, {"acodec": "", "audio_bit_rate": 0, "audio_stream_index": -1, "audio_timebase": {"den": 1, "num": 1}, "channel_layout": 4, "channels": 0, "display_ratio": {"den": 84, "num": 149}, "duration": 15.016016006469727, "file_size": "1590835", "fps": {"den": 100, "num": 2997}, "has_audio": false, "has_single_image": false, "has_video": true, "height": 336, "interlaced_frame": false, "path": "video assets/1265275-preview.mp4", "pixel_format": 0, "pixel_ratio": {"den": 1, "num": 1}, "sample_rate": 0, "top_field_first": true, "type": "FFmpegReader", "vcodec": "h264", "video_bit_rate": 847541, "video_length": "450", "video_stream_index": 0, "video_timebase": {"den": 2997, "num": 1}, "width": 596, "media_type": "video", "id": "WCGA0NGXVJ"}, {"acodec": "aac", "audio_bit_rate": 2089, "audio_stream_index": 1, "audio_timebase": {"den": 44100, "num": 1}, "channel_layout": 3, "channels": 2, "display_ratio": {"den": 84, "num": 149}, "duration": 10.239999771118164, "file_size": "1678485", "fps": {"den": 100, "num": 2997}, "has_audio": true, "has_single_image": false, "has_video": true, "height": 336, "interlaced_frame": false, "path": "video assets/3592964-preview.mp4", "pixel_format": 0, "pixel_ratio": {"den": 1, "num": 1}, "sample_rate": 44100, "top_field_first": true, "type": "FFmpegReader", "vcodec": "h264", "video_bit_rate": 1310804, "video_length": "307", "video_stream_index": 0, "video_timebase": {"den": 2997, "num": 1}, "width": 596, "media_type": "video", "id": "G0HUTQ2EM1"}, {"acodec": "aac", "audio_bit_rate": 2095, "audio_stream_index": 1, "audio_timebase": {"den": 44100, "num": 1}, "channel_layout": 3, "channels": 2, "display_ratio": {"den": 84, "num": 149}, "duration": 8.035011291503906, "file_size": "947319", "fps": {"den": 100, "num": 2997}, "has_audio": true, "has_single_image": false, "has_video": true, "height": 336, "interlaced_frame": false, "path": "video assets/3594023-preview.mp4", "pixel_format": 0, "pixel_ratio": {"den": 1, "num": 1}, "sample_rate": 44100, "top_field_first": true, "type": "FFmpegReader", "vcodec": "h264", "video_bit_rate": 942371, "video_length": "241", "video_stream_index": 0, "video_timebase": {"den": 2997, "num": 1}, "width": 596, "media_type": "video", "id": "HXED1LNWZL"}, {"acodec": "", "audio_bit_rate": 0, "audio_stream_index": -1, "audio_timebase": {"den": 1, "num": 1}, "channel_layout": 4, "channels": 0, "display_ratio": {"den": 84, "num": 149}, "duration": 21.689022064208984, "file_size": "2480680", "fps": {"den": 100, "num": 2997}, "has_audio": false, "has_single_image": false, "has_video": true, "height": 336, "interlaced_frame": false, "path": "video assets/4371524-preview.mp4", "pixel_format": 0, "pixel_ratio": {"den": 1, "num": 1}, "sample_rate": 0, "top_field_first": true, "type": "FFmpegReader", "vcodec": "h264", "video_bit_rate": 915000, "video_length": "650", "video_stream_index": 0, "video_timebase": {"den": 2997, "num": 1}, "width": 596, "media_type": "video", "id": "3XRS1VUDFX"}, {"acodec": "", "audio_bit_rate": 0, "audio_stream_index": -1, "audio_timebase": {"den": 1, "num": 1}, "channel_layout": 4, "channels": 0, "display_ratio": {"den": 84, "num": 149}, "duration": 17.959999084472656, "file_size": "2128140", "fps": {"den": 1, "num": 25}, "has_audio": false, "has_single_image": false, "has_video": true, "height": 336, "interlaced_frame": false, "path": "video assets/6070205-preview.mp4", "pixel_format": 0, "pixel_ratio": {"den": 1, "num": 1}, "sample_rate": 0, "top_field_first": true, "type": "FFmpegReader", "vcodec": "h264", "video_bit_rate": 947946, "video_length": "449", "video_stream_index": 0, "video_timebase": {"den": 12800, "num": 1}, "width": 596, "media_type": "video", "id": "HRHP5RQDW2"}, {"acodec": "", "audio_bit_rate": 0, "audio_stream_index": -1, "audio_timebase": {"den": 1, "num": 1}, "channel_layout": 4, "channels": 0, "display_ratio": {"den": 84, "num": 149}, "duration": 10.039999961853027, "file_size": "1274343", "fps": {"den": 1, "num": 25}, "has_audio": false, "has_single_image": false, "has_video": true, "height": 336, "interlaced_frame": false, "path": "video assets/6528731-preview.mp4", "pixel_format": 0, "pixel_ratio": {"den": 1, "num": 1}, "sample_rate": 0, "top_field_first": true, "type": "FFmpegReader", "vcodec": "h264", "video_bit_rate": 1015412, "video_length": "251", "video_stream_index": 0, "video_timebase": {"den": 12800, "num": 1}, "width": 596, "media_type": "video", "id": "RFIGYYXQ6W"}, {"acodec": "", "audio_bit_rate": 0, "audio_stream_index": -1, "audio_timebase": {"den": 1, "num": 1}, "channel_layout": 4, "channels": 0, "display_ratio": {"den": 84, "num": 149}, "duration": 35.235984802246094, "file_size": "4296710", "fps": {"den": 100, "num": 2997}, "has_audio": false, "has_single_image": false, "has_video": true, "height": 336, "interlaced_frame": false, "path": "video assets/7183237-preview.mp4", "pixel_format": 0, "pixel_ratio": {"den": 1, "num": 1}, "sample_rate": 0, "top_field_first": true, "type": "FFmpegReader", "vcodec": "h264", "video_bit_rate": 975527, "video_length": "1056", "video_stream_index": 0, "video_timebase": {"den": 11988, "num": 1}, "width": 596, "media_type": "video", "id": "7N5KQ9ZERK"}, {"acodec": "", "audio_bit_rate": 0, "audio_stream_index": -1, "audio_timebase": {"den": 1, "num": 1}, "channel_layout": 4, "channels": 0, "display_ratio": {"den": 84, "num": 149}, "duration": 26.6669921875, "file_size": "3130344", "fps": {"den": 1, "num": 30}, "has_audio": false, "has_single_image": false, "has_video": true, "height": 336, "interlaced_frame": false, "path": "video assets/8866663-preview.mp4", "pixel_format": 0, "pixel_ratio": {"den": 1, "num": 1}, "sample_rate": 0, "top_field_first": true, "type": "FFmpegReader", "vcodec": "h264", "video_bit_rate": 939091, "video_length": "800", "video_stream_index": 0, "video_timebase": {"den": 15360, "num": 1}, "width": 596, "media_type": "video", "id": "G8B52U5OD3"}, {"acodec": "", "audio_bit_rate": 0, "audio_stream_index": -1, "audio_timebase": {"den": 1, "num": 1}, "channel_layout": 4, "channels": 0, "display_ratio": {"den": 84, "num": 149}, "duration": 30, "file_size": "3680524", "fps": {"den": 1, "num": 30}, "has_audio": false, "has_single_image": false, "has_video": true, "height": 336, "interlaced_frame": false, "path": "video assets/11728724-preview.mp4", "pixel_format": 0, "pixel_ratio": {"den": 1, "num": 1}, "sample_rate": 0, "top_field_first": true, "type": "FFmpegReader", "vcodec": "h264", "video_bit_rate": 981473, "video_length": "900", "video_stream_index": 0, "video_timebase": {"den": 15360, "num": 1}, "width": 596, "media_type": "video", "id": "MK67AURUUX"}, {"acodec": "", "audio_bit_rate": 0, "audio_stream_index": -1, "audio_timebase": {"den": 1, "num": 1}, "channel_layout": 4, "channels": 0, "display_ratio": {"den": 84, "num": 149}, "duration": 13.413999557495117, "file_size": "1016982", "fps": {"den": 1001, "num": 30000}, "has_audio": false, "has_single_image": false, "has_video": true, "height": 336, "interlaced_frame": false, "path": "video assets/12577880-preview.mp4", "pixel_format": 0, "pixel_ratio": {"den": 1, "num": 1}, "sample_rate": 0, "top_field_first": true, "type": "FFmpegReader", "vcodec": "h264", "video_bit_rate": 606519, "video_length": "402", "video_stream_index": 0, "video_timebase": {"den": 30000, "num": 1}, "width": 596, "media_type": "video", "id": "QZN4VVH4L1"}, {"acodec": "", "audio_bit_rate": 0, "audio_stream_index": -1, "audio_timebase": {"den": 1, "num": 1}, "channel_layout": 4, "channels": 0, "display_ratio": {"den": 84, "num": 149}, "duration": 15.048999786376953, "file_size": "1844586", "fps": {"den": 1001, "num": 30000}, "has_audio": false, "has_single_image": false, "has_video": true, "height": 336, "interlaced_frame": false, "path": "video assets/13460132-preview.mp4", "pixel_format": 0, "pixel_ratio": {"den": 1, "num": 1}, "sample_rate": 0, "top_field_first": true, "type": "FFmpegReader", "vcodec": "h264", "video_bit_rate": 980575, "video_length": "451", "video_stream_index": 0, "video_timebase": {"den": 30000, "num": 1}, "width": 596, "media_type": "video", "id": "55I318G5W8"}, {"acodec": "", "audio_bit_rate": 0, "audio_stream_index": -1, "audio_timebase": {"den": 1, "num": 1}, "channel_layout": 4, "channels": 0, "display_ratio": {"den": 84, "num": 149}, "duration": 10.033984184265137, "file_size": "1160697", "fps": {"den": 1, "num": 30}, "has_audio": false, "has_single_image": false, "has_video": true, "height": 336, "interlaced_frame": false, "path": "video assets/13983842-preview.mp4", "pixel_format": 0, "pixel_ratio": {"den": 1, "num": 1}, "sample_rate": 0, "top_field_first": true, "type": "FFmpegReader", "vcodec": "h264", "video_bit_rate": 925411, "video_length": "301", "video_stream_index": 0, "video_timebase": {"den": 15360, "num": 1}, "width": 596, "media_type": "video", "id": "ZLQQ7J03O5"}, {"acodec": "", "audio_bit_rate": 0, "audio_stream_index": -1, "audio_timebase": {"den": 1, "num": 1}, "channel_layout": 4, "channels": 0, "display_ratio": {"den": 84, "num": 149}, "duration": 20.020000457763672, "file_size": "2389941", "fps": {"den": 1001, "num": 30000}, "has_audio": false, "has_single_image": false, "has_video": true, "height": 336, "interlaced_frame": false, "path": "video assets/16857802-preview.mp4", "pixel_format": 0, "pixel_ratio": {"den": 1, "num": 1}, "sample_rate": 0, "top_field_first": true, "type": "FFmpegReader", "vcodec": "h264", "video_bit_rate": 955021, "video_length": "600", "video_stream_index": 0, "video_timebase": {"den": 30000, "num": 1}, "width": 596, "media_type": "video", "id": "S4W73EP8XJ"}, {"acodec": "", "audio_bit_rate": 0, "audio_stream_index": -1, "audio_timebase": {"den": 1, "num": 1}, "channel_layout": 4, "channels": 0, "display_ratio": {"den": 84, "num": 149}, "duration": 10.678000450134277, "file_size": "1248338", "fps": {"den": 1001, "num": 30000}, "has_audio": false, "has_single_image": false, "has_video": true, "height": 336, "interlaced_frame": false, "path": "video assets/17157313-preview.mp4", "pixel_format": 0, "pixel_ratio": {"den": 1, "num": 1}, "sample_rate": 0, "top_field_first": true, "type": "FFmpegReader", "vcodec": "h264", "video_bit_rate": 935259, "video_length": "320", "video_stream_index": 0, "video_timebase": {"den": 30000, "num": 1}, "width": 596, "media_type": "video", "id": "TUY59O1ZMZ"}, {"acodec": "", "audio_bit_rate": 0, "audio_stream_index": -1, "audio_timebase": {"den": 1, "num": 1}, "channel_layout": 4, "channels": 0, "display_ratio": {"den": 84, "num": 149}, "duration": 20, "file_size": "2423260", "fps": {"den": 1, "num": 30}, "has_audio": false, "has_single_image": false, "has_video": true, "height": 336, "interlaced_frame": false, "path": "video assets/18292843-preview.mp4", "pixel_format": 0, "pixel_ratio": {"den": 1, "num": 1}, "sample_rate": 0, "top_field_first": true, "type": "FFmpegReader", "vcodec": "h264", "video_bit_rate": 969304, "video_length": "600", "video_stream_index": 0, "video_timebase": {"den": 15360, "num": 1}, "width": 596, "media_type": "video", "id": "689UE7LWJF"}, {"acodec": "", "audio_bit_rate": 0, "audio_stream_index": -1, "audio_timebase": {"den": 1, "num": 1}, "channel_layout": 4, "channels": 0, "display_ratio": {"den": 84, "num": 149}, "duration": 12.033984184265137, "file_size": "1559140", "fps": {"den": 1, "num": 30}, "has_audio": false, "has_single_image": false, "has_video": true, "height": 336, "interlaced_frame": false, "path": "video assets/18846515-preview.mp4", "pixel_format": 0, "pixel_ratio": {"den": 1, "num": 1}, "sample_rate": 0, "top_field_first": true, "type": "FFmpegReader", "vcodec": "h264", "video_bit_rate": 1036489, "video_length": "361", "video_stream_index": 0, "video_timebase": {"den": 15360, "num": 1}, "width": 596, "media_type": "video", "id": "TRSUKVWH99"}, {"acodec": "", "audio_bit_rate": 0, "audio_stream_index": -1, "audio_timebase": {"den": 1, "num": 1}, "channel_layout": 4, "channels": 0, "display_ratio": {"den": 84, "num": 149}, "duration": 29.26300048828125, "file_size": "3401785", "fps": {"den": 1001, "num": 30000}, "has_audio": false, "has_single_image": false, "has_video": true, "height": 336, "interlaced_frame": false, "path": "video assets/18915110-preview.mp4", "pixel_format": 0, "pixel_ratio": {"den": 1, "num": 1}, "sample_rate": 0, "top_field_first": true, "type": "FFmpegReader", "vcodec": "h264", "video_bit_rate": 929989, "video_length": "877", "video_stream_index": 0, "video_timebase": {"den": 30000, "num": 1}, "width": 596, "media_type": "video", "id": "RWJ8IDOIZC"}, {"acodec": "", "audio_bit_rate": 0, "audio_stream_index": -1, "audio_timebase": {"den": 1, "num": 1}, "channel_layout": 4, "channels": 0, "display_ratio": {"den": 84, "num": 149}, "duration": 46, "file_size": "4973482", "fps": {"den": 1, "num": 25}, "has_audio": false, "has_single_image": false, "has_video": true, "height": 336, "interlaced_frame": false, "path": "video assets/22138156-preview.mp4", "pixel_format": 0, "pixel_ratio": {"den": 1, "num": 1}, "sample_rate": 0, "top_field_first": true, "type": "FFmpegReader", "vcodec": "h264", "video_bit_rate": 864953, "video_length": "1150", "video_stream_index": 0, "video_timebase": {"den": 12800, "num": 1}, "width": 596, "media_type": "video", "id": "ZOUCJ0XQII"}, {"acodec": "", "audio_bit_rate": 0, "audio_stream_index": -1, "audio_timebase": {"den": 1, "num": 1}, "channel_layout": 4, "channels": 0, "display_ratio": {"den": 84, "num": 149}, "duration": 13.4399995803833, "file_size": "1560325", "fps": {"den": 1, "num": 25}, "has_audio": false, "has_single_image": false, "has_video": true, "height": 336, "interlaced_frame": false, "path": "video assets/22782544-preview.mp4", "pixel_format": 0, "pixel_ratio": {"den": 1, "num": 1}, "sample_rate": 0, "top_field_first": true, "type": "FFmpegReader", "vcodec": "h264", "video_bit_rate": 928764, "video_length": "336", "video_stream_index": 0, "video_timebase": {"den": 12800, "num": 1}, "width": 596, "media_type": "video", "id": "M9OO5LBDVO"}, {"acodec": "", "audio_bit_rate": 0, "audio_stream_index": -1, "audio_timebase": {"den": 1, "num": 1}, "channel_layout": 4, "channels": 0, "display_ratio": {"den": 84, "num": 149}, "duration": 40, "file_size": "3518030", "fps": {"den": 1, "num": 25}, "has_audio": false, "has_single_image": false, "has_video": true, "height": 336, "interlaced_frame": false, "path": "video assets/23694901-preview.mp4", "pixel_format": 0, "pixel_ratio": {"den": 1, "num": 1}, "sample_rate": 0, "top_field_first": true, "type": "FFmpegReader", "vcodec": "h264", "video_bit_rate": 703606, "video_length": "1000", "video_stream_index": 0, "video_timebase": {"den": 12800, "num": 1}, "width": 596, "media_type": "video", "id": "5UL6RUFUBO"}, {"acodec": "", "audio_bit_rate": 0, "audio_stream_index": -1, "audio_timebase": {"den": 1, "num": 1}, "channel_layout": 4, "channels": 0, "display_ratio": {"den": 84, "num": 149}, "duration": 46, "file_size": "4877662", "fps": {"den": 1, "num": 25}, "has_audio": false, "has_single_image": false, "has_video": true, "height": 336, "interlaced_frame": false, "path": "video assets/23705650-preview.mp4", "pixel_format": 0, "pixel_ratio": {"den": 1, "num": 1}, "sample_rate": 0, "top_field_first": true, "type": "FFmpegReader", "vcodec": "h264", "video_bit_rate": 848289, "video_length": "1150", "video_stream_index": 0, "video_timebase": {"den": 12800, "num": 1}, "width": 596, "media_type": "video", "id": "VGKFBXYU5S"}, {"acodec": "", "audio_bit_rate": 0, "audio_stream_index": -1, "audio_timebase": {"den": 1, "num": 1}, "channel_layout": 4, "channels": 0, "display_ratio": {"den": 21, "num": 31}, "duration": 14.800000190734863, "file_size": "1753952", "fps": {"den": 1, "num": 30}, "has_audio": false, "has_single_image": false, "has_video": true, "height": 336, "interlaced_frame": false, "path": "video assets/24668264-preview.mp4", "pixel_format": 0, "pixel_ratio": {"den": 1, "num": 1}, "sample_rate": 0, "top_field_first": true, "type": "FFmpegReader", "vcodec": "h264", "video_bit_rate": 948082, "video_length": "444", "video_stream_index": 0, "video_timebase": {"den": 15360, "num": 1}, "width": 496, "media_type": "video", "id": "T89J08QXXO"}, {"acodec": "", "audio_bit_rate": 0, "audio_stream_index": -1, "audio_timebase": {"den": 1, "num": 1}, "channel_layout": 4, "channels": 0, "display_ratio": {"den": 84, "num": 149}, "duration": 30.030000686645508, "file_size": "3660080", "fps": {"den": 1001, "num": 60000}, "has_audio": false, "has_single_image": false, "has_video": true, "height": 336, "interlaced_frame": false, "path": "video assets/25507277-preview.mp4", "pixel_format": 0, "pixel_ratio": {"den": 1, "num": 1}, "sample_rate": 0, "top_field_first": true, "type": "FFmpegReader", "vcodec": "h264", "video_bit_rate": 975046, "video_length": "1800", "video_stream_index": 0, "video_timebase": {"den": 60000, "num": 1}, "width": 596, "media_type": "video", "id": "74FLNFK7DU"}, {"acodec": "", "audio_bit_rate": 0, "audio_stream_index": -1, "audio_timebase": {"den": 1, "num": 1}, "channel_layout": 4, "channels": 0, "display_ratio": {"den": 84, "num": 149}, "duration": 32, "file_size": "3798500", "fps": {"den": 1, "num": 25}, "has_audio": false, "has_single_image": false, "has_video": true, "height": 336, "interlaced_frame": false, "path": "video assets/26548781-preview.mp4", "pixel_format": 0, "pixel_ratio": {"den": 1, "num": 1}, "sample_rate": 0, "top_field_first": true, "type": "FFmpegReader", "vcodec": "h264", "video_bit_rate": 949625, "video_length": "800", "video_stream_index": 0, "video_timebase": {"den": 12800, "num": 1}, "width": 596, "media_type": "video", "id": "RK5H5FZIPK"}, {"acodec": "", "audio_bit_rate": 0, "audio_stream_index": -1, "audio_timebase": {"den": 1, "num": 1}, "channel_layout": 4, "channels": 0, "display_ratio": {"den": 84, "num": 149}, "duration": 19.299999237060547, "file_size": "2254903", "fps": {"den": 1, "num": 30}, "has_audio": false, "has_single_image": false, "has_video": true, "height": 336, "interlaced_frame": false, "path": "video assets/26828902-preview.mp4", "pixel_format": 0, "pixel_ratio": {"den": 1, "num": 1}, "sample_rate": 0, "top_field_first": true, "type": "FFmpegReader", "vcodec": "h264", "video_bit_rate": 934674, "video_length": "579", "video_stream_index": 0, "video_timebase": {"den": 15360, "num": 1}, "width": 596, "media_type": "video", "id": "IFYA03SB19"}, {"acodec": "", "audio_bit_rate": 0, "audio_stream_index": -1, "audio_timebase": {"den": 1, "num": 1}, "channel_layout": 4, "channels": 0, "display_ratio": {"den": 84, "num": 149}, "duration": 22.790000915527344, "file_size": "2657213", "fps": {"den": 1001, "num": 30000}, "has_audio": false, "has_single_image": false, "has_video": true, "height": 336, "interlaced_frame": false, "path": "video assets/32769901-preview.mp4", "pixel_format": 0, "pixel_ratio": {"den": 1, "num": 1}, "sample_rate": 0, "top_field_first": true, "type": "FFmpegReader", "vcodec": "h264", "video_bit_rate": 932764, "video_length": "683", "video_stream_index": 0, "video_timebase": {"den": 30000, "num": 1}, "width": 596, "media_type": "video", "id": "MVEDX0MXTE"}, {"acodec": "", "audio_bit_rate": 0, "audio_stream_index": -1, "audio_timebase": {"den": 1, "num": 1}, "channel_layout": 4, "channels": 0, "display_ratio": {"den": 84, "num": 149}, "duration": 36.5369987487793, "file_size": "4196192", "fps": {"den": 1001, "num": 30000}, "has_audio": false, "has_single_image": false, "has_video": true, "height": 336, "interlaced_frame": false, "path": "video assets/33052981-preview.mp4", "pixel_format": 0, "pixel_ratio": {"den": 1, "num": 1}, "sample_rate": 0, "top_field_first": true, "type": "FFmpegReader", "vcodec": "h264", "video_bit_rate": 918781, "video_length": "1095", "video_stream_index": 0, "video_timebase": {"den": 30000, "num": 1}, "width": 596, "media_type": "video", "id": "EWG01CHQ4Z"}, {"acodec": "", "audio_bit_rate": 0, "audio_stream_index": -1, "audio_timebase": {"den": 1, "num": 1}, "channel_layout": 4, "channels": 0, "display_ratio": {"den": 84, "num": 149}, "duration": 25.458999633789062, "file_size": "3043969", "fps": {"den": 1001, "num": 30000}, "has_audio": false, "has_single_image": false, "has_video": true, "height": 336, "interlaced_frame": false, "path": "video assets/1007373979-preview.mp4", "pixel_format": 0, "pixel_ratio": {"den": 1, "num": 1}, "sample_rate": 0, "top_field_first": true, "type": "FFmpegReader", "vcodec": "h264", "video_bit_rate": 956508, "video_length": "763", "video_stream_index": 0, "video_timebase": {"den": 30000, "num": 1}, "width": 596, "media_type": "video", "id": "SQO0PHY2HX"}, {"acodec": "", "audio_bit_rate": 0, "audio_stream_index": -1, "audio_timebase": {"den": 1, "num": 1}, "channel_layout": 4, "channels": 0, "display_ratio": {"den": 84, "num": 149}, "duration": 8.451982498168945, "file_size": "1148399", "fps": {"den": 12, "num": 301}, "has_audio": false, "has_single_image": false, "has_video": true, "height": 336, "interlaced_frame": false, "path": "video assets/1008850895-preview.mp4", "pixel_format": 0, "pixel_ratio": {"den": 1, "num": 1}, "sample_rate": 0, "top_field_first": true, "type": "FFmpegReader", "vcodec": "h264", "video_bit_rate": 1086984, "video_length": "212", "video_stream_index": 0, "video_timebase": {"den": 19264, "num": 1}, "width": 596, "media_type": "video", "id": "2D1LKDBFPE"}, {"acodec": "", "audio_bit_rate": 0, "audio_stream_index": -1, "audio_timebase": {"den": 1, "num": 1}, "channel_layout": 4, "channels": 0, "display_ratio": {"den": 84, "num": 149}, "duration": 17.207000732421875, "file_size": "2079960", "fps": {"den": 109869, "num": 2752000}, "has_audio": false, "has_single_image": false, "has_video": true, "height": 336, "interlaced_frame": false, "path": "video assets/1008850913-preview.mp4", "pixel_format": 0, "pixel_ratio": {"den": 1, "num": 1}, "sample_rate": 0, "top_field_first": true, "type": "FFmpegReader", "vcodec": "h264", "video_bit_rate": 967029, "video_length": "431", "video_stream_index": 0, "video_timebase": {"den": 2752000, "num": 1}, "width": 596, "media_type": "video", "id": "5ANJQ3DRT6"}, {"acodec": "", "audio_bit_rate": 0, "audio_stream_index": -1, "audio_timebase": {"den": 1, "num": 1}, "channel_layout": 4, "channels": 0, "display_ratio": {"den": 84, "num": 149}, "duration": 13.5, "file_size": "1421739", "fps": {"den": 1, "num": 30}, "has_audio": false, "has_single_image": false, "has_video": true, "height": 336, "interlaced_frame": false, "path": "video assets/1009464575-preview.mp4", "pixel_format": 0, "pixel_ratio": {"den": 1, "num": 1}, "sample_rate": 0, "top_field_first": true, "type": "FFmpegReader", "vcodec": "h264", "video_bit_rate": 842512, "video_length": "405", "video_stream_index": 0, "video_timebase": {"den": 15360, "num": 1}, "width": 596, "media_type": "video", "id": "E1WTKOKJLM"}, {"acodec": "", "audio_bit_rate": 0, "audio_stream_index": -1, "audio_timebase": {"den": 1, "num": 1}, "channel_layout": 4, "channels": 0, "display_ratio": {"den": 84, "num": 149}, "duration": 10.277000427246094, "file_size": "1265434", "fps": {"den": 1001, "num": 30000}, "has_audio": false, "has_single_image": false, "has_video": true, "height": 336, "interlaced_frame": false, "path": "video assets/1009568600-preview.mp4", "pixel_format": 0, "pixel_ratio": {"den": 1, "num": 1}, "sample_rate": 0, "top_field_first": true, "type": "FFmpegReader", "vcodec": "h264", "video_bit_rate": 985061, "video_length": "308", "video_stream_index": 0, "video_timebase": {"den": 30000, "num": 1}, "width": 596, "media_type": "video", "id": "A4DPRYTBR3"}, {"acodec": "", "audio_bit_rate": 0, "audio_stream_index": -1, "audio_timebase": {"den": 1, "num": 1}, "channel_layout": 4, "channels": 0, "display_ratio": {"den": 84, "num": 149}, "duration": 12.5, "file_size": "1478230", "fps": {"den": 1, "num": 24}, "has_audio": false, "has_single_image": false, "has_video": true, "height": 336, "interlaced_frame": false, "path": "video assets/1011337619-preview.mp4", "pixel_format": 0, "pixel_ratio": {"den": 1, "num": 1}, "sample_rate": 0, "top_field_first": true, "type": "FFmpegReader", "vcodec": "h264", "video_bit_rate": 946067, "video_length": "300", "video_stream_index": 0, "video_timebase": {"den": 12288, "num": 1}, "width": 596, "media_type": "video", "id": "O6ZG7ZNYW8"}, {"acodec": "aac", "audio_bit_rate": 2783, "audio_stream_index": 1, "audio_timebase": {"den": 44100, "num": 1}, "channel_layout": 3, "channels": 2, "display_ratio": {"den": 84, "num": 149}, "duration": 25.292993545532227, "file_size": "2738626", "fps": {"den": 1001, "num": 30000}, "has_audio": true, "has_single_image": false, "has_video": true, "height": 336, "interlaced_frame": false, "path": "video assets/1013201579-preview.mp4", "pixel_format": 0, "pixel_ratio": {"den": 1, "num": 1}, "sample_rate": 44100, "top_field_first": true, "type": "FFmpegReader", "vcodec": "h264", "video_bit_rate": 865626, "video_length": "758", "video_stream_index": 0, "video_timebase": {"den": 30000, "num": 1}, "width": 596, "media_type": "video", "id": "897BSNVSR8"}, {"acodec": "", "audio_bit_rate": 0, "audio_stream_index": -1, "audio_timebase": {"den": 1, "num": 1}, "channel_layout": 4, "channels": 0, "display_ratio": {"den": 84, "num": 149}, "duration": 14.114999771118164, "file_size": "1699356", "fps": {"den": 1001, "num": 30000}, "has_audio": false, "has_single_image": false, "has_video": true, "height": 336, "interlaced_frame": false, "path": "video assets/1013914880-preview.mp4", "pixel_format": 0, "pixel_ratio": {"den": 1, "num": 1}, "sample_rate": 0, "top_field_first": true, "type": "FFmpegReader", "vcodec": "h264", "video_bit_rate": 963148, "video_length": "423", "video_stream_index": 0, "video_timebase": {"den": 30000, "num": 1}, "width": 596, "media_type": "video", "id": "A3QFKMTXIY"}, {"acodec": "aac", "audio_bit_rate": 2781, "audio_stream_index": 1, "audio_timebase": {"den": 44100, "num": 1}, "channel_layout": 3, "channels": 2, "display_ratio": {"den": 84, "num": 149}, "duration": 16.1409969329834, "file_size": "1911528", "fps": {"den": 1001, "num": 30000}, "has_audio": true, "has_single_image": false, "has_video": true, "height": 336, "interlaced_frame": false, "path": "video assets/1015105216-preview.mp4", "pixel_format": 0, "pixel_ratio": {"den": 1, "num": 1}, "sample_rate": 44100, "top_field_first": true, "type": "FFmpegReader", "vcodec": "h264", "video_bit_rate": 944956, "video_length": "485", "video_stream_index": 0, "video_timebase": {"den": 30000, "num": 1}, "width": 596, "media_type": "video", "id": "BSQO44CAX3"}, {"acodec": "aac", "audio_bit_rate": 2781, "audio_stream_index": 1, "audio_timebase": {"den": 44100, "num": 1}, "channel_layout": 3, "channels": 2, "display_ratio": {"den": 84, "num": 149}, "duration": 16.1409969329834, "file_size": "1911528", "fps": {"den": 1001, "num": 30000}, "has_audio": true, "has_single_image": false, "has_video": true, "height": 336, "interlaced_frame": false, "path": "video assets/1015105216-preview(1).mp4", "pixel_format": 0, "pixel_ratio": {"den": 1, "num": 1}, "sample_rate": 44100, "top_field_first": true, "type": "FFmpegReader", "vcodec": "h264", "video_bit_rate": 944956, "video_length": "485", "video_stream_index": 0, "video_timebase": {"den": 30000, "num": 1}, "width": 596, "media_type": "video", "id": "CX80APFSDI"}, {"acodec": "", "audio_bit_rate": 0, "audio_stream_index": -1, "audio_timebase": {"den": 1, "num": 1}, "channel_layout": 4, "channels": 0, "display_ratio": {"den": 84, "num": 149}, "duration": 11.319999694824219, "file_size": "1468440", "fps": {"den": 1, "num": 25}, "has_audio": false, "has_single_image": false, "has_video": true, "height": 336, "interlaced_frame": false, "path": "video assets/1015371004-preview.mp4", "pixel_format": 0, "pixel_ratio": {"den": 1, "num": 1}, "sample_rate": 0, "top_field_first": true, "type": "FFmpegReader", "vcodec": "h264", "video_bit_rate": 1037766, "video_length": "283", "video_stream_index": 0, "video_timebase": {"den": 12800, "num": 1}, "width": 596, "media_type": "video", "id": "3RL2GADB3O"}, {"acodec": "", "audio_bit_rate": 0, "audio_stream_index": -1, "audio_timebase": {"den": 1, "num": 1}, "channel_layout": 4, "channels": 0, "display_ratio": {"den": 84, "num": 149}, "duration": 9.920000076293945, "file_size": "1198046", "fps": {"den": 1, "num": 25}, "has_audio": false, "has_single_image": false, "has_video": true, "height": 336, "interlaced_frame": false, "path": "video assets/1016309740-preview.mp4", "pixel_format": 0, "pixel_ratio": {"den": 1, "num": 1}, "sample_rate": 0, "top_field_first": true, "type": "FFmpegReader", "vcodec": "h264", "video_bit_rate": 966166, "video_length": "248", "video_stream_index": 0, "video_timebase": {"den": 12800, "num": 1}, "width": 596, "media_type": "video", "id": "8T4SK39XZY"}, {"acodec": "", "audio_bit_rate": 0, "audio_stream_index": -1, "audio_timebase": {"den": 1, "num": 1}, "channel_layout": 4, "channels": 0, "display_ratio": {"den": 84, "num": 149}, "duration": 6.400000095367432, "file_size": "752329", "fps": {"den": 1, "num": 30}, "has_audio": false, "has_single_image": false, "has_video": true, "height": 336, "interlaced_frame": false, "path": "video assets/1016312956-preview.mp4", "pixel_format": 0, "pixel_ratio": {"den": 1, "num": 1}, "sample_rate": 0, "top_field_first": true, "type": "FFmpegReader", "vcodec": "h264", "video_bit_rate": 940411, "video_length": "192", "video_stream_index": 0, "video_timebase": {"den": 15360, "num": 1}, "width": 596, "media_type": "video", "id": "6D5T1E4BRH"}, {"acodec": "", "audio_bit_rate": 0, "audio_stream_index": -1, "audio_timebase": {"den": 1, "num": 1}, "channel_layout": 4, "channels": 0, "display_ratio": {"den": 79, "num": 150}, "duration": 44.33599853515625, "file_size": "5120509", "fps": {"den": 1001, "num": 24000}, "has_audio": false, "has_single_image": false, "has_video": true, "height": 316, "interlaced_frame": false, "path": "video assets/1019086909-preview.mp4", "pixel_format": 0, "pixel_ratio": {"den": 1, "num": 1}, "sample_rate": 0, "top_field_first": true, "type": "FFmpegReader", "vcodec": "h264", "video_bit_rate": 923946, "video_length": "1063", "video_stream_index": 0, "video_timebase": {"den": 24000, "num": 1}, "width": 600, "media_type": "video", "id": "S1F0PS2NHN"}, {"acodec": "", "audio_bit_rate": 0, "audio_stream_index": -1, "audio_timebase": {"den": 1, "num": 1}, "channel_layout": 4, "channels": 0, "display_ratio": {"den": 84, "num": 149}, "duration": 10.143991470336914, "file_size": "1221831", "fps": {"den": 6, "num": 181}, "has_audio": false, "has_single_image": false, "has_video": true, "height": 336, "interlaced_frame": false, "path": "video assets/1019281846-preview.mp4", "pixel_format": 0, "pixel_ratio": {"den": 1, "num": 1}, "sample_rate": 0, "top_field_first": true, "type": "FFmpegReader", "vcodec": "h264", "video_bit_rate": 963589, "video_length": "306", "video_stream_index": 0, "video_timebase": {"den": 11584, "num": 1}, "width": 596, "media_type": "video", "id": "37RK3BVHCD"}, {"acodec": "", "audio_bit_rate": 0, "audio_stream_index": -1, "audio_timebase": {"den": 1, "num": 1}, "channel_layout": 4, "channels": 0, "display_ratio": {"den": 84, "num": 149}, "duration": 20, "file_size": "2331260", "fps": {"den": 1, "num": 25}, "has_audio": false, "has_single_image": false, "has_video": true, "height": 336, "interlaced_frame": false, "path": "video assets/1020488074-preview.mp4", "pixel_format": 0, "pixel_ratio": {"den": 1, "num": 1}, "sample_rate": 0, "top_field_first": true, "type": "FFmpegReader", "vcodec": "h264", "video_bit_rate": 932504, "video_length": "500", "video_stream_index": 0, "video_timebase": {"den": 12800, "num": 1}, "width": 596, "media_type": "video", "id": "ULGCDBZHYU"}, {"acodec": "", "audio_bit_rate": 0, "audio_stream_index": -1, "audio_timebase": {"den": 1, "num": 1}, "channel_layout": 4, "channels": 0, "display_ratio": {"den": 84, "num": 149}, "duration": 9.880000114440918, "file_size": "1149638", "fps": {"den": 1, "num": 25}, "has_audio": false, "has_single_image": false, "has_video": true, "height": 336, "interlaced_frame": false, "path": "video assets/1024315289-preview.mp4", "pixel_format": 0, "pixel_ratio": {"den": 1, "num": 1}, "sample_rate": 0, "top_field_first": true, "type": "FFmpegReader", "vcodec": "h264", "video_bit_rate": 930880, "video_length": "247", "video_stream_index": 0, "video_timebase": {"den": 12800, "num": 1}, "width": 596, "media_type": "video", "id": "BZZOUKMZQJ"}, {"acodec": "", "audio_bit_rate": 0, "audio_stream_index": -1, "audio_timebase": {"den": 1, "num": 1}, "channel_layout": 4, "channels": 0, "display_ratio": {"den": 84, "num": 149}, "duration": 15.015000343322754, "file_size": "1533333", "fps": {"den": 1001, "num": 30000}, "has_audio": false, "has_single_image": false, "has_video": true, "height": 336, "interlaced_frame": false, "path": "video assets/1025020760-preview.mp4", "pixel_format": 0, "pixel_ratio": {"den": 1, "num": 1}, "sample_rate": 0, "top_field_first": true, "type": "FFmpegReader", "vcodec": "h264", "video_bit_rate": 816960, "video_length": "450", "video_stream_index": 0, "video_timebase": {"den": 30000, "num": 1}, "width": 596, "media_type": "video", "id": "PK0GVBXWTM"}, {"acodec": "aac", "audio_bit_rate": 2104, "audio_stream_index": 1, "audio_timebase": {"den": 44100, "num": 1}, "channel_layout": 3, "channels": 2, "display_ratio": {"den": 84, "num": 149}, "duration": 12.145010948181152, "file_size": "1493342", "fps": {"den": 1001, "num": 30000}, "has_audio": true, "has_single_image": false, "has_video": true, "height": 336, "interlaced_frame": false, "path": "video assets/1027882982-preview.mp4", "pixel_format": 0, "pixel_ratio": {"den": 1, "num": 1}, "sample_rate": 44100, "top_field_first": true, "type": "FFmpegReader", "vcodec": "h264", "video_bit_rate": 981735, "video_length": "360", "video_stream_index": 0, "video_timebase": {"den": 30000, "num": 1}, "width": 596, "media_type": "video", "id": "XWL57LA791"}, {"acodec": "", "audio_bit_rate": 0, "audio_stream_index": -1, "audio_timebase": {"den": 1, "num": 1}, "channel_layout": 4, "channels": 0, "display_ratio": {"den": 84, "num": 149}, "duration": 16.280000686645508, "file_size": "2234883", "fps": {"den": 1, "num": 25}, "has_audio": false, "has_single_image": false, "has_video": true, "height": 336, "interlaced_frame": false, "path": "video assets/1028153921-preview.mp4", "pixel_format": 0, "pixel_ratio": {"den": 1, "num": 1}, "sample_rate": 0, "top_field_first": true, "type": "FFmpegReader", "vcodec": "h264", "video_bit_rate": 1098222, "video_length": "407", "video_stream_index": 0, "video_timebase": {"den": 12800, "num": 1}, "width": 596, "media_type": "video", "id": "SA7BPKZ4IK"}, {"acodec": "", "audio_bit_rate": 0, "audio_stream_index": -1, "audio_timebase": {"den": 1, "num": 1}, "channel_layout": 4, "channels": 0, "display_ratio": {"den": 84, "num": 149}, "duration": 23.39900016784668, "file_size": "2614845", "fps": {"den": 1001, "num": 24000}, "has_audio": false, "has_single_image": false, "has_video": true, "height": 336, "interlaced_frame": false, "path": "video assets/1028477030-preview.mp4", "pixel_format": 0, "pixel_ratio": {"den": 1, "num": 1}, "sample_rate": 0, "top_field_first": true, "type": "FFmpegReader", "vcodec": "h264", "video_bit_rate": 894002, "video_length": "561", "video_stream_index": 0, "video_timebase": {"den": 24000, "num": 1}, "width": 596, "media_type": "video", "id": "SLPZBORB0C"}, {"acodec": "", "audio_bit_rate": 0, "audio_stream_index": -1, "audio_timebase": {"den": 1, "num": 1}, "channel_layout": 4, "channels": 0, "display_ratio": {"den": 84, "num": 149}, "duration": 15, "file_size": "1802531", "fps": {"den": 1, "num": 30}, "has_audio": false, "has_single_image": false, "has_video": true, "height": 336, "interlaced_frame": false, "path": "video assets/1028934152-preview.mp4", "pixel_format": 0, "pixel_ratio": {"den": 1, "num": 1}, "sample_rate": 0, "top_field_first": true, "type": "FFmpegReader", "vcodec": "h264", "video_bit_rate": 961349, "video_length": "450", "video_stream_index": 0, "video_timebase": {"den": 15360, "num": 1}, "width": 596, "media_type": "video", "id": "60L2HY5M6S"}, {"acodec": "", "audio_bit_rate": 0, "audio_stream_index": -1, "audio_timebase": {"den": 1, "num": 1}, "channel_layout": 4, "channels": 0, "display_ratio": {"den": 84, "num": 149}, "duration": 19.366992950439453, "file_size": "1210742", "fps": {"den": 1, "num": 30}, "has_audio": false, "has_single_image": false, "has_video": true, "height": 336, "interlaced_frame": false, "path": "video assets/1031348399-preview.mp4", "pixel_format": 0, "pixel_ratio": {"den": 1, "num": 1}, "sample_rate": 0, "top_field_first": true, "type": "FFmpegReader", "vcodec": "h264", "video_bit_rate": 500125, "video_length": "581", "video_stream_index": 0, "video_timebase": {"den": 15360, "num": 1}, "width": 596, "media_type": "video", "id": "5695A74IRT"}, {"acodec": "", "audio_bit_rate": 0, "audio_stream_index": -1, "audio_timebase": {"den": 1, "num": 1}, "channel_layout": 4, "channels": 0, "display_ratio": {"den": 84, "num": 149}, "duration": 35.583984375, "file_size": "4040931", "fps": {"den": 1, "num": 24}, "has_audio": false, "has_single_image": false, "has_video": true, "height": 336, "interlaced_frame": false, "path": "video assets/1033434362-preview.mp4", "pixel_format": 0, "pixel_ratio": {"den": 1, "num": 1}, "sample_rate": 0, "top_field_first": true, "type": "FFmpegReader", "vcodec": "h264", "video_bit_rate": 908482, "video_length": "854", "video_stream_index": 0, "video_timebase": {"den": 12288, "num": 1}, "width": 596, "media_type": "video", "id": "O1B5S1FAAK"}, {"acodec": "", "audio_bit_rate": 0, "audio_stream_index": -1, "audio_timebase": {"den": 1, "num": 1}, "channel_layout": 4, "channels": 0, "display_ratio": {"den": 79, "num": 150}, "duration": 8.479999542236328, "file_size": "989933", "fps": {"den": 1, "num": 25}, "has_audio": false, "has_single_image": false, "has_video": true, "height": 316, "interlaced_frame": false, "path": "video assets/1034434721-preview.mp4", "pixel_format": 0, "pixel_ratio": {"den": 1, "num": 1}, "sample_rate": 0, "top_field_first": true, "type": "FFmpegReader", "vcodec": "h264", "video_bit_rate": 933899, "video_length": "212", "video_stream_index": 0, "video_timebase": {"den": 12800, "num": 1}, "width": 600, "media_type": "video", "id": "E15A7825UX"}, {"acodec": "", "audio_bit_rate": 0, "audio_stream_index": -1, "audio_timebase": {"den": 1, "num": 1}, "channel_layout": 4, "channels": 0, "display_ratio": {"den": 79, "num": 150}, "duration": 14, "file_size": "1548688", "fps": {"den": 1, "num": 30}, "has_audio": false, "has_single_image": false, "has_video": true, "height": 316, "interlaced_frame": false, "path": "video assets/1034566781-preview.mp4", "pixel_format": 0, "pixel_ratio": {"den": 1, "num": 1}, "sample_rate": 0, "top_field_first": true, "type": "FFmpegReader", "vcodec": "h264", "video_bit_rate": 884964, "video_length": "420", "video_stream_index": 0, "video_timebase": {"den": 15360, "num": 1}, "width": 600, "media_type": "video", "id": "4SPGIYR94H"}, {"acodec": "", "audio_bit_rate": 0, "audio_stream_index": -1, "audio_timebase": {"den": 1, "num": 1}, "channel_layout": 4, "channels": 0, "display_ratio": {"den": 79, "num": 150}, "duration": 14, "file_size": "1548688", "fps": {"den": 1, "num": 30}, "has_audio": false, "has_single_image": false, "has_video": true, "height": 316, "interlaced_frame": false, "path": "video assets/1034566781-preview(1).mp4", "pixel_format": 0, "pixel_ratio": {"den": 1, "num": 1}, "sample_rate": 0, "top_field_first": true, "type": "FFmpegReader", "vcodec": "h264", "video_bit_rate": 884964, "video_length": "420", "video_stream_index": 0, "video_timebase": {"den": 15360, "num": 1}, "width": 600, "media_type": "video", "id": "G8W3M465Z2"}, {"acodec": "", "audio_bit_rate": 0, "audio_stream_index": -1, "audio_timebase": {"den": 1, "num": 1}, "channel_layout": 4, "channels": 0, "display_ratio": {"den": 84, "num": 149}, "duration": 12.479999542236328, "file_size": "1377383", "fps": {"den": 1, "num": 25}, "has_audio": false, "has_single_image": false, "has_video": true, "height": 336, "interlaced_frame": false, "path": "video assets/1035271574-preview.mp4", "pixel_format": 0, "pixel_ratio": {"den": 1, "num": 1}, "sample_rate": 0, "top_field_first": true, "type": "FFmpegReader", "vcodec": "h264", "video_bit_rate": 882937, "video_length": "312", "video_stream_index": 0, "video_timebase": {"den": 12800, "num": 1}, "width": 596, "media_type": "video", "id": "D9LWSONSN7"}, {"acodec": "", "audio_bit_rate": 0, "audio_stream_index": -1, "audio_timebase": {"den": 1, "num": 1}, "channel_layout": 4, "channels": 0, "display_ratio": {"den": 84, "num": 149}, "duration": 9.876999855041504, "file_size": "1089677", "fps": {"den": 1001, "num": 30000}, "has_audio": false, "has_single_image": false, "has_video": true, "height": 336, "interlaced_frame": false, "path": "video assets/1035604484-preview.mp4", "pixel_format": 0, "pixel_ratio": {"den": 1, "num": 1}, "sample_rate": 0, "top_field_first": true, "type": "FFmpegReader", "vcodec": "h264", "video_bit_rate": 882597, "video_length": "296", "video_stream_index": 0, "video_timebase": {"den": 30000, "num": 1}, "width": 596, "media_type": "video", "id": "FC9NLBSBPT"}, {"acodec": "", "audio_bit_rate": 0, "audio_stream_index": -1, "audio_timebase": {"den": 1, "num": 1}, "channel_layout": 4, "channels": 0, "display_ratio": {"den": 79, "num": 150}, "duration": 18.68600082397461, "file_size": "1391693", "fps": {"den": 1001, "num": 24000}, "has_audio": false, "has_single_image": false, "has_video": true, "height": 316, "interlaced_frame": false, "path": "video assets/1036322543-preview.mp4", "pixel_format": 0, "pixel_ratio": {"den": 1, "num": 1}, "sample_rate": 0, "top_field_first": true, "type": "FFmpegReader", "vcodec": "h264", "video_bit_rate": 595822, "video_length": "448", "video_stream_index": 0, "video_timebase": {"den": 24000, "num": 1}, "width": 600, "media_type": "video", "id": "3371VX0R9A"}, {"acodec": "", "audio_bit_rate": 0, "audio_stream_index": -1, "audio_timebase": {"den": 1, "num": 1}, "channel_layout": 4, "channels": 0, "display_ratio": {"den": 84, "num": 149}, "duration": 6.760000228881836, "file_size": "286173", "fps": {"den": 1, "num": 25}, "has_audio": false, "has_single_image": false, "has_video": true, "height": 336, "interlaced_frame": false, "path": "video assets/1036992635-preview.mp4", "pixel_format": 0, "pixel_ratio": {"den": 1, "num": 1}, "sample_rate": 0, "top_field_first": true, "type": "FFmpegReader", "vcodec": "h264", "video_bit_rate": 338666, "video_length": "169", "video_stream_index": 0, "video_timebase": {"den": 12800, "num": 1}, "width": 596, "media_type": "video", "id": "7RHPWGPYIR"}, {"acodec": "", "audio_bit_rate": 0, "audio_stream_index": -1, "audio_timebase": {"den": 1, "num": 1}, "channel_layout": 4, "channels": 0, "display_ratio": {"den": 79, "num": 150}, "duration": 14.807000160217285, "file_size": "1666944", "fps": {"den": 1001, "num": 24000}, "has_audio": false, "has_single_image": false, "has_video": true, "height": 316, "interlaced_frame": false, "path": "video assets/1037066192-preview.mp4", "pixel_format": 0, "pixel_ratio": {"den": 1, "num": 1}, "sample_rate": 0, "top_field_first": true, "type": "FFmpegReader", "vcodec": "h264", "video_bit_rate": 900624, "video_length": "355", "video_stream_index": 0, "video_timebase": {"den": 24000, "num": 1}, "width": 600, "media_type": "video", "id": "8PTZDQOQP0"}, {"acodec": "", "audio_bit_rate": 0, "audio_stream_index": -1, "audio_timebase": {"den": 1, "num": 1}, "channel_layout": 4, "channels": 0, "display_ratio": {"den": 79, "num": 150}, "duration": 18.01799964904785, "file_size": "1891066", "fps": {"den": 1001, "num": 24000}, "has_audio": false, "has_single_image": false, "has_video": true, "height": 316, "interlaced_frame": false, "path": "video assets/1037301098-preview.mp4", "pixel_format": 0, "pixel_ratio": {"den": 1, "num": 1}, "sample_rate": 0, "top_field_first": true, "type": "FFmpegReader", "vcodec": "h264", "video_bit_rate": 839634, "video_length": "432", "video_stream_index": 0, "video_timebase": {"den": 24000, "num": 1}, "width": 600, "media_type": "video", "id": "91G9I2DA4B"}, {"acodec": "", "audio_bit_rate": 0, "audio_stream_index": -1, "audio_timebase": {"den": 1, "num": 1}, "channel_layout": 4, "channels": 0, "display_ratio": {"den": 84, "num": 149}, "duration": 8.942999839782715, "file_size": "500156", "fps": {"den": 1001, "num": 30000}, "has_audio": false, "has_single_image": false, "has_video": true, "height": 336, "interlaced_frame": false, "path": "video assets/1037685125-preview.mp4", "pixel_format": 0, "pixel_ratio": {"den": 1, "num": 1}, "sample_rate": 0, "top_field_first": true, "type": "FFmpegReader", "vcodec": "h264", "video_bit_rate": 447416, "video_length": "268", "video_stream_index": 0, "video_timebase": {"den": 30000, "num": 1}, "width": 596, "media_type": "video", "id": "LG1NPUCC77"}, {"acodec": "", "audio_bit_rate": 0, "audio_stream_index": -1, "audio_timebase": {"den": 1, "num": 1}, "channel_layout": 4, "channels": 0, "display_ratio": {"den": 84, "num": 149}, "duration": 16.75, "file_size": "726021", "fps": {"den": 1, "num": 24}, "has_audio": false, "has_single_image": false, "has_video": true, "height": 336, "interlaced_frame": false, "path": "video assets/1038544145-preview.mp4", "pixel_format": 0, "pixel_ratio": {"den": 1, "num": 1}, "sample_rate": 0, "top_field_first": true, "type": "FFmpegReader", "vcodec": "h264", "video_bit_rate": 346756, "video_length": "402", "video_stream_index": 0, "video_timebase": {"den": 12288, "num": 1}, "width": 596, "media_type": "video", "id": "ODV1FPO0X2"}, {"acodec": "", "audio_bit_rate": 0, "audio_stream_index": -1, "audio_timebase": {"den": 1, "num": 1}, "channel_layout": 4, "channels": 0, "display_ratio": {"den": 84, "num": 149}, "duration": 16.75, "file_size": "726021", "fps": {"den": 1, "num": 24}, "has_audio": false, "has_single_image": false, "has_video": true, "height": 336, "interlaced_frame": false, "path": "video assets/1038544145-preview(1).mp4", "pixel_format": 0, "pixel_ratio": {"den": 1, "num": 1}, "sample_rate": 0, "top_field_first": true, "type": "FFmpegReader", "vcodec": "h264", "video_bit_rate": 346756, "video_length": "402", "video_stream_index": 0, "video_timebase": {"den": 12288, "num": 1}, "width": 596, "media_type": "video", "id": "L4IRBG3SAW"}, {"acodec": "", "audio_bit_rate": 0, "audio_stream_index": -1, "audio_timebase": {"den": 1, "num": 1}, "channel_layout": 4, "channels": 0, "display_ratio": {"den": 84, "num": 149}, "duration": 9.376999855041504, "file_size": "999115", "fps": {"den": 1001, "num": 30000}, "has_audio": false, "has_single_image": false, "has_video": true, "height": 336, "interlaced_frame": false, "path": "video assets/1040051333-preview.mp4", "pixel_format": 0, "pixel_ratio": {"den": 1, "num": 1}, "sample_rate": 0, "top_field_first": true, "type": "FFmpegReader", "vcodec": "h264", "video_bit_rate": 852396, "video_length": "281", "video_stream_index": 0, "video_timebase": {"den": 30000, "num": 1}, "width": 596, "media_type": "video", "id": "GRPF5ZYUU6"}, {"acodec": "", "audio_bit_rate": 0, "audio_stream_index": -1, "audio_timebase": {"den": 1, "num": 1}, "channel_layout": 4, "channels": 0, "display_ratio": {"den": 84, "num": 149}, "duration": 29.933984756469727, "file_size": "2385224", "fps": {"den": 1, "num": 30}, "has_audio": false, "has_single_image": false, "has_video": true, "height": 336, "interlaced_frame": false, "path": "video assets/1042189108-preview.mp4", "pixel_format": 0, "pixel_ratio": {"den": 1, "num": 1}, "sample_rate": 0, "top_field_first": true, "type": "FFmpegReader", "vcodec": "h264", "video_bit_rate": 637462, "video_length": "898", "video_stream_index": 0, "video_timebase": {"den": 15360, "num": 1}, "width": 596, "media_type": "video", "id": "B8ELRMI8NN"}, {"acodec": "", "audio_bit_rate": 0, "audio_stream_index": -1, "audio_timebase": {"den": 1, "num": 1}, "channel_layout": 4, "channels": 0, "display_ratio": {"den": 84, "num": 149}, "duration": 22.760000228881836, "file_size": "839329", "fps": {"den": 1, "num": 25}, "has_audio": false, "has_single_image": false, "has_video": true, "height": 336, "interlaced_frame": false, "path": "video assets/1042776160-preview.mp4", "pixel_format": 0, "pixel_ratio": {"den": 1, "num": 1}, "sample_rate": 0, "top_field_first": true, "type": "FFmpegReader", "vcodec": "h264", "video_bit_rate": 295018, "video_length": "569", "video_stream_index": 0, "video_timebase": {"den": 12800, "num": 1}, "width": 596, "media_type": "video", "id": "SJQTW5J2TE"}, {"acodec": "aac", "audio_bit_rate": 128442, "audio_stream_index": 1, "audio_timebase": {"den": 44100, "num": 1}, "channel_layout": 3, "channels": 2, "display_ratio": {"den": 84, "num": 149}, "duration": 17, "file_size": "1082198", "fps": {"den": 1, "num": 24}, "has_audio": true, "has_single_image": false, "has_video": true, "height": 336, "interlaced_frame": false, "path": "video assets/1044123580-preview.mp4", "pixel_format": 0, "pixel_ratio": {"den": 1, "num": 1}, "sample_rate": 44100, "top_field_first": true, "type": "FFmpegReader", "vcodec": "h264", "video_bit_rate": 507865, "video_length": "408", "video_stream_index": 0, "video_timebase": {"den": 12288, "num": 1}, "width": 596, "media_type": "video", "id": "73OC331NN1"}, {"acodec": "aac", "audio_bit_rate": 128340, "audio_stream_index": 1, "audio_timebase": {"den": 44100, "num": 1}, "channel_layout": 3, "channels": 2, "display_ratio": {"den": 84, "num": 149}, "duration": 46.70000076293945, "file_size": "6092940", "fps": {"den": 1, "num": 30}, "has_audio": true, "has_single_image": false, "has_video": true, "height": 336, "interlaced_frame": false, "path": "video assets/1045470025-preview.mp4", "pixel_format": 0, "pixel_ratio": {"den": 1, "num": 1}, "sample_rate": 44100, "top_field_first": true, "type": "FFmpegReader", "vcodec": "h264", "video_bit_rate": 1042709, "video_length": "1401", "video_stream_index": 0, "video_timebase": {"den": 15360, "num": 1}, "width": 596, "media_type": "video", "id": "M0H2IT5DMM"}, {"acodec": "", "audio_bit_rate": 0, "audio_stream_index": -1, "audio_timebase": {"den": 1, "num": 1}, "channel_layout": 4, "channels": 0, "display_ratio": {"den": 84, "num": 149}, "duration": 7, "file_size": "605172", "fps": {"den": 1, "num": 25}, "has_audio": false, "has_single_image": false, "has_video": true, "height": 336, "interlaced_frame": false, "path": "video assets/1046167390-preview.mp4", "pixel_format": 0, "pixel_ratio": {"den": 1, "num": 1}, "sample_rate": 0, "top_field_first": true, "type": "FFmpegReader", "vcodec": "h264", "video_bit_rate": 691625, "video_length": "175", "video_stream_index": 0, "video_timebase": {"den": 12800, "num": 1}, "width": 596, "media_type": "video", "id": "MJQYSRKC8R"}, {"acodec": "", "audio_bit_rate": 0, "audio_stream_index": -1, "audio_timebase": {"den": 1, "num": 1}, "channel_layout": 4, "channels": 0, "display_ratio": {"den": 84, "num": 149}, "duration": 23.333984375, "file_size": "1912523", "fps": {"den": 1, "num": 30}, "has_audio": false, "has_single_image": false, "has_video": true, "height": 336, "interlaced_frame": false, "path": "video assets/1046669254-preview.mp4", "pixel_format": 0, "pixel_ratio": {"den": 1, "num": 1}, "sample_rate": 0, "top_field_first": true, "type": "FFmpegReader", "vcodec": "h264", "video_bit_rate": 655703, "video_length": "700", "video_stream_index": 0, "video_timebase": {"den": 15360, "num": 1}, "width": 596, "media_type": "video", "id": "2WNGMYMMB6"}, {"acodec": "", "audio_bit_rate": 0, "audio_stream_index": -1, "audio_timebase": {"den": 1, "num": 1}, "channel_layout": 4, "channels": 0, "display_ratio": {"den": 84, "num": 149}, "duration": 15.015000343322754, "file_size": "1230915", "fps": {"den": 1001, "num": 24000}, "has_audio": false, "has_single_image": false, "has_video": true, "height": 336, "interlaced_frame": false, "path": "video assets/1047425263-preview.mp4", "pixel_format": 0, "pixel_ratio": {"den": 1, "num": 1}, "sample_rate": 0, "top_field_first": true, "type": "FFmpegReader", "vcodec": "h264", "video_bit_rate": 655832, "video_length": "360", "video_stream_index": 0, "video_timebase": {"den": 24000, "num": 1}, "width": 596, "media_type": "video", "id": "B97GWU5TU5"}, {"acodec": "", "audio_bit_rate": 0, "audio_stream_index": -1, "audio_timebase": {"den": 1, "num": 1}, "channel_layout": 4, "channels": 0, "display_ratio": {"den": 84, "num": 149}, "duration": 23.333984375, "file_size": "2568585", "fps": {"den": 1, "num": 30}, "has_audio": false, "has_single_image": false, "has_video": true, "height": 336, "interlaced_frame": false, "path": "video assets/1049558392-preview.mp4", "pixel_format": 0, "pixel_ratio": {"den": 1, "num": 1}, "sample_rate": 0, "top_field_first": true, "type": "FFmpegReader", "vcodec": "h264", "video_bit_rate": 880632, "video_length": "700", "video_stream_index": 0, "video_timebase": {"den": 15360, "num": 1}, "width": 596, "media_type": "video", "id": "VENOL2QI0D"}, {"acodec": "", "audio_bit_rate": 0, "audio_stream_index": -1, "audio_timebase": {"den": 1, "num": 1}, "channel_layout": 4, "channels": 0, "display_ratio": {"den": 84, "num": 149}, "duration": 15.725000381469727, "file_size": "1743909", "fps": {"den": 1001, "num": 24000}, "has_audio": false, "has_single_image": false, "has_video": true, "height": 336, "interlaced_frame": false, "path": "video assets/1051994641-preview.mp4", "pixel_format": 0, "pixel_ratio": {"den": 1, "num": 1}, "sample_rate": 0, "top_field_first": true, "type": "FFmpegReader", "vcodec": "h264", "video_bit_rate": 887203, "video_length": "377", "video_stream_index": 0, "video_timebase": {"den": 24000, "num": 1}, "width": 596, "media_type": "video", "id": "SRBZ92P9IQ"}, {"acodec": "", "audio_bit_rate": 0, "audio_stream_index": -1, "audio_timebase": {"den": 1, "num": 1}, "channel_layout": 4, "channels": 0, "display_ratio": {"den": 84, "num": 149}, "duration": 12.279999732971191, "file_size": "1168686", "fps": {"den": 1, "num": 50}, "has_audio": false, "has_single_image": false, "has_video": true, "height": 336, "interlaced_frame": false, "path": "video assets/1053397550-preview.mp4", "pixel_format": 0, "pixel_ratio": {"den": 1, "num": 1}, "sample_rate": 0, "top_field_first": true, "type": "FFmpegReader", "vcodec": "h264", "video_bit_rate": 761358, "video_length": "614", "video_stream_index": 0, "video_timebase": {"den": 12800, "num": 1}, "width": 596, "media_type": "video", "id": "1I8C58GEZU"}, {"acodec": "", "audio_bit_rate": 0, "audio_stream_index": -1, "audio_timebase": {"den": 1, "num": 1}, "channel_layout": 4, "channels": 0, "display_ratio": {"den": 84, "num": 149}, "duration": 27.795000076293945, "file_size": "3105168", "fps": {"den": 1001, "num": 30000}, "has_audio": false, "has_single_image": false, "has_video": true, "height": 336, "interlaced_frame": false, "path": "video assets/1053418412-preview.mp4", "pixel_format": 0, "pixel_ratio": {"den": 1, "num": 1}, "sample_rate": 0, "top_field_first": true, "type": "FFmpegReader", "vcodec": "h264", "video_bit_rate": 893734, "video_length": "833", "video_stream_index": 0, "video_timebase": {"den": 30000, "num": 1}, "width": 596, "media_type": "video", "id": "TJIR5I5EWI"}, {"acodec": "", "audio_bit_rate": 0, "audio_stream_index": -1, "audio_timebase": {"den": 1, "num": 1}, "channel_layout": 4, "channels": 0, "display_ratio": {"den": 84, "num": 149}, "duration": 10.039999961853027, "file_size": "1131232", "fps": {"den": 1, "num": 25}, "has_audio": false, "has_single_image": false, "has_video": true, "height": 336, "interlaced_frame": false, "path": "video assets/1053523496-preview.mp4", "pixel_format": 0, "pixel_ratio": {"den": 1, "num": 1}, "sample_rate": 0, "top_field_first": true, "type": "FFmpegReader", "vcodec": "h264", "video_bit_rate": 901380, "video_length": "251", "video_stream_index": 0, "video_timebase": {"den": 12800, "num": 1}, "width": 596, "media_type": "video", "id": "JA89XAYY7G"}, {"acodec": "aac", "audio_bit_rate": 128321, "audio_stream_index": 1, "audio_timebase": {"den": 44100, "num": 1}, "channel_layout": 3, "channels": 2, "display_ratio": {"den": 84, "num": 149}, "duration": 13, "file_size": "1223144", "fps": {"den": 1, "num": 25}, "has_audio": true, "has_single_image": false, "has_video": true, "height": 336, "interlaced_frame": false, "path": "video assets/1053783902-preview.mp4", "pixel_format": 0, "pixel_ratio": {"den": 1, "num": 1}, "sample_rate": 44100, "top_field_first": true, "type": "FFmpegReader", "vcodec": "h264", "video_bit_rate": 749992, "video_length": "325", "video_stream_index": 0, "video_timebase": {"den": 12800, "num": 1}, "width": 596, "media_type": "video", "id": "49AUONUONS"}, {"acodec": "", "audio_bit_rate": 0, "audio_stream_index": -1, "audio_timebase": {"den": 1, "num": 1}, "channel_layout": 4, "channels": 0, "display_ratio": {"den": 84, "num": 149}, "duration": 17.5, "file_size": "1892524", "fps": {"den": 1, "num": 24}, "has_audio": false, "has_single_image": false, "has_video": true, "height": 336, "interlaced_frame": false, "path": "video assets/1053992147-preview.mp4", "pixel_format": 0, "pixel_ratio": {"den": 1, "num": 1}, "sample_rate": 0, "top_field_first": true, "type": "FFmpegReader", "vcodec": "h264", "video_bit_rate": 865153, "video_length": "420", "video_stream_index": 0, "video_timebase": {"den": 12288, "num": 1}, "width": 596, "media_type": "video", "id": "TW4VF0HFWK"}, {"acodec": "", "audio_bit_rate": 0, "audio_stream_index": -1, "audio_timebase": {"den": 1, "num": 1}, "channel_layout": 4, "channels": 0, "display_ratio": {"den": 84, "num": 149}, "duration": 12.5, "file_size": "1374542", "fps": {"den": 1, "num": 24}, "has_audio": false, "has_single_image": false, "has_video": true, "height": 336, "interlaced_frame": false, "path": "video assets/1054044599-preview.mp4", "pixel_format": 0, "pixel_ratio": {"den": 1, "num": 1}, "sample_rate": 0, "top_field_first": true, "type": "FFmpegReader", "vcodec": "h264", "video_bit_rate": 879706, "video_length": "300", "video_stream_index": 0, "video_timebase": {"den": 12288, "num": 1}, "width": 596, "media_type": "video", "id": "9Y73RSC2B4"}, {"acodec": "", "audio_bit_rate": 0, "audio_stream_index": -1, "audio_timebase": {"den": 1, "num": 1}, "channel_layout": 4, "channels": 0, "display_ratio": {"den": 84, "num": 149}, "duration": 10.611000061035156, "file_size": "586271", "fps": {"den": 1001, "num": 30000}, "has_audio": false, "has_single_image": false, "has_video": true, "height": 336, "interlaced_frame": false, "path": "video assets/1054197287-preview.mp4", "pixel_format": 0, "pixel_ratio": {"den": 1, "num": 1}, "sample_rate": 0, "top_field_first": true, "type": "FFmpegReader", "vcodec": "h264", "video_bit_rate": 442009, "video_length": "318", "video_stream_index": 0, "video_timebase": {"den": 30000, "num": 1}, "width": 596, "media_type": "video", "id": "6FGGJZTXDO"}, {"acodec": "", "audio_bit_rate": 0, "audio_stream_index": -1, "audio_timebase": {"den": 1, "num": 1}, "channel_layout": 4, "channels": 0, "display_ratio": {"den": 84, "num": 149}, "duration": 11.345000267028809, "file_size": "585096", "fps": {"den": 1001, "num": 30000}, "has_audio": false, "has_single_image": false, "has_video": true, "height": 336, "interlaced_frame": false, "path": "video assets/1054197290-preview.mp4", "pixel_format": 0, "pixel_ratio": {"den": 1, "num": 1}, "sample_rate": 0, "top_field_first": true, "type": "FFmpegReader", "vcodec": "h264", "video_bit_rate": 412584, "video_length": "340", "video_stream_index": 0, "video_timebase": {"den": 30000, "num": 1}, "width": 596, "media_type": "video", "id": "NSJHHWMT9I"}, {"acodec": "", "audio_bit_rate": 0, "audio_stream_index": -1, "audio_timebase": {"den": 1, "num": 1}, "channel_layout": 4, "channels": 0, "display_ratio": {"den": 79, "num": 96}, "duration": 86400, "file_size": "758400", "fps": {"den": 1, "num": 30}, "has_audio": false, "has_single_image": true, "has_video": true, "height": 395, "interlaced_frame": false, "path": "video assets/CG06.gif", "pixel_format": -1, "pixel_ratio": {"den": 1, "num": 1}, "sample_rate": 0, "top_field_first": true, "type": "QtImageReader", "vcodec": "", "video_bit_rate": 0, "video_length": "2592000", "video_stream_index": -1, "video_timebase": {"den": 30, "num": 1}, "width": 480, "media_type": "image", "id": "T98F47KQJ3"}, {"acodec": "", "audio_bit_rate": 0, "audio_stream_index": -1, "audio_timebase": {"den": 1, "num": 1}, "channel_layout": 4, "channels": 0, "display_ratio": {"den": 9, "num": 16}, "duration": 12.033984184265137, "file_size": "1357980", "fps": {"den": 1, "num": 30}, "has_audio": false, "has_single_image": false, "has_video": true, "height": 1080, "interlaced_frame": false, "path": "video assets/Health - 18687.mp4", "pixel_format": 0, "pixel_ratio": {"den": 1, "num": 1}, "sample_rate": 0, "top_field_first": true, "type": "FFmpegReader", "vcodec": "h264", "video_bit_rate": 902762, "video_length": "361", "video_stream_index": 0, "video_timebase": {"den": 15360, "num": 1}, "width": 1920, "media_type": "video", "id": "C6PVWY7M1M"}, {"acodec": "", "audio_bit_rate": 0, "audio_stream_index": -1, "audio_timebase": {"den": 1, "num": 1}, "channel_layout": 4, "channels": 0, "display_ratio": {"den": 9, "num": 16}, "duration": 15.066991806030273, "file_size": "5622748", "fps": {"den": 1, "num": 30}, "has_audio": false, "has_single_image": false, "has_video": true, "height": 1080, "interlaced_frame": false, "path": "video assets/Training - 30417.mp4", "pixel_format": 0, "pixel_ratio": {"den": 1, "num": 1}, "sample_rate": 0, "top_field_first": true, "type": "FFmpegReader", "vcodec": "h264", "video_bit_rate": 2985463, "video_length": "452", "video_stream_index": 0, "video_timebase": {"den": 15360, "num": 1}, "width": 1920, "media_type": "video", "id": "HK4I9P85GF"}, {"acodec": "", "audio_bit_rate": 0, "audio_stream_index": -1, "audio_timebase": {"den": 1, "num": 1}, "channel_layout": 4, "channels": 0, "display_ratio": {"den": 79, "num": 124}, "duration": -1, "file_size": "40466", "fps": {"den": 1, "num": 24}, "has_audio": false, "has_single_image": false, "has_video": true, "height": 316, "interlaced_frame": false, "path": "video assets/file-20190723-110195-dj127n.jpg", "pixel_format": 0, "pixel_ratio": {"den": 1, "num": 1}, "sample_rate": 0, "top_field_first": true, "type": "FFmpegReader", "vcodec": "webp", "video_bit_rate": 0, "video_length": "-24", "video_stream_index": 0, "video_timebase": {"den": 24, "num": 1}, "width": 496, "media_type": "image", "id": "G33ZVB9ITZ"}, {"acodec": "", "audio_bit_rate": 0, "audio_stream_index": -1, "audio_timebase": {"den": 1, "num": 1}, "channel_layout": 4, "channels": 0, "display_ratio": {"den": 9, "num": 16}, "duration": 9.920000076293945, "file_size": "1950637", "fps": {"den": 1, "num": 25}, "has_audio": false, "has_single_image": false, "has_video": true, "height": 360, "interlaced_frame": false, "path": "video assets/istockphoto-541088960-640_adpp_is.mp4", "pixel_format": 0, "pixel_ratio": {"den": 1, "num": 1}, "sample_rate": 0, "top_field_first": true, "type": "FFmpegReader", "vcodec": "h264", "video_bit_rate": 1573094, "video_length": "248", "video_stream_index": 0, "video_timebase": {"den": 25000, "num": 1}, "width": 640, "media_type": "video", "id": "7RTHRR68QT"}, {"acodec": "", "audio_bit_rate": 0, "audio_stream_index": -1, "audio_timebase": {"den": 1, "num": 1}, "channel_layout": 4, "channels": 0, "display_ratio": {"den": 9, "num": 16}, "duration": 10.680000305175781, "file_size": "841784", "fps": {"den": 1, "num": 25}, "has_audio": false, "has_single_image": false, "has_video": true, "height": 360, "interlaced_frame": false, "path": "video assets/istockphoto-1165266246-640_adpp_is.mp4", "pixel_format": 0, "pixel_ratio": {"den": 1, "num": 1}, "sample_rate": 0, "top_field_first": true, "type": "FFmpegReader", "vcodec": "h264", "video_bit_rate": 630549, "video_length": "267", "video_stream_index": 0, "video_timebase": {"den": 12800, "num": 1}, "width": 640, "media_type": "video", "id": "TKNIYVDKGW"}, {"acodec": "", "audio_bit_rate": 0, "audio_stream_index": -1, "audio_timebase": {"den": 1, "num": 1}, "channel_layout": 4, "channels": 0, "display_ratio": {"den": 136, "num": 249}, "duration": 86400, "file_size": "541824", "fps": {"den": 1, "num": 30}, "has_audio": false, "has_single_image": true, "has_video": true, "height": 272, "interlaced_frame": false, "path": "video assets/tenor.gif", "pixel_format": -1, "pixel_ratio": {"den": 1, "num": 1}, "sample_rate": 0, "top_field_first": true, "type": "QtImageReader", "vcodec": "", "video_bit_rate": 0, "video_length": "2592000", "video_stream_index": -1, "video_timebase": {"den": 30, "num": 1}, "width": 498, "media_type": "image", "id": "AWM14EHUOO"}, {"acodec": "", "audio_bit_rate": 0, "audio_stream_index": -1, "audio_timebase": {"den": 1, "num": 1}, "channel_layout": 4, "channels": 0, "display_ratio": {"den": 275, "num": 499}, "duration": 86400, "file_size": "2195600", "fps": {"den": 1, "num": 30}, "has_audio": false, "has_single_image": true, "has_video": true, "height": 550, "interlaced_frame": false, "path": "video assets/wrong stamp.png", "pixel_format": -1, "pixel_ratio": {"den": 1, "num": 1}, "sample_rate": 0, "top_field_first": true, "type": "QtImageReader", "vcodec": "", "video_bit_rate": 0, "video_length": "2592000", "video_stream_index": -1, "video_timebase": {"den": 30, "num": 1}, "width": 998, "media_type": "image", "id": "0VXG5ZD080"}, {"acodec": "aac", "audio_bit_rate": 2276, "audio_stream_index": 1, "audio_timebase": {"den": 48000, "num": 1}, "channel_layout": 3, "channels": 2, "display_ratio": {"den": 1, "num": 1}, "duration": 193.77000427246094, "file_size": "1370812", "fps": {"den": 775, "num": 18604}, "has_audio": true, "has_single_image": false, "has_video": true, "height": 1000, "interlaced_frame": false, "path": "heartbeat 3 minutes/heartbeat 3 minutes.mp4", "pixel_format": 0, "pixel_ratio": {"den": 1, "num": 1}, "sample_rate": 48000, "top_field_first": true, "type": "FFmpegReader", "vcodec": "h264", "video_bit_rate": 56589, "video_length": "4651", "video_stream_index": 0, "video_timebase": {"den": 12288, "num": 1}, "width": 1000, "media_type": "video", "id": "0JN8WFX709"}], "height": 720, "progress": [], "sample_rate": 44100, "playhead_position": 0, "channels": 2, "settings": {}, "import_path": "", "markers": [], "fps": {"num": 24, "den": 1}, "effects": [], "profile": "HDV 720 24p", "width": 1280, "display_ratio": {"num": 16, "den": 9}, "export_path": "", "id": "URUWF0VCHZ", "tick_pixels": 100, "clips": [{"alpha": {"Points": [{"co": {"X": 1, "Y": 1}, "interpolation": 2}]}, "anchor": 0, "channel_filter": {"Points": [{"co": {"X": 1, "Y": -1}, "interpolation": 2}]}, "channel_mapping": {"Points": [{"co": {"X": 1, "Y": -1}, "interpolation": 2}]}, "crop_height": {"Points": [{"co": {"X": 1, "Y": -1}, "interpolation": 2}]}, "crop_width": {"Points": [{"co": {"X": 1, "Y": -1}, "interpolation": 2}]}, "crop_x": {"Points": [{"co": {"X": 1, "Y": 0}, "interpolation": 2}]}, "crop_y": {"Points": [{"co": {"X": 1, "Y": 0}, "interpolation": 2}]}, "display": 0, "duration": 86400.0, "effects": [], "end": 22.959999999999994, "gravity": 4, "has_audio": {"Points": [{"co": {"X": 1, "Y": -1}, "interpolation": 2}]}, "has_video": {"Points": [{"co": {"X": 1, "Y": -1}, "interpolation": 2}]}, "id": "KJRMFF10ED", "layer": 0, "location_x": {"Points": [{"co": {"X": 1, "Y": 0}, "interpolation": 2}]}, "location_y": {"Points": [{"co": {"X": 1, "Y": 0}, "interpolation": 2}]}, "perspective_c1_x": {"Points": [{"co": {"X": 1, "Y": -1}, "interpolation": 2}]}, "perspective_c1_y": {"Points": [{"co": {"X": 1, "Y": -1}, "interpolation": 2}]}, "perspective_c2_x": {"Points": [{"co": {"X": 1, "Y": -1}, "interpolation": 2}]}, "perspective_c2_y": {"Points": [{"co": {"X": 1, "Y": -1}, "interpolation": 2}]}, "perspective_c3_x": {"Points": [{"co": {"X": 1, "Y": -1}, "interpolation": 2}]}, "perspective_c3_y": {"Points": [{"co": {"X": 1, "Y": -1}, "interpolation": 2}]}, "perspective_c4_x": {"Points": [{"co": {"X": 1, "Y": -1}, "interpolation": 2}]}, "perspective_c4_y": {"Points": [{"co": {"X": 1, "Y": -1}, "interpolation": 2}]}, "position": 8.4, "reader": {"acodec": "", "audio_bit_rate": 0, "audio_stream_index": -1, "audio_timebase": {"den": 1, "num": 1}, "channel_layout": 4, "channels": 0, "display_ratio": {"den": 9, "num": 16}, "duration": 86400.0, "file_size": "3686400", "fps": {"den": 1, "num": 30}, "has_audio": false, "has_single_image": true, "has_video": true, "height": 720, "interlaced_frame": false, "path": "video assets/white bg.png", "pixel_format": -1, "pixel_ratio": {"den": 1, "num": 1}, "sample_rate": 0, "top_field_first": true, "type": "QtImageReader", "vcodec": "", "video_bit_rate": 0, "video_length": "2592000", "video_stream_index": -1, "video_timebase": {"den": 30, "num": 1}, "width": 1280}, "rotation": {"Points": [{"co": {"X": 1, "Y": 0}, "interpolation": 2}]}, "scale": 1, "scale_x": {"Points": [{"co": {"X": 1, "Y": 1}, "interpolation": 2}]}, "scale_y": {"Points": [{"co": {"X": 1, "Y": 1}, "interpolation": 2}]}, "shear_x": {"Points": [{"co": {"X": 1, "Y": 0}, "interpolation": 2}]}, "shear_y": {"Points": [{"co": {"X": 1, "Y": 0}, "interpolation": 2}]}, "start": 0, "time": {"Points": [{"co": {"X": 1, "Y": 1}, "interpolation": 2}]}, "volume": {"Points": [{"co": {"X": 1, "Y": 1}, "interpolation": 2}]}, "wave_color": {"alpha": {"Points": [{"co": {"X": 1, "Y": 255}, "handle_left": {"X": 0.5, "Y": 1}, "handle_right": {"X": 0.5, "Y": 0}, "handle_type": 0, "interpolation": 0}]}, "blue": {"Points": [{"co": {"X": 1, "Y": 255}, "handle_left": {"X": 0.5, "Y": 1}, "handle_right": {"X": 0.5, "Y": 0}, "handle_type": 0, "interpolation": 0}]}, "green": {"Points": [{"co": {"X": 1, "Y": 123}, "handle_left": {"X": 0.5, "Y": 1}, "handle_right": {"X": 0.5, "Y": 0}, "handle_type": 0, "interpolation": 0}]}, "red": {"Points": [{"co": {"X": 1, "Y": 0}, "handle_left": {"X": 0.5, "Y": 1}, "handle_right": {"X": 0.5, "Y": 0}, "handle_type": 0, "interpolation": 0}]}}, "waveform": false, "file_id": "DYQPECIBL6", "title": "white bg.png", "image": "../../../.openshot_qt/thumbnail/DYQPECIBL6.png"}, {"alpha": {"Points": [{"co": {"X": 1, "Y": 1}, "interpolation": 2}]}, "anchor": 0, "channel_filter": {"Points": [{"co": {"X": 1, "Y": -1}, "interpolation": 2}]}, "channel_mapping": {"Points": [{"co": {"X": 1, "Y": -1}, "interpolation": 2}]}, "crop_height": {"Points": [{"co": {"X": 1, "Y": -1}, "interpolation": 2}]}, "crop_width": {"Points": [{"co": {"X": 1, "Y": -1}, "interpolation": 2}]}, "crop_x": {"Points": [{"co": {"X": 1, "Y": 0}, "interpolation": 2}]}, "crop_y": {"Points": [{"co": {"X": 1, "Y": 0}, "interpolation": 2}]}, "display": 0, "duration": 8.399999618530273, "effects": [], "end": 8.399999618530273, "gravity": 4, "has_audio": {"Points": [{"co": {"X": 1, "Y": -1}, "interpolation": 2}]}, "has_video": {"Points": [{"co": {"X": 1, "Y": -1}, "interpolation": 2}]}, "id": "Z9ELMDF57H", "layer": 2, "location_x": {"Points": [{"co": {"X": 1, "Y": 0.0}, "handle_left": {"X": 0.5, "Y": 1}, "handle_right": {"X": 0.5, "Y": 0}, "handle_type": 0, "interpolation": 0}]}, "location_y": {"Points": [{"co": {"X": 1, "Y": 0.23096446700507614}, "handle_left": {"X": 0.5, "Y": 1}, "handle_right": {"X": 0.5, "Y": 0}, "handle_type": 0, "interpolation": 0}]}, "perspective_c1_x": {"Points": [{"co": {"X": 1, "Y": -1}, "interpolation": 2}]}, "perspective_c1_y": {"Points": [{"co": {"X": 1, "Y": -1}, "interpolation": 2}]}, "perspective_c2_x": {"Points": [{"co": {"X": 1, "Y": -1}, "interpolation": 2}]}, "perspective_c2_y": {"Points": [{"co": {"X": 1, "Y": -1}, "interpolation": 2}]}, "perspective_c3_x": {"Points": [{"co": {"X": 1, "Y": -1}, "interpolation": 2}]}, "perspective_c3_y": {"Points": [{"co": {"X": 1, "Y": -1}, "interpolation": 2}]}, "perspective_c4_x": {"Points": [{"co": {"X": 1, "Y": -1}, "interpolation": 2}]}, "perspective_c4_y": {"Points": [{"co": {"X": 1, "Y": -1}, "interpolation": 2}]}, "position": 11.6075, "reader": {"acodec": "", "audio_bit_rate": 0, "audio_stream_index": -1, "audio_timebase": {"den": 1, "num": 1}, "channel_layout": 4, "channels": 0, "display_ratio": {"den": 9, "num": 16}, "duration": 8.399999618530273, "file_size": "-1", "fps": {"den": 1, "num": 25}, "has_audio": false, "has_single_image": false, "has_video": true, "height": 720, "interlaced_frame": false, "path": "2305192a-aa30-11ea-a79a-0013729ccbc3/Health%04d.png", "pixel_format": 28, "pixel_ratio": {"den": 2835, "num": 2835}, "sample_rate": 0, "top_field_first": true, "type": "FFmpegReader", "vcodec": "png", "video_bit_rate": 0, "video_length": "210", "video_stream_index": 0, "video_timebase": {"den": 25, "num": 1}, "width": 1280}, "rotation": {"Points": [{"co": {"X": 1, "Y": 0}, "interpolation": 2}]}, "scale": 1, "scale_x": {"Points": [{"co": {"X": 1, "Y": 0.30428571428571427}, "handle_left": {"X": 0.5, "Y": 1}, "handle_right": {"X": 0.5, "Y": 0}, "handle_type": 0, "interpolation": 0}]}, "scale_y": {"Points": [{"co": {"X": 1, "Y": 0.20304568527918782}, "handle_left": {"X": 0.5, "Y": 1}, "handle_right": {"X": 0.5, "Y": 0}, "handle_type": 0, "interpolation": 0}]}, "shear_x": {"Points": [{"co": {"X": 1, "Y": 0}, "interpolation": 2}]}, "shear_y": {"Points": [{"co": {"X": 1, "Y": 0}, "interpolation": 2}]}, "start": 0, "time": {"Points": [{"co": {"X": 1, "Y": 1}, "interpolation": 2}]}, "volume": {"Points": [{"co": {"X": 1, "Y": 1}, "interpolation": 2}]}, "wave_color": {"alpha": {"Points": [{"co": {"X": 1, "Y": 255}, "handle_left": {"X": 0.5, "Y": 1}, "handle_right": {"X": 0.5, "Y": 0}, "handle_type": 0, "interpolation": 0}]}, "blue": {"Points": [{"co": {"X": 1, "Y": 255}, "handle_left": {"X": 0.5, "Y": 1}, "handle_right": {"X": 0.5, "Y": 0}, "handle_type": 0, "interpolation": 0}]}, "green": {"Points": [{"co": {"X": 1, "Y": 123}, "handle_left": {"X": 0.5, "Y": 1}, "handle_right": {"X": 0.5, "Y": 0}, "handle_type": 0, "interpolation": 0}]}, "red": {"Points": [{"co": {"X": 1, "Y": 0}, "handle_left": {"X": 0.5, "Y": 1}, "handle_right": {"X": 0.5, "Y": 0}, "handle_type": 0, "interpolation": 0}]}}, "waveform": false, "file_id": "WU2Z07RHV4", "title": "Health%04d.png", "image": "../../../.openshot_qt/thumbnail/WU2Z07RHV4.png"}, {"alpha": {"Points": [{"co": {"X": 1, "Y": 1}, "interpolation": 2}]}, "anchor": 0, "channel_filter": {"Points": [{"co": {"X": 1, "Y": -1}, "interpolation": 2}]}, "channel_mapping": {"Points": [{"co": {"X": 1, "Y": -1}, "interpolation": 2}]}, "crop_height": {"Points": [{"co": {"X": 1, "Y": -1}, "interpolation": 2}]}, "crop_width": {"Points": [{"co": {"X": 1, "Y": -1}, "interpolation": 2}]}, "crop_x": {"Points": [{"co": {"X": 1, "Y": 0}, "interpolation": 2}]}, "crop_y": {"Points": [{"co": {"X": 1, "Y": 0}, "interpolation": 2}]}, "display": 0, "duration": 86400.0, "effects": [], "end": 8.4, "gravity": 4, "has_audio": {"Points": [{"co": {"X": 1, "Y": -1}, "interpolation": 2}]}, "has_video": {"Points": [{"co": {"X": 1, "Y": -1}, "interpolation": 2}]}, "id": "CZ56MTN6QM", "layer": 4, "location_x": {"Points": [{"co": {"X": 1, "Y": 0}, "interpolation": 2}]}, "location_y": {"Points": [{"co": {"X": 1, "Y": 0}, "interpolation": 2}]}, "perspective_c1_x": {"Points": [{"co": {"X": 1, "Y": -1}, "interpolation": 2}]}, "perspective_c1_y": {"Points": [{"co": {"X": 1, "Y": -1}, "interpolation": 2}]}, "perspective_c2_x": {"Points": [{"co": {"X": 1, "Y": -1}, "interpolation": 2}]}, "perspective_c2_y": {"Points": [{"co": {"X": 1, "Y": -1}, "interpolation": 2}]}, "perspective_c3_x": {"Points": [{"co": {"X": 1, "Y": -1}, "interpolation": 2}]}, "perspective_c3_y": {"Points": [{"co": {"X": 1, "Y": -1}, "interpolation": 2}]}, "perspective_c4_x": {"Points": [{"co": {"X": 1, "Y": -1}, "interpolation": 2}]}, "perspective_c4_y": {"Points": [{"co": {"X": 1, "Y": -1}, "interpolation": 2}]}, "position": 0, "reader": {"acodec": "", "audio_bit_rate": 0, "audio_stream_index": -1, "audio_timebase": {"den": 1, "num": 1}, "channel_layout": 4, "channels": 0, "display_ratio": {"den": 9, "num": 16}, "duration": 86400.0, "file_size": "8294400", "fps": {"den": 1, "num": 30}, "has_audio": false, "has_single_image": true, "has_video": true, "height": 1080, "interlaced_frame": false, "path": "assets/Vinogradoff Group.svg", "pixel_format": -1, "pixel_ratio": {"den": 1, "num": 1}, "sample_rate": 0, "top_field_first": true, "type": "QtImageReader", "vcodec": "", "video_bit_rate": 0, "video_length": "2592000", "video_stream_index": -1, "video_timebase": {"den": 30, "num": 1}, "width": 1920}, "rotation": {"Points": [{"co": {"X": 1, "Y": 0}, "interpolation": 2}]}, "scale": 1, "scale_x": {"Points": [{"co": {"X": 1, "Y": 1}, "interpolation": 2}]}, "scale_y": {"Points": [{"co": {"X": 1, "Y": 1}, "interpolation": 2}]}, "shear_x": {"Points": [{"co": {"X": 1, "Y": 0}, "interpolation": 2}]}, "shear_y": {"Points": [{"co": {"X": 1, "Y": 0}, "interpolation": 2}]}, "start": 0, "time": {"Points": [{"co": {"X": 1, "Y": 1}, "interpolation": 2}]}, "volume": {"Points": [{"co": {"X": 1, "Y": 1}, "interpolation": 2}]}, "wave_color": {"alpha": {"Points": [{"co": {"X": 1, "Y": 255}, "handle_left": {"X": 0.5, "Y": 1}, "handle_right": {"X": 0.5, "Y": 0}, "handle_type": 0, "interpolation": 0}]}, "blue": {"Points": [{"co": {"X": 1, "Y": 255}, "handle_left": {"X": 0.5, "Y": 1}, "handle_right": {"X": 0.5, "Y": 0}, "handle_type": 0, "interpolation": 0}]}, "green": {"Points": [{"co": {"X": 1, "Y": 123}, "handle_left": {"X": 0.5, "Y": 1}, "handle_right": {"X": 0.5, "Y": 0}, "handle_type": 0, "interpolation": 0}]}, "red": {"Points": [{"co": {"X": 1, "Y": 0}, "handle_left": {"X": 0.5, "Y": 1}, "handle_right": {"X": 0.5, "Y": 0}, "handle_type": 0, "interpolation": 0}]}}, "waveform": false, "file_id": "FHRB35LFMC", "title": "Vinogradoff Group.svg", "image": "../../../.openshot_qt/thumbnail/FHRB35LFMC.png"}, {"alpha": {"Points": [{"co": {"X": 1, "Y": 1}, "interpolation": 2}]}, "anchor": 0, "channel_filter": {"Points": [{"co": {"X": 1, "Y": -1}, "interpolation": 2}]}, "channel_mapping": {"Points": [{"co": {"X": 1, "Y": -1}, "interpolation": 2}]}, "crop_height": {"Points": [{"co": {"X": 1, "Y": -1}, "interpolation": 2}]}, "crop_width": {"Points": [{"co": {"X": 1, "Y": -1}, "interpolation": 2}]}, "crop_x": {"Points": [{"co": {"X": 1, "Y": 0}, "interpolation": 2}]}, "crop_y": {"Points": [{"co": {"X": 1, "Y": 0}, "interpolation": 2}]}, "display": 0, "duration": 13.279999732971191, "effects": [], "end": 8.63999973297119, "gravity": 4, "has_audio": {"Points": [{"co": {"X": 1, "Y": -1}, "interpolation": 2}]}, "has_video": {"Points": [{"co": {"X": 1, "Y": -1}, "interpolation": 2}]}, "id": "BMEREUEBD0", "layer": 3, "location_x": {"Points": [{"co": {"X": 1, "Y": 0}, "interpolation": 2}]}, "location_y": {"Points": [{"co": {"X": 1, "Y": 0}, "interpolation": 2}]}, "perspective_c1_x": {"Points": [{"co": {"X": 1, "Y": -1}, "interpolation": 2}]}, "perspective_c1_y": {"Points": [{"co": {"X": 1, "Y": -1}, "interpolation": 2}]}, "perspective_c2_x": {"Points": [{"co": {"X": 1, "Y": -1}, "interpolation": 2}]}, "perspective_c2_y": {"Points": [{"co": {"X": 1, "Y": -1}, "interpolation": 2}]}, "perspective_c3_x": {"Points": [{"co": {"X": 1, "Y": -1}, "interpolation": 2}]}, "perspective_c3_y": {"Points": [{"co": {"X": 1, "Y": -1}, "interpolation": 2}]}, "perspective_c4_x": {"Points": [{"co": {"X": 1, "Y": -1}, "interpolation": 2}]}, "perspective_c4_y": {"Points": [{"co": {"X": 1, "Y": -1}, "interpolation": 2}]}, "position": 0, "reader": {"acodec": "aac", "audio_bit_rate": 127927, "audio_stream_index": 1, "audio_timebase": {"den": 48000, "num": 1}, "channel_layout": 3, "channels": 2, "display_ratio": {"den": 9, "num": 16}, "duration": 13.279999732971191, "file_size": "33793647", "fps": {"den": 1, "num": 25}, "has_audio": true, "has_single_image": false, "has_video": true, "height": 1080, "interlaced_frame": false, "path": "video assets/fire_background_loop2_videvo2.mov", "pixel_format": 0, "pixel_ratio": {"den": 1, "num": 1}, "sample_rate": 48000, "top_field_first": true, "type": "FFmpegReader", "vcodec": "h264", "video_bit_rate": 20357618, "video_length": "332", "video_stream_index": 0, "video_timebase": {"den": 25, "num": 1}, "width": 1920}, "rotation": {"Points": [{"co": {"X": 1, "Y": 0}, "interpolation": 2}]}, "scale": 1, "scale_x": {"Points": [{"co": {"X": 1, "Y": 1}, "interpolation": 2}]}, "scale_y": {"Points": [{"co": {"X": 1, "Y": 1}, "interpolation": 2}]}, "shear_x": {"Points": [{"co": {"X": 1, "Y": 0}, "interpolation": 2}]}, "shear_y": {"Points": [{"co": {"X": 1, "Y": 0}, "interpolation": 2}]}, "start": 0, "time": {"Points": [{"co": {"X": 1, "Y": 1}, "interpolation": 2}]}, "volume": {"Points": [{"co": {"X": 1, "Y": 1}, "interpolation": 2}]}, "wave_color": {"alpha": {"Points": [{"co": {"X": 1, "Y": 255}, "handle_left": {"X": 0.5, "Y": 1}, "handle_right": {"X": 0.5, "Y": 0}, "handle_type": 0, "interpolation": 0}]}, "blue": {"Points": [{"co": {"X": 1, "Y": 255}, "handle_left": {"X": 0.5, "Y": 1}, "handle_right": {"X": 0.5, "Y": 0}, "handle_type": 0, "interpolation": 0}]}, "green": {"Points": [{"co": {"X": 1, "Y": 123}, "handle_left": {"X": 0.5, "Y": 1}, "handle_right": {"X": 0.5, "Y": 0}, "handle_type": 0, "interpolation": 0}]}, "red": {"Points": [{"co": {"X": 1, "Y": 0}, "handle_left": {"X": 0.5, "Y": 1}, "handle_right": {"X": 0.5, "Y": 0}, "handle_type": 0, "interpolation": 0}]}}, "waveform": false, "file_id": "4WES5Z3VG4", "title": "fire_background_loop2_videvo2.mov", "image": "../../../.openshot_qt/thumbnail/4WES5Z3VG4.png"}, {"alpha": {"Points": [{"co": {"X": 1, "Y": 1}, "interpolation": 2}]}, "anchor": 0, "channel_filter": {"Points": [{"co": {"X": 1, "Y": -1}, "interpolation": 2}]}, "channel_mapping": {"Points": [{"co": {"X": 1, "Y": -1}, "interpolation": 2}]}, "crop_height": {"Points": [{"co": {"X": 1, "Y": -1}, "interpolation": 2}]}, "crop_width": {"Points": [{"co": {"X": 1, "Y": -1}, "interpolation": 2}]}, "crop_x": {"Points": [{"co": {"X": 1, "Y": 0}, "interpolation": 2}]}, "crop_y": {"Points": [{"co": {"X": 1, "Y": 0}, "interpolation": 2}]}, "display": 0, "duration": 23.200000762939453, "effects": [], "end": 23.200000762939453, "gravity": 4, "has_audio": {"Points": [{"co": {"X": 1, "Y": -1}, "interpolation": 2}]}, "has_video": {"Points": [{"co": {"X": 1, "Y": -1}, "interpolation": 2}]}, "id": "8S65LG0ZFO", "layer": 3, "location_x": {"Points": [{"co": {"X": 1, "Y": 0}, "interpolation": 2}]}, "location_y": {"Points": [{"co": {"X": 1, "Y": 0}, "interpolation": 2}]}, "perspective_c1_x": {"Points": [{"co": {"X": 1, "Y": -1}, "interpolation": 2}]}, "perspective_c1_y": {"Points": [{"co": {"X": 1, "Y": -1}, "interpolation": 2}]}, "perspective_c2_x": {"Points": [{"co": {"X": 1, "Y": -1}, "interpolation": 2}]}, "perspective_c2_y": {"Points": [{"co": {"X": 1, "Y": -1}, "interpolation": 2}]}, "perspective_c3_x": {"Points": [{"co": {"X": 1, "Y": -1}, "interpolation": 2}]}, "perspective_c3_y": {"Points": [{"co": {"X": 1, "Y": -1}, "interpolation": 2}]}, "perspective_c4_x": {"Points": [{"co": {"X": 1, "Y": -1}, "interpolation": 2}]}, "perspective_c4_y": {"Points": [{"co": {"X": 1, "Y": -1}, "interpolation": 2}]}, "position": 23.52, "reader": {"acodec": "", "audio_bit_rate": 0, "audio_stream_index": -1, "audio_timebase": {"den": 1, "num": 1}, "channel_layout": 4, "channels": 0, "display_ratio": {"den": 9, "num": 16}, "duration": 23.200000762939453, "file_size": "82713018", "fps": {"den": 1, "num": 25}, "has_audio": false, "has_single_image": false, "has_video": true, "height": 2160, "interlaced_frame": false, "path": "video assets/200129_02_Medical_Ward_4k_103.mp4", "pixel_format": 0, "pixel_ratio": {"den": 1, "num": 1}, "sample_rate": 0, "top_field_first": true, "type": "FFmpegReader", "vcodec": "h264", "video_bit_rate": 28521730, "video_length": "580", "video_stream_index": 0, "video_timebase": {"den": 25000, "num": 1}, "width": 3840}, "rotation": {"Points": [{"co": {"X": 1, "Y": 0}, "interpolation": 2}]}, "scale": 1, "scale_x": {"Points": [{"co": {"X": 1, "Y": 1}, "interpolation": 2}]}, "scale_y": {"Points": [{"co": {"X": 1, "Y": 1}, "interpolation": 2}]}, "shear_x": {"Points": [{"co": {"X": 1, "Y": 0}, "interpolation": 2}]}, "shear_y": {"Points": [{"co": {"X": 1, "Y": 0}, "interpolation": 2}]}, "start": 0, "time": {"Points": [{"co": {"X": 1, "Y": 1}, "interpolation": 2}]}, "volume": {"Points": [{"co": {"X": 1, "Y": 1}, "interpolation": 2}]}, "wave_color": {"alpha": {"Points": [{"co": {"X": 1, "Y": 255}, "handle_left": {"X": 0.5, "Y": 1}, "handle_right": {"X": 0.5, "Y": 0}, "handle_type": 0, "interpolation": 0}]}, "blue": {"Points": [{"co": {"X": 1, "Y": 255}, "handle_left": {"X": 0.5, "Y": 1}, "handle_right": {"X": 0.5, "Y": 0}, "handle_type": 0, "interpolation": 0}]}, "green": {"Points": [{"co": {"X": 1, "Y": 123}, "handle_left": {"X": 0.5, "Y": 1}, "handle_right": {"X": 0.5, "Y": 0}, "handle_type": 0, "interpolation": 0}]}, "red": {"Points": [{"co": {"X": 1, "Y": 0}, "handle_left": {"X": 0.5, "Y": 1}, "handle_right": {"X": 0.5, "Y": 0}, "handle_type": 0, "interpolation": 0}]}}, "waveform": false, "file_id": "YXHHBI5JHB", "title": "200129_02_Medical_Ward_4k_103.mp4", "image": "../../../.openshot_qt/thumbnail/YXHHBI5JHB.png"}, {"alpha": {"Points": [{"co": {"X": 1, "Y": 1}, "interpolation": 2}]}, "anchor": 0, "channel_filter": {"Points": [{"co": {"X": 1, "Y": -1}, "interpolation": 2}]}, "channel_mapping": {"Points": [{"co": {"X": 1, "Y": -1}, "interpolation": 2}]}, "crop_height": {"Points": [{"co": {"X": 1, "Y": -1}, "interpolation": 2}]}, "crop_width": {"Points": [{"co": {"X": 1, "Y": -1}, "interpolation": 2}]}, "crop_x": {"Points": [{"co": {"X": 1, "Y": 0}, "interpolation": 2}]}, "crop_y": {"Points": [{"co": {"X": 1, "Y": 0}, "interpolation": 2}]}, "display": 0, "duration": 23.360000610351562, "effects": [], "end": 23.360000610351562, "gravity": 4, "has_audio": {"Points": [{"co": {"X": 1, "Y": -1}, "interpolation": 2}]}, "has_video": {"Points": [{"co": {"X": 1, "Y": -1}, "interpolation": 2}]}, "id": "RTVAO9LI1Y", "layer": 3, "location_x": {"Points": [{"co": {"X": 1, "Y": 0}, "interpolation": 2}]}, "location_y": {"Points": [{"co": {"X": 1, "Y": 0}, "interpolation": 2}]}, "perspective_c1_x": {"Points": [{"co": {"X": 1, "Y": -1}, "interpolation": 2}]}, "perspective_c1_y": {"Points": [{"co": {"X": 1, "Y": -1}, "interpolation": 2}]}, "perspective_c2_x": {"Points": [{"co": {"X": 1, "Y": -1}, "interpolation": 2}]}, "perspective_c2_y": {"Points": [{"co": {"X": 1, "Y": -1}, "interpolation": 2}]}, "perspective_c3_x": {"Points": [{"co": {"X": 1, "Y": -1}, "interpolation": 2}]}, "perspective_c3_y": {"Points": [{"co": {"X": 1, "Y": -1}, "interpolation": 2}]}, "perspective_c4_x": {"Points": [{"co": {"X": 1, "Y": -1}, "interpolation": 2}]}, "perspective_c4_y": {"Points": [{"co": {"X": 1, "Y": -1}, "interpolation": 2}]}, "position": 47.442187499999996, "reader": {"acodec": "aac", "audio_bit_rate": 317375, "audio_stream_index": 1, "audio_timebase": {"den": 48000, "num": 1}, "channel_layout": 3, "channels": 2, "display_ratio": {"den": 9, "num": 16}, "duration": 23.360000610351562, "file_size": "96318984", "fps": {"den": 1, "num": 25}, "has_audio": true, "has_single_image": false, "has_video": true, "height": 1080, "interlaced_frame": false, "path": "video assets/160714_Pills_2_1080p.mp4", "pixel_format": 0, "pixel_ratio": {"den": 1, "num": 1}, "sample_rate": 48000, "top_field_first": true, "type": "FFmpegReader", "vcodec": "h264", "video_bit_rate": 32925814, "video_length": "584", "video_stream_index": 0, "video_timebase": {"den": 25000, "num": 1}, "width": 1920}, "rotation": {"Points": [{"co": {"X": 1, "Y": 0}, "interpolation": 2}]}, "scale": 1, "scale_x": {"Points": [{"co": {"X": 1, "Y": 1}, "interpolation": 2}]}, "scale_y": {"Points": [{"co": {"X": 1, "Y": 1}, "interpolation": 2}]}, "shear_x": {"Points": [{"co": {"X": 1, "Y": 0}, "interpolation": 2}]}, "shear_y": {"Points": [{"co": {"X": 1, "Y": 0}, "interpolation": 2}]}, "start": 0, "time": {"Points": [{"co": {"X": 1, "Y": 1}, "interpolation": 2}]}, "volume": {"Points": [{"co": {"X": 1, "Y": 1}, "interpolation": 2}]}, "wave_color": {"alpha": {"Points": [{"co": {"X": 1, "Y": 255}, "handle_left": {"X": 0.5, "Y": 1}, "handle_right": {"X": 0.5, "Y": 0}, "handle_type": 0, "interpolation": 0}]}, "blue": {"Points": [{"co": {"X": 1, "Y": 255}, "handle_left": {"X": 0.5, "Y": 1}, "handle_right": {"X": 0.5, "Y": 0}, "handle_type": 0, "interpolation": 0}]}, "green": {"Points": [{"co": {"X": 1, "Y": 123}, "handle_left": {"X": 0.5, "Y": 1}, "handle_right": {"X": 0.5, "Y": 0}, "handle_type": 0, "interpolation": 0}]}, "red": {"Points": [{"co": {"X": 1, "Y": 0}, "handle_left": {"X": 0.5, "Y": 1}, "handle_right": {"X": 0.5, "Y": 0}, "handle_type": 0, "interpolation": 0}]}}, "waveform": false, "file_id": "YBDV9IV3RQ", "title": "160714_Pills_2_1080p.mp4", "image": "../../../.openshot_qt/thumbnail/YBDV9IV3RQ.png"}, {"alpha": {"Points": [{"co": {"X": 1, "Y": 1}, "interpolation": 2}]}, "anchor": 0, "channel_filter": {"Points": [{"co": {"X": 1, "Y": -1}, "interpolation": 2}]}, "channel_mapping": {"Points": [{"co": {"X": 1, "Y": -1}, "interpolation": 2}]}, "crop_height": {"Points": [{"co": {"X": 1, "Y": -1}, "interpolation": 2}]}, "crop_width": {"Points": [{"co": {"X": 1, "Y": -1}, "interpolation": 2}]}, "crop_x": {"Points": [{"co": {"X": 1, "Y": 0}, "interpolation": 2}]}, "crop_y": {"Points": [{"co": {"X": 1, "Y": 0}, "interpolation": 2}]}, "display": 0, "duration": 13.4399995803833, "effects": [], "end": 13.4399995803833, "gravity": 4, "has_audio": {"Points": [{"co": {"X": 1, "Y": -1}, "interpolation": 2}]}, "has_video": {"Points": [{"co": {"X": 1, "Y": -1}, "interpolation": 2}]}, "id": "64ET1DMXTY", "layer": 3, "location_x": {"Points": [{"co": {"X": 1, "Y": 0}, "interpolation": 2}]}, "location_y": {"Points": [{"co": {"X": 1, "Y": 0}, "interpolation": 2}]}, "perspective_c1_x": {"Points": [{"co": {"X": 1, "Y": -1}, "interpolation": 2}]}, "perspective_c1_y": {"Points": [{"co": {"X": 1, "Y": -1}, "interpolation": 2}]}, "perspective_c2_x": {"Points": [{"co": {"X": 1, "Y": -1}, "interpolation": 2}]}, "perspective_c2_y": {"Points": [{"co": {"X": 1, "Y": -1}, "interpolation": 2}]}, "perspective_c3_x": {"Points": [{"co": {"X": 1, "Y": -1}, "interpolation": 2}]}, "perspective_c3_y": {"Points": [{"co": {"X": 1, "Y": -1}, "interpolation": 2}]}, "perspective_c4_x": {"Points": [{"co": {"X": 1, "Y": -1}, "interpolation": 2}]}, "perspective_c4_y": {"Points": [{"co": {"X": 1, "Y": -1}, "interpolation": 2}]}, "position": 71.84, "reader": {"acodec": "", "audio_bit_rate": 0, "audio_stream_index": -1, "audio_timebase": {"den": 1, "num": 1}, "channel_layout": 4, "channels": 0, "display_ratio": {"den": 84, "num": 149}, "duration": 13.4399995803833, "file_size": "1560325", "fps": {"den": 1, "num": 25}, "has_audio": false, "has_single_image": false, "has_video": true, "height": 336, "interlaced_frame": false, "path": "video assets/22782544-preview.mp4", "pixel_format": 0, "pixel_ratio": {"den": 1, "num": 1}, "sample_rate": 0, "top_field_first": true, "type": "FFmpegReader", "vcodec": "h264", "video_bit_rate": 928764, "video_length": "336", "video_stream_index": 0, "video_timebase": {"den": 12800, "num": 1}, "width": 596}, "rotation": {"Points": [{"co": {"X": 1, "Y": 0}, "interpolation": 2}]}, "scale": 1, "scale_x": {"Points": [{"co": {"X": 1, "Y": 1}, "interpolation": 2}]}, "scale_y": {"Points": [{"co": {"X": 1, "Y": 1}, "interpolation": 2}]}, "shear_x": {"Points": [{"co": {"X": 1, "Y": 0}, "interpolation": 2}]}, "shear_y": {"Points": [{"co": {"X": 1, "Y": 0}, "interpolation": 2}]}, "start": 0, "time": {"Points": [{"co": {"X": 1, "Y": 1}, "interpolation": 2}]}, "volume": {"Points": [{"co": {"X": 1, "Y": 1}, "interpolation": 2}]}, "wave_color": {"alpha": {"Points": [{"co": {"X": 1, "Y": 255}, "handle_left": {"X": 0.5, "Y": 1}, "handle_right": {"X": 0.5, "Y": 0}, "handle_type": 0, "interpolation": 0}]}, "blue": {"Points": [{"co": {"X": 1, "Y": 255}, "handle_left": {"X": 0.5, "Y": 1}, "handle_right": {"X": 0.5, "Y": 0}, "handle_type": 0, "interpolation": 0}]}, "green": {"Points": [{"co": {"X": 1, "Y": 123}, "handle_left": {"X": 0.5, "Y": 1}, "handle_right": {"X": 0.5, "Y": 0}, "handle_type": 0, "interpolation": 0}]}, "red": {"Points": [{"co": {"X": 1, "Y": 0}, "handle_left": {"X": 0.5, "Y": 1}, "handle_right": {"X": 0.5, "Y": 0}, "handle_type": 0, "interpolation": 0}]}}, "waveform": false, "file_id": "M9OO5LBDVO", "title": "22782544-preview.mp4", "image": "../../../.openshot_qt/thumbnail/M9OO5LBDVO.png"}, {"alpha": {"Points": [{"co": {"X": 1, "Y": 1}, "interpolation": 2}]}, "anchor": 0, "channel_filter": {"Points": [{"co": {"X": 1, "Y": -1}, "interpolation": 2}]}, "channel_mapping": {"Points": [{"co": {"X": 1, "Y": -1}, "interpolation": 2}]}, "crop_height": {"Points": [{"co": {"X": 1, "Y": -1}, "interpolation": 2}]}, "crop_width": {"Points": [{"co": {"X": 1, "Y": -1}, "interpolation": 2}]}, "crop_x": {"Points": [{"co": {"X": 1, "Y": 0}, "interpolation": 2}]}, "crop_y": {"Points": [{"co": {"X": 1, "Y": 0}, "interpolation": 2}]}, "display": 0, "duration": 13.0, "effects": [], "end": 13, "gravity": 4, "has_audio": {"Points": [{"co": {"X": 1, "Y": -1}, "interpolation": 2}]}, "has_video": {"Points": [{"co": {"X": 1, "Y": -1}, "interpolation": 2}]}, "id": "FAQG1NALP6", "layer": 3, "location_x": {"Points": [{"co": {"X": 1, "Y": 0}, "interpolation": 2}]}, "location_y": {"Points": [{"co": {"X": 1, "Y": 0}, "interpolation": 2}]}, "perspective_c1_x": {"Points": [{"co": {"X": 1, "Y": -1}, "interpolation": 2}]}, "perspective_c1_y": {"Points": [{"co": {"X": 1, "Y": -1}, "interpolation": 2}]}, "perspective_c2_x": {"Points": [{"co": {"X": 1, "Y": -1}, "interpolation": 2}]}, "perspective_c2_y": {"Points": [{"co": {"X": 1, "Y": -1}, "interpolation": 2}]}, "perspective_c3_x": {"Points": [{"co": {"X": 1, "Y": -1}, "interpolation": 2}]}, "perspective_c3_y": {"Points": [{"co": {"X": 1, "Y": -1}, "interpolation": 2}]}, "perspective_c4_x": {"Points": [{"co": {"X": 1, "Y": -1}, "interpolation": 2}]}, "perspective_c4_y": {"Points": [{"co": {"X": 1, "Y": -1}, "interpolation": 2}]}, "position": 132.16, "reader": {"acodec": "aac", "audio_bit_rate": 128321, "audio_stream_index": 1, "audio_timebase": {"den": 44100, "num": 1}, "channel_layout": 3, "channels": 2, "display_ratio": {"den": 84, "num": 149}, "duration": 13.0, "file_size": "1223144", "fps": {"den": 1, "num": 25}, "has_audio": true, "has_single_image": false, "has_video": true, "height": 336, "interlaced_frame": false, "path": "video assets/1053783902-preview.mp4", "pixel_format": 0, "pixel_ratio": {"den": 1, "num": 1}, "sample_rate": 44100, "top_field_first": true, "type": "FFmpegReader", "vcodec": "h264", "video_bit_rate": 749992, "video_length": "325", "video_stream_index": 0, "video_timebase": {"den": 12800, "num": 1}, "width": 596}, "rotation": {"Points": [{"co": {"X": 1, "Y": 0}, "interpolation": 2}]}, "scale": 1, "scale_x": {"Points": [{"co": {"X": 1, "Y": 1}, "interpolation": 2}]}, "scale_y": {"Points": [{"co": {"X": 1, "Y": 1}, "interpolation": 2}]}, "shear_x": {"Points": [{"co": {"X": 1, "Y": 0}, "interpolation": 2}]}, "shear_y": {"Points": [{"co": {"X": 1, "Y": 0}, "interpolation": 2}]}, "start": 0, "time": {"Points": [{"co": {"X": 1, "Y": 1}, "interpolation": 2}]}, "volume": {"Points": [{"co": {"X": 1, "Y": 1}, "interpolation": 2}]}, "wave_color": {"alpha": {"Points": [{"co": {"X": 1, "Y": 255}, "handle_left": {"X": 0.5, "Y": 1}, "handle_right": {"X": 0.5, "Y": 0}, "handle_type": 0, "interpolation": 0}]}, "blue": {"Points": [{"co": {"X": 1, "Y": 255}, "handle_left": {"X": 0.5, "Y": 1}, "handle_right": {"X": 0.5, "Y": 0}, "handle_type": 0, "interpolation": 0}]}, "green": {"Points": [{"co": {"X": 1, "Y": 123}, "handle_left": {"X": 0.5, "Y": 1}, "handle_right": {"X": 0.5, "Y": 0}, "handle_type": 0, "interpolation": 0}]}, "red": {"Points": [{"co": {"X": 1, "Y": 0}, "handle_left": {"X": 0.5, "Y": 1}, "handle_right": {"X": 0.5, "Y": 0}, "handle_type": 0, "interpolation": 0}]}}, "waveform": false, "file_id": "49AUONUONS", "title": "1053783902-preview.mp4", "image": "../../../.openshot_qt/thumbnail/49AUONUONS.png"}, {"alpha": {"Points": [{"co": {"X": 1, "Y": 1}, "interpolation": 2}]}, "anchor": 0, "channel_filter": {"Points": [{"co": {"X": 1, "Y": -1}, "interpolation": 2}]}, "channel_mapping": {"Points": [{"co": {"X": 1, "Y": -1}, "interpolation": 2}]}, "crop_height": {"Points": [{"co": {"X": 1, "Y": -1}, "interpolation": 2}]}, "crop_width": {"Points": [{"co": {"X": 1, "Y": -1}, "interpolation": 2}]}, "crop_x": {"Points": [{"co": {"X": 1, "Y": 0}, "interpolation": 2}]}, "crop_y": {"Points": [{"co": {"X": 1, "Y": 0}, "interpolation": 2}]}, "display": 0, "duration": 44.33599853515625, "effects": [], "end": 44.33599853515625, "gravity": 4, "has_audio": {"Points": [{"co": {"X": 1, "Y": -1}, "interpolation": 2}]}, "has_video": {"Points": [{"co": {"X": 1, "Y": -1}, "interpolation": 2}]}, "id": "65NA5MTRQE", "layer": 3, "location_x": {"Points": [{"co": {"X": 1, "Y": 0}, "interpolation": 2}]}, "location_y": {"Points": [{"co": {"X": 1, "Y": 0}, "interpolation": 2}]}, "perspective_c1_x": {"Points": [{"co": {"X": 1, "Y": -1}, "interpolation": 2}]}, "perspective_c1_y": {"Points": [{"co": {"X": 1, "Y": -1}, "interpolation": 2}]}, "perspective_c2_x": {"Points": [{"co": {"X": 1, "Y": -1}, "interpolation": 2}]}, "perspective_c2_y": {"Points": [{"co": {"X": 1, "Y": -1}, "interpolation": 2}]}, "perspective_c3_x": {"Points": [{"co": {"X": 1, "Y": -1}, "interpolation": 2}]}, "perspective_c3_y": {"Points": [{"co": {"X": 1, "Y": -1}, "interpolation": 2}]}, "perspective_c4_x": {"Points": [{"co": {"X": 1, "Y": -1}, "interpolation": 2}]}, "perspective_c4_y": {"Points": [{"co": {"X": 1, "Y": -1}, "interpolation": 2}]}, "position": 87.985, "reader": {"acodec": "", "audio_bit_rate": 0, "audio_stream_index": -1, "audio_timebase": {"den": 1, "num": 1}, "channel_layout": 4, "channels": 0, "display_ratio": {"den": 79, "num": 150}, "duration": 44.33599853515625, "file_size": "5120509", "fps": {"den": 1001, "num": 24000}, "has_audio": false, "has_single_image": false, "has_video": true, "height": 316, "interlaced_frame": false, "path": "video assets/1019086909-preview.mp4", "pixel_format": 0, "pixel_ratio": {"den": 1, "num": 1}, "sample_rate": 0, "top_field_first": true, "type": "FFmpegReader", "vcodec": "h264", "video_bit_rate": 923946, "video_length": "1063", "video_stream_index": 0, "video_timebase": {"den": 24000, "num": 1}, "width": 600}, "rotation": {"Points": [{"co": {"X": 1, "Y": 0}, "interpolation": 2}]}, "scale": 1, "scale_x": {"Points": [{"co": {"X": 1, "Y": 1}, "interpolation": 2}]}, "scale_y": {"Points": [{"co": {"X": 1, "Y": 1}, "interpolation": 2}]}, "shear_x": {"Points": [{"co": {"X": 1, "Y": 0}, "interpolation": 2}]}, "shear_y": {"Points": [{"co": {"X": 1, "Y": 0}, "interpolation": 2}]}, "start": 0, "time": {"Points": [{"co": {"X": 1, "Y": 1}, "interpolation": 2}]}, "volume": {"Points": [{"co": {"X": 1, "Y": 1}, "interpolation": 2}]}, "wave_color": {"alpha": {"Points": [{"co": {"X": 1, "Y": 255}, "handle_left": {"X": 0.5, "Y": 1}, "handle_right": {"X": 0.5, "Y": 0}, "handle_type": 0, "interpolation": 0}]}, "blue": {"Points": [{"co": {"X": 1, "Y": 255}, "handle_left": {"X": 0.5, "Y": 1}, "handle_right": {"X": 0.5, "Y": 0}, "handle_type": 0, "interpolation": 0}]}, "green": {"Points": [{"co": {"X": 1, "Y": 123}, "handle_left": {"X": 0.5, "Y": 1}, "handle_right": {"X": 0.5, "Y": 0}, "handle_type": 0, "interpolation": 0}]}, "red": {"Points": [{"co": {"X": 1, "Y": 0}, "handle_left": {"X": 0.5, "Y": 1}, "handle_right": {"X": 0.5, "Y": 0}, "handle_type": 0, "interpolation": 0}]}}, "waveform": false, "file_id": "S1F0PS2NHN", "title": "1019086909-preview.mp4", "image": "../../../.openshot_qt/thumbnail/S1F0PS2NHN.png"}, {"alpha": {"Points": [{"co": {"X": 1, "Y": 1}, "interpolation": 2}]}, "anchor": 0, "channel_filter": {"Points": [{"co": {"X": 1, "Y": -1}, "interpolation": 2}]}, "channel_mapping": {"Points": [{"co": {"X": 1, "Y": -1}, "interpolation": 2}]}, "crop_height": {"Points": [{"co": {"X": 1, "Y": -1}, "interpolation": 2}]}, "crop_width": {"Points": [{"co": {"X": 1, "Y": -1}, "interpolation": 2}]}, "crop_x": {"Points": [{"co": {"X": 1, "Y": 0}, "interpolation": 2}]}, "crop_y": {"Points": [{"co": {"X": 1, "Y": 0}, "interpolation": 2}]}, "display": 0, "duration": 17.0, "effects": [], "end": 17, "gravity": 4, "has_audio": {"Points": [{"co": {"X": 1, "Y": -1}, "interpolation": 2}]}, "has_video": {"Points": [{"co": {"X": 1, "Y": -1}, "interpolation": 2}]}, "id": "0NV0TKPJLV", "layer": 3, "location_x": {"Points": [{"co": {"X": 1, "Y": 0}, "interpolation": 2}]}, "location_y": {"Points": [{"co": {"X": 1, "Y": 0}, "interpolation": 2}]}, "perspective_c1_x": {"Points": [{"co": {"X": 1, "Y": -1}, "interpolation": 2}]}, "perspective_c1_y": {"Points": [{"co": {"X": 1, "Y": -1}, "interpolation": 2}]}, "perspective_c2_x": {"Points": [{"co": {"X": 1, "Y": -1}, "interpolation": 2}]}, "perspective_c2_y": {"Points": [{"co": {"X": 1, "Y": -1}, "interpolation": 2}]}, "perspective_c3_x": {"Points": [{"co": {"X": 1, "Y": -1}, "interpolation": 2}]}, "perspective_c3_y": {"Points": [{"co": {"X": 1, "Y": -1}, "interpolation": 2}]}, "perspective_c4_x": {"Points": [{"co": {"X": 1, "Y": -1}, "interpolation": 2}]}, "perspective_c4_y": {"Points": [{"co": {"X": 1, "Y": -1}, "interpolation": 2}]}, "position": 145.16, "reader": {"acodec": "aac", "audio_bit_rate": 128442, "audio_stream_index": 1, "audio_timebase": {"den": 44100, "num": 1}, "channel_layout": 3, "channels": 2, "display_ratio": {"den": 84, "num": 149}, "duration": 17.0, "file_size": "1082198", "fps": {"den": 1, "num": 24}, "has_audio": true, "has_single_image": false, "has_video": true, "height": 336, "interlaced_frame": false, "path": "video assets/1044123580-preview.mp4", "pixel_format": 0, "pixel_ratio": {"den": 1, "num": 1}, "sample_rate": 44100, "top_field_first": true, "type": "FFmpegReader", "vcodec": "h264", "video_bit_rate": 507865, "video_length": "408", "video_stream_index": 0, "video_timebase": {"den": 12288, "num": 1}, "width": 596}, "rotation": {"Points": [{"co": {"X": 1, "Y": 0}, "interpolation": 2}]}, "scale": 1, "scale_x": {"Points": [{"co": {"X": 1, "Y": 1}, "interpolation": 2}]}, "scale_y": {"Points": [{"co": {"X": 1, "Y": 1}, "interpolation": 2}]}, "shear_x": {"Points": [{"co": {"X": 1, "Y": 0}, "interpolation": 2}]}, "shear_y": {"Points": [{"co": {"X": 1, "Y": 0}, "interpolation": 2}]}, "start": 0, "time": {"Points": [{"co": {"X": 1, "Y": 1}, "interpolation": 2}]}, "volume": {"Points": [{"co": {"X": 1, "Y": 1}, "interpolation": 2}]}, "wave_color": {"alpha": {"Points": [{"co": {"X": 1, "Y": 255}, "handle_left": {"X": 0.5, "Y": 1}, "handle_right": {"X": 0.5, "Y": 0}, "handle_type": 0, "interpolation": 0}]}, "blue": {"Points": [{"co": {"X": 1, "Y": 255}, "handle_left": {"X": 0.5, "Y": 1}, "handle_right": {"X": 0.5, "Y": 0}, "handle_type": 0, "interpolation": 0}]}, "green": {"Points": [{"co": {"X": 1, "Y": 123}, "handle_left": {"X": 0.5, "Y": 1}, "handle_right": {"X": 0.5, "Y": 0}, "handle_type": 0, "interpolation": 0}]}, "red": {"Points": [{"co": {"X": 1, "Y": 0}, "handle_left": {"X": 0.5, "Y": 1}, "handle_right": {"X": 0.5, "Y": 0}, "handle_type": 0, "interpolation": 0}]}}, "waveform": false, "file_id": "73OC331NN1", "title": "1044123580-preview.mp4", "image": "../../../.openshot_qt/thumbnail/73OC331NN1.png"}, {"alpha": {"Points": [{"co": {"X": 1, "Y": 1}, "interpolation": 2}]}, "anchor": 0, "channel_filter": {"Points": [{"co": {"X": 1, "Y": -1}, "interpolation": 2}]}, "channel_mapping": {"Points": [{"co": {"X": 1, "Y": -1}, "interpolation": 2}]}, "crop_height": {"Points": [{"co": {"X": 1, "Y": -1}, "interpolation": 2}]}, "crop_width": {"Points": [{"co": {"X": 1, "Y": -1}, "interpolation": 2}]}, "crop_x": {"Points": [{"co": {"X": 1, "Y": 0}, "interpolation": 2}]}, "crop_y": {"Points": [{"co": {"X": 1, "Y": 0}, "interpolation": 2}]}, "display": 0, "duration": 9.920000076293945, "effects": [], "end": 9.920000076293945, "gravity": 4, "has_audio": {"Points": [{"co": {"X": 1, "Y": -1}, "interpolation": 2}]}, "has_video": {"Points": [{"co": {"X": 1, "Y": -1}, "interpolation": 2}]}, "id": "RAKQERJ6P1", "layer": 3, "location_x": {"Points": [{"co": {"X": 1, "Y": 0}, "interpolation": 2}]}, "location_y": {"Points": [{"co": {"X": 1, "Y": 0}, "interpolation": 2}]}, "perspective_c1_x": {"Points": [{"co": {"X": 1, "Y": -1}, "interpolation": 2}]}, "perspective_c1_y": {"Points": [{"co": {"X": 1, "Y": -1}, "interpolation": 2}]}, "perspective_c2_x": {"Points": [{"co": {"X": 1, "Y": -1}, "interpolation": 2}]}, "perspective_c2_y": {"Points": [{"co": {"X": 1, "Y": -1}, "interpolation": 2}]}, "perspective_c3_x": {"Points": [{"co": {"X": 1, "Y": -1}, "interpolation": 2}]}, "perspective_c3_y": {"Points": [{"co": {"X": 1, "Y": -1}, "interpolation": 2}]}, "perspective_c4_x": {"Points": [{"co": {"X": 1, "Y": -1}, "interpolation": 2}]}, "perspective_c4_y": {"Points": [{"co": {"X": 1, "Y": -1}, "interpolation": 2}]}, "position": 162.16, "reader": {"acodec": "", "audio_bit_rate": 0, "audio_stream_index": -1, "audio_timebase": {"den": 1, "num": 1}, "channel_layout": 4, "channels": 0, "display_ratio": {"den": 9, "num": 16}, "duration": 9.920000076293945, "file_size": "1950637", "fps": {"den": 1, "num": 25}, "has_audio": false, "has_single_image": false, "has_video": true, "height": 360, "interlaced_frame": false, "path": "video assets/istockphoto-541088960-640_adpp_is.mp4", "pixel_format": 0, "pixel_ratio": {"den": 1, "num": 1}, "sample_rate": 0, "top_field_first": true, "type": "FFmpegReader", "vcodec": "h264", "video_bit_rate": 1573094, "video_length": "248", "video_stream_index": 0, "video_timebase": {"den": 25000, "num": 1}, "width": 640}, "rotation": {"Points": [{"co": {"X": 1, "Y": 0}, "interpolation": 2}]}, "scale": 1, "scale_x": {"Points": [{"co": {"X": 1, "Y": 1}, "interpolation": 2}]}, "scale_y": {"Points": [{"co": {"X": 1, "Y": 1}, "interpolation": 2}]}, "shear_x": {"Points": [{"co": {"X": 1, "Y": 0}, "interpolation": 2}]}, "shear_y": {"Points": [{"co": {"X": 1, "Y": 0}, "interpolation": 2}]}, "start": 0, "time": {"Points": [{"co": {"X": 1, "Y": 1}, "interpolation": 2}]}, "volume": {"Points": [{"co": {"X": 1, "Y": 1}, "interpolation": 2}]}, "wave_color": {"alpha": {"Points": [{"co": {"X": 1, "Y": 255}, "handle_left": {"X": 0.5, "Y": 1}, "handle_right": {"X": 0.5, "Y": 0}, "handle_type": 0, "interpolation": 0}]}, "blue": {"Points": [{"co": {"X": 1, "Y": 255}, "handle_left": {"X": 0.5, "Y": 1}, "handle_right": {"X": 0.5, "Y": 0}, "handle_type": 0, "interpolation": 0}]}, "green": {"Points": [{"co": {"X": 1, "Y": 123}, "handle_left": {"X": 0.5, "Y": 1}, "handle_right": {"X": 0.5, "Y": 0}, "handle_type": 0, "interpolation": 0}]}, "red": {"Points": [{"co": {"X": 1, "Y": 0}, "handle_left": {"X": 0.5, "Y": 1}, "handle_right": {"X": 0.5, "Y": 0}, "handle_type": 0, "interpolation": 0}]}}, "waveform": false, "file_id": "7RTHRR68QT", "title": "istockphoto-541088960-640_adpp_is.mp4", "image": "../../../.openshot_qt/thumbnail/7RTHRR68QT.png"}, {"alpha": {"Points": [{"co": {"X": 1, "Y": 1}, "interpolation": 2}]}, "anchor": 0, "channel_filter": {"Points": [{"co": {"X": 1, "Y": -1}, "interpolation": 2}]}, "channel_mapping": {"Points": [{"co": {"X": 1, "Y": -1}, "interpolation": 2}]}, "crop_height": {"Points": [{"co": {"X": 1, "Y": -1}, "interpolation": 2}]}, "crop_width": {"Points": [{"co": {"X": 1, "Y": -1}, "interpolation": 2}]}, "crop_x": {"Points": [{"co": {"X": 1, "Y": 0}, "interpolation": 2}]}, "crop_y": {"Points": [{"co": {"X": 1, "Y": 0}, "interpolation": 2}]}, "display": 0, "duration": 10.680000305175781, "effects": [], "end": 10.680000305175781, "gravity": 4, "has_audio": {"Points": [{"co": {"X": 1, "Y": -1}, "interpolation": 2}]}, "has_video": {"Points": [{"co": {"X": 1, "Y": -1}, "interpolation": 2}]}, "id": "A95SGPNEM2", "layer": 3, "location_x": {"Points": [{"co": {"X": 1, "Y": 0}, "interpolation": 2}]}, "location_y": {"Points": [{"co": {"X": 1, "Y": 0}, "interpolation": 2}]}, "perspective_c1_x": {"Points": [{"co": {"X": 1, "Y": -1}, "interpolation": 2}]}, "perspective_c1_y": {"Points": [{"co": {"X": 1, "Y": -1}, "interpolation": 2}]}, "perspective_c2_x": {"Points": [{"co": {"X": 1, "Y": -1}, "interpolation": 2}]}, "perspective_c2_y": {"Points": [{"co": {"X": 1, "Y": -1}, "interpolation": 2}]}, "perspective_c3_x": {"Points": [{"co": {"X": 1, "Y": -1}, "interpolation": 2}]}, "perspective_c3_y": {"Points": [{"co": {"X": 1, "Y": -1}, "interpolation": 2}]}, "perspective_c4_x": {"Points": [{"co": {"X": 1, "Y": -1}, "interpolation": 2}]}, "perspective_c4_y": {"Points": [{"co": {"X": 1, "Y": -1}, "interpolation": 2}]}, "position": 172.08000007629394, "reader": {"acodec": "", "audio_bit_rate": 0, "audio_stream_index": -1, "audio_timebase": {"den": 1, "num": 1}, "channel_layout": 4, "channels": 0, "display_ratio": {"den": 9, "num": 16}, "duration": 10.680000305175781, "file_size": "841784", "fps": {"den": 1, "num": 25}, "has_audio": false, "has_single_image": false, "has_video": true, "height": 360, "interlaced_frame": false, "path": "video assets/istockphoto-1165266246-640_adpp_is.mp4", "pixel_format": 0, "pixel_ratio": {"den": 1, "num": 1}, "sample_rate": 0, "top_field_first": true, "type": "FFmpegReader", "vcodec": "h264", "video_bit_rate": 630549, "video_length": "267", "video_stream_index": 0, "video_timebase": {"den": 12800, "num": 1}, "width": 640}, "rotation": {"Points": [{"co": {"X": 1, "Y": 0}, "interpolation": 2}]}, "scale": 1, "scale_x": {"Points": [{"co": {"X": 1, "Y": 1}, "interpolation": 2}]}, "scale_y": {"Points": [{"co": {"X": 1, "Y": 1}, "interpolation": 2}]}, "shear_x": {"Points": [{"co": {"X": 1, "Y": 0}, "interpolation": 2}]}, "shear_y": {"Points": [{"co": {"X": 1, "Y": 0}, "interpolation": 2}]}, "start": 0, "time": {"Points": [{"co": {"X": 1, "Y": 1}, "interpolation": 2}]}, "volume": {"Points": [{"co": {"X": 1, "Y": 1}, "interpolation": 2}]}, "wave_color": {"alpha": {"Points": [{"co": {"X": 1, "Y": 255}, "handle_left": {"X": 0.5, "Y": 1}, "handle_right": {"X": 0.5, "Y": 0}, "handle_type": 0, "interpolation": 0}]}, "blue": {"Points": [{"co": {"X": 1, "Y": 255}, "handle_left": {"X": 0.5, "Y": 1}, "handle_right": {"X": 0.5, "Y": 0}, "handle_type": 0, "interpolation": 0}]}, "green": {"Points": [{"co": {"X": 1, "Y": 123}, "handle_left": {"X": 0.5, "Y": 1}, "handle_right": {"X": 0.5, "Y": 0}, "handle_type": 0, "interpolation": 0}]}, "red": {"Points": [{"co": {"X": 1, "Y": 0}, "handle_left": {"X": 0.5, "Y": 1}, "handle_right": {"X": 0.5, "Y": 0}, "handle_type": 0, "interpolation": 0}]}}, "waveform": false, "file_id": "TKNIYVDKGW", "title": "istockphoto-1165266246-640_adpp_is.mp4", "image": "../../../.openshot_qt/thumbnail/TKNIYVDKGW.png"}, {"alpha": {"Points": [{"co": {"X": 1, "Y": 1}, "interpolation": 2}]}, "anchor": 0, "channel_filter": {"Points": [{"co": {"X": 1, "Y": -1}, "interpolation": 2}]}, "channel_mapping": {"Points": [{"co": {"X": 1, "Y": -1}, "interpolation": 2}]}, "crop_height": {"Points": [{"co": {"X": 1, "Y": -1}, "interpolation": 2}]}, "crop_width": {"Points": [{"co": {"X": 1, "Y": -1}, "interpolation": 2}]}, "crop_x": {"Points": [{"co": {"X": 1, "Y": 0}, "interpolation": 2}]}, "crop_y": {"Points": [{"co": {"X": 1, "Y": 0}, "interpolation": 2}]}, "display": 0, "duration": 15.066991806030273, "effects": [], "end": 15.066991806030273, "gravity": 4, "has_audio": {"Points": [{"co": {"X": 1, "Y": -1}, "interpolation": 2}]}, "has_video": {"Points": [{"co": {"X": 1, "Y": -1}, "interpolation": 2}]}, "id": "ZHGYC49V4E", "layer": 3, "location_x": {"Points": [{"co": {"X": 1, "Y": 0}, "interpolation": 2}]}, "location_y": {"Points": [{"co": {"X": 1, "Y": 0}, "interpolation": 2}]}, "perspective_c1_x": {"Points": [{"co": {"X": 1, "Y": -1}, "interpolation": 2}]}, "perspective_c1_y": {"Points": [{"co": {"X": 1, "Y": -1}, "interpolation": 2}]}, "perspective_c2_x": {"Points": [{"co": {"X": 1, "Y": -1}, "interpolation": 2}]}, "perspective_c2_y": {"Points": [{"co": {"X": 1, "Y": -1}, "interpolation": 2}]}, "perspective_c3_x": {"Points": [{"co": {"X": 1, "Y": -1}, "interpolation": 2}]}, "perspective_c3_y": {"Points": [{"co": {"X": 1, "Y": -1}, "interpolation": 2}]}, "perspective_c4_x": {"Points": [{"co": {"X": 1, "Y": -1}, "interpolation": 2}]}, "perspective_c4_y": {"Points": [{"co": {"X": 1, "Y": -1}, "interpolation": 2}]}, "position": 182.82, "reader": {"acodec": "", "audio_bit_rate": 0, "audio_stream_index": -1, "audio_timebase": {"den": 1, "num": 1}, "channel_layout": 4, "channels": 0, "display_ratio": {"den": 9, "num": 16}, "duration": 15.066991806030273, "file_size": "5622748", "fps": {"den": 1, "num": 30}, "has_audio": false, "has_single_image": false, "has_video": true, "height": 1080, "interlaced_frame": false, "path": "video assets/Training - 30417.mp4", "pixel_format": 0, "pixel_ratio": {"den": 1, "num": 1}, "sample_rate": 0, "top_field_first": true, "type": "FFmpegReader", "vcodec": "h264", "video_bit_rate": 2985463, "video_length": "452", "video_stream_index": 0, "video_timebase": {"den": 15360, "num": 1}, "width": 1920}, "rotation": {"Points": [{"co": {"X": 1, "Y": 0}, "interpolation": 2}]}, "scale": 1, "scale_x": {"Points": [{"co": {"X": 1, "Y": 1}, "interpolation": 2}]}, "scale_y": {"Points": [{"co": {"X": 1, "Y": 1}, "interpolation": 2}]}, "shear_x": {"Points": [{"co": {"X": 1, "Y": 0}, "interpolation": 2}]}, "shear_y": {"Points": [{"co": {"X": 1, "Y": 0}, "interpolation": 2}]}, "start": 0, "time": {"Points": [{"co": {"X": 1, "Y": 1}, "interpolation": 2}]}, "volume": {"Points": [{"co": {"X": 1, "Y": 1}, "interpolation": 2}]}, "wave_color": {"alpha": {"Points": [{"co": {"X": 1, "Y": 255}, "handle_left": {"X": 0.5, "Y": 1}, "handle_right": {"X": 0.5, "Y": 0}, "handle_type": 0, "interpolation": 0}]}, "blue": {"Points": [{"co": {"X": 1, "Y": 255}, "handle_left": {"X": 0.5, "Y": 1}, "handle_right": {"X": 0.5, "Y": 0}, "handle_type": 0, "interpolation": 0}]}, "green": {"Points": [{"co": {"X": 1, "Y": 123}, "handle_left": {"X": 0.5, "Y": 1}, "handle_right": {"X": 0.5, "Y": 0}, "handle_type": 0, "interpolation": 0}]}, "red": {"Points": [{"co": {"X": 1, "Y": 0}, "handle_left": {"X": 0.5, "Y": 1}, "handle_right": {"X": 0.5, "Y": 0}, "handle_type": 0, "interpolation": 0}]}}, "waveform": false, "file_id": "HK4I9P85GF", "title": "Training - 30417.mp4", "image": "../../../.openshot_qt/thumbnail/HK4I9P85GF.png"}, {"alpha": {"Points": [{"co": {"X": 1, "Y": 1}, "interpolation": 2}]}, "anchor": 0, "channel_filter": {"Points": [{"co": {"X": 1, "Y": -1}, "interpolation": 2}]}, "channel_mapping": {"Points": [{"co": {"X": 1, "Y": -1}, "interpolation": 2}]}, "crop_height": {"Points": [{"co": {"X": 1, "Y": -1}, "interpolation": 2}]}, "crop_width": {"Points": [{"co": {"X": 1, "Y": -1}, "interpolation": 2}]}, "crop_x": {"Points": [{"co": {"X": 1, "Y": 0}, "interpolation": 2}]}, "crop_y": {"Points": [{"co": {"X": 1, "Y": 0}, "interpolation": 2}]}, "display": 0, "duration": 6.760000228881836, "effects": [], "end": 6.760000228881836, "gravity": 4, "has_audio": {"Points": [{"co": {"X": 1, "Y": -1}, "interpolation": 2}]}, "has_video": {"Points": [{"co": {"X": 1, "Y": -1}, "interpolation": 2}]}, "id": "SMV5H9WKLM", "layer": 3, "location_x": {"Points": [{"co": {"X": 1, "Y": 0}, "interpolation": 2}]}, "location_y": {"Points": [{"co": {"X": 1, "Y": 0}, "interpolation": 2}]}, "perspective_c1_x": {"Points": [{"co": {"X": 1, "Y": -1}, "interpolation": 2}]}, "perspective_c1_y": {"Points": [{"co": {"X": 1, "Y": -1}, "interpolation": 2}]}, "perspective_c2_x": {"Points": [{"co": {"X": 1, "Y": -1}, "interpolation": 2}]}, "perspective_c2_y": {"Points": [{"co": {"X": 1, "Y": -1}, "interpolation": 2}]}, "perspective_c3_x": {"Points": [{"co": {"X": 1, "Y": -1}, "interpolation": 2}]}, "perspective_c3_y": {"Points": [{"co": {"X": 1, "Y": -1}, "interpolation": 2}]}, "perspective_c4_x": {"Points": [{"co": {"X": 1, "Y": -1}, "interpolation": 2}]}, "perspective_c4_y": {"Points": [{"co": {"X": 1, "Y": -1}, "interpolation": 2}]}, "position": 197.9475, "reader": {"acodec": "", "audio_bit_rate": 0, "audio_stream_index": -1, "audio_timebase": {"den": 1, "num": 1}, "channel_layout": 4, "channels": 0, "display_ratio": {"den": 84, "num": 149}, "duration": 6.760000228881836, "file_size": "286173", "fps": {"den": 1, "num": 25}, "has_audio": false, "has_single_image": false, "has_video": true, "height": 336, "interlaced_frame": false, "path": "video assets/1036992635-preview.mp4", "pixel_format": 0, "pixel_ratio": {"den": 1, "num": 1}, "sample_rate": 0, "top_field_first": true, "type": "FFmpegReader", "vcodec": "h264", "video_bit_rate": 338666, "video_length": "169", "video_stream_index": 0, "video_timebase": {"den": 12800, "num": 1}, "width": 596}, "rotation": {"Points": [{"co": {"X": 1, "Y": 0}, "interpolation": 2}]}, "scale": 1, "scale_x": {"Points": [{"co": {"X": 1, "Y": 1}, "interpolation": 2}]}, "scale_y": {"Points": [{"co": {"X": 1, "Y": 1}, "interpolation": 2}]}, "shear_x": {"Points": [{"co": {"X": 1, "Y": 0}, "interpolation": 2}]}, "shear_y": {"Points": [{"co": {"X": 1, "Y": 0}, "interpolation": 2}]}, "start": 0, "time": {"Points": [{"co": {"X": 1, "Y": 1}, "interpolation": 2}]}, "volume": {"Points": [{"co": {"X": 1, "Y": 1}, "interpolation": 2}]}, "wave_color": {"alpha": {"Points": [{"co": {"X": 1, "Y": 255}, "handle_left": {"X": 0.5, "Y": 1}, "handle_right": {"X": 0.5, "Y": 0}, "handle_type": 0, "interpolation": 0}]}, "blue": {"Points": [{"co": {"X": 1, "Y": 255}, "handle_left": {"X": 0.5, "Y": 1}, "handle_right": {"X": 0.5, "Y": 0}, "handle_type": 0, "interpolation": 0}]}, "green": {"Points": [{"co": {"X": 1, "Y": 123}, "handle_left": {"X": 0.5, "Y": 1}, "handle_right": {"X": 0.5, "Y": 0}, "handle_type": 0, "interpolation": 0}]}, "red": {"Points": [{"co": {"X": 1, "Y": 0}, "handle_left": {"X": 0.5, "Y": 1}, "handle_right": {"X": 0.5, "Y": 0}, "handle_type": 0, "interpolation": 0}]}}, "waveform": false, "file_id": "7RHPWGPYIR", "title": "1036992635-preview.mp4", "image": "../../../.openshot_qt/thumbnail/7RHPWGPYIR.png"}, {"alpha": {"Points": [{"co": {"X": 1, "Y": 1}, "interpolation": 2}]}, "anchor": 0, "channel_filter": {"Points": [{"co": {"X": 1, "Y": -1}, "interpolation": 2}]}, "channel_mapping": {"Points": [{"co": {"X": 1, "Y": -1}, "interpolation": 2}]}, "crop_height": {"Points": [{"co": {"X": 1, "Y": -1}, "interpolation": 2}]}, "crop_width": {"Points": [{"co": {"X": 1, "Y": -1}, "interpolation": 2}]}, "crop_x": {"Points": [{"co": {"X": 1, "Y": 0}, "interpolation": 2}]}, "crop_y": {"Points": [{"co": {"X": 1, "Y": 0}, "interpolation": 2}]}, "display": 0, "duration": 12.479999542236328, "effects": [], "end": 12.479999542236328, "gravity": 4, "has_audio": {"Points": [{"co": {"X": 1, "Y": -1}, "interpolation": 2}]}, "has_video": {"Points": [{"co": {"X": 1, "Y": -1}, "interpolation": 2}]}, "id": "YV4VIGQETQ", "layer": 2, "location_x": {"Points": [{"co": {"X": 1, "Y": 0}, "interpolation": 2}]}, "location_y": {"Points": [{"co": {"X": 1, "Y": 0}, "interpolation": 2}]}, "perspective_c1_x": {"Points": [{"co": {"X": 1, "Y": -1}, "interpolation": 2}]}, "perspective_c1_y": {"Points": [{"co": {"X": 1, "Y": -1}, "interpolation": 2}]}, "perspective_c2_x": {"Points": [{"co": {"X": 1, "Y": -1}, "interpolation": 2}]}, "perspective_c2_y": {"Points": [{"co": {"X": 1, "Y": -1}, "interpolation": 2}]}, "perspective_c3_x": {"Points": [{"co": {"X": 1, "Y": -1}, "interpolation": 2}]}, "perspective_c3_y": {"Points": [{"co": {"X": 1, "Y": -1}, "interpolation": 2}]}, "perspective_c4_x": {"Points": [{"co": {"X": 1, "Y": -1}, "interpolation": 2}]}, "perspective_c4_y": {"Points": [{"co": {"X": 1, "Y": -1}, "interpolation": 2}]}, "position": 185.46656249999998, "reader": {"acodec": "", "audio_bit_rate": 0, "audio_stream_index": -1, "audio_timebase": {"den": 1, "num": 1}, "channel_layout": 4, "channels": 0, "display_ratio": {"den": 84, "num": 149}, "duration": 12.479999542236328, "file_size": "1377383", "fps": {"den": 1, "num": 25}, "has_audio": false, "has_single_image": false, "has_video": true, "height": 336, "interlaced_frame": false, "path": "video assets/1035271574-preview.mp4", "pixel_format": 0, "pixel_ratio": {"den": 1, "num": 1}, "sample_rate": 0, "top_field_first": true, "type": "FFmpegReader", "vcodec": "h264", "video_bit_rate": 882937, "video_length": "312", "video_stream_index": 0, "video_timebase": {"den": 12800, "num": 1}, "width": 596}, "rotation": {"Points": [{"co": {"X": 1, "Y": 0}, "interpolation": 2}]}, "scale": 1, "scale_x": {"Points": [{"co": {"X": 1, "Y": 1}, "interpolation": 2}]}, "scale_y": {"Points": [{"co": {"X": 1, "Y": 1}, "interpolation": 2}]}, "shear_x": {"Points": [{"co": {"X": 1, "Y": 0}, "interpolation": 2}]}, "shear_y": {"Points": [{"co": {"X": 1, "Y": 0}, "interpolation": 2}]}, "start": 0, "time": {"Points": [{"co": {"X": 1, "Y": 1}, "interpolation": 2}]}, "volume": {"Points": [{"co": {"X": 1, "Y": 1}, "interpolation": 2}]}, "wave_color": {"alpha": {"Points": [{"co": {"X": 1, "Y": 255}, "handle_left": {"X": 0.5, "Y": 1}, "handle_right": {"X": 0.5, "Y": 0}, "handle_type": 0, "interpolation": 0}]}, "blue": {"Points": [{"co": {"X": 1, "Y": 255}, "handle_left": {"X": 0.5, "Y": 1}, "handle_right": {"X": 0.5, "Y": 0}, "handle_type": 0, "interpolation": 0}]}, "green": {"Points": [{"co": {"X": 1, "Y": 123}, "handle_left": {"X": 0.5, "Y": 1}, "handle_right": {"X": 0.5, "Y": 0}, "handle_type": 0, "interpolation": 0}]}, "red": {"Points": [{"co": {"X": 1, "Y": 0}, "handle_left": {"X": 0.5, "Y": 1}, "handle_right": {"X": 0.5, "Y": 0}, "handle_type": 0, "interpolation": 0}]}}, "waveform": false, "file_id": "D9LWSONSN7", "title": "1035271574-preview.mp4", "image": "../../../.openshot_qt/thumbnail/D9LWSONSN7.png"}, {"alpha": {"Points": [{"co": {"X": 1, "Y": 1}, "interpolation": 2}]}, "anchor": 0, "channel_filter": {"Points": [{"co": {"X": 1, "Y": -1}, "interpolation": 2}]}, "channel_mapping": {"Points": [{"co": {"X": 1, "Y": -1}, "interpolation": 2}]}, "crop_height": {"Points": [{"co": {"X": 1, "Y": -1}, "interpolation": 2}]}, "crop_width": {"Points": [{"co": {"X": 1, "Y": -1}, "interpolation": 2}]}, "crop_x": {"Points": [{"co": {"X": 1, "Y": 0}, "interpolation": 2}]}, "crop_y": {"Points": [{"co": {"X": 1, "Y": 0}, "interpolation": 2}]}, "display": 0, "duration": 9.876999855041504, "effects": [], "end": 9.876999855041504, "gravity": 4, "has_audio": {"Points": [{"co": {"X": 1, "Y": -1}, "interpolation": 2}]}, "has_video": {"Points": [{"co": {"X": 1, "Y": -1}, "interpolation": 2}]}, "id": "PI0T3VQEKQ", "layer": 3, "location_x": {"Points": [{"co": {"X": 1, "Y": 0}, "interpolation": 2}]}, "location_y": {"Points": [{"co": {"X": 1, "Y": 0}, "interpolation": 2}]}, "perspective_c1_x": {"Points": [{"co": {"X": 1, "Y": -1}, "interpolation": 2}]}, "perspective_c1_y": {"Points": [{"co": {"X": 1, "Y": -1}, "interpolation": 2}]}, "perspective_c2_x": {"Points": [{"co": {"X": 1, "Y": -1}, "interpolation": 2}]}, "perspective_c2_y": {"Points": [{"co": {"X": 1, "Y": -1}, "interpolation": 2}]}, "perspective_c3_x": {"Points": [{"co": {"X": 1, "Y": -1}, "interpolation": 2}]}, "perspective_c3_y": {"Points": [{"co": {"X": 1, "Y": -1}, "interpolation": 2}]}, "perspective_c4_x": {"Points": [{"co": {"X": 1, "Y": -1}, "interpolation": 2}]}, "perspective_c4_y": {"Points": [{"co": {"X": 1, "Y": -1}, "interpolation": 2}]}, "position": 262.3475, "reader": {"acodec": "", "audio_bit_rate": 0, "audio_stream_index": -1, "audio_timebase": {"den": 1, "num": 1}, "channel_layout": 4, "channels": 0, "display_ratio": {"den": 84, "num": 149}, "duration": 9.876999855041504, "file_size": "1089677", "fps": {"den": 1001, "num": 30000}, "has_audio": false, "has_single_image": false, "has_video": true, "height": 336, "interlaced_frame": false, "path": "video assets/1035604484-preview.mp4", "pixel_format": 0, "pixel_ratio": {"den": 1, "num": 1}, "sample_rate": 0, "top_field_first": true, "type": "FFmpegReader", "vcodec": "h264", "video_bit_rate": 882597, "video_length": "296", "video_stream_index": 0, "video_timebase": {"den": 30000, "num": 1}, "width": 596}, "rotation": {"Points": [{"co": {"X": 1, "Y": 0}, "interpolation": 2}]}, "scale": 1, "scale_x": {"Points": [{"co": {"X": 1, "Y": 1}, "interpolation": 2}]}, "scale_y": {"Points": [{"co": {"X": 1, "Y": 1}, "interpolation": 2}]}, "shear_x": {"Points": [{"co": {"X": 1, "Y": 0}, "interpolation": 2}]}, "shear_y": {"Points": [{"co": {"X": 1, "Y": 0}, "interpolation": 2}]}, "start": 0, "time": {"Points": [{"co": {"X": 1, "Y": 1}, "interpolation": 2}]}, "volume": {"Points": [{"co": {"X": 1, "Y": 1}, "interpolation": 2}]}, "wave_color": {"alpha": {"Points": [{"co": {"X": 1, "Y": 255}, "handle_left": {"X": 0.5, "Y": 1}, "handle_right": {"X": 0.5, "Y": 0}, "handle_type": 0, "interpolation": 0}]}, "blue": {"Points": [{"co": {"X": 1, "Y": 255}, "handle_left": {"X": 0.5, "Y": 1}, "handle_right": {"X": 0.5, "Y": 0}, "handle_type": 0, "interpolation": 0}]}, "green": {"Points": [{"co": {"X": 1, "Y": 123}, "handle_left": {"X": 0.5, "Y": 1}, "handle_right": {"X": 0.5, "Y": 0}, "handle_type": 0, "interpolation": 0}]}, "red": {"Points": [{"co": {"X": 1, "Y": 0}, "handle_left": {"X": 0.5, "Y": 1}, "handle_right": {"X": 0.5, "Y": 0}, "handle_type": 0, "interpolation": 0}]}}, "waveform": false, "file_id": "FC9NLBSBPT", "title": "1035604484-preview.mp4", "image": "../../../.openshot_qt/thumbnail/FC9NLBSBPT.png"}, {"alpha": {"Points": [{"co": {"X": 1, "Y": 1}, "interpolation": 2}]}, "anchor": 0, "channel_filter": {"Points": [{"co": {"X": 1, "Y": -1}, "interpolation": 2}]}, "channel_mapping": {"Points": [{"co": {"X": 1, "Y": -1}, "interpolation": 2}]}, "crop_height": {"Points": [{"co": {"X": 1, "Y": -1}, "interpolation": 2}]}, "crop_width": {"Points": [{"co": {"X": 1, "Y": -1}, "interpolation": 2}]}, "crop_x": {"Points": [{"co": {"X": 1, "Y": 0}, "interpolation": 2}]}, "crop_y": {"Points": [{"co": {"X": 1, "Y": 0}, "interpolation": 2}]}, "display": 0, "duration": 11.345000267028809, "effects": [], "end": 11.345000267028809, "gravity": 4, "has_audio": {"Points": [{"co": {"X": 1, "Y": -1}, "interpolation": 2}]}, "has_video": {"Points": [{"co": {"X": 1, "Y": -1}, "interpolation": 2}]}, "id": "7BA7UKZEQV", "layer": 3, "location_x": {"Points": [{"co": {"X": 1, "Y": 0}, "interpolation": 2}]}, "location_y": {"Points": [{"co": {"X": 1, "Y": 0}, "interpolation": 2}]}, "perspective_c1_x": {"Points": [{"co": {"X": 1, "Y": -1}, "interpolation": 2}]}, "perspective_c1_y": {"Points": [{"co": {"X": 1, "Y": -1}, "interpolation": 2}]}, "perspective_c2_x": {"Points": [{"co": {"X": 1, "Y": -1}, "interpolation": 2}]}, "perspective_c2_y": {"Points": [{"co": {"X": 1, "Y": -1}, "interpolation": 2}]}, "perspective_c3_x": {"Points": [{"co": {"X": 1, "Y": -1}, "interpolation": 2}]}, "perspective_c3_y": {"Points": [{"co": {"X": 1, "Y": -1}, "interpolation": 2}]}, "perspective_c4_x": {"Points": [{"co": {"X": 1, "Y": -1}, "interpolation": 2}]}, "perspective_c4_y": {"Points": [{"co": {"X": 1, "Y": -1}, "interpolation": 2}]}, "position": 204.766875, "reader": {"acodec": "", "audio_bit_rate": 0, "audio_stream_index": -1, "audio_timebase": {"den": 1, "num": 1}, "channel_layout": 4, "channels": 0, "display_ratio": {"den": 84, "num": 149}, "duration": 11.345000267028809, "file_size": "585096", "fps": {"den": 1001, "num": 30000}, "has_audio": false, "has_single_image": false, "has_video": true, "height": 336, "interlaced_frame": false, "path": "video assets/1054197290-preview.mp4", "pixel_format": 0, "pixel_ratio": {"den": 1, "num": 1}, "sample_rate": 0, "top_field_first": true, "type": "FFmpegReader", "vcodec": "h264", "video_bit_rate": 412584, "video_length": "340", "video_stream_index": 0, "video_timebase": {"den": 30000, "num": 1}, "width": 596}, "rotation": {"Points": [{"co": {"X": 1, "Y": 0}, "interpolation": 2}]}, "scale": 1, "scale_x": {"Points": [{"co": {"X": 1, "Y": 1}, "interpolation": 2}]}, "scale_y": {"Points": [{"co": {"X": 1, "Y": 1}, "interpolation": 2}]}, "shear_x": {"Points": [{"co": {"X": 1, "Y": 0}, "interpolation": 2}]}, "shear_y": {"Points": [{"co": {"X": 1, "Y": 0}, "interpolation": 2}]}, "start": 0, "time": {"Points": [{"co": {"X": 1, "Y": 1}, "interpolation": 2}]}, "volume": {"Points": [{"co": {"X": 1, "Y": 1}, "interpolation": 2}]}, "wave_color": {"alpha": {"Points": [{"co": {"X": 1, "Y": 255}, "handle_left": {"X": 0.5, "Y": 1}, "handle_right": {"X": 0.5, "Y": 0}, "handle_type": 0, "interpolation": 0}]}, "blue": {"Points": [{"co": {"X": 1, "Y": 255}, "handle_left": {"X": 0.5, "Y": 1}, "handle_right": {"X": 0.5, "Y": 0}, "handle_type": 0, "interpolation": 0}]}, "green": {"Points": [{"co": {"X": 1, "Y": 123}, "handle_left": {"X": 0.5, "Y": 1}, "handle_right": {"X": 0.5, "Y": 0}, "handle_type": 0, "interpolation": 0}]}, "red": {"Points": [{"co": {"X": 1, "Y": 0}, "handle_left": {"X": 0.5, "Y": 1}, "handle_right": {"X": 0.5, "Y": 0}, "handle_type": 0, "interpolation": 0}]}}, "waveform": false, "file_id": "NSJHHWMT9I", "title": "1054197290-preview.mp4", "image": "../../../.openshot_qt/thumbnail/NSJHHWMT9I.png"}, {"alpha": {"Points": [{"co": {"X": 1, "Y": 1}, "interpolation": 2}]}, "anchor": 0, "channel_filter": {"Points": [{"co": {"X": 1, "Y": -1}, "interpolation": 2}]}, "channel_mapping": {"Points": [{"co": {"X": 1, "Y": -1}, "interpolation": 2}]}, "crop_height": {"Points": [{"co": {"X": 1, "Y": -1}, "interpolation": 2}]}, "crop_width": {"Points": [{"co": {"X": 1, "Y": -1}, "interpolation": 2}]}, "crop_x": {"Points": [{"co": {"X": 1, "Y": 0}, "interpolation": 2}]}, "crop_y": {"Points": [{"co": {"X": 1, "Y": 0}, "interpolation": 2}]}, "display": 0, "duration": 36.5369987487793, "effects": [], "end": 36.5369987487793, "gravity": 4, "has_audio": {"Points": [{"co": {"X": 1, "Y": -1}, "interpolation": 2}]}, "has_video": {"Points": [{"co": {"X": 1, "Y": -1}, "interpolation": 2}]}, "id": "DQZBHY174R", "layer": 3, "location_x": {"Points": [{"co": {"X": 1, "Y": 0}, "interpolation": 2}]}, "location_y": {"Points": [{"co": {"X": 1, "Y": 0}, "interpolation": 2}]}, "perspective_c1_x": {"Points": [{"co": {"X": 1, "Y": -1}, "interpolation": 2}]}, "perspective_c1_y": {"Points": [{"co": {"X": 1, "Y": -1}, "interpolation": 2}]}, "perspective_c2_x": {"Points": [{"co": {"X": 1, "Y": -1}, "interpolation": 2}]}, "perspective_c2_y": {"Points": [{"co": {"X": 1, "Y": -1}, "interpolation": 2}]}, "perspective_c3_x": {"Points": [{"co": {"X": 1, "Y": -1}, "interpolation": 2}]}, "perspective_c3_y": {"Points": [{"co": {"X": 1, "Y": -1}, "interpolation": 2}]}, "perspective_c4_x": {"Points": [{"co": {"X": 1, "Y": -1}, "interpolation": 2}]}, "perspective_c4_y": {"Points": [{"co": {"X": 1, "Y": -1}, "interpolation": 2}]}, "position": 225.8119923019409, "reader": {"acodec": "", "audio_bit_rate": 0, "audio_stream_index": -1, "audio_timebase": {"den": 1, "num": 1}, "channel_layout": 4, "channels": 0, "display_ratio": {"den": 84, "num": 149}, "duration": 36.5369987487793, "file_size": "4196192", "fps": {"den": 1001, "num": 30000}, "has_audio": false, "has_single_image": false, "has_video": true, "height": 336, "interlaced_frame": false, "path": "video assets/33052981-preview.mp4", "pixel_format": 0, "pixel_ratio": {"den": 1, "num": 1}, "sample_rate": 0, "top_field_first": true, "type": "FFmpegReader", "vcodec": "h264", "video_bit_rate": 918781, "video_length": "1095", "video_stream_index": 0, "video_timebase": {"den": 30000, "num": 1}, "width": 596}, "rotation": {"Points": [{"co": {"X": 1, "Y": 0}, "interpolation": 2}]}, "scale": 1, "scale_x": {"Points": [{"co": {"X": 1, "Y": 1}, "interpolation": 2}]}, "scale_y": {"Points": [{"co": {"X": 1, "Y": 1}, "interpolation": 2}]}, "shear_x": {"Points": [{"co": {"X": 1, "Y": 0}, "interpolation": 2}]}, "shear_y": {"Points": [{"co": {"X": 1, "Y": 0}, "interpolation": 2}]}, "start": 0, "time": {"Points": [{"co": {"X": 1, "Y": 1}, "interpolation": 2}]}, "volume": {"Points": [{"co": {"X": 1, "Y": 1}, "interpolation": 2}]}, "wave_color": {"alpha": {"Points": [{"co": {"X": 1, "Y": 255}, "handle_left": {"X": 0.5, "Y": 1}, "handle_right": {"X": 0.5, "Y": 0}, "handle_type": 0, "interpolation": 0}]}, "blue": {"Points": [{"co": {"X": 1, "Y": 255}, "handle_left": {"X": 0.5, "Y": 1}, "handle_right": {"X": 0.5, "Y": 0}, "handle_type": 0, "interpolation": 0}]}, "green": {"Points": [{"co": {"X": 1, "Y": 123}, "handle_left": {"X": 0.5, "Y": 1}, "handle_right": {"X": 0.5, "Y": 0}, "handle_type": 0, "interpolation": 0}]}, "red": {"Points": [{"co": {"X": 1, "Y": 0}, "handle_left": {"X": 0.5, "Y": 1}, "handle_right": {"X": 0.5, "Y": 0}, "handle_type": 0, "interpolation": 0}]}}, "waveform": false, "file_id": "EWG01CHQ4Z", "title": "33052981-preview.mp4", "image": "../../../.openshot_qt/thumbnail/EWG01CHQ4Z.png"}, {"alpha": {"Points": [{"co": {"X": 1, "Y": 1}, "interpolation": 2}]}, "anchor": 0, "channel_filter": {"Points": [{"co": {"X": 1, "Y": -1}, "interpolation": 2}]}, "channel_mapping": {"Points": [{"co": {"X": 1, "Y": -1}, "interpolation": 2}]}, "crop_height": {"Points": [{"co": {"X": 1, "Y": -1}, "interpolation": 2}]}, "crop_width": {"Points": [{"co": {"X": 1, "Y": -1}, "interpolation": 2}]}, "crop_x": {"Points": [{"co": {"X": 1, "Y": 0}, "interpolation": 2}]}, "crop_y": {"Points": [{"co": {"X": 1, "Y": 0}, "interpolation": 2}]}, "display": 0, "duration": 25.458999633789062, "effects": [], "end": 25.458999633789062, "gravity": 4, "has_audio": {"Points": [{"co": {"X": 1, "Y": -1}, "interpolation": 2}]}, "has_video": {"Points": [{"co": {"X": 1, "Y": -1}, "interpolation": 2}]}, "id": "X7NXO3B9RG", "layer": 2, "location_x": {"Points": [{"co": {"X": 1, "Y": 0}, "interpolation": 2}]}, "location_y": {"Points": [{"co": {"X": 1, "Y": 0}, "interpolation": 2}]}, "perspective_c1_x": {"Points": [{"co": {"X": 1, "Y": -1}, "interpolation": 2}]}, "perspective_c1_y": {"Points": [{"co": {"X": 1, "Y": -1}, "interpolation": 2}]}, "perspective_c2_x": {"Points": [{"co": {"X": 1, "Y": -1}, "interpolation": 2}]}, "perspective_c2_y": {"Points": [{"co": {"X": 1, "Y": -1}, "interpolation": 2}]}, "perspective_c3_x": {"Points": [{"co": {"X": 1, "Y": -1}, "interpolation": 2}]}, "perspective_c3_y": {"Points": [{"co": {"X": 1, "Y": -1}, "interpolation": 2}]}, "perspective_c4_x": {"Points": [{"co": {"X": 1, "Y": -1}, "interpolation": 2}]}, "perspective_c4_y": {"Points": [{"co": {"X": 1, "Y": -1}, "interpolation": 2}]}, "position": 225.8119923019409, "reader": {"acodec": "", "audio_bit_rate": 0, "audio_stream_index": -1, "audio_timebase": {"den": 1, "num": 1}, "channel_layout": 4, "channels": 0, "display_ratio": {"den": 84, "num": 149}, "duration": 25.458999633789062, "file_size": "3043969", "fps": {"den": 1001, "num": 30000}, "has_audio": false, "has_single_image": false, "has_video": true, "height": 336, "interlaced_frame": false, "path": "video assets/1007373979-preview.mp4", "pixel_format": 0, "pixel_ratio": {"den": 1, "num": 1}, "sample_rate": 0, "top_field_first": true, "type": "FFmpegReader", "vcodec": "h264", "video_bit_rate": 956508, "video_length": "763", "video_stream_index": 0, "video_timebase": {"den": 30000, "num": 1}, "width": 596}, "rotation": {"Points": [{"co": {"X": 1, "Y": 0}, "interpolation": 2}]}, "scale": 1, "scale_x": {"Points": [{"co": {"X": 1, "Y": 1}, "interpolation": 2}]}, "scale_y": {"Points": [{"co": {"X": 1, "Y": 1}, "interpolation": 2}]}, "shear_x": {"Points": [{"co": {"X": 1, "Y": 0}, "interpolation": 2}]}, "shear_y": {"Points": [{"co": {"X": 1, "Y": 0}, "interpolation": 2}]}, "start": 0, "time": {"Points": [{"co": {"X": 1, "Y": 1}, "interpolation": 2}]}, "volume": {"Points": [{"co": {"X": 1, "Y": 1}, "interpolation": 2}]}, "wave_color": {"alpha": {"Points": [{"co": {"X": 1, "Y": 255}, "handle_left": {"X": 0.5, "Y": 1}, "handle_right": {"X": 0.5, "Y": 0}, "handle_type": 0, "interpolation": 0}]}, "blue": {"Points": [{"co": {"X": 1, "Y": 255}, "handle_left": {"X": 0.5, "Y": 1}, "handle_right": {"X": 0.5, "Y": 0}, "handle_type": 0, "interpolation": 0}]}, "green": {"Points": [{"co": {"X": 1, "Y": 123}, "handle_left": {"X": 0.5, "Y": 1}, "handle_right": {"X": 0.5, "Y": 0}, "handle_type": 0, "interpolation": 0}]}, "red": {"Points": [{"co": {"X": 1, "Y": 0}, "handle_left": {"X": 0.5, "Y": 1}, "handle_right": {"X": 0.5, "Y": 0}, "handle_type": 0, "interpolation": 0}]}}, "waveform": false, "file_id": "SQO0PHY2HX", "title": "1007373979-preview.mp4", "image": "../../../.openshot_qt/thumbnail/SQO0PHY2HX.png"}, {"alpha": {"Points": [{"co": {"X": 1, "Y": 1}, "interpolation": 2}]}, "anchor": 0, "channel_filter": {"Points": [{"co": {"X": 1, "Y": -1}, "interpolation": 2}]}, "channel_mapping": {"Points": [{"co": {"X": 1, "Y": -1}, "interpolation": 2}]}, "crop_height": {"Points": [{"co": {"X": 1, "Y": -1}, "interpolation": 2}]}, "crop_width": {"Points": [{"co": {"X": 1, "Y": -1}, "interpolation": 2}]}, "crop_x": {"Points": [{"co": {"X": 1, "Y": 0}, "interpolation": 2}]}, "crop_y": {"Points": [{"co": {"X": 1, "Y": 0}, "interpolation": 2}]}, "display": 0, "duration": 9.920000076293945, "effects": [], "end": 9.920000076293945, "gravity": 4, "has_audio": {"Points": [{"co": {"X": 1, "Y": -1}, "interpolation": 2}]}, "has_video": {"Points": [{"co": {"X": 1, "Y": -1}, "interpolation": 2}]}, "id": "6E7JZ7ZMGT", "layer": 3, "location_x": {"Points": [{"co": {"X": 1, "Y": 0}, "interpolation": 2}]}, "location_y": {"Points": [{"co": {"X": 1, "Y": 0}, "interpolation": 2}]}, "perspective_c1_x": {"Points": [{"co": {"X": 1, "Y": -1}, "interpolation": 2}]}, "perspective_c1_y": {"Points": [{"co": {"X": 1, "Y": -1}, "interpolation": 2}]}, "perspective_c2_x": {"Points": [{"co": {"X": 1, "Y": -1}, "interpolation": 2}]}, "perspective_c2_y": {"Points": [{"co": {"X": 1, "Y": -1}, "interpolation": 2}]}, "perspective_c3_x": {"Points": [{"co": {"X": 1, "Y": -1}, "interpolation": 2}]}, "perspective_c3_y": {"Points": [{"co": {"X": 1, "Y": -1}, "interpolation": 2}]}, "perspective_c4_x": {"Points": [{"co": {"X": 1, "Y": -1}, "interpolation": 2}]}, "perspective_c4_y": {"Points": [{"co": {"X": 1, "Y": -1}, "interpolation": 2}]}, "position": 282.88, "reader": {"acodec": "", "audio_bit_rate": 0, "audio_stream_index": -1, "audio_timebase": {"den": 1, "num": 1}, "channel_layout": 4, "channels": 0, "display_ratio": {"den": 84, "num": 149}, "duration": 9.920000076293945, "file_size": "1198046", "fps": {"den": 1, "num": 25}, "has_audio": false, "has_single_image": false, "has_video": true, "height": 336, "interlaced_frame": false, "path": "video assets/1016309740-preview.mp4", "pixel_format": 0, "pixel_ratio": {"den": 1, "num": 1}, "sample_rate": 0, "top_field_first": true, "type": "FFmpegReader", "vcodec": "h264", "video_bit_rate": 966166, "video_length": "248", "video_stream_index": 0, "video_timebase": {"den": 12800, "num": 1}, "width": 596}, "rotation": {"Points": [{"co": {"X": 1, "Y": 0}, "interpolation": 2}]}, "scale": 1, "scale_x": {"Points": [{"co": {"X": 1, "Y": 1}, "interpolation": 2}]}, "scale_y": {"Points": [{"co": {"X": 1, "Y": 1}, "interpolation": 2}]}, "shear_x": {"Points": [{"co": {"X": 1, "Y": 0}, "interpolation": 2}]}, "shear_y": {"Points": [{"co": {"X": 1, "Y": 0}, "interpolation": 2}]}, "start": 0, "time": {"Points": [{"co": {"X": 1, "Y": 1}, "interpolation": 2}]}, "volume": {"Points": [{"co": {"X": 1, "Y": 1}, "interpolation": 2}]}, "wave_color": {"alpha": {"Points": [{"co": {"X": 1, "Y": 255}, "handle_left": {"X": 0.5, "Y": 1}, "handle_right": {"X": 0.5, "Y": 0}, "handle_type": 0, "interpolation": 0}]}, "blue": {"Points": [{"co": {"X": 1, "Y": 255}, "handle_left": {"X": 0.5, "Y": 1}, "handle_right": {"X": 0.5, "Y": 0}, "handle_type": 0, "interpolation": 0}]}, "green": {"Points": [{"co": {"X": 1, "Y": 123}, "handle_left": {"X": 0.5, "Y": 1}, "handle_right": {"X": 0.5, "Y": 0}, "handle_type": 0, "interpolation": 0}]}, "red": {"Points": [{"co": {"X": 1, "Y": 0}, "handle_left": {"X": 0.5, "Y": 1}, "handle_right": {"X": 0.5, "Y": 0}, "handle_type": 0, "interpolation": 0}]}}, "waveform": false, "file_id": "8T4SK39XZY", "title": "1016309740-preview.mp4", "image": "../../../.openshot_qt/thumbnail/8T4SK39XZY.png"}, {"alpha": {"Points": [{"co": {"X": 1, "Y": 1}, "interpolation": 2}]}, "anchor": 0, "channel_filter": {"Points": [{"co": {"X": 1, "Y": -1}, "interpolation": 2}]}, "channel_mapping": {"Points": [{"co": {"X": 1, "Y": -1}, "interpolation": 2}]}, "crop_height": {"Points": [{"co": {"X": 1, "Y": -1}, "interpolation": 2}]}, "crop_width": {"Points": [{"co": {"X": 1, "Y": -1}, "interpolation": 2}]}, "crop_x": {"Points": [{"co": {"X": 1, "Y": 0}, "interpolation": 2}]}, "crop_y": {"Points": [{"co": {"X": 1, "Y": 0}, "interpolation": 2}]}, "display": 0, "duration": 46.0, "effects": [], "end": 46, "gravity": 4, "has_audio": {"Points": [{"co": {"X": 1, "Y": -1}, "interpolation": 2}]}, "has_video": {"Points": [{"co": {"X": 1, "Y": -1}, "interpolation": 2}]}, "id": "TGDE0HH714", "layer": 3, "location_x": {"Points": [{"co": {"X": 1, "Y": 0}, "interpolation": 2}]}, "location_y": {"Points": [{"co": {"X": 1, "Y": 0}, "interpolation": 2}]}, "perspective_c1_x": {"Points": [{"co": {"X": 1, "Y": -1}, "interpolation": 2}]}, "perspective_c1_y": {"Points": [{"co": {"X": 1, "Y": -1}, "interpolation": 2}]}, "perspective_c2_x": {"Points": [{"co": {"X": 1, "Y": -1}, "interpolation": 2}]}, "perspective_c2_y": {"Points": [{"co": {"X": 1, "Y": -1}, "interpolation": 2}]}, "perspective_c3_x": {"Points": [{"co": {"X": 1, "Y": -1}, "interpolation": 2}]}, "perspective_c3_y": {"Points": [{"co": {"X": 1, "Y": -1}, "interpolation": 2}]}, "perspective_c4_x": {"Points": [{"co": {"X": 1, "Y": -1}, "interpolation": 2}]}, "perspective_c4_y": {"Points": [{"co": {"X": 1, "Y": -1}, "interpolation": 2}]}, "position": 295.2, "reader": {"acodec": "", "audio_bit_rate": 0, "audio_stream_index": -1, "audio_timebase": {"den": 1, "num": 1}, "channel_layout": 4, "channels": 0, "display_ratio": {"den": 84, "num": 149}, "duration": 46.0, "file_size": "4877662", "fps": {"den": 1, "num": 25}, "has_audio": false, "has_single_image": false, "has_video": true, "height": 336, "interlaced_frame": false, "path": "video assets/23705650-preview.mp4", "pixel_format": 0, "pixel_ratio": {"den": 1, "num": 1}, "sample_rate": 0, "top_field_first": true, "type": "FFmpegReader", "vcodec": "h264", "video_bit_rate": 848289, "video_length": "1150", "video_stream_index": 0, "video_timebase": {"den": 12800, "num": 1}, "width": 596}, "rotation": {"Points": [{"co": {"X": 1, "Y": 0}, "interpolation": 2}]}, "scale": 1, "scale_x": {"Points": [{"co": {"X": 1, "Y": 1}, "interpolation": 2}]}, "scale_y": {"Points": [{"co": {"X": 1, "Y": 1}, "interpolation": 2}]}, "shear_x": {"Points": [{"co": {"X": 1, "Y": 0}, "interpolation": 2}]}, "shear_y": {"Points": [{"co": {"X": 1, "Y": 0}, "interpolation": 2}]}, "start": 0, "time": {"Points": [{"co": {"X": 1, "Y": 1}, "interpolation": 2}]}, "volume": {"Points": [{"co": {"X": 1, "Y": 1}, "interpolation": 2}]}, "wave_color": {"alpha": {"Points": [{"co": {"X": 1, "Y": 255}, "handle_left": {"X": 0.5, "Y": 1}, "handle_right": {"X": 0.5, "Y": 0}, "handle_type": 0, "interpolation": 0}]}, "blue": {"Points": [{"co": {"X": 1, "Y": 255}, "handle_left": {"X": 0.5, "Y": 1}, "handle_right": {"X": 0.5, "Y": 0}, "handle_type": 0, "interpolation": 0}]}, "green": {"Points": [{"co": {"X": 1, "Y": 123}, "handle_left": {"X": 0.5, "Y": 1}, "handle_right": {"X": 0.5, "Y": 0}, "handle_type": 0, "interpolation": 0}]}, "red": {"Points": [{"co": {"X": 1, "Y": 0}, "handle_left": {"X": 0.5, "Y": 1}, "handle_right": {"X": 0.5, "Y": 0}, "handle_type": 0, "interpolation": 0}]}}, "waveform": false, "file_id": "VGKFBXYU5S", "title": "23705650-preview.mp4", "image": "../../../.openshot_qt/thumbnail/VGKFBXYU5S.png"}, {"alpha": {"Points": [{"co": {"X": 1, "Y": 1}, "interpolation": 2}]}, "anchor": 0, "channel_filter": {"Points": [{"co": {"X": 1, "Y": -1}, "interpolation": 2}]}, "channel_mapping": {"Points": [{"co": {"X": 1, "Y": -1}, "interpolation": 2}]}, "crop_height": {"Points": [{"co": {"X": 1, "Y": -1}, "interpolation": 2}]}, "crop_width": {"Points": [{"co": {"X": 1, "Y": -1}, "interpolation": 2}]}, "crop_x": {"Points": [{"co": {"X": 1, "Y": 0}, "interpolation": 2}]}, "crop_y": {"Points": [{"co": {"X": 1, "Y": 0}, "interpolation": 2}]}, "display": 0, "duration": 46.0, "effects": [], "end": 46, "gravity": 4, "has_audio": {"Points": [{"co": {"X": 1, "Y": -1}, "interpolation": 2}]}, "has_video": {"Points": [{"co": {"X": 1, "Y": -1}, "interpolation": 2}]}, "id": "WS8DVA2S90", "layer": 3, "location_x": {"Points": [{"co": {"X": 1, "Y": 0}, "interpolation": 2}]}, "location_y": {"Points": [{"co": {"X": 1, "Y": 0}, "interpolation": 2}]}, "perspective_c1_x": {"Points": [{"co": {"X": 1, "Y": -1}, "interpolation": 2}]}, "perspective_c1_y": {"Points": [{"co": {"X": 1, "Y": -1}, "interpolation": 2}]}, "perspective_c2_x": {"Points": [{"co": {"X": 1, "Y": -1}, "interpolation": 2}]}, "perspective_c2_y": {"Points": [{"co": {"X": 1, "Y": -1}, "interpolation": 2}]}, "perspective_c3_x": {"Points": [{"co": {"X": 1, "Y": -1}, "interpolation": 2}]}, "perspective_c3_y": {"Points": [{"co": {"X": 1, "Y": -1}, "interpolation": 2}]}, "perspective_c4_x": {"Points": [{"co": {"X": 1, "Y": -1}, "interpolation": 2}]}, "perspective_c4_y": {"Points": [{"co": {"X": 1, "Y": -1}, "interpolation": 2}]}, "position": 343.2, "reader": {"acodec": "", "audio_bit_rate": 0, "audio_stream_index": -1, "audio_timebase": {"den": 1, "num": 1}, "channel_layout": 4, "channels": 0, "display_ratio": {"den": 84, "num": 149}, "duration": 46.0, "file_size": "4973482", "fps": {"den": 1, "num": 25}, "has_audio": false, "has_single_image": false, "has_video": true, "height": 336, "interlaced_frame": false, "path": "video assets/22138156-preview.mp4", "pixel_format": 0, "pixel_ratio": {"den": 1, "num": 1}, "sample_rate": 0, "top_field_first": true, "type": "FFmpegReader", "vcodec": "h264", "video_bit_rate": 864953, "video_length": "1150", "video_stream_index": 0, "video_timebase": {"den": 12800, "num": 1}, "width": 596}, "rotation": {"Points": [{"co": {"X": 1, "Y": 0}, "interpolation": 2}]}, "scale": 1, "scale_x": {"Points": [{"co": {"X": 1, "Y": 1}, "interpolation": 2}]}, "scale_y": {"Points": [{"co": {"X": 1, "Y": 1}, "interpolation": 2}]}, "shear_x": {"Points": [{"co": {"X": 1, "Y": 0}, "interpolation": 2}]}, "shear_y": {"Points": [{"co": {"X": 1, "Y": 0}, "interpolation": 2}]}, "start": 0, "time": {"Points": [{"co": {"X": 1, "Y": 1}, "interpolation": 2}]}, "volume": {"Points": [{"co": {"X": 1, "Y": 1}, "interpolation": 2}]}, "wave_color": {"alpha": {"Points": [{"co": {"X": 1, "Y": 255}, "handle_left": {"X": 0.5, "Y": 1}, "handle_right": {"X": 0.5, "Y": 0}, "handle_type": 0, "interpolation": 0}]}, "blue": {"Points": [{"co": {"X": 1, "Y": 255}, "handle_left": {"X": 0.5, "Y": 1}, "handle_right": {"X": 0.5, "Y": 0}, "handle_type": 0, "interpolation": 0}]}, "green": {"Points": [{"co": {"X": 1, "Y": 123}, "handle_left": {"X": 0.5, "Y": 1}, "handle_right": {"X": 0.5, "Y": 0}, "handle_type": 0, "interpolation": 0}]}, "red": {"Points": [{"co": {"X": 1, "Y": 0}, "handle_left": {"X": 0.5, "Y": 1}, "handle_right": {"X": 0.5, "Y": 0}, "handle_type": 0, "interpolation": 0}]}}, "waveform": false, "file_id": "ZOUCJ0XQII", "title": "22138156-preview.mp4", "image": "../../../.openshot_qt/thumbnail/ZOUCJ0XQII.png"}, {"alpha": {"Points": [{"co": {"X": 1, "Y": 1}, "interpolation": 2}]}, "anchor": 0, "channel_filter": {"Points": [{"co": {"X": 1, "Y": -1}, "interpolation": 2}]}, "channel_mapping": {"Points": [{"co": {"X": 1, "Y": -1}, "interpolation": 2}]}, "crop_height": {"Points": [{"co": {"X": 1, "Y": -1}, "interpolation": 2}]}, "crop_width": {"Points": [{"co": {"X": 1, "Y": -1}, "interpolation": 2}]}, "crop_x": {"Points": [{"co": {"X": 1, "Y": 0}, "interpolation": 2}]}, "crop_y": {"Points": [{"co": {"X": 1, "Y": 0}, "interpolation": 2}]}, "display": 0, "duration": 15.016016006469727, "effects": [], "end": 15.016016006469727, "gravity": 4, "has_audio": {"Points": [{"co": {"X": 1, "Y": -1}, "interpolation": 2}]}, "has_video": {"Points": [{"co": {"X": 1, "Y": -1}, "interpolation": 2}]}, "id": "71258V3T0Z", "layer": 3, "location_x": {"Points": [{"co": {"X": 1, "Y": 0}, "interpolation": 2}]}, "location_y": {"Points": [{"co": {"X": 1, "Y": 0}, "interpolation": 2}]}, "perspective_c1_x": {"Points": [{"co": {"X": 1, "Y": -1}, "interpolation": 2}]}, "perspective_c1_y": {"Points": [{"co": {"X": 1, "Y": -1}, "interpolation": 2}]}, "perspective_c2_x": {"Points": [{"co": {"X": 1, "Y": -1}, "interpolation": 2}]}, "perspective_c2_y": {"Points": [{"co": {"X": 1, "Y": -1}, "interpolation": 2}]}, "perspective_c3_x": {"Points": [{"co": {"X": 1, "Y": -1}, "interpolation": 2}]}, "perspective_c3_y": {"Points": [{"co": {"X": 1, "Y": -1}, "interpolation": 2}]}, "perspective_c4_x": {"Points": [{"co": {"X": 1, "Y": -1}, "interpolation": 2}]}, "perspective_c4_y": {"Points": [{"co": {"X": 1, "Y": -1}, "interpolation": 2}]}, "position": 389.2, "reader": {"acodec": "", "audio_bit_rate": 0, "audio_stream_index": -1, "audio_timebase": {"den": 1, "num": 1}, "channel_layout": 4, "channels": 0, "display_ratio": {"den": 84, "num": 149}, "duration": 15.016016006469727, "file_size": "1590835", "fps": {"den": 100, "num": 2997}, "has_audio": false, "has_single_image": false, "has_video": true, "height": 336, "interlaced_frame": false, "path": "video assets/1265275-preview.mp4", "pixel_format": 0, "pixel_ratio": {"den": 1, "num": 1}, "sample_rate": 0, "top_field_first": true, "type": "FFmpegReader", "vcodec": "h264", "video_bit_rate": 847541, "video_length": "450", "video_stream_index": 0, "video_timebase": {"den": 2997, "num": 1}, "width": 596}, "rotation": {"Points": [{"co": {"X": 1, "Y": 0}, "interpolation": 2}]}, "scale": 1, "scale_x": {"Points": [{"co": {"X": 1, "Y": 1}, "interpolation": 2}]}, "scale_y": {"Points": [{"co": {"X": 1, "Y": 1}, "interpolation": 2}]}, "shear_x": {"Points": [{"co": {"X": 1, "Y": 0}, "interpolation": 2}]}, "shear_y": {"Points": [{"co": {"X": 1, "Y": 0}, "interpolation": 2}]}, "start": 0, "time": {"Points": [{"co": {"X": 1, "Y": 1}, "interpolation": 2}]}, "volume": {"Points": [{"co": {"X": 1, "Y": 1}, "interpolation": 2}]}, "wave_color": {"alpha": {"Points": [{"co": {"X": 1, "Y": 255}, "handle_left": {"X": 0.5, "Y": 1}, "handle_right": {"X": 0.5, "Y": 0}, "handle_type": 0, "interpolation": 0}]}, "blue": {"Points": [{"co": {"X": 1, "Y": 255}, "handle_left": {"X": 0.5, "Y": 1}, "handle_right": {"X": 0.5, "Y": 0}, "handle_type": 0, "interpolation": 0}]}, "green": {"Points": [{"co": {"X": 1, "Y": 123}, "handle_left": {"X": 0.5, "Y": 1}, "handle_right": {"X": 0.5, "Y": 0}, "handle_type": 0, "interpolation": 0}]}, "red": {"Points": [{"co": {"X": 1, "Y": 0}, "handle_left": {"X": 0.5, "Y": 1}, "handle_right": {"X": 0.5, "Y": 0}, "handle_type": 0, "interpolation": 0}]}}, "waveform": false, "file_id": "WCGA0NGXVJ", "title": "1265275-preview.mp4", "image": "../../../.openshot_qt/thumbnail/WCGA0NGXVJ.png"}, {"alpha": {"Points": [{"co": {"X": 1, "Y": 1}, "interpolation": 2}]}, "anchor": 0, "channel_filter": {"Points": [{"co": {"X": 1, "Y": -1}, "interpolation": 2}]}, "channel_mapping": {"Points": [{"co": {"X": 1, "Y": -1}, "interpolation": 2}]}, "crop_height": {"Points": [{"co": {"X": 1, "Y": -1}, "interpolation": 2}]}, "crop_width": {"Points": [{"co": {"X": 1, "Y": -1}, "interpolation": 2}]}, "crop_x": {"Points": [{"co": {"X": 1, "Y": 0}, "interpolation": 2}]}, "crop_y": {"Points": [{"co": {"X": 1, "Y": 0}, "interpolation": 2}]}, "display": 0, "duration": 10.239999771118164, "effects": [], "end": 10.239999771118164, "gravity": 4, "has_audio": {"Points": [{"co": {"X": 1, "Y": -1}, "interpolation": 2}]}, "has_video": {"Points": [{"co": {"X": 1, "Y": -1}, "interpolation": 2}]}, "id": "6MMM42S9QO", "layer": 3, "location_x": {"Points": [{"co": {"X": 1, "Y": 0}, "interpolation": 2}]}, "location_y": {"Points": [{"co": {"X": 1, "Y": 0}, "interpolation": 2}]}, "perspective_c1_x": {"Points": [{"co": {"X": 1, "Y": -1}, "interpolation": 2}]}, "perspective_c1_y": {"Points": [{"co": {"X": 1, "Y": -1}, "interpolation": 2}]}, "perspective_c2_x": {"Points": [{"co": {"X": 1, "Y": -1}, "interpolation": 2}]}, "perspective_c2_y": {"Points": [{"co": {"X": 1, "Y": -1}, "interpolation": 2}]}, "perspective_c3_x": {"Points": [{"co": {"X": 1, "Y": -1}, "interpolation": 2}]}, "perspective_c3_y": {"Points": [{"co": {"X": 1, "Y": -1}, "interpolation": 2}]}, "perspective_c4_x": {"Points": [{"co": {"X": 1, "Y": -1}, "interpolation": 2}]}, "perspective_c4_y": {"Points": [{"co": {"X": 1, "Y": -1}, "interpolation": 2}]}, "position": 404.215, "reader": {"acodec": "aac", "audio_bit_rate": 2089, "audio_stream_index": 1, "audio_timebase": {"den": 44100, "num": 1}, "channel_layout": 3, "channels": 2, "display_ratio": {"den": 84, "num": 149}, "duration": 10.239999771118164, "file_size": "1678485", "fps": {"den": 100, "num": 2997}, "has_audio": true, "has_single_image": false, "has_video": true, "height": 336, "interlaced_frame": false, "path": "video assets/3592964-preview.mp4", "pixel_format": 0, "pixel_ratio": {"den": 1, "num": 1}, "sample_rate": 44100, "top_field_first": true, "type": "FFmpegReader", "vcodec": "h264", "video_bit_rate": 1310804, "video_length": "307", "video_stream_index": 0, "video_timebase": {"den": 2997, "num": 1}, "width": 596}, "rotation": {"Points": [{"co": {"X": 1, "Y": 0}, "interpolation": 2}]}, "scale": 1, "scale_x": {"Points": [{"co": {"X": 1, "Y": 1}, "interpolation": 2}]}, "scale_y": {"Points": [{"co": {"X": 1, "Y": 1}, "interpolation": 2}]}, "shear_x": {"Points": [{"co": {"X": 1, "Y": 0}, "interpolation": 2}]}, "shear_y": {"Points": [{"co": {"X": 1, "Y": 0}, "interpolation": 2}]}, "start": 0, "time": {"Points": [{"co": {"X": 1, "Y": 1}, "interpolation": 2}]}, "volume": {"Points": [{"co": {"X": 1, "Y": 1}, "interpolation": 2}]}, "wave_color": {"alpha": {"Points": [{"co": {"X": 1, "Y": 255}, "handle_left": {"X": 0.5, "Y": 1}, "handle_right": {"X": 0.5, "Y": 0}, "handle_type": 0, "interpolation": 0}]}, "blue": {"Points": [{"co": {"X": 1, "Y": 255}, "handle_left": {"X": 0.5, "Y": 1}, "handle_right": {"X": 0.5, "Y": 0}, "handle_type": 0, "interpolation": 0}]}, "green": {"Points": [{"co": {"X": 1, "Y": 123}, "handle_left": {"X": 0.5, "Y": 1}, "handle_right": {"X": 0.5, "Y": 0}, "handle_type": 0, "interpolation": 0}]}, "red": {"Points": [{"co": {"X": 1, "Y": 0}, "handle_left": {"X": 0.5, "Y": 1}, "handle_right": {"X": 0.5, "Y": 0}, "handle_type": 0, "interpolation": 0}]}}, "waveform": false, "file_id": "G0HUTQ2EM1", "title": "3592964-preview.mp4", "image": "../../../.openshot_qt/thumbnail/G0HUTQ2EM1.png"}, {"alpha": {"Points": [{"co": {"X": 1, "Y": 1}, "interpolation": 2}]}, "anchor": 0, "channel_filter": {"Points": [{"co": {"X": 1, "Y": -1}, "interpolation": 2}]}, "channel_mapping": {"Points": [{"co": {"X": 1, "Y": -1}, "interpolation": 2}]}, "crop_height": {"Points": [{"co": {"X": 1, "Y": -1}, "interpolation": 2}]}, "crop_width": {"Points": [{"co": {"X": 1, "Y": -1}, "interpolation": 2}]}, "crop_x": {"Points": [{"co": {"X": 1, "Y": 0}, "interpolation": 2}]}, "crop_y": {"Points": [{"co": {"X": 1, "Y": 0}, "interpolation": 2}]}, "display": 0, "duration": 8.035011291503906, "effects": [], "end": 8.035011291503906, "gravity": 4, "has_audio": {"Points": [{"co": {"X": 1, "Y": -1}, "interpolation": 2}]}, "has_video": {"Points": [{"co": {"X": 1, "Y": -1}, "interpolation": 2}]}, "id": "IF2JTNIVJD", "layer": 2, "location_x": {"Points": [{"co": {"X": 1, "Y": 0}, "interpolation": 2}]}, "location_y": {"Points": [{"co": {"X": 1, "Y": 0}, "interpolation": 2}]}, "perspective_c1_x": {"Points": [{"co": {"X": 1, "Y": -1}, "interpolation": 2}]}, "perspective_c1_y": {"Points": [{"co": {"X": 1, "Y": -1}, "interpolation": 2}]}, "perspective_c2_x": {"Points": [{"co": {"X": 1, "Y": -1}, "interpolation": 2}]}, "perspective_c2_y": {"Points": [{"co": {"X": 1, "Y": -1}, "interpolation": 2}]}, "perspective_c3_x": {"Points": [{"co": {"X": 1, "Y": -1}, "interpolation": 2}]}, "perspective_c3_y": {"Points": [{"co": {"X": 1, "Y": -1}, "interpolation": 2}]}, "perspective_c4_x": {"Points": [{"co": {"X": 1, "Y": -1}, "interpolation": 2}]}, "perspective_c4_y": {"Points": [{"co": {"X": 1, "Y": -1}, "interpolation": 2}]}, "position": 299.2, "reader": {"acodec": "aac", "audio_bit_rate": 2095, "audio_stream_index": 1, "audio_timebase": {"den": 44100, "num": 1}, "channel_layout": 3, "channels": 2, "display_ratio": {"den": 84, "num": 149}, "duration": 8.035011291503906, "file_size": "947319", "fps": {"den": 100, "num": 2997}, "has_audio": true, "has_single_image": false, "has_video": true, "height": 336, "interlaced_frame": false, "path": "video assets/3594023-preview.mp4", "pixel_format": 0, "pixel_ratio": {"den": 1, "num": 1}, "sample_rate": 44100, "top_field_first": true, "type": "FFmpegReader", "vcodec": "h264", "video_bit_rate": 942371, "video_length": "241", "video_stream_index": 0, "video_timebase": {"den": 2997, "num": 1}, "width": 596}, "rotation": {"Points": [{"co": {"X": 1, "Y": 0}, "interpolation": 2}]}, "scale": 1, "scale_x": {"Points": [{"co": {"X": 1, "Y": 1}, "interpolation": 2}]}, "scale_y": {"Points": [{"co": {"X": 1, "Y": 1}, "interpolation": 2}]}, "shear_x": {"Points": [{"co": {"X": 1, "Y": 0}, "interpolation": 2}]}, "shear_y": {"Points": [{"co": {"X": 1, "Y": 0}, "interpolation": 2}]}, "start": 0, "time": {"Points": [{"co": {"X": 1, "Y": 1}, "interpolation": 2}]}, "volume": {"Points": [{"co": {"X": 1, "Y": 1}, "interpolation": 2}]}, "wave_color": {"alpha": {"Points": [{"co": {"X": 1, "Y": 255}, "handle_left": {"X": 0.5, "Y": 1}, "handle_right": {"X": 0.5, "Y": 0}, "handle_type": 0, "interpolation": 0}]}, "blue": {"Points": [{"co": {"X": 1, "Y": 255}, "handle_left": {"X": 0.5, "Y": 1}, "handle_right": {"X": 0.5, "Y": 0}, "handle_type": 0, "interpolation": 0}]}, "green": {"Points": [{"co": {"X": 1, "Y": 123}, "handle_left": {"X": 0.5, "Y": 1}, "handle_right": {"X": 0.5, "Y": 0}, "handle_type": 0, "interpolation": 0}]}, "red": {"Points": [{"co": {"X": 1, "Y": 0}, "handle_left": {"X": 0.5, "Y": 1}, "handle_right": {"X": 0.5, "Y": 0}, "handle_type": 0, "interpolation": 0}]}}, "waveform": false, "file_id": "HXED1LNWZL", "title": "3594023-preview.mp4", "image": "../../../.openshot_qt/thumbnail/HXED1LNWZL.png"}, {"alpha": {"Points": [{"co": {"X": 1, "Y": 1}, "interpolation": 2}]}, "anchor": 0, "channel_filter": {"Points": [{"co": {"X": 1, "Y": -1}, "interpolation": 2}]}, "channel_mapping": {"Points": [{"co": {"X": 1, "Y": -1}, "interpolation": 2}]}, "crop_height": {"Points": [{"co": {"X": 1, "Y": -1}, "interpolation": 2}]}, "crop_width": {"Points": [{"co": {"X": 1, "Y": -1}, "interpolation": 2}]}, "crop_x": {"Points": [{"co": {"X": 1, "Y": 0}, "interpolation": 2}]}, "crop_y": {"Points": [{"co": {"X": 1, "Y": 0}, "interpolation": 2}]}, "display": 0, "duration": 21.689022064208984, "effects": [], "end": 21.689022064208984, "gravity": 4, "has_audio": {"Points": [{"co": {"X": 1, "Y": -1}, "interpolation": 2}]}, "has_video": {"Points": [{"co": {"X": 1, "Y": -1}, "interpolation": 2}]}, "id": "04XEF8WYBI", "layer": 2, "location_x": {"Points": [{"co": {"X": 1, "Y": 0}, "interpolation": 2}]}, "location_y": {"Points": [{"co": {"X": 1, "Y": 0}, "interpolation": 2}]}, "perspective_c1_x": {"Points": [{"co": {"X": 1, "Y": -1}, "interpolation": 2}]}, "perspective_c1_y": {"Points": [{"co": {"X": 1, "Y": -1}, "interpolation": 2}]}, "perspective_c2_x": {"Points": [{"co": {"X": 1, "Y": -1}, "interpolation": 2}]}, "perspective_c2_y": {"Points": [{"co": {"X": 1, "Y": -1}, "interpolation": 2}]}, "perspective_c3_x": {"Points": [{"co": {"X": 1, "Y": -1}, "interpolation": 2}]}, "perspective_c3_y": {"Points": [{"co": {"X": 1, "Y": -1}, "interpolation": 2}]}, "perspective_c4_x": {"Points": [{"co": {"X": 1, "Y": -1}, "interpolation": 2}]}, "perspective_c4_y": {"Points": [{"co": {"X": 1, "Y": -1}, "interpolation": 2}]}, "position": 311.04, "reader": {"acodec": "", "audio_bit_rate": 0, "audio_stream_index": -1, "audio_timebase": {"den": 1, "num": 1}, "channel_layout": 4, "channels": 0, "display_ratio": {"den": 84, "num": 149}, "duration": 21.689022064208984, "file_size": "2480680", "fps": {"den": 100, "num": 2997}, "has_audio": false, "has_single_image": false, "has_video": true, "height": 336, "interlaced_frame": false, "path": "video assets/4371524-preview.mp4", "pixel_format": 0, "pixel_ratio": {"den": 1, "num": 1}, "sample_rate": 0, "top_field_first": true, "type": "FFmpegReader", "vcodec": "h264", "video_bit_rate": 915000, "video_length": "650", "video_stream_index": 0, "video_timebase": {"den": 2997, "num": 1}, "width": 596}, "rotation": {"Points": [{"co": {"X": 1, "Y": 0}, "interpolation": 2}]}, "scale": 1, "scale_x": {"Points": [{"co": {"X": 1, "Y": 1}, "interpolation": 2}]}, "scale_y": {"Points": [{"co": {"X": 1, "Y": 1}, "interpolation": 2}]}, "shear_x": {"Points": [{"co": {"X": 1, "Y": 0}, "interpolation": 2}]}, "shear_y": {"Points": [{"co": {"X": 1, "Y": 0}, "interpolation": 2}]}, "start": 0, "time": {"Points": [{"co": {"X": 1, "Y": 1}, "interpolation": 2}]}, "volume": {"Points": [{"co": {"X": 1, "Y": 1}, "interpolation": 2}]}, "wave_color": {"alpha": {"Points": [{"co": {"X": 1, "Y": 255}, "handle_left": {"X": 0.5, "Y": 1}, "handle_right": {"X": 0.5, "Y": 0}, "handle_type": 0, "interpolation": 0}]}, "blue": {"Points": [{"co": {"X": 1, "Y": 255}, "handle_left": {"X": 0.5, "Y": 1}, "handle_right": {"X": 0.5, "Y": 0}, "handle_type": 0, "interpolation": 0}]}, "green": {"Points": [{"co": {"X": 1, "Y": 123}, "handle_left": {"X": 0.5, "Y": 1}, "handle_right": {"X": 0.5, "Y": 0}, "handle_type": 0, "interpolation": 0}]}, "red": {"Points": [{"co": {"X": 1, "Y": 0}, "handle_left": {"X": 0.5, "Y": 1}, "handle_right": {"X": 0.5, "Y": 0}, "handle_type": 0, "interpolation": 0}]}}, "waveform": false, "file_id": "3XRS1VUDFX", "title": "4371524-preview.mp4", "image": "../../../.openshot_qt/thumbnail/3XRS1VUDFX.png"}, {"alpha": {"Points": [{"co": {"X": 1, "Y": 1}, "interpolation": 2}]}, "anchor": 0, "channel_filter": {"Points": [{"co": {"X": 1, "Y": -1}, "interpolation": 2}]}, "channel_mapping": {"Points": [{"co": {"X": 1, "Y": -1}, "interpolation": 2}]}, "crop_height": {"Points": [{"co": {"X": 1, "Y": -1}, "interpolation": 2}]}, "crop_width": {"Points": [{"co": {"X": 1, "Y": -1}, "interpolation": 2}]}, "crop_x": {"Points": [{"co": {"X": 1, "Y": 0}, "interpolation": 2}]}, "crop_y": {"Points": [{"co": {"X": 1, "Y": 0}, "interpolation": 2}]}, "display": 0, "duration": 17.959999084472656, "effects": [], "end": 17.959999084472656, "gravity": 4, "has_audio": {"Points": [{"co": {"X": 1, "Y": -1}, "interpolation": 2}]}, "has_video": {"Points": [{"co": {"X": 1, "Y": -1}, "interpolation": 2}]}, "id": "YBSM4IH6IO", "layer": 2, "location_x": {"Points": [{"co": {"X": 1, "Y": 0}, "interpolation": 2}]}, "location_y": {"Points": [{"co": {"X": 1, "Y": 0}, "interpolation": 2}]}, "perspective_c1_x": {"Points": [{"co": {"X": 1, "Y": -1}, "interpolation": 2}]}, "perspective_c1_y": {"Points": [{"co": {"X": 1, "Y": -1}, "interpolation": 2}]}, "perspective_c2_x": {"Points": [{"co": {"X": 1, "Y": -1}, "interpolation": 2}]}, "perspective_c2_y": {"Points": [{"co": {"X": 1, "Y": -1}, "interpolation": 2}]}, "perspective_c3_x": {"Points": [{"co": {"X": 1, "Y": -1}, "interpolation": 2}]}, "perspective_c3_y": {"Points": [{"co": {"X": 1, "Y": -1}, "interpolation": 2}]}, "perspective_c4_x": {"Points": [{"co": {"X": 1, "Y": -1}, "interpolation": 2}]}, "perspective_c4_y": {"Points": [{"co": {"X": 1, "Y": -1}, "interpolation": 2}]}, "position": 337.12, "reader": {"acodec": "", "audio_bit_rate": 0, "audio_stream_index": -1, "audio_timebase": {"den": 1, "num": 1}, "channel_layout": 4, "channels": 0, "display_ratio": {"den": 84, "num": 149}, "duration": 17.959999084472656, "file_size": "2128140", "fps": {"den": 1, "num": 25}, "has_audio": false, "has_single_image": false, "has_video": true, "height": 336, "interlaced_frame": false, "path": "video assets/6070205-preview.mp4", "pixel_format": 0, "pixel_ratio": {"den": 1, "num": 1}, "sample_rate": 0, "top_field_first": true, "type": "FFmpegReader", "vcodec": "h264", "video_bit_rate": 947946, "video_length": "449", "video_stream_index": 0, "video_timebase": {"den": 12800, "num": 1}, "width": 596}, "rotation": {"Points": [{"co": {"X": 1, "Y": 0}, "interpolation": 2}]}, "scale": 1, "scale_x": {"Points": [{"co": {"X": 1, "Y": 1}, "interpolation": 2}]}, "scale_y": {"Points": [{"co": {"X": 1, "Y": 1}, "interpolation": 2}]}, "shear_x": {"Points": [{"co": {"X": 1, "Y": 0}, "interpolation": 2}]}, "shear_y": {"Points": [{"co": {"X": 1, "Y": 0}, "interpolation": 2}]}, "start": 0, "time": {"Points": [{"co": {"X": 1, "Y": 1}, "interpolation": 2}]}, "volume": {"Points": [{"co": {"X": 1, "Y": 1}, "interpolation": 2}]}, "wave_color": {"alpha": {"Points": [{"co": {"X": 1, "Y": 255}, "handle_left": {"X": 0.5, "Y": 1}, "handle_right": {"X": 0.5, "Y": 0}, "handle_type": 0, "interpolation": 0}]}, "blue": {"Points": [{"co": {"X": 1, "Y": 255}, "handle_left": {"X": 0.5, "Y": 1}, "handle_right": {"X": 0.5, "Y": 0}, "handle_type": 0, "interpolation": 0}]}, "green": {"Points": [{"co": {"X": 1, "Y": 123}, "handle_left": {"X": 0.5, "Y": 1}, "handle_right": {"X": 0.5, "Y": 0}, "handle_type": 0, "interpolation": 0}]}, "red": {"Points": [{"co": {"X": 1, "Y": 0}, "handle_left": {"X": 0.5, "Y": 1}, "handle_right": {"X": 0.5, "Y": 0}, "handle_type": 0, "interpolation": 0}]}}, "waveform": false, "file_id": "HRHP5RQDW2", "title": "6070205-preview.mp4", "image": "../../../.openshot_qt/thumbnail/HRHP5RQDW2.png"}, {"alpha": {"Points": [{"co": {"X": 1, "Y": 1}, "interpolation": 2}]}, "anchor": 0, "channel_filter": {"Points": [{"co": {"X": 1, "Y": -1}, "interpolation": 2}]}, "channel_mapping": {"Points": [{"co": {"X": 1, "Y": -1}, "interpolation": 2}]}, "crop_height": {"Points": [{"co": {"X": 1, "Y": -1}, "interpolation": 2}]}, "crop_width": {"Points": [{"co": {"X": 1, "Y": -1}, "interpolation": 2}]}, "crop_x": {"Points": [{"co": {"X": 1, "Y": 0}, "interpolation": 2}]}, "crop_y": {"Points": [{"co": {"X": 1, "Y": 0}, "interpolation": 2}]}, "display": 0, "duration": 30.0, "effects": [], "end": 30, "gravity": 4, "has_audio": {"Points": [{"co": {"X": 1, "Y": -1}, "interpolation": 2}]}, "has_video": {"Points": [{"co": {"X": 1, "Y": -1}, "interpolation": 2}]}, "id": "DWJQ9OZ2JK", "layer": 2, "location_x": {"Points": [{"co": {"X": 1, "Y": 0}, "interpolation": 2}]}, "location_y": {"Points": [{"co": {"X": 1, "Y": 0}, "interpolation": 2}]}, "perspective_c1_x": {"Points": [{"co": {"X": 1, "Y": -1}, "interpolation": 2}]}, "perspective_c1_y": {"Points": [{"co": {"X": 1, "Y": -1}, "interpolation": 2}]}, "perspective_c2_x": {"Points": [{"co": {"X": 1, "Y": -1}, "interpolation": 2}]}, "perspective_c2_y": {"Points": [{"co": {"X": 1, "Y": -1}, "interpolation": 2}]}, "perspective_c3_x": {"Points": [{"co": {"X": 1, "Y": -1}, "interpolation": 2}]}, "perspective_c3_y": {"Points": [{"co": {"X": 1, "Y": -1}, "interpolation": 2}]}, "perspective_c4_x": {"Points": [{"co": {"X": 1, "Y": -1}, "interpolation": 2}]}, "perspective_c4_y": {"Points": [{"co": {"X": 1, "Y": -1}, "interpolation": 2}]}, "position": 359.36, "reader": {"acodec": "", "audio_bit_rate": 0, "audio_stream_index": -1, "audio_timebase": {"den": 1, "num": 1}, "channel_layout": 4, "channels": 0, "display_ratio": {"den": 84, "num": 149}, "duration": 30.0, "file_size": "3680524", "fps": {"den": 1, "num": 30}, "has_audio": false, "has_single_image": false, "has_video": true, "height": 336, "interlaced_frame": false, "path": "video assets/11728724-preview.mp4", "pixel_format": 0, "pixel_ratio": {"den": 1, "num": 1}, "sample_rate": 0, "top_field_first": true, "type": "FFmpegReader", "vcodec": "h264", "video_bit_rate": 981473, "video_length": "900", "video_stream_index": 0, "video_timebase": {"den": 15360, "num": 1}, "width": 596}, "rotation": {"Points": [{"co": {"X": 1, "Y": 0}, "interpolation": 2}]}, "scale": 1, "scale_x": {"Points": [{"co": {"X": 1, "Y": 1}, "interpolation": 2}]}, "scale_y": {"Points": [{"co": {"X": 1, "Y": 1}, "interpolation": 2}]}, "shear_x": {"Points": [{"co": {"X": 1, "Y": 0}, "interpolation": 2}]}, "shear_y": {"Points": [{"co": {"X": 1, "Y": 0}, "interpolation": 2}]}, "start": 0, "time": {"Points": [{"co": {"X": 1, "Y": 1}, "interpolation": 2}]}, "volume": {"Points": [{"co": {"X": 1, "Y": 1}, "interpolation": 2}]}, "wave_color": {"alpha": {"Points": [{"co": {"X": 1, "Y": 255}, "handle_left": {"X": 0.5, "Y": 1}, "handle_right": {"X": 0.5, "Y": 0}, "handle_type": 0, "interpolation": 0}]}, "blue": {"Points": [{"co": {"X": 1, "Y": 255}, "handle_left": {"X": 0.5, "Y": 1}, "handle_right": {"X": 0.5, "Y": 0}, "handle_type": 0, "interpolation": 0}]}, "green": {"Points": [{"co": {"X": 1, "Y": 123}, "handle_left": {"X": 0.5, "Y": 1}, "handle_right": {"X": 0.5, "Y": 0}, "handle_type": 0, "interpolation": 0}]}, "red": {"Points": [{"co": {"X": 1, "Y": 0}, "handle_left": {"X": 0.5, "Y": 1}, "handle_right": {"X": 0.5, "Y": 0}, "handle_type": 0, "interpolation": 0}]}}, "waveform": false, "file_id": "MK67AURUUX", "title": "11728724-preview.mp4", "image": "../../../.openshot_qt/thumbnail/MK67AURUUX.png"}, {"alpha": {"Points": [{"co": {"X": 1, "Y": 1}, "interpolation": 2}]}, "anchor": 0, "channel_filter": {"Points": [{"co": {"X": 1, "Y": -1}, "interpolation": 2}]}, "channel_mapping": {"Points": [{"co": {"X": 1, "Y": -1}, "interpolation": 2}]}, "crop_height": {"Points": [{"co": {"X": 1, "Y": -1}, "interpolation": 2}]}, "crop_width": {"Points": [{"co": {"X": 1, "Y": -1}, "interpolation": 2}]}, "crop_x": {"Points": [{"co": {"X": 1, "Y": 0}, "interpolation": 2}]}, "crop_y": {"Points": [{"co": {"X": 1, "Y": 0}, "interpolation": 2}]}, "display": 0, "duration": 10.678000450134277, "effects": [], "end": 10.678000450134277, "gravity": 4, "has_audio": {"Points": [{"co": {"X": 1, "Y": -1}, "interpolation": 2}]}, "has_video": {"Points": [{"co": {"X": 1, "Y": -1}, "interpolation": 2}]}, "id": "9YPO39K8W5", "layer": 2, "location_x": {"Points": [{"co": {"X": 1, "Y": 0}, "interpolation": 2}]}, "location_y": {"Points": [{"co": {"X": 1, "Y": 0}, "interpolation": 2}]}, "perspective_c1_x": {"Points": [{"co": {"X": 1, "Y": -1}, "interpolation": 2}]}, "perspective_c1_y": {"Points": [{"co": {"X": 1, "Y": -1}, "interpolation": 2}]}, "perspective_c2_x": {"Points": [{"co": {"X": 1, "Y": -1}, "interpolation": 2}]}, "perspective_c2_y": {"Points": [{"co": {"X": 1, "Y": -1}, "interpolation": 2}]}, "perspective_c3_x": {"Points": [{"co": {"X": 1, "Y": -1}, "interpolation": 2}]}, "perspective_c3_y": {"Points": [{"co": {"X": 1, "Y": -1}, "interpolation": 2}]}, "perspective_c4_x": {"Points": [{"co": {"X": 1, "Y": -1}, "interpolation": 2}]}, "perspective_c4_y": {"Points": [{"co": {"X": 1, "Y": -1}, "interpolation": 2}]}, "position": 389.36, "reader": {"acodec": "", "audio_bit_rate": 0, "audio_stream_index": -1, "audio_timebase": {"den": 1, "num": 1}, "channel_layout": 4, "channels": 0, "display_ratio": {"den": 84, "num": 149}, "duration": 10.678000450134277, "file_size": "1248338", "fps": {"den": 1001, "num": 30000}, "has_audio": false, "has_single_image": false, "has_video": true, "height": 336, "interlaced_frame": false, "path": "video assets/17157313-preview.mp4", "pixel_format": 0, "pixel_ratio": {"den": 1, "num": 1}, "sample_rate": 0, "top_field_first": true, "type": "FFmpegReader", "vcodec": "h264", "video_bit_rate": 935259, "video_length": "320", "video_stream_index": 0, "video_timebase": {"den": 30000, "num": 1}, "width": 596}, "rotation": {"Points": [{"co": {"X": 1, "Y": 0}, "interpolation": 2}]}, "scale": 1, "scale_x": {"Points": [{"co": {"X": 1, "Y": 1}, "interpolation": 2}]}, "scale_y": {"Points": [{"co": {"X": 1, "Y": 1}, "interpolation": 2}]}, "shear_x": {"Points": [{"co": {"X": 1, "Y": 0}, "interpolation": 2}]}, "shear_y": {"Points": [{"co": {"X": 1, "Y": 0}, "interpolation": 2}]}, "start": 0, "time": {"Points": [{"co": {"X": 1, "Y": 1}, "interpolation": 2}]}, "volume": {"Points": [{"co": {"X": 1, "Y": 1}, "interpolation": 2}]}, "wave_color": {"alpha": {"Points": [{"co": {"X": 1, "Y": 255}, "handle_left": {"X": 0.5, "Y": 1}, "handle_right": {"X": 0.5, "Y": 0}, "handle_type": 0, "interpolation": 0}]}, "blue": {"Points": [{"co": {"X": 1, "Y": 255}, "handle_left": {"X": 0.5, "Y": 1}, "handle_right": {"X": 0.5, "Y": 0}, "handle_type": 0, "interpolation": 0}]}, "green": {"Points": [{"co": {"X": 1, "Y": 123}, "handle_left": {"X": 0.5, "Y": 1}, "handle_right": {"X": 0.5, "Y": 0}, "handle_type": 0, "interpolation": 0}]}, "red": {"Points": [{"co": {"X": 1, "Y": 0}, "handle_left": {"X": 0.5, "Y": 1}, "handle_right": {"X": 0.5, "Y": 0}, "handle_type": 0, "interpolation": 0}]}}, "waveform": false, "file_id": "TUY59O1ZMZ", "title": "17157313-preview.mp4", "image": "../../../.openshot_qt/thumbnail/TUY59O1ZMZ.png"}, {"alpha": {"Points": [{"co": {"X": 1, "Y": 1}, "interpolation": 2}]}, "anchor": 0, "channel_filter": {"Points": [{"co": {"X": 1, "Y": -1}, "interpolation": 2}]}, "channel_mapping": {"Points": [{"co": {"X": 1, "Y": -1}, "interpolation": 2}]}, "crop_height": {"Points": [{"co": {"X": 1, "Y": -1}, "interpolation": 2}]}, "crop_width": {"Points": [{"co": {"X": 1, "Y": -1}, "interpolation": 2}]}, "crop_x": {"Points": [{"co": {"X": 1, "Y": 0}, "interpolation": 2}]}, "crop_y": {"Points": [{"co": {"X": 1, "Y": 0}, "interpolation": 2}]}, "display": 0, "duration": 20.0, "effects": [], "end": 20, "gravity": 4, "has_audio": {"Points": [{"co": {"X": 1, "Y": -1}, "interpolation": 2}]}, "has_video": {"Points": [{"co": {"X": 1, "Y": -1}, "interpolation": 2}]}, "id": "BQRV4KZ7OT", "layer": 2, "location_x": {"Points": [{"co": {"X": 1, "Y": 0}, "interpolation": 2}]}, "location_y": {"Points": [{"co": {"X": 1, "Y": 0}, "interpolation": 2}]}, "perspective_c1_x": {"Points": [{"co": {"X": 1, "Y": -1}, "interpolation": 2}]}, "perspective_c1_y": {"Points": [{"co": {"X": 1, "Y": -1}, "interpolation": 2}]}, "perspective_c2_x": {"Points": [{"co": {"X": 1, "Y": -1}, "interpolation": 2}]}, "perspective_c2_y": {"Points": [{"co": {"X": 1, "Y": -1}, "interpolation": 2}]}, "perspective_c3_x": {"Points": [{"co": {"X": 1, "Y": -1}, "interpolation": 2}]}, "perspective_c3_y": {"Points": [{"co": {"X": 1, "Y": -1}, "interpolation": 2}]}, "perspective_c4_x": {"Points": [{"co": {"X": 1, "Y": -1}, "interpolation": 2}]}, "perspective_c4_y": {"Points": [{"co": {"X": 1, "Y": -1}, "interpolation": 2}]}, "position": 404.215, "reader": {"acodec": "", "audio_bit_rate": 0, "audio_stream_index": -1, "audio_timebase": {"den": 1, "num": 1}, "channel_layout": 4, "channels": 0, "display_ratio": {"den": 84, "num": 149}, "duration": 20.0, "file_size": "2423260", "fps": {"den": 1, "num": 30}, "has_audio": false, "has_single_image": false, "has_video": true, "height": 336, "interlaced_frame": false, "path": "video assets/18292843-preview.mp4", "pixel_format": 0, "pixel_ratio": {"den": 1, "num": 1}, "sample_rate": 0, "top_field_first": true, "type": "FFmpegReader", "vcodec": "h264", "video_bit_rate": 969304, "video_length": "600", "video_stream_index": 0, "video_timebase": {"den": 15360, "num": 1}, "width": 596}, "rotation": {"Points": [{"co": {"X": 1, "Y": 0}, "interpolation": 2}]}, "scale": 1, "scale_x": {"Points": [{"co": {"X": 1, "Y": 1}, "interpolation": 2}]}, "scale_y": {"Points": [{"co": {"X": 1, "Y": 1}, "interpolation": 2}]}, "shear_x": {"Points": [{"co": {"X": 1, "Y": 0}, "interpolation": 2}]}, "shear_y": {"Points": [{"co": {"X": 1, "Y": 0}, "interpolation": 2}]}, "start": 0, "time": {"Points": [{"co": {"X": 1, "Y": 1}, "interpolation": 2}]}, "volume": {"Points": [{"co": {"X": 1, "Y": 1}, "interpolation": 2}]}, "wave_color": {"alpha": {"Points": [{"co": {"X": 1, "Y": 255}, "handle_left": {"X": 0.5, "Y": 1}, "handle_right": {"X": 0.5, "Y": 0}, "handle_type": 0, "interpolation": 0}]}, "blue": {"Points": [{"co": {"X": 1, "Y": 255}, "handle_left": {"X": 0.5, "Y": 1}, "handle_right": {"X": 0.5, "Y": 0}, "handle_type": 0, "interpolation": 0}]}, "green": {"Points": [{"co": {"X": 1, "Y": 123}, "handle_left": {"X": 0.5, "Y": 1}, "handle_right": {"X": 0.5, "Y": 0}, "handle_type": 0, "interpolation": 0}]}, "red": {"Points": [{"co": {"X": 1, "Y": 0}, "handle_left": {"X": 0.5, "Y": 1}, "handle_right": {"X": 0.5, "Y": 0}, "handle_type": 0, "interpolation": 0}]}}, "waveform": false, "file_id": "689UE7LWJF", "title": "18292843-preview.mp4", "image": "../../../.openshot_qt/thumbnail/689UE7LWJF.png"}, {"alpha": {"Points": [{"co": {"X": 1, "Y": 1}, "interpolation": 2}]}, "anchor": 0, "channel_filter": {"Points": [{"co": {"X": 1, "Y": -1}, "interpolation": 2}]}, "channel_mapping": {"Points": [{"co": {"X": 1, "Y": -1}, "interpolation": 2}]}, "crop_height": {"Points": [{"co": {"X": 1, "Y": -1}, "interpolation": 2}]}, "crop_width": {"Points": [{"co": {"X": 1, "Y": -1}, "interpolation": 2}]}, "crop_x": {"Points": [{"co": {"X": 1, "Y": 0}, "interpolation": 2}]}, "crop_y": {"Points": [{"co": {"X": 1, "Y": 0}, "interpolation": 2}]}, "display": 0, "duration": 12.033984184265137, "effects": [], "end": 12.033984184265137, "gravity": 4, "has_audio": {"Points": [{"co": {"X": 1, "Y": -1}, "interpolation": 2}]}, "has_video": {"Points": [{"co": {"X": 1, "Y": -1}, "interpolation": 2}]}, "id": "D55F5EIJLL", "layer": 1, "location_x": {"Points": [{"co": {"X": 1, "Y": 0}, "interpolation": 2}]}, "location_y": {"Points": [{"co": {"X": 1, "Y": 0}, "interpolation": 2}]}, "perspective_c1_x": {"Points": [{"co": {"X": 1, "Y": -1}, "interpolation": 2}]}, "perspective_c1_y": {"Points": [{"co": {"X": 1, "Y": -1}, "interpolation": 2}]}, "perspective_c2_x": {"Points": [{"co": {"X": 1, "Y": -1}, "interpolation": 2}]}, "perspective_c2_y": {"Points": [{"co": {"X": 1, "Y": -1}, "interpolation": 2}]}, "perspective_c3_x": {"Points": [{"co": {"X": 1, "Y": -1}, "interpolation": 2}]}, "perspective_c3_y": {"Points": [{"co": {"X": 1, "Y": -1}, "interpolation": 2}]}, "perspective_c4_x": {"Points": [{"co": {"X": 1, "Y": -1}, "interpolation": 2}]}, "perspective_c4_y": {"Points": [{"co": {"X": 1, "Y": -1}, "interpolation": 2}]}, "position": 302.56, "reader": {"acodec": "", "audio_bit_rate": 0, "audio_stream_index": -1, "audio_timebase": {"den": 1, "num": 1}, "channel_layout": 4, "channels": 0, "display_ratio": {"den": 84, "num": 149}, "duration": 12.033984184265137, "file_size": "1559140", "fps": {"den": 1, "num": 30}, "has_audio": false, "has_single_image": false, "has_video": true, "height": 336, "interlaced_frame": false, "path": "video assets/18846515-preview.mp4", "pixel_format": 0, "pixel_ratio": {"den": 1, "num": 1}, "sample_rate": 0, "top_field_first": true, "type": "FFmpegReader", "vcodec": "h264", "video_bit_rate": 1036489, "video_length": "361", "video_stream_index": 0, "video_timebase": {"den": 15360, "num": 1}, "width": 596}, "rotation": {"Points": [{"co": {"X": 1, "Y": 0}, "interpolation": 2}]}, "scale": 1, "scale_x": {"Points": [{"co": {"X": 1, "Y": 1}, "interpolation": 2}]}, "scale_y": {"Points": [{"co": {"X": 1, "Y": 1}, "interpolation": 2}]}, "shear_x": {"Points": [{"co": {"X": 1, "Y": 0}, "interpolation": 2}]}, "shear_y": {"Points": [{"co": {"X": 1, "Y": 0}, "interpolation": 2}]}, "start": 0, "time": {"Points": [{"co": {"X": 1, "Y": 1}, "interpolation": 2}]}, "volume": {"Points": [{"co": {"X": 1, "Y": 1}, "interpolation": 2}]}, "wave_color": {"alpha": {"Points": [{"co": {"X": 1, "Y": 255}, "handle_left": {"X": 0.5, "Y": 1}, "handle_right": {"X": 0.5, "Y": 0}, "handle_type": 0, "interpolation": 0}]}, "blue": {"Points": [{"co": {"X": 1, "Y": 255}, "handle_left": {"X": 0.5, "Y": 1}, "handle_right": {"X": 0.5, "Y": 0}, "handle_type": 0, "interpolation": 0}]}, "green": {"Points": [{"co": {"X": 1, "Y": 123}, "handle_left": {"X": 0.5, "Y": 1}, "handle_right": {"X": 0.5, "Y": 0}, "handle_type": 0, "interpolation": 0}]}, "red": {"Points": [{"co": {"X": 1, "Y": 0}, "handle_left": {"X": 0.5, "Y": 1}, "handle_right": {"X": 0.5, "Y": 0}, "handle_type": 0, "interpolation": 0}]}}, "waveform": false, "file_id": "TRSUKVWH99", "title": "18846515-preview.mp4", "image": "../../../.openshot_qt/thumbnail/TRSUKVWH99.png"}, {"alpha": {"Points": [{"co": {"X": 1, "Y": 1}, "interpolation": 2}]}, "anchor": 0, "channel_filter": {"Points": [{"co": {"X": 1, "Y": -1}, "interpolation": 2}]}, "channel_mapping": {"Points": [{"co": {"X": 1, "Y": -1}, "interpolation": 2}]}, "crop_height": {"Points": [{"co": {"X": 1, "Y": -1}, "interpolation": 2}]}, "crop_width": {"Points": [{"co": {"X": 1, "Y": -1}, "interpolation": 2}]}, "crop_x": {"Points": [{"co": {"X": 1, "Y": 0}, "interpolation": 2}]}, "crop_y": {"Points": [{"co": {"X": 1, "Y": 0}, "interpolation": 2}]}, "display": 0, "duration": 30.030000686645508, "effects": [], "end": 30.030000686645508, "gravity": 4, "has_audio": {"Points": [{"co": {"X": 1, "Y": -1}, "interpolation": 2}]}, "has_video": {"Points": [{"co": {"X": 1, "Y": -1}, "interpolation": 2}]}, "id": "2YH5LK89RE", "layer": 1, "location_x": {"Points": [{"co": {"X": 1, "Y": 0}, "interpolation": 2}]}, "location_y": {"Points": [{"co": {"X": 1, "Y": 0}, "interpolation": 2}]}, "perspective_c1_x": {"Points": [{"co": {"X": 1, "Y": -1}, "interpolation": 2}]}, "perspective_c1_y": {"Points": [{"co": {"X": 1, "Y": -1}, "interpolation": 2}]}, "perspective_c2_x": {"Points": [{"co": {"X": 1, "Y": -1}, "interpolation": 2}]}, "perspective_c2_y": {"Points": [{"co": {"X": 1, "Y": -1}, "interpolation": 2}]}, "perspective_c3_x": {"Points": [{"co": {"X": 1, "Y": -1}, "interpolation": 2}]}, "perspective_c3_y": {"Points": [{"co": {"X": 1, "Y": -1}, "interpolation": 2}]}, "perspective_c4_x": {"Points": [{"co": {"X": 1, "Y": -1}, "interpolation": 2}]}, "perspective_c4_y": {"Points": [{"co": {"X": 1, "Y": -1}, "interpolation": 2}]}, "position": 320.64, "reader": {"acodec": "", "audio_bit_rate": 0, "audio_stream_index": -1, "audio_timebase": {"den": 1, "num": 1}, "channel_layout": 4, "channels": 0, "display_ratio": {"den": 84, "num": 149}, "duration": 30.030000686645508, "file_size": "3660080", "fps": {"den": 1001, "num": 60000}, "has_audio": false, "has_single_image": false, "has_video": true, "height": 336, "interlaced_frame": false, "path": "video assets/25507277-preview.mp4", "pixel_format": 0, "pixel_ratio": {"den": 1, "num": 1}, "sample_rate": 0, "top_field_first": true, "type": "FFmpegReader", "vcodec": "h264", "video_bit_rate": 975046, "video_length": "1800", "video_stream_index": 0, "video_timebase": {"den": 60000, "num": 1}, "width": 596}, "rotation": {"Points": [{"co": {"X": 1, "Y": 0}, "interpolation": 2}]}, "scale": 1, "scale_x": {"Points": [{"co": {"X": 1, "Y": 1}, "interpolation": 2}]}, "scale_y": {"Points": [{"co": {"X": 1, "Y": 1}, "interpolation": 2}]}, "shear_x": {"Points": [{"co": {"X": 1, "Y": 0}, "interpolation": 2}]}, "shear_y": {"Points": [{"co": {"X": 1, "Y": 0}, "interpolation": 2}]}, "start": 0, "time": {"Points": [{"co": {"X": 1, "Y": 1}, "interpolation": 2}]}, "volume": {"Points": [{"co": {"X": 1, "Y": 1}, "interpolation": 2}]}, "wave_color": {"alpha": {"Points": [{"co": {"X": 1, "Y": 255}, "handle_left": {"X": 0.5, "Y": 1}, "handle_right": {"X": 0.5, "Y": 0}, "handle_type": 0, "interpolation": 0}]}, "blue": {"Points": [{"co": {"X": 1, "Y": 255}, "handle_left": {"X": 0.5, "Y": 1}, "handle_right": {"X": 0.5, "Y": 0}, "handle_type": 0, "interpolation": 0}]}, "green": {"Points": [{"co": {"X": 1, "Y": 123}, "handle_left": {"X": 0.5, "Y": 1}, "handle_right": {"X": 0.5, "Y": 0}, "handle_type": 0, "interpolation": 0}]}, "red": {"Points": [{"co": {"X": 1, "Y": 0}, "handle_left": {"X": 0.5, "Y": 1}, "handle_right": {"X": 0.5, "Y": 0}, "handle_type": 0, "interpolation": 0}]}}, "waveform": false, "file_id": "74FLNFK7DU", "title": "25507277-preview.mp4", "image": "../../../.openshot_qt/thumbnail/74FLNFK7DU.png"}, {"alpha": {"Points": [{"co": {"X": 1, "Y": 1}, "interpolation": 2}]}, "anchor": 0, "channel_filter": {"Points": [{"co": {"X": 1, "Y": -1}, "interpolation": 2}]}, "channel_mapping": {"Points": [{"co": {"X": 1, "Y": -1}, "interpolation": 2}]}, "crop_height": {"Points": [{"co": {"X": 1, "Y": -1}, "interpolation": 2}]}, "crop_width": {"Points": [{"co": {"X": 1, "Y": -1}, "interpolation": 2}]}, "crop_x": {"Points": [{"co": {"X": 1, "Y": 0}, "interpolation": 2}]}, "crop_y": {"Points": [{"co": {"X": 1, "Y": 0}, "interpolation": 2}]}, "display": 0, "duration": 19.299999237060547, "effects": [], "end": 19.299999237060547, "gravity": 4, "has_audio": {"Points": [{"co": {"X": 1, "Y": -1}, "interpolation": 2}]}, "has_video": {"Points": [{"co": {"X": 1, "Y": -1}, "interpolation": 2}]}, "id": "L00FVPXSI2", "layer": 1, "location_x": {"Points": [{"co": {"X": 1, "Y": 0}, "interpolation": 2}]}, "location_y": {"Points": [{"co": {"X": 1, "Y": 0}, "interpolation": 2}]}, "perspective_c1_x": {"Points": [{"co": {"X": 1, "Y": -1}, "interpolation": 2}]}, "perspective_c1_y": {"Points": [{"co": {"X": 1, "Y": -1}, "interpolation": 2}]}, "perspective_c2_x": {"Points": [{"co": {"X": 1, "Y": -1}, "interpolation": 2}]}, "perspective_c2_y": {"Points": [{"co": {"X": 1, "Y": -1}, "interpolation": 2}]}, "perspective_c3_x": {"Points": [{"co": {"X": 1, "Y": -1}, "interpolation": 2}]}, "perspective_c3_y": {"Points": [{"co": {"X": 1, "Y": -1}, "interpolation": 2}]}, "perspective_c4_x": {"Points": [{"co": {"X": 1, "Y": -1}, "interpolation": 2}]}, "perspective_c4_y": {"Points": [{"co": {"X": 1, "Y": -1}, "interpolation": 2}]}, "position": 355.07999908447266, "reader": {"acodec": "", "audio_bit_rate": 0, "audio_stream_index": -1, "audio_timebase": {"den": 1, "num": 1}, "channel_layout": 4, "channels": 0, "display_ratio": {"den": 84, "num": 149}, "duration": 19.299999237060547, "file_size": "2254903", "fps": {"den": 1, "num": 30}, "has_audio": false, "has_single_image": false, "has_video": true, "height": 336, "interlaced_frame": false, "path": "video assets/26828902-preview.mp4", "pixel_format": 0, "pixel_ratio": {"den": 1, "num": 1}, "sample_rate": 0, "top_field_first": true, "type": "FFmpegReader", "vcodec": "h264", "video_bit_rate": 934674, "video_length": "579", "video_stream_index": 0, "video_timebase": {"den": 15360, "num": 1}, "width": 596}, "rotation": {"Points": [{"co": {"X": 1, "Y": 0}, "interpolation": 2}]}, "scale": 1, "scale_x": {"Points": [{"co": {"X": 1, "Y": 1}, "interpolation": 2}]}, "scale_y": {"Points": [{"co": {"X": 1, "Y": 1}, "interpolation": 2}]}, "shear_x": {"Points": [{"co": {"X": 1, "Y": 0}, "interpolation": 2}]}, "shear_y": {"Points": [{"co": {"X": 1, "Y": 0}, "interpolation": 2}]}, "start": 0, "time": {"Points": [{"co": {"X": 1, "Y": 1}, "interpolation": 2}]}, "volume": {"Points": [{"co": {"X": 1, "Y": 1}, "interpolation": 2}]}, "wave_color": {"alpha": {"Points": [{"co": {"X": 1, "Y": 255}, "handle_left": {"X": 0.5, "Y": 1}, "handle_right": {"X": 0.5, "Y": 0}, "handle_type": 0, "interpolation": 0}]}, "blue": {"Points": [{"co": {"X": 1, "Y": 255}, "handle_left": {"X": 0.5, "Y": 1}, "handle_right": {"X": 0.5, "Y": 0}, "handle_type": 0, "interpolation": 0}]}, "green": {"Points": [{"co": {"X": 1, "Y": 123}, "handle_left": {"X": 0.5, "Y": 1}, "handle_right": {"X": 0.5, "Y": 0}, "handle_type": 0, "interpolation": 0}]}, "red": {"Points": [{"co": {"X": 1, "Y": 0}, "handle_left": {"X": 0.5, "Y": 1}, "handle_right": {"X": 0.5, "Y": 0}, "handle_type": 0, "interpolation": 0}]}}, "waveform": false, "file_id": "IFYA03SB19", "title": "26828902-preview.mp4", "image": "../../../.openshot_qt/thumbnail/IFYA03SB19.png"}, {"alpha": {"Points": [{"co": {"X": 1, "Y": 1}, "interpolation": 2}]}, "anchor": 0, "channel_filter": {"Points": [{"co": {"X": 1, "Y": -1}, "interpolation": 2}]}, "channel_mapping": {"Points": [{"co": {"X": 1, "Y": -1}, "interpolation": 2}]}, "crop_height": {"Points": [{"co": {"X": 1, "Y": -1}, "interpolation": 2}]}, "crop_width": {"Points": [{"co": {"X": 1, "Y": -1}, "interpolation": 2}]}, "crop_x": {"Points": [{"co": {"X": 1, "Y": 0}, "interpolation": 2}]}, "crop_y": {"Points": [{"co": {"X": 1, "Y": 0}, "interpolation": 2}]}, "display": 0, "duration": 8.451982498168945, "effects": [], "end": 8.451982498168945, "gravity": 4, "has_audio": {"Points": [{"co": {"X": 1, "Y": -1}, "interpolation": 2}]}, "has_video": {"Points": [{"co": {"X": 1, "Y": -1}, "interpolation": 2}]}, "id": "HJJ4LDWCN9", "layer": 1, "location_x": {"Points": [{"co": {"X": 1, "Y": 0}, "interpolation": 2}]}, "location_y": {"Points": [{"co": {"X": 1, "Y": 0}, "interpolation": 2}]}, "perspective_c1_x": {"Points": [{"co": {"X": 1, "Y": -1}, "interpolation": 2}]}, "perspective_c1_y": {"Points": [{"co": {"X": 1, "Y": -1}, "interpolation": 2}]}, "perspective_c2_x": {"Points": [{"co": {"X": 1, "Y": -1}, "interpolation": 2}]}, "perspective_c2_y": {"Points": [{"co": {"X": 1, "Y": -1}, "interpolation": 2}]}, "perspective_c3_x": {"Points": [{"co": {"X": 1, "Y": -1}, "interpolation": 2}]}, "perspective_c3_y": {"Points": [{"co": {"X": 1, "Y": -1}, "interpolation": 2}]}, "perspective_c4_x": {"Points": [{"co": {"X": 1, "Y": -1}, "interpolation": 2}]}, "perspective_c4_y": {"Points": [{"co": {"X": 1, "Y": -1}, "interpolation": 2}]}, "position": 377.76, "reader": {"acodec": "", "audio_bit_rate": 0, "audio_stream_index": -1, "audio_timebase": {"den": 1, "num": 1}, "channel_layout": 4, "channels": 0, "display_ratio": {"den": 84, "num": 149}, "duration": 8.451982498168945, "file_size": "1148399", "fps": {"den": 12, "num": 301}, "has_audio": false, "has_single_image": false, "has_video": true, "height": 336, "interlaced_frame": false, "path": "video assets/1008850895-preview.mp4", "pixel_format": 0, "pixel_ratio": {"den": 1, "num": 1}, "sample_rate": 0, "top_field_first": true, "type": "FFmpegReader", "vcodec": "h264", "video_bit_rate": 1086984, "video_length": "212", "video_stream_index": 0, "video_timebase": {"den": 19264, "num": 1}, "width": 596}, "rotation": {"Points": [{"co": {"X": 1, "Y": 0}, "interpolation": 2}]}, "scale": 1, "scale_x": {"Points": [{"co": {"X": 1, "Y": 1}, "interpolation": 2}]}, "scale_y": {"Points": [{"co": {"X": 1, "Y": 1}, "interpolation": 2}]}, "shear_x": {"Points": [{"co": {"X": 1, "Y": 0}, "interpolation": 2}]}, "shear_y": {"Points": [{"co": {"X": 1, "Y": 0}, "interpolation": 2}]}, "start": 0, "time": {"Points": [{"co": {"X": 1, "Y": 1}, "interpolation": 2}]}, "volume": {"Points": [{"co": {"X": 1, "Y": 1}, "interpolation": 2}]}, "wave_color": {"alpha": {"Points": [{"co": {"X": 1, "Y": 255}, "handle_left": {"X": 0.5, "Y": 1}, "handle_right": {"X": 0.5, "Y": 0}, "handle_type": 0, "interpolation": 0}]}, "blue": {"Points": [{"co": {"X": 1, "Y": 255}, "handle_left": {"X": 0.5, "Y": 1}, "handle_right": {"X": 0.5, "Y": 0}, "handle_type": 0, "interpolation": 0}]}, "green": {"Points": [{"co": {"X": 1, "Y": 123}, "handle_left": {"X": 0.5, "Y": 1}, "handle_right": {"X": 0.5, "Y": 0}, "handle_type": 0, "interpolation": 0}]}, "red": {"Points": [{"co": {"X": 1, "Y": 0}, "handle_left": {"X": 0.5, "Y": 1}, "handle_right": {"X": 0.5, "Y": 0}, "handle_type": 0, "interpolation": 0}]}}, "waveform": false, "file_id": "2D1LKDBFPE", "title": "1008850895-preview.mp4", "image": "../../../.openshot_qt/thumbnail/2D1LKDBFPE.png"}, {"alpha": {"Points": [{"co": {"X": 1, "Y": 1}, "interpolation": 2}]}, "anchor": 0, "channel_filter": {"Points": [{"co": {"X": 1, "Y": -1}, "interpolation": 2}]}, "channel_mapping": {"Points": [{"co": {"X": 1, "Y": -1}, "interpolation": 2}]}, "crop_height": {"Points": [{"co": {"X": 1, "Y": -1}, "interpolation": 2}]}, "crop_width": {"Points": [{"co": {"X": 1, "Y": -1}, "interpolation": 2}]}, "crop_x": {"Points": [{"co": {"X": 1, "Y": 0}, "interpolation": 2}]}, "crop_y": {"Points": [{"co": {"X": 1, "Y": 0}, "interpolation": 2}]}, "display": 0, "duration": 17.207000732421875, "effects": [], "end": 17.207000732421875, "gravity": 4, "has_audio": {"Points": [{"co": {"X": 1, "Y": -1}, "interpolation": 2}]}, "has_video": {"Points": [{"co": {"X": 1, "Y": -1}, "interpolation": 2}]}, "id": "UGQQ7546SS", "layer": 1, "location_x": {"Points": [{"co": {"X": 1, "Y": 0}, "interpolation": 2}]}, "location_y": {"Points": [{"co": {"X": 1, "Y": 0}, "interpolation": 2}]}, "perspective_c1_x": {"Points": [{"co": {"X": 1, "Y": -1}, "interpolation": 2}]}, "perspective_c1_y": {"Points": [{"co": {"X": 1, "Y": -1}, "interpolation": 2}]}, "perspective_c2_x": {"Points": [{"co": {"X": 1, "Y": -1}, "interpolation": 2}]}, "perspective_c2_y": {"Points": [{"co": {"X": 1, "Y": -1}, "interpolation": 2}]}, "perspective_c3_x": {"Points": [{"co": {"X": 1, "Y": -1}, "interpolation": 2}]}, "perspective_c3_y": {"Points": [{"co": {"X": 1, "Y": -1}, "interpolation": 2}]}, "perspective_c4_x": {"Points": [{"co": {"X": 1, "Y": -1}, "interpolation": 2}]}, "perspective_c4_y": {"Points": [{"co": {"X": 1, "Y": -1}, "interpolation": 2}]}, "position": 389.36, "reader": {"acodec": "", "audio_bit_rate": 0, "audio_stream_index": -1, "audio_timebase": {"den": 1, "num": 1}, "channel_layout": 4, "channels": 0, "display_ratio": {"den": 84, "num": 149}, "duration": 17.207000732421875, "file_size": "2079960", "fps": {"den": 109869, "num": 2752000}, "has_audio": false, "has_single_image": false, "has_video": true, "height": 336, "interlaced_frame": false, "path": "video assets/1008850913-preview.mp4", "pixel_format": 0, "pixel_ratio": {"den": 1, "num": 1}, "sample_rate": 0, "top_field_first": true, "type": "FFmpegReader", "vcodec": "h264", "video_bit_rate": 967029, "video_length": "431", "video_stream_index": 0, "video_timebase": {"den": 2752000, "num": 1}, "width": 596}, "rotation": {"Points": [{"co": {"X": 1, "Y": 0}, "interpolation": 2}]}, "scale": 1, "scale_x": {"Points": [{"co": {"X": 1, "Y": 1}, "interpolation": 2}]}, "scale_y": {"Points": [{"co": {"X": 1, "Y": 1}, "interpolation": 2}]}, "shear_x": {"Points": [{"co": {"X": 1, "Y": 0}, "interpolation": 2}]}, "shear_y": {"Points": [{"co": {"X": 1, "Y": 0}, "interpolation": 2}]}, "start": 0, "time": {"Points": [{"co": {"X": 1, "Y": 1}, "interpolation": 2}]}, "volume": {"Points": [{"co": {"X": 1, "Y": 1}, "interpolation": 2}]}, "wave_color": {"alpha": {"Points": [{"co": {"X": 1, "Y": 255}, "handle_left": {"X": 0.5, "Y": 1}, "handle_right": {"X": 0.5, "Y": 0}, "handle_type": 0, "interpolation": 0}]}, "blue": {"Points": [{"co": {"X": 1, "Y": 255}, "handle_left": {"X": 0.5, "Y": 1}, "handle_right": {"X": 0.5, "Y": 0}, "handle_type": 0, "interpolation": 0}]}, "green": {"Points": [{"co": {"X": 1, "Y": 123}, "handle_left": {"X": 0.5, "Y": 1}, "handle_right": {"X": 0.5, "Y": 0}, "handle_type": 0, "interpolation": 0}]}, "red": {"Points": [{"co": {"X": 1, "Y": 0}, "handle_left": {"X": 0.5, "Y": 1}, "handle_right": {"X": 0.5, "Y": 0}, "handle_type": 0, "interpolation": 0}]}}, "waveform": false, "file_id": "5ANJQ3DRT6", "title": "1008850913-preview.mp4", "image": "../../../.openshot_qt/thumbnail/5ANJQ3DRT6.png"}, {"alpha": {"Points": [{"co": {"X": 1, "Y": 1}, "interpolation": 2}]}, "anchor": 0, "channel_filter": {"Points": [{"co": {"X": 1, "Y": -1}, "interpolation": 2}]}, "channel_mapping": {"Points": [{"co": {"X": 1, "Y": -1}, "interpolation": 2}]}, "crop_height": {"Points": [{"co": {"X": 1, "Y": -1}, "interpolation": 2}]}, "crop_width": {"Points": [{"co": {"X": 1, "Y": -1}, "interpolation": 2}]}, "crop_x": {"Points": [{"co": {"X": 1, "Y": 0}, "interpolation": 2}]}, "crop_y": {"Points": [{"co": {"X": 1, "Y": 0}, "interpolation": 2}]}, "display": 0, "duration": 13.5, "effects": [], "end": 13.5, "gravity": 4, "has_audio": {"Points": [{"co": {"X": 1, "Y": -1}, "interpolation": 2}]}, "has_video": {"Points": [{"co": {"X": 1, "Y": -1}, "interpolation": 2}]}, "id": "YPKL9WEMLR", "layer": 1, "location_x": {"Points": [{"co": {"X": 1, "Y": 0}, "interpolation": 2}]}, "location_y": {"Points": [{"co": {"X": 1, "Y": 0}, "interpolation": 2}]}, "perspective_c1_x": {"Points": [{"co": {"X": 1, "Y": -1}, "interpolation": 2}]}, "perspective_c1_y": {"Points": [{"co": {"X": 1, "Y": -1}, "interpolation": 2}]}, "perspective_c2_x": {"Points": [{"co": {"X": 1, "Y": -1}, "interpolation": 2}]}, "perspective_c2_y": {"Points": [{"co": {"X": 1, "Y": -1}, "interpolation": 2}]}, "perspective_c3_x": {"Points": [{"co": {"X": 1, "Y": -1}, "interpolation": 2}]}, "perspective_c3_y": {"Points": [{"co": {"X": 1, "Y": -1}, "interpolation": 2}]}, "perspective_c4_x": {"Points": [{"co": {"X": 1, "Y": -1}, "interpolation": 2}]}, "perspective_c4_y": {"Points": [{"co": {"X": 1, "Y": -1}, "interpolation": 2}]}, "position": 410.875, "reader": {"acodec": "", "audio_bit_rate": 0, "audio_stream_index": -1, "audio_timebase": {"den": 1, "num": 1}, "channel_layout": 4, "channels": 0, "display_ratio": {"den": 84, "num": 149}, "duration": 13.5, "file_size": "1421739", "fps": {"den": 1, "num": 30}, "has_audio": false, "has_single_image": false, "has_video": true, "height": 336, "interlaced_frame": false, "path": "video assets/1009464575-preview.mp4", "pixel_format": 0, "pixel_ratio": {"den": 1, "num": 1}, "sample_rate": 0, "top_field_first": true, "type": "FFmpegReader", "vcodec": "h264", "video_bit_rate": 842512, "video_length": "405", "video_stream_index": 0, "video_timebase": {"den": 15360, "num": 1}, "width": 596}, "rotation": {"Points": [{"co": {"X": 1, "Y": 0}, "interpolation": 2}]}, "scale": 1, "scale_x": {"Points": [{"co": {"X": 1, "Y": 1}, "interpolation": 2}]}, "scale_y": {"Points": [{"co": {"X": 1, "Y": 1}, "interpolation": 2}]}, "shear_x": {"Points": [{"co": {"X": 1, "Y": 0}, "interpolation": 2}]}, "shear_y": {"Points": [{"co": {"X": 1, "Y": 0}, "interpolation": 2}]}, "start": 0, "time": {"Points": [{"co": {"X": 1, "Y": 1}, "interpolation": 2}]}, "volume": {"Points": [{"co": {"X": 1, "Y": 1}, "interpolation": 2}]}, "wave_color": {"alpha": {"Points": [{"co": {"X": 1, "Y": 255}, "handle_left": {"X": 0.5, "Y": 1}, "handle_right": {"X": 0.5, "Y": 0}, "handle_type": 0, "interpolation": 0}]}, "blue": {"Points": [{"co": {"X": 1, "Y": 255}, "handle_left": {"X": 0.5, "Y": 1}, "handle_right": {"X": 0.5, "Y": 0}, "handle_type": 0, "interpolation": 0}]}, "green": {"Points": [{"co": {"X": 1, "Y": 123}, "handle_left": {"X": 0.5, "Y": 1}, "handle_right": {"X": 0.5, "Y": 0}, "handle_type": 0, "interpolation": 0}]}, "red": {"Points": [{"co": {"X": 1, "Y": 0}, "handle_left": {"X": 0.5, "Y": 1}, "handle_right": {"X": 0.5, "Y": 0}, "handle_type": 0, "interpolation": 0}]}}, "waveform": false, "file_id": "E1WTKOKJLM", "title": "1009464575-preview.mp4", "image": "../../../.openshot_qt/thumbnail/E1WTKOKJLM.png"}, {"alpha": {"Points": [{"co": {"X": 1, "Y": 1}, "interpolation": 2}]}, "anchor": 0, "channel_filter": {"Points": [{"co": {"X": 1, "Y": -1}, "interpolation": 2}]}, "channel_mapping": {"Points": [{"co": {"X": 1, "Y": -1}, "interpolation": 2}]}, "crop_height": {"Points": [{"co": {"X": 1, "Y": -1}, "interpolation": 2}]}, "crop_width": {"Points": [{"co": {"X": 1, "Y": -1}, "interpolation": 2}]}, "crop_x": {"Points": [{"co": {"X": 1, "Y": 0}, "interpolation": 2}]}, "crop_y": {"Points": [{"co": {"X": 1, "Y": 0}, "interpolation": 2}]}, "display": 0, "duration": 10.277000427246094, "effects": [], "end": 10.277000427246094, "gravity": 4, "has_audio": {"Points": [{"co": {"X": 1, "Y": -1}, "interpolation": 2}]}, "has_video": {"Points": [{"co": {"X": 1, "Y": -1}, "interpolation": 2}]}, "id": "60SW0D3JON", "layer": 2, "location_x": {"Points": [{"co": {"X": 1, "Y": 0}, "interpolation": 2}]}, "location_y": {"Points": [{"co": {"X": 1, "Y": 0}, "interpolation": 2}]}, "perspective_c1_x": {"Points": [{"co": {"X": 1, "Y": -1}, "interpolation": 2}]}, "perspective_c1_y": {"Points": [{"co": {"X": 1, "Y": -1}, "interpolation": 2}]}, "perspective_c2_x": {"Points": [{"co": {"X": 1, "Y": -1}, "interpolation": 2}]}, "perspective_c2_y": {"Points": [{"co": {"X": 1, "Y": -1}, "interpolation": 2}]}, "perspective_c3_x": {"Points": [{"co": {"X": 1, "Y": -1}, "interpolation": 2}]}, "perspective_c3_y": {"Points": [{"co": {"X": 1, "Y": -1}, "interpolation": 2}]}, "perspective_c4_x": {"Points": [{"co": {"X": 1, "Y": -1}, "interpolation": 2}]}, "perspective_c4_y": {"Points": [{"co": {"X": 1, "Y": -1}, "interpolation": 2}]}, "position": 253.92, "reader": {"acodec": "", "audio_bit_rate": 0, "audio_stream_index": -1, "audio_timebase": {"den": 1, "num": 1}, "channel_layout": 4, "channels": 0, "display_ratio": {"den": 84, "num": 149}, "duration": 10.277000427246094, "file_size": "1265434", "fps": {"den": 1001, "num": 30000}, "has_audio": false, "has_single_image": false, "has_video": true, "height": 336, "interlaced_frame": false, "path": "video assets/1009568600-preview.mp4", "pixel_format": 0, "pixel_ratio": {"den": 1, "num": 1}, "sample_rate": 0, "top_field_first": true, "type": "FFmpegReader", "vcodec": "h264", "video_bit_rate": 985061, "video_length": "308", "video_stream_index": 0, "video_timebase": {"den": 30000, "num": 1}, "width": 596}, "rotation": {"Points": [{"co": {"X": 1, "Y": 0}, "interpolation": 2}]}, "scale": 1, "scale_x": {"Points": [{"co": {"X": 1, "Y": 1}, "interpolation": 2}]}, "scale_y": {"Points": [{"co": {"X": 1, "Y": 1}, "interpolation": 2}]}, "shear_x": {"Points": [{"co": {"X": 1, "Y": 0}, "interpolation": 2}]}, "shear_y": {"Points": [{"co": {"X": 1, "Y": 0}, "interpolation": 2}]}, "start": 0, "time": {"Points": [{"co": {"X": 1, "Y": 1}, "interpolation": 2}]}, "volume": {"Points": [{"co": {"X": 1, "Y": 1}, "interpolation": 2}]}, "wave_color": {"alpha": {"Points": [{"co": {"X": 1, "Y": 255}, "handle_left": {"X": 0.5, "Y": 1}, "handle_right": {"X": 0.5, "Y": 0}, "handle_type": 0, "interpolation": 0}]}, "blue": {"Points": [{"co": {"X": 1, "Y": 255}, "handle_left": {"X": 0.5, "Y": 1}, "handle_right": {"X": 0.5, "Y": 0}, "handle_type": 0, "interpolation": 0}]}, "green": {"Points": [{"co": {"X": 1, "Y": 123}, "handle_left": {"X": 0.5, "Y": 1}, "handle_right": {"X": 0.5, "Y": 0}, "handle_type": 0, "interpolation": 0}]}, "red": {"Points": [{"co": {"X": 1, "Y": 0}, "handle_left": {"X": 0.5, "Y": 1}, "handle_right": {"X": 0.5, "Y": 0}, "handle_type": 0, "interpolation": 0}]}}, "waveform": false, "file_id": "A4DPRYTBR3", "title": "1009568600-preview.mp4", "image": "../../../.openshot_qt/thumbnail/A4DPRYTBR3.png"}, {"alpha": {"Points": [{"co": {"X": 1, "Y": 1}, "interpolation": 2}]}, "anchor": 0, "channel_filter": {"Points": [{"co": {"X": 1, "Y": -1}, "interpolation": 2}]}, "channel_mapping": {"Points": [{"co": {"X": 1, "Y": -1}, "interpolation": 2}]}, "crop_height": {"Points": [{"co": {"X": 1, "Y": -1}, "interpolation": 2}]}, "crop_width": {"Points": [{"co": {"X": 1, "Y": -1}, "interpolation": 2}]}, "crop_x": {"Points": [{"co": {"X": 1, "Y": 0}, "interpolation": 2}]}, "crop_y": {"Points": [{"co": {"X": 1, "Y": 0}, "interpolation": 2}]}, "display": 0, "duration": 12.5, "effects": [], "end": 12.5, "gravity": 4, "has_audio": {"Points": [{"co": {"X": 1, "Y": -1}, "interpolation": 2}]}, "has_video": {"Points": [{"co": {"X": 1, "Y": -1}, "interpolation": 2}]}, "id": "S81HCG4K8B", "layer": 4, "location_x": {"Points": [{"co": {"X": 1, "Y": 0}, "interpolation": 2}]}, "location_y": {"Points": [{"co": {"X": 1, "Y": 0}, "interpolation": 2}]}, "perspective_c1_x": {"Points": [{"co": {"X": 1, "Y": -1}, "interpolation": 2}]}, "perspective_c1_y": {"Points": [{"co": {"X": 1, "Y": -1}, "interpolation": 2}]}, "perspective_c2_x": {"Points": [{"co": {"X": 1, "Y": -1}, "interpolation": 2}]}, "perspective_c2_y": {"Points": [{"co": {"X": 1, "Y": -1}, "interpolation": 2}]}, "perspective_c3_x": {"Points": [{"co": {"X": 1, "Y": -1}, "interpolation": 2}]}, "perspective_c3_y": {"Points": [{"co": {"X": 1, "Y": -1}, "interpolation": 2}]}, "perspective_c4_x": {"Points": [{"co": {"X": 1, "Y": -1}, "interpolation": 2}]}, "perspective_c4_y": {"Points": [{"co": {"X": 1, "Y": -1}, "interpolation": 2}]}, "position": 332.7275, "reader": {"acodec": "", "audio_bit_rate": 0, "audio_stream_index": -1, "audio_timebase": {"den": 1, "num": 1}, "channel_layout": 4, "channels": 0, "display_ratio": {"den": 84, "num": 149}, "duration": 12.5, "file_size": "1478230", "fps": {"den": 1, "num": 24}, "has_audio": false, "has_single_image": false, "has_video": true, "height": 336, "interlaced_frame": false, "path": "video assets/1011337619-preview.mp4", "pixel_format": 0, "pixel_ratio": {"den": 1, "num": 1}, "sample_rate": 0, "top_field_first": true, "type": "FFmpegReader", "vcodec": "h264", "video_bit_rate": 946067, "video_length": "300", "video_stream_index": 0, "video_timebase": {"den": 12288, "num": 1}, "width": 596}, "rotation": {"Points": [{"co": {"X": 1, "Y": 0}, "interpolation": 2}]}, "scale": 1, "scale_x": {"Points": [{"co": {"X": 1, "Y": 1}, "interpolation": 2}]}, "scale_y": {"Points": [{"co": {"X": 1, "Y": 1}, "interpolation": 2}]}, "shear_x": {"Points": [{"co": {"X": 1, "Y": 0}, "interpolation": 2}]}, "shear_y": {"Points": [{"co": {"X": 1, "Y": 0}, "interpolation": 2}]}, "start": 0, "time": {"Points": [{"co": {"X": 1, "Y": 1}, "interpolation": 2}]}, "volume": {"Points": [{"co": {"X": 1, "Y": 1}, "interpolation": 2}]}, "wave_color": {"alpha": {"Points": [{"co": {"X": 1, "Y": 255}, "handle_left": {"X": 0.5, "Y": 1}, "handle_right": {"X": 0.5, "Y": 0}, "handle_type": 0, "interpolation": 0}]}, "blue": {"Points": [{"co": {"X": 1, "Y": 255}, "handle_left": {"X": 0.5, "Y": 1}, "handle_right": {"X": 0.5, "Y": 0}, "handle_type": 0, "interpolation": 0}]}, "green": {"Points": [{"co": {"X": 1, "Y": 123}, "handle_left": {"X": 0.5, "Y": 1}, "handle_right": {"X": 0.5, "Y": 0}, "handle_type": 0, "interpolation": 0}]}, "red": {"Points": [{"co": {"X": 1, "Y": 0}, "handle_left": {"X": 0.5, "Y": 1}, "handle_right": {"X": 0.5, "Y": 0}, "handle_type": 0, "interpolation": 0}]}}, "waveform": false, "file_id": "O6ZG7ZNYW8", "title": "1011337619-preview.mp4", "image": "../../../.openshot_qt/thumbnail/O6ZG7ZNYW8.png"}, {"alpha": {"Points": [{"co": {"X": 1, "Y": 1}, "interpolation": 2}]}, "anchor": 0, "channel_filter": {"Points": [{"co": {"X": 1, "Y": -1}, "interpolation": 2}]}, "channel_mapping": {"Points": [{"co": {"X": 1, "Y": -1}, "interpolation": 2}]}, "crop_height": {"Points": [{"co": {"X": 1, "Y": -1}, "interpolation": 2}]}, "crop_width": {"Points": [{"co": {"X": 1, "Y": -1}, "interpolation": 2}]}, "crop_x": {"Points": [{"co": {"X": 1, "Y": 0}, "interpolation": 2}]}, "crop_y": {"Points": [{"co": {"X": 1, "Y": 0}, "interpolation": 2}]}, "display": 0, "duration": 25.292993545532227, "effects": [], "end": 25.292993545532227, "gravity": 4, "has_audio": {"Points": [{"co": {"X": 1, "Y": -1}, "interpolation": 2}]}, "has_video": {"Points": [{"co": {"X": 1, "Y": -1}, "interpolation": 2}]}, "id": "P45NU8QLL3", "layer": 4, "location_x": {"Points": [{"co": {"X": 1, "Y": 0}, "interpolation": 2}]}, "location_y": {"Points": [{"co": {"X": 1, "Y": 0}, "interpolation": 2}]}, "perspective_c1_x": {"Points": [{"co": {"X": 1, "Y": -1}, "interpolation": 2}]}, "perspective_c1_y": {"Points": [{"co": {"X": 1, "Y": -1}, "interpolation": 2}]}, "perspective_c2_x": {"Points": [{"co": {"X": 1, "Y": -1}, "interpolation": 2}]}, "perspective_c2_y": {"Points": [{"co": {"X": 1, "Y": -1}, "interpolation": 2}]}, "perspective_c3_x": {"Points": [{"co": {"X": 1, "Y": -1}, "interpolation": 2}]}, "perspective_c3_y": {"Points": [{"co": {"X": 1, "Y": -1}, "interpolation": 2}]}, "perspective_c4_x": {"Points": [{"co": {"X": 1, "Y": -1}, "interpolation": 2}]}, "perspective_c4_y": {"Points": [{"co": {"X": 1, "Y": -1}, "interpolation": 2}]}, "position": 350.6700006866455, "reader": {"acodec": "aac", "audio_bit_rate": 2783, "audio_stream_index": 1, "audio_timebase": {"den": 44100, "num": 1}, "channel_layout": 3, "channels": 2, "display_ratio": {"den": 84, "num": 149}, "duration": 25.292993545532227, "file_size": "2738626", "fps": {"den": 1001, "num": 30000}, "has_audio": true, "has_single_image": false, "has_video": true, "height": 336, "interlaced_frame": false, "path": "video assets/1013201579-preview.mp4", "pixel_format": 0, "pixel_ratio": {"den": 1, "num": 1}, "sample_rate": 44100, "top_field_first": true, "type": "FFmpegReader", "vcodec": "h264", "video_bit_rate": 865626, "video_length": "758", "video_stream_index": 0, "video_timebase": {"den": 30000, "num": 1}, "width": 596}, "rotation": {"Points": [{"co": {"X": 1, "Y": 0}, "interpolation": 2}]}, "scale": 1, "scale_x": {"Points": [{"co": {"X": 1, "Y": 1}, "interpolation": 2}]}, "scale_y": {"Points": [{"co": {"X": 1, "Y": 1}, "interpolation": 2}]}, "shear_x": {"Points": [{"co": {"X": 1, "Y": 0}, "interpolation": 2}]}, "shear_y": {"Points": [{"co": {"X": 1, "Y": 0}, "interpolation": 2}]}, "start": 0, "time": {"Points": [{"co": {"X": 1, "Y": 1}, "interpolation": 2}]}, "volume": {"Points": [{"co": {"X": 1, "Y": 1}, "interpolation": 2}]}, "wave_color": {"alpha": {"Points": [{"co": {"X": 1, "Y": 255}, "handle_left": {"X": 0.5, "Y": 1}, "handle_right": {"X": 0.5, "Y": 0}, "handle_type": 0, "interpolation": 0}]}, "blue": {"Points": [{"co": {"X": 1, "Y": 255}, "handle_left": {"X": 0.5, "Y": 1}, "handle_right": {"X": 0.5, "Y": 0}, "handle_type": 0, "interpolation": 0}]}, "green": {"Points": [{"co": {"X": 1, "Y": 123}, "handle_left": {"X": 0.5, "Y": 1}, "handle_right": {"X": 0.5, "Y": 0}, "handle_type": 0, "interpolation": 0}]}, "red": {"Points": [{"co": {"X": 1, "Y": 0}, "handle_left": {"X": 0.5, "Y": 1}, "handle_right": {"X": 0.5, "Y": 0}, "handle_type": 0, "interpolation": 0}]}}, "waveform": false, "file_id": "897BSNVSR8", "title": "1013201579-preview.mp4", "image": "../../../.openshot_qt/thumbnail/897BSNVSR8.png"}, {"alpha": {"Points": [{"co": {"X": 1, "Y": 1}, "interpolation": 2}]}, "anchor": 0, "channel_filter": {"Points": [{"co": {"X": 1, "Y": -1}, "interpolation": 2}]}, "channel_mapping": {"Points": [{"co": {"X": 1, "Y": -1}, "interpolation": 2}]}, "crop_height": {"Points": [{"co": {"X": 1, "Y": -1}, "interpolation": 2}]}, "crop_width": {"Points": [{"co": {"X": 1, "Y": -1}, "interpolation": 2}]}, "crop_x": {"Points": [{"co": {"X": 1, "Y": 0}, "interpolation": 2}]}, "crop_y": {"Points": [{"co": {"X": 1, "Y": 0}, "interpolation": 2}]}, "display": 0, "duration": 16.1409969329834, "effects": [], "end": 16.1409969329834, "gravity": 4, "has_audio": {"Points": [{"co": {"X": 1, "Y": -1}, "interpolation": 2}]}, "has_video": {"Points": [{"co": {"X": 1, "Y": -1}, "interpolation": 2}]}, "id": "EA5LYYZO5T", "layer": 4, "location_x": {"Points": [{"co": {"X": 1, "Y": 0}, "interpolation": 2}]}, "location_y": {"Points": [{"co": {"X": 1, "Y": 0}, "interpolation": 2}]}, "perspective_c1_x": {"Points": [{"co": {"X": 1, "Y": -1}, "interpolation": 2}]}, "perspective_c1_y": {"Points": [{"co": {"X": 1, "Y": -1}, "interpolation": 2}]}, "perspective_c2_x": {"Points": [{"co": {"X": 1, "Y": -1}, "interpolation": 2}]}, "perspective_c2_y": {"Points": [{"co": {"X": 1, "Y": -1}, "interpolation": 2}]}, "perspective_c3_x": {"Points": [{"co": {"X": 1, "Y": -1}, "interpolation": 2}]}, "perspective_c3_y": {"Points": [{"co": {"X": 1, "Y": -1}, "interpolation": 2}]}, "perspective_c4_x": {"Points": [{"co": {"X": 1, "Y": -1}, "interpolation": 2}]}, "perspective_c4_y": {"Points": [{"co": {"X": 1, "Y": -1}, "interpolation": 2}]}, "position": 384.0580004501343, "reader": {"acodec": "aac", "audio_bit_rate": 2781, "audio_stream_index": 1, "audio_timebase": {"den": 44100, "num": 1}, "channel_layout": 3, "channels": 2, "display_ratio": {"den": 84, "num": 149}, "duration": 16.1409969329834, "file_size": "1911528", "fps": {"den": 1001, "num": 30000}, "has_audio": true, "has_single_image": false, "has_video": true, "height": 336, "interlaced_frame": false, "path": "video assets/1015105216-preview.mp4", "pixel_format": 0, "pixel_ratio": {"den": 1, "num": 1}, "sample_rate": 44100, "top_field_first": true, "type": "FFmpegReader", "vcodec": "h264", "video_bit_rate": 944956, "video_length": "485", "video_stream_index": 0, "video_timebase": {"den": 30000, "num": 1}, "width": 596}, "rotation": {"Points": [{"co": {"X": 1, "Y": 0}, "interpolation": 2}]}, "scale": 1, "scale_x": {"Points": [{"co": {"X": 1, "Y": 1}, "interpolation": 2}]}, "scale_y": {"Points": [{"co": {"X": 1, "Y": 1}, "interpolation": 2}]}, "shear_x": {"Points": [{"co": {"X": 1, "Y": 0}, "interpolation": 2}]}, "shear_y": {"Points": [{"co": {"X": 1, "Y": 0}, "interpolation": 2}]}, "start": 0, "time": {"Points": [{"co": {"X": 1, "Y": 1}, "interpolation": 2}]}, "volume": {"Points": [{"co": {"X": 1, "Y": 1}, "interpolation": 2}]}, "wave_color": {"alpha": {"Points": [{"co": {"X": 1, "Y": 255}, "handle_left": {"X": 0.5, "Y": 1}, "handle_right": {"X": 0.5, "Y": 0}, "handle_type": 0, "interpolation": 0}]}, "blue": {"Points": [{"co": {"X": 1, "Y": 255}, "handle_left": {"X": 0.5, "Y": 1}, "handle_right": {"X": 0.5, "Y": 0}, "handle_type": 0, "interpolation": 0}]}, "green": {"Points": [{"co": {"X": 1, "Y": 123}, "handle_left": {"X": 0.5, "Y": 1}, "handle_right": {"X": 0.5, "Y": 0}, "handle_type": 0, "interpolation": 0}]}, "red": {"Points": [{"co": {"X": 1, "Y": 0}, "handle_left": {"X": 0.5, "Y": 1}, "handle_right": {"X": 0.5, "Y": 0}, "handle_type": 0, "interpolation": 0}]}}, "waveform": false, "file_id": "BSQO44CAX3", "title": "1015105216-preview.mp4", "image": "../../../.openshot_qt/thumbnail/BSQO44CAX3.png"}, {"alpha": {"Points": [{"co": {"X": 1, "Y": 1}, "interpolation": 2}]}, "anchor": 0, "channel_filter": {"Points": [{"co": {"X": 1, "Y": -1}, "interpolation": 2}]}, "channel_mapping": {"Points": [{"co": {"X": 1, "Y": -1}, "interpolation": 2}]}, "crop_height": {"Points": [{"co": {"X": 1, "Y": -1}, "interpolation": 2}]}, "crop_width": {"Points": [{"co": {"X": 1, "Y": -1}, "interpolation": 2}]}, "crop_x": {"Points": [{"co": {"X": 1, "Y": 0}, "interpolation": 2}]}, "crop_y": {"Points": [{"co": {"X": 1, "Y": 0}, "interpolation": 2}]}, "display": 0, "duration": 10.143991470336914, "effects": [], "end": 10.143991470336914, "gravity": 4, "has_audio": {"Points": [{"co": {"X": 1, "Y": -1}, "interpolation": 2}]}, "has_video": {"Points": [{"co": {"X": 1, "Y": -1}, "interpolation": 2}]}, "id": "SGYHHR4NBG", "layer": 4, "location_x": {"Points": [{"co": {"X": 1, "Y": 0}, "interpolation": 2}]}, "location_y": {"Points": [{"co": {"X": 1, "Y": 0}, "interpolation": 2}]}, "perspective_c1_x": {"Points": [{"co": {"X": 1, "Y": -1}, "interpolation": 2}]}, "perspective_c1_y": {"Points": [{"co": {"X": 1, "Y": -1}, "interpolation": 2}]}, "perspective_c2_x": {"Points": [{"co": {"X": 1, "Y": -1}, "interpolation": 2}]}, "perspective_c2_y": {"Points": [{"co": {"X": 1, "Y": -1}, "interpolation": 2}]}, "perspective_c3_x": {"Points": [{"co": {"X": 1, "Y": -1}, "interpolation": 2}]}, "perspective_c3_y": {"Points": [{"co": {"X": 1, "Y": -1}, "interpolation": 2}]}, "perspective_c4_x": {"Points": [{"co": {"X": 1, "Y": -1}, "interpolation": 2}]}, "perspective_c4_y": {"Points": [{"co": {"X": 1, "Y": -1}, "interpolation": 2}]}, "position": 406.5670007324219, "reader": {"acodec": "", "audio_bit_rate": 0, "audio_stream_index": -1, "audio_timebase": {"den": 1, "num": 1}, "channel_layout": 4, "channels": 0, "display_ratio": {"den": 84, "num": 149}, "duration": 10.143991470336914, "file_size": "1221831", "fps": {"den": 6, "num": 181}, "has_audio": false, "has_single_image": false, "has_video": true, "height": 336, "interlaced_frame": false, "path": "video assets/1019281846-preview.mp4", "pixel_format": 0, "pixel_ratio": {"den": 1, "num": 1}, "sample_rate": 0, "top_field_first": true, "type": "FFmpegReader", "vcodec": "h264", "video_bit_rate": 963589, "video_length": "306", "video_stream_index": 0, "video_timebase": {"den": 11584, "num": 1}, "width": 596}, "rotation": {"Points": [{"co": {"X": 1, "Y": 0}, "interpolation": 2}]}, "scale": 1, "scale_x": {"Points": [{"co": {"X": 1, "Y": 1}, "interpolation": 2}]}, "scale_y": {"Points": [{"co": {"X": 1, "Y": 1}, "interpolation": 2}]}, "shear_x": {"Points": [{"co": {"X": 1, "Y": 0}, "interpolation": 2}]}, "shear_y": {"Points": [{"co": {"X": 1, "Y": 0}, "interpolation": 2}]}, "start": 0, "time": {"Points": [{"co": {"X": 1, "Y": 1}, "interpolation": 2}]}, "volume": {"Points": [{"co": {"X": 1, "Y": 1}, "interpolation": 2}]}, "wave_color": {"alpha": {"Points": [{"co": {"X": 1, "Y": 255}, "handle_left": {"X": 0.5, "Y": 1}, "handle_right": {"X": 0.5, "Y": 0}, "handle_type": 0, "interpolation": 0}]}, "blue": {"Points": [{"co": {"X": 1, "Y": 255}, "handle_left": {"X": 0.5, "Y": 1}, "handle_right": {"X": 0.5, "Y": 0}, "handle_type": 0, "interpolation": 0}]}, "green": {"Points": [{"co": {"X": 1, "Y": 123}, "handle_left": {"X": 0.5, "Y": 1}, "handle_right": {"X": 0.5, "Y": 0}, "handle_type": 0, "interpolation": 0}]}, "red": {"Points": [{"co": {"X": 1, "Y": 0}, "handle_left": {"X": 0.5, "Y": 1}, "handle_right": {"X": 0.5, "Y": 0}, "handle_type": 0, "interpolation": 0}]}}, "waveform": false, "file_id": "37RK3BVHCD", "title": "1019281846-preview.mp4", "image": "../../../.openshot_qt/thumbnail/37RK3BVHCD.png"}, {"alpha": {"Points": [{"co": {"X": 1, "Y": 1}, "interpolation": 2}]}, "anchor": 0, "channel_filter": {"Points": [{"co": {"X": 1, "Y": -1}, "interpolation": 2}]}, "channel_mapping": {"Points": [{"co": {"X": 1, "Y": -1}, "interpolation": 2}]}, "crop_height": {"Points": [{"co": {"X": 1, "Y": -1}, "interpolation": 2}]}, "crop_width": {"Points": [{"co": {"X": 1, "Y": -1}, "interpolation": 2}]}, "crop_x": {"Points": [{"co": {"X": 1, "Y": 0}, "interpolation": 2}]}, "crop_y": {"Points": [{"co": {"X": 1, "Y": 0}, "interpolation": 2}]}, "display": 0, "duration": 6.400000095367432, "effects": [], "end": 6.400000095367432, "gravity": 4, "has_audio": {"Points": [{"co": {"X": 1, "Y": -1}, "interpolation": 2}]}, "has_video": {"Points": [{"co": {"X": 1, "Y": -1}, "interpolation": 2}]}, "id": "C11WZIDB01", "layer": 2, "location_x": {"Points": [{"co": {"X": 1, "Y": 0}, "interpolation": 2}]}, "location_y": {"Points": [{"co": {"X": 1, "Y": 0}, "interpolation": 2}]}, "perspective_c1_x": {"Points": [{"co": {"X": 1, "Y": -1}, "interpolation": 2}]}, "perspective_c1_y": {"Points": [{"co": {"X": 1, "Y": -1}, "interpolation": 2}]}, "perspective_c2_x": {"Points": [{"co": {"X": 1, "Y": -1}, "interpolation": 2}]}, "perspective_c2_y": {"Points": [{"co": {"X": 1, "Y": -1}, "interpolation": 2}]}, "perspective_c3_x": {"Points": [{"co": {"X": 1, "Y": -1}, "interpolation": 2}]}, "perspective_c3_y": {"Points": [{"co": {"X": 1, "Y": -1}, "interpolation": 2}]}, "perspective_c4_x": {"Points": [{"co": {"X": 1, "Y": -1}, "interpolation": 2}]}, "perspective_c4_y": {"Points": [{"co": {"X": 1, "Y": -1}, "interpolation": 2}]}, "position": 286.56000007629393, "reader": {"acodec": "", "audio_bit_rate": 0, "audio_stream_index": -1, "audio_timebase": {"den": 1, "num": 1}, "channel_layout": 4, "channels": 0, "display_ratio": {"den": 84, "num": 149}, "duration": 6.400000095367432, "file_size": "752329", "fps": {"den": 1, "num": 30}, "has_audio": false, "has_single_image": false, "has_video": true, "height": 336, "interlaced_frame": false, "path": "video assets/1016312956-preview.mp4", "pixel_format": 0, "pixel_ratio": {"den": 1, "num": 1}, "sample_rate": 0, "top_field_first": true, "type": "FFmpegReader", "vcodec": "h264", "video_bit_rate": 940411, "video_length": "192", "video_stream_index": 0, "video_timebase": {"den": 15360, "num": 1}, "width": 596}, "rotation": {"Points": [{"co": {"X": 1, "Y": 0}, "interpolation": 2}]}, "scale": 1, "scale_x": {"Points": [{"co": {"X": 1, "Y": 1}, "interpolation": 2}]}, "scale_y": {"Points": [{"co": {"X": 1, "Y": 1}, "interpolation": 2}]}, "shear_x": {"Points": [{"co": {"X": 1, "Y": 0}, "interpolation": 2}]}, "shear_y": {"Points": [{"co": {"X": 1, "Y": 0}, "interpolation": 2}]}, "start": 0, "time": {"Points": [{"co": {"X": 1, "Y": 1}, "interpolation": 2}]}, "volume": {"Points": [{"co": {"X": 1, "Y": 1}, "interpolation": 2}]}, "wave_color": {"alpha": {"Points": [{"co": {"X": 1, "Y": 255}, "handle_left": {"X": 0.5, "Y": 1}, "handle_right": {"X": 0.5, "Y": 0}, "handle_type": 0, "interpolation": 0}]}, "blue": {"Points": [{"co": {"X": 1, "Y": 255}, "handle_left": {"X": 0.5, "Y": 1}, "handle_right": {"X": 0.5, "Y": 0}, "handle_type": 0, "interpolation": 0}]}, "green": {"Points": [{"co": {"X": 1, "Y": 123}, "handle_left": {"X": 0.5, "Y": 1}, "handle_right": {"X": 0.5, "Y": 0}, "handle_type": 0, "interpolation": 0}]}, "red": {"Points": [{"co": {"X": 1, "Y": 0}, "handle_left": {"X": 0.5, "Y": 1}, "handle_right": {"X": 0.5, "Y": 0}, "handle_type": 0, "interpolation": 0}]}}, "waveform": false, "file_id": "6D5T1E4BRH", "title": "1016312956-preview.mp4", "image": "../../../.openshot_qt/thumbnail/6D5T1E4BRH.png"}, {"alpha": {"Points": [{"co": {"X": 1, "Y": 1}, "interpolation": 2}]}, "anchor": 0, "channel_filter": {"Points": [{"co": {"X": 1, "Y": -1}, "interpolation": 2}]}, "channel_mapping": {"Points": [{"co": {"X": 1, "Y": -1}, "interpolation": 2}]}, "crop_height": {"Points": [{"co": {"X": 1, "Y": -1}, "interpolation": 2}]}, "crop_width": {"Points": [{"co": {"X": 1, "Y": -1}, "interpolation": 2}]}, "crop_x": {"Points": [{"co": {"X": 1, "Y": 0}, "interpolation": 2}]}, "crop_y": {"Points": [{"co": {"X": 1, "Y": 0}, "interpolation": 2}]}, "display": 0, "duration": 10.143991470336914, "effects": [], "end": 10.143991470336914, "gravity": 4, "has_audio": {"Points": [{"co": {"X": 1, "Y": -1}, "interpolation": 2}]}, "has_video": {"Points": [{"co": {"X": 1, "Y": -1}, "interpolation": 2}]}, "id": "CSN9JD9AUB", "layer": 3, "location_x": {"Points": [{"co": {"X": 1, "Y": 0}, "interpolation": 2}]}, "location_y": {"Points": [{"co": {"X": 1, "Y": 0}, "interpolation": 2}]}, "perspective_c1_x": {"Points": [{"co": {"X": 1, "Y": -1}, "interpolation": 2}]}, "perspective_c1_y": {"Points": [{"co": {"X": 1, "Y": -1}, "interpolation": 2}]}, "perspective_c2_x": {"Points": [{"co": {"X": 1, "Y": -1}, "interpolation": 2}]}, "perspective_c2_y": {"Points": [{"co": {"X": 1, "Y": -1}, "interpolation": 2}]}, "perspective_c3_x": {"Points": [{"co": {"X": 1, "Y": -1}, "interpolation": 2}]}, "perspective_c3_y": {"Points": [{"co": {"X": 1, "Y": -1}, "interpolation": 2}]}, "perspective_c4_x": {"Points": [{"co": {"X": 1, "Y": -1}, "interpolation": 2}]}, "perspective_c4_y": {"Points": [{"co": {"X": 1, "Y": -1}, "interpolation": 2}]}, "position": 416.7109922027588, "reader": {"acodec": "", "audio_bit_rate": 0, "audio_stream_index": -1, "audio_timebase": {"den": 1, "num": 1}, "channel_layout": 4, "channels": 0, "display_ratio": {"den": 84, "num": 149}, "duration": 10.143991470336914, "file_size": "1221831", "fps": {"den": 6, "num": 181}, "has_audio": false, "has_single_image": false, "has_video": true, "height": 336, "interlaced_frame": false, "path": "video assets/1019281846-preview.mp4", "pixel_format": 0, "pixel_ratio": {"den": 1, "num": 1}, "sample_rate": 0, "top_field_first": true, "type": "FFmpegReader", "vcodec": "h264", "video_bit_rate": 963589, "video_length": "306", "video_stream_index": 0, "video_timebase": {"den": 11584, "num": 1}, "width": 596}, "rotation": {"Points": [{"co": {"X": 1, "Y": 0}, "interpolation": 2}]}, "scale": 1, "scale_x": {"Points": [{"co": {"X": 1, "Y": 1}, "interpolation": 2}]}, "scale_y": {"Points": [{"co": {"X": 1, "Y": 1}, "interpolation": 2}]}, "shear_x": {"Points": [{"co": {"X": 1, "Y": 0}, "interpolation": 2}]}, "shear_y": {"Points": [{"co": {"X": 1, "Y": 0}, "interpolation": 2}]}, "start": 0, "time": {"Points": [{"co": {"X": 1, "Y": 1}, "interpolation": 2}]}, "volume": {"Points": [{"co": {"X": 1, "Y": 1}, "interpolation": 2}]}, "wave_color": {"alpha": {"Points": [{"co": {"X": 1, "Y": 255}, "handle_left": {"X": 0.5, "Y": 1}, "handle_right": {"X": 0.5, "Y": 0}, "handle_type": 0, "interpolation": 0}]}, "blue": {"Points": [{"co": {"X": 1, "Y": 255}, "handle_left": {"X": 0.5, "Y": 1}, "handle_right": {"X": 0.5, "Y": 0}, "handle_type": 0, "interpolation": 0}]}, "green": {"Points": [{"co": {"X": 1, "Y": 123}, "handle_left": {"X": 0.5, "Y": 1}, "handle_right": {"X": 0.5, "Y": 0}, "handle_type": 0, "interpolation": 0}]}, "red": {"Points": [{"co": {"X": 1, "Y": 0}, "handle_left": {"X": 0.5, "Y": 1}, "handle_right": {"X": 0.5, "Y": 0}, "handle_type": 0, "interpolation": 0}]}}, "waveform": false, "file_id": "37RK3BVHCD", "title": "1019281846-preview.mp4", "image": "../../../.openshot_qt/thumbnail/37RK3BVHCD.png"}, {"alpha": {"Points": [{"co": {"X": 1, "Y": 1}, "interpolation": 2}]}, "anchor": 0, "channel_filter": {"Points": [{"co": {"X": 1, "Y": -1}, "interpolation": 2}]}, "channel_mapping": {"Points": [{"co": {"X": 1, "Y": -1}, "interpolation": 2}]}, "crop_height": {"Points": [{"co": {"X": 1, "Y": -1}, "interpolation": 2}]}, "crop_width": {"Points": [{"co": {"X": 1, "Y": -1}, "interpolation": 2}]}, "crop_x": {"Points": [{"co": {"X": 1, "Y": 0}, "interpolation": 2}]}, "crop_y": {"Points": [{"co": {"X": 1, "Y": 0}, "interpolation": 2}]}, "display": 0, "duration": 15.015000343322754, "effects": [], "end": 15.015000343322754, "gravity": 4, "has_audio": {"Points": [{"co": {"X": 1, "Y": -1}, "interpolation": 2}]}, "has_video": {"Points": [{"co": {"X": 1, "Y": -1}, "interpolation": 2}]}, "id": "LA4ZKU0J5D", "layer": 4, "location_x": {"Points": [{"co": {"X": 1, "Y": 0}, "interpolation": 2}]}, "location_y": {"Points": [{"co": {"X": 1, "Y": 0}, "interpolation": 2}]}, "perspective_c1_x": {"Points": [{"co": {"X": 1, "Y": -1}, "interpolation": 2}]}, "perspective_c1_y": {"Points": [{"co": {"X": 1, "Y": -1}, "interpolation": 2}]}, "perspective_c2_x": {"Points": [{"co": {"X": 1, "Y": -1}, "interpolation": 2}]}, "perspective_c2_y": {"Points": [{"co": {"X": 1, "Y": -1}, "interpolation": 2}]}, "perspective_c3_x": {"Points": [{"co": {"X": 1, "Y": -1}, "interpolation": 2}]}, "perspective_c3_y": {"Points": [{"co": {"X": 1, "Y": -1}, "interpolation": 2}]}, "perspective_c4_x": {"Points": [{"co": {"X": 1, "Y": -1}, "interpolation": 2}]}, "perspective_c4_y": {"Points": [{"co": {"X": 1, "Y": -1}, "interpolation": 2}]}, "position": 314.59398418426514, "reader": {"acodec": "", "audio_bit_rate": 0, "audio_stream_index": -1, "audio_timebase": {"den": 1, "num": 1}, "channel_layout": 4, "channels": 0, "display_ratio": {"den": 84, "num": 149}, "duration": 15.015000343322754, "file_size": "1533333", "fps": {"den": 1001, "num": 30000}, "has_audio": false, "has_single_image": false, "has_video": true, "height": 336, "interlaced_frame": false, "path": "video assets/1025020760-preview.mp4", "pixel_format": 0, "pixel_ratio": {"den": 1, "num": 1}, "sample_rate": 0, "top_field_first": true, "type": "FFmpegReader", "vcodec": "h264", "video_bit_rate": 816960, "video_length": "450", "video_stream_index": 0, "video_timebase": {"den": 30000, "num": 1}, "width": 596}, "rotation": {"Points": [{"co": {"X": 1, "Y": 0}, "interpolation": 2}]}, "scale": 1, "scale_x": {"Points": [{"co": {"X": 1, "Y": 1}, "interpolation": 2}]}, "scale_y": {"Points": [{"co": {"X": 1, "Y": 1}, "interpolation": 2}]}, "shear_x": {"Points": [{"co": {"X": 1, "Y": 0}, "interpolation": 2}]}, "shear_y": {"Points": [{"co": {"X": 1, "Y": 0}, "interpolation": 2}]}, "start": 0, "time": {"Points": [{"co": {"X": 1, "Y": 1}, "interpolation": 2}]}, "volume": {"Points": [{"co": {"X": 1, "Y": 1}, "interpolation": 2}]}, "wave_color": {"alpha": {"Points": [{"co": {"X": 1, "Y": 255}, "handle_left": {"X": 0.5, "Y": 1}, "handle_right": {"X": 0.5, "Y": 0}, "handle_type": 0, "interpolation": 0}]}, "blue": {"Points": [{"co": {"X": 1, "Y": 255}, "handle_left": {"X": 0.5, "Y": 1}, "handle_right": {"X": 0.5, "Y": 0}, "handle_type": 0, "interpolation": 0}]}, "green": {"Points": [{"co": {"X": 1, "Y": 123}, "handle_left": {"X": 0.5, "Y": 1}, "handle_right": {"X": 0.5, "Y": 0}, "handle_type": 0, "interpolation": 0}]}, "red": {"Points": [{"co": {"X": 1, "Y": 0}, "handle_left": {"X": 0.5, "Y": 1}, "handle_right": {"X": 0.5, "Y": 0}, "handle_type": 0, "interpolation": 0}]}}, "waveform": false, "file_id": "PK0GVBXWTM", "title": "1025020760-preview.mp4", "image": "../../../.openshot_qt/thumbnail/PK0GVBXWTM.png"}, {"alpha": {"Points": [{"co": {"X": 1, "Y": 1}, "interpolation": 2}]}, "anchor": 0, "channel_filter": {"Points": [{"co": {"X": 1, "Y": -1}, "interpolation": 2}]}, "channel_mapping": {"Points": [{"co": {"X": 1, "Y": -1}, "interpolation": 2}]}, "crop_height": {"Points": [{"co": {"X": 1, "Y": -1}, "interpolation": 2}]}, "crop_width": {"Points": [{"co": {"X": 1, "Y": -1}, "interpolation": 2}]}, "crop_x": {"Points": [{"co": {"X": 1, "Y": 0}, "interpolation": 2}]}, "crop_y": {"Points": [{"co": {"X": 1, "Y": 0}, "interpolation": 2}]}, "display": 0, "duration": 19.366992950439453, "effects": [], "end": 19.366992950439453, "gravity": 4, "has_audio": {"Points": [{"co": {"X": 1, "Y": -1}, "interpolation": 2}]}, "has_video": {"Points": [{"co": {"X": 1, "Y": -1}, "interpolation": 2}]}, "id": "XBFU5J3IPT", "layer": 4, "location_x": {"Points": [{"co": {"X": 1, "Y": 0}, "interpolation": 2}]}, "location_y": {"Points": [{"co": {"X": 1, "Y": 0}, "interpolation": 2}]}, "perspective_c1_x": {"Points": [{"co": {"X": 1, "Y": -1}, "interpolation": 2}]}, "perspective_c1_y": {"Points": [{"co": {"X": 1, "Y": -1}, "interpolation": 2}]}, "perspective_c2_x": {"Points": [{"co": {"X": 1, "Y": -1}, "interpolation": 2}]}, "perspective_c2_y": {"Points": [{"co": {"X": 1, "Y": -1}, "interpolation": 2}]}, "perspective_c3_x": {"Points": [{"co": {"X": 1, "Y": -1}, "interpolation": 2}]}, "perspective_c3_y": {"Points": [{"co": {"X": 1, "Y": -1}, "interpolation": 2}]}, "perspective_c4_x": {"Points": [{"co": {"X": 1, "Y": -1}, "interpolation": 2}]}, "perspective_c4_y": {"Points": [{"co": {"X": 1, "Y": -1}, "interpolation": 2}]}, "position": 420.16, "reader": {"acodec": "", "audio_bit_rate": 0, "audio_stream_index": -1, "audio_timebase": {"den": 1, "num": 1}, "channel_layout": 4, "channels": 0, "display_ratio": {"den": 84, "num": 149}, "duration": 19.366992950439453, "file_size": "1210742", "fps": {"den": 1, "num": 30}, "has_audio": false, "has_single_image": false, "has_video": true, "height": 336, "interlaced_frame": false, "path": "video assets/1031348399-preview.mp4", "pixel_format": 0, "pixel_ratio": {"den": 1, "num": 1}, "sample_rate": 0, "top_field_first": true, "type": "FFmpegReader", "vcodec": "h264", "video_bit_rate": 500125, "video_length": "581", "video_stream_index": 0, "video_timebase": {"den": 15360, "num": 1}, "width": 596}, "rotation": {"Points": [{"co": {"X": 1, "Y": 0}, "interpolation": 2}]}, "scale": 1, "scale_x": {"Points": [{"co": {"X": 1, "Y": 1}, "interpolation": 2}]}, "scale_y": {"Points": [{"co": {"X": 1, "Y": 1}, "interpolation": 2}]}, "shear_x": {"Points": [{"co": {"X": 1, "Y": 0}, "interpolation": 2}]}, "shear_y": {"Points": [{"co": {"X": 1, "Y": 0}, "interpolation": 2}]}, "start": 0, "time": {"Points": [{"co": {"X": 1, "Y": 1}, "interpolation": 2}]}, "volume": {"Points": [{"co": {"X": 1, "Y": 1}, "interpolation": 2}]}, "wave_color": {"alpha": {"Points": [{"co": {"X": 1, "Y": 255}, "handle_left": {"X": 0.5, "Y": 1}, "handle_right": {"X": 0.5, "Y": 0}, "handle_type": 0, "interpolation": 0}]}, "blue": {"Points": [{"co": {"X": 1, "Y": 255}, "handle_left": {"X": 0.5, "Y": 1}, "handle_right": {"X": 0.5, "Y": 0}, "handle_type": 0, "interpolation": 0}]}, "green": {"Points": [{"co": {"X": 1, "Y": 123}, "handle_left": {"X": 0.5, "Y": 1}, "handle_right": {"X": 0.5, "Y": 0}, "handle_type": 0, "interpolation": 0}]}, "red": {"Points": [{"co": {"X": 1, "Y": 0}, "handle_left": {"X": 0.5, "Y": 1}, "handle_right": {"X": 0.5, "Y": 0}, "handle_type": 0, "interpolation": 0}]}}, "waveform": false, "file_id": "5695A74IRT", "title": "1031348399-preview.mp4", "image": "../../../.openshot_qt/thumbnail/5695A74IRT.png"}, {"alpha": {"Points": [{"co": {"X": 1, "Y": 1}, "interpolation": 2}]}, "anchor": 0, "channel_filter": {"Points": [{"co": {"X": 1, "Y": -1}, "interpolation": 2}]}, "channel_mapping": {"Points": [{"co": {"X": 1, "Y": -1}, "interpolation": 2}]}, "crop_height": {"Points": [{"co": {"X": 1, "Y": -1}, "interpolation": 2}]}, "crop_width": {"Points": [{"co": {"X": 1, "Y": -1}, "interpolation": 2}]}, "crop_x": {"Points": [{"co": {"X": 1, "Y": 0}, "interpolation": 2}]}, "crop_y": {"Points": [{"co": {"X": 1, "Y": 0}, "interpolation": 2}]}, "display": 0, "duration": 35.583984375, "effects": [], "end": 35.583984375, "gravity": 4, "has_audio": {"Points": [{"co": {"X": 1, "Y": -1}, "interpolation": 2}]}, "has_video": {"Points": [{"co": {"X": 1, "Y": -1}, "interpolation": 2}]}, "id": "3LBVTYEZ5B", "layer": 4, "location_x": {"Points": [{"co": {"X": 1, "Y": 0}, "interpolation": 2}]}, "location_y": {"Points": [{"co": {"X": 1, "Y": 0}, "interpolation": 2}]}, "perspective_c1_x": {"Points": [{"co": {"X": 1, "Y": -1}, "interpolation": 2}]}, "perspective_c1_y": {"Points": [{"co": {"X": 1, "Y": -1}, "interpolation": 2}]}, "perspective_c2_x": {"Points": [{"co": {"X": 1, "Y": -1}, "interpolation": 2}]}, "perspective_c2_y": {"Points": [{"co": {"X": 1, "Y": -1}, "interpolation": 2}]}, "perspective_c3_x": {"Points": [{"co": {"X": 1, "Y": -1}, "interpolation": 2}]}, "perspective_c3_y": {"Points": [{"co": {"X": 1, "Y": -1}, "interpolation": 2}]}, "perspective_c4_x": {"Points": [{"co": {"X": 1, "Y": -1}, "interpolation": 2}]}, "perspective_c4_y": {"Points": [{"co": {"X": 1, "Y": -1}, "interpolation": 2}]}, "position": 251.13750007629395, "reader": {"acodec": "", "audio_bit_rate": 0, "audio_stream_index": -1, "audio_timebase": {"den": 1, "num": 1}, "channel_layout": 4, "channels": 0, "display_ratio": {"den": 84, "num": 149}, "duration": 35.583984375, "file_size": "4040931", "fps": {"den": 1, "num": 24}, "has_audio": false, "has_single_image": false, "has_video": true, "height": 336, "interlaced_frame": false, "path": "video assets/1033434362-preview.mp4", "pixel_format": 0, "pixel_ratio": {"den": 1, "num": 1}, "sample_rate": 0, "top_field_first": true, "type": "FFmpegReader", "vcodec": "h264", "video_bit_rate": 908482, "video_length": "854", "video_stream_index": 0, "video_timebase": {"den": 12288, "num": 1}, "width": 596}, "rotation": {"Points": [{"co": {"X": 1, "Y": 0}, "interpolation": 2}]}, "scale": 1, "scale_x": {"Points": [{"co": {"X": 1, "Y": 1}, "interpolation": 2}]}, "scale_y": {"Points": [{"co": {"X": 1, "Y": 1}, "interpolation": 2}]}, "shear_x": {"Points": [{"co": {"X": 1, "Y": 0}, "interpolation": 2}]}, "shear_y": {"Points": [{"co": {"X": 1, "Y": 0}, "interpolation": 2}]}, "start": 0, "time": {"Points": [{"co": {"X": 1, "Y": 1}, "interpolation": 2}]}, "volume": {"Points": [{"co": {"X": 1, "Y": 1}, "interpolation": 2}]}, "wave_color": {"alpha": {"Points": [{"co": {"X": 1, "Y": 255}, "handle_left": {"X": 0.5, "Y": 1}, "handle_right": {"X": 0.5, "Y": 0}, "handle_type": 0, "interpolation": 0}]}, "blue": {"Points": [{"co": {"X": 1, "Y": 255}, "handle_left": {"X": 0.5, "Y": 1}, "handle_right": {"X": 0.5, "Y": 0}, "handle_type": 0, "interpolation": 0}]}, "green": {"Points": [{"co": {"X": 1, "Y": 123}, "handle_left": {"X": 0.5, "Y": 1}, "handle_right": {"X": 0.5, "Y": 0}, "handle_type": 0, "interpolation": 0}]}, "red": {"Points": [{"co": {"X": 1, "Y": 0}, "handle_left": {"X": 0.5, "Y": 1}, "handle_right": {"X": 0.5, "Y": 0}, "handle_type": 0, "interpolation": 0}]}}, "waveform": false, "file_id": "O1B5S1FAAK", "title": "1033434362-preview.mp4", "image": "../../../.openshot_qt/thumbnail/O1B5S1FAAK.png"}, {"alpha": {"Points": [{"co": {"X": 1, "Y": 1}, "interpolation": 2}]}, "anchor": 0, "channel_filter": {"Points": [{"co": {"X": 1, "Y": -1}, "interpolation": 2}]}, "channel_mapping": {"Points": [{"co": {"X": 1, "Y": -1}, "interpolation": 2}]}, "crop_height": {"Points": [{"co": {"X": 1, "Y": -1}, "interpolation": 2}]}, "crop_width": {"Points": [{"co": {"X": 1, "Y": -1}, "interpolation": 2}]}, "crop_x": {"Points": [{"co": {"X": 1, "Y": 0}, "interpolation": 2}]}, "crop_y": {"Points": [{"co": {"X": 1, "Y": 0}, "interpolation": 2}]}, "display": 0, "duration": 14.807000160217285, "effects": [], "end": 14.807000160217285, "gravity": 4, "has_audio": {"Points": [{"co": {"X": 1, "Y": -1}, "interpolation": 2}]}, "has_video": {"Points": [{"co": {"X": 1, "Y": -1}, "interpolation": 2}]}, "id": "9HBMVHJIJB", "layer": 1, "location_x": {"Points": [{"co": {"X": 1, "Y": 0}, "interpolation": 2}]}, "location_y": {"Points": [{"co": {"X": 1, "Y": 0}, "interpolation": 2}]}, "perspective_c1_x": {"Points": [{"co": {"X": 1, "Y": -1}, "interpolation": 2}]}, "perspective_c1_y": {"Points": [{"co": {"X": 1, "Y": -1}, "interpolation": 2}]}, "perspective_c2_x": {"Points": [{"co": {"X": 1, "Y": -1}, "interpolation": 2}]}, "perspective_c2_y": {"Points": [{"co": {"X": 1, "Y": -1}, "interpolation": 2}]}, "perspective_c3_x": {"Points": [{"co": {"X": 1, "Y": -1}, "interpolation": 2}]}, "perspective_c3_y": {"Points": [{"co": {"X": 1, "Y": -1}, "interpolation": 2}]}, "perspective_c4_x": {"Points": [{"co": {"X": 1, "Y": -1}, "interpolation": 2}]}, "perspective_c4_y": {"Points": [{"co": {"X": 1, "Y": -1}, "interpolation": 2}]}, "position": 244.32, "reader": {"acodec": "", "audio_bit_rate": 0, "audio_stream_index": -1, "audio_timebase": {"den": 1, "num": 1}, "channel_layout": 4, "channels": 0, "display_ratio": {"den": 79, "num": 150}, "duration": 14.807000160217285, "file_size": "1666944", "fps": {"den": 1001, "num": 24000}, "has_audio": false, "has_single_image": false, "has_video": true, "height": 316, "interlaced_frame": false, "path": "video assets/1037066192-preview.mp4", "pixel_format": 0, "pixel_ratio": {"den": 1, "num": 1}, "sample_rate": 0, "top_field_first": true, "type": "FFmpegReader", "vcodec": "h264", "video_bit_rate": 900624, "video_length": "355", "video_stream_index": 0, "video_timebase": {"den": 24000, "num": 1}, "width": 600}, "rotation": {"Points": [{"co": {"X": 1, "Y": 0}, "interpolation": 2}]}, "scale": 1, "scale_x": {"Points": [{"co": {"X": 1, "Y": 1}, "interpolation": 2}]}, "scale_y": {"Points": [{"co": {"X": 1, "Y": 1}, "interpolation": 2}]}, "shear_x": {"Points": [{"co": {"X": 1, "Y": 0}, "interpolation": 2}]}, "shear_y": {"Points": [{"co": {"X": 1, "Y": 0}, "interpolation": 2}]}, "start": 0, "time": {"Points": [{"co": {"X": 1, "Y": 1}, "interpolation": 2}]}, "volume": {"Points": [{"co": {"X": 1, "Y": 1}, "interpolation": 2}]}, "wave_color": {"alpha": {"Points": [{"co": {"X": 1, "Y": 255}, "handle_left": {"X": 0.5, "Y": 1}, "handle_right": {"X": 0.5, "Y": 0}, "handle_type": 0, "interpolation": 0}]}, "blue": {"Points": [{"co": {"X": 1, "Y": 255}, "handle_left": {"X": 0.5, "Y": 1}, "handle_right": {"X": 0.5, "Y": 0}, "handle_type": 0, "interpolation": 0}]}, "green": {"Points": [{"co": {"X": 1, "Y": 123}, "handle_left": {"X": 0.5, "Y": 1}, "handle_right": {"X": 0.5, "Y": 0}, "handle_type": 0, "interpolation": 0}]}, "red": {"Points": [{"co": {"X": 1, "Y": 0}, "handle_left": {"X": 0.5, "Y": 1}, "handle_right": {"X": 0.5, "Y": 0}, "handle_type": 0, "interpolation": 0}]}}, "waveform": false, "file_id": "8PTZDQOQP0", "title": "1037066192-preview.mp4", "image": "../../../.openshot_qt/thumbnail/8PTZDQOQP0.png"}, {"alpha": {"Points": [{"co": {"X": 1, "Y": 1}, "interpolation": 2}]}, "anchor": 0, "channel_filter": {"Points": [{"co": {"X": 1, "Y": -1}, "interpolation": 2}]}, "channel_mapping": {"Points": [{"co": {"X": 1, "Y": -1}, "interpolation": 2}]}, "crop_height": {"Points": [{"co": {"X": 1, "Y": -1}, "interpolation": 2}]}, "crop_width": {"Points": [{"co": {"X": 1, "Y": -1}, "interpolation": 2}]}, "crop_x": {"Points": [{"co": {"X": 1, "Y": 0}, "interpolation": 2}]}, "crop_y": {"Points": [{"co": {"X": 1, "Y": 0}, "interpolation": 2}]}, "display": 0, "duration": 8.942999839782715, "effects": [], "end": 8.942999839782715, "gravity": 4, "has_audio": {"Points": [{"co": {"X": 1, "Y": -1}, "interpolation": 2}]}, "has_video": {"Points": [{"co": {"X": 1, "Y": -1}, "interpolation": 2}]}, "id": "9ZR9NUT75S", "layer": 3, "location_x": {"Points": [{"co": {"X": 1, "Y": 0}, "interpolation": 2}]}, "location_y": {"Points": [{"co": {"X": 1, "Y": 0}, "interpolation": 2}]}, "perspective_c1_x": {"Points": [{"co": {"X": 1, "Y": -1}, "interpolation": 2}]}, "perspective_c1_y": {"Points": [{"co": {"X": 1, "Y": -1}, "interpolation": 2}]}, "perspective_c2_x": {"Points": [{"co": {"X": 1, "Y": -1}, "interpolation": 2}]}, "perspective_c2_y": {"Points": [{"co": {"X": 1, "Y": -1}, "interpolation": 2}]}, "perspective_c3_x": {"Points": [{"co": {"X": 1, "Y": -1}, "interpolation": 2}]}, "perspective_c3_y": {"Points": [{"co": {"X": 1, "Y": -1}, "interpolation": 2}]}, "perspective_c4_x": {"Points": [{"co": {"X": 1, "Y": -1}, "interpolation": 2}]}, "perspective_c4_y": {"Points": [{"co": {"X": 1, "Y": -1}, "interpolation": 2}]}, "position": 430.74449295043945, "reader": {"acodec": "", "audio_bit_rate": 0, "audio_stream_index": -1, "audio_timebase": {"den": 1, "num": 1}, "channel_layout": 4, "channels": 0, "display_ratio": {"den": 84, "num": 149}, "duration": 8.942999839782715, "file_size": "500156", "fps": {"den": 1001, "num": 30000}, "has_audio": false, "has_single_image": false, "has_video": true, "height": 336, "interlaced_frame": false, "path": "video assets/1037685125-preview.mp4", "pixel_format": 0, "pixel_ratio": {"den": 1, "num": 1}, "sample_rate": 0, "top_field_first": true, "type": "FFmpegReader", "vcodec": "h264", "video_bit_rate": 447416, "video_length": "268", "video_stream_index": 0, "video_timebase": {"den": 30000, "num": 1}, "width": 596}, "rotation": {"Points": [{"co": {"X": 1, "Y": 0}, "interpolation": 2}]}, "scale": 1, "scale_x": {"Points": [{"co": {"X": 1, "Y": 1}, "interpolation": 2}]}, "scale_y": {"Points": [{"co": {"X": 1, "Y": 1}, "interpolation": 2}]}, "shear_x": {"Points": [{"co": {"X": 1, "Y": 0}, "interpolation": 2}]}, "shear_y": {"Points": [{"co": {"X": 1, "Y": 0}, "interpolation": 2}]}, "start": 0, "time": {"Points": [{"co": {"X": 1, "Y": 1}, "interpolation": 2}]}, "volume": {"Points": [{"co": {"X": 1, "Y": 1}, "interpolation": 2}]}, "wave_color": {"alpha": {"Points": [{"co": {"X": 1, "Y": 255}, "handle_left": {"X": 0.5, "Y": 1}, "handle_right": {"X": 0.5, "Y": 0}, "handle_type": 0, "interpolation": 0}]}, "blue": {"Points": [{"co": {"X": 1, "Y": 255}, "handle_left": {"X": 0.5, "Y": 1}, "handle_right": {"X": 0.5, "Y": 0}, "handle_type": 0, "interpolation": 0}]}, "green": {"Points": [{"co": {"X": 1, "Y": 123}, "handle_left": {"X": 0.5, "Y": 1}, "handle_right": {"X": 0.5, "Y": 0}, "handle_type": 0, "interpolation": 0}]}, "red": {"Points": [{"co": {"X": 1, "Y": 0}, "handle_left": {"X": 0.5, "Y": 1}, "handle_right": {"X": 0.5, "Y": 0}, "handle_type": 0, "interpolation": 0}]}}, "waveform": false, "file_id": "LG1NPUCC77", "title": "1037685125-preview.mp4", "image": "../../../.openshot_qt/thumbnail/LG1NPUCC77.png"}, {"alpha": {"Points": [{"co": {"X": 1, "Y": 1}, "interpolation": 2}]}, "anchor": 0, "channel_filter": {"Points": [{"co": {"X": 1, "Y": -1}, "interpolation": 2}]}, "channel_mapping": {"Points": [{"co": {"X": 1, "Y": -1}, "interpolation": 2}]}, "crop_height": {"Points": [{"co": {"X": 1, "Y": -1}, "interpolation": 2}]}, "crop_width": {"Points": [{"co": {"X": 1, "Y": -1}, "interpolation": 2}]}, "crop_x": {"Points": [{"co": {"X": 1, "Y": 0}, "interpolation": 2}]}, "crop_y": {"Points": [{"co": {"X": 1, "Y": 0}, "interpolation": 2}]}, "display": 0, "duration": 29.933984756469727, "effects": [], "end": 29.933984756469727, "gravity": 4, "has_audio": {"Points": [{"co": {"X": 1, "Y": -1}, "interpolation": 2}]}, "has_video": {"Points": [{"co": {"X": 1, "Y": -1}, "interpolation": 2}]}, "id": "IWLR1LEDVN", "layer": 2, "location_x": {"Points": [{"co": {"X": 1, "Y": 0}, "interpolation": 2}]}, "location_y": {"Points": [{"co": {"X": 1, "Y": 0}, "interpolation": 2}]}, "perspective_c1_x": {"Points": [{"co": {"X": 1, "Y": -1}, "interpolation": 2}]}, "perspective_c1_y": {"Points": [{"co": {"X": 1, "Y": -1}, "interpolation": 2}]}, "perspective_c2_x": {"Points": [{"co": {"X": 1, "Y": -1}, "interpolation": 2}]}, "perspective_c2_y": {"Points": [{"co": {"X": 1, "Y": -1}, "interpolation": 2}]}, "perspective_c3_x": {"Points": [{"co": {"X": 1, "Y": -1}, "interpolation": 2}]}, "perspective_c3_y": {"Points": [{"co": {"X": 1, "Y": -1}, "interpolation": 2}]}, "perspective_c4_x": {"Points": [{"co": {"X": 1, "Y": -1}, "interpolation": 2}]}, "perspective_c4_y": {"Points": [{"co": {"X": 1, "Y": -1}, "interpolation": 2}]}, "position": 430.74449295043945, "reader": {"acodec": "", "audio_bit_rate": 0, "audio_stream_index": -1, "audio_timebase": {"den": 1, "num": 1}, "channel_layout": 4, "channels": 0, "display_ratio": {"den": 84, "num": 149}, "duration": 29.933984756469727, "file_size": "2385224", "fps": {"den": 1, "num": 30}, "has_audio": false, "has_single_image": false, "has_video": true, "height": 336, "interlaced_frame": false, "path": "video assets/1042189108-preview.mp4", "pixel_format": 0, "pixel_ratio": {"den": 1, "num": 1}, "sample_rate": 0, "top_field_first": true, "type": "FFmpegReader", "vcodec": "h264", "video_bit_rate": 637462, "video_length": "898", "video_stream_index": 0, "video_timebase": {"den": 15360, "num": 1}, "width": 596}, "rotation": {"Points": [{"co": {"X": 1, "Y": 0}, "interpolation": 2}]}, "scale": 1, "scale_x": {"Points": [{"co": {"X": 1, "Y": 1}, "interpolation": 2}]}, "scale_y": {"Points": [{"co": {"X": 1, "Y": 1}, "interpolation": 2}]}, "shear_x": {"Points": [{"co": {"X": 1, "Y": 0}, "interpolation": 2}]}, "shear_y": {"Points": [{"co": {"X": 1, "Y": 0}, "interpolation": 2}]}, "start": 0, "time": {"Points": [{"co": {"X": 1, "Y": 1}, "interpolation": 2}]}, "volume": {"Points": [{"co": {"X": 1, "Y": 1}, "interpolation": 2}]}, "wave_color": {"alpha": {"Points": [{"co": {"X": 1, "Y": 255}, "handle_left": {"X": 0.5, "Y": 1}, "handle_right": {"X": 0.5, "Y": 0}, "handle_type": 0, "interpolation": 0}]}, "blue": {"Points": [{"co": {"X": 1, "Y": 255}, "handle_left": {"X": 0.5, "Y": 1}, "handle_right": {"X": 0.5, "Y": 0}, "handle_type": 0, "interpolation": 0}]}, "green": {"Points": [{"co": {"X": 1, "Y": 123}, "handle_left": {"X": 0.5, "Y": 1}, "handle_right": {"X": 0.5, "Y": 0}, "handle_type": 0, "interpolation": 0}]}, "red": {"Points": [{"co": {"X": 1, "Y": 0}, "handle_left": {"X": 0.5, "Y": 1}, "handle_right": {"X": 0.5, "Y": 0}, "handle_type": 0, "interpolation": 0}]}}, "waveform": false, "file_id": "B8ELRMI8NN", "title": "1042189108-preview.mp4", "image": "../../../.openshot_qt/thumbnail/B8ELRMI8NN.png"}, {"alpha": {"Points": [{"co": {"X": 1, "Y": 1}, "interpolation": 2}]}, "anchor": 0, "channel_filter": {"Points": [{"co": {"X": 1, "Y": -1}, "interpolation": 2}]}, "channel_mapping": {"Points": [{"co": {"X": 1, "Y": -1}, "interpolation": 2}]}, "crop_height": {"Points": [{"co": {"X": 1, "Y": -1}, "interpolation": 2}]}, "crop_width": {"Points": [{"co": {"X": 1, "Y": -1}, "interpolation": 2}]}, "crop_x": {"Points": [{"co": {"X": 1, "Y": 0}, "interpolation": 2}]}, "crop_y": {"Points": [{"co": {"X": 1, "Y": 0}, "interpolation": 2}]}, "display": 0, "duration": 22.760000228881836, "effects": [], "end": 22.760000228881836, "gravity": 4, "has_audio": {"Points": [{"co": {"X": 1, "Y": -1}, "interpolation": 2}]}, "has_video": {"Points": [{"co": {"X": 1, "Y": -1}, "interpolation": 2}]}, "id": "CZ5GNQBJ79", "layer": 1, "location_x": {"Points": [{"co": {"X": 1, "Y": 0}, "interpolation": 2}]}, "location_y": {"Points": [{"co": {"X": 1, "Y": 0}, "interpolation": 2}]}, "perspective_c1_x": {"Points": [{"co": {"X": 1, "Y": -1}, "interpolation": 2}]}, "perspective_c1_y": {"Points": [{"co": {"X": 1, "Y": -1}, "interpolation": 2}]}, "perspective_c2_x": {"Points": [{"co": {"X": 1, "Y": -1}, "interpolation": 2}]}, "perspective_c2_y": {"Points": [{"co": {"X": 1, "Y": -1}, "interpolation": 2}]}, "perspective_c3_x": {"Points": [{"co": {"X": 1, "Y": -1}, "interpolation": 2}]}, "perspective_c3_y": {"Points": [{"co": {"X": 1, "Y": -1}, "interpolation": 2}]}, "perspective_c4_x": {"Points": [{"co": {"X": 1, "Y": -1}, "interpolation": 2}]}, "perspective_c4_y": {"Points": [{"co": {"X": 1, "Y": -1}, "interpolation": 2}]}, "position": 433.6, "reader": {"acodec": "", "audio_bit_rate": 0, "audio_stream_index": -1, "audio_timebase": {"den": 1, "num": 1}, "channel_layout": 4, "channels": 0, "display_ratio": {"den": 84, "num": 149}, "duration": 22.760000228881836, "file_size": "839329", "fps": {"den": 1, "num": 25}, "has_audio": false, "has_single_image": false, "has_video": true, "height": 336, "interlaced_frame": false, "path": "video assets/1042776160-preview.mp4", "pixel_format": 0, "pixel_ratio": {"den": 1, "num": 1}, "sample_rate": 0, "top_field_first": true, "type": "FFmpegReader", "vcodec": "h264", "video_bit_rate": 295018, "video_length": "569", "video_stream_index": 0, "video_timebase": {"den": 12800, "num": 1}, "width": 596}, "rotation": {"Points": [{"co": {"X": 1, "Y": 0}, "interpolation": 2}]}, "scale": 1, "scale_x": {"Points": [{"co": {"X": 1, "Y": 1}, "interpolation": 2}]}, "scale_y": {"Points": [{"co": {"X": 1, "Y": 1}, "interpolation": 2}]}, "shear_x": {"Points": [{"co": {"X": 1, "Y": 0}, "interpolation": 2}]}, "shear_y": {"Points": [{"co": {"X": 1, "Y": 0}, "interpolation": 2}]}, "start": 0, "time": {"Points": [{"co": {"X": 1, "Y": 1}, "interpolation": 2}]}, "volume": {"Points": [{"co": {"X": 1, "Y": 1}, "interpolation": 2}]}, "wave_color": {"alpha": {"Points": [{"co": {"X": 1, "Y": 255}, "handle_left": {"X": 0.5, "Y": 1}, "handle_right": {"X": 0.5, "Y": 0}, "handle_type": 0, "interpolation": 0}]}, "blue": {"Points": [{"co": {"X": 1, "Y": 255}, "handle_left": {"X": 0.5, "Y": 1}, "handle_right": {"X": 0.5, "Y": 0}, "handle_type": 0, "interpolation": 0}]}, "green": {"Points": [{"co": {"X": 1, "Y": 123}, "handle_left": {"X": 0.5, "Y": 1}, "handle_right": {"X": 0.5, "Y": 0}, "handle_type": 0, "interpolation": 0}]}, "red": {"Points": [{"co": {"X": 1, "Y": 0}, "handle_left": {"X": 0.5, "Y": 1}, "handle_right": {"X": 0.5, "Y": 0}, "handle_type": 0, "interpolation": 0}]}}, "waveform": false, "file_id": "SJQTW5J2TE", "title": "1042776160-preview.mp4", "image": "../../../.openshot_qt/thumbnail/SJQTW5J2TE.png"}, {"alpha": {"Points": [{"co": {"X": 1, "Y": 1}, "interpolation": 2}]}, "anchor": 0, "channel_filter": {"Points": [{"co": {"X": 1, "Y": -1}, "interpolation": 2}]}, "channel_mapping": {"Points": [{"co": {"X": 1, "Y": -1}, "interpolation": 2}]}, "crop_height": {"Points": [{"co": {"X": 1, "Y": -1}, "interpolation": 2}]}, "crop_width": {"Points": [{"co": {"X": 1, "Y": -1}, "interpolation": 2}]}, "crop_x": {"Points": [{"co": {"X": 1, "Y": 0}, "interpolation": 2}]}, "crop_y": {"Points": [{"co": {"X": 1, "Y": 0}, "interpolation": 2}]}, "display": 0, "duration": 9.376999855041504, "effects": [], "end": 9.376999855041504, "gravity": 4, "has_audio": {"Points": [{"co": {"X": 1, "Y": -1}, "interpolation": 2}]}, "has_video": {"Points": [{"co": {"X": 1, "Y": -1}, "interpolation": 2}]}, "id": "BM9ZX82JU6", "layer": 4, "location_x": {"Points": [{"co": {"X": 1, "Y": 0}, "interpolation": 2}]}, "location_y": {"Points": [{"co": {"X": 1, "Y": 0}, "interpolation": 2}]}, "perspective_c1_x": {"Points": [{"co": {"X": 1, "Y": -1}, "interpolation": 2}]}, "perspective_c1_y": {"Points": [{"co": {"X": 1, "Y": -1}, "interpolation": 2}]}, "perspective_c2_x": {"Points": [{"co": {"X": 1, "Y": -1}, "interpolation": 2}]}, "perspective_c2_y": {"Points": [{"co": {"X": 1, "Y": -1}, "interpolation": 2}]}, "perspective_c3_x": {"Points": [{"co": {"X": 1, "Y": -1}, "interpolation": 2}]}, "perspective_c3_y": {"Points": [{"co": {"X": 1, "Y": -1}, "interpolation": 2}]}, "perspective_c4_x": {"Points": [{"co": {"X": 1, "Y": -1}, "interpolation": 2}]}, "perspective_c4_y": {"Points": [{"co": {"X": 1, "Y": -1}, "interpolation": 2}]}, "position": 442.72, "reader": {"acodec": "", "audio_bit_rate": 0, "audio_stream_index": -1, "audio_timebase": {"den": 1, "num": 1}, "channel_layout": 4, "channels": 0, "display_ratio": {"den": 84, "num": 149}, "duration": 9.376999855041504, "file_size": "999115", "fps": {"den": 1001, "num": 30000}, "has_audio": false, "has_single_image": false, "has_video": true, "height": 336, "interlaced_frame": false, "path": "video assets/1040051333-preview.mp4", "pixel_format": 0, "pixel_ratio": {"den": 1, "num": 1}, "sample_rate": 0, "top_field_first": true, "type": "FFmpegReader", "vcodec": "h264", "video_bit_rate": 852396, "video_length": "281", "video_stream_index": 0, "video_timebase": {"den": 30000, "num": 1}, "width": 596}, "rotation": {"Points": [{"co": {"X": 1, "Y": 0}, "interpolation": 2}]}, "scale": 1, "scale_x": {"Points": [{"co": {"X": 1, "Y": 1}, "interpolation": 2}]}, "scale_y": {"Points": [{"co": {"X": 1, "Y": 1}, "interpolation": 2}]}, "shear_x": {"Points": [{"co": {"X": 1, "Y": 0}, "interpolation": 2}]}, "shear_y": {"Points": [{"co": {"X": 1, "Y": 0}, "interpolation": 2}]}, "start": 0, "time": {"Points": [{"co": {"X": 1, "Y": 1}, "interpolation": 2}]}, "volume": {"Points": [{"co": {"X": 1, "Y": 1}, "interpolation": 2}]}, "wave_color": {"alpha": {"Points": [{"co": {"X": 1, "Y": 255}, "handle_left": {"X": 0.5, "Y": 1}, "handle_right": {"X": 0.5, "Y": 0}, "handle_type": 0, "interpolation": 0}]}, "blue": {"Points": [{"co": {"X": 1, "Y": 255}, "handle_left": {"X": 0.5, "Y": 1}, "handle_right": {"X": 0.5, "Y": 0}, "handle_type": 0, "interpolation": 0}]}, "green": {"Points": [{"co": {"X": 1, "Y": 123}, "handle_left": {"X": 0.5, "Y": 1}, "handle_right": {"X": 0.5, "Y": 0}, "handle_type": 0, "interpolation": 0}]}, "red": {"Points": [{"co": {"X": 1, "Y": 0}, "handle_left": {"X": 0.5, "Y": 1}, "handle_right": {"X": 0.5, "Y": 0}, "handle_type": 0, "interpolation": 0}]}}, "waveform": false, "file_id": "GRPF5ZYUU6", "title": "1040051333-preview.mp4", "image": "../../../.openshot_qt/thumbnail/GRPF5ZYUU6.png"}, {"alpha": {"Points": [{"co": {"X": 1, "Y": 1}, "interpolation": 2}]}, "anchor": 0, "channel_filter": {"Points": [{"co": {"X": 1, "Y": -1}, "interpolation": 2}]}, "channel_mapping": {"Points": [{"co": {"X": 1, "Y": -1}, "interpolation": 2}]}, "crop_height": {"Points": [{"co": {"X": 1, "Y": -1}, "interpolation": 2}]}, "crop_width": {"Points": [{"co": {"X": 1, "Y": -1}, "interpolation": 2}]}, "crop_x": {"Points": [{"co": {"X": 1, "Y": 0}, "interpolation": 2}]}, "crop_y": {"Points": [{"co": {"X": 1, "Y": 0}, "interpolation": 2}]}, "display": 0, "duration": 46.70000076293945, "effects": [], "end": 46.70000076293945, "gravity": 4, "has_audio": {"Points": [{"co": {"X": 1, "Y": -1}, "interpolation": 2}]}, "has_video": {"Points": [{"co": {"X": 1, "Y": -1}, "interpolation": 2}]}, "id": "CMZY9IEJOT", "layer": 3, "location_x": {"Points": [{"co": {"X": 1, "Y": 0}, "interpolation": 2}]}, "location_y": {"Points": [{"co": {"X": 1, "Y": 0}, "interpolation": 2}]}, "perspective_c1_x": {"Points": [{"co": {"X": 1, "Y": -1}, "interpolation": 2}]}, "perspective_c1_y": {"Points": [{"co": {"X": 1, "Y": -1}, "interpolation": 2}]}, "perspective_c2_x": {"Points": [{"co": {"X": 1, "Y": -1}, "interpolation": 2}]}, "perspective_c2_y": {"Points": [{"co": {"X": 1, "Y": -1}, "interpolation": 2}]}, "perspective_c3_x": {"Points": [{"co": {"X": 1, "Y": -1}, "interpolation": 2}]}, "perspective_c3_y": {"Points": [{"co": {"X": 1, "Y": -1}, "interpolation": 2}]}, "perspective_c4_x": {"Points": [{"co": {"X": 1, "Y": -1}, "interpolation": 2}]}, "perspective_c4_y": {"Points": [{"co": {"X": 1, "Y": -1}, "interpolation": 2}]}, "position": 466.56, "reader": {"acodec": "aac", "audio_bit_rate": 128340, "audio_stream_index": 1, "audio_timebase": {"den": 44100, "num": 1}, "channel_layout": 3, "channels": 2, "display_ratio": {"den": 84, "num": 149}, "duration": 46.70000076293945, "file_size": "6092940", "fps": {"den": 1, "num": 30}, "has_audio": true, "has_single_image": false, "has_video": true, "height": 336, "interlaced_frame": false, "path": "video assets/1045470025-preview.mp4", "pixel_format": 0, "pixel_ratio": {"den": 1, "num": 1}, "sample_rate": 44100, "top_field_first": true, "type": "FFmpegReader", "vcodec": "h264", "video_bit_rate": 1042709, "video_length": "1401", "video_stream_index": 0, "video_timebase": {"den": 15360, "num": 1}, "width": 596}, "rotation": {"Points": [{"co": {"X": 1, "Y": 0}, "interpolation": 2}]}, "scale": 1, "scale_x": {"Points": [{"co": {"X": 1, "Y": 1}, "interpolation": 2}]}, "scale_y": {"Points": [{"co": {"X": 1, "Y": 1}, "interpolation": 2}]}, "shear_x": {"Points": [{"co": {"X": 1, "Y": 0}, "interpolation": 2}]}, "shear_y": {"Points": [{"co": {"X": 1, "Y": 0}, "interpolation": 2}]}, "start": 0, "time": {"Points": [{"co": {"X": 1, "Y": 1}, "interpolation": 2}]}, "volume": {"Points": [{"co": {"X": 1, "Y": 1}, "interpolation": 2}]}, "wave_color": {"alpha": {"Points": [{"co": {"X": 1, "Y": 255}, "handle_left": {"X": 0.5, "Y": 1}, "handle_right": {"X": 0.5, "Y": 0}, "handle_type": 0, "interpolation": 0}]}, "blue": {"Points": [{"co": {"X": 1, "Y": 255}, "handle_left": {"X": 0.5, "Y": 1}, "handle_right": {"X": 0.5, "Y": 0}, "handle_type": 0, "interpolation": 0}]}, "green": {"Points": [{"co": {"X": 1, "Y": 123}, "handle_left": {"X": 0.5, "Y": 1}, "handle_right": {"X": 0.5, "Y": 0}, "handle_type": 0, "interpolation": 0}]}, "red": {"Points": [{"co": {"X": 1, "Y": 0}, "handle_left": {"X": 0.5, "Y": 1}, "handle_right": {"X": 0.5, "Y": 0}, "handle_type": 0, "interpolation": 0}]}}, "waveform": false, "file_id": "M0H2IT5DMM", "title": "1045470025-preview.mp4", "image": "../../../.openshot_qt/thumbnail/M0H2IT5DMM.png"}, {"alpha": {"Points": [{"co": {"X": 1, "Y": 1}, "interpolation": 2}]}, "anchor": 0, "channel_filter": {"Points": [{"co": {"X": 1, "Y": -1}, "interpolation": 2}]}, "channel_mapping": {"Points": [{"co": {"X": 1, "Y": -1}, "interpolation": 2}]}, "crop_height": {"Points": [{"co": {"X": 1, "Y": -1}, "interpolation": 2}]}, "crop_width": {"Points": [{"co": {"X": 1, "Y": -1}, "interpolation": 2}]}, "crop_x": {"Points": [{"co": {"X": 1, "Y": 0}, "interpolation": 2}]}, "crop_y": {"Points": [{"co": {"X": 1, "Y": 0}, "interpolation": 2}]}, "display": 0, "duration": 7.0, "effects": [], "end": 7, "gravity": 4, "has_audio": {"Points": [{"co": {"X": 1, "Y": -1}, "interpolation": 2}]}, "has_video": {"Points": [{"co": {"X": 1, "Y": -1}, "interpolation": 2}]}, "id": "S1J5UIW9AV", "layer": 4, "location_x": {"Points": [{"co": {"X": 1, "Y": 0}, "interpolation": 2}]}, "location_y": {"Points": [{"co": {"X": 1, "Y": 0}, "interpolation": 2}]}, "perspective_c1_x": {"Points": [{"co": {"X": 1, "Y": -1}, "interpolation": 2}]}, "perspective_c1_y": {"Points": [{"co": {"X": 1, "Y": -1}, "interpolation": 2}]}, "perspective_c2_x": {"Points": [{"co": {"X": 1, "Y": -1}, "interpolation": 2}]}, "perspective_c2_y": {"Points": [{"co": {"X": 1, "Y": -1}, "interpolation": 2}]}, "perspective_c3_x": {"Points": [{"co": {"X": 1, "Y": -1}, "interpolation": 2}]}, "perspective_c3_y": {"Points": [{"co": {"X": 1, "Y": -1}, "interpolation": 2}]}, "perspective_c4_x": {"Points": [{"co": {"X": 1, "Y": -1}, "interpolation": 2}]}, "perspective_c4_y": {"Points": [{"co": {"X": 1, "Y": -1}, "interpolation": 2}]}, "position": 225.8119923019409, "reader": {"acodec": "", "audio_bit_rate": 0, "audio_stream_index": -1, "audio_timebase": {"den": 1, "num": 1}, "channel_layout": 4, "channels": 0, "display_ratio": {"den": 84, "num": 149}, "duration": 7.0, "file_size": "605172", "fps": {"den": 1, "num": 25}, "has_audio": false, "has_single_image": false, "has_video": true, "height": 336, "interlaced_frame": false, "path": "video assets/1046167390-preview.mp4", "pixel_format": 0, "pixel_ratio": {"den": 1, "num": 1}, "sample_rate": 0, "top_field_first": true, "type": "FFmpegReader", "vcodec": "h264", "video_bit_rate": 691625, "video_length": "175", "video_stream_index": 0, "video_timebase": {"den": 12800, "num": 1}, "width": 596}, "rotation": {"Points": [{"co": {"X": 1, "Y": 0}, "interpolation": 2}]}, "scale": 1, "scale_x": {"Points": [{"co": {"X": 1, "Y": 1}, "interpolation": 2}]}, "scale_y": {"Points": [{"co": {"X": 1, "Y": 1}, "interpolation": 2}]}, "shear_x": {"Points": [{"co": {"X": 1, "Y": 0}, "interpolation": 2}]}, "shear_y": {"Points": [{"co": {"X": 1, "Y": 0}, "interpolation": 2}]}, "start": 0, "time": {"Points": [{"co": {"X": 1, "Y": 1}, "interpolation": 2}]}, "volume": {"Points": [{"co": {"X": 1, "Y": 1}, "interpolation": 2}]}, "wave_color": {"alpha": {"Points": [{"co": {"X": 1, "Y": 255}, "handle_left": {"X": 0.5, "Y": 1}, "handle_right": {"X": 0.5, "Y": 0}, "handle_type": 0, "interpolation": 0}]}, "blue": {"Points": [{"co": {"X": 1, "Y": 255}, "handle_left": {"X": 0.5, "Y": 1}, "handle_right": {"X": 0.5, "Y": 0}, "handle_type": 0, "interpolation": 0}]}, "green": {"Points": [{"co": {"X": 1, "Y": 123}, "handle_left": {"X": 0.5, "Y": 1}, "handle_right": {"X": 0.5, "Y": 0}, "handle_type": 0, "interpolation": 0}]}, "red": {"Points": [{"co": {"X": 1, "Y": 0}, "handle_left": {"X": 0.5, "Y": 1}, "handle_right": {"X": 0.5, "Y": 0}, "handle_type": 0, "interpolation": 0}]}}, "waveform": false, "file_id": "MJQYSRKC8R", "title": "1046167390-preview.mp4", "image": "../../../.openshot_qt/thumbnail/MJQYSRKC8R.png"}, {"alpha": {"Points": [{"co": {"X": 1, "Y": 1}, "interpolation": 2}]}, "anchor": 0, "channel_filter": {"Points": [{"co": {"X": 1, "Y": -1}, "interpolation": 2}]}, "channel_mapping": {"Points": [{"co": {"X": 1, "Y": -1}, "interpolation": 2}]}, "crop_height": {"Points": [{"co": {"X": 1, "Y": -1}, "interpolation": 2}]}, "crop_width": {"Points": [{"co": {"X": 1, "Y": -1}, "interpolation": 2}]}, "crop_x": {"Points": [{"co": {"X": 1, "Y": 0}, "interpolation": 2}]}, "crop_y": {"Points": [{"co": {"X": 1, "Y": 0}, "interpolation": 2}]}, "display": 0, "duration": 23.333984375, "effects": [], "end": 23.333984375, "gravity": 4, "has_audio": {"Points": [{"co": {"X": 1, "Y": -1}, "interpolation": 2}]}, "has_video": {"Points": [{"co": {"X": 1, "Y": -1}, "interpolation": 2}]}, "id": "88LXJL99S5", "layer": 2, "location_x": {"Points": [{"co": {"X": 1, "Y": 0}, "interpolation": 2}]}, "location_y": {"Points": [{"co": {"X": 1, "Y": 0}, "interpolation": 2}]}, "perspective_c1_x": {"Points": [{"co": {"X": 1, "Y": -1}, "interpolation": 2}]}, "perspective_c1_y": {"Points": [{"co": {"X": 1, "Y": -1}, "interpolation": 2}]}, "perspective_c2_x": {"Points": [{"co": {"X": 1, "Y": -1}, "interpolation": 2}]}, "perspective_c2_y": {"Points": [{"co": {"X": 1, "Y": -1}, "interpolation": 2}]}, "perspective_c3_x": {"Points": [{"co": {"X": 1, "Y": -1}, "interpolation": 2}]}, "perspective_c3_y": {"Points": [{"co": {"X": 1, "Y": -1}, "interpolation": 2}]}, "perspective_c4_x": {"Points": [{"co": {"X": 1, "Y": -1}, "interpolation": 2}]}, "perspective_c4_y": {"Points": [{"co": {"X": 1, "Y": -1}, "interpolation": 2}]}, "position": 492, "reader": {"acodec": "", "audio_bit_rate": 0, "audio_stream_index": -1, "audio_timebase": {"den": 1, "num": 1}, "channel_layout": 4, "channels": 0, "display_ratio": {"den": 84, "num": 149}, "duration": 23.333984375, "file_size": "1912523", "fps": {"den": 1, "num": 30}, "has_audio": false, "has_single_image": false, "has_video": true, "height": 336, "interlaced_frame": false, "path": "video assets/1046669254-preview.mp4", "pixel_format": 0, "pixel_ratio": {"den": 1, "num": 1}, "sample_rate": 0, "top_field_first": true, "type": "FFmpegReader", "vcodec": "h264", "video_bit_rate": 655703, "video_length": "700", "video_stream_index": 0, "video_timebase": {"den": 15360, "num": 1}, "width": 596}, "rotation": {"Points": [{"co": {"X": 1, "Y": 0}, "interpolation": 2}]}, "scale": 1, "scale_x": {"Points": [{"co": {"X": 1, "Y": 1}, "interpolation": 2}]}, "scale_y": {"Points": [{"co": {"X": 1, "Y": 1}, "interpolation": 2}]}, "shear_x": {"Points": [{"co": {"X": 1, "Y": 0}, "interpolation": 2}]}, "shear_y": {"Points": [{"co": {"X": 1, "Y": 0}, "interpolation": 2}]}, "start": 0, "time": {"Points": [{"co": {"X": 1, "Y": 1}, "interpolation": 2}]}, "volume": {"Points": [{"co": {"X": 1, "Y": 1}, "interpolation": 2}]}, "wave_color": {"alpha": {"Points": [{"co": {"X": 1, "Y": 255}, "handle_left": {"X": 0.5, "Y": 1}, "handle_right": {"X": 0.5, "Y": 0}, "handle_type": 0, "interpolation": 0}]}, "blue": {"Points": [{"co": {"X": 1, "Y": 255}, "handle_left": {"X": 0.5, "Y": 1}, "handle_right": {"X": 0.5, "Y": 0}, "handle_type": 0, "interpolation": 0}]}, "green": {"Points": [{"co": {"X": 1, "Y": 123}, "handle_left": {"X": 0.5, "Y": 1}, "handle_right": {"X": 0.5, "Y": 0}, "handle_type": 0, "interpolation": 0}]}, "red": {"Points": [{"co": {"X": 1, "Y": 0}, "handle_left": {"X": 0.5, "Y": 1}, "handle_right": {"X": 0.5, "Y": 0}, "handle_type": 0, "interpolation": 0}]}}, "waveform": false, "file_id": "2WNGMYMMB6", "title": "1046669254-preview.mp4", "image": "../../../.openshot_qt/thumbnail/2WNGMYMMB6.png"}, {"alpha": {"Points": [{"co": {"X": 1, "Y": 1}, "interpolation": 2}]}, "anchor": 0, "channel_filter": {"Points": [{"co": {"X": 1, "Y": -1}, "interpolation": 2}]}, "channel_mapping": {"Points": [{"co": {"X": 1, "Y": -1}, "interpolation": 2}]}, "crop_height": {"Points": [{"co": {"X": 1, "Y": -1}, "interpolation": 2}]}, "crop_width": {"Points": [{"co": {"X": 1, "Y": -1}, "interpolation": 2}]}, "crop_x": {"Points": [{"co": {"X": 1, "Y": 0}, "interpolation": 2}]}, "crop_y": {"Points": [{"co": {"X": 1, "Y": 0}, "interpolation": 2}]}, "display": 0, "duration": 15.015000343322754, "effects": [], "end": 15.015000343322754, "gravity": 4, "has_audio": {"Points": [{"co": {"X": 1, "Y": -1}, "interpolation": 2}]}, "has_video": {"Points": [{"co": {"X": 1, "Y": -1}, "interpolation": 2}]}, "id": "NB6L1MNNM8", "layer": 1, "location_x": {"Points": [{"co": {"X": 1, "Y": 0}, "interpolation": 2}]}, "location_y": {"Points": [{"co": {"X": 1, "Y": 0}, "interpolation": 2}]}, "perspective_c1_x": {"Points": [{"co": {"X": 1, "Y": -1}, "interpolation": 2}]}, "perspective_c1_y": {"Points": [{"co": {"X": 1, "Y": -1}, "interpolation": 2}]}, "perspective_c2_x": {"Points": [{"co": {"X": 1, "Y": -1}, "interpolation": 2}]}, "perspective_c2_y": {"Points": [{"co": {"X": 1, "Y": -1}, "interpolation": 2}]}, "perspective_c3_x": {"Points": [{"co": {"X": 1, "Y": -1}, "interpolation": 2}]}, "perspective_c3_y": {"Points": [{"co": {"X": 1, "Y": -1}, "interpolation": 2}]}, "perspective_c4_x": {"Points": [{"co": {"X": 1, "Y": -1}, "interpolation": 2}]}, "perspective_c4_y": {"Points": [{"co": {"X": 1, "Y": -1}, "interpolation": 2}]}, "position": 492, "reader": {"acodec": "", "audio_bit_rate": 0, "audio_stream_index": -1, "audio_timebase": {"den": 1, "num": 1}, "channel_layout": 4, "channels": 0, "display_ratio": {"den": 84, "num": 149}, "duration": 15.015000343322754, "file_size": "1230915", "fps": {"den": 1001, "num": 24000}, "has_audio": false, "has_single_image": false, "has_video": true, "height": 336, "interlaced_frame": false, "path": "video assets/1047425263-preview.mp4", "pixel_format": 0, "pixel_ratio": {"den": 1, "num": 1}, "sample_rate": 0, "top_field_first": true, "type": "FFmpegReader", "vcodec": "h264", "video_bit_rate": 655832, "video_length": "360", "video_stream_index": 0, "video_timebase": {"den": 24000, "num": 1}, "width": 596}, "rotation": {"Points": [{"co": {"X": 1, "Y": 0}, "interpolation": 2}]}, "scale": 1, "scale_x": {"Points": [{"co": {"X": 1, "Y": 1}, "interpolation": 2}]}, "scale_y": {"Points": [{"co": {"X": 1, "Y": 1}, "interpolation": 2}]}, "shear_x": {"Points": [{"co": {"X": 1, "Y": 0}, "interpolation": 2}]}, "shear_y": {"Points": [{"co": {"X": 1, "Y": 0}, "interpolation": 2}]}, "start": 0, "time": {"Points": [{"co": {"X": 1, "Y": 1}, "interpolation": 2}]}, "volume": {"Points": [{"co": {"X": 1, "Y": 1}, "interpolation": 2}]}, "wave_color": {"alpha": {"Points": [{"co": {"X": 1, "Y": 255}, "handle_left": {"X": 0.5, "Y": 1}, "handle_right": {"X": 0.5, "Y": 0}, "handle_type": 0, "interpolation": 0}]}, "blue": {"Points": [{"co": {"X": 1, "Y": 255}, "handle_left": {"X": 0.5, "Y": 1}, "handle_right": {"X": 0.5, "Y": 0}, "handle_type": 0, "interpolation": 0}]}, "green": {"Points": [{"co": {"X": 1, "Y": 123}, "handle_left": {"X": 0.5, "Y": 1}, "handle_right": {"X": 0.5, "Y": 0}, "handle_type": 0, "interpolation": 0}]}, "red": {"Points": [{"co": {"X": 1, "Y": 0}, "handle_left": {"X": 0.5, "Y": 1}, "handle_right": {"X": 0.5, "Y": 0}, "handle_type": 0, "interpolation": 0}]}}, "waveform": false, "file_id": "B97GWU5TU5", "title": "1047425263-preview.mp4", "image": "../../../.openshot_qt/thumbnail/B97GWU5TU5.png"}, {"alpha": {"Points": [{"co": {"X": 1, "Y": 1}, "interpolation": 2}]}, "anchor": 0, "channel_filter": {"Points": [{"co": {"X": 1, "Y": -1}, "interpolation": 2}]}, "channel_mapping": {"Points": [{"co": {"X": 1, "Y": -1}, "interpolation": 2}]}, "crop_height": {"Points": [{"co": {"X": 1, "Y": -1}, "interpolation": 2}]}, "crop_width": {"Points": [{"co": {"X": 1, "Y": -1}, "interpolation": 2}]}, "crop_x": {"Points": [{"co": {"X": 1, "Y": 0}, "interpolation": 2}]}, "crop_y": {"Points": [{"co": {"X": 1, "Y": 0}, "interpolation": 2}]}, "display": 0, "duration": 23.333984375, "effects": [], "end": 23.333984375, "gravity": 4, "has_audio": {"Points": [{"co": {"X": 1, "Y": -1}, "interpolation": 2}]}, "has_video": {"Points": [{"co": {"X": 1, "Y": -1}, "interpolation": 2}]}, "id": "NR77C8ZFQT", "layer": 3, "location_x": {"Points": [{"co": {"X": 1, "Y": 0}, "interpolation": 2}]}, "location_y": {"Points": [{"co": {"X": 1, "Y": 0}, "interpolation": 2}]}, "perspective_c1_x": {"Points": [{"co": {"X": 1, "Y": -1}, "interpolation": 2}]}, "perspective_c1_y": {"Points": [{"co": {"X": 1, "Y": -1}, "interpolation": 2}]}, "perspective_c2_x": {"Points": [{"co": {"X": 1, "Y": -1}, "interpolation": 2}]}, "perspective_c2_y": {"Points": [{"co": {"X": 1, "Y": -1}, "interpolation": 2}]}, "perspective_c3_x": {"Points": [{"co": {"X": 1, "Y": -1}, "interpolation": 2}]}, "perspective_c3_y": {"Points": [{"co": {"X": 1, "Y": -1}, "interpolation": 2}]}, "perspective_c4_x": {"Points": [{"co": {"X": 1, "Y": -1}, "interpolation": 2}]}, "perspective_c4_y": {"Points": [{"co": {"X": 1, "Y": -1}, "interpolation": 2}]}, "position": 443.3875, "reader": {"acodec": "", "audio_bit_rate": 0, "audio_stream_index": -1, "audio_timebase": {"den": 1, "num": 1}, "channel_layout": 4, "channels": 0, "display_ratio": {"den": 84, "num": 149}, "duration": 23.333984375, "file_size": "2568585", "fps": {"den": 1, "num": 30}, "has_audio": false, "has_single_image": false, "has_video": true, "height": 336, "interlaced_frame": false, "path": "video assets/1049558392-preview.mp4", "pixel_format": 0, "pixel_ratio": {"den": 1, "num": 1}, "sample_rate": 0, "top_field_first": true, "type": "FFmpegReader", "vcodec": "h264", "video_bit_rate": 880632, "video_length": "700", "video_stream_index": 0, "video_timebase": {"den": 15360, "num": 1}, "width": 596}, "rotation": {"Points": [{"co": {"X": 1, "Y": 0}, "interpolation": 2}]}, "scale": 1, "scale_x": {"Points": [{"co": {"X": 1, "Y": 1}, "interpolation": 2}]}, "scale_y": {"Points": [{"co": {"X": 1, "Y": 1}, "interpolation": 2}]}, "shear_x": {"Points": [{"co": {"X": 1, "Y": 0}, "interpolation": 2}]}, "shear_y": {"Points": [{"co": {"X": 1, "Y": 0}, "interpolation": 2}]}, "start": 0, "time": {"Points": [{"co": {"X": 1, "Y": 1}, "interpolation": 2}]}, "volume": {"Points": [{"co": {"X": 1, "Y": 1}, "interpolation": 2}]}, "wave_color": {"alpha": {"Points": [{"co": {"X": 1, "Y": 255}, "handle_left": {"X": 0.5, "Y": 1}, "handle_right": {"X": 0.5, "Y": 0}, "handle_type": 0, "interpolation": 0}]}, "blue": {"Points": [{"co": {"X": 1, "Y": 255}, "handle_left": {"X": 0.5, "Y": 1}, "handle_right": {"X": 0.5, "Y": 0}, "handle_type": 0, "interpolation": 0}]}, "green": {"Points": [{"co": {"X": 1, "Y": 123}, "handle_left": {"X": 0.5, "Y": 1}, "handle_right": {"X": 0.5, "Y": 0}, "handle_type": 0, "interpolation": 0}]}, "red": {"Points": [{"co": {"X": 1, "Y": 0}, "handle_left": {"X": 0.5, "Y": 1}, "handle_right": {"X": 0.5, "Y": 0}, "handle_type": 0, "interpolation": 0}]}}, "waveform": false, "file_id": "VENOL2QI0D", "title": "1049558392-preview.mp4", "image": "../../../.openshot_qt/thumbnail/VENOL2QI0D.png"}, {"alpha": {"Points": [{"co": {"X": 1, "Y": 1}, "interpolation": 2}]}, "anchor": 0, "channel_filter": {"Points": [{"co": {"X": 1, "Y": -1}, "interpolation": 2}]}, "channel_mapping": {"Points": [{"co": {"X": 1, "Y": -1}, "interpolation": 2}]}, "crop_height": {"Points": [{"co": {"X": 1, "Y": -1}, "interpolation": 2}]}, "crop_width": {"Points": [{"co": {"X": 1, "Y": -1}, "interpolation": 2}]}, "crop_x": {"Points": [{"co": {"X": 1, "Y": 0}, "interpolation": 2}]}, "crop_y": {"Points": [{"co": {"X": 1, "Y": 0}, "interpolation": 2}]}, "display": 0, "duration": 12.5, "effects": [], "end": 12.5, "gravity": 4, "has_audio": {"Points": [{"co": {"X": 1, "Y": -1}, "interpolation": 2}]}, "has_video": {"Points": [{"co": {"X": 1, "Y": -1}, "interpolation": 2}]}, "id": "E8WDEU4D79", "layer": 1, "location_x": {"Points": [{"co": {"X": 1, "Y": 0}, "interpolation": 2}]}, "location_y": {"Points": [{"co": {"X": 1, "Y": 0}, "interpolation": 2}]}, "perspective_c1_x": {"Points": [{"co": {"X": 1, "Y": -1}, "interpolation": 2}]}, "perspective_c1_y": {"Points": [{"co": {"X": 1, "Y": -1}, "interpolation": 2}]}, "perspective_c2_x": {"Points": [{"co": {"X": 1, "Y": -1}, "interpolation": 2}]}, "perspective_c2_y": {"Points": [{"co": {"X": 1, "Y": -1}, "interpolation": 2}]}, "perspective_c3_x": {"Points": [{"co": {"X": 1, "Y": -1}, "interpolation": 2}]}, "perspective_c3_y": {"Points": [{"co": {"X": 1, "Y": -1}, "interpolation": 2}]}, "perspective_c4_x": {"Points": [{"co": {"X": 1, "Y": -1}, "interpolation": 2}]}, "perspective_c4_y": {"Points": [{"co": {"X": 1, "Y": -1}, "interpolation": 2}]}, "position": 458.72, "reader": {"acodec": "", "audio_bit_rate": 0, "audio_stream_index": -1, "audio_timebase": {"den": 1, "num": 1}, "channel_layout": 4, "channels": 0, "display_ratio": {"den": 84, "num": 149}, "duration": 12.5, "file_size": "1374542", "fps": {"den": 1, "num": 24}, "has_audio": false, "has_single_image": false, "has_video": true, "height": 336, "interlaced_frame": false, "path": "video assets/1054044599-preview.mp4", "pixel_format": 0, "pixel_ratio": {"den": 1, "num": 1}, "sample_rate": 0, "top_field_first": true, "type": "FFmpegReader", "vcodec": "h264", "video_bit_rate": 879706, "video_length": "300", "video_stream_index": 0, "video_timebase": {"den": 12288, "num": 1}, "width": 596}, "rotation": {"Points": [{"co": {"X": 1, "Y": 0}, "interpolation": 2}]}, "scale": 1, "scale_x": {"Points": [{"co": {"X": 1, "Y": 1}, "interpolation": 2}]}, "scale_y": {"Points": [{"co": {"X": 1, "Y": 1}, "interpolation": 2}]}, "shear_x": {"Points": [{"co": {"X": 1, "Y": 0}, "interpolation": 2}]}, "shear_y": {"Points": [{"co": {"X": 1, "Y": 0}, "interpolation": 2}]}, "start": 0, "time": {"Points": [{"co": {"X": 1, "Y": 1}, "interpolation": 2}]}, "volume": {"Points": [{"co": {"X": 1, "Y": 1}, "interpolation": 2}]}, "wave_color": {"alpha": {"Points": [{"co": {"X": 1, "Y": 255}, "handle_left": {"X": 0.5, "Y": 1}, "handle_right": {"X": 0.5, "Y": 0}, "handle_type": 0, "interpolation": 0}]}, "blue": {"Points": [{"co": {"X": 1, "Y": 255}, "handle_left": {"X": 0.5, "Y": 1}, "handle_right": {"X": 0.5, "Y": 0}, "handle_type": 0, "interpolation": 0}]}, "green": {"Points": [{"co": {"X": 1, "Y": 123}, "handle_left": {"X": 0.5, "Y": 1}, "handle_right": {"X": 0.5, "Y": 0}, "handle_type": 0, "interpolation": 0}]}, "red": {"Points": [{"co": {"X": 1, "Y": 0}, "handle_left": {"X": 0.5, "Y": 1}, "handle_right": {"X": 0.5, "Y": 0}, "handle_type": 0, "interpolation": 0}]}}, "waveform": false, "file_id": "9Y73RSC2B4", "title": "1054044599-preview.mp4", "image": "../../../.openshot_qt/thumbnail/9Y73RSC2B4.png"}, {"alpha": {"Points": [{"co": {"X": 1, "Y": 1}, "interpolation": 2}]}, "anchor": 0, "channel_filter": {"Points": [{"co": {"X": 1, "Y": -1}, "interpolation": 2}]}, "channel_mapping": {"Points": [{"co": {"X": 1, "Y": -1}, "interpolation": 2}]}, "crop_height": {"Points": [{"co": {"X": 1, "Y": -1}, "interpolation": 2}]}, "crop_width": {"Points": [{"co": {"X": 1, "Y": -1}, "interpolation": 2}]}, "crop_x": {"Points": [{"co": {"X": 1, "Y": 0}, "interpolation": 2}]}, "crop_y": {"Points": [{"co": {"X": 1, "Y": 0}, "interpolation": 2}]}, "display": 0, "duration": 86400.0, "effects": [], "end": 16.54, "gravity": 4, "has_audio": {"Points": [{"co": {"X": 1, "Y": -1}, "interpolation": 2}]}, "has_video": {"Points": [{"co": {"X": 1, "Y": -1}, "interpolation": 2}]}, "id": "ZYGACUIRPL", "layer": 4, "location_x": {"Points": [{"co": {"X": 1, "Y": 0}, "interpolation": 2}]}, "location_y": {"Points": [{"co": {"X": 1, "Y": 0}, "interpolation": 2}]}, "perspective_c1_x": {"Points": [{"co": {"X": 1, "Y": -1}, "interpolation": 2}]}, "perspective_c1_y": {"Points": [{"co": {"X": 1, "Y": -1}, "interpolation": 2}]}, "perspective_c2_x": {"Points": [{"co": {"X": 1, "Y": -1}, "interpolation": 2}]}, "perspective_c2_y": {"Points": [{"co": {"X": 1, "Y": -1}, "interpolation": 2}]}, "perspective_c3_x": {"Points": [{"co": {"X": 1, "Y": -1}, "interpolation": 2}]}, "perspective_c3_y": {"Points": [{"co": {"X": 1, "Y": -1}, "interpolation": 2}]}, "perspective_c4_x": {"Points": [{"co": {"X": 1, "Y": -1}, "interpolation": 2}]}, "perspective_c4_y": {"Points": [{"co": {"X": 1, "Y": -1}, "interpolation": 2}]}, "position": 29.5828125, "reader": {"acodec": "", "audio_bit_rate": 0, "audio_stream_index": -1, "audio_timebase": {"den": 1, "num": 1}, "channel_layout": 4, "channels": 0, "display_ratio": {"den": 275, "num": 499}, "duration": 86400.0, "file_size": "2195600", "fps": {"den": 1, "num": 30}, "has_audio": false, "has_single_image": true, "has_video": true, "height": 550, "interlaced_frame": false, "path": "video assets/wrong stamp.png", "pixel_format": -1, "pixel_ratio": {"den": 1, "num": 1}, "sample_rate": 0, "top_field_first": true, "type": "QtImageReader", "vcodec": "", "video_bit_rate": 0, "video_length": "2592000", "video_stream_index": -1, "video_timebase": {"den": 30, "num": 1}, "width": 998}, "rotation": {"Points": [{"co": {"X": 1, "Y": 0}, "interpolation": 2}]}, "scale": 1, "scale_x": {"Points": [{"co": {"X": 1, "Y": 1}, "interpolation": 2}]}, "scale_y": {"Points": [{"co": {"X": 1, "Y": 1}, "interpolation": 2}]}, "shear_x": {"Points": [{"co": {"X": 1, "Y": 0}, "interpolation": 2}]}, "shear_y": {"Points": [{"co": {"X": 1, "Y": 0}, "interpolation": 2}]}, "start": 0, "time": {"Points": [{"co": {"X": 1, "Y": 1}, "interpolation": 2}]}, "volume": {"Points": [{"co": {"X": 1, "Y": 1}, "interpolation": 2}]}, "wave_color": {"alpha": {"Points": [{"co": {"X": 1, "Y": 255}, "handle_left": {"X": 0.5, "Y": 1}, "handle_right": {"X": 0.5, "Y": 0}, "handle_type": 0, "interpolation": 0}]}, "blue": {"Points": [{"co": {"X": 1, "Y": 255}, "handle_left": {"X": 0.5, "Y": 1}, "handle_right": {"X": 0.5, "Y": 0}, "handle_type": 0, "interpolation": 0}]}, "green": {"Points": [{"co": {"X": 1, "Y": 123}, "handle_left": {"X": 0.5, "Y": 1}, "handle_right": {"X": 0.5, "Y": 0}, "handle_type": 0, "interpolation": 0}]}, "red": {"Points": [{"co": {"X": 1, "Y": 0}, "handle_left": {"X": 0.5, "Y": 1}, "handle_right": {"X": 0.5, "Y": 0}, "handle_type": 0, "interpolation": 0}]}}, "waveform": false, "file_id": "0VXG5ZD080", "title": "wrong stamp.png", "image": "../../../.openshot_qt/thumbnail/0VXG5ZD080.png"}, {"alpha": {"Points": [{"co": {"X": 1, "Y": 1}, "interpolation": 2}]}, "anchor": 0, "channel_filter": {"Points": [{"co": {"X": 1, "Y": -1}, "interpolation": 2}]}, "channel_mapping": {"Points": [{"co": {"X": 1, "Y": -1}, "interpolation": 2}]}, "crop_height": {"Points": [{"co": {"X": 1, "Y": -1}, "interpolation": 2}]}, "crop_width": {"Points": [{"co": {"X": 1, "Y": -1}, "interpolation": 2}]}, "crop_x": {"Points": [{"co": {"X": 1, "Y": 0}, "interpolation": 2}]}, "crop_y": {"Points": [{"co": {"X": 1, "Y": 0}, "interpolation": 2}]}, "display": 0, "duration": 86400.0, "effects": [], "end": 16.48, "gravity": 4, "has_audio": {"Points": [{"co": {"X": 1, "Y": -1}, "interpolation": 2}]}, "has_video": {"Points": [{"co": {"X": 1, "Y": -1}, "interpolation": 2}]}, "id": "88CYT0B0HE", "layer": 4, "location_x": {"Points": [{"co": {"X": 1, "Y": 0}, "interpolation": 2}]}, "location_y": {"Points": [{"co": {"X": 1, "Y": 0}, "interpolation": 2}]}, "perspective_c1_x": {"Points": [{"co": {"X": 1, "Y": -1}, "interpolation": 2}]}, "perspective_c1_y": {"Points": [{"co": {"X": 1, "Y": -1}, "interpolation": 2}]}, "perspective_c2_x": {"Points": [{"co": {"X": 1, "Y": -1}, "interpolation": 2}]}, "perspective_c2_y": {"Points": [{"co": {"X": 1, "Y": -1}, "interpolation": 2}]}, "perspective_c3_x": {"Points": [{"co": {"X": 1, "Y": -1}, "interpolation": 2}]}, "perspective_c3_y": {"Points": [{"co": {"X": 1, "Y": -1}, "interpolation": 2}]}, "perspective_c4_x": {"Points": [{"co": {"X": 1, "Y": -1}, "interpolation": 2}]}, "perspective_c4_y": {"Points": [{"co": {"X": 1, "Y": -1}, "interpolation": 2}]}, "position": 54.059999999999995, "reader": {"acodec": "", "audio_bit_rate": 0, "audio_stream_index": -1, "audio_timebase": {"den": 1, "num": 1}, "channel_layout": 4, "channels": 0, "display_ratio": {"den": 275, "num": 499}, "duration": 86400.0, "file_size": "2195600", "fps": {"den": 1, "num": 30}, "has_audio": false, "has_single_image": true, "has_video": true, "height": 550, "interlaced_frame": false, "path": "video assets/wrong stamp.png", "pixel_format": -1, "pixel_ratio": {"den": 1, "num": 1}, "sample_rate": 0, "top_field_first": true, "type": "QtImageReader", "vcodec": "", "video_bit_rate": 0, "video_length": "2592000", "video_stream_index": -1, "video_timebase": {"den": 30, "num": 1}, "width": 998}, "rotation": {"Points": [{"co": {"X": 1, "Y": 0}, "interpolation": 2}]}, "scale": 1, "scale_x": {"Points": [{"co": {"X": 1, "Y": 1}, "interpolation": 2}]}, "scale_y": {"Points": [{"co": {"X": 1, "Y": 1}, "interpolation": 2}]}, "shear_x": {"Points": [{"co": {"X": 1, "Y": 0}, "interpolation": 2}]}, "shear_y": {"Points": [{"co": {"X": 1, "Y": 0}, "interpolation": 2}]}, "start": 0, "time": {"Points": [{"co": {"X": 1, "Y": 1}, "interpolation": 2}]}, "volume": {"Points": [{"co": {"X": 1, "Y": 1}, "interpolation": 2}]}, "wave_color": {"alpha": {"Points": [{"co": {"X": 1, "Y": 255}, "handle_left": {"X": 0.5, "Y": 1}, "handle_right": {"X": 0.5, "Y": 0}, "handle_type": 0, "interpolation": 0}]}, "blue": {"Points": [{"co": {"X": 1, "Y": 255}, "handle_left": {"X": 0.5, "Y": 1}, "handle_right": {"X": 0.5, "Y": 0}, "handle_type": 0, "interpolation": 0}]}, "green": {"Points": [{"co": {"X": 1, "Y": 123}, "handle_left": {"X": 0.5, "Y": 1}, "handle_right": {"X": 0.5, "Y": 0}, "handle_type": 0, "interpolation": 0}]}, "red": {"Points": [{"co": {"X": 1, "Y": 0}, "handle_left": {"X": 0.5, "Y": 1}, "handle_right": {"X": 0.5, "Y": 0}, "handle_type": 0, "interpolation": 0}]}}, "waveform": false, "file_id": "0VXG5ZD080", "title": "wrong stamp.png", "image": "../../../.openshot_qt/thumbnail/0VXG5ZD080.png"}, {"alpha": {"Points": [{"co": {"X": 1, "Y": 1}, "interpolation": 2}]}, "anchor": 0, "channel_filter": {"Points": [{"co": {"X": 1, "Y": -1}, "interpolation": 2}]}, "channel_mapping": {"Points": [{"co": {"X": 1, "Y": -1}, "interpolation": 2}]}, "crop_height": {"Points": [{"co": {"X": 1, "Y": -1}, "interpolation": 2}]}, "crop_width": {"Points": [{"co": {"X": 1, "Y": -1}, "interpolation": 2}]}, "crop_x": {"Points": [{"co": {"X": 1, "Y": 0}, "interpolation": 2}]}, "crop_y": {"Points": [{"co": {"X": 1, "Y": 0}, "interpolation": 2}]}, "display": 0, "duration": 86400.0, "effects": [], "end": 10, "gravity": 4, "has_audio": {"Points": [{"co": {"X": 1, "Y": -1}, "interpolation": 2}]}, "has_video": {"Points": [{"co": {"X": 1, "Y": -1}, "interpolation": 2}]}, "id": "7NXRR1UD6W", "layer": 4, "location_x": {"Points": [{"co": {"X": 1, "Y": 0}, "interpolation": 2}]}, "location_y": {"Points": [{"co": {"X": 1, "Y": 0}, "interpolation": 2}]}, "perspective_c1_x": {"Points": [{"co": {"X": 1, "Y": -1}, "interpolation": 2}]}, "perspective_c1_y": {"Points": [{"co": {"X": 1, "Y": -1}, "interpolation": 2}]}, "perspective_c2_x": {"Points": [{"co": {"X": 1, "Y": -1}, "interpolation": 2}]}, "perspective_c2_y": {"Points": [{"co": {"X": 1, "Y": -1}, "interpolation": 2}]}, "perspective_c3_x": {"Points": [{"co": {"X": 1, "Y": -1}, "interpolation": 2}]}, "perspective_c3_y": {"Points": [{"co": {"X": 1, "Y": -1}, "interpolation": 2}]}, "perspective_c4_x": {"Points": [{"co": {"X": 1, "Y": -1}, "interpolation": 2}]}, "perspective_c4_y": {"Points": [{"co": {"X": 1, "Y": -1}, "interpolation": 2}]}, "position": 75.3406245803833, "reader": {"acodec": "", "audio_bit_rate": 0, "audio_stream_index": -1, "audio_timebase": {"den": 1, "num": 1}, "channel_layout": 4, "channels": 0, "display_ratio": {"den": 275, "num": 499}, "duration": 86400.0, "file_size": "2195600", "fps": {"den": 1, "num": 30}, "has_audio": false, "has_single_image": true, "has_video": true, "height": 550, "interlaced_frame": false, "path": "video assets/wrong stamp.png", "pixel_format": -1, "pixel_ratio": {"den": 1, "num": 1}, "sample_rate": 0, "top_field_first": true, "type": "QtImageReader", "vcodec": "", "video_bit_rate": 0, "video_length": "2592000", "video_stream_index": -1, "video_timebase": {"den": 30, "num": 1}, "width": 998}, "rotation": {"Points": [{"co": {"X": 1, "Y": 0}, "interpolation": 2}]}, "scale": 1, "scale_x": {"Points": [{"co": {"X": 1, "Y": 1}, "interpolation": 2}]}, "scale_y": {"Points": [{"co": {"X": 1, "Y": 1}, "interpolation": 2}]}, "shear_x": {"Points": [{"co": {"X": 1, "Y": 0}, "interpolation": 2}]}, "shear_y": {"Points": [{"co": {"X": 1, "Y": 0}, "interpolation": 2}]}, "start": 0, "time": {"Points": [{"co": {"X": 1, "Y": 1}, "interpolation": 2}]}, "volume": {"Points": [{"co": {"X": 1, "Y": 1}, "interpolation": 2}]}, "wave_color": {"alpha": {"Points": [{"co": {"X": 1, "Y": 255}, "handle_left": {"X": 0.5, "Y": 1}, "handle_right": {"X": 0.5, "Y": 0}, "handle_type": 0, "interpolation": 0}]}, "blue": {"Points": [{"co": {"X": 1, "Y": 255}, "handle_left": {"X": 0.5, "Y": 1}, "handle_right": {"X": 0.5, "Y": 0}, "handle_type": 0, "interpolation": 0}]}, "green": {"Points": [{"co": {"X": 1, "Y": 123}, "handle_left": {"X": 0.5, "Y": 1}, "handle_right": {"X": 0.5, "Y": 0}, "handle_type": 0, "interpolation": 0}]}, "red": {"Points": [{"co": {"X": 1, "Y": 0}, "handle_left": {"X": 0.5, "Y": 1}, "handle_right": {"X": 0.5, "Y": 0}, "handle_type": 0, "interpolation": 0}]}}, "waveform": false, "file_id": "0VXG5ZD080", "title": "wrong stamp.png", "image": "../../../.openshot_qt/thumbnail/0VXG5ZD080.png"}, {"alpha": {"Points": [{"co": {"X": 1, "Y": 1}, "interpolation": 2}]}, "anchor": 0, "channel_filter": {"Points": [{"co": {"X": 1, "Y": -1}, "interpolation": 2}]}, "channel_mapping": {"Points": [{"co": {"X": 1, "Y": -1}, "interpolation": 2}]}, "crop_height": {"Points": [{"co": {"X": 1, "Y": -1}, "interpolation": 2}]}, "crop_width": {"Points": [{"co": {"X": 1, "Y": -1}, "interpolation": 2}]}, "crop_x": {"Points": [{"co": {"X": 1, "Y": 0}, "interpolation": 2}]}, "crop_y": {"Points": [{"co": {"X": 1, "Y": 0}, "interpolation": 2}]}, "display": 0, "duration": 86400.0, "effects": [], "end": 36.99999999999999, "gravity": 4, "has_audio": {"Points": [{"co": {"X": 1, "Y": -1}, "interpolation": 2}]}, "has_video": {"Points": [{"co": {"X": 1, "Y": -1}, "interpolation": 2}]}, "id": "HTFUKU1BH6", "layer": 4, "location_x": {"Points": [{"co": {"X": 1, "Y": 0}, "interpolation": 2}]}, "location_y": {"Points": [{"co": {"X": 1, "Y": 0}, "interpolation": 2}]}, "perspective_c1_x": {"Points": [{"co": {"X": 1, "Y": -1}, "interpolation": 2}]}, "perspective_c1_y": {"Points": [{"co": {"X": 1, "Y": -1}, "interpolation": 2}]}, "perspective_c2_x": {"Points": [{"co": {"X": 1, "Y": -1}, "interpolation": 2}]}, "perspective_c2_y": {"Points": [{"co": {"X": 1, "Y": -1}, "interpolation": 2}]}, "perspective_c3_x": {"Points": [{"co": {"X": 1, "Y": -1}, "interpolation": 2}]}, "perspective_c3_y": {"Points": [{"co": {"X": 1, "Y": -1}, "interpolation": 2}]}, "perspective_c4_x": {"Points": [{"co": {"X": 1, "Y": -1}, "interpolation": 2}]}, "perspective_c4_y": {"Points": [{"co": {"X": 1, "Y": -1}, "interpolation": 2}]}, "position": 94.74, "reader": {"acodec": "", "audio_bit_rate": 0, "audio_stream_index": -1, "audio_timebase": {"den": 1, "num": 1}, "channel_layout": 4, "channels": 0, "display_ratio": {"den": 275, "num": 499}, "duration": 86400.0, "file_size": "2195600", "fps": {"den": 1, "num": 30}, "has_audio": false, "has_single_image": true, "has_video": true, "height": 550, "interlaced_frame": false, "path": "video assets/wrong stamp.png", "pixel_format": -1, "pixel_ratio": {"den": 1, "num": 1}, "sample_rate": 0, "top_field_first": true, "type": "QtImageReader", "vcodec": "", "video_bit_rate": 0, "video_length": "2592000", "video_stream_index": -1, "video_timebase": {"den": 30, "num": 1}, "width": 998}, "rotation": {"Points": [{"co": {"X": 1, "Y": 0}, "interpolation": 2}]}, "scale": 1, "scale_x": {"Points": [{"co": {"X": 1, "Y": 1}, "interpolation": 2}]}, "scale_y": {"Points": [{"co": {"X": 1, "Y": 1}, "interpolation": 2}]}, "shear_x": {"Points": [{"co": {"X": 1, "Y": 0}, "interpolation": 2}]}, "shear_y": {"Points": [{"co": {"X": 1, "Y": 0}, "interpolation": 2}]}, "start": 0, "time": {"Points": [{"co": {"X": 1, "Y": 1}, "interpolation": 2}]}, "volume": {"Points": [{"co": {"X": 1, "Y": 1}, "interpolation": 2}]}, "wave_color": {"alpha": {"Points": [{"co": {"X": 1, "Y": 255}, "handle_left": {"X": 0.5, "Y": 1}, "handle_right": {"X": 0.5, "Y": 0}, "handle_type": 0, "interpolation": 0}]}, "blue": {"Points": [{"co": {"X": 1, "Y": 255}, "handle_left": {"X": 0.5, "Y": 1}, "handle_right": {"X": 0.5, "Y": 0}, "handle_type": 0, "interpolation": 0}]}, "green": {"Points": [{"co": {"X": 1, "Y": 123}, "handle_left": {"X": 0.5, "Y": 1}, "handle_right": {"X": 0.5, "Y": 0}, "handle_type": 0, "interpolation": 0}]}, "red": {"Points": [{"co": {"X": 1, "Y": 0}, "handle_left": {"X": 0.5, "Y": 1}, "handle_right": {"X": 0.5, "Y": 0}, "handle_type": 0, "interpolation": 0}]}}, "waveform": false, "file_id": "0VXG5ZD080", "title": "wrong stamp.png", "image": "../../../.openshot_qt/thumbnail/0VXG5ZD080.png"}, {"alpha": {"Points": [{"co": {"X": 1, "Y": 1}, "interpolation": 2}]}, "anchor": 0, "channel_filter": {"Points": [{"co": {"X": 1, "Y": -1}, "interpolation": 2}]}, "channel_mapping": {"Points": [{"co": {"X": 1, "Y": -1}, "interpolation": 2}]}, "crop_height": {"Points": [{"co": {"X": 1, "Y": -1}, "interpolation": 2}]}, "crop_width": {"Points": [{"co": {"X": 1, "Y": -1}, "interpolation": 2}]}, "crop_x": {"Points": [{"co": {"X": 1, "Y": 0}, "interpolation": 2}]}, "crop_y": {"Points": [{"co": {"X": 1, "Y": 0}, "interpolation": 2}]}, "display": 0, "duration": 86400.0, "effects": [], "end": 10, "gravity": 4, "has_audio": {"Points": [{"co": {"X": 1, "Y": -1}, "interpolation": 2}]}, "has_video": {"Points": [{"co": {"X": 1, "Y": -1}, "interpolation": 2}]}, "id": "RWY6RH8HVY", "layer": 4, "location_x": {"Points": [{"co": {"X": 1, "Y": 0}, "interpolation": 2}]}, "location_y": {"Points": [{"co": {"X": 1, "Y": 0}, "interpolation": 2}]}, "perspective_c1_x": {"Points": [{"co": {"X": 1, "Y": -1}, "interpolation": 2}]}, "perspective_c1_y": {"Points": [{"co": {"X": 1, "Y": -1}, "interpolation": 2}]}, "perspective_c2_x": {"Points": [{"co": {"X": 1, "Y": -1}, "interpolation": 2}]}, "perspective_c2_y": {"Points": [{"co": {"X": 1, "Y": -1}, "interpolation": 2}]}, "perspective_c3_x": {"Points": [{"co": {"X": 1, "Y": -1}, "interpolation": 2}]}, "perspective_c3_y": {"Points": [{"co": {"X": 1, "Y": -1}, "interpolation": 2}]}, "perspective_c4_x": {"Points": [{"co": {"X": 1, "Y": -1}, "interpolation": 2}]}, "perspective_c4_y": {"Points": [{"co": {"X": 1, "Y": -1}, "interpolation": 2}]}, "position": 135.220625, "reader": {"acodec": "", "audio_bit_rate": 0, "audio_stream_index": -1, "audio_timebase": {"den": 1, "num": 1}, "channel_layout": 4, "channels": 0, "display_ratio": {"den": 275, "num": 499}, "duration": 86400.0, "file_size": "2195600", "fps": {"den": 1, "num": 30}, "has_audio": false, "has_single_image": true, "has_video": true, "height": 550, "interlaced_frame": false, "path": "video assets/wrong stamp.png", "pixel_format": -1, "pixel_ratio": {"den": 1, "num": 1}, "sample_rate": 0, "top_field_first": true, "type": "QtImageReader", "vcodec": "", "video_bit_rate": 0, "video_length": "2592000", "video_stream_index": -1, "video_timebase": {"den": 30, "num": 1}, "width": 998}, "rotation": {"Points": [{"co": {"X": 1, "Y": 0}, "interpolation": 2}]}, "scale": 1, "scale_x": {"Points": [{"co": {"X": 1, "Y": 1}, "interpolation": 2}]}, "scale_y": {"Points": [{"co": {"X": 1, "Y": 1}, "interpolation": 2}]}, "shear_x": {"Points": [{"co": {"X": 1, "Y": 0}, "interpolation": 2}]}, "shear_y": {"Points": [{"co": {"X": 1, "Y": 0}, "interpolation": 2}]}, "start": 0, "time": {"Points": [{"co": {"X": 1, "Y": 1}, "interpolation": 2}]}, "volume": {"Points": [{"co": {"X": 1, "Y": 1}, "interpolation": 2}]}, "wave_color": {"alpha": {"Points": [{"co": {"X": 1, "Y": 255}, "handle_left": {"X": 0.5, "Y": 1}, "handle_right": {"X": 0.5, "Y": 0}, "handle_type": 0, "interpolation": 0}]}, "blue": {"Points": [{"co": {"X": 1, "Y": 255}, "handle_left": {"X": 0.5, "Y": 1}, "handle_right": {"X": 0.5, "Y": 0}, "handle_type": 0, "interpolation": 0}]}, "green": {"Points": [{"co": {"X": 1, "Y": 123}, "handle_left": {"X": 0.5, "Y": 1}, "handle_right": {"X": 0.5, "Y": 0}, "handle_type": 0, "interpolation": 0}]}, "red": {"Points": [{"co": {"X": 1, "Y": 0}, "handle_left": {"X": 0.5, "Y": 1}, "handle_right": {"X": 0.5, "Y": 0}, "handle_type": 0, "interpolation": 0}]}}, "waveform": false, "file_id": "0VXG5ZD080", "title": "wrong stamp.png", "image": "../../../.openshot_qt/thumbnail/0VXG5ZD080.png"}, {"alpha": {"Points": [{"co": {"X": 1, "Y": 1}, "interpolation": 2}]}, "anchor": 0, "channel_filter": {"Points": [{"co": {"X": 1, "Y": -1}, "interpolation": 2}]}, "channel_mapping": {"Points": [{"co": {"X": 1, "Y": -1}, "interpolation": 2}]}, "crop_height": {"Points": [{"co": {"X": 1, "Y": -1}, "interpolation": 2}]}, "crop_width": {"Points": [{"co": {"X": 1, "Y": -1}, "interpolation": 2}]}, "crop_x": {"Points": [{"co": {"X": 1, "Y": 0}, "interpolation": 2}]}, "crop_y": {"Points": [{"co": {"X": 1, "Y": 0}, "interpolation": 2}]}, "display": 0, "duration": 86400.0, "effects": [], "end": 10, "gravity": 4, "has_audio": {"Points": [{"co": {"X": 1, "Y": -1}, "interpolation": 2}]}, "has_video": {"Points": [{"co": {"X": 1, "Y": -1}, "interpolation": 2}]}, "id": "PWDFICFP8Y", "layer": 4, "location_x": {"Points": [{"co": {"X": 1, "Y": 0}, "interpolation": 2}]}, "location_y": {"Points": [{"co": {"X": 1, "Y": 0}, "interpolation": 2}]}, "perspective_c1_x": {"Points": [{"co": {"X": 1, "Y": -1}, "interpolation": 2}]}, "perspective_c1_y": {"Points": [{"co": {"X": 1, "Y": -1}, "interpolation": 2}]}, "perspective_c2_x": {"Points": [{"co": {"X": 1, "Y": -1}, "interpolation": 2}]}, "perspective_c2_y": {"Points": [{"co": {"X": 1, "Y": -1}, "interpolation": 2}]}, "perspective_c3_x": {"Points": [{"co": {"X": 1, "Y": -1}, "interpolation": 2}]}, "perspective_c3_y": {"Points": [{"co": {"X": 1, "Y": -1}, "interpolation": 2}]}, "perspective_c4_x": {"Points": [{"co": {"X": 1, "Y": -1}, "interpolation": 2}]}, "perspective_c4_y": {"Points": [{"co": {"X": 1, "Y": -1}, "interpolation": 2}]}, "position": 152.220625, "reader": {"acodec": "", "audio_bit_rate": 0, "audio_stream_index": -1, "audio_timebase": {"den": 1, "num": 1}, "channel_layout": 4, "channels": 0, "display_ratio": {"den": 275, "num": 499}, "duration": 86400.0, "file_size": "2195600", "fps": {"den": 1, "num": 30}, "has_audio": false, "has_single_image": true, "has_video": true, "height": 550, "interlaced_frame": false, "path": "video assets/wrong stamp.png", "pixel_format": -1, "pixel_ratio": {"den": 1, "num": 1}, "sample_rate": 0, "top_field_first": true, "type": "QtImageReader", "vcodec": "", "video_bit_rate": 0, "video_length": "2592000", "video_stream_index": -1, "video_timebase": {"den": 30, "num": 1}, "width": 998}, "rotation": {"Points": [{"co": {"X": 1, "Y": 0}, "interpolation": 2}]}, "scale": 1, "scale_x": {"Points": [{"co": {"X": 1, "Y": 1}, "interpolation": 2}]}, "scale_y": {"Points": [{"co": {"X": 1, "Y": 1}, "interpolation": 2}]}, "shear_x": {"Points": [{"co": {"X": 1, "Y": 0}, "interpolation": 2}]}, "shear_y": {"Points": [{"co": {"X": 1, "Y": 0}, "interpolation": 2}]}, "start": 0, "time": {"Points": [{"co": {"X": 1, "Y": 1}, "interpolation": 2}]}, "volume": {"Points": [{"co": {"X": 1, "Y": 1}, "interpolation": 2}]}, "wave_color": {"alpha": {"Points": [{"co": {"X": 1, "Y": 255}, "handle_left": {"X": 0.5, "Y": 1}, "handle_right": {"X": 0.5, "Y": 0}, "handle_type": 0, "interpolation": 0}]}, "blue": {"Points": [{"co": {"X": 1, "Y": 255}, "handle_left": {"X": 0.5, "Y": 1}, "handle_right": {"X": 0.5, "Y": 0}, "handle_type": 0, "interpolation": 0}]}, "green": {"Points": [{"co": {"X": 1, "Y": 123}, "handle_left": {"X": 0.5, "Y": 1}, "handle_right": {"X": 0.5, "Y": 0}, "handle_type": 0, "interpolation": 0}]}, "red": {"Points": [{"co": {"X": 1, "Y": 0}, "handle_left": {"X": 0.5, "Y": 1}, "handle_right": {"X": 0.5, "Y": 0}, "handle_type": 0, "interpolation": 0}]}}, "waveform": false, "file_id": "0VXG5ZD080", "title": "wrong stamp.png", "image": "../../../.openshot_qt/thumbnail/0VXG5ZD080.png"}, {"alpha": {"Points": [{"co": {"X": 1, "Y": 1}, "interpolation": 2}]}, "anchor": 0, "channel_filter": {"Points": [{"co": {"X": 1, "Y": -1}, "interpolation": 2}]}, "channel_mapping": {"Points": [{"co": {"X": 1, "Y": -1}, "interpolation": 2}]}, "crop_height": {"Points": [{"co": {"X": 1, "Y": -1}, "interpolation": 2}]}, "crop_width": {"Points": [{"co": {"X": 1, "Y": -1}, "interpolation": 2}]}, "crop_x": {"Points": [{"co": {"X": 1, "Y": 0}, "interpolation": 2}]}, "crop_y": {"Points": [{"co": {"X": 1, "Y": 0}, "interpolation": 2}]}, "display": 0, "duration": 86400.0, "effects": [], "end": 7.66, "gravity": 4, "has_audio": {"Points": [{"co": {"X": 1, "Y": -1}, "interpolation": 2}]}, "has_video": {"Points": [{"co": {"X": 1, "Y": -1}, "interpolation": 2}]}, "id": "O8GAJXM1S6", "layer": 4, "location_x": {"Points": [{"co": {"X": 1, "Y": 0}, "interpolation": 2}]}, "location_y": {"Points": [{"co": {"X": 1, "Y": 0}, "interpolation": 2}]}, "perspective_c1_x": {"Points": [{"co": {"X": 1, "Y": -1}, "interpolation": 2}]}, "perspective_c1_y": {"Points": [{"co": {"X": 1, "Y": -1}, "interpolation": 2}]}, "perspective_c2_x": {"Points": [{"co": {"X": 1, "Y": -1}, "interpolation": 2}]}, "perspective_c2_y": {"Points": [{"co": {"X": 1, "Y": -1}, "interpolation": 2}]}, "perspective_c3_x": {"Points": [{"co": {"X": 1, "Y": -1}, "interpolation": 2}]}, "perspective_c3_y": {"Points": [{"co": {"X": 1, "Y": -1}, "interpolation": 2}]}, "perspective_c4_x": {"Points": [{"co": {"X": 1, "Y": -1}, "interpolation": 2}]}, "perspective_c4_y": {"Points": [{"co": {"X": 1, "Y": -1}, "interpolation": 2}]}, "position": 164.48062499999997, "reader": {"acodec": "", "audio_bit_rate": 0, "audio_stream_index": -1, "audio_timebase": {"den": 1, "num": 1}, "channel_layout": 4, "channels": 0, "display_ratio": {"den": 275, "num": 499}, "duration": 86400.0, "file_size": "2195600", "fps": {"den": 1, "num": 30}, "has_audio": false, "has_single_image": true, "has_video": true, "height": 550, "interlaced_frame": false, "path": "video assets/wrong stamp.png", "pixel_format": -1, "pixel_ratio": {"den": 1, "num": 1}, "sample_rate": 0, "top_field_first": true, "type": "QtImageReader", "vcodec": "", "video_bit_rate": 0, "video_length": "2592000", "video_stream_index": -1, "video_timebase": {"den": 30, "num": 1}, "width": 998}, "rotation": {"Points": [{"co": {"X": 1, "Y": 0}, "interpolation": 2}]}, "scale": 1, "scale_x": {"Points": [{"co": {"X": 1, "Y": 1}, "interpolation": 2}]}, "scale_y": {"Points": [{"co": {"X": 1, "Y": 1}, "interpolation": 2}]}, "shear_x": {"Points": [{"co": {"X": 1, "Y": 0}, "interpolation": 2}]}, "shear_y": {"Points": [{"co": {"X": 1, "Y": 0}, "interpolation": 2}]}, "start": 0, "time": {"Points": [{"co": {"X": 1, "Y": 1}, "interpolation": 2}]}, "volume": {"Points": [{"co": {"X": 1, "Y": 1}, "interpolation": 2}]}, "wave_color": {"alpha": {"Points": [{"co": {"X": 1, "Y": 255}, "handle_left": {"X": 0.5, "Y": 1}, "handle_right": {"X": 0.5, "Y": 0}, "handle_type": 0, "interpolation": 0}]}, "blue": {"Points": [{"co": {"X": 1, "Y": 255}, "handle_left": {"X": 0.5, "Y": 1}, "handle_right": {"X": 0.5, "Y": 0}, "handle_type": 0, "interpolation": 0}]}, "green": {"Points": [{"co": {"X": 1, "Y": 123}, "handle_left": {"X": 0.5, "Y": 1}, "handle_right": {"X": 0.5, "Y": 0}, "handle_type": 0, "interpolation": 0}]}, "red": {"Points": [{"co": {"X": 1, "Y": 0}, "handle_left": {"X": 0.5, "Y": 1}, "handle_right": {"X": 0.5, "Y": 0}, "handle_type": 0, "interpolation": 0}]}}, "waveform": false, "file_id": "0VXG5ZD080", "title": "wrong stamp.png", "image": "../../../.openshot_qt/thumbnail/0VXG5ZD080.png"}, {"alpha": {"Points": [{"co": {"X": 1, "Y": 1}, "interpolation": 2}]}, "anchor": 0, "channel_filter": {"Points": [{"co": {"X": 1, "Y": -1}, "interpolation": 2}]}, "channel_mapping": {"Points": [{"co": {"X": 1, "Y": -1}, "interpolation": 2}]}, "crop_height": {"Points": [{"co": {"X": 1, "Y": -1}, "interpolation": 2}]}, "crop_width": {"Points": [{"co": {"X": 1, "Y": -1}, "interpolation": 2}]}, "crop_x": {"Points": [{"co": {"X": 1, "Y": 0}, "interpolation": 2}]}, "crop_y": {"Points": [{"co": {"X": 1, "Y": 0}, "interpolation": 2}]}, "display": 0, "duration": 86400.0, "effects": [], "end": 10, "gravity": 4, "has_audio": {"Points": [{"co": {"X": 1, "Y": -1}, "interpolation": 2}]}, "has_video": {"Points": [{"co": {"X": 1, "Y": -1}, "interpolation": 2}]}, "id": "3JO4XG1LWJ", "layer": 4, "location_x": {"Points": [{"co": {"X": 1, "Y": 0}, "interpolation": 2}]}, "location_y": {"Points": [{"co": {"X": 1, "Y": 0}, "interpolation": 2}]}, "perspective_c1_x": {"Points": [{"co": {"X": 1, "Y": -1}, "interpolation": 2}]}, "perspective_c1_y": {"Points": [{"co": {"X": 1, "Y": -1}, "interpolation": 2}]}, "perspective_c2_x": {"Points": [{"co": {"X": 1, "Y": -1}, "interpolation": 2}]}, "perspective_c2_y": {"Points": [{"co": {"X": 1, "Y": -1}, "interpolation": 2}]}, "perspective_c3_x": {"Points": [{"co": {"X": 1, "Y": -1}, "interpolation": 2}]}, "perspective_c3_y": {"Points": [{"co": {"X": 1, "Y": -1}, "interpolation": 2}]}, "perspective_c4_x": {"Points": [{"co": {"X": 1, "Y": -1}, "interpolation": 2}]}, "perspective_c4_y": {"Points": [{"co": {"X": 1, "Y": -1}, "interpolation": 2}]}, "position": 174.50062538146975, "reader": {"acodec": "", "audio_bit_rate": 0, "audio_stream_index": -1, "audio_timebase": {"den": 1, "num": 1}, "channel_layout": 4, "channels": 0, "display_ratio": {"den": 275, "num": 499}, "duration": 86400.0, "file_size": "2195600", "fps": {"den": 1, "num": 30}, "has_audio": false, "has_single_image": true, "has_video": true, "height": 550, "interlaced_frame": false, "path": "video assets/wrong stamp.png", "pixel_format": -1, "pixel_ratio": {"den": 1, "num": 1}, "sample_rate": 0, "top_field_first": true, "type": "QtImageReader", "vcodec": "", "video_bit_rate": 0, "video_length": "2592000", "video_stream_index": -1, "video_timebase": {"den": 30, "num": 1}, "width": 998}, "rotation": {"Points": [{"co": {"X": 1, "Y": 0}, "interpolation": 2}]}, "scale": 1, "scale_x": {"Points": [{"co": {"X": 1, "Y": 1}, "interpolation": 2}]}, "scale_y": {"Points": [{"co": {"X": 1, "Y": 1}, "interpolation": 2}]}, "shear_x": {"Points": [{"co": {"X": 1, "Y": 0}, "interpolation": 2}]}, "shear_y": {"Points": [{"co": {"X": 1, "Y": 0}, "interpolation": 2}]}, "start": 1.68, "time": {"Points": [{"co": {"X": 1, "Y": 1}, "interpolation": 2}]}, "volume": {"Points": [{"co": {"X": 1, "Y": 1}, "interpolation": 2}]}, "wave_color": {"alpha": {"Points": [{"co": {"X": 1, "Y": 255}, "handle_left": {"X": 0.5, "Y": 1}, "handle_right": {"X": 0.5, "Y": 0}, "handle_type": 0, "interpolation": 0}]}, "blue": {"Points": [{"co": {"X": 1, "Y": 255}, "handle_left": {"X": 0.5, "Y": 1}, "handle_right": {"X": 0.5, "Y": 0}, "handle_type": 0, "interpolation": 0}]}, "green": {"Points": [{"co": {"X": 1, "Y": 123}, "handle_left": {"X": 0.5, "Y": 1}, "handle_right": {"X": 0.5, "Y": 0}, "handle_type": 0, "interpolation": 0}]}, "red": {"Points": [{"co": {"X": 1, "Y": 0}, "handle_left": {"X": 0.5, "Y": 1}, "handle_right": {"X": 0.5, "Y": 0}, "handle_type": 0, "interpolation": 0}]}}, "waveform": false, "file_id": "0VXG5ZD080", "title": "wrong stamp.png", "image": "../../../.openshot_qt/thumbnail/0VXG5ZD080.png"}, {"alpha": {"Points": [{"co": {"X": 1, "Y": 1}, "interpolation": 2}]}, "anchor": 0, "channel_filter": {"Points": [{"co": {"X": 1, "Y": -1}, "interpolation": 2}]}, "channel_mapping": {"Points": [{"co": {"X": 1, "Y": -1}, "interpolation": 2}]}, "crop_height": {"Points": [{"co": {"X": 1, "Y": -1}, "interpolation": 2}]}, "crop_width": {"Points": [{"co": {"X": 1, "Y": -1}, "interpolation": 2}]}, "crop_x": {"Points": [{"co": {"X": 1, "Y": 0}, "interpolation": 2}]}, "crop_y": {"Points": [{"co": {"X": 1, "Y": 0}, "interpolation": 2}]}, "display": 0, "duration": 86400.0, "effects": [], "end": 10, "gravity": 4, "has_audio": {"Points": [{"co": {"X": 1, "Y": -1}, "interpolation": 2}]}, "has_video": {"Points": [{"co": {"X": 1, "Y": -1}, "interpolation": 2}]}, "id": "UOU58CELB0", "layer": 4, "location_x": {"Points": [{"co": {"X": 1, "Y": 0}, "interpolation": 2}]}, "location_y": {"Points": [{"co": {"X": 1, "Y": 0}, "interpolation": 2}]}, "perspective_c1_x": {"Points": [{"co": {"X": 1, "Y": -1}, "interpolation": 2}]}, "perspective_c1_y": {"Points": [{"co": {"X": 1, "Y": -1}, "interpolation": 2}]}, "perspective_c2_x": {"Points": [{"co": {"X": 1, "Y": -1}, "interpolation": 2}]}, "perspective_c2_y": {"Points": [{"co": {"X": 1, "Y": -1}, "interpolation": 2}]}, "perspective_c3_x": {"Points": [{"co": {"X": 1, "Y": -1}, "interpolation": 2}]}, "perspective_c3_y": {"Points": [{"co": {"X": 1, "Y": -1}, "interpolation": 2}]}, "perspective_c4_x": {"Points": [{"co": {"X": 1, "Y": -1}, "interpolation": 2}]}, "perspective_c4_y": {"Points": [{"co": {"X": 1, "Y": -1}, "interpolation": 2}]}, "position": 187.94761680603028, "reader": {"acodec": "", "audio_bit_rate": 0, "audio_stream_index": -1, "audio_timebase": {"den": 1, "num": 1}, "channel_layout": 4, "channels": 0, "display_ratio": {"den": 275, "num": 499}, "duration": 86400.0, "file_size": "2195600", "fps": {"den": 1, "num": 30}, "has_audio": false, "has_single_image": true, "has_video": true, "height": 550, "interlaced_frame": false, "path": "video assets/wrong stamp.png", "pixel_format": -1, "pixel_ratio": {"den": 1, "num": 1}, "sample_rate": 0, "top_field_first": true, "type": "QtImageReader", "vcodec": "", "video_bit_rate": 0, "video_length": "2592000", "video_stream_index": -1, "video_timebase": {"den": 30, "num": 1}, "width": 998}, "rotation": {"Points": [{"co": {"X": 1, "Y": 0}, "interpolation": 2}]}, "scale": 1, "scale_x": {"Points": [{"co": {"X": 1, "Y": 1}, "interpolation": 2}]}, "scale_y": {"Points": [{"co": {"X": 1, "Y": 1}, "interpolation": 2}]}, "shear_x": {"Points": [{"co": {"X": 1, "Y": 0}, "interpolation": 2}]}, "shear_y": {"Points": [{"co": {"X": 1, "Y": 0}, "interpolation": 2}]}, "start": 0, "time": {"Points": [{"co": {"X": 1, "Y": 1}, "interpolation": 2}]}, "volume": {"Points": [{"co": {"X": 1, "Y": 1}, "interpolation": 2}]}, "wave_color": {"alpha": {"Points": [{"co": {"X": 1, "Y": 255}, "handle_left": {"X": 0.5, "Y": 1}, "handle_right": {"X": 0.5, "Y": 0}, "handle_type": 0, "interpolation": 0}]}, "blue": {"Points": [{"co": {"X": 1, "Y": 255}, "handle_left": {"X": 0.5, "Y": 1}, "handle_right": {"X": 0.5, "Y": 0}, "handle_type": 0, "interpolation": 0}]}, "green": {"Points": [{"co": {"X": 1, "Y": 123}, "handle_left": {"X": 0.5, "Y": 1}, "handle_right": {"X": 0.5, "Y": 0}, "handle_type": 0, "interpolation": 0}]}, "red": {"Points": [{"co": {"X": 1, "Y": 0}, "handle_left": {"X": 0.5, "Y": 1}, "handle_right": {"X": 0.5, "Y": 0}, "handle_type": 0, "interpolation": 0}]}}, "waveform": false, "file_id": "0VXG5ZD080", "title": "wrong stamp.png", "image": "../../../.openshot_qt/thumbnail/0VXG5ZD080.png"}, {"alpha": {"Points": [{"co": {"X": 1, "Y": 1}, "interpolation": 2}]}, "anchor": 0, "channel_filter": {"Points": [{"co": {"X": 1, "Y": -1}, "interpolation": 2}]}, "channel_mapping": {"Points": [{"co": {"X": 1, "Y": -1}, "interpolation": 2}]}, "crop_height": {"Points": [{"co": {"X": 1, "Y": -1}, "interpolation": 2}]}, "crop_width": {"Points": [{"co": {"X": 1, "Y": -1}, "interpolation": 2}]}, "crop_x": {"Points": [{"co": {"X": 1, "Y": 0}, "interpolation": 2}]}, "crop_y": {"Points": [{"co": {"X": 1, "Y": 0}, "interpolation": 2}]}, "display": 0, "duration": 86400.0, "effects": [], "end": 4.66, "gravity": 4, "has_audio": {"Points": [{"co": {"X": 1, "Y": -1}, "interpolation": 2}]}, "has_video": {"Points": [{"co": {"X": 1, "Y": -1}, "interpolation": 2}]}, "id": "6GH5R52ZZF", "layer": 4, "location_x": {"Points": [{"co": {"X": 1, "Y": 0}, "interpolation": 2}]}, "location_y": {"Points": [{"co": {"X": 1, "Y": 0}, "interpolation": 2}]}, "perspective_c1_x": {"Points": [{"co": {"X": 1, "Y": -1}, "interpolation": 2}]}, "perspective_c1_y": {"Points": [{"co": {"X": 1, "Y": -1}, "interpolation": 2}]}, "perspective_c2_x": {"Points": [{"co": {"X": 1, "Y": -1}, "interpolation": 2}]}, "perspective_c2_y": {"Points": [{"co": {"X": 1, "Y": -1}, "interpolation": 2}]}, "perspective_c3_x": {"Points": [{"co": {"X": 1, "Y": -1}, "interpolation": 2}]}, "perspective_c3_y": {"Points": [{"co": {"X": 1, "Y": -1}, "interpolation": 2}]}, "perspective_c4_x": {"Points": [{"co": {"X": 1, "Y": -1}, "interpolation": 2}]}, "perspective_c4_y": {"Points": [{"co": {"X": 1, "Y": -1}, "interpolation": 2}]}, "position": 200.1075, "reader": {"acodec": "", "audio_bit_rate": 0, "audio_stream_index": -1, "audio_timebase": {"den": 1, "num": 1}, "channel_layout": 4, "channels": 0, "display_ratio": {"den": 275, "num": 499}, "duration": 86400.0, "file_size": "2195600", "fps": {"den": 1, "num": 30}, "has_audio": false, "has_single_image": true, "has_video": true, "height": 550, "interlaced_frame": false, "path": "video assets/wrong stamp.png", "pixel_format": -1, "pixel_ratio": {"den": 1, "num": 1}, "sample_rate": 0, "top_field_first": true, "type": "QtImageReader", "vcodec": "", "video_bit_rate": 0, "video_length": "2592000", "video_stream_index": -1, "video_timebase": {"den": 30, "num": 1}, "width": 998}, "rotation": {"Points": [{"co": {"X": 1, "Y": 0}, "interpolation": 2}]}, "scale": 1, "scale_x": {"Points": [{"co": {"X": 1, "Y": 1}, "interpolation": 2}]}, "scale_y": {"Points": [{"co": {"X": 1, "Y": 1}, "interpolation": 2}]}, "shear_x": {"Points": [{"co": {"X": 1, "Y": 0}, "interpolation": 2}]}, "shear_y": {"Points": [{"co": {"X": 1, "Y": 0}, "interpolation": 2}]}, "start": 0, "time": {"Points": [{"co": {"X": 1, "Y": 1}, "interpolation": 2}]}, "volume": {"Points": [{"co": {"X": 1, "Y": 1}, "interpolation": 2}]}, "wave_color": {"alpha": {"Points": [{"co": {"X": 1, "Y": 255}, "handle_left": {"X": 0.5, "Y": 1}, "handle_right": {"X": 0.5, "Y": 0}, "handle_type": 0, "interpolation": 0}]}, "blue": {"Points": [{"co": {"X": 1, "Y": 255}, "handle_left": {"X": 0.5, "Y": 1}, "handle_right": {"X": 0.5, "Y": 0}, "handle_type": 0, "interpolation": 0}]}, "green": {"Points": [{"co": {"X": 1, "Y": 123}, "handle_left": {"X": 0.5, "Y": 1}, "handle_right": {"X": 0.5, "Y": 0}, "handle_type": 0, "interpolation": 0}]}, "red": {"Points": [{"co": {"X": 1, "Y": 0}, "handle_left": {"X": 0.5, "Y": 1}, "handle_right": {"X": 0.5, "Y": 0}, "handle_type": 0, "interpolation": 0}]}}, "waveform": false, "file_id": "0VXG5ZD080", "title": "wrong stamp.png", "image": "../../../.openshot_qt/thumbnail/0VXG5ZD080.png"}, {"alpha": {"Points": [{"co": {"X": 1, "Y": 1}, "interpolation": 2}]}, "anchor": 0, "channel_filter": {"Points": [{"co": {"X": 1, "Y": -1}, "interpolation": 2}]}, "channel_mapping": {"Points": [{"co": {"X": 1, "Y": -1}, "interpolation": 2}]}, "crop_height": {"Points": [{"co": {"X": 1, "Y": -1}, "interpolation": 2}]}, "crop_width": {"Points": [{"co": {"X": 1, "Y": -1}, "interpolation": 2}]}, "crop_x": {"Points": [{"co": {"X": 1, "Y": 0}, "interpolation": 2}]}, "crop_y": {"Points": [{"co": {"X": 1, "Y": 0}, "interpolation": 2}]}, "display": 0, "duration": 86400.0, "effects": [], "end": 10, "gravity": 4, "has_audio": {"Points": [{"co": {"X": 1, "Y": -1}, "interpolation": 2}]}, "has_video": {"Points": [{"co": {"X": 1, "Y": -1}, "interpolation": 2}]}, "id": "4JU44DY8O7", "layer": 4, "location_x": {"Points": [{"co": {"X": 1, "Y": 0}, "interpolation": 2}]}, "location_y": {"Points": [{"co": {"X": 1, "Y": 0}, "interpolation": 2}]}, "perspective_c1_x": {"Points": [{"co": {"X": 1, "Y": -1}, "interpolation": 2}]}, "perspective_c1_y": {"Points": [{"co": {"X": 1, "Y": -1}, "interpolation": 2}]}, "perspective_c2_x": {"Points": [{"co": {"X": 1, "Y": -1}, "interpolation": 2}]}, "perspective_c2_y": {"Points": [{"co": {"X": 1, "Y": -1}, "interpolation": 2}]}, "perspective_c3_x": {"Points": [{"co": {"X": 1, "Y": -1}, "interpolation": 2}]}, "perspective_c3_y": {"Points": [{"co": {"X": 1, "Y": -1}, "interpolation": 2}]}, "perspective_c4_x": {"Points": [{"co": {"X": 1, "Y": -1}, "interpolation": 2}]}, "perspective_c4_y": {"Points": [{"co": {"X": 1, "Y": -1}, "interpolation": 2}]}, "position": 209.11250026702882, "reader": {"acodec": "", "audio_bit_rate": 0, "audio_stream_index": -1, "audio_timebase": {"den": 1, "num": 1}, "channel_layout": 4, "channels": 0, "display_ratio": {"den": 275, "num": 499}, "duration": 86400.0, "file_size": "2195600", "fps": {"den": 1, "num": 30}, "has_audio": false, "has_single_image": true, "has_video": true, "height": 550, "interlaced_frame": false, "path": "video assets/wrong stamp.png", "pixel_format": -1, "pixel_ratio": {"den": 1, "num": 1}, "sample_rate": 0, "top_field_first": true, "type": "QtImageReader", "vcodec": "", "video_bit_rate": 0, "video_length": "2592000", "video_stream_index": -1, "video_timebase": {"den": 30, "num": 1}, "width": 998}, "rotation": {"Points": [{"co": {"X": 1, "Y": 0}, "interpolation": 2}]}, "scale": 1, "scale_x": {"Points": [{"co": {"X": 1, "Y": 1}, "interpolation": 2}]}, "scale_y": {"Points": [{"co": {"X": 1, "Y": 1}, "interpolation": 2}]}, "shear_x": {"Points": [{"co": {"X": 1, "Y": 0}, "interpolation": 2}]}, "shear_y": {"Points": [{"co": {"X": 1, "Y": 0}, "interpolation": 2}]}, "start": 2.94, "time": {"Points": [{"co": {"X": 1, "Y": 1}, "interpolation": 2}]}, "volume": {"Points": [{"co": {"X": 1, "Y": 1}, "interpolation": 2}]}, "wave_color": {"alpha": {"Points": [{"co": {"X": 1, "Y": 255}, "handle_left": {"X": 0.5, "Y": 1}, "handle_right": {"X": 0.5, "Y": 0}, "handle_type": 0, "interpolation": 0}]}, "blue": {"Points": [{"co": {"X": 1, "Y": 255}, "handle_left": {"X": 0.5, "Y": 1}, "handle_right": {"X": 0.5, "Y": 0}, "handle_type": 0, "interpolation": 0}]}, "green": {"Points": [{"co": {"X": 1, "Y": 123}, "handle_left": {"X": 0.5, "Y": 1}, "handle_right": {"X": 0.5, "Y": 0}, "handle_type": 0, "interpolation": 0}]}, "red": {"Points": [{"co": {"X": 1, "Y": 0}, "handle_left": {"X": 0.5, "Y": 1}, "handle_right": {"X": 0.5, "Y": 0}, "handle_type": 0, "interpolation": 0}]}}, "waveform": false, "file_id": "0VXG5ZD080", "title": "wrong stamp.png", "image": "../../../.openshot_qt/thumbnail/0VXG5ZD080.png"}, {"alpha": {"Points": [{"co": {"X": 1, "Y": 1}, "interpolation": 2}]}, "anchor": 0, "channel_filter": {"Points": [{"co": {"X": 1, "Y": -1}, "interpolation": 2}]}, "channel_mapping": {"Points": [{"co": {"X": 1, "Y": -1}, "interpolation": 2}]}, "crop_height": {"Points": [{"co": {"X": 1, "Y": -1}, "interpolation": 2}]}, "crop_width": {"Points": [{"co": {"X": 1, "Y": -1}, "interpolation": 2}]}, "crop_x": {"Points": [{"co": {"X": 1, "Y": 0}, "interpolation": 2}]}, "crop_y": {"Points": [{"co": {"X": 1, "Y": 0}, "interpolation": 2}]}, "display": 0, "duration": 193.77000427246094, "effects": [], "end": 193.77000427246094, "gravity": 4, "has_audio": {"Points": [{"co": {"X": 1, "Y": -1}, "interpolation": 2}]}, "has_video": {"Points": [{"co": {"X": 1, "Y": -1}, "interpolation": 2}]}, "id": "VP8TR78SVG", "layer": 1, "location_x": {"Points": [{"co": {"X": 1, "Y": 0}, "interpolation": 2}]}, "location_y": {"Points": [{"co": {"X": 1, "Y": 0}, "interpolation": 2}]}, "perspective_c1_x": {"Points": [{"co": {"X": 1, "Y": -1}, "interpolation": 2}]}, "perspective_c1_y": {"Points": [{"co": {"X": 1, "Y": -1}, "interpolation": 2}]}, "perspective_c2_x": {"Points": [{"co": {"X": 1, "Y": -1}, "interpolation": 2}]}, "perspective_c2_y": {"Points": [{"co": {"X": 1, "Y": -1}, "interpolation": 2}]}, "perspective_c3_x": {"Points": [{"co": {"X": 1, "Y": -1}, "interpolation": 2}]}, "perspective_c3_y": {"Points": [{"co": {"X": 1, "Y": -1}, "interpolation": 2}]}, "perspective_c4_x": {"Points": [{"co": {"X": 1, "Y": -1}, "interpolation": 2}]}, "perspective_c4_y": {"Points": [{"co": {"X": 1, "Y": -1}, "interpolation": 2}]}, "position": 8.63999973297119, "reader": {"acodec": "aac", "audio_bit_rate": 2276, "audio_stream_index": 1, "audio_timebase": {"den": 48000, "num": 1}, "channel_layout": 3, "channels": 2, "display_ratio": {"den": 1, "num": 1}, "duration": 193.77000427246094, "file_size": "1370812", "fps": {"den": 775, "num": 18604}, "has_audio": true, "has_single_image": false, "has_video": true, "height": 1000, "interlaced_frame": false, "path": "heartbeat 3 minutes/heartbeat 3 minutes.mp4", "pixel_format": 0, "pixel_ratio": {"den": 1, "num": 1}, "sample_rate": 48000, "top_field_first": true, "type": "FFmpegReader", "vcodec": "h264", "video_bit_rate": 56589, "video_length": "4651", "video_stream_index": 0, "video_timebase": {"den": 12288, "num": 1}, "width": 1000}, "rotation": {"Points": [{"co": {"X": 1, "Y": 0}, "interpolation": 2}]}, "scale": 1, "scale_x": {"Points": [{"co": {"X": 1, "Y": 1}, "interpolation": 2}, {"co": {"X": -2, "Y": 0.4614285714285714}, "interpolation": 0}]}, "scale_y": {"Points": [{"co": {"X": 1, "Y": 1}, "interpolation": 2}, {"co": {"X": -2, "Y": 0.4614285714285714}, "interpolation": 0}]}, "shear_x": {"Points": [{"co": {"X": 1, "Y": 0}, "interpolation": 2}]}, "shear_y": {"Points": [{"co": {"X": 1, "Y": 0}, "interpolation": 2}]}, "start": 0, "time": {"Points": [{"co": {"X": 1, "Y": 1}, "interpolation": 2}]}, "volume": {"Points": [{"co": {"X": 1, "Y": 1}, "interpolation": 2}]}, "wave_color": {"alpha": {"Points": [{"co": {"X": 1, "Y": 255}, "handle_left": {"X": 0.5, "Y": 1}, "handle_right": {"X": 0.5, "Y": 0}, "handle_type": 0, "interpolation": 0}]}, "blue": {"Points": [{"co": {"X": 1, "Y": 255}, "handle_left": {"X": 0.5, "Y": 1}, "handle_right": {"X": 0.5, "Y": 0}, "handle_type": 0, "interpolation": 0}]}, "green": {"Points": [{"co": {"X": 1, "Y": 123}, "handle_left": {"X": 0.5, "Y": 1}, "handle_right": {"X": 0.5, "Y": 0}, "handle_type": 0, "interpolation": 0}]}, "red": {"Points": [{"co": {"X": 1, "Y": 0}, "handle_left": {"X": 0.5, "Y": 1}, "handle_right": {"X": 0.5, "Y": 0}, "handle_type": 0, "interpolation": 0}]}}, "waveform": false, "file_id": "0JN8WFX709", "title": "heartbeat 3 minutes.mp4", "image": "../../../.openshot_qt/thumbnail/0JN8WFX709.png"}], "version": {"openshot-qt": "2.4.1", "libopenshot": "0.1.9"}, "scale": 5, "layers": [{"lock": false, "id": "L0", "number": 0, "y": 0, "label": ""}, {"lock": false, "id": "L1", "number": 1, "y": 0, "label": ""}, {"lock": false, "id": "L2", "number": 2, "y": 0, "label": ""}, {"lock": false, "id": "L3", "number": 3, "y": 0, "label": ""}, {"lock": false, "id": "L4", "number": 4, "y": 0, "label": ""}], "pixel_ratio": {"num": 1, "den": 1}}